<?xml version="1.0" standalone="no"?>
<!DOCTYPE svg PUBLIC "-//W3C//DTD SVG 1.1//EN" "http://www.w3.org/Graphics/SVG/1.1/DTD/svg11.dtd" >
<svg>
<metadata>
Created by FontForge 20120731 at Fri Jan  5 10:25:48 2018
 By Zoltan Hawryluk
(c) 1999-2001, WolfBainX &#38; Apostrophic Lab. All rights reserved. www.apostrophiclab.com or info@apostrophiclab.com for more information.
</metadata>
<defs>
<font id="KomikaSlick" horiz-adv-x="524" >
  <font-face 
    font-family="Komika Slick"
    font-weight="400"
    font-stretch="normal"
    units-per-em="1000"
    panose-1="2 0 0 0 0 0 0 0 0 0"
    ascent="800"
    descent="-200"
    x-height="743"
    cap-height="806"
    bbox="-20 -145 1179 1034"
    underline-thickness="50"
    underline-position="-75"
    unicode-range="U+0006-2122"
  />
<missing-glyph horiz-adv-x="500" 
 />
    <glyph glyph-name=".notdef" horiz-adv-x="500" 
 />
    <glyph glyph-name=".null" horiz-adv-x="0" 
 />
    <glyph glyph-name="nonmarkingreturn" horiz-adv-x="500" 
 />
    <glyph glyph-name="space" unicode=" " horiz-adv-x="324" 
 />
    <glyph glyph-name="space" unicode="&#xa0;" horiz-adv-x="324" 
 />
    <glyph glyph-name="dotaccent" horiz-adv-x="251" 
d="M114 675v-6q0 -21 14.5 -36.5t40.5 -15.5q11 0 22 6.5t20 16.5t14.5 21.5t5.5 21.5v4q0 23 -18.5 35.5t-41.5 12.5q-28 0 -42 -19t-15 -41z" />
    <glyph glyph-name="ring" horiz-adv-x="413" 
d="M393 823v2q0 19 -6 37t-17 32t-28.5 23t-39.5 9q-31 0 -54.5 -14t-39 -35.5t-24 -47t-9.5 -49.5v-7q0 -32 21 -54t54 -22q29 0 54.5 10t44.5 27t30.5 40t13.5 49zM303 847q7 0 9 -8.5t2 -16.5q-1 -18 -14.5 -28.5t-33.5 -10.5q-4 0 -8 3v4q0 8 3.5 18t9.5 18.5t14 14.5
t18 6z" />
    <glyph glyph-name="caron" horiz-adv-x="393" 
d="M232 793q-3 5 -10 8t-15 3q-2 0 -5 -0.5t-5 -0.5h-12q-13 -17 -17 -27t-4 -15v-8q4 -4 8 -10.5t7 -11.5q11 -14 19 -25t13 -18l-2 4l-1 4l2 -5t4 -8l-1 1l8.5 -8.5l11.5 -11.5t12 -10t10 -4h8q1 0 10.5 6.5t22 15.5t24.5 19t20 16q1 3 6 5q13 11 19.5 20t7.5 29v15
q-12 24 -31 24q-16 0 -26.5 -10t-21.5 -22l-15 -15t-12 -9l-37 51zM273 735l-5 7q4 -4 5 -7z" />
    <glyph glyph-name="dotlessi" unicode="&#xd;" horiz-adv-x="207" 
d="M25 70q7 -33 19 -41.5t37 -8.5q22 0 37.5 15t19.5 39q17 121 28 238.5t16 241.5v-1l2 21q0 11 0.5 28t0.5 29l2 21q0 14 -3 29.5t-10.5 28t-19 20.5t-27.5 8q-18 0 -27 -8.5t-23 -31.5q-3 -73 -10 -140.5t-15 -136.5t-15 -137.5t-10 -141.5v-11q-1 -5 -1 -12v-13v-10
t-1 -11v-15z" />
    <glyph glyph-name="Zcaron" horiz-adv-x="593" 
d="M29 89q0 -2 -0.5 -4t-0.5 -4q0 -20 10 -31.5t27 -22.5l6 -7h27q1 0 2.5 -0.5t3.5 -0.5h20q34 0 69 7.5t70 18.5h12l6 5l7 2l-1 -1q16 3 31.5 7t31.5 7q23 5 46.5 7.5t46.5 4.5q7 1 13 1q7 0 14 1h-1q2 0 4 0.5t4 0.5q3 1 6 1h16q7 0 11 1q2 0 3.5 0.5t3.5 0.5q5 1 10 1.5
t8 0.5q17 0 26 14t11 31v4q0 20 -16.5 37t-34.5 23h-55q-37 0 -72 -6t-73 -14h-8l-5 -3h-2q-25 -5 -49.5 -9.5t-49.5 -6.5q4 14 14 30.5t22.5 33.5t27 34t28.5 32v1h5q4 8 6.5 12t2.5 5l6 6q11 15 29.5 33.5t41.5 39.5q30 32 61.5 67.5t57.5 73.5t44 78.5t20 83.5
q0 73 -82 73q-9 0 -42.5 -4.5t-79.5 -12.5t-96.5 -19.5t-93.5 -25t-71 -28.5t-28 -30v-9q0 -19 9 -30t40 -22q-2 0 -3.5 -0.5l-1.5 -0.5h20q2 0 3 -0.5t2 -0.5h12q32 0 62.5 3.5t62.5 10.5h4q1 0 1.5 0.5t2.5 0.5q7 0 15 5l-2 -2q1 0 1.5 0.5l0.5 0.5q5 1 9 1.5t9 0.5
q17 2 35.5 4.5t35.5 3.5q-3 -7 -9 -14t-12 -15q-7 -5 -10 -11l-1 -1l-10 -9l-3 -7l-176 -211l-14 -17l-4 -7q-2 -2 -2.5 -3l-0.5 -1l-1 -1h-6l-3 -13q-20 -23 -40 -48t-36.5 -51t-27.5 -53t-13 -52v-1zM285 910q-3 6 -11 9.5t-16 3.5q-3 0 -6 -0.5t-6 -0.5h-14
q-14 -20 -18.5 -33t-4.5 -18q0 -2 0.5 -5t0.5 -4q4 -5 8.5 -13t8.5 -14q24 -33 34 -53l-2 6l-1 4l2 -6t5 -9l-1 1q3 -4 9 -11t13 -13.5t13.5 -11.5t11.5 -5h9q1 0 11.5 8t24 19t27.5 22.5t22 19.5l6 6q15 13 22 23.5t8 34.5v19q-11 28 -33 28q-18 0 -30 -11.5t-24 -26.5
q-8 -9 -16 -17.5t-14 -11.5l-41 62zM331 840l-5 7q1 -2 2 -3.5t3 -3.5zM305 593h2h-2z" />
    <glyph glyph-name="zcaron" horiz-adv-x="668" 
d="M31 113q-1 -5 -1 -10v-9q0 -23 10 -39.5t36 -34.5h45q52 0 101.5 12t98.5 27h-1q25 8 48.5 14.5t47.5 11.5l9 1t18 3q16 2 36 5t39.5 6.5t35.5 6.5t23 5h1h-2h1h1q0 1 1 1l-1 -1q9 2 21 6.5t23 12t18.5 17.5t7.5 24v3q0 20 -7.5 33t-20 20.5t-28.5 10.5t-32 3
q-43 0 -87 -6.5t-88 -17t-86.5 -23.5t-82.5 -26q8 21 26.5 43t37.5 43q8 8 15.5 16.5t14.5 16.5l105 125q12 14 25.5 27.5l28.5 28.5q22 22 44 45t40 48t30.5 51.5t14.5 54.5v15q0 10 -1.5 22t-6.5 22t-14 16.5t-24 6.5h-99q-1 0 -15.5 -2.5t-38 -7t-52 -10.5t-57.5 -11.5
t-55.5 -11t-45.5 -9.5h1q-17 -3 -38.5 -11t-41 -20.5t-33 -29.5t-15.5 -37v-5q0 -55 59 -55h2t7 1q2 0 5.5 0.5t5.5 0.5q59 22 122.5 41t126.5 19h15h4q3 0 5 -1q-2 -11 -16 -25.5t-27 -26.5q-3 -3 -7 -6.5t-7 -6.5q-10 -11 -29 -33.5t-43.5 -50.5t-51.5 -60t-53 -63
q-34 -40 -62.5 -72.5t-41.5 -47.5q-15 -17 -23 -28.5t-12.5 -21.5t-6 -21t-3.5 -26v1zM309 906q-2 6 -10.5 9.5t-16.5 3.5q-3 0 -5.5 -0.5t-5.5 -0.5h-14q-14 -20 -19 -33t-5 -18q0 -2 0.5 -5t0.5 -4q4 -5 8.5 -13t8.5 -14q12 -17 21 -30.5t14 -22.5l-2 6l-1 4l2 -6t5 -9
l-1 1q3 -4 9 -11t13 -13.5t13.5 -11.5t11.5 -5h9q1 0 12 8t24.5 19t27.5 22.5t22 19.5q1 2 2.5 3t3.5 3q15 13 22 23.5t8 34.5v19q-11 28 -34 28q-17 0 -29 -11.5t-25 -26.5q-8 -9 -16 -17.5t-14 -11.5l-42 62zM356 836l-5 7q1 -1 5 -7z" />
    <glyph glyph-name="exclam" unicode="!" horiz-adv-x="367" 
d="M64 356v-8q0 -10 2 -22t7 -22t14.5 -17t24.5 -7q17 0 26.5 4.5t20.5 25.5q25 57 46 113.5t42 113.5q17 48 35 95.5t38 96.5q2 5 4.5 9t4.5 8v-1q8 16 12 29t6 32q0 28 -15 41t-40 13q-27 0 -41 -14.5t-26 -34.5q-6 -11 -14.5 -29.5t-17.5 -37t-15.5 -34t-7.5 -19.5l1 6
q-4 -11 -11.5 -32.5t-17 -48.5t-20 -56.5t-19.5 -56.5t-16.5 -48.5t-10.5 -31.5q-5 -15 -6.5 -26.5t-3.5 -22.5q-1 -5 -1.5 -9t-0.5 -9zM24 100q0 -10 2 -24t8 -26.5t16.5 -21t26.5 -8.5q19 0 36 10t29 25t19.5 33.5t9.5 35.5q0 14 -2.5 29t-9 27t-18 20t-28.5 8
q-21 0 -36.5 -11t-26.5 -27t-17.5 -34.5t-8.5 -33.5v-2z" />
    <glyph glyph-name="quotedbl" unicode="&#x22;" horiz-adv-x="435" 
d="M189 519q0 -2 -0.5 -3.5t-0.5 -2.5q0 -23 15 -35t40 -12q31 0 40.5 12t16.5 29q2 5 3 8.5t3 6.5q3 9 10 26t14.5 34t13 30.5t7.5 15.5q6 11 12.5 20.5t14.5 19.5q13 17 24 34t13 40v7q0 21 -10.5 38.5t-39.5 17.5q-21 0 -42 -17.5t-40 -44.5t-36 -60t-29.5 -64.5t-20 -58
t-8.5 -39.5v-2zM28 509v-3q0 -18 11 -34.5t38 -16.5q16 0 32 16t31.5 41t30 55.5t27.5 59.5q11 26 21.5 48t21.5 37q0 14 1 14t2 3q0 2 0.5 3l0.5 1v3q0 43 -45 43q-22 0 -43 -15.5t-40 -40t-34.5 -55t-27.5 -60.5t-19 -56.5t-8 -42.5z" />
    <glyph glyph-name="numbersign" unicode="#" horiz-adv-x="624" 
d="M161 199q8 0 10 -8t4 -18q2 -11 4 -21t7.5 -18t15 -13t25.5 -5q17 0 35 12t19 32l4 67v-1q1 3 7 5.5t13.5 3.5t15.5 1.5t12 0.5q0 -14 2 -35t9 -40.5t20 -33.5t36 -14q22 0 34.5 11t19.5 27.5t9 36t2 36.5q0 7 -0.5 13t-0.5 10v2q7 7 21.5 8.5t30.5 2.5t31.5 3t27.5 7.5
t20 16.5t9 31q0 20 -11 32.5t-27.5 19t-36 9t-35.5 2.5h-18l2 18q1 19 14 24.5t28 8.5q13 2 25 5t21.5 9t16 16.5t7.5 28.5l1 7q0 7 -0.5 15.5t-3.5 15t-9.5 11t-18.5 4.5h-62l-2 2q1 5 2 13.5t1 19.5q0 13 -2.5 27t-8.5 25t-16.5 18t-26.5 7q-20 0 -31.5 -6t-18.5 -16.5
t-11 -23.5t-7 -27h1q-2 -11 -5.5 -22t-10 -20t-18.5 -15t-31 -6h-1q-2 0 -3 -2l6 92v4q0 21 -16.5 34t-36.5 13q-17 0 -29.5 -6t-21 -16t-13.5 -21.5t-7 -23.5l1 4q-3 -8 -7 -29.5t-8 -41.5q-2 -11 -3.5 -20t-1.5 -11l1 3l-3 -6l-3 -1q-14 -5 -30 -12t-29.5 -16.5t-23 -22.5
t-11.5 -31v-23q2 -8 11 -18t14 -10h66v-18q0 -2 -0.5 -4t-0.5 -5q-1 -3 -1 -8q-7 -7 -20 -10t-27 -5q-16 -3 -31.5 -7t-27.5 -11t-19.5 -19t-8.5 -31v-4q0 -27 15.5 -37t44.5 -10q20 0 40 3q9 2 18.5 3.5t15.5 1.5zM336 409h15v-14q-2 -26 -15.5 -36t-42.5 -10h-2l3 57
q0 1 5.5 1.5t13 1t14.5 0.5h9z" />
    <glyph glyph-name="dollar" unicode="$" horiz-adv-x="417" 
d="M145 20q23 0 37 7t22 18.5t12.5 26.5t7.5 30q4 16 8.5 29.5t15.5 19.5q3 2 15.5 6.5t17.5 4.5q23 13 43.5 32.5t36 43t25 48.5t11.5 49v5q0 40 -22 69.5t-52 50t-61.5 33t-50.5 19.5h-1q10 13 37 17.5t52 4.5q10 0 20.5 -1t18.5 -2q23 14 30.5 22t7.5 25v3q0 15 -5.5 26
t-14 18.5t-19.5 13t-22 11.5q-11 5 -21 9.5t-13 11.5l1 -1v7q-1 13 -3 30t-7.5 32.5t-16.5 26.5t-30 11q-6 0 -17.5 -3.5t-23.5 -10t-21 -16t-9 -20.5l-5 -92l-8 -8t-20 -19q-13 -12 -27 -27t-26 -32t-21 -36.5t-10 -41.5v-2q0 -22 10 -35.5t26.5 -22t37.5 -12.5t44 -8
l38 -6t33.5 -9t23.5 -15.5t9 -24.5v-4q-1 -24 -14.5 -42t-41.5 -18q-17 0 -27.5 10t-19.5 22q-13 18 -28 32.5t-44 14.5q-17 0 -27.5 -6t-16.5 -16t-9 -21.5t-3 -21.5v-8q0 -40 21.5 -66t48.5 -50v-1q1 0 1 -1l-6 -95q0 -9 5 -17t13 -14t17 -10t17 -4z" />
    <glyph glyph-name="percent" unicode="%" horiz-adv-x="716" 
d="M135 65q13 -16 26.5 -28t33.5 -12q22 0 39 17t30.5 42.5t23.5 56t19 57.5q5 18 9.5 32t8.5 19q52 105 123 196.5t156 176.5q5 5 9 8.5t9 8.5q19 18 34 37t18 46v3q0 17 -6.5 28.5t-17.5 18t-25 9.5t-29 3q-26 0 -49 -7.5t-46 -15.5q-22 -8 -43.5 -15.5t-45.5 -7.5
q-17 0 -31.5 7t-28.5 17q-17 11 -35.5 20.5t-45.5 9.5q-50 0 -93 -18.5t-75 -49t-51 -70.5t-20 -83v-6q0 -24 9 -46.5t25 -40t38.5 -28t49.5 -10.5q34 0 64.5 14t56.5 34.5t47.5 44.5t38.5 44q12 14 19.5 23.5l7.5 9.5q10 0 18 -0.5t19 -2.5q-3 -5 -7 -8.5t-7 -7.5l-70 -79
q-35 -43 -70.5 -91.5t-65 -100.5t-48.5 -106.5t-22 -109.5v-39zM338 107q12 -38 47 -62.5t75 -24.5q48 0 90 16.5t73.5 45t51 66t21.5 80.5v10q0 30 -9.5 58.5t-28.5 50.5t-46 35.5t-63 13.5q-51 0 -89.5 -23t-64.5 -58t-40.5 -77.5t-15.5 -82.5v-5q-1 -5 -1 -18v-25z
M462 168q1 16 7.5 35.5t18 37t27.5 29t36 11.5q9 0 15 -5.5t9 -14t4.5 -18t1.5 -17.5q-2 -35 -28 -57t-65 -22h-7q-4 0 -9 1l-9 9q0 3 -0.5 6t-0.5 5zM238 655q8 0 14 -2t6 -7q-1 -14 -10 -28.5t-22 -26.5t-29 -19.5t-32 -7.5q-9 0 -9 6v3q1 15 7.5 29.5t17.5 26.5t25.5 19
t31.5 7z" />
    <glyph glyph-name="ampersand" unicode="&#x26;" horiz-adv-x="484" 
d="M28 384v-18q0 -23 7.5 -40.5t20 -31.5t28.5 -25.5t34 -22.5q13 -8 29 -19q3 -2 4 -6t3 -9q2 -15 10 -27.5t37 -12.5q23 0 38.5 12t25.5 29.5t16 37.5t10 37q2 5 1 5.5t4 11.5l6 5q8 0 12 1h-1q19 1 44.5 4t48.5 10.5t39.5 21.5t18.5 38v3q0 18 -9 29t-23.5 17t-32.5 8
t-36 2q-14 0 -25 -0.5t-19 -1.5v10q0 12 -0.5 27.5t-1.5 28.5q-1 7 -1 11v8q0 10 -1.5 23t-7 25t-16 20.5t-27.5 8.5q-8 0 -17.5 -2.5t-18.5 -8t-16 -14t-8 -19.5l-5 -132q0 -2 -5 -2h-124q-26 0 -34 -11.5t-8 -30.5zM171 321l5 11l4 1h2l-3 -22l-2 1q-6 4 -6 9zM173 331h1
l-2 -2v1q1 0 1 1zM185 332v-1l1 -1l-3 3l0.5 -0.5t1.5 -0.5zM177 311h2v-1h-1q0 1 -1 1zM179 310h1h-1zM174 332l-1 -1q0 1 1 1z" />
    <glyph glyph-name="quotesingle" unicode="'" horiz-adv-x="175" 
d="M30 523q-1 -3 -1 -8v-9q0 -23 8.5 -32t34.5 -9q30 0 46 18.5t23.5 46t9.5 58.5t2 55q0 7 0.5 12t0.5 10q0 3 0.5 6.5t0.5 8.5v33q0 20 -2 41.5t-8 39t-17 29t-29 11.5q-23 0 -39.5 -19t-19.5 -42q0 -12 0.5 -24.5t1.5 -22.5q1 -8 1.5 -15.5t0.5 -15.5v-10t-1 -11
q-2 -17 -3 -32.5t-3 -32.5l-4 -42t-3 -44z" />
    <glyph glyph-name="parenleft" unicode="(" horiz-adv-x="315" 
d="M29 391q-1 -8 -1 -22v-31q0 -42 5 -97t19 -104t38.5 -83t63.5 -34q33 0 44 19.5t11 46.5v21q-1 3 -5.5 18t-9 33t-8.5 33.5t-4 19.5q-11 39 -15 76.5t-4 75.5q0 13 0.5 25.5t0.5 26.5q3 63 20 122.5t43 117.5q5 11 11.5 21.5t14.5 21.5q15 22 27 45t15 48v8
q0 24 -13.5 39t-39.5 15q-32 0 -59.5 -29t-51.5 -74t-42.5 -99.5t-32 -106t-20.5 -93t-7 -60.5z" />
    <glyph glyph-name="parenright" unicode=")" horiz-adv-x="309" 
d="M25 75v-2q0 -11 5.5 -21t14.5 -17t20 -11t21 -4q33 0 60.5 24.5t50 63t39 85.5t28 92t18 83.5t7.5 58.5q0 14 -1 52.5t-5 87.5t-12.5 102t-23.5 97.5t-38 73t-56 28.5q-13 0 -22.5 -5.5t-16 -14t-10 -18.5t-4.5 -20v-20q29 -91 49.5 -177t20.5 -180q0 -7 -0.5 -14
t-0.5 -14v1q-2 -56 -16 -103.5t-46 -96.5q-13 -20 -31 -38q-18 -20 -33 -42t-18 -51z" />
    <glyph glyph-name="asterisk" unicode="*" horiz-adv-x="363" 
d="M340 749q-5 13 -24 23.5t-37 10.5q-16 0 -25 -4q-1 19 -17 29t-39 10q-46 0 -66 -35l1 2q-9 -12 -13 -26q-14 7 -25 7q-5 0 -9.5 -1t-8.5 -2q-40 -11 -41 -52q0 -13 4.5 -25t21.5 -24q8 -3 9 -4q-2 -2 -6 -4q-19 -12 -27.5 -26.5t-10.5 -28.5q0 -7 3 -13.5t8 -17.5
q20 -23 49 -23q11 0 24 5q3 -40 41 -51q34 2 57 17t31 41q18 -7 34 -7q37 0 52 31l-1 -1q8 13 8 28v4q0 19 -10.5 34.5t-29.5 23.5q24 11 36 25t14 31q0 5 -1 8t-2 8l1 -5q0 2 -0.5 3.5t-0.5 2.5v6z" />
    <glyph glyph-name="plus" unicode="+" horiz-adv-x="564" 
d="M170 229l-1 -17q0 -24 9 -41t38 -17q25 0 40 11t24 29t13.5 40.5t7.5 45.5q3 21 7 38.5t11 25.5h-1q4 4 29 5.5t55 3.5q25 1 49.5 2t44 5.5t32 12.5t13.5 23l3 46q0 3 -6.5 12.5t-14.5 11.5q-2 0 -7 1t-10.5 2t-10.5 1.5t-6 0.5h-143q2 14 6.5 28t9.5 29v-1q7 20 11.5 39
t4.5 41v22q-21 31 -49 31q-23 0 -38 -11t-24.5 -26.5t-14.5 -32.5t-8 -29q-3 -6 -6.5 -19t-7.5 -27.5t-6.5 -27.5t-3.5 -18q-6 -8 -20 -10t-31 -2h-26q-8 0 -14 0.5t-12 0.5q-18 0 -34.5 -2.5t-29 -9t-20.5 -19t-9 -32.5v-2q0 -20 15.5 -32.5t37.5 -12.5h113v-6
q-1 -14 -4 -30t-6 -33l1 1q-4 -14 -6.5 -27.5t-4.5 -23.5z" />
    <glyph glyph-name="comma" unicode="," horiz-adv-x="231" 
d="M24 -72v-1q0 -23 14 -29.5t31 -6.5q26 0 51 24t44.5 57t32 67.5t13.5 54.5v-1l1 7v34q-5 16 -15.5 27.5t-30.5 11.5t-32 -7.5t-19 -19.5t-10 -27t-5 -29q-1 -5 -2 -12t-3 -13q-6 -13 -14.5 -30t-17.5 -34t-18.5 -33.5t-16.5 -27.5q-2 -8 -2.5 -9t-0.5 -3z" />
    <glyph glyph-name="hyphen" unicode="-" horiz-adv-x="421" 
d="M34 271v-5q0 -19 19.5 -29t41.5 -16h44q31 0 57.5 0.5t53 2.5t56 4.5t65.5 7.5q18 8 23 17.5t7 20.5q0 20 -20.5 31t-45.5 11h-226q-28 0 -51 -11.5t-24 -33.5z" />
    <glyph glyph-name="period" unicode="." horiz-adv-x="166" 
d="M30 78v-6q0 -22 14.5 -37.5t39.5 -15.5q12 0 23 6.5t19.5 16.5t14 21.5t5.5 22.5v3q0 23 -18.5 35.5t-41.5 12.5q-28 0 -42 -18.5t-14 -40.5z" />
    <glyph glyph-name="slash" unicode="/" horiz-adv-x="529" 
d="M24 77v-6q0 -20 9 -35.5t35 -15.5q21 0 35.5 7t25 18.5t17.5 25t13 26.5q3 10 7 16q12 21 29 52.5t36.5 67t39.5 71.5t37.5 66.5t29.5 52.5t17 30q4 3 17 21.5t28.5 42.5t31.5 48.5t26 39.5l-1 -1l8 11q17 21 28.5 42.5t15.5 49.5v6q0 26 -12 38.5t-43 12.5
q-15 0 -41 -25.5t-59 -68t-70 -97.5t-73.5 -114.5t-69.5 -119.5t-59 -112t-41.5 -91.5t-16.5 -58.5z" />
    <glyph glyph-name="zero" unicode="0" horiz-adv-x="680" 
d="M33 278v-15q0 -50 15.5 -94t46 -77t75.5 -52.5t104 -19.5q81 0 150 40.5t120 102.5t81.5 135t34.5 139v10q0 43 -13 94t-40 95t-69 73t-100 29q-63 0 -116.5 -20.5t-98 -55t-78.5 -80.5t-58 -97t-37.5 -104.5t-16.5 -102.5zM414 603q32 0 55 -15t38 -38.5t22.5 -51
t7.5 -52.5v-8q-2 -37 -20.5 -86t-48.5 -93.5t-69 -75t-84 -30.5q-32 0 -55.5 10.5t-39.5 28.5t-24 41.5t-8 49.5v13q2 27 9 60t19.5 67.5t31 66.5t43 57.5t55.5 40.5t68 15z" />
    <glyph glyph-name="one" unicode="1" horiz-adv-x="282" 
d="M101 155l-3 -31q0 -16 1 -34.5t6.5 -34t15.5 -25.5t28 -10q29 0 47 20t26 48q2 72 7.5 144t12.5 145q5 55 10 110.5t7 109.5l1 13v45l2 17q-3 13 -11.5 25t-19.5 21t-23 14.5t-23 5.5q-6 0 -20.5 -15.5t-32.5 -39.5t-37.5 -53.5t-35 -56.5t-26 -49t-10.5 -32v-3
q0 -27 12 -36t38 -9q13 0 21 4.5t16 10.5l5 2.5t5 3.5l-1 -27q-1 -29 -3.5 -58.5t-4.5 -58.5q-3 -42 -6 -83.5t-4 -82.5z" />
    <glyph glyph-name="two" unicode="2" horiz-adv-x="529" 
d="M37 159l-5 -88v-3q0 -15 9 -24t21 -14.5t25.5 -7.5t22.5 -2q23 0 47 5.5t49 11.5q18 5 36.5 9t40.5 6q10 1 32.5 1.5t50.5 0.5t51 -0.5t34 -1.5q45 15 47 53v6q0 22 -11 37t-27.5 23.5t-36 12t-37.5 3.5q-28 0 -53 -2.5t-50 -6.5h1q-14 -2 -28 -3.5t-27 -2.5q49 40 98 85
t88 95.5t65 107.5t29 123v4q0 57 -25 97.5t-89 51.5h-16q-4 0 -7.5 0.5t-7.5 0.5q-5 1 -11 1h-12h-14q-12 0 -35.5 -2.5t-52 -8t-58.5 -14t-55 -20.5t-41.5 -27.5t-17.5 -34.5v-6q0 -76 77 -76q26 0 47.5 10.5t41.5 21.5q17 10 35.5 18.5t41.5 8.5q25 0 44 -8t19 -30v-2
q-2 -26 -11.5 -51.5t-25 -49.5t-35 -45.5t-39.5 -40.5q-11 -11 -37 -34.5t-57 -51.5q-18 -17 -37 -34t-35 -31t-26.5 -24t-12.5 -12z" />
    <glyph glyph-name="three" unicode="3" horiz-adv-x="599" 
d="M32 115v-11q0 -19 9.5 -33.5t23.5 -25t31.5 -16.5t33.5 -9h74q56 0 116 14t110.5 42.5t84.5 73t38 106.5v8q0 34 -11.5 62t-30.5 51t-43 43.5t-49 39.5q-1 0 -2 1q6 4 16 12.5t24 19.5q19 16 40 34.5t39 38t30 38.5t13 37v5q0 37 -24 59.5t-59 35t-74 17t-68 4.5
q-17 0 -44 -2.5t-58.5 -8.5t-64 -15t-59 -22.5t-44 -31.5t-18.5 -41q0 -12 7 -23t18.5 -19.5t24.5 -14t25 -5.5q2 0 3.5 0.5t2.5 0.5h5q49 23 92 36.5t95 13.5h8q4 0 7.5 -0.5t7.5 -0.5h20q6 -2 11.5 -5.5t5.5 -6.5q-1 -14 -13 -29t-31.5 -30.5t-44 -31t-49.5 -30.5
q-24 -15 -47 -29.5t-41 -29t-29 -29.5t-12 -31v-5q0 -55 60 -55q16 0 31 3.5t32 7.5q14 4 26.5 7t27.5 3q16 0 34 -5.5t32.5 -14.5t24 -22t9.5 -28v-3q-2 -31 -23 -50.5t-51 -31t-64 -15.5t-62 -4q-14 0 -28 1t-28 3t-27.5 3t-30.5 1h-32q-23 -14 -26.5 -28.5t-4.5 -28.5z
" />
    <glyph glyph-name="four" unicode="4" horiz-adv-x="611" 
d="M318 331h59l-11 -240q0 -4 -0.5 -7t-0.5 -6q0 -29 12.5 -44t47.5 -15h9q15 0 28 5t24 31q2 42 5.5 75.5t8 65t10 64t13.5 72.5q2 12 7.5 23t12.5 20q11 15 19 29t8 34v2q0 9 -2 16t-4 15q-2 5 -4 10.5t-2 9.5q2 18 6 40.5t9 45.5q5 22 9.5 44t6.5 49l2 18q0 20 -5 41
t-25 31q-5 2 -17 3.5t-16 1.5h-15q-14 0 -28.5 -6t-22.5 -29q-2 -10 -5 -26t-7 -34.5t-9 -39.5t-10 -41q-8 -33 -14.5 -60.5t-8.5 -38.5l1 1q-5 -18 -16.5 -25t-33.5 -7h-164q2 26 15.5 50.5t30.5 50.5q19 29 34.5 58t17.5 62v3q0 57 -61 57q-26 0 -52 -23.5t-49 -60
t-42.5 -82t-33.5 -90.5q-14 -47 -22.5 -79.5t-8.5 -55.5q0 -28 13 -42t45 -16q17 0 27 5t20 12q12 7 19 8q42 11 85 13t85 2z" />
    <glyph glyph-name="five" unicode="5" horiz-adv-x="654" 
d="M37 184v-11q0 -48 24.5 -78t62.5 -46.5t83 -22.5t87 -6q62 0 118 20.5t98.5 56.5t68.5 85.5t28 107.5v12q0 34 -9 70t-29 65.5t-51.5 48.5t-76.5 19h-222q0 4 2 18.5t4 28.5q2 11 3.5 21t2.5 17q7 11 21.5 18.5t32.5 12t36 6.5t31 2q24 0 48.5 -2.5t50.5 -5.5
q26 -2 51.5 -5t53.5 -3q14 0 27 2t23.5 7.5t18 16t9.5 27.5v5q0 32 -23 49.5t-55.5 25.5t-66.5 9.5t-56 1.5h-3q-77 0 -147.5 -16t-147.5 -38l-9 -9q-7 -5 -12.5 -12t-9.5 -19q-2 -25 -5 -50t-7 -50q-5 -41 -9.5 -80t-6.5 -81q-1 -5 -1 -10v-10q0 -15 5.5 -26t22.5 -21
q5 -5 11 -5.5t14 -0.5h14q27 0 53.5 6.5t53.5 14.5q25 8 51.5 14t52.5 6h26q5 0 9 -0.5t9 -0.5h7q32 -14 49 -33t17 -49v-9q-2 -29 -17 -52.5t-38 -39.5t-52.5 -24.5t-60.5 -8.5q-34 0 -62 3t-54 21q-5 4 -11.5 12t-12.5 16q-14 18 -28.5 32.5t-37.5 14.5q-33 0 -46 -21.5
t-13 -46.5z" />
    <glyph glyph-name="six" unicode="6" horiz-adv-x="600" 
d="M33 318q0 -5 -0.5 -11.5t-0.5 -11.5q0 -49 10 -98t34.5 -88.5t66 -64t104.5 -24.5t122.5 24.5t105 65t74 93.5t30.5 110q0 3 0.5 6.5t0.5 7.5q0 25 -7 49t-21 44.5t-36 35.5t-52 23h-13q-9 0 -14 1q-5 0 -9.5 0.5t-9.5 0.5h-11q-35 0 -63.5 -5t-55 -14.5t-51.5 -22.5
t-52 -28q8 46 33.5 83.5t62 68.5t81 55.5t92.5 44.5q22 15 27.5 28.5t7.5 33.5v15q0 14 -6.5 24.5t-29.5 18.5q-2 0 -8 0.5t-10 0.5h-13q-20 0 -36 -3t-30.5 -9t-28 -14t-29.5 -18q-5 -3 -9 -5t-9 -5q-114 -74 -177.5 -180t-69.5 -231v-1zM379 338q20 0 35 -5t15 -20v-5
q-2 -28 -17 -54t-38.5 -46.5t-53 -33t-59.5 -12.5q-16 0 -32 3.5t-28.5 10.5t-20.5 18t-8 26v2q1 26 24 47.5t55.5 36.5t67 23.5t60.5 8.5z" />
    <glyph glyph-name="seven" unicode="7" horiz-adv-x="565" 
d="M61 84v-2q0 -28 18.5 -45t48.5 -17q24 0 41.5 15t30 38.5t22 50.5t16.5 51q4 14 7.5 25.5t7.5 17.5q50 99 123.5 185.5t152.5 167.5q5 10 8.5 19t4.5 15l1 30v-1l1 8v12q0 6 1 10v12q-2 12 -10.5 23.5t-20 21.5t-25.5 18t-27 12h-50q-35 0 -68 -3.5t-65 -7.5
q-32 -5 -63.5 -8t-61.5 -3h-24q-11 0 -23 2q-21 -6 -34.5 -16.5t-22 -24.5t-12.5 -29t-5 -30v1q-1 -9 -1 -16v-15q0 -27 14 -39.5t52 -12.5q28 0 40.5 11.5t21.5 25.5l-1 -1q5 6 9 11t10 7q40 14 82.5 18t85.5 4h43q-55 -56 -100.5 -114t-84 -119.5t-71 -126.5t-60.5 -135v1
q-4 -8 -6 -14t-3.5 -11t-2 -10t-0.5 -12z" />
    <glyph glyph-name="eight" unicode="8" horiz-adv-x="651" 
d="M33 186v-10q0 -38 15.5 -67.5t42.5 -49t62.5 -29.5t75.5 -10q34 0 76.5 9t86.5 25.5t86 39.5t75 51.5t54 62t24 69.5v8q0 27 -10 52t-26 46.5t-36.5 40.5t-41.5 34q2 9 11 22.5t20 30.5q19 29 38 64.5t21 77.5v7q0 21 -8.5 46.5t-24 47t-37 36t-48.5 14.5h-121
q-26 0 -57 -13.5t-63 -35.5t-62 -50.5t-53.5 -58t-38.5 -57.5t-16 -50v-4q0 -25 12 -43t27 -35q11 -12 19.5 -25t8.5 -27v-2q0 -5 -9 -18.5t-23 -31.5q-26 -34 -52 -76.5t-28 -90.5zM380 365q19 0 35 -7t26.5 -19t16.5 -27t6 -31v-7q-1 -28 -19 -52t-46 -42t-60.5 -28
t-62.5 -10q-8 0 -23.5 0.5t-32 2.5t-30.5 6t-20 10v16q1 36 19 69.5t47 60t66.5 42.5t77.5 16zM229 533q1 24 18 50t42 47.5t54 36t55 14.5q31 0 44 -7t13 -29v-10q-2 -40 -16.5 -68.5t-40 -46.5t-60 -26t-75.5 -8q-17 0 -25.5 16.5t-8.5 30.5z" />
    <glyph glyph-name="nine" unicode="9" horiz-adv-x="591" 
d="M278 58q0 -14 5 -21.5t12 -11t15.5 -4.5t15.5 -1q21 0 34.5 8t22 20.5t12.5 28.5t7 31v-1l19 102q25 118 65.5 232t84.5 223v19q0 33 -17 55t-42.5 35.5t-56.5 19.5t-58 6q-66 0 -130 -23.5t-115.5 -64t-85 -95.5t-37.5 -119q0 -5 -0.5 -10.5t-0.5 -10.5q0 -36 8 -69.5
t26.5 -59t49.5 -40.5t76 -15q16 0 29.5 2t27.5 4q11 2 22.5 3t21.5 2l-11 -244v-1zM390 681q9 0 17 -1t15 -4v-4q-1 -14 -9.5 -30t-16.5 -32l1 1q-7 -13 -12.5 -25t-9.5 -23l1 2q-2 -5 -4.5 -9.5t-4.5 -9.5q-11 -26 -22 -50t-27.5 -42.5t-40 -29.5t-58.5 -11q-15 0 -26 7
t-18.5 18.5t-11 25t-3.5 26.5v6q1 35 23 68.5t55.5 59.5t73.5 41.5t78 15.5z" />
    <glyph glyph-name="colon" unicode=":" horiz-adv-x="207" 
d="M43 418v-6q0 -24 11.5 -44.5t39.5 -20.5q15 0 27.5 5.5t24 14.5t21 20t18.5 21v11q1 5 1.5 9t0.5 6v2q0 28 -15.5 50t-47.5 22q-17 0 -31.5 -8.5t-25.5 -21.5t-17.5 -29t-6.5 -31zM30 110q-1 -4 -1.5 -8.5t-0.5 -10.5q0 -21 8.5 -33.5t34.5 -12.5q16 0 33.5 6.5
t32.5 18.5t25 28t12 34q0 13 -7.5 25.5t-18.5 22t-24.5 15.5t-25.5 6q-19 0 -32 -8.5t-21 -22t-11.5 -29.5t-3.5 -31z" />
    <glyph glyph-name="semicolon" unicode=";" horiz-adv-x="267" 
d="M24 -37v-2q0 -26 13.5 -33.5t32.5 -7.5q36 0 63.5 18t46 45t28.5 59.5t11 61.5v30l1 10q-7 25 -15 32t-29 7q-20 0 -33 -7.5t-21 -19.5t-13.5 -27.5t-9.5 -31.5q-4 -12 -7 -22.5t-8 -16.5q-4 -8 -10 -14t-12 -13q-14 -14 -26 -30.5t-12 -37.5zM108 416q-1 -4 -1 -9v-10
q0 -25 10.5 -40t40.5 -15q16 0 32 6t29 17t20.5 26t7.5 33v4q0 31 -18 53t-53 22q-20 0 -32.5 -8.5t-20.5 -21.5t-11.5 -28.5t-3.5 -28.5z" />
    <glyph glyph-name="less" unicode="&#x3c;" horiz-adv-x="431" 
d="M249 30q6 -6 12 -8t12 -2h12q30 0 44 15.5t15 40.5v10q0 37 -13 74t-33.5 71.5t-44.5 66.5t-46 60q-14 16 -26 32v3q1 14 11 31.5t26 37.5t35.5 41.5t40.5 42.5q21 22 41.5 44t37 43t26.5 40t12 36v12q0 11 -5.5 20.5t-23.5 15.5h-27q-17 0 -38 -4.5t-35 -23.5l1 1
l-235 -291v1q-12 -14 -16.5 -23t-4.5 -24v-19q0 -23 8.5 -43t22.5 -38.5t31.5 -35.5t35.5 -33q14 -13 26.5 -25t22.5 -23l-1 1q24 -32 41.5 -69.5t31.5 -71.5z" />
    <glyph glyph-name="equal" unicode="=" horiz-adv-x="403" 
d="M29 415v-3q0 -26 19.5 -38.5t43.5 -12.5q21 0 34.5 2t33.5 7q16 4 49 10h-2l30 3q21 1 46 4t46.5 10.5t37 21t16.5 36.5v5q0 16 -4 25.5t-28 19.5h-27q-4 0 -7.5 0.5t-6.5 0.5h-10q-16 0 -42 -1.5t-56 -5.5t-60 -11t-55 -17t-41 -24t-17 -32zM35 253q0 -2 -0.5 -4
t-0.5 -4q0 -29 15.5 -34t44.5 -5h41q31 0 72 3.5t78 13.5t62.5 28t27.5 47q0 32 -12.5 42t-44.5 10q-16 0 -43.5 -3t-59 -8.5t-63.5 -13.5t-58 -19t-42.5 -24t-16.5 -29z" />
    <glyph glyph-name="greater" unicode="&#x3e;" horiz-adv-x="460" 
d="M31 82v-5q0 -29 17 -43t46 -14h10q14 0 24.5 4.5t19.5 27.5q37 104 109 190.5t163 160.5q14 14 16.5 28t3.5 32v8q0 21 -7.5 39t-18.5 33.5t-25.5 29.5t-27.5 27l1 -1q-3 3 -6 5.5t-5 5.5l-182 181l-32 13h-7q-24 0 -41.5 -14t-18.5 -41q0 -17 6.5 -33t20.5 -30l7 -7
t17 -17.5t22 -23t22 -22.5h-1q20 -24 40.5 -44.5t31.5 -29.5l11 -11l-1 1q15 -14 31 -33.5t16 -37.5l-1 -4l-18 -19q-13 -14 -30 -30.5t-32.5 -33t-28 -30t-17.5 -20.5h1q-21 -21 -44 -50.5t-43 -62t-34 -66t-15 -63.5z" />
    <glyph glyph-name="question" unicode="?" horiz-adv-x="596" 
d="M425 667q-2 -25 -18 -48.5t-39 -45t-51 -40.5t-54 -36q-38 -26 -65 -47.5t-29 -45.5l-4 -105v-2q0 -14 5 -22t12.5 -11.5t17 -4t18.5 -0.5q22 0 35 4.5t20.5 12.5t10.5 18.5t6 23.5l-1 -1q4 15 11.5 34t32.5 37q10 8 20 15.5t21 15.5q36 27 71.5 54.5t64 59.5t46.5 70
t20 85v8q0 37 -13 64t-36.5 44.5t-54.5 26t-67 8.5q-21 0 -56.5 -6.5t-77 -18.5t-84.5 -28.5t-78.5 -37.5t-58.5 -45t-24 -51v-9q0 -19 6 -31.5t29 -26.5q1 0 5.5 -0.5t9.5 -0.5q5 -1 9 -1h7q35 0 64 16t58 37q32 22 68 42t84 20h6q4 0 8 -0.5t7 -0.5h17q11 -5 15.5 -12
t5.5 -18zM138 91v-8q0 -31 19.5 -47t50.5 -16q37 0 66 22t30 57q0 15 -7 28.5t-18.5 24t-25.5 16.5t-28 6q-18 0 -33.5 -7t-27 -18.5t-18.5 -26.5t-8 -31z" />
    <glyph glyph-name="at" unicode="@" horiz-adv-x="747" 
d="M36 324v-17q0 -56 17 -107.5t51.5 -91.5t86.5 -64t122 -24q25 0 58 3.5t63 15t51.5 32t24.5 53.5v4q0 28 -18.5 41t-44.5 13q-19 0 -34.5 -4t-31.5 -11q-14 -5 -27.5 -9.5t-27.5 -4.5q-43 0 -72 13.5t-46.5 36.5t-25 53.5t-7.5 65.5v10q0 6 1 13q2 50 25 104t61 98.5
t90 73.5t113 29h8q3 0 8 -0.5t10 -1.5l-2 1q8 -2 9 -2q27 -11 45.5 -31t30.5 -44t17.5 -51t5.5 -53v-13q0 -10 -2.5 -30.5t-7.5 -41.5t-14.5 -37t-22.5 -16q-11 0 -17.5 9t-10 22.5t-5 29t-1.5 27.5q0 10 1 15q2 17 7 32t11 30h-1q8 17 13 33t7 33v4q0 31 -20.5 44t-51.5 13
q-56 0 -104 -27t-83.5 -68.5t-56.5 -91t-22 -94.5q0 -3 -0.5 -6.5t-0.5 -5.5q0 -26 8 -49.5t24 -41t39 -27.5t52 -10q23 0 40 5.5t33 12.5q14 6 27 11t26 5q8 0 16 -3.5t16 -6.5v1q11 -5 22 -8.5t25 -3.5q48 0 82.5 26t56.5 64.5t33 81.5t12 77v18q0 59 -17.5 112t-53 93
t-88 63.5t-121.5 23.5h-12q-5 0 -11 -0.5t-11 -0.5q-5 -1 -9 -1h-6h-15q-77 -15 -140 -63.5t-108.5 -112.5t-71 -136t-27.5 -135zM341 356q0 11 6.5 32t16.5 41.5t22 36t23 15.5h2v-3q1 -12 1 -26v-27v-45v-16q0 -6 -2 -11v-7v-2q-2 -12 -14.5 -17t-24.5 -5q-18 0 -24 5
t-6 16v9v4z" />
    <glyph glyph-name="A" unicode="A" horiz-adv-x="552" 
d="M413 61q5 -16 16.5 -28.5t34.5 -12.5q13 0 23.5 6t17 15.5t10.5 20.5t4 21l13 251q-5 19 -8.5 54.5t-6.5 79.5q-3 52 -8 108t-16.5 102.5t-30.5 77t-51 30.5q-29 0 -56.5 -16t-52.5 -41t-46.5 -56.5t-39.5 -63.5t-32 -60.5t-22 -47.5q-5 -12 -18.5 -45t-28.5 -68
q-11 -29 -22 -55.5t-17 -41.5q-21 -14 -32 -27t-11 -41v-46q0 -24 2 -50.5t8 -49t18.5 -37.5t33.5 -15q23 0 36.5 8.5t21 22.5t10 31.5t4.5 36.5q2 20 5.5 37.5t13.5 22.5q16 10 36.5 16t42 9t43 4t40.5 1h45q10 -5 13 -12.5t4 -19.5v-1v1v-2v1q0 -2 0.5 -3.5t0.5 -2.5
q0 -2 0.5 -7t0.5 -10q1 -8 1 -18v-19v-60zM389 455q0 -20 -0.5 -39.5t-2.5 -35.5q0 -4 -0.5 -7.5t-0.5 -6.5v1l-1 -15q-6 -6 -23 -9.5t-37.5 -6t-42 -4t-37.5 -2.5q5 26 17 60t28.5 68.5t36 64.5t39.5 48q15 -18 19.5 -50.5t4.5 -65.5z" />
    <glyph glyph-name="B" unicode="B" horiz-adv-x="572" 
d="M33 135v-4q0 -24 14.5 -44.5t37 -35.5t49.5 -23t52 -8q31 0 69.5 10t78.5 28t78 42.5t68.5 53t49.5 59.5t22 63v4q0 27 -10 47t-26 35t-34.5 26.5t-36.5 20.5q-14 8 -24.5 13t-10.5 7v1q1 14 12 32t25 38q20 29 39 61.5t21 69.5v5q0 36 -17.5 60.5t-45 39.5t-61 21.5
t-64.5 6.5q-25 0 -64.5 -4t-77.5 -16t-66.5 -35t-29.5 -60v-10q0 -11 2 -19t9 -16v-31v-49v1l-2 -23q-5 -78 -18.5 -155.5t-30.5 -159.5l-5 -28q-2 -11 -2.5 -13.5t-0.5 -10.5zM306 317h4q10 2 16 2q10 0 25.5 -1.5t29.5 -5t24.5 -9.5t11.5 -15q-2 -25 -25.5 -50t-55.5 -45
t-67 -32.5t-60 -12.5q-14 0 -23 1t-15 7v18q2 43 6 68t16.5 39.5t39 21.5t73.5 14zM322 629h7q5 0 8 -0.5t5 -0.5h15q7 -4 7 -5q0 -2 -0.5 -5t-0.5 -5q-2 -24 -13 -50t-29.5 -48t-42.5 -38t-52 -20v56q0 24 3.5 45t14 37t29.5 25t49 9z" />
    <glyph glyph-name="C" unicode="C" horiz-adv-x="577" 
d="M33 233v-14q0 -97 57 -148t163 -51q20 0 49.5 6t63 16.5t67 25.5t60.5 33.5t44.5 40t19.5 45.5v3q0 22 -13 36t-35 14q-26 0 -51 -13t-52 -30q-31 -20 -67 -38t-78 -18q-26 0 -42.5 7.5t-25.5 21t-12.5 31.5t-3.5 39q0 5 0.5 10.5t0.5 11.5q0 16 8 49t21.5 73.5t33 82.5
t42 77t48 57t51.5 22q3 0 4 -1l-1 -20q0 -14 1 -30t6.5 -30t16.5 -23t32 -9q25 0 41.5 12t26.5 29.5t14.5 38t4.5 37.5v11q0 12 -1 30t-6 35.5t-15.5 31t-29.5 16.5q-29 6 -60 6q-70 0 -125 -31.5t-97 -80.5t-72 -109.5t-49.5 -118.5t-29 -107.5t-10.5 -76.5z" />
    <glyph glyph-name="D" unicode="D" horiz-adv-x="574" 
d="M38 274l-1 -31q-1 -10 -1 -20v-19v-31l-1 -18q0 -8 -0.5 -15t-0.5 -14q0 -35 5 -55.5t19.5 -32t40.5 -15t68 -3.5q72 0 140 26.5t121.5 72.5t87.5 106.5t37 128.5v-1q1 6 1 12v14q0 67 -20 134t-60 119.5t-100.5 85.5t-140.5 33h-62q-14 -5 -28.5 -10t-27.5 -13
t-23.5 -19t-15.5 -26q-2 -60 -7.5 -118t-13.5 -116q-5 -43 -10 -86.5t-7 -88.5zM165 228q2 46 5.5 88t9.5 84t13.5 85.5t18.5 93.5q8 11 15 14t21 3q40 0 71 -21t52 -52.5t32 -69t11 -70.5v-7q-3 -40 -22.5 -77.5t-51 -67t-72 -47.5t-85.5 -18q-2 0 -8 0.5t-10 1.5l-3 3
q0 4 0.5 9t0.5 11v10q0 6 1 11q0 4 0.5 8.5t0.5 7.5z" />
    <glyph glyph-name="E" unicode="E" horiz-adv-x="563" 
d="M33 184v-7q0 -29 15 -57t39 -50.5t53 -36t58 -13.5q22 0 53.5 7t66.5 19t69.5 29.5t62.5 38t46 44.5t20 50q0 57 -58 57q-35 0 -61 -18t-51 -41q-22 -20 -45 -36.5t-50 -16.5q-17 0 -30.5 7.5t-23 19.5t-14.5 27t-5 30v6q1 39 22 64t53 41.5t70.5 25.5t74.5 17
q29 6 55 12t45.5 15t31.5 22t13 33v2q0 14 -7 26.5t-18 21.5t-25 14.5t-28 5.5q-30 0 -57.5 -6.5t-55.5 -14.5h1q-24 -7 -48 -13t-50 -6h-2q-5 0 -6 -3v16l2 8q1 34 14 55.5t33.5 32.5t48 15t57.5 4q22 0 44.5 -1t44.5 -2q46 13 48 52v4q0 24 -11 39t-28 23t-38.5 10.5
t-42.5 2.5q-8 0 -16 -0.5t-16 -0.5q-6 0 -12 -0.5t-11 -0.5h-27q-11 0 -22 0.5t-23 0.5q-32 0 -67 -3t-64 -12.5t-48.5 -28t-21.5 -49.5v-8q0 -14 1.5 -27t3.5 -25v1q0 -6 1 -15t2 -17.5t2 -15l1 -6.5q-1 -3 -1 -7q-2 -48 -13 -93l-22 -90q-12 -46 -21.5 -90.5t-11.5 -87.5z
" />
    <glyph glyph-name="F" unicode="F" horiz-adv-x="629" 
d="M33 174q-1 -5 -1 -12v-14q0 -21 3.5 -43.5t12.5 -41t25 -31t41 -12.5q40 0 46 35q0 6 2 24.5t4.5 39.5t5 40t3.5 26v11v0q0 1 1 2v-1q1 3 1 7t1 9q3 15 6 33.5t7 36t9 32t13 22.5q10 8 24.5 9t35.5 1h231q10 0 20.5 7.5t18 18t12.5 22t5 18.5v1q0 16 -7.5 27.5
t-19.5 19.5t-27 12t-30 4q-11 0 -22 -0.5t-22 -1.5q-6 0 -11.5 -0.5t-11.5 -0.5h-6q-2 0 -6 -0.5t-6 -0.5q-23 -4 -52 -4h-30q-20 0 -40 2t-26 10v3l1 19v9v16q2 44 9.5 76.5t17.5 37.5h-2q16 9 54 9h21h10t11 -1q1 0 2.5 -0.5t3.5 -0.5h-3q4 -1 8.5 -1.5t10.5 -0.5h17
q16 0 29.5 -1t27.5 -4q3 -1 7 -1q20 -4 40 -5.5t39 -1.5q30 0 45.5 16t16.5 42v3q0 29 -20 45.5t-48.5 24.5t-59.5 10t-53 2h-15q-11 -1 -33.5 -2.5t-51 -3t-58.5 -2.5t-56 -2q-10 -1 -20.5 -1.5t-18.5 -0.5q-5 -2 -10 -2h-9q-36 -11 -54 -31.5t-20 -49.5q-1 -6 -1.5 -11
t-0.5 -10q0 -13 2.5 -25t10.5 -28v-57l-1 -14q-3 -47 -10.5 -90t-17.5 -87q0 2 1 4q-4 -6 -4 -13v1q-10 -44 -17.5 -89t-10.5 -91v2z" />
    <glyph glyph-name="G" unicode="G" horiz-adv-x="625" 
d="M32 226v-11q0 -47 19 -83.5t51.5 -61t74.5 -37.5t89 -13q51 0 109 15t108 45t84 73.5t37 100.5q0 4 0.5 8.5t0.5 9.5q0 23 -4.5 52t-16.5 55t-33 44t-53 18h-11q-3 0 -17 -4t-27 -8q-8 -3 -14.5 -5.5t-7.5 -2.5q-8 -1 -19.5 -1.5t-25.5 -0.5q-12 0 -26 0.5t-19 2.5
q-35 -9 -49.5 -33t-15.5 -48v-6q0 -26 21 -44.5t49 -18.5q19 0 36 5t31 10q13 5 25.5 8.5t24.5 3.5h1v-9v-20q-3 -63 -48.5 -95.5t-118.5 -32.5q-41 0 -71 18.5t-40 53.5v38l2 10q1 20 10.5 55t25 75t36.5 81.5t45.5 75t52 54.5t55.5 21q10 0 12.5 -10t4.5 -23t4.5 -26
t9 -23.5t18.5 -17t33 -6.5q22 0 35.5 7t21.5 19t11.5 27t5.5 31v12q0 25 -7 55t-22 55.5t-38.5 42.5t-56.5 17q-31 0 -54.5 -14t-44.5 -30l1 1q-2 -2 -4 -3.5t-4 -2.5q-62 -48 -114.5 -105.5t-92 -122t-63 -135.5t-27.5 -146z" />
    <glyph glyph-name="H" unicode="H" horiz-adv-x="569" 
d="M29 105q2 -14 5.5 -29t11 -27.5t20.5 -20.5t33 -8q12 0 24.5 4t22.5 11.5t17 18.5t8 24q0 9 2 30.5t4.5 46t5 47t4.5 31.5q1 16 8 26.5t18 16.5t25 9.5t29 6.5l8 3h3q7 2 11.5 4t10.5 5h5q3 0 5.5 -7.5t4 -20.5t2.5 -29t1 -34q0 -3 0.5 -6.5t0.5 -7.5q2 -29 4.5 -57.5
t9.5 -51.5t21 -37.5t39 -14.5q8 0 19 2.5t21 7.5t17.5 12.5t8.5 18.5l21 395q1 29 9.5 56t18.5 54v-1q2 8 3.5 12t3.5 8q2 5 3 9.5t3 9.5q11 29 19 57.5t9 56.5v5q0 27 -15.5 45.5t-45.5 18.5q-27 0 -44 -13t-28 -34.5t-18 -51t-13 -62.5q-7 -39 -16.5 -79.5t-29 -73
t-52 -53.5t-86.5 -21q-4 0 -4 8q3 36 9.5 69.5t15.5 64.5q1 2 1 3q0 2 1 4q8 32 15 63.5t7 64.5q0 2 0.5 5t0.5 6q0 28 -15 51t-49 23q-32 0 -46.5 -19t-23.5 -41q-33 -128 -52.5 -248.5t-25.5 -247.5l-4 -75v-17z" />
    <glyph glyph-name="I" unicode="I" 
d="M40 86q0 -18 9 -31t23 -20.5t30.5 -11t31.5 -3.5q10 0 39 4t66 10.5t77.5 15.5t75 19t57 20.5t24.5 20.5v6q0 22 -10 35t-25.5 20.5t-34.5 10t-38 2.5q-8 0 -15.5 -0.5t-14.5 -0.5q-4 0 -7 -0.5t-5 -0.5h-1v1l2 26v45q0 12 0.5 23t1.5 21l2 28v-1q1 8 1 15v17
q4 81 9.5 162t22.5 162h6q8 0 17 -1t19 -2q19 -3 42 -3h12q4 0 8.5 0.5t6.5 0.5q23 7 27 18t5 24v7q0 32 -19 50.5t-51 28.5h-9q-4 0 -8 0.5t-9 0.5t-10 0.5t-9 0.5h-15q-4 0 -9.5 -0.5t-10.5 -0.5h-12q-2 0 -9 -1h2q-5 0 -21 -2.5t-34.5 -6.5t-34.5 -7.5t-22 -4.5l1 1
q-8 -2 -18 -2.5t-22 -1.5q-24 -1 -50.5 -3.5t-49 -11t-38.5 -25t-17 -44.5v-1q0 -16 8 -28t20 -20.5t27 -13t29 -4.5t25.5 2.5t24.5 7.5h-1q9 2 19 4.5t22 2.5h1v-1l-24 -495q-1 -8 -15.5 -9t-31.5 -1t-33 -1t-28.5 -5.5t-21.5 -15.5t-10 -30v-2z" />
    <glyph glyph-name="J" unicode="J" horiz-adv-x="564" 
d="M28 217v-23q0 -48 14.5 -81.5t42.5 -54t68.5 -29.5t93.5 -9h57q75 30 129.5 85t71.5 131q1 13 3.5 41.5t5.5 64t6.5 74.5t6.5 74.5t5.5 63.5t3.5 41l1 13q0 5 0.5 10.5t1.5 12.5q1 5 1.5 10.5t0.5 13.5l2 18v17v-1q1 6 1 12v14v42q-4 21 -21 34.5t-42 13.5
q-23 0 -38 -8.5t-24.5 -22t-14 -29.5t-5.5 -32q-1 -37 -1.5 -73t-0.5 -72q0 -68 -6 -141q-1 -20 -2.5 -48.5t-6 -60t-14 -63t-25 -57t-39 -41t-57.5 -15.5q-27 0 -41.5 6.5t-22 17t-9 23t-2.5 25.5q-1 16 -3 31.5t-8.5 27t-20 18.5t-37.5 7q-23 0 -38 -9t-34 -26v-15
q-2 -5 -2 -19q0 -8 -1 -12z" />
    <glyph glyph-name="K" unicode="K" horiz-adv-x="580" 
d="M228 233l3 -3h-8t-1 -1q10 0 10 1q5 -7 13 -10q22 -22 48 -45t56 -42t63 -31t70 -12q19 0 33.5 5.5t32.5 22.5v19q0 3 1 4l1 8q0 20 -6.5 34t-18.5 23.5t-28.5 17t-35.5 15.5v1h11t2 1h-14q-14 6 -25.5 11t-16.5 10l-102 91q-3 2 -5 3.5t-4 3.5q-2 9 -6.5 11t-12.5 2
q-5 4 -8 11v11q7 8 14 14.5t15 14.5h-1q7 5 13 12l12 14v-1l16 15q35 33 71.5 68.5t66.5 73t50 75.5t23 76q0 9 -3 20t-9.5 20t-15.5 15.5t-21 6.5q-23 0 -44 -13t-41 -33.5t-38.5 -46.5t-35.5 -52q-11 -17 -22 -31.5t-27 -31.5q-7 -7 -17 -15.5t-20.5 -17t-19.5 -16
t-14 -11.5l-1 -1h-3l10 169v2q0 16 -7 28t-18 20t-25 12.5t-29 4.5q-31 0 -43 -18t-20 -40q-3 -16 -7.5 -48.5t-10.5 -73t-12 -85.5t-11.5 -86t-9.5 -74.5t-5 -51.5v-7q-3 -11 -4 -26.5t-1 -31.5l-2 -39q-1 -11 -1.5 -25.5t-0.5 -25.5v-5q0 -2 0.5 -2.5t0.5 -1.5l-1 -12
q2 -16 6.5 -36t14 -37t25 -29t38.5 -12h4q13 0 25 4t25 27l1 28v1l1 8v22v11t-1 11v17q-1 6 -1 12v14v28l1 19q0 11 3.5 20t18.5 9q9 0 15 -1.5t15 -6.5v-1l5 -7zM241 266q14 0 16 -2t2 -16l-31 -14z" />
    <glyph glyph-name="L" unicode="L" horiz-adv-x="512" 
d="M35 203v-8q-1 -5 -1 -18q0 -29 8 -57t25 -50t42.5 -36t61.5 -14q37 0 75.5 15.5t66.5 30.5q4 2 9.5 5.5t13.5 8.5v-1q14 8 33 19t37 21.5t33 19.5t21 13q18 10 24.5 28.5t7.5 35.5v3q0 26 -16.5 39.5t-45.5 13.5q-31 0 -61.5 -18t-62.5 -41q-31 -22 -63.5 -40.5
t-64.5 -18.5l-3 9v5v19q0 8 1 12v13q2 52 10.5 105.5t19.5 107.5q10 54 18.5 106.5t10.5 109.5v30q1 5 1 10v12v13q-1 9 -6 18t-12.5 16.5t-16.5 12t-18 4.5q-26 0 -41.5 -15t-24.5 -36t-13 -43t-6 -37q0 -3 -0.5 -6t-0.5 -5q0 -4 -1.5 -21.5t-3.5 -37.5t-4.5 -37.5
t-3.5 -21.5q-1 -6 -3.5 -21.5t-6.5 -37t-9 -47t-9 -49.5q-7 -38 -13 -68t-7 -39v-18q0 -3 -0.5 -6.5t-0.5 -7.5z" />
    <glyph glyph-name="M" unicode="M" horiz-adv-x="698" 
d="M56 180l-2 -19v1q-2 -11 -3 -25t-1 -30q0 -17 2.5 -32.5t9 -27.5t18.5 -19.5t32 -7.5q10 0 21.5 1.5t22 6.5t17.5 13.5t8 22.5q1 4 1 9v11q0 8 -0.5 14.5t-1.5 12.5q-1 8 -1.5 14.5t-0.5 12.5q0 3 1 8q2 51 9.5 97t17.5 91q13 -30 25.5 -55.5t28.5 -49.5t36.5 -47
t48.5 -46h20q25 0 48 19t43 47t36.5 59.5t28.5 56.5q4 8 6.5 14t4.5 10q3 -14 6.5 -32t3.5 -19v1l-11 -240q0 -19 14.5 -25.5t28.5 -6.5h8q34 0 52.5 15.5t27 39.5t10 52.5t1.5 53.5v5v31q0 8 0.5 16t0.5 16q0 32 -2 64.5t-4 64.5t-4.5 65.5t-2.5 65.5v17t1 17
q2 19 4.5 37.5t4.5 37.5q2 17 3.5 35t3.5 35q0 22 -15 42.5t-44 20.5q-20 0 -38 -14t-26 -31q-4 -8 -6.5 -16t-6.5 -16q-20 -47 -40 -92.5t-42 -90t-47 -89.5t-55 -92q-10 5 -19.5 29.5t-17 54.5t-12.5 58.5t-6 41.5l-18 206v-1q-1 1 -1 4q-2 9 -4.5 18.5t-7.5 17.5t-14 13
t-23 5q-28 0 -52 -38t-44 -97t-35.5 -129t-26 -134t-16 -113t-5.5 -66zM361 310h4h-3l-2 -1h-1h1q0 1 1 1zM357 308v-1v1z" />
    <glyph glyph-name="N" unicode="N" horiz-adv-x="609" 
d="M53 77v-1q0 -19 15.5 -37.5t35.5 -18.5q34 0 47.5 21.5t17.5 45.5q1 16 4 57.5t6.5 89t6.5 89.5t4 59q0 5 2.5 21t4.5 29l46 -108l-1 1q4 -10 13.5 -30t20 -41t20 -39.5t13.5 -24.5v1q2 -5 7 -15q8 -16 19 -35.5t25.5 -36t32 -28t38.5 -11.5q29 0 49 15.5t33 38t20.5 47
t12.5 42.5v-1q1 2 1.5 6t1.5 6q1 7 3 26q3 19 6.5 46t7 53.5t6 49t2.5 33.5l1 18v-1q3 31 3 79l2 33l2 27q0 3 0.5 7t0.5 9q1 16 1 31q0 16 3 30l2 30q-1 4 -1.5 8t-1.5 8q-3 15 -6.5 29t-10.5 25t-19.5 17.5t-33.5 6.5q-20 0 -32 -12t-18.5 -29t-9.5 -36t-5 -33v2
q-1 -5 -2 -10.5t0 -4.5q-2 -32 -2.5 -65t-0.5 -65v-64q0 -31 -2 -64v-26q0 -8 -0.5 -17t-1.5 -18q0 -4 -0.5 -5.5t-1 -4t-1 -7.5t-0.5 -15l-2 -22v-3l-4.5 -18t-1.5 -10q-8 0 -18 13t-21 34t-21.5 46t-19 48.5t-15 43.5t-8.5 29l-24 79q-2 6 -8 22.5t-14 36.5
q-7 19 -13.5 37t-8.5 25q-20 25 -48.5 43.5t-63.5 18.5q-19 0 -31 -10t-19.5 -24t-11 -28.5t-5.5 -24.5q-1 -9 -3.5 -29t-4.5 -42.5t-4 -43t-2 -29.5l-1 -20q0 -8 -0.5 -17.5t-1.5 -18.5q-1 -11 -1.5 -23.5t-1.5 -23.5l-1 -34l-5 -75q-2 -35 -3 -68t-1 -69q0 -18 0.5 -37
t1.5 -39z" />
    <glyph glyph-name="O" unicode="O" horiz-adv-x="841" 
d="M36 282v-13q0 -60 21.5 -106.5t59.5 -78t90 -48t113 -16.5q62 0 122 14t114.5 40.5t101 63.5t81.5 83.5t56 101t25 115.5q0 5 0.5 9t0.5 9q0 62 -23.5 114.5t-64.5 91t-97 60t-121 21.5q-62 0 -120.5 -18.5t-111 -51t-97 -76.5t-77 -95.5t-51.5 -107.5t-22 -112zM483 625
q43 0 79 -19t62 -49t41 -68.5t15 -77.5v-5q-2 -50 -31.5 -97t-75 -83.5t-101 -58.5t-107.5 -22q-39 0 -72 10.5t-57 31t-37.5 49.5t-13.5 66v12q2 45 29.5 99.5t70 101.5t95 78.5t103.5 31.5z" />
    <glyph glyph-name="P" unicode="P" horiz-adv-x="599" 
d="M37 51q10 -22 21 -27t29 -5q10 0 22.5 5t23.5 13.5t19 18.5t8 20l9 144q0 -2 9.5 1t24 8t32 12t34.5 13q22 9 38.5 15t28.5 13l-1 -1q40 21 82 51t77.5 67.5t59 81.5t25.5 91v11q0 47 -20 80t-53 54t-75.5 30.5t-88.5 9.5q-14 0 -41.5 -3.5t-61 -10.5t-69 -17t-65 -23.5
t-49 -30t-20.5 -35.5v-2q0 -20 8.5 -40t23.5 -34v-21q0 -9 -2 -14v-14q-3 -42 -7.5 -81t-8.5 -79q-6 -49 -11 -99.5t-7 -101.5v-32q0 -9 0.5 -21t1.5 -22q1 -7 1 -11v-6zM191 430v9q0 1 1.5 9t4.5 21t6 28t6 29l-1 -1q3 12 5.5 22.5t4.5 17.5l-1 -1q4 20 18 31.5t33 17.5
t41.5 8t43.5 2q35 0 55 -8t20 -37v-8q-2 -32 -26 -67.5t-60 -66t-77.5 -51.5t-77.5 -23v41z" />
    <glyph glyph-name="Q" unicode="Q" horiz-adv-x="706" 
d="M439 34q13 -17 26.5 -32t21.5 -27q18 -18 43 -18t43.5 15.5t22.5 37.5v7q0 22 -11.5 38.5t-25.5 32.5q-11 14 -20.5 26.5t-9.5 25.5v4q2 17 19 37t35 40h-1l8 8t7 8q40 55 63 112t26 120v10q0 36 -11.5 78.5t-36.5 78.5t-63 60.5t-91 24.5q-42 0 -79.5 -16t-66.5 -35h1
q-66 -39 -121 -86.5t-95 -102.5t-64 -117t-28 -129v1q-1 -6 -1 -13v-13q0 -41 9.5 -77t33 -62.5t62 -42t95.5 -15.5q49 0 93 15t86 35h1q4 -2 5 -1q4 -5 10 -12t14 -16zM394 571q5 2 9 5t9 6l-1 -1q12 6 26 12.5t26 6.5q27 0 44.5 -14.5t27.5 -36t14 -46t4 -44.5v-13
q-1 -12 -9 -43t-20.5 -62.5t-29 -56t-34.5 -24.5q-8 0 -14 7.5t-11 16.5v-1q-10 17 -23 30.5t-39 13.5q-19 0 -30 -3t-17 -9t-8.5 -15.5t-4.5 -23.5v-8q0 -17 6 -31t12 -27q5 -9 9 -19t4 -19v-3q-1 -9 -13.5 -15t-29 -10.5t-33.5 -6.5t-27 -2q-43 0 -60.5 22.5t-17.5 52.5
v10q2 50 19 100.5t46.5 97t71.5 86t94 67.5z" />
    <glyph glyph-name="R" unicode="R" horiz-adv-x="632" 
d="M31 71q6 -17 19 -34t38 -17q33 0 51.5 17.5t26.5 43t9.5 55.5t1.5 56v23v7q6 3 15 3q0 -2 6.5 -10.5t16.5 -20.5q17 -23 40 -51t53.5 -53t68 -42t83.5 -17q13 0 28.5 2t28.5 7t22 15t11 27v4q0 14 -7.5 24.5t-20.5 19t-29.5 15.5t-35.5 15q-21 8 -42.5 17t-39 20.5
t-28.5 26t-11 33.5v5q1 4 18 17t44 32q31 22 67 50.5t68 61t54 69t25 76.5v7q0 40 -21.5 68t-56 45.5t-77.5 25t-85 7.5q-66 0 -120 -9.5t-93.5 -32t-63.5 -60t-31 -94.5q-2 -12 -4.5 -39.5t-5.5 -58t-5 -57.5t-2 -38l-2 -20v2q-3 -12 -3 -39q-1 -8 -1.5 -17t-2.5 -19
l-1 -36v-26q-1 -8 -1.5 -18.5t-0.5 -21.5q0 -5 -0.5 -12t-1.5 -14q0 -3 -0.5 -7t-0.5 -6v1zM203 559q3 16 22.5 28t46 19t54 10.5t45.5 3.5q30 0 54.5 -5t36.5 -26q0 -3 -0.5 -6t-0.5 -8v-16q-2 -36 -26 -73.5t-61.5 -68.5t-84.5 -51t-95 -20q-3 0 -6.5 -1t-2.5 -1h-1
q1 4 1 12v31q2 44 6 83.5t12 88.5z" />
    <glyph glyph-name="S" unicode="S" horiz-adv-x="604" 
d="M33 223v-9q0 -54 21 -91t56.5 -60t82.5 -33t99 -10q70 0 123.5 24t90.5 64.5t56.5 93.5t21.5 112v8q0 44 -23.5 75t-60 53.5t-80.5 37.5t-84 27q-42 13 -71.5 23.5t-29.5 17.5v1v4q18 17 37 33t40 28t43.5 19.5t47.5 7.5q13 0 23 -3.5t20 -8.5q12 -6 24.5 -10.5
t27.5 -4.5q26 0 40 16t16 39v5q0 24 -13 44.5t-33.5 35t-45 22.5t-47.5 8q-28 0 -63 -11t-71 -30t-71 -44t-62 -53.5t-44.5 -58.5t-19.5 -58v-5q0 -30 15.5 -50t41 -34t58 -23t67.5 -18q34 -8 66.5 -17t58 -22.5t41.5 -33.5t16 -49v-5q-4 -69 -46 -103.5t-115 -34.5
q-29 0 -47.5 7t-30.5 18.5t-19 25t-13 26.5q-12 27 -27 47t-51 20q-66 0 -66 -63z" />
    <glyph glyph-name="T" unicode="T" horiz-adv-x="655" 
d="M199 72q0 -23 13.5 -37.5t38.5 -14.5q22 0 35.5 5.5t21.5 15t13 23.5t9 31t7 33t7 33q23 106 41.5 207t29.5 214q9 17 37 22t58 9q23 3 45 6.5t39 11.5t28 22t13 38v2q0 6 -3 14.5t-8 16.5t-12 14t-16 6h-65q-15 -4 -53 -12t-85 -17.5t-95 -19t-83 -15.5l-42 -9
q-8 -2 -23.5 -4t-33 -3.5t-32.5 -3t-21 -1.5q-14 -6 -22 -11.5t-12 -12.5t-5 -15t-1 -18v-3q0 -15 4.5 -28.5t31.5 -23.5h12q2 0 6 -0.5t8 -0.5h22q21 0 37.5 0.5t32 2t33 4t39.5 7.5q1 -1 2 -1t2 -1v-15q-2 -51 -9.5 -102.5t-16.5 -104.5q-9 -51 -17 -100t-10 -103v-32
q0 -9 -1 -14v-15z" />
    <glyph glyph-name="U" unicode="U" horiz-adv-x="520" 
d="M44 362q-1 -17 -2 -38t-1 -43q0 -44 5.5 -90t22.5 -84t48.5 -62.5t84.5 -24.5q55 0 100 20t79 54t57 78.5t36 92.5q2 23 3.5 43.5t3.5 39.5v-1q5 58 9 110t7 112l1 39v-1q1 10 1.5 19.5t0.5 17.5q0 9 -0.5 17.5t-0.5 19.5q0 8 -0.5 19t-0.5 22q-16 42 -60 42
q-29 0 -47.5 -15t-20.5 -41l-2 -16q0 -9 -1 -18t-3 -19v-20q-1 -10 -1 -20v-20v-27q0 -13 1 -26t1 -26v-26v-20t-1 -19q-1 -17 -4.5 -45t-9.5 -60.5t-16 -65t-24.5 -59t-35 -43.5t-47.5 -17q-18 0 -29 13.5t-17 33.5t-8.5 44.5t-2.5 46.5v61q1 5 2 12.5t1 12.5l1 3
q1 11 4 32t7.5 47t9.5 54.5t10 53.5t9 45.5t7 29.5v-1l3 12q0 12 -2.5 23.5t-8.5 20.5t-16 14.5t-26 5.5q-21 0 -34.5 -12t-23.5 -24q-30 -86 -47.5 -163t-21.5 -164z" />
    <glyph glyph-name="V" unicode="V" horiz-adv-x="508" 
d="M39 668v-8q0 -3 1.5 -15t3.5 -24t3 -24t1 -10q1 -8 1 -16t1 -16v1q3 -68 7 -123t11.5 -107.5t21.5 -107.5t38 -121q5 -13 12 -26.5t17 -25t24 -18.5t33 -7q21 0 34 11.5t18 26.5q22 61 42.5 121t41.5 121q32 94 65 189t71 188v6q0 2 0.5 4.5t0.5 4.5t0.5 3.5t0.5 3.5
q0 25 -16.5 38.5t-42.5 13.5q-32 0 -57.5 -31.5t-46.5 -81t-38 -109t-32 -116.5q-9 -33 -16.5 -62.5t-14 -51.5t-11.5 -35t-8 -13q-6 0 -10.5 13.5t-8.5 35t-7 46.5t-5 47.5t-3 40t-1 22.5q-1 5 -1 13v19q0 23 0.5 51t1.5 53q1 17 1 31v22q-2 13 -6 26.5t-12 24t-20.5 17
t-31.5 6.5q-26 0 -44 -12.5t-19 -38.5z" />
    <glyph glyph-name="W" unicode="W" horiz-adv-x="767" 
d="M408 171q14 -24 30.5 -51t36 -49t42.5 -36.5t51 -14.5q26 0 48 23t39.5 59t31 79t22.5 83.5t14.5 73t6.5 46.5v11l1 26q0 5 0.5 10t1.5 12q1 10 2 21.5t1 22.5l2 32l1 26l1 33v-1q2 17 2 37t1 39q0 4 0.5 9t0.5 10l3 37q-2 13 -5.5 25.5t-10.5 22.5t-18.5 16t-29.5 6
q-43 0 -63 -41q-1 -70 -3.5 -139t-10 -138t-21.5 -137t-39 -136q0 -2 -7 -4q-7 0 -15 11.5t-15 29t-14 38.5t-12 40t-8.5 33.5t-4.5 19.5v-1q-1 5 -1 8v8q0 13 1.5 30t3.5 37q2 24 4 50t2 54q0 27 -3.5 50.5t-12 41t-23.5 28t-38 10.5q-18 0 -40 -9t-30 -35l-33 -232v1
q-1 -6 -7.5 -21.5t-15.5 -35t-21 -41t-23 -39.5t-21.5 -29.5t-17.5 -11.5q-5 4 -8.5 23.5t-5 45.5t-2 55t-0.5 53v48q2 25 7 51t10 53q6 29 11 58t7 62v7q0 24 -10 38.5t-45 14.5q-42 0 -65.5 -26t-35.5 -62.5t-15.5 -77t-4.5 -69.5q0 -7 -0.5 -12.5t-0.5 -10.5v1
q-1 -14 -1 -30v-29q0 -67 6.5 -131.5t18.5 -131.5v3q1 -18 6 -40t15.5 -41.5t28.5 -32.5t45 -13q14 0 22 1.5t25 9.5q24 16 48.5 40.5t47 51.5t42 53l34.5 46q5 -5 13.5 -20t20.5 -36z" />
    <glyph glyph-name="X" unicode="X" horiz-adv-x="632" 
d="M31 80v-6q0 -24 14 -39t43 -15q15 0 26.5 5.5t20.5 14.5l96 161l0.5 0.5l2.5 2.5q4 7 11 17.5t14 20.5t13.5 17t9.5 7l24 -24q5 -6 22 -27.5t37 -45.5h-1q12 -15 25.5 -31.5t24.5 -30t18 -22.5t7 -10q11 -15 25.5 -20t28.5 -5q20 0 36.5 11.5t18.5 34.5v11
q-19 50 -52 98.5t-67 92.5q-14 19 -26 35.5t-23 32.5l-5 4v7q0 2 3 7l3.5 3.5t5.5 6.5l-1 -1q8 8 25 28.5t33 38.5q10 11 16.5 19.5l6.5 8.5q8 8 18.5 19.5t24.5 24.5q16 16 34 33.5t33 35.5t24.5 36t10.5 36v3q0 20 -13.5 37t-39.5 17q-22 0 -44 -13.5t-44 -34.5t-43 -47.5
t-40 -52.5q-25 -31 -45 -55.5t-30 -29.5l-6 6l-6 5q0 1 -1 1v0l-1 2v-1q-4 7 -13.5 23.5t-20 34.5t-19.5 34t-12 22q-2 4 -5 8t-5 6q-8 13 -16 26.5t-18.5 25t-24 19t-32.5 7.5q-35 0 -48.5 -15.5t-16.5 -44.5q0 -26 12.5 -45.5t26.5 -37.5q5 -5 8 -9t4 -6q5 -11 17.5 -33.5
t27.5 -48t29 -49t22 -34.5q0 -2 1 -3l2 -8q0 -5 -2 -7q-5 -6 -10.5 -11.5t-10.5 -12.5q-24 -28 -52 -61t-52 -68.5t-41 -72t-19 -69.5z" />
    <glyph glyph-name="Y" unicode="Y" 
d="M104 88q0 -11 2 -22.5t8 -22t17.5 -17t29.5 -6.5q28 0 52 16t28 45v-1q7 39 14.5 74t16.5 69t21.5 67.5t30.5 69.5l-1 -1q8 13 24.5 42.5t36.5 65.5q13 25 27.5 51t27.5 49t24 41t18 28q13 23 16.5 41t6.5 38v7q0 21 -10 36.5t-41 15.5q-23 0 -38.5 -9.5t-26.5 -24
t-18.5 -32.5t-13.5 -35q-4 -9 -6.5 -16.5t-3.5 -9.5q-4 -6 -11 -19t-16.5 -28.5t-19.5 -33t-20 -33.5v1q-16 -26 -29.5 -50.5t-19.5 -34.5q0 1 -4 1h-8h-3q-22 0 -32 7.5t-15 24.5v36l1 8q1 22 5.5 40.5t9.5 37.5q5 20 10 38t7 38v3q0 23 -15 43t-44 20q-34 0 -54.5 -20.5
t-31.5 -50t-15.5 -63t-5.5 -58.5v1l-3 -30v-9q0 -27 7.5 -50t19.5 -43t26 -36.5t27 -30.5q11 -12 19 -21t8 -11v-1q-1 -26 -6.5 -55t-11.5 -58t-10.5 -58.5t-6.5 -62.5v-1z" />
    <glyph glyph-name="Z" unicode="Z" horiz-adv-x="593" 
d="M29 88q0 -2 -0.5 -3.5t-0.5 -3.5q0 -21 10 -32t27 -22l6 -7h27q1 0 2.5 -0.5t3.5 -0.5h20q34 0 69 7.5t70 18.5h12l6 4l7 2l-1 -1q16 4 31.5 8t31.5 7q23 5 46.5 7.5t46.5 4.5q7 1 13 1q7 0 14 1h-1q2 0 4 0.5t4 0.5q3 1 6 1h16q7 0 11 1q2 0 3.5 0.5t3.5 0.5q5 1 10 1h8
q17 0 26 14t11 31v4q0 20 -16.5 36.5t-34.5 23.5h-55q-37 0 -72 -6t-73 -14h-8l-5 -3h-2q-25 -6 -49.5 -10t-49.5 -6q4 14 14 30.5t22.5 33t27 33.5t28.5 32v1h5q4 8 6.5 12t2.5 5l6 5q11 15 29.5 33.5t41.5 38.5q30 32 61.5 67t57.5 72.5t44 78t20 82.5q0 73 -82 73
q-9 0 -42.5 -4.5t-79.5 -12.5t-96.5 -19.5t-93.5 -24.5t-71 -28t-28 -30v-9q0 -19 9 -29.5t40 -21.5q-2 0 -3.5 -0.5l-1.5 -0.5h20q2 0 3 -0.5t2 -0.5h12q32 0 62.5 3.5t62.5 9.5h4q1 0 1.5 0.5t2.5 0.5q7 0 15 5l-2 -2q1 0 1.5 0.5l0.5 0.5l18 3q17 2 35.5 4t35.5 3
q-3 -7 -9 -14t-13 -15l-5.5 -5.5t-3.5 -4.5l-1 -1l-10 -9l-3 -7l-176 -209l-14 -17l-4 -7q-2 -2 -2.5 -3l-0.5 -1l-1 -1h-6l-3 -13q-20 -23 -40 -47.5t-36.5 -50.5t-27.5 -52.5t-13 -51.5v-1zM305 587h2h-2z" />
    <glyph glyph-name="bracketleft" unicode="[" horiz-adv-x="382" 
d="M29 85v-2q0 -11 6 -22t15 -20t20.5 -15t22.5 -6h162q10 0 19.5 6t17 14t12.5 17.5t6 16.5q0 8 -4.5 19t-12 21.5t-16.5 18t-18 7.5h-93l-2 2v16q1 5 1 6v4v10q1 13 3.5 38.5t5.5 58t6.5 70t6.5 75.5l6 74t6 68.5t5.5 56.5t4.5 40q2 5 2 6q0 2 -2 3h99q31 0 42.5 18.5
t11.5 40.5v8q0 14 -5.5 23t-27.5 20q-6 1 -12.5 1.5t-11.5 1.5h1q-19 3 -33.5 5t-29 3.5t-29.5 2t-34 0.5h-40q-20 -8 -28 -17t-16 -20q-2 -2 -3.5 -4.5t-2.5 -3.5q-6 -169 -18 -329.5t-41 -322.5l1 1z" />
    <glyph glyph-name="backslash" unicode="\" horiz-adv-x="427" 
d="M31 679q8 -17 24.5 -53.5t36.5 -82t42 -96t42 -96t35.5 -82t22.5 -54.5q2 -7 9 -26.5t15 -40.5t15.5 -39.5t10.5 -24.5q8 -26 25 -45t50 -19q16 0 25 5t14 13t6.5 18t1.5 21q0 3 0.5 6.5t0.5 5.5q0 24 -7.5 45t-16.5 44q-1 2 -1 3t-1 2v-1q-10 26 -19 50t-19 49
q-47 122 -97.5 239.5t-117.5 233.5q-9 16 -24.5 23t-30.5 7q-17 0 -26.5 -5.5t-14.5 -13.5t-6.5 -18.5t-1.5 -20.5v-5q0 -3 -0.5 -5.5t-0.5 -5.5q0 -9 2 -16t7 -16z" />
    <glyph glyph-name="bracketright" unicode="]" horiz-adv-x="351" 
d="M25 75q0 -11 1 -21t5.5 -17.5t13.5 -12t24 -4.5h8l153 13q12 8 23.5 20t16.5 30q4 82 12 163.5t18 163.5q10 79 18 158.5t12 162.5v-2l1 7v42q-8 29 -25 45t-49 16q-23 0 -49 -5.5t-52 -13.5q-16 -5 -32.5 -9t-31.5 -6q-20 -14 -29 -28t-11 -37v-9q0 -14 5.5 -23
t27.5 -18h18q3 0 5.5 -0.5t5.5 -0.5h4q13 0 25.5 2.5t24.5 6.5q8 2 17.5 4t18.5 3l-1 -40q-3 -64 -10.5 -126t-15.5 -125t-15 -127t-11 -127q-5 -8 -19 -11.5t-28 -5.5t-28 -5t-25 -10t-18 -19t-8 -33v-1z" />
    <glyph glyph-name="asciicircum" unicode="^" horiz-adv-x="446" 
d="M246 562v0q1 0 3 -1l87 -90q7 -6 13.5 -8t14.5 -2h11q17 0 33.5 13.5t17.5 30.5v3v8q-1 5 -2.5 10t-3.5 7q-22 24 -48 53t-47 56q-2 2 -5 5.5t-6 8.5q-11 14 -24 28.5t-25 14.5h-19q-2 0 -20 -10.5t-42.5 -24.5t-49.5 -29.5t-39 -25.5q-6 -4 -10 -6q-14 -8 -24.5 -15
t-18 -15.5t-12 -19.5t-5.5 -28v-25q19 -29 49 -29q24 0 46 14t45 33q20 17 40 30.5t41 13.5z" />
    <glyph glyph-name="underscore" unicode="_" horiz-adv-x="701" 
d="M33 -16v-2q0 -16 16.5 -23.5t35.5 -10.5h447q5 0 19 0.5t29 1.5q14 1 27.5 2t21.5 1q17 8 34.5 19t17.5 27v4q0 8 -4 12t-21 12h-40h-92h-42t-45 1t-46 1h-45q-26 0 -48.5 0.5t-41.5 0.5h-77q-18 0 -42.5 -1.5t-47 -6t-38.5 -14t-18 -24.5z" />
    <glyph glyph-name="grave" unicode="`" horiz-adv-x="257" 
d="M236 699q0 2 0.5 3.5t0.5 3.5v9q0 13 -6.5 36t-20 46t-33.5 40t-46 17q-20 0 -31 -9.5t-11 -22.5v-3q0 -15 7 -26.5t15 -23.5q4 -7 8.5 -13t6.5 -12q1 -2 1 -4t2 -5q2 -9 5.5 -20t10 -20t17.5 -15.5t29 -6.5q23 0 38 12z" />
    <glyph glyph-name="a" unicode="a" horiz-adv-x="525" 
d="M344 54q6 -24 14.5 -29t26.5 -5h12q25 0 39 10t21.5 25.5t10.5 33.5t5 35q0 5 1 7v-1q1 5 1 10v13q0 11 -0.5 22.5t-1.5 22.5q-1 9 -1 18v19v20l4 25v2q15 11 21 20.5t8 29.5v4q0 18 -7 30t-17 23v-1q-5 5 -9 9.5t-6 11.5v-2q-1 8 -3 27t-4.5 39.5t-4 38.5t-1.5 26
q0 2 -0.5 3t-0.5 3q-1 11 -1.5 23.5t-0.5 28.5q0 30 -4.5 62t-16.5 58.5t-32.5 44t-52.5 17.5q-18 0 -37 -10t-36 -23.5t-31 -27.5l-23 -23l-6 -7q-52 -51 -85 -116t-53 -135t-29 -141t-12 -133v-24q0 -14 2 -28t8 -25.5t18 -19t32 -7.5q34 0 55 29q4 8 4.5 15t0.5 17
t0.5 22.5t1.5 24.5t2 21.5t1 14.5l2 14t6 10q42 7 84 11t85 4q1 0 4 -0.5t7 -0.5v-7q0 -6 0.5 -12.5t0.5 -14.5q1 -8 1 -17v-18v-46v-10t-2 -11v-18t-1 -16q0 -3 -0.5 -6t-0.5 -5zM326 603q4 0 6.5 -15t4 -37.5t2 -48.5t0.5 -48v-57q-2 -5 -2 -10v-9v-16q-8 -8 -23.5 -12
t-33 -5.5t-34.5 -2t-27 -0.5h-21q-6 0 -10.5 2t-5.5 7q1 10 8.5 32.5t19 50.5t26 58t30 54.5t31 40.5t29.5 16z" />
    <glyph glyph-name="b" unicode="b" horiz-adv-x="627" 
d="M32 102q0 -25 16 -41t39 -25t48 -12.5t42 -3.5q35 0 79.5 10.5t91.5 29t92 45t81.5 57.5t59.5 66t26 72v6q0 30 -10.5 50t-28 33.5t-39 22.5t-42.5 17q-20 8 -36 14.5t-24 14.5q2 2 5.5 4t8.5 7l-1 -1q19 14 39.5 30t38 34.5t29 40.5t13.5 47v5q0 24 -10.5 43.5t-28 34
t-40 24t-45.5 13.5h-42q-6 0 -12 0.5t-11 0.5h-16q-22 0 -52.5 -0.5t-63.5 -4.5t-66 -11.5t-59.5 -21.5t-43 -36t-18.5 -53q0 -3 0.5 -7t0.5 -7v-12l39 -36v-16v-16l-2 -15q-4 -103 -20 -197.5t-36 -192.5zM167 158q0 15 1 17v5q1 9 4.5 30t8 45t9 45.5t6.5 30.5v-1
q2 7 7.5 13.5t13.5 9.5h62q18 0 50.5 -2t63.5 -8t54 -17t23 -29v-1q-2 -35 -32.5 -63t-72.5 -48t-88 -30.5t-80 -10.5h-10h-8q-2 0 -11 2l-2 1v7zM225 481q0 8 -0.5 18t-0.5 19v52l1 14q0 14 17 22.5t40 13t45.5 6t34.5 1.5q4 0 14 -1t20.5 -3t18.5 -5.5t9 -7.5l-6 -6l2 2
q-15 -14 -38.5 -35.5t-50 -42t-54.5 -35.5t-52 -16v4zM421 454v0q0 1 1 1z" />
    <glyph glyph-name="c" unicode="c" horiz-adv-x="614" 
d="M33 255v-16q0 -62 17.5 -104t51.5 -67.5t83.5 -36.5t112.5 -11q20 0 49.5 5t62 15t64.5 24t58.5 31.5t43 38.5t18.5 44v3q0 23 -15.5 37t-42.5 14q-28 0 -55.5 -14.5t-58.5 -32.5q-33 -20 -70.5 -38.5t-81.5 -18.5q-27 0 -47 9.5t-33 25.5t-19 37t-6 44q0 8 1 13
q2 54 21 103.5t50.5 94.5t72 85t85.5 76q7 6 10 7t10 1q15 0 19 -12t6 -27q2 -14 4.5 -27t9 -23.5t19 -17t33.5 -6.5q19 0 29.5 5.5t16.5 15t8 22t4 26.5v14q0 24 -6 53.5t-19.5 55.5t-34.5 43.5t-52 17.5q-41 0 -81.5 -17.5t-78 -46.5t-72 -66t-64 -75.5t-52 -75.5
t-37.5 -66q-20 -40 -25.5 -82t-8.5 -80z" />
    <glyph glyph-name="d" unicode="d" horiz-adv-x="673" 
d="M66 73v-2q0 -16 13 -33.5t32 -17.5h42q99 0 187.5 34.5t156 94.5t109 140t45.5 170v-1l1 13v17l1 34q-13 60 -58 106.5t-105.5 79t-128.5 49t-127 16.5q-25 0 -59 -9t-65.5 -26t-54 -41.5t-24.5 -55.5v-4q0 -20 11.5 -32.5t33.5 -12.5q19 0 33 5q7 3 18 3q3 0 5 -4t3 -10
t1 -12v-9v1l-3 -48v-18v-6q0 -3 -2 -8l-6 -140v2q-2 -11 -2.5 -19.5t-1.5 -16.5l-2 -68q0 -1 -1.5 -9.5t-3 -19.5t-3.5 -21.5t-3 -15.5q-2 -10 -7.5 -21t-11.5 -22q-9 -16 -16 -31t-7 -31zM247 205q2 61 3 115.5t4 111.5l7 122q0 10 0.5 20.5t0.5 18.5l2 39l1 1h4h8
q49 0 94 -12.5t79 -36.5t54 -58.5t20 -78.5v-7q-2 -22 -13.5 -51.5t-30.5 -61.5t-44 -63.5t-53 -56t-58.5 -40t-60.5 -15.5q-12 0 -18 11q0 11 0.5 21.5t0.5 20.5z" />
    <glyph glyph-name="e" unicode="e" horiz-adv-x="641" 
d="M33 106v-19q0 -23 10 -36.5t26 -20t35.5 -8.5t37.5 -2h33q16 0 54 6t86 18t99.5 28.5t94 37t71 45t29.5 51.5v5q0 24 -11.5 38.5t-41.5 14.5q-21 0 -40.5 -8.5t-38.5 -21.5q-7 -5 -16 -10t-17 -9q-54 -29 -119 -51.5t-131 -22.5h-15l1 38v-1q1 24 3 43t3.5 38t4 40
t5.5 49q13 8 53.5 11t94.5 5q47 1 95.5 4.5t88 11.5t65.5 23t28 41v4q0 53 -58 53q-35 0 -66.5 -3.5t-63.5 -7.5h-11q-5 0 -10 -1h1q-38 -5 -75 -8.5t-73 -3.5h-16q-13 0 -25 0.5t-20 5.5v7v5v4v4q2 38 11 60.5t27 35.5t45.5 18t67.5 7q12 0 40.5 0.5t60.5 2.5q35 2 64 3.5
t43 1.5q19 1 37 14t18 33v4q0 24 -12.5 38.5t-32 23t-43 11t-45.5 2.5h-27h-14q-5 0 -10 -1q-4 0 -6.5 -0.5t-5.5 -0.5h-9q-82 0 -159.5 -11.5t-155.5 -37.5q-30 -12 -36.5 -26.5t-7.5 -34.5q-1 -5 -1 -9v-9q0 -17 4 -30.5t15 -30.5l-16 -344q-3 -6 -5.5 -17t-4.5 -24
t-4 -27t-3 -25q-1 -5 -1.5 -8.5t-1.5 -7.5v-3z" />
    <glyph glyph-name="f" unicode="f" horiz-adv-x="645" 
d="M31 106v-11q0 -31 13.5 -53t51.5 -22q20 0 34.5 18t25 46t17.5 62t13 67q2 9 3 16.5t2 15.5q4 23 7 41.5t6 27.5q5 2 34 5.5t69 9.5q41 6 86 13t82.5 18.5t62.5 29t27 43.5v3q0 29 -18.5 39.5t-43.5 10.5q-26 0 -54 -5.5t-54 -13.5h-5q-2 -1 -2.5 -1.5l-0.5 -0.5h-5
t-8 -2h2q-4 -1 -10 -3l-4 -2v1q-54 -18 -111 -18h-26l-1 1q0 3 1 7q0 2 -0.5 3t-0.5 2l1 18q1 17 3.5 39t10 42.5t21.5 35t39 16.5q70 11 142 15.5t144 7.5q12 5 26 14t14 29v4q0 22 -10.5 34.5t-27.5 19.5t-37.5 9t-39.5 2h-95q-5 0 -9 0.5t-8 0.5q-39 0 -83.5 -2.5
t-85.5 -11.5t-74 -25t-50 -43q-8 -18 -10.5 -29.5t-2.5 -23.5v-54q0 -7 -2 -24t-4 -36.5t-5 -36.5t-4 -23v-3q-2 -2 -3 -4l-2 -4h-2q-11 -17 -18 -31t-8 -32v-5q0 -2 -0.5 -5t-0.5 -5q0 -9 3 -17t11 -14l-1 -18v-12q-2 -19 -5 -40.5t-7 -41.5q-1 -5 -1 -12l-0.5 1.5
t-0.5 -0.5q0 -1 -0.5 -2.5t-0.5 -3.5v2q-2 -10 -2.5 -20.5t-2.5 -20.5q-1 -9 -2 -18.5t-3 -19.5zM374 463q-8 0 -10 -1t-2 -3q2 0 4 1q4 1 8 3z" />
    <glyph glyph-name="g" unicode="g" horiz-adv-x="687" 
d="M35 318q0 -5 -0.5 -9.5t-0.5 -9.5q0 -60 22.5 -111.5t63.5 -88.5t98.5 -58t126.5 -21q66 0 123.5 25.5t100.5 68t69 96.5t28 111q0 5 0.5 9t0.5 9q0 23 -4.5 51t-16 52t-31 40.5t-49.5 16.5q-2 0 -5.5 -0.5t-7.5 -0.5h-16q-5 -2 -19.5 -6.5t-30.5 -9.5q-15 -4 -30.5 -8.5
t-29.5 -9t-24.5 -8.5t-14.5 -6q-2 -1 -3 -0.5t-2 -0.5l1 1q-20 -4 -39 -9t-35 -15t-26 -26t-12 -43q0 -15 6 -24t15.5 -14t20.5 -6.5t21 -1.5q45 0 89 16.5t81 36.5h6q4 0 8 -2.5t5 -5.5l-7 -102q-1 -23 -23 -40t-51 -29t-59.5 -18t-48.5 -6q-32 0 -61.5 10t-52.5 27
t-36.5 41t-13.5 52v9q2 38 17.5 70.5t39.5 61.5t54 55.5t62 52.5v-1q7 6 13 11.5t14 11.5q9 8 22.5 17.5t28 18t29.5 14t27 5.5q4 0 6 -2l47 -38q13 -2 15 -2h6q22 0 44.5 9.5t43.5 29.5v36q0 53 -36 83.5t-93 30.5q-50 0 -104 -21t-106.5 -56t-100 -81t-84 -95.5t-58.5 -99
t-23 -92.5v-1zM391 451q-1 -1 -3 -1z" />
    <glyph glyph-name="h" unicode="h" horiz-adv-x="656" 
d="M438 71q0 -51 53 -51q43 0 57 19.5t19 54.5q1 5 1 14t1 20q1 14 1.5 29.5t2.5 33.5l2 70l3 70v-1q3 33 5 59t2 39q0 4 2 21.5t4 40.5q2 20 4.5 38.5t3.5 26.5q2 22 7 41.5t10 39.5v-1q6 23 12 45.5t8 44.5v5q0 29 -13.5 45.5t-47.5 16.5q-28 0 -45 -15t-27 -39.5
t-15 -55.5t-9 -63q-3 -22 -6 -42.5t-7.5 -37t-10 -27.5t-14.5 -14h1l-188 -52q-5 -2 -12 -3.5t-11 -1.5q5 0 5 5q0 6 0.5 12.5t0.5 10.5v2q2 23 4.5 47t7.5 50q5 24 8 49.5t5 54.5v6q0 10 -3 21t-9 20.5t-16 15.5t-25 6q-20 0 -35 -10t-25.5 -24t-17 -30.5t-8.5 -29.5
q0 -7 -1.5 -22.5t-3.5 -35.5q-3 -26 -5.5 -51t-2.5 -38q0 -2 -0.5 -8.5t-1.5 -14.5q-1 -11 -2 -23.5t-1 -21.5v-10q-5 -4 -11 -6.5t-12 -5.5q-19 -9 -35 -20t-18 -37v-4q0 -26 15 -38t33 -20q8 -5 14 -8t8 -5l-10 -187v-2q0 -25 16.5 -38t39.5 -13q27 0 43 21t24.5 52
t10.5 67.5t2 66.5q0 31 3 49q2 2 5 3.5t7 2.5l-9 -1q1 0 1.5 0.5t1.5 0.5q11 2 26 7t29 10q33 12 71 23t68 11h2q5 0 8 1v-17v1q1 -11 1.5 -19.5t0.5 -13.5q0 -13 -0.5 -45.5t-1.5 -70.5v-116z" />
    <glyph glyph-name="i" unicode="i" horiz-adv-x="207" 
d="M25 70q7 -33 19 -41.5t37 -8.5q22 0 37.5 15t19.5 39q17 121 28 238.5t16 241.5v-1l2 21q0 11 0.5 28t0.5 29l2 21q0 14 -3 29.5t-10.5 28t-19 20.5t-27.5 8q-18 0 -27 -8.5t-23 -31.5q-3 -73 -10 -140.5t-15 -136.5t-15 -137.5t-10 -141.5v-11q-1 -5 -1 -12v-13v-10
t-1 -11v-15z" />
    <glyph glyph-name="j" unicode="j" horiz-adv-x="590" 
d="M26 235v-5q0 -29 17.5 -55.5t46 -49.5t64.5 -42.5t73 -33.5t72 -21.5t60 -7.5q33 0 60.5 17t49 44t38 61.5t27.5 69t17 66t7 53.5l12 225v12q0 22 -5 56.5t-16.5 67.5t-30.5 57t-46 24q-18 0 -30 -6.5t-18.5 -17t-9.5 -24t-3 -26.5v-17q0 -35 3.5 -66.5t8.5 -61.5
q5 -32 8.5 -63.5t3.5 -63.5v-8q-1 -16 -3.5 -40t-7 -51t-12 -54.5t-19 -49.5t-27 -36t-36.5 -14t-41.5 6.5t-39.5 16.5t-36.5 22t-33.5 24q-26 20 -49.5 35t-46.5 15q-26 0 -40.5 -18.5t-16.5 -39.5z" />
    <glyph glyph-name="k" unicode="k" horiz-adv-x="572" 
d="M32 58q2 -27 18 -32.5t37 -5.5q27 0 43.5 20t25.5 50t13 65.5t6 67.5v-1q1 8 1 15t1 13v20q0 3 -1 4q34 -1 68 -31t69 -68q20 -22 40.5 -43t42 -37.5t44.5 -26.5t48 -10t44 13t20 42v2q0 26 -22 50t-54 49q-17 13 -35.5 25.5t-37.5 24.5q-22 14 -42.5 27.5t-37 26
t-27.5 23t-13 19.5q20 18 47.5 42.5t56.5 53.5t57 61t50.5 64.5t37 64t16.5 59.5q0 24 -8 38t-37 14h-17q-8 0 -14 -3.5t-13 -6.5q-55 -72 -111.5 -138t-123.5 -120q-3 -3 -9.5 -7.5t-11.5 -6.5q-1 13 -1.5 30.5t-1.5 37.5q-1 26 -2 48t-1 30v6q0 13 -1.5 31.5t-7.5 36
t-19.5 30t-37.5 12.5q-15 0 -28 -8.5t-23 -20.5t-16.5 -26t-8.5 -25v-133q0 -18 -1.5 -53.5t-3.5 -81.5l-6 -97l-4 -96q-1 -20 -2 -38.5t-2 -35.5q-2 -20 -2.5 -36t-1.5 -26v-2z" />
    <glyph glyph-name="l" unicode="l" horiz-adv-x="556" 
d="M36 257v-31q-1 -9 -1 -19v-19v-14q0 -7 -2 -15l-1 -20q0 -2 -0.5 -5t-0.5 -6q0 -16 4.5 -34.5t14 -35t25.5 -27.5t40 -11h7q8 2 27.5 5t39.5 6q21 4 39.5 7t23.5 4q18 3 46 8.5t59 14.5t62 21t56.5 28t42 36t18.5 44v7q0 27 -13.5 36t-45.5 9q-4 0 -16 -1.5t-17 -3.5
l-47 -19q-45 -17 -89.5 -33t-91.5 -16h-31q-5 3 -6 14t-1 23q0 8 0.5 19.5t1.5 19.5q1 5 1 10v8q2 56 10.5 112.5t18.5 114.5q9 54 17 108t10 111v19q0 19 -7.5 35t-37.5 16q-24 0 -39 -10t-24 -24.5t-13 -32t-6 -32.5v2q-5 -21 -11.5 -52.5t-14 -67t-14.5 -72t-13 -67
t-10 -52t-4 -27.5v2l-2 -15q0 -7 -0.5 -18t-1.5 -25q0 -3 -0.5 -6.5t-0.5 -6.5z" />
    <glyph glyph-name="m" unicode="m" horiz-adv-x="640" 
d="M29 51l8 -7q8 -9 18 -16.5t25 -7.5q21 0 40 13t26 33q11 65 22 128t25 122q3 -8 6.5 -20.5t7.5 -26.5q6 -21 12.5 -42.5t17 -39t25 -28.5t36.5 -11q26 0 48 15t40.5 38.5t34 51.5t29.5 55q8 15 14.5 28l11.5 23q1 -7 1.5 -12.5t0.5 -7.5l-2 -13q-1 -23 -3 -47l-4 -48
l-4 -50l-4 -50l-5 -60q21 -26 48 -26q20 0 34 11.5t28 25.5q23 103 30.5 201.5t12.5 198.5q1 20 2 39t2 39l2 28v-2q2 11 2 23v23v22q0 11 1 21v-1l2 34q-15 49 -65 49q-16 0 -29.5 -10t-24 -24t-18 -28.5t-12.5 -24.5q-1 -3 -3 -7l-2.5 -5l-3.5 -7l1 1q-5 -12 -14 -32.5
l-18 -41t-16.5 -37t-11.5 -20.5q-1 -3 -11 -22.5t-23 -44t-26 -48.5t-20 -37q-2 -5 -7 -16t-7 -11q-3 0 -5 6.5t-3.5 14t-2.5 14t-1 7.5q-3 12 -9 34.5l-12 45t-10 40t-4 20.5q0 2 -0.5 11.5t-2.5 20.5q-2 18 -4 37.5t-2 30.5q-1 5 -1.5 18t-0.5 27v53q-8 22 -22.5 25.5
t-28.5 3.5q-29 0 -43.5 -15t-22.5 -40q-1 -3 -2 -9t-3 -13h1q-3 -14 -7 -30.5t-8 -32t-6.5 -28.5t-2.5 -19v1q-1 -9 -5 -35t-9.5 -61.5t-11.5 -75t-11.5 -74.5t-9.5 -61t-5 -34q0 -5 -3 -17t-6 -25q-4 -17 -7 -30t-3 -17q-2 -7 -2.5 -13t-0.5 -14l-1 -9v-8q-1 -5 -1 -12
q0 -8 -1 -12v-16z" />
    <glyph glyph-name="n" unicode="n" horiz-adv-x="547" 
d="M29 101q2 -13 5.5 -27t11 -26t20 -20t32.5 -8q7 0 17 2.5t19 8t16 13.5t7 20l12 259q10 -21 16.5 -34l11 -22t8.5 -16.5t9 -18.5v1l33 -73l6 -12t8.5 -18.5t9.5 -21.5t10 -20q4 -7 6 -12.5t4 -7.5q25 -30 59 -30q18 0 30 8.5t19.5 21t12 26t6.5 24.5q6 26 12.5 52
t12.5 52q29 118 53.5 233t30.5 236v63q0 22 -16 40t-42 18q-20 0 -33 -11.5t-21 -27.5t-12 -33.5t-5 -28.5v1q-3 -13 -7 -40.5t-9.5 -62.5t-11 -73t-10.5 -73l-9 -63t-5 -41q-2 -5 -3 -9.5t-1 -6.5v1q-4 -17 -8 -38t-9 -27q0 4 -2 8l-4 8q-14 35 -29 76.5t-25 74.5
q-1 6 -3 17t-4.5 24.5t-5.5 28.5t-5 29q-3 15 -5.5 26t-3.5 16q-1 7 -2 27t-1.5 43t-1 43t-0.5 28q-6 22 -24.5 36.5t-38.5 14.5q-21 0 -36.5 -13.5t-20.5 -27.5q-33 -134 -52.5 -267t-27.5 -269l-1 -20q-1 -11 -1 -22v-23v-19q0 -7 -1 -9z" />
    <glyph glyph-name="o" unicode="o" horiz-adv-x="725" 
d="M33 307q0 -5 -0.5 -10.5t-0.5 -10.5q0 -42 9.5 -84t30.5 -78t55 -63.5t84 -40.5h65q60 0 109.5 15.5t90.5 43.5t74 68t60 88q18 31 34.5 62t29.5 62.5t21 64t10 67.5v15q0 43 -14 86.5t-41.5 79t-69 57.5t-96.5 22q-25 0 -49 -6.5t-47 -15.5q-72 -30 -135 -71.5
t-110.5 -94t-76.5 -116.5t-33 -139v-1zM164 285q3 55 26 113.5t63.5 106.5t96.5 78.5t124 30.5q29 0 49.5 -11.5t33.5 -29.5t19 -41t6 -46v-9q-1 -27 -14 -62.5t-34.5 -73.5t-50.5 -75t-61.5 -66t-68 -47t-70.5 -18q-34 0 -57 10.5t-37 28.5t-20 42t-6 51q0 4 0.5 8.5
t0.5 9.5z" />
    <glyph glyph-name="p" unicode="p" horiz-adv-x="645" 
d="M27 60q11 -17 21 -28.5t33 -11.5q10 0 22 3.5t22.5 9.5t17.5 14.5t9 19.5l23 150q0 -6 3.5 -7t9.5 1.5t14.5 7t19.5 8.5q34 12 80.5 29.5t91.5 39t83 47.5t57 55l-1 -1q3 5 6.5 10.5t7.5 10.5q30 44 53 86t25 95v10q0 39 -17.5 69.5t-46.5 51t-66.5 31t-77.5 10.5
q-23 0 -57 -3.5t-71.5 -11t-75.5 -19t-69 -28.5t-51 -39t-21 -50q0 -14 4 -24t9 -20q3 -6 5.5 -11.5t2.5 -9.5q-4 -48 -12 -98.5t-17 -104.5q-11 -59 -20.5 -117t-11.5 -121v1l-1 -10v-28zM196 365v20q3 12 7 39.5t7.5 57.5t6.5 56t4 36v-1q4 28 24.5 44.5t48.5 25.5
t60.5 11.5t61.5 2.5h8q2 0 4.5 -0.5t5.5 -0.5q5 -1 18 -1h8q15 -2 22 -15.5t7 -28.5q0 -2 -0.5 -5t-0.5 -5q-2 -46 -28.5 -89.5t-67.5 -77.5t-92.5 -55t-104.5 -21z" />
    <glyph glyph-name="q" unicode="q" horiz-adv-x="805" 
d="M508 70q9 0 16 -8t14 -18q11 -17 25 -31.5t41 -14.5q20 0 31 4t16 12t6.5 20t1.5 29q0 2 0.5 4t0.5 4q0 11 -3 20t-5 17q-2 7 -3.5 13t-1.5 14q0 2 3 5l4 4l29 40q18 25 35 50t31.5 51.5t24 55t11.5 60.5v14q0 63 -20.5 121t-59.5 102.5t-95 71.5t-127 27h-13h-19
q-10 0 -18 -1h2q-5 0 -10 -0.5t-7 -0.5q-75 -15 -143 -59t-120.5 -104.5t-85 -131t-36.5 -139.5v-13q0 -48 15 -97.5t44.5 -89.5t74 -65t103.5 -25q42 0 81 11t74 25q25 9 46 16t37 7zM426 587q11 7 23.5 10t24.5 3q38 0 69 -17.5t52.5 -44.5t33 -60.5t11.5 -65.5v-4
q-2 -11 -7.5 -34.5t-15.5 -47.5t-22.5 -42.5t-27.5 -18.5q-14 0 -26 16.5t-26 39.5q-11 17 -22.5 34.5t-26.5 31.5t-33.5 23t-42.5 9q-32 0 -44 -12t-14 -44v-3q0 -34 20 -60.5t41 -49.5q16 -17 28 -32t12 -27v-1q-1 -10 -18.5 -18.5t-40.5 -14.5t-45.5 -9t-34.5 -3
q-31 0 -51.5 11.5t-33 30.5t-17.5 43.5t-5 50.5v11q4 52 23.5 95t51.5 78t74 65t90 57z" />
    <glyph glyph-name="r" unicode="r" horiz-adv-x="615" 
d="M31 72q9 -21 22 -36.5t42 -15.5q18 0 29 4t17 11.5t8.5 18t4.5 23.5v-1q1 8 3.5 26.5t6.5 39.5q3 16 5 30t4 25q6 0 9 -1q27 -27 55 -51t60 -43t70 -30t83 -11q9 0 22 0.5t25.5 4.5t22 11.5t12.5 22.5q0 17 -9.5 29.5t-25 22.5t-36 17.5t-42.5 15.5h1q-21 7 -41.5 15
t-37 17t-26.5 19t-10 22v2q27 23 56 44t58 44q23 17 47 35t48 37q37 38 57.5 73t22.5 82v22q0 4 1 9v14q-6 26 -27.5 42t-48.5 24.5t-55.5 11.5t-49.5 3q-13 0 -40.5 -3t-61 -8.5t-69.5 -12.5t-67 -15.5t-52.5 -17t-25.5 -17.5q-8 -16 -9.5 -30t-1.5 -29q0 -5 -0.5 -11
t-1.5 -13q-2 -11 -7.5 -51.5t-12.5 -90.5l-8 -58t-7.5 -53t-6 -41.5t-3.5 -23.5l-2 -11q0 -11 -0.5 -23.5t-1.5 -23.5l-1 -19v2l-2 -14v-27v-10q0 -4 -1 -9zM190 350q0 4 1 9v11q3 62 9.5 102t28 63.5t65.5 32.5t122 9h5q4 0 7 -0.5t6 -0.5h8v-2q0 -11 -14.5 -30.5t-37 -44
t-51 -50t-56.5 -48t-53 -38.5t-40 -20v7zM182 343l2 -2z" />
    <glyph glyph-name="s" unicode="s" horiz-adv-x="744" 
d="M33 212v-6q0 -46 33 -80.5t80.5 -58t100 -35.5t91.5 -12q64 0 130.5 22t122 60.5t92.5 92t41 116.5v4q0 46 -25 81.5t-63 60t-84.5 38t-88.5 17.5l-200 11h-3h4q-6 2 -8 2q49 43 109.5 74t128.5 31q12 0 23 -3t22 -7q14 -4 27 -7.5t30 -3.5q28 0 40 16t12 39v5
q0 22 -11.5 41.5t-30.5 34.5t-42 24t-45 9q-32 0 -76 -10t-92.5 -27.5t-96.5 -42t-86.5 -54t-63 -63.5t-25.5 -69v-5q0 -25 12 -43.5t31 -31.5t43 -20.5t49 -8.5h-1l258 -28q15 -1 34.5 -7.5t37 -16.5t29.5 -24t12 -30v-2q-1 -16 -14.5 -32t-35 -31t-48.5 -27.5t-54 -22
t-51.5 -15t-40.5 -5.5q-32 0 -61.5 9.5t-56 25.5t-49.5 37t-43 43h-10q-6 0 -8 1q-3 0 -5.5 0.5t-3.5 0.5q-36 0 -52 -17.5t-18 -49.5z" />
    <glyph glyph-name="t" unicode="t" horiz-adv-x="720" 
d="M232 214v-30v1q-1 -6 -1 -14v-15q0 -25 3.5 -49t13.5 -43.5t28.5 -31.5t47.5 -12q33 0 47 14.5t15 43.5v10q0 41 -6 79q-3 19 -5.5 37.5t-2.5 35.5v9q0 5 1 10q0 16 2.5 46.5t8 67t12.5 76.5t15.5 74.5t19 61t21.5 36.5q13 12 41.5 15.5t60.5 5.5q27 1 52.5 4t45.5 10.5
t33 22t15 39.5v6q0 20 -8.5 32t-22 18t-30 8t-32.5 2q-13 0 -44.5 -5.5t-75 -14.5t-94.5 -21t-102.5 -26t-99.5 -28.5t-85 -28t-59.5 -26t-22.5 -22.5v-4q0 -23 11 -37.5t40 -25.5h41q23 0 45.5 5t45.5 13q18 5 36.5 9.5t37.5 6.5v-20q-4 -38 -10 -76.5t-13 -78.5
q-8 -47 -16 -93t-10 -97z" />
    <glyph glyph-name="u" unicode="u" horiz-adv-x="571" 
d="M31 206q3 -39 20.5 -73t46 -59t66.5 -39.5t81 -14.5q40 0 81.5 11t77.5 32t64.5 51t42.5 69q1 12 2.5 32.5t3.5 47t4.5 57t5.5 62.5q3 35 5.5 70t5.5 65.5t5 54t3 36.5l1 48v-1l4 52q-4 29 -24 43t-48 14q-22 0 -41.5 -14.5t-22.5 -39.5l-38 -487v1q-2 -15 -12.5 -28.5
t-25 -24t-31 -16.5t-31.5 -6q-32 0 -51.5 12.5t-30 33t-14.5 46t-4 51.5q0 23 1.5 43.5t3.5 38.5q1 35 5 70t9 70q5 36 8.5 71t5.5 73q0 2 0.5 4.5t0.5 4.5q0 30 -18 47.5t-53 17.5q-29 0 -45 -15.5t-24.5 -38.5t-10.5 -48.5t-3 -45.5q0 -13 -1 -18q-2 -11 -4.5 -38.5
t-5.5 -57.5t-5 -57t-2 -37v-9q-1 -11 -2 -25l-2 -28v1l-2 -23l-1 -19v-24v-12q0 -5 -1 -12v-19z" />
    <glyph glyph-name="v" unicode="v" horiz-adv-x="590" 
d="M37 658q-1 -11 -1 -22v-22q0 -53 6.5 -109t17 -111.5t23 -108.5t24.5 -101l-1 1q4 -21 10 -43t15 -43.5t23 -41.5t34 -37h6q5 0 9 -1q5 -1 10.5 -1.5t9.5 -0.5q32 0 56.5 17.5t42 43.5t29 54.5t16.5 51.5q1 6 7 29.5t13 50.5t13.5 50.5t9.5 29.5q5 14 18 51t28 79
q9 23 17 46t15.5 43t12.5 36t8 25l-1 -2q2 6 7.5 15t11.5 20q14 24 27 51t16 47q0 27 -17 45.5t-44 18.5q-28 0 -50.5 -18.5t-39 -45t-27.5 -54.5t-16 -46v1q-4 -13 -13 -33q-8 -23 -16.5 -45.5t-11.5 -33.5l1 2q-4 -12 -11 -35.5t-16 -53.5t-18.5 -62.5t-17.5 -62.5
t-14.5 -53t-8.5 -34q0 -2 -3 -11t-6 -9q-5 0 -9 15.5t-7 42t-5.5 61.5t-5.5 73q-4 57 -9 115t-16.5 104.5t-30.5 76t-51 29.5q-21 0 -34.5 -8t-21 -20t-11 -27t-3.5 -29z" />
    <glyph glyph-name="w" unicode="w" horiz-adv-x="816" 
d="M33 264v-10q0 -71 34.5 -128.5t97.5 -105.5h25q20 0 40 5.5t35 19.5h-1l131 111h4q7 -10 18 -24.5t23 -29t22 -26.5t15 -17l-1 1q3 -4 5.5 -7t4.5 -5q7 -9 11.5 -14.5t10 -9t13.5 -4.5t20 -1q33 0 62 17.5t53 46t42.5 64t32 71.5t21 69t9.5 55q1 9 2.5 26t3 39.5t3.5 48
t4 51.5q3 46 5 85.5t4 57.5q8 18 9.5 30.5t2.5 32.5q1 5 1 12q0 26 -14 46.5t-50 20.5q-18 0 -33.5 -8.5t-26 -21.5t-16.5 -29.5t-6 -32.5v2l-36 -368q-2 -11 -6 -33.5t-10.5 -45t-15.5 -39.5t-19 -17q-9 0 -16.5 8t-13 20t-9 25t-4.5 22q1 11 2 35.5t1 53.5v118q1 8 1 17
v18q0 23 -3.5 46.5t-13 42.5t-27.5 31t-47 12q-24 0 -41 -7t-29 -34q0 -5 -0.5 -16t-1.5 -22q-1 -13 -1 -27t-1 -29v1q-2 -18 -3 -36t-2 -32v-22q-2 -13 -7.5 -35t-14 -48t-20.5 -52t-25.5 -47.5t-29.5 -35t-33 -13.5q-8 0 -15 7t-12.5 17t-9.5 20.5t-6 17.5l1 6v41
q6 120 43 237q5 14 10.5 28t10.5 28q11 26 20.5 51t11.5 53v6q0 26 -14.5 43t-46.5 17q-30 0 -55.5 -34t-45.5 -86.5t-36 -114.5t-26 -117.5t-15.5 -97t-5.5 -51.5z" />
    <glyph glyph-name="x" unicode="x" horiz-adv-x="707" 
d="M332 324q5 -6 15 -21t21.5 -32t21 -32.5t13.5 -21.5q3 -5 7 -13.5t9 -19.5q11 -23 25 -51.5t31 -53.5t36 -42t39 -17q31 0 43 9t16 38v12q0 39 -11.5 77t-30.5 74.5t-42 71.5t-45 67q-12 17 -22 32.5t-20 30.5v-1q-3 5 -3.5 6.5t-0.5 5.5q1 11 10.5 25t25.5 29t36 31
t41 33q25 20 49.5 40.5t44 41t32 41.5t14.5 42q0 25 -15.5 39t-41.5 14q-28 0 -56 -14t-54.5 -36t-51.5 -48.5t-47 -51.5q-27 -30 -48 -51.5t-31 -21.5l-4 4l-4 4q-1 1 -8 10.5t-16 20.5q-7 9 -13.5 18t-8.5 11l-95 89q-9 8 -18 10.5t-17 2.5h-10q-29 0 -43 -10.5t-19 -39.5
v-5q0 -18 7 -29.5t18 -25.5v1l24.5 -31.5t38 -47t38.5 -46t26 -30.5q3 -3 3 -8v-15q0 1 -2 -1l-1.5 -2t-2.5 -4l2 2q-10 -12 -21 -26t-24 -29q-26 -31 -54.5 -65.5t-52.5 -70.5t-40 -72.5t-17 -72.5v-7q0 -28 13 -40.5t46 -12.5q28 0 52 16.5t44.5 42.5t38.5 58t35 64
q11 21 21.5 40t20 34t18 23.5t15.5 8.5q-1 0 -1 -1h1z" />
    <glyph glyph-name="y" unicode="y" horiz-adv-x="559" 
d="M158 105v-4q0 -15 4 -29.5t12.5 -26t22 -18.5t32.5 -7q17 0 26.5 5t23.5 28q9 63 28.5 126.5t45 126t54.5 123.5t58 119q14 29 27.5 56.5t26.5 53.5q3 8 5.5 14.5t4.5 11.5q5 12 7.5 19.5t2.5 26.5v30q-10 14 -23 23t-31 9q-19 0 -36 -16.5t-30 -37.5t-21.5 -40.5
t-10.5 -26.5l1 5q-6 -11 -20 -41.5t-29 -65t-28.5 -65.5t-18.5 -42v2q-2 -3 -5.5 -9.5t-7.5 -13t-8 -11t-7 -4.5q-21 0 -38 8.5t-28 22.5t-17 31t-6 34v7q2 19 9.5 37t17.5 36q11 20 20.5 42t11.5 46v8q0 55 -59 55q-23 0 -42.5 -14t-35 -36t-27.5 -49t-20 -54t-12.5 -51
t-5.5 -39v-5q0 -36 12.5 -64t32 -50.5t42.5 -40.5t44 -32q17 -13 29 -22t12 -13v1q-1 -20 -8 -41.5t-14 -42.5q-9 -23 -15.5 -46t-8.5 -49z" />
    <glyph glyph-name="z" unicode="z" horiz-adv-x="668" 
d="M31 112q-1 -5 -1 -10v-9q0 -23 10 -39t36 -34h45q52 0 101.5 12t98.5 27h-1q25 7 48.5 13.5t47.5 11.5l9 1t18 3q16 2 36 5t39.5 6.5t35.5 6.5t23 5h1h-2h1h1q0 1 1 1l-1 -1q9 2 21 6.5t23 12t18.5 17.5t7.5 24v3q0 20 -7.5 32.5t-20 20t-28.5 10.5t-32 3q-43 0 -87 -6.5
t-88 -17t-86.5 -23.5t-82.5 -25q8 20 26.5 42t37.5 42q16 18 30 33l105 124q12 14 25.5 27.5t28.5 27.5q22 22 44 45t40 47.5t30.5 51t14.5 54.5v15q0 10 -1.5 21.5t-6.5 21.5t-14 16.5t-24 6.5h-99q-1 0 -15.5 -2.5t-38 -7t-52 -10.5t-57.5 -11.5t-55.5 -11t-45.5 -9.5h1
q-17 -3 -38.5 -11t-41 -20.5t-33 -29t-15.5 -36.5v-5q0 -54 59 -54h9q2 0 5.5 0.5t5.5 0.5q59 22 122.5 41t126.5 19h15h4q3 0 5 -1q-2 -11 -16 -25.5t-27 -25.5q-3 -4 -7 -7t-7 -6q-10 -11 -29 -33t-43.5 -50t-51.5 -60t-53 -62q-34 -40 -62.5 -72t-41.5 -47
q-15 -17 -23 -28.5t-12.5 -21t-6 -20.5t-3.5 -26v1z" />
    <glyph glyph-name="braceleft" unicode="{" horiz-adv-x="358" 
d="M30 322q14 -16 29.5 -45t30.5 -64q16 -34 33.5 -68.5t38 -62t46 -45t57.5 -17.5q27 0 49.5 14.5t23.5 45.5v8q0 5 -1 10.5t-7 11.5q-29 26 -49 51.5t-35 52.5t-27 57.5t-26 66.5l1 -1l-6 14t-6 15v20q3 12 13.5 40.5t22 59t21 54.5t11.5 27q4 8 12 17t17 20q16 19 30 40
t16 47v3q0 44 -42 44q-25 0 -54 -14t-54 -35t-43 -47t-22 -50q-2 -11 -3 -22t-3 -22q-2 -26 -5.5 -49t-14.5 -45q-3 -7 -10 -15.5t-15 -17.5q-13 -15 -23 -30t-12 -37v-9v-10z" />
    <glyph glyph-name="bar" unicode="|" horiz-adv-x="213" 
d="M19 -10q3 -17 8 -27.5t11.5 -15.5t16 -6.5t21.5 -1.5q22 0 38 15t20 39q6 41 11.5 94.5t11 114t10.5 124t9 124t7 114.5t5 95l5 99q0 14 -3 29.5t-10.5 28t-19 21t-28.5 8.5t-26.5 -9t-23.5 -32q-2 -46 -6 -106t-9 -126.5t-10.5 -136.5t-11.5 -136.5t-12 -126.5t-11 -106
z" />
    <glyph glyph-name="braceright" unicode="}" horiz-adv-x="352" 
d="M172 409q0 -4 -1 -7q0 -1 -0.5 -2t-0.5 -2q-6 -23 -14 -49t-17 -52.5t-17.5 -52.5t-15.5 -47q-2 -6 -4 -13t-4 -12q-1 -1 -4 -9.5t-7 -16.5q-2 -5 -2 -7v-1q-5 -10 -11.5 -19t-12.5 -17v1q-6 -7 -11.5 -14t-10 -16.5t-8 -22t-4.5 -30.5h110q19 0 34 18t26.5 47t21 64
t18.5 70q10 38 18.5 68t16.5 37q4 6 14 13q15 12 30.5 28t15.5 37v4q0 23 -11.5 37.5t-25.5 28.5h1q-9 9 -17 17.5t-10 16.5q-7 17 -9.5 38.5t-5.5 44.5q-4 35 -9.5 70t-20.5 62.5t-42.5 45t-75.5 17.5q-29 0 -52 -14.5t-23 -46.5v-2q0 -22 17.5 -33t39.5 -22
q11 -5 21.5 -11t13.5 -11q2 -6 7 -23.5t10.5 -41.5t11 -51t10 -51t7.5 -42.5t3 -25.5z" />
    <glyph glyph-name="asciitilde" unicode="~" horiz-adv-x="569" 
d="M37 507v-4q0 -37 35 -37q19 0 36.5 8.5t38.5 19.5q22 11 44.5 21.5t46.5 10.5q14 0 29 -7.5l31 -15.5q21 -12 43.5 -22.5t53.5 -10.5q25 0 51.5 7.5t49 22.5t37 38t15.5 54q0 2 0.5 5t0.5 5q0 19 -9 30.5t-33 11.5q-14 0 -25 -9.5t-23 -21.5q-11 -13 -25 -25t-31 -12
q-14 0 -27.5 7t-27.5 17q-16 11 -33 20t-40 12h-16q-4 0 -9 0.5t-11 0.5q-23 0 -57 -7t-66 -22t-55 -39t-24 -58z" />
    <glyph glyph-name="quotesinglbase" unicode="&#x201a;" horiz-adv-x="219" 
d="M199 174q-6 10 -18 20.5t-26 10.5q-21 0 -34.5 -13.5t-22.5 -33t-14 -40t-7 -33.5l1 1q-1 -3 -1 -5t-1 -4q-2 -10 -8.5 -22t-12.5 -25v1q-11 -21 -19.5 -41.5t-9.5 -45.5v-4q0 -18 11 -31t30 -13q18 0 35 15.5t31.5 39.5t26.5 53t20.5 57t13.5 51t5 34v28z" />
    <glyph glyph-name="quotedblbase" unicode="&#x201e;" horiz-adv-x="435" 
d="M189 -56q0 -2 -0.5 -3.5t-0.5 -3.5q0 -23 15 -34.5t40 -11.5q31 0 40.5 12t16.5 29q2 9 6 14q3 10 10 27t14.5 34t13 30t7.5 15q6 12 12.5 21.5t14.5 19.5q13 17 24 34t13 39v7q0 21 -10.5 39t-39.5 18q-21 0 -42 -17.5t-40 -44.5t-36 -60t-29.5 -64.5t-20 -58
t-8.5 -39.5v-2zM28 -66v-4q0 -17 11 -33.5t38 -16.5q16 0 32 16t31.5 40.5t30 55t27.5 59.5q11 26 21.5 48.5t21.5 37.5q0 14 1 14t2 3q0 2 0.5 2.5t0.5 1.5v3q0 43 -45 43q-22 0 -43 -15.5t-40 -40t-34.5 -55.5t-27.5 -61t-19 -56t-8 -42z" />
    <glyph glyph-name="ellipsis" unicode="&#x2026;" horiz-adv-x="506" 
d="M32 78v-6q0 -22 18 -37.5t49 -15.5q14 0 28 6.5t24.5 16.5t17 21.5t6.5 22.5v4q0 23 -22.5 35.5t-50.5 12.5q-35 0 -52 -19t-18 -41zM191 78v-6q0 -21 18 -36.5t49 -15.5q14 0 28 6.5t24.5 16.5t17 21.5t6.5 22.5v3q0 23 -22.5 35.5t-50.5 12.5q-35 0 -52 -18.5
t-18 -41.5zM343 78v-6q0 -22 17.5 -37.5t49.5 -15.5q14 0 27.5 6.5t24.5 16.5t17.5 21.5t6.5 22.5v4q0 23 -23 35.5t-50 12.5q-35 0 -52 -19t-18 -41z" />
    <glyph glyph-name="dagger" unicode="&#x2020;" horiz-adv-x="500" 
d="M335 707l2 19q0 24 -9.5 41.5t-37.5 17.5q-25 0 -40 -11.5t-24 -30t-13.5 -42t-7.5 -46.5q-3 -22 -6.5 -39.5t-10.5 -26.5q-2 -3 -21 -4.5t-40 -2.5q-19 -1 -37.5 -2.5t-33.5 -6.5t-25 -13.5t-11 -23.5l-3 -47q0 -4 6.5 -13t13.5 -11q1 0 6.5 -1l11 -2t10.5 -1.5t7 -0.5
l85 -1l-52 -287q-1 -20 -6 -36t-10 -33v1q-7 -20 -12 -40t-5 -42v-23q22 -32 49 -32q23 0 38 11.5t24.5 27.5t14.5 33.5t8 30.5l-1 -3q1 3 7.5 32t15 71t18 90.5t18 91t14.5 73t7 36.5q6 8 20.5 10t31.5 2h25q8 0 14 -0.5t12 -0.5q18 0 34.5 2.5t29 9t20 19t8.5 33.5v3
q0 20 -15.5 33t-36.5 13h-112q0 18 3.5 37.5t7.5 36.5l-1 -1q6 32 9 49z" />
    <glyph glyph-name="daggerdbl" unicode="&#x2021;" horiz-adv-x="548" 
d="M440 227q0 7 -5.5 14t-11.5 12q-2 0 -8 1t-12.5 1.5t-12.5 1t-7 0.5q-34 -2 -55 -3t-34 -1h-3q7 34 13.5 68t12 62.5t9 48.5t5.5 28q5 8 20 10.5t32 2.5h26q7 0 13.5 -0.5t12.5 -0.5q18 0 34.5 2.5t29 9t20.5 19t9 33.5v3q0 20 -15.5 33t-37.5 13h-113q1 18 4 37.5
t7 36.5l-1 -1q6 32 9 49l2 19q0 24 -9 41.5t-38 17.5q-25 0 -40.5 -11.5t-24.5 -30t-13.5 -42t-7.5 -46.5q-3 -22 -6.5 -39.5t-10.5 -26.5q-2 -3 -21 -4.5t-41 -2.5q-19 -1 -37.5 -2.5t-33.5 -6.5t-25 -13.5t-11 -23.5l-3 -47q0 -4 6.5 -13t12.5 -11q2 0 7 -1t11 -2t11 -1.5
t7 -0.5l86 -1l-39 -210q-5 1 -10 1.5t-10 1.5q-26 3 -52 3q-32 0 -54.5 -13t-23.5 -54v-2q0 -22 16 -35t36 -13h78q-2 -10 -4.5 -19t-5.5 -17v1q-7 -20 -11.5 -39.5t-4.5 -41.5v-23q20 -32 49 -32q22 0 36.5 10.5t24 26t15 32.5t8.5 30q2 4 7 24.5t12 51.5h7h26t23 -1t21 -1
h19q32 0 51.5 7.5t21.5 32.5z" />
    <glyph glyph-name="circumflex" unicode="&#x2c6;" horiz-adv-x="393" 
d="M307 660l-2 1q4 -6 10.5 -8.5t14.5 -2.5q2 0 4.5 0.5t5.5 0.5h12q13 17 17 27t4 15v8q-4 5 -8.5 11t-7.5 11q-8 9 -15.5 20.5t-15.5 23.5l2 -5q-2 2 -3 4.5t-3 4.5l2 -1q-3 3 -8.5 9t-11.5 11.5t-12 9.5t-10 4h-9q-1 0 -10.5 -6.5t-21.5 -15.5t-24.5 -18.5t-19.5 -16.5
q-3 -3 -7 -5h1q-13 -11 -19.5 -19.5t-7.5 -29.5v-15q11 -23 31 -23q16 0 26.5 9.5t21.5 22.5l14.5 14.5t12.5 8.5zM263 719l5 -6l-3 3t-2 3zM328 762v-1v1z" />
    <glyph glyph-name="perthousand" unicode="&#x2030;" horiz-adv-x="981" 
d="M137 65q13 -16 27 -28t34 -12q22 0 39 17t30.5 42.5t24 56t19.5 57.5q6 18 10.5 32t8.5 19q53 105 125 196.5t158 176.5q5 5 9.5 8.5t9.5 8.5q20 18 35 37t17 46v3q0 17 -6.5 28.5t-17.5 18t-25 9.5t-29 3q-27 0 -50.5 -7.5t-46.5 -15.5t-45 -15.5t-45 -7.5q-18 0 -33 7
t-29 17q-17 11 -36 20.5t-46 9.5q-51 0 -95 -18.5t-76 -49t-51.5 -70.5t-20.5 -83v-6q0 -24 9 -46.5t25.5 -40t39.5 -28t50 -10.5q35 0 66 14t57.5 34.5t48 44.5t38.5 44q12 14 20 23.5l8 9.5q17 0 37 -3q-3 -5 -6.5 -8.5l-7.5 -7.5l-71 -79q-35 -43 -71 -91.5t-66 -100.5
t-49.5 -106.5t-22.5 -109.5v-39zM596 432q11 -32 38 -55q-33 19 -76 19q-51 0 -90.5 -23t-66.5 -58t-41.5 -77.5t-15.5 -82.5v-5q-1 -5 -1 -18v-25q12 -38 47.5 -62.5t76.5 -24.5q49 0 91.5 16.5t75 45t52 66t21.5 80.5v10q0 35 -14 68t-40 56q15 -8 32.5 -13t34.5 -5
q49 0 91.5 16.5t75 45t52 66t22.5 80.5v10q0 30 -10 58.5t-29 51t-47 36t-64 13.5q-51 0 -90.5 -23t-66.5 -58.5t-41.5 -78t-15.5 -82.5v-5q-1 -3 -1 -8v-10v-24zM723 493q1 16 7.5 35.5t18 36.5t27.5 28.5t37 11.5q9 0 15 -5.5t9.5 -14t5 -18t1.5 -17.5v1q-2 -36 -29 -57.5
t-66 -21.5h-7t-10 1l-8 8q0 3 -0.5 6t-0.5 6zM470 168q1 16 7.5 35.5t18 37t27.5 29t37 11.5q9 0 15 -5.5t9.5 -14t4.5 -18.5t1 -18v1q-2 -35 -28.5 -57t-65.5 -22h-7t-10 1l-8 9q0 3 -0.5 6t-0.5 5zM241 655q9 0 15 -2t6 -7q-1 -14 -10 -28.5t-22.5 -26.5t-29.5 -19.5
t-32 -7.5q-10 0 -10 6v3q1 15 7.5 29.5t17.5 26.5t26 19t32 7z" />
    <glyph glyph-name="Scaron" unicode="&#x160;" horiz-adv-x="604" 
d="M33 225v-9q0 -54 21 -91.5t56.5 -60.5t82.5 -33.5t99 -10.5q70 0 123.5 24t90.5 65t56.5 94.5t21.5 112.5v9q0 44 -23.5 75.5t-60 54t-80.5 38t-84 27.5q-42 13 -71.5 23.5t-29.5 17.5v1v4q18 17 37 33t40 28.5t43.5 20t47.5 7.5q13 0 23 -4l20 -8q12 -6 24.5 -11
t27.5 -5q26 0 40 16.5t16 39.5v5q0 25 -13 45.5t-33.5 35t-45 22.5t-47.5 8q-13 0 -29 -3q16 12 35 28t30 27l6 6q15 13 22 23.5t8 34.5v18q-11 29 -33 29q-18 0 -30 -11.5t-24 -26.5q-8 -10 -16 -18t-14 -11l-41 61l2 -1q-3 6 -11 9.5t-17 3.5q-2 0 -5 -0.5t-6 -0.5h-14
q-14 -20 -18.5 -33t-4.5 -18q0 -2 0.5 -5t0.5 -4q4 -5 8.5 -13.5t8.5 -13.5q12 -17 20.5 -31t13.5 -22l-2 6l-1 4l2 -6t5 -10l-1 2q5 -7 15.5 -18.5t20.5 -18.5q-42 -14 -87.5 -41t-84 -60.5t-63.5 -70.5t-27 -72v-5q0 -30 15.5 -50.5t41 -34.5t58 -23t67.5 -18
q34 -8 66.5 -17.5t58 -23t41.5 -33.5t16 -49v-6q-4 -69 -46 -104t-115 -35q-29 0 -47.5 7t-30.5 18.5t-19 25t-13 27.5q-6 13 -12 25.5t-15 22t-21 15t-30 5.5q-66 0 -66 -64zM377 885l-5 7q2 -4 5 -7z" />
    <glyph glyph-name="guilsinglleft" unicode="&#x2039;" horiz-adv-x="292" 
d="M168 374l4 4v-1v1l88 70q8 7 10 14.5t2 15.5v8q-2 14 -16 27.5t-32 15.5l-8 -3q2 1 0 1q-4 -1 -12 -4.5l-8 -3.5l2 2q-2 -2 -9 -7t-20 -13q-18 -12 -40 -27t-42 -30.5t-34.5 -29t-16.5 -22.5l-1 -18q4 -12 25.5 -41t49.5 -59t56.5 -53t46.5 -23h28q25 13 25 39v2
q0 23 -15.5 41.5t-34.5 36.5q-16 14 -29 29.5t-15 29.5l-0.5 -0.5t-3.5 -1.5z" />
    <glyph glyph-name="OE" unicode="&#x152;" horiz-adv-x="1199" 
d="M36 283v-13q0 -60 22 -107t60.5 -78.5t91 -48t114.5 -16.5q92 0 178.5 29.5t156.5 81.5q10 -22 27.5 -41.5t39.5 -34t46 -23t48 -8.5q23 0 56 7t69 19t72.5 29.5t65.5 38t47.5 44.5t20.5 50q0 57 -60 57q-36 0 -63.5 -18t-53.5 -41q-23 -20 -46.5 -36.5t-52.5 -16.5
q-17 0 -31 7.5t-24 19.5t-15.5 27t-5.5 30v6q2 39 23.5 64t54.5 41.5t73 25.5t78 17q30 6 57.5 12t48 15t32.5 22t13 33v2q0 14 -7 26.5t-18.5 21.5t-26 14.5t-29.5 5.5q-31 0 -60 -6.5t-58 -14.5h1q-25 -7 -50 -13t-52 -6h-2q-5 0 -6 -3v16l2 8q1 34 14.5 55.5t35 32.5
t50 15t60.5 4q23 0 46 -1l46 -2q49 14 51 52v4q0 24 -11.5 39t-29.5 23t-40.5 10.5t-44.5 2.5q-9 0 -17 -0.5t-16 -0.5q-7 0 -13 -0.5t-11 -0.5h-28q-11 0 -22.5 0.5t-24.5 0.5q-31 0 -64.5 -2.5t-62.5 -10t-50.5 -22.5t-28.5 -39q-39 27 -87.5 41.5t-102.5 14.5
q-94 0 -180 -40.5t-153 -105.5t-108 -148t-45 -167zM491 625q43 0 79.5 -19t63.5 -49t42 -68t15 -77v-7q0 -3 -0.5 -5t-0.5 -5v-6l-6 -21q-2 -5 -3 -10.5t-3 -10.5v2q-16 -42 -49 -79t-75 -64.5t-90 -44t-93 -16.5q-40 0 -74 11t-58.5 31t-38 49.5t-13.5 66.5v11
q2 46 30 100t71.5 101t96.5 78.5t106 31.5z" />
    <glyph glyph-name="quoteleft" unicode="&#x2018;" horiz-adv-x="218" 
d="M25 526q6 -11 18 -21t26 -10q20 0 34 14t23 33t13.5 39.5t7.5 34.5l-1 -1q1 3 1 5t1 4q2 9 8.5 21.5t12.5 25.5v-1q11 20 19 41t10 45v4q0 18 -11 31t-30 13q-18 0 -35 -15.5t-31.5 -39.5t-26.5 -53t-20.5 -57t-13.5 -50.5t-5 -33.5v-29z" />
    <glyph glyph-name="quoteright" unicode="&#x2019;" horiz-adv-x="219" 
d="M199 773q-6 10 -18 20.5t-26 10.5q-21 0 -34.5 -14t-22.5 -33t-14 -40t-7 -34l1 1q-1 -3 -1 -5t-1 -4q-2 -9 -8.5 -21.5t-12.5 -25.5v1q-11 -20 -19.5 -41t-9.5 -46v-3q0 -18 11 -31t30 -13q18 0 35 15.5t31.5 39.5t26.5 53t20.5 57t13.5 50.5t5 33.5v29z" />
    <glyph glyph-name="quotedblleft" unicode="&#x201c;" horiz-adv-x="408" 
d="M232 519q0 14 -5 40.5t-14.5 58t-23 65t-30 60.5t-35.5 44.5t-40 17.5q-16 0 -26.5 -6t-17 -15t-9.5 -20.5t-3 -21.5v-5q0 -20 9.5 -38t22.5 -35l-1 1q7 -10 13.5 -20t9.5 -18q1 -2 5.5 -15t9.5 -30t10 -33.5t8 -25.5v1q3 -12 5.5 -22.5t8.5 -18.5t16.5 -12.5t28.5 -4.5
q50 0 58 51v2zM388 507v7q0 18 -4.5 44.5t-13.5 56t-21.5 59t-28.5 53t-35 38t-40 14.5q-27 0 -36 -11t-11 -31q-1 -4 -1 -9q0 -6 1 -10q1 -2 1 -3v-1q6 -12 14 -32.5t17 -45.5v1q10 -30 22 -62t25 -58.5t28 -44t31 -17.5q26 0 38.5 17.5t13.5 34.5z" />
    <glyph glyph-name="quotedblright" unicode="&#x201d;" horiz-adv-x="435" 
d="M189 519q0 -2 -0.5 -3.5t-0.5 -2.5q0 -23 15 -35t40 -12q31 0 40.5 12t16.5 29q2 5 3 8.5t3 6.5q3 9 10 26t14.5 34t13 30.5t7.5 15.5q6 11 12.5 20.5t14.5 19.5q13 17 24 34t13 40v7q0 21 -10.5 38.5t-39.5 17.5q-21 0 -42 -17.5t-40 -44.5t-36 -60t-29.5 -64.5t-20 -58
t-8.5 -39.5v-2zM28 509v-3q0 -18 11 -34.5t38 -16.5q16 0 32 16t31.5 41t30 55.5t27.5 59.5q11 26 21.5 48t21.5 37q0 14 1 14t2 3q0 2 0.5 3l0.5 1v3q0 43 -45 43q-22 0 -43 -15.5t-40 -40t-34.5 -55t-27.5 -60.5t-19 -56.5t-8 -42.5z" />
    <glyph glyph-name="bullet" unicode="&#x2022;" horiz-adv-x="338" 
d="M56 367q-1 -4 -1 -9v-9q0 -23 8.5 -43.5t24 -36.5t38 -25t50.5 -9q26 0 51 14.5t45 37t32.5 49t12.5 50.5q1 4 1 11q0 25 -11.5 44t-31 32t-44 20t-49.5 7q-31 0 -54 -11.5t-39 -30.5t-24 -43t-9 -48z" />
    <glyph glyph-name="endash" unicode="&#x2013;" horiz-adv-x="566" 
d="M35 271v-4q0 -19 19.5 -29t42.5 -16h339q25 0 39 0.5t22 2t13 5t11 9.5l2 1q14 8 18 16t5 18q0 20 -21 31t-47 11l-366 1q-29 0 -52.5 -11.5t-24.5 -34.5z" />
    <glyph glyph-name="emdash" unicode="&#x2014;" horiz-adv-x="721" 
d="M35 271v-4q0 -19 20 -29t43 -16h12l430 1h29q34 0 52.5 0.5t28.5 2t15 5t11 9.5l-2 -1q1 1 2 1t2 2q14 8 18 15.5t5 18.5q0 20 -21.5 31t-47.5 11l-519 -1q-29 0 -53 -11.5t-25 -34.5z" />
    <glyph glyph-name="tilde" unicode="&#x2dc;" horiz-adv-x="371" 
d="M78 648v-4q0 -26 25 -26q11 0 22.5 6t22.5 14l-1 -1q11 8 21 14t19 6q5 0 11 -4t13 -9q12 -9 25 -16t30 -7q14 0 29 5t27 15.5t20.5 26t8.5 37.5v7q0 14 -5 22.5t-23 8.5q-12 0 -19 -7.5t-13 -17.5v1q-5 -7 -10 -13.5t-10 -6.5q-9 0 -21 12q-9 8 -19.5 15t-23.5 9h-9
q-2 0 -4.5 0.5t-5.5 0.5q-13 0 -31.5 -5t-36 -15.5t-30 -27t-12.5 -40.5z" />
    <glyph glyph-name="trademark" unicode="&#x2122;" horiz-adv-x="676" 
d="M531 480q0 -11 5 -16.5t12 -8t15.5 -3t14.5 -0.5q20 0 31.5 4.5t23.5 27.5q2 45 5.5 81t8.5 71q2 23 4.5 48t4.5 51v18q0 20 -9.5 38t-39.5 18q-22 0 -38 -14.5t-26 -27.5l-1 -2q-3 -5 -9 -15.5t-14 -21.5q-6 -9 -13.5 -21.5t-14 -22t-10 -15t-1.5 -0.5l5 6l-10 -8
q-2 6 -2.5 14t-1.5 17q-2 15 -4.5 29t-8.5 25t-17 18t-30 7h-9q-14 0 -22 -11l-1 -1q-2 13 -9.5 20.5t-17.5 11t-22 4t-24 0.5q-5 0 -28 -3t-54.5 -8.5t-67.5 -13t-66 -17.5t-50 -21.5t-20 -24.5q0 -5 2 -14t6.5 -18t12.5 -15.5t19 -6.5h60l3 -5l-7 -140q0 -3 4.5 -9t11 -13
t13.5 -12.5t12 -8.5h12q13 0 20.5 4t11.5 10t6 14t4 17q0 5 2 9q2 8 3.5 28t3.5 43q2 21 4 40.5t4 28.5q0 1 0.5 5t1.5 9l2 10t3 8q7 5 21 5.5t29 0.5q19 0 36.5 1.5t31.5 7.5q-20 -52 -30 -108.5t-12 -96.5q0 -23 9 -33t38 -10q10 0 18 7.5t14 20t10.5 28t8.5 31.5
q1 5 1.5 10t2.5 10l3 -13q3 -13 5.5 -25.5t7 -22t11 -15.5t15.5 -6q13 0 25 9t24 23.5t23 32t22 35.5l-18 -104v-5z" />
    <glyph glyph-name="scaron" unicode="&#x161;" horiz-adv-x="744" 
d="M33 214v-6q0 -47 33 -82t80.5 -58.5t100 -35.5t91.5 -12q64 0 130.5 22t122 61t92.5 93t41 117v5q0 47 -25 82.5t-63 60t-84.5 38t-88.5 17.5l-200 12h-3h4q-6 2 -8 2q49 43 109.5 74t128.5 31q12 0 23 -3l22 -6q14 -5 27 -8.5t30 -3.5q28 0 40 16.5t12 39.5v4
q0 22 -11.5 42t-30.5 35.5t-42 24.5t-45 9q-18 0 -42 -4t-50 -11q14 11 30 25t25 22q2 2 3.5 3t3.5 3q15 13 22 23.5t8 34.5v19q-11 28 -34 28q-17 0 -29.5 -11.5t-25.5 -26.5q-8 -10 -15.5 -18t-14.5 -11l-42 62l2 -2q-2 6 -10.5 9.5t-16.5 3.5q-3 0 -6 -0.5t-5 -0.5h-15
q-14 -20 -18.5 -33t-4.5 -18q0 -2 0.5 -5t0.5 -4q3 -5 8 -13t9 -14q12 -17 21 -30.5t14 -22.5l-2 6l-1 4l2 -6t5 -10l-1 2q4 -5 13.5 -16t19.5 -18q-51 -17 -103 -42.5t-94 -56.5t-69 -66.5t-28 -73.5v-5q0 -25 12 -44t31 -32t43 -20.5t49 -8.5h-1l258 -28q15 -1 34.5 -7.5
t37 -16.5t29.5 -24t12 -30v-3q-1 -16 -14.5 -32t-35 -31t-48.5 -28t-54 -22.5t-51.5 -15t-40.5 -5.5q-32 0 -61.5 9.5t-56 26t-49.5 37.5t-43 44h-10q-6 0 -8 1q-3 0 -5.5 0.5t-3.5 0.5q-36 0 -52 -18t-18 -50zM408 851l-6 7q4 -4 6 -7z" />
    <glyph glyph-name="guilsinglright" unicode="&#x203a;" horiz-adv-x="292" 
d="M139 374q-4 1 -4 2q-2 -14 -15.5 -29t-29.5 -30q-19 -18 -34 -36.5t-15 -41.5v-2q0 -26 25 -39h27q18 0 46.5 23t56.5 53t50 59t26 41l-1 19v-1q-2 9 -16.5 22.5t-34.5 29t-42.5 30.5l-40.5 27q-10 5 -17 10.5t-10 8.5l1 -1q-11 9 -13.5 7.5t-6.5 0.5q-2 0 0 -1l-9 3
q-17 -2 -31 -15.5t-16 -27.5v-8q0 -8 2 -15.5t10 -14.5l88 -70z" />
    <glyph glyph-name="oe" unicode="&#x153;" horiz-adv-x="1181" 
d="M554 107v-19q0 -23 10.5 -36.5t27 -20t36 -8.5t38.5 -2h35q16 0 55.5 6t88.5 18t102 28.5t97.5 37t73.5 45t30 51.5v5q0 24 -11.5 38.5t-43.5 14.5q-22 0 -41.5 -9t-39.5 -21q-17 -12 -34 -19q-56 -29 -122.5 -51.5t-135.5 -22.5h-15l1 38v-1q1 24 2.5 43t3.5 38t4.5 40
t5.5 49q14 8 55.5 11t97.5 5q48 1 98 4.5t91 11.5t68 23t29 41v4q0 53 -60 53q-37 0 -69 -3.5t-66 -7.5h-11q-5 0 -10 -1h1q-39 -5 -77 -8.5t-75 -3.5h-18q-13 0 -25.5 1t-20.5 5l1 23q2 37 11.5 59.5t27.5 34.5t46.5 17t69.5 7q13 0 42 0.5t63 2.5q36 2 66 3.5t44 1.5
q19 1 38 14t19 33v4q0 24 -13 38.5t-33 23t-44.5 11t-47.5 2.5h-27h-15q-6 0 -11 -1h3q-4 0 -7.5 -0.5t-7.5 -0.5h-9q-84 0 -162 -11t-159 -37q-26 20 -58.5 31t-71.5 11q-26 0 -50 -6.5t-48 -14.5q-74 -31 -138.5 -72.5t-113.5 -94.5t-78 -117t-33 -139q0 -5 -0.5 -10
t-0.5 -10q0 -42 9.5 -84.5t31 -78.5t56 -63.5t85.5 -40.5h67q91 0 160 33.5t120 93.5q-1 -5 -1 -9q0 -3 -1 -7q-1 -5 -1.5 -8.5t-1.5 -7.5q0 -1 -0.5 -1.5t-0.5 -1.5zM168 286q3 55 26.5 113.5t65 106.5t98.5 78.5t127 30.5q24 0 42.5 -8.5t32 -22.5t21.5 -32t12 -37l-4 -74
l1 4q-12 -44 -42 -98t-71.5 -101t-90.5 -79t-97 -32q-35 0 -58 10.5t-37.5 28.5t-20.5 42t-6 51q0 4 0.5 9t0.5 10zM621 708q-1 -1 -3 -1l0.5 0.5t2.5 0.5z" />
    <glyph glyph-name="Ydieresis" unicode="&#x178;" 
d="M104 89q0 -11 2 -23t8 -22.5t17.5 -17t29.5 -6.5q28 0 52 16t28 45v-1q7 40 14.5 75.5t16.5 69.5t21.5 67.5t30.5 70.5l-1 -1q8 13 24.5 42.5t36.5 66.5q13 25 27.5 51t27.5 49.5t24 42t18 28.5q13 23 16.5 41t6.5 38v7q0 22 -10 37.5t-41 15.5q-23 0 -38.5 -9.5
t-26.5 -24.5t-18.5 -33t-13.5 -35q-4 -9 -6.5 -17t-3.5 -10q-4 -6 -11 -19t-16.5 -28.5t-19.5 -33.5t-20 -34v1q-16 -26 -29.5 -50.5t-19.5 -34.5q0 1 -4 1h-8h-3q-22 0 -32 7.5t-15 24.5v36l1 9q1 21 5.5 40t9.5 38q5 20 10 38.5t7 38.5v3q0 23 -15 43t-44 20
q-34 0 -54.5 -20.5t-31.5 -50.5t-15.5 -63.5t-5.5 -59.5v1l-3 -29v-10q0 -27 7.5 -50t19.5 -43t26 -37t27 -31q11 -12 19 -21t8 -11q-1 -26 -6.5 -56t-11.5 -59t-10.5 -59t-6.5 -63v-1zM145 857v-7q0 -28 18 -47.5t50 -19.5q14 0 28 8t24.5 21t17 27.5t6.5 28.5v5
q0 29 -23 45t-50 16q-35 0 -52.5 -24t-18.5 -53zM305 858v-7q0 -28 18 -47.5t49 -19.5q14 0 28 8t25 21t17.5 27.5t6.5 28.5v5q0 29 -23 45t-51 16q-17 0 -30 -6.5t-22 -17.5t-13.5 -25t-4.5 -28z" />
    <glyph glyph-name="exclamdown" unicode="&#xa1;" horiz-adv-x="350" 
d="M291 428v7q0 10 -2 22.5t-7.5 22.5t-15 17t-24.5 7q-17 0 -26.5 -5t-20.5 -27q-25 -56 -46 -112.5t-42 -113.5q-17 -48 -35 -95.5t-38 -96.5q-2 -5 -4.5 -8.5t-4.5 -8.5v1q-8 -16 -12 -28.5t-6 -31.5q0 -28 15 -41t40 -13q27 0 41 14t26 34q6 11 14.5 29.5t17.5 37.5
t15.5 34t7.5 20l-1 -6q4 11 11.5 32.5t17 48.5t20 56.5t19.5 56.5t16.5 48.5t10.5 31.5q5 15 6.5 26t3.5 22q1 5 1.5 9.5t1.5 9.5zM330 683q0 10 -2 24t-8 26.5t-16.5 21.5t-26.5 9q-20 0 -36.5 -10t-28.5 -25.5t-20 -34t-9 -34.5q0 -15 2.5 -30t9.5 -27t18 -19.5t29 -7.5
q20 0 35.5 11t26.5 26.5t17.5 34t8.5 33.5v2z" />
    <glyph glyph-name="cent" unicode="&#xa2;" horiz-adv-x="509" 
d="M488 570v2q0 21 -7 33.5t-19.5 19.5t-29 9.5t-34.5 2.5h-35q-13 0 -23 -1l2 20v10q1 5 1.5 12t0.5 15q0 22 -9.5 39t-38.5 17q-22 0 -34 -4.5t-18.5 -12.5t-9 -19.5t-3.5 -25.5q-1 -5 -1.5 -12.5t-0.5 -9.5l-4 -61q-82 -33 -130 -95.5t-56 -159.5v1q-1 -5 -1 -12v-12
q0 -40 12.5 -70.5t33 -51.5t47.5 -32.5t56 -12.5l-2 -44v2q-1 -10 -1.5 -18t-0.5 -16q0 -17 3 -26.5t9.5 -14t16.5 -5.5t24 -1h3q19 0 29.5 4t16 12.5t7 20t2.5 26.5q0 3 0.5 8t1.5 11l6 66q21 7 42 18.5t40 25t35 26.5t28 24q18 17 27 38t9 38q0 20 -9.5 32t-28.5 12h4
q-4 1 -6 1h-11q-14 0 -37.5 -7t-46.5 -33q-4 -7 -12.5 -16.5t-21.5 -19.5l17 191q4 2 14 2q7 0 17.5 -2.5t21.5 -4.5q8 -3 14.5 -5t11.5 -2q5 -1 9 -1h11q32 0 44.5 15.5t14.5 37.5zM163 345q0 2 0.5 4t0.5 4q3 38 15 63t33 43l-15 -176q-14 5 -24 21.5t-10 40.5z" />
    <glyph glyph-name="sterling" unicode="&#xa3;" horiz-adv-x="589" 
d="M418 403q-16 0 -21 -1t-13 -8h-100q2 14 2.5 29.5t1.5 32.5h102q10 -5 17.5 -6t15.5 -1q35 0 51 18t19 48v9q0 26 -14.5 46.5t-42.5 20.5q-16 0 -21.5 -1.5t-15.5 -8.5h-117q-2 15 -2.5 31t-1.5 34v2q0 36 -15 57t-43 21h-6q-18 0 -29 -6.5t-17.5 -17.5t-9.5 -26t-6 -34
v-5l6 -28t5 -28h-34q-11 6 -20 7t-13 1q-17 0 -30 -7t-21.5 -18t-13 -24.5t-4.5 -27.5q0 -26 14 -46t43 -20q10 0 19.5 2.5t17.5 7.5h50q-1 -16 -2 -31.5t-3 -30.5h-54q-8 5 -16.5 6t-15.5 1q-17 0 -29.5 -7t-21 -18t-13 -25t-4.5 -28q0 -25 13.5 -45t43.5 -20q12 0 37 11
h38q-2 -11 -4.5 -21.5t-4.5 -21.5l1 1q-5 -20 -9.5 -40.5t-9.5 -40.5q0 -2 -0.5 -6t-0.5 -6q-1 -8 -2 -17t-1 -16q0 -26 11 -41.5t43 -15.5h6q25 2 38 13t21 28q31 -16 70.5 -30t73.5 -17q7 -1 13 -1h13q49 0 81 17t51 42.5t27 55.5t8 55q0 31 -10.5 50t-25.5 19h-3
q-16 -2 -27 -5t-18.5 -11.5t-12 -23.5t-5.5 -39v-1q0 -14 -8.5 -22t-22 -11.5t-31 -4.5t-34.5 -1q-25 0 -49.5 9.5t-47.5 20.5q-7 3 -13.5 6.5t-12.5 6.5q2 11 5 21.5t5 21.5q2 7 2.5 13t2.5 13h115q10 -5 15.5 -5.5t10.5 -0.5h1q18 0 32.5 7t24.5 18.5t15 25t5 26.5
q0 25 -15.5 44t-48.5 19z" />
    <glyph glyph-name="currency" unicode="&#xa4;" horiz-adv-x="577" 
d="M509 240q-26 0 -51 -13t-52 -30q-31 -20 -67 -38t-78 -18q-38 0 -55.5 15t-23.5 40h4q33 0 75 3.5t80 14t64.5 30t28.5 50.5q0 26 -10.5 42.5t-33.5 16.5q-9 0 -20 -4q-14 -5 -35 -9.5t-45.5 -9t-51 -8.5t-51.5 -7q3 12 7 25t9 27q3 0 8 3q8 2 18 5t34 7h-2l30 3
q22 2 48 5t48.5 11t38 22.5t17.5 39.5v6q0 16 -4.5 26.5t-29.5 21.5h-31q-32 0 -60.5 -2t-54.5 -7q13 23 28 44t30.5 36.5t30.5 25t30 9.5q3 0 4 -1l-1 -19q0 -14 1 -30t6.5 -30t16.5 -23t32 -9q25 0 41.5 12t26.5 29.5t14.5 37.5t4.5 37q0 7 -1 25.5t-6 38.5t-15.5 37.5
t-28.5 22.5q-36 10 -70 10q-65 0 -116 -31t-90 -77.5t-67 -101.5t-46 -104l1 1q-13 -32 -22 -58.5t-15 -52t-10.5 -50.5t-8.5 -52v-16q0 -97 57 -148t163 -51q20 0 49.5 6t63 16.5t67 25.5t60.5 33.5t44.5 40t19.5 45.5v3q0 22 -13 36t-35 14z" />
    <glyph glyph-name="yen" unicode="&#xa5;" horiz-adv-x="527" 
d="M-2 296v-3q0 -23 25.5 -35t55.5 -12h28t22 2q-1 -8 -2.5 -15t-3.5 -15q-48 -8 -80 -22t-35 -34q-2 -3 -2 -6v-4q0 -26 19.5 -31.5t54.5 -5.5h25q0 -8 -0.5 -14t-0.5 -13q0 -11 2 -22.5t8.5 -22t18 -17t29.5 -6.5q28 0 52 16t29 45v-1q1 7 1.5 14t2.5 14l-1 -1
q1 3 1.5 5.5t1.5 5.5q39 2 77 7.5t69 14.5t51 22.5t22 33.5q0 30 -16 39.5t-56 9.5q-20 0 -51.5 -1.5t-67.5 -5.5q2 7 4 13.5t4 12.5q28 1 61 3.5t62 9t49 19t22 33.5v7q0 14 -6.5 23t-38.5 17h-31q-5 0 -9.5 0.5t-9.5 0.5h-15h-16q-8 0 -18 -1q9 17 22.5 40.5t28.5 50.5
q13 25 27.5 51t27.5 49t24 41t19 28q12 23 16 41t7 38v7q0 21 -10 36.5t-41 15.5q-23 0 -38.5 -9.5t-27 -24t-19 -32.5t-13.5 -35q-4 -9 -6.5 -16.5t-4.5 -9.5q-3 -6 -10.5 -19t-16.5 -28.5t-19 -33t-20 -33.5v1q-17 -26 -30.5 -50.5t-19.5 -34.5q0 1 -4 1h-8h-3
q-22 0 -32 7.5t-15 24.5v36l1 8q1 22 5.5 40.5t9.5 37.5q5 20 10 38t7 38v3q0 23 -15.5 43t-44.5 20q-34 0 -54.5 -20.5t-31.5 -50t-15.5 -63t-5.5 -58.5v1l-3 -30v-11q0 -26 7.5 -49t19 -42.5t25.5 -36t27 -29.5q-47 -8 -79 -23t-34 -38z" />
    <glyph glyph-name="dieresis" unicode="&#xa8;" horiz-adv-x="454" 
d="M145 680v-6q0 -21 17 -36.5t47 -15.5q13 0 26.5 6.5t23.5 16.5t16.5 21.5t6.5 21.5v4q0 23 -22 35.5t-48 12.5q-33 0 -49.5 -19t-17.5 -41zM297 681v-6q0 -22 17.5 -37.5t46.5 -15.5q13 0 26.5 6.5t23.5 16.5t16.5 21.5t6.5 22.5v4q0 23 -22 35.5t-48 12.5
q-33 0 -49.5 -19t-17.5 -41z" />
    <glyph glyph-name="copyright" unicode="&#xa9;" horiz-adv-x="655" 
d="M35 289q0 -5 -0.5 -10t-0.5 -10q0 -51 12.5 -96.5t40 -79t72 -53.5t108.5 -20q89 0 156.5 32t113 85t70 121.5t28.5 141.5v19q0 54 -14.5 107t-45.5 95t-78.5 68t-113.5 26q-59 0 -107 -19.5t-86 -52.5t-66 -76t-47 -90.5t-29.5 -95.5t-12.5 -91v-1zM150 285
q2 42 15.5 96.5t40.5 103.5t68.5 83t100.5 34q41 0 69.5 -17.5t46.5 -45.5t26 -62t8 -67v-11q-3 -50 -21.5 -96.5t-51 -82.5t-78.5 -57.5t-104 -21.5h-53q-8 0 -16.5 6t-16.5 13.5t-13.5 14.5t-6.5 10q-10 10 -13 24.5t-3 29.5v19zM170 256q11 -45 42.5 -66.5t79.5 -21.5
q25 0 55.5 7t57.5 21.5t46 36t22 50.5q0 20 -12 39t-42 19h-5q-1 0 -9 -1q-8 -7 -20.5 -16.5t-26 -18.5t-27.5 -15t-25 -6t-18.5 5t-7.5 14v2q1 13 5 32t11.5 37t17.5 33.5t24 22.5q6 -4 13.5 -10t10.5 -8q2 0 3.5 -0.5t2.5 -0.5l3 -1.5l5 -2.5q17 0 33 12.5t22 18.5v10
q0 2 0.5 5t0.5 8q0 2 0.5 3.5t0.5 3.5v6q0 13 -3 30t-10.5 32.5t-20.5 26.5t-34 11q-43 0 -78 -29.5t-60.5 -71.5t-40 -88t-15.5 -78v-6q-1 -4 -1 -9v-11v-25z" />
    <glyph glyph-name="guillemotleft" unicode="&#xab;" horiz-adv-x="504" 
d="M177 382l5 4v-1v1l93 70q9 7 11.5 14.5t2.5 15.5v8q-2 15 -17 28t-34 15l-10 -3q2 1 0 1q-4 -1 -12.5 -4.5l-8.5 -3.5l2 2q-2 -2 -9.5 -7t-21.5 -13q-19 -12 -43 -27t-45.5 -30.5t-37 -29t-16.5 -22.5v1l-1 -19q3 -8 14.5 -24t28 -35.5t37 -40.5t41 -38t39 -28t31.5 -11
l29 1q14 7 21 16t7 23v2q0 23 -17.5 41.5t-37.5 36.5q-17 14 -31 29.5t-15 29.5l-0.5 -0.5t-4.5 -1.5zM376 379v-1v1l94 70q9 7 11.5 14.5t2.5 15.5v8q-2 15 -17 28t-35 15l-9 -3q2 1 0 1q-4 -1 -12.5 -4.5l-8.5 -3.5l2 2q-2 -2 -9.5 -7t-21.5 -13q-19 -12 -43 -27
t-45.5 -30.5t-37 -29t-17.5 -22.5l-1 -18q4 -12 27 -41t53 -59t60.5 -53.5t50.5 -23.5l30 1q27 13 27 38v3q0 23 -17 41.5t-37 36.5q-17 14 -31 29.5t-16 29.5l-0.5 -0.5t-3.5 -1.5z" />
    <glyph glyph-name="logicalnot" unicode="&#xac;" horiz-adv-x="985" 
d="M268 26q4 2 7 2q4 0 7 1q2 -2 4.5 -4t5.5 -4q2 -2 8 -6l11 -5q9 -5 12 -5.5t7 -2.5q9 -4 19 -4q12 0 18 5.5t13 17.5l5 14l10 20t11 21q19 5 45 9t53 6q0 -5 1 -8q2 -10 3 -20.5t2 -18.5q4 -20 11.5 -27.5t25.5 -12.5h-2q14 -5 26 -6t26 -1q24 0 31 7.5t7 26.5
q0 2 -0.5 4.5t-0.5 4.5q11 -9 21.5 -16t27.5 -14q9 -6 17 -9t19 -3t32 6q17 4 36.5 11t39 15.5t37 18.5t30.5 22h-1q16 14 25.5 29t9.5 35q0 6 -0.5 10t-1.5 7v-1q-2 14 -9.5 27.5t-19.5 24.5q7 5 12.5 8.5t10.5 8.5q19 15 32 34t13 42q0 10 -3 22v-1q-6 24 -18.5 41.5
t-29.5 31.5q-14 12 -33 18q19 7 19 25q0 7 -5 17l1 -3q-6 23 -16 40q-8 11 -16.5 15.5t-24.5 4.5h-10q-14 0 -27.5 -1t-26.5 -3q2 8 2 12q19 5 39.5 7.5t40.5 5.5l17 3q17 4 25 10t8 20q0 4 -5 16q-3 8 -6.5 16.5t-8.5 18.5q-8 13 -17.5 17.5t-24.5 4.5h-6h-14t-13 -1
q7 19 12 38q17 2 32.5 4t31.5 4l16 2l16 2q18 2 26 7.5t8 21.5v4q0 3 -1 7q-2 11 -5.5 19t-8.5 19q-14 26 -49 26q-50 -2 -99.5 -10.5t-87.5 -16.5l-14 -14q-3 5 -7.5 9.5t-13.5 9.5h1q-12 8 -26.5 14t-29.5 9q-7 1 -12.5 2t-6.5 1q-14 0 -20.5 -6t-11.5 -22v1
q-7 -23 -13.5 -50.5t-13.5 -56.5l-9 -38q-7 -1 -14 -1t-14 -1q2 7 3.5 14t3.5 15l-1 -1q5 17 8 31.5t11 34.5q0 2 0.5 6t0.5 6q0 11 -5 19.5t-20 16.5q-29 16 -56 24q-12 3 -20 3q-28 0 -34 -30q0 -1 -0.5 -1.5t-0.5 -1.5q-4 7 -7 12t-7 10q-9 8 -17.5 12t-27.5 4
q-24 -1 -55 -3t-63 -5t-63.5 -7t-55.5 -8q-13 -2 -20 -8t-7 -19l1 -6t3 -11q2 -3 6 -11q4 -7 9 -15.5t16 -18.5q15 -16 33 -16q7 0 10 0.5t6 1.5q4 1 14 1q-6 -27 -13 -57.5t-12.5 -59.5t-10 -55.5t-5.5 -45.5l1 4q-2 -4 -2 -8v-6q0 -18 10 -30q-18 -1 -29 -26
q-10 -29 -20.5 -68.5t-19.5 -81t-16.5 -79.5t-11.5 -64v-9q0 -14 5.5 -24t15.5 -21q2 -2 3.5 -3t5.5 -4q6 -5 11.5 -9.5t11.5 -8.5t13 -8t23 -4q13 0 26 5l-1 -1q28 6 59 12t61 12zM285 97q-2 3 -3 5.5t-2 4.5q-12 14 -20.5 18t-22.5 4h-7q-14 -1 -27.5 -1.5t-27.5 -2.5
q15 55 31 111.5t30 98.5q1 3 2 6.5t1 7.5q0 9 -4.5 15.5t-13.5 13.5q9 2 15 8t8 19q13 64 30.5 138.5t34.5 140.5q10 2 19 2q10 0 20 1q6 1 12 1t11 1h6q-2 -8 -3.5 -17t-3.5 -18q-9 -55 -19.5 -110.5t-20.5 -92.5q-2 -5 -2 -9v-5q0 -14 6 -22.5t20 -16.5l-1 1
q9 -7 20.5 -10t22.5 -6q4 -2 7 -2q3 -1 2 -1.5t14 -0.5q8 0 10 1q-17 -27 -36.5 -62.5t-39 -74t-37.5 -76.5t-31 -70zM333 241q6 7 13.5 17.5t14.5 22.5t13.5 24t10.5 23q0 1 0.5 5t0.5 6q1 5 1 7v2q0 5 -2.5 13t-9.5 16q-8 7 -16 13.5t-16 10.5l1 -1q-12 8 -25 8
q-21 0 -31 -21q-8 -17 -21 -41.5t-25 -46.5l-8 -16l-7 -14q-4 -10 -4 -16q0 -24 30 -30q1 0 3 -0.5t4 -0.5h-1q4 -1 9 -1h10q8 0 12 1q13 0 22 5t19 13zM646 375q-3 -38 -8.5 -81t-12.5 -85v-2q-1 24 -1.5 46.5t-0.5 42.5v26q0 13 1 24q0 14 -3 23t-14 16q7 5 9 21
q10 51 23 107.5t26 108.5l-28 -152v2q-1 -5 -1 -13q0 -14 5.5 -24.5t13.5 -18.5q7 -7 12.5 -11t10.5 -8l7 -6q-11 -3 -20.5 -7t-18.5 -9zM492 409h-7q-24 0 -37 -9q1 2 1 4t1 4l-1 -2q2 9 4.5 19.5t4.5 21.5q3 15 5.5 29.5t5.5 26.5q6 1 12 1t13 2l9 1q-3 -17 -4 -31.5
t-2 -28.5q-1 -4 -1 -11q0 -17 10 -28q-5 1 -14 1zM784 296q15 7 27.5 9.5t22.5 2.5h4q-5 -9 -21.5 -21t-41.5 -23q3 17 9 32zM779 153h15q-3 -7 -17.5 -16t-38.5 -17q1 8 4 16l3 12q22 5 34 5zM495 245q0 -11 0.5 -22t1.5 -22q-7 -1 -14 -1t-13 -1q6 11 12.5 22.5t12.5 23.5
zM841 314v-2l-1 5q0 -1 0.5 -1.5t0.5 -1.5zM429 380v-1v1zM385 34l1 1h-1v-1zM398 383h-2h2z" />
    <glyph glyph-name="registered" unicode="&#xae;" horiz-adv-x="660" 
d="M36 318v-21q0 -56 14 -106t44.5 -88t79 -60.5t116.5 -22.5q79 0 142.5 32.5t108.5 84.5t70.5 117.5t27.5 131.5v-1q1 7 1 13v14q0 58 -16 112.5t-49.5 97t-86 68t-124.5 25.5q-54 0 -98.5 -18.5t-80.5 -49t-63.5 -71t-46 -85t-28.5 -89t-11 -84.5zM150 300q1 27 8 60
t19.5 66.5t31 65t43 56t55 39.5t67.5 15q43 0 74 -18t51.5 -46.5t30.5 -64t10 -71.5v-8q-3 -44 -20 -91t-47 -86t-72.5 -64t-96.5 -25q-81 0 -118 42.5t-37 111.5q0 4 0.5 8.5t0.5 9.5zM179 200q9 -11 22 -21.5t29 -10.5t25.5 5.5t15.5 14t9 19t5 21.5q2 10 5 18t9 8
q5 0 9 -6t8 -14q9 -15 20 -28t35 -13q7 0 12 0.5t9 3t8.5 8t10.5 16.5v18q0 4 0.5 8t0.5 6v3q0 11 -2.5 18.5t-4.5 15.5v-1q-2 7 -4 13t-2 11q0 4 1 6q1 10 7.5 19t14.5 20q14 17 27.5 37.5t15.5 51.5v10q0 54 -32 83t-92 29q-55 0 -82 -22.5t-36 -70.5q-4 -17 -7 -32
t-7 -30q-11 -48 -19 -90.5t-11 -87.5v-36zM340 446q9 0 9 -3v-1q0 -10 -9 -22t-21 -14q0 13 3.5 26.5t17.5 13.5z" />
    <glyph glyph-name="macron" unicode="&#xaf;" horiz-adv-x="399" 
d="M65 612v-4q0 -19 19 -28.5t41 -14.5h105h30t28 1t29 2t33 3q18 8 23 17.5t6 19.5q0 20 -20 30.5t-44 10.5h-176q-27 0 -49.5 -7t-24.5 -30z" />
    <glyph glyph-name="degree" unicode="&#xb0;" horiz-adv-x="278" 
d="M258 586v3q0 18 -6 36t-17.5 32.5t-28.5 23t-40 8.5q-38 0 -62.5 -15t-38.5 -38.5t-20 -52t-6 -56.5v-4q0 -15 7 -26.5t18 -20t24.5 -12.5t26.5 -4q29 0 54.5 10t44.5 27t30.5 40t13.5 49zM167 610q8 0 10 -9t2 -17q-2 -17 -15 -27.5t-33 -10.5q-2 0 -3 -0.5t-3 0.5l-3 3
v4q1 8 4 18t9 18.5t14 14.5t18 6z" />
    <glyph glyph-name="plusminus" unicode="&#xb1;" horiz-adv-x="604" 
d="M203 330l-1 -20v-4q0 -20 10 -35.5t38 -15.5q25 0 41 11.5t25 30t13.5 41.5t7.5 47q4 20 7 38t9 27q5 3 30 4.5t55 3.5q25 1 50.5 2.5t46 6.5t33.5 13.5t14 23.5l2 46q0 8 -5.5 14.5t-11.5 11.5q-2 0 -8 1l-12 2t-11.5 1.5t-6.5 0.5h-147q2 14 6 28.5t9 29.5
q7 20 12.5 40.5t5.5 42.5v24q-11 14 -23.5 22.5t-26.5 8.5q-22 0 -37 -11t-25 -27t-15.5 -33.5t-8.5 -30.5l1 2q0 -1 -1 -1v-1v-1v1q-3 -6 -7 -20t-8 -29t-7 -29t-4 -20q-5 -8 -20 -9.5t-32 -1.5h-26q-7 0 -14.5 0.5t-14.5 0.5q-18 0 -34.5 -2.5t-29 -9t-20 -19t-8.5 -33.5
v-2q0 -21 16.5 -34t36.5 -13h116v-7q-1 -14 -4 -30t-7 -32q-2 -12 -4.5 -24.5t-4.5 -29.5v-1zM512 210q0 8 -5 14.5t-12 11.5q-2 0 -8 1t-12.5 1.5t-12.5 1t-7 0.5q-51 -3 -83 -3q-20 0 -36.5 0.5t-30.5 1.5q-9 0 -17.5 0.5t-16.5 0.5q-12 0 -20.5 -0.5t-13.5 -1.5
q-10 -3 -17.5 -4t-13.5 -1q-10 0 -24 1.5t-28 3.5q-24 3 -50 3q-34 0 -56.5 -13t-24.5 -54v-2q0 -22 16.5 -34.5t36.5 -12.5h125q37 3 77 3q22 0 42 -0.5t40 -1.5q16 0 31 -0.5t29 -0.5q39 0 63.5 8t26.5 32z" />
    <glyph glyph-name="acute" unicode="&#xb4;" horiz-adv-x="287" 
d="M259 841q-7 4 -16.5 8t-21.5 4q-18 0 -29 -6.5t-17.5 -16t-10 -20t-5.5 -19.5q-2 -3 -2 -5t-1 -4q-2 -7 -6.5 -13t-8.5 -12q-8 -12 -15 -23.5t-7 -26.5v-3q0 -13 11 -22.5t31 -9.5q26 0 46 17t33.5 39.5t20 46t6.5 35.5v9q0 2 -0.5 4t-0.5 4z" />
    <glyph glyph-name="paragraph" unicode="&#xb6;" horiz-adv-x="499" 
d="M355 723q-52 0 -108 -20t-103.5 -58.5t-80 -94t-37.5 -126.5v1v-24q0 -73 34 -115t100 -42h14t13 1l-14 -217v-8q0 -32 14.5 -48.5t34.5 -16.5h6t8 2h-1q18 5 29.5 13.5t19 23t12 37.5t7.5 56l40 518q2 0 4.5 0.5t4.5 0.5q3 0 9 -7l-47 -562v-9q0 -32 14.5 -48.5
t34.5 -16.5h5q4 0 9 2h-1q18 4 29.5 12.5t19 23.5t12 37.5t7.5 55.5l35 560v3q0 21 -14 34t-33.5 20t-41 9.5t-35.5 2.5z" />
    <glyph glyph-name="periodcentered" unicode="&#xb7;" horiz-adv-x="168" 
d="M31 325v-6q0 -22 14.5 -37.5t40.5 -15.5q11 0 22 6.5t20 16.5t14.5 21.5t5.5 22.5v4q0 23 -18.5 35t-41.5 12q-28 0 -42 -18.5t-15 -40.5z" />
    <glyph glyph-name="periodcentered" unicode="&#x2219;" horiz-adv-x="168" 
d="M31 325v-6q0 -22 14.5 -37.5t40.5 -15.5q11 0 22 6.5t20 16.5t14.5 21.5t5.5 22.5v4q0 23 -18.5 35t-41.5 12q-28 0 -42 -18.5t-15 -40.5z" />
    <glyph glyph-name="cedilla" unicode="&#xb8;" horiz-adv-x="307" 
d="M271 -26l14 54q0 3 0.5 7.5t0.5 8.5t0.5 8t0.5 8q0 20 -8 35.5t-35 15.5q-16 0 -27 -7.5t-18 -19.5t-11 -27.5t-6 -31.5v1l-5 -42q-4 -12 -4.5 -17t-0.5 -20q0 -17 6.5 -32.5t26.5 -20.5q2 0 3.5 -0.5t3.5 -0.5q20 0 37.5 24t22.5 59z" />
    <glyph glyph-name="ordmasculine" unicode="&#xba;" horiz-adv-x="398" 
d="M378 538v6q0 28 -9 55.5t-26.5 49t-43 35t-59.5 13.5q-57 0 -95 -23.5t-60.5 -60.5t-31.5 -82.5t-9 -89.5v-7q0 -23 10.5 -40.5t27 -29.5t36.5 -18t39 -6q45 0 84.5 15.5t69 42t47 62.5t20.5 78zM22 278v-6q0 -25 19 -37.5t41 -20.5h113q39 0 70 2t69 7q18 11 23 23.5
t7 26.5q0 26 -20.5 41t-45.5 15h-202q-27 0 -49.5 -9.5t-24.5 -41.5zM137 472q1 19 8.5 42t21 43t32.5 33.5t43 13.5q12 0 20 -7t12.5 -17t6 -22t1.5 -22v2q-4 -45 -34.5 -70t-78.5 -25h-19l-12 13q0 4 -0.5 8t-0.5 8z" />
    <glyph glyph-name="guillemotright" unicode="&#xbb;" horiz-adv-x="505" 
d="M95 318q-20 -18 -36.5 -36.5t-16.5 -41.5v-3q0 -25 28 -38l28 -1q13 0 31.5 11t39 28t41 38t37.5 40.5t28.5 35.5t14.5 24l-1 19v-5q2 8 -12.5 22t-37 30t-48 32.5t-45.5 28.5q-11 5 -18.5 10.5t-11.5 8.5l1 -1q-11 10 -13.5 8t-7.5 0q-2 0 0 -1l-9 3q-20 -2 -34.5 -15
t-16.5 -28v-8q0 -8 2 -15.5t10 -14.5l95 -70l5 -4q-5 1 -5 2q-2 -14 -16.5 -29t-31.5 -30zM290 325q-20 -18 -36.5 -36.5t-16.5 -41.5v-2q0 -26 27 -39l29 -1q13 0 31.5 11t39 28t41 38t37.5 40.5t28.5 35.5t14.5 24l-1 19v-1q-2 9 -17.5 22.5t-37 29t-46 30.5t-43.5 27
q-10 5 -17.5 10.5t-11.5 8.5l1 -1q-12 10 -14.5 8t-6.5 0q-2 0 0 -1l-9 3q-20 -2 -35 -15t-17 -28v-8q0 -8 2.5 -15.5t10.5 -14.5l95 -70l4 -4q-4 1 -4 2q-2 -14 -16.5 -29t-31.5 -30z" />
    <glyph glyph-name="questiondown" unicode="&#xbf;" horiz-adv-x="596" 
d="M177 71q1 25 17 48.5t39 44.5t51 40.5t54 36.5q38 26 65 47.5t29 44.5l4 105v2q0 15 -5 22.5t-12.5 11.5t-16.5 4.5t-18 0.5q-22 0 -35.5 -4.5t-21 -12.5t-10.5 -19t-6 -24l1 1q-4 -15 -11 -33.5t-33 -36.5q-10 -8 -20 -15.5t-21 -15.5q-36 -27 -71.5 -55t-64 -60
t-46.5 -70t-19 -85v-7q0 -37 13 -64t36 -44.5t54 -26t67 -8.5q21 0 56.5 6.5t77 18t85 28.5t78.5 37.5t58 44.5t25 51v10q0 19 -6.5 31t-29.5 27h-15q-4 0 -9 0.5t-6 0.5q-36 0 -64.5 -15.5t-58.5 -36.5q-32 -23 -67.5 -42.5t-84.5 -19.5h-6q-4 0 -7.5 0.5t-7.5 0.5h-18
q-11 5 -15 12t-4 18zM463 647v8q0 31 -19.5 47t-50.5 16q-18 0 -35.5 -6t-30.5 -16.5t-21.5 -25t-8.5 -32.5q0 -14 7 -27.5t18 -24t25.5 -17t28.5 -6.5q18 0 33.5 7t27 19t18.5 27t8 31z" />
    <glyph glyph-name="Agrave" unicode="&#xc0;" horiz-adv-x="552" 
d="M457 816q0 2 0.5 4.5t0.5 4.5v11q0 15 -8 42t-23.5 53.5t-39 46.5t-53.5 20q-23 0 -36.5 -11t-13.5 -26v-4q0 -17 8 -31t18 -28q5 -8 10 -14.5t7 -14.5q2 -2 2 -4t2 -6q2 -9 5 -19t8.5 -20t13.5 -18t21 -12q-39 -12 -73.5 -48.5t-62.5 -80t-49 -86.5t-32 -69
q-5 -12 -18.5 -45t-28.5 -69q-11 -30 -22 -56.5t-17 -41.5q-21 -14 -32 -27t-11 -41v-47q0 -24 2 -51t8 -50t18.5 -38t33.5 -15q23 0 36.5 8.5t21 22.5t10 32t4.5 37q2 20 5.5 38t13.5 23q16 10 36.5 16t42 9t43 4t40.5 1h45q10 -5 13 -12.5t4 -20.5v-1v1v-2v1q0 -2 0.5 -3
t0.5 -2q0 -2 0.5 -7.5t0.5 -10.5q1 -8 1 -18v-19v-61q5 -16 16.5 -28.5t34.5 -12.5q13 0 23.5 6t17 15.5t10.5 20.5t4 21l13 254q-5 20 -8.5 55.5t-6.5 79.5q-3 48 -7.5 100.5t-13.5 97.5t-25 77.5t-41 42.5q6 2 10 4.5t9 5.5zM389 460q0 -20 -0.5 -40t-2.5 -36
q0 -4 -0.5 -7.5t-0.5 -6.5v1l-1 -16q-6 -5 -23 -9t-37.5 -6.5t-42 -4t-37.5 -2.5q5 26 17 61t28.5 69.5t36 65t39.5 48.5q15 -18 19.5 -51t4.5 -66z" />
    <glyph glyph-name="Aacute" unicode="&#xc1;" horiz-adv-x="552" 
d="M472 983q-8 5 -19.5 9.5t-25.5 4.5q-21 0 -33.5 -7.5t-20.5 -18.5t-12 -24t-7 -23q-2 -4 -2 -7q0 -2 -1 -4q-2 -7 -7.5 -14t-10.5 -14q-10 -15 -18 -28.5t-8 -30.5v-4q0 -15 13.5 -26t36.5 -11q8 0 12 1q-37 -15 -69.5 -51.5t-59.5 -78.5t-47 -83.5t-31 -66.5
q-5 -12 -18.5 -45t-28.5 -69q-11 -30 -22 -56.5t-17 -41.5q-21 -14 -32 -27t-11 -41v-47q0 -24 2 -51t8 -50t18.5 -38t33.5 -15q23 0 36.5 8.5t21 22.5t10 32t4.5 37q2 20 5.5 38t13.5 23q16 10 36.5 16t42 9t43 4t40.5 1h45q10 -5 13 -12.5t4 -20.5v-1v1v-2v1q0 -2 0.5 -3
t0.5 -2q0 -2 0.5 -7.5t0.5 -10.5q1 -8 1 -18v-19v-61q5 -16 16.5 -28.5t34.5 -12.5q13 0 23.5 6t17 15.5t10.5 20.5t4 21l13 254q-5 20 -8.5 55.5t-6.5 79.5q-3 53 -8 110t-16.5 104t-30.5 77.5t-51 30.5q-5 0 -10 -0.5t-10 -1.5q22 10 39 31t28.5 44t17 45t5.5 35v11
q0 2 -0.5 4t-0.5 4zM389 460q0 -20 -0.5 -40t-2.5 -36q0 -4 -0.5 -7.5t-0.5 -6.5v1l-1 -16q-6 -5 -23 -9t-37.5 -6.5t-42 -4t-37.5 -2.5q5 26 17 61t28.5 69.5t36 65t39.5 48.5q15 -18 19.5 -51t4.5 -66z" />
    <glyph glyph-name="Acircumflex" unicode="&#xc2;" horiz-adv-x="552" 
d="M413 61q5 -16 16.5 -28.5t34.5 -12.5q13 0 23.5 6t17 15.5t10.5 20.5t4 21l13 254q-5 20 -8.5 55.5t-6.5 79.5q-3 52 -8 109t-16.5 104.5t-30.5 78t-51 30.5q-29 0 -56.5 -16t-52.5 -41.5t-46.5 -57.5t-39.5 -64t-32 -61t-22 -48q-5 -13 -18.5 -46t-28.5 -69
q-11 -29 -22 -55.5t-17 -41.5q-21 -14 -32 -27.5t-11 -41.5v-47q0 -24 2 -50.5t8 -49.5t18.5 -38t33.5 -15q23 0 36.5 8.5t21 22.5t10 32t4.5 37q2 20 5.5 37.5t13.5 23.5q16 10 36.5 16t42 9t43 4t40.5 1h45q10 -5 13 -13t4 -20q0 -2 0.5 -3.5t0.5 -3.5t0.5 -7t0.5 -10
q1 -8 1 -18v-19v-61zM435 802l-2 2q4 -7 11.5 -10t15.5 -3q3 0 5.5 0.5t5.5 0.5h14q14 20 18.5 32.5t4.5 18.5q0 2 -0.5 5t-0.5 4q-4 5 -9 12.5l-9 13.5q-8 11 -16.5 25.5t-16.5 28.5l2 -6q-2 2 -3.5 5.5t-3.5 5.5l2 -1q-3 4 -9 10.5t-13 13.5t-13.5 12t-10.5 5h-9
q-2 0 -12 -8t-23.5 -19t-27 -22.5t-21.5 -19.5q-2 -2 -4 -3.5t-4 -3.5l1 1q-14 -13 -21.5 -23.5t-8.5 -35.5v-19q13 -27 34 -27q17 0 29 11.5t24 26.5q8 9 15.5 17.5t14.5 10.5zM389 460q0 -20 -0.5 -40t-2.5 -36q0 -4 -0.5 -8t-0.5 -7v1l-1 -15q-6 -5 -23 -9t-37.5 -6.5
t-42 -4t-37.5 -2.5q5 26 17 61t28.5 69.5t36 65t39.5 48.5q15 -18 19.5 -51t4.5 -66zM387 874l4 -7q-3 3 -4 7zM458 926v-2v2z" />
    <glyph glyph-name="Atilde" unicode="&#xc3;" horiz-adv-x="525" 
d="M344 55q6 -25 14.5 -30t26.5 -5h12q25 0 39 10t21.5 25.5t10.5 34t5 35.5q0 5 1 7v-1q1 5 1 11v12q0 11 -0.5 22.5t-1.5 22.5q-1 10 -1 19v19v20l4 26v2q15 11 21 20.5t8 28.5v5q0 18 -7 30t-17 23v-1q-5 5 -9 9.5t-6 11.5v-2q-1 9 -3 27.5t-4.5 39.5t-4 39t-1.5 26
q0 2 -0.5 3.5t-0.5 3.5q-1 11 -1.5 23.5t-0.5 28.5q0 30 -4.5 62.5t-16.5 59.5t-32.5 44.5t-52.5 17.5q-18 0 -37 -10t-36 -23.5t-31 -28t-23 -23.5l-6 -7q-52 -51 -85 -116.5t-53 -136.5t-29 -142.5t-12 -134.5v-24q0 -14 2 -28.5t8 -26t18 -19t32 -7.5q33 0 55 30
q4 8 4.5 15t0.5 17t0.5 23t1.5 25t2 21.5t1 14.5l2 14t6 10q42 7 84 11t85 4q1 0 4 -0.5t7 -0.5v-7q0 -6 0.5 -13t0.5 -14q1 -9 1 -18v-18v-46v-10t-2 -12v-18q0 -9 -1 -15q0 -4 -0.5 -7t-0.5 -5zM186 825v-5q0 -18 6.5 -25.5t20.5 -7.5q11 0 23.5 7.5t24.5 18.5l-1 -1
q11 8 21.5 16.5t19.5 8.5q6 0 12.5 -5.5t13.5 -11.5q13 -11 26 -20t32 -9q15 0 30.5 6.5t28.5 19.5t22 33t9 47v9q0 18 -5.5 28.5t-24.5 10.5q-12 0 -19.5 -9t-14.5 -22v1q-5 -8 -10.5 -17t-10.5 -9t-10.5 4.5t-11.5 11.5q-9 9 -20 18.5t-25 11.5h-10q-2 0 -4.5 0.5
t-6.5 0.5q-14 0 -33.5 -6t-37.5 -19t-31.5 -34t-13.5 -52zM326 609q4 0 6.5 -15.5t4 -38t2 -49t0.5 -48.5v-57q-2 -5 -2 -10v-10v-16q-8 -8 -23.5 -12t-33 -5.5t-34.5 -2t-27 -0.5h-21q-6 0 -10.5 2t-5.5 7q1 10 8.5 32.5t19 51t26 58.5t30 55.5t31 41.5t29.5 16z" />
    <glyph glyph-name="Adieresis" unicode="&#xc4;" horiz-adv-x="593" 
d="M415 61q5 -16 17 -28.5t35 -12.5q13 0 23 6t17 15.5t11 20.5t4 21l13 253q-5 20 -8.5 55.5t-6.5 79.5q-3 52 -8 109t-16.5 104t-31 77.5t-51.5 30.5q-29 0 -56.5 -16t-52.5 -41t-47 -57t-40.5 -64t-32 -61t-22.5 -48q-5 -12 -18.5 -45t-27.5 -69q-12 -29 -23 -56t-17 -42
q-21 -14 -32 -27t-11 -41v-47q0 -24 2 -50.5t8.5 -49.5t18.5 -38t33 -15q24 0 37.5 8.5t21 22.5t10 32t4.5 36q2 20 5.5 38t13.5 24q16 10 36.5 16t42.5 9t43.5 4t40.5 1h45q11 -5 13.5 -13.5t3.5 -20.5q0 -2 0.5 -3.5t0.5 -2.5q0 -2 0.5 -7t0.5 -10q1 -8 1 -18v-19v-61z
M392 459q0 -20 -1 -40t-3 -36q0 -4 -0.5 -7t-0.5 -6l-1 -16q-6 -5 -23 -9t-38 -6.5t-42.5 -4t-37.5 -2.5q5 26 17 61t28.5 69.5t36.5 65t40 48.5q15 -18 20 -51t5 -66zM428 865v-7q0 -28 18 -47.5t50 -19.5q14 0 28 8t25 21t17.5 27.5t6.5 28.5v5q0 29 -23 45t-51 16
q-35 0 -52.5 -24t-18.5 -53zM267 864v-7q0 -28 18 -47.5t50 -19.5q14 0 28 8t25 21t17.5 27.5t6.5 28.5v5q0 29 -23 45t-51 16q-35 0 -52.5 -24t-18.5 -53z" />
    <glyph glyph-name="Aring" unicode="&#xc5;" horiz-adv-x="556" 
d="M413 61q5 -16 16.5 -28.5t34.5 -12.5q13 0 23.5 6t17 15.5t10.5 20.5t4 21l13 251q-5 19 -8.5 54.5t-6.5 79.5q-3 52 -8 108t-16.5 102.5t-30.5 77t-51 30.5q-29 0 -56.5 -16t-52.5 -41t-46.5 -56.5t-39.5 -63.5t-32 -60.5t-22 -47.5q-5 -12 -18.5 -45t-28.5 -68
q-11 -29 -22 -55.5t-17 -41.5q-21 -14 -32 -27t-11 -41v-46q0 -24 2 -50.5t8 -49t18.5 -37.5t33.5 -15q23 0 36.5 8.5t21 22.5t10 31.5t4.5 36.5q2 20 5.5 37.5t13.5 22.5q16 10 36.5 16t42 9t43 4t40.5 1h45q10 -5 13 -12.5t4 -19.5v-1v1v-2v1q0 -2 0.5 -3.5t0.5 -2.5
q0 -2 0.5 -7t0.5 -10q1 -8 1 -18v-19v-60zM389 455q0 -20 -0.5 -39.5t-2.5 -35.5q0 -4 -0.5 -7.5t-0.5 -6.5v1l-1 -15q-6 -6 -23 -9.5t-37.5 -6t-42 -4t-37.5 -2.5q5 26 17 60t28.5 68.5t36 64.5t39.5 48q15 -18 19.5 -50.5t4.5 -65.5zM536 858v2q0 19 -6 37t-17 32
t-28.5 23t-39.5 9q-31 0 -54.5 -14t-39 -35.5t-24 -47t-9.5 -49.5v-7q0 -32 21 -54t54 -22q29 0 54.5 10t44.5 27t30.5 40t13.5 49zM446 882q7 0 9 -8.5t2 -16.5q-1 -18 -14.5 -28.5t-33.5 -10.5q-4 0 -8 3v4q0 8 3.5 18t9.5 18.5t14 14.5t18 6z" />
    <glyph glyph-name="AE" unicode="&#xc6;" horiz-adv-x="914" 
d="M425 61q6 -16 18 -28.5t36 -12.5q11 0 17.5 0.5t11.5 1.5q7 1 14 1.5t17 0.5q22 0 55 7t68.5 19t71.5 29.5t65 38t47.5 44.5t20.5 50q0 57 -60 57q-35 0 -62.5 -18t-53.5 -41q-23 -20 -46 -36.5t-52 -16.5q-32 0 -53 24l8 139q16 17 38.5 29t49 20.5t54 14.5t54.5 11
q30 6 57 12.5t47.5 15.5t32.5 22t13 33v2q0 14 -7 26.5t-18.5 21.5t-25.5 14t-29 5q-31 0 -59 -6t-57 -14h1q-26 -7 -50.5 -13t-51.5 -6h-2q-4 0 -5 -3v16l2 7q1 35 14 56t34 32.5t49 15.5t60 4q23 0 46 -1l46 -2q48 14 50 52v4q0 24 -11 39t-29 23t-40.5 10.5t-44.5 2.5
q-8 0 -16 -0.5t-16 -0.5q-7 0 -13 -0.5t-11 -0.5h-28q-10 0 -21 0.5t-24 0.5q-38 0 -79.5 -3.5t-73.5 -17.5q-11 20 -26 32t-35 12q-30 0 -58 -16t-54 -41t-48 -56.5t-41 -63.5t-33 -60.5t-23 -47.5q-5 -12 -18.5 -45t-29.5 -68q-12 -29 -23 -55.5t-18 -41.5
q-21 -14 -32.5 -27t-11.5 -41v-46q0 -24 2 -50.5t8.5 -49t19.5 -37.5t34 -15q24 0 38 8.5t21.5 22.5t10.5 31.5t5 36.5q2 20 5.5 37.5t13.5 22.5q17 10 38 16t43.5 9t44.5 4t41 1h47q11 -5 13.5 -13t3.5 -20q0 -2 0.5 -3.5t0.5 -2.5q0 -2 0.5 -7t0.5 -10q1 -8 1 -18v-19v-60
zM401 455q0 -20 -1 -39.5t-2 -35.5q0 -4 -0.5 -7.5t-0.5 -6.5v1l-1 -15q-7 -6 -24.5 -9.5t-39 -6t-43.5 -4t-38 -2.5q5 26 17.5 60t29.5 68.5t37 64.5t41 48q16 -18 20.5 -50.5t4.5 -65.5z" />
    <glyph glyph-name="Ccedilla" unicode="&#xc7;" horiz-adv-x="577" 
d="M292 -35l18 62q36 7 79 21.5t79.5 35.5t61.5 47.5t27 56.5v3q0 23 -13 37t-35 14q-26 0 -51 -13t-52 -30q-31 -20 -67 -38.5t-78 -18.5q-26 0 -42.5 8t-25.5 21.5t-12.5 31.5t-3.5 39q0 5 0.5 10.5t0.5 11.5q0 16 8 49.5t21.5 74.5t33 83.5t42 77.5t48 57.5t51.5 22.5
q3 0 4 -1l-1 -20q0 -14 1 -30.5t6.5 -30.5t16.5 -23t32 -9q25 0 41.5 12t26.5 29.5t14.5 38t4.5 37.5v12q0 12 -1 30t-6 35.5t-15.5 31t-29.5 17.5q-29 6 -60 6q-70 0 -125 -31.5t-97 -81.5t-72 -111t-49.5 -120t-29 -109t-10.5 -77v-12q0 -79 38 -129t110 -65v-4v1l-7 -48
q-2 -7 -3.5 -11t-2 -8t-0.5 -9v-13q0 -20 8 -38t34 -23h8q12 0 24.5 7.5t23 20t17.5 29.5t10 36z" />
    <glyph glyph-name="Egrave" unicode="&#xc8;" horiz-adv-x="563" 
d="M33 186v-7q0 -29 15 -57.5t39 -51t53 -36.5t58 -14q22 0 53.5 7t66.5 19.5t69.5 29.5t62.5 38.5t46 45.5t20 50q0 58 -58 58q-35 0 -61 -18.5t-51 -41.5q-22 -20 -45 -37t-50 -17q-17 0 -30.5 8t-23 20t-14.5 27.5t-5 30.5v6q1 39 22 64.5t53 42t70.5 26t74.5 17.5
q29 6 55 12t45.5 15t31.5 22.5t13 33.5v2q0 15 -7 27.5t-18 21.5t-25 14t-28 5q-30 0 -57.5 -6.5t-55.5 -14.5h1q-24 -6 -48 -12.5t-50 -6.5h-2q-5 0 -6 -3v16l2 8q1 35 14 56.5t33.5 33t48 15.5t57.5 4q22 0 44.5 -1t44.5 -2q46 12 48 53v3q0 25 -11 40t-28 23t-38.5 10.5
t-42.5 2.5q-8 0 -16 -0.5t-16 -0.5q-6 0 -12 -0.5t-11 -0.5h-27q-11 0 -22 0.5t-23 0.5q-32 0 -67 -3t-64 -12.5t-48.5 -28.5t-21.5 -50v-7q0 -15 1.5 -28t3.5 -25v1q0 -6 1 -15.5t2 -18t2 -15l1 -6.5q-1 -3 -1 -8q-2 -48 -13 -94t-22 -91q-12 -47 -21.5 -91.5t-11.5 -88.5z
M423 814q0 2 0.5 4.5t0.5 4.5v11q0 15 -8 42t-23.5 53.5t-38.5 46.5t-54 20q-23 0 -36.5 -11t-13.5 -26v-4q0 -17 8 -31t18 -28q5 -8 10.5 -14.5t7.5 -14.5q1 -2 1 -4t2 -6q3 -11 7 -23.5t12 -23.5t21 -18.5t34 -7.5q14 0 25 4t19 10z" />
    <glyph glyph-name="Eacute" unicode="&#xc9;" horiz-adv-x="563" 
d="M33 186v-8q0 -29 15 -57t39 -50.5t53 -36.5t58 -14q22 0 53.5 7t66.5 19.5t69.5 29.5t62.5 38.5t46 45.5t20 50q0 58 -58 58q-35 0 -61 -18.5t-51 -41.5q-22 -20 -45 -37t-50 -17q-17 0 -30.5 8t-23 20t-14.5 27.5t-5 30.5v6q1 39 22 64.5t53 42t70.5 25.5t74.5 17
q29 6 55 12.5t45.5 15.5t31.5 22.5t13 33.5v2q0 14 -7 26.5t-18 21.5t-25 14.5t-28 5.5q-30 0 -57.5 -6.5t-55.5 -14.5h1q-24 -7 -48 -13t-50 -6h-2q-5 0 -6 -3v16l2 8q1 35 14 56t33.5 32.5t48 15.5t57.5 4q22 0 44.5 -0.5t44.5 -1.5q46 12 48 52v4q0 25 -11 40t-28 23
t-38.5 10.5t-42.5 2.5q-8 0 -16 -0.5t-16 -0.5q-6 0 -12 -0.5t-11 -0.5h-27q-11 0 -22 0.5t-23 0.5q-32 0 -67 -3t-64 -12.5t-48.5 -28.5t-21.5 -50v-8q0 -14 1.5 -27t3.5 -25q0 -6 1 -15t2 -17.5t2 -15l1 -6.5q-1 -3 -1 -8q-2 -48 -13 -94t-22 -91q-12 -47 -21.5 -91.5
t-11.5 -88.5zM435 974q-9 5 -20 9.5t-25 4.5q-21 0 -34 -7.5t-21 -18.5t-11.5 -24t-6.5 -23q-2 -4 -2 -7q0 -2 -2 -4q-2 -7 -7.5 -14t-10.5 -14q-10 -15 -17.5 -28.5t-7.5 -30.5v-4q0 -15 13.5 -26t36.5 -11q30 0 53.5 20t39 46.5t23.5 53.5t8 42v11q0 2 -0.5 4t-0.5 4z" />
    <glyph glyph-name="Ecircumflex" unicode="&#xca;" horiz-adv-x="563" 
d="M33 186v-8q0 -29 15 -57t39 -50.5t53 -36.5t58 -14q22 0 53.5 7t66.5 19.5t69.5 29.5t62.5 38.5t46 45.5t20 50q0 57 -58 57q-35 0 -61 -18t-51 -41q-22 -20 -45 -37t-50 -17q-17 0 -30.5 7.5t-23 20t-14.5 28t-5 30.5v5q1 40 22 65.5t53 42t70.5 25.5t74.5 17
q29 6 55 12t45.5 15t31.5 22.5t13 33.5v2q0 15 -7 27.5t-18 21.5t-25 14t-28 5q-30 0 -57.5 -6.5t-55.5 -14.5h1q-24 -6 -48 -12.5t-50 -6.5h-2q-5 0 -6 -3v17l2 7q1 35 14 56.5t33.5 33t48 15.5t57.5 4q22 0 44.5 -1t44.5 -2q46 12 48 52v4q0 25 -11 40t-28 23t-38.5 10.5
t-42.5 2.5q-8 0 -16 -0.5t-16 -0.5q-6 0 -12 -0.5t-11 -0.5h-27q-11 0 -22 0.5t-23 0.5q-32 0 -67 -3t-64 -12.5t-48.5 -28.5t-21.5 -50v-8q0 -14 1.5 -27t3.5 -25v1q0 -6 1 -15.5t2 -18t2 -15l1 -6.5q-1 -3 -1 -8q-2 -48 -13 -93.5t-22 -91.5q-12 -46 -21.5 -91t-11.5 -88z
M395 781l-2 2q4 -7 11.5 -10t15.5 -3q2 0 5 0.5t6 0.5h14q14 20 18.5 32.5t4.5 18.5q0 2 -0.5 5t-0.5 4q-4 5 -9 13t-9 13q-8 12 -16.5 26t-16.5 28l2 -6q-2 2 -3.5 5.5t-3.5 5.5l2 -1q-3 4 -9 10.5t-13 13.5t-13.5 12t-10.5 5h-9q-2 0 -12 -8t-23.5 -19t-27.5 -22.5
t-22 -19.5l-7 -7l1 1q-15 -13 -22 -23.5t-8 -35.5v-18q11 -28 33 -28q18 0 30 11.5t24 26.5q8 10 15.5 18t14.5 10zM346 853l5 -7q-4 4 -5 7zM418 905v-2v2z" />
    <glyph glyph-name="Edieresis" unicode="&#xcb;" horiz-adv-x="563" 
d="M33 186v-8q0 -29 15 -57.5t39 -51t53 -36t58 -13.5q22 0 53.5 7t66.5 19.5t69.5 29.5t62.5 38.5t46 45.5t20 50q0 57 -58 57q-35 0 -61 -18t-51 -41q-22 -20 -45 -37t-50 -17q-17 0 -30.5 7.5t-23 20t-14.5 27.5t-5 30v6q1 40 22 65.5t53 42t70.5 25.5t74.5 17
q29 6 55 12t45.5 15t31.5 22.5t13 33.5v2q0 14 -7 26.5t-18 21.5t-25 14.5t-28 5.5q-30 0 -57.5 -6.5t-55.5 -14.5h1q-24 -7 -48 -13t-50 -6h-2q-5 0 -6 -3v16l2 8q1 35 14 56t33.5 32.5t48 15.5t57.5 4q22 0 44.5 -1t44.5 -2q46 13 48 53v4q0 24 -11 39t-28 23.5t-38.5 11
t-42.5 2.5q-8 0 -16 -0.5t-16 -0.5q-6 0 -12 -0.5t-11 -0.5h-27q-11 0 -22 0.5t-23 0.5q-32 0 -67 -3t-64 -13t-48.5 -28.5t-21.5 -49.5v-8q0 -14 1.5 -27t3.5 -26v1q0 -6 1 -15t2 -17.5t2 -15l1 -6.5q-1 -3 -1 -8q-2 -48 -13 -94t-22 -91q-12 -46 -21.5 -91t-11.5 -88z
M193 861v-7q0 -28 17.5 -47.5t49.5 -19.5q14 0 28 8t25 21t17.5 27.5t6.5 28.5v5q0 29 -23 45t-51 16q-35 0 -52.5 -24t-17.5 -53zM353 862v-7q0 -28 18 -47.5t50 -19.5q14 0 28 8t25 21t17.5 27.5t6.5 28.5v5q0 29 -23 45t-52 16q-17 0 -30 -6.5t-22 -17.5t-13.5 -25
t-4.5 -28z" />
    <glyph glyph-name="Igrave" unicode="&#xcc;" 
d="M40 86q0 -18 9 -31t23 -20.5t30.5 -11t31.5 -3.5q10 0 39 4t66 11t77.5 16t75 19t57 20.5t24.5 20.5v6q0 22 -10 35.5t-25.5 20.5t-34.5 9.5t-38 2.5q-8 0 -15.5 -0.5t-14.5 -0.5h-12h-1l2 27v46q0 12 0.5 22.5t1.5 21.5l2 29v-1q1 7 1 15v17q4 81 9.5 163t22.5 165h6
q8 0 17 -1t19 -3q19 -3 42 -3h12q4 0 8.5 0.5t6.5 0.5q23 7 27 18.5t5 23.5v8q0 32 -19 50.5t-51 29.5h-9q-4 0 -8 0.5t-9 0.5t-10 0.5t-9 0.5h-15q-4 0 -9.5 -0.5t-10.5 -0.5h-12q-2 0 -9 -1h2q-5 0 -21 -3t-34.5 -6.5t-34.5 -7.5t-22 -5l1 1q-18 -2 -40 -3
q-24 -1 -50.5 -4t-49 -11.5t-38.5 -25t-17 -45.5v-1q0 -16 8 -28t20 -20.5t27 -13t29 -4.5t25.5 2t24.5 7h-1q9 3 19 5.5t22 2.5h1v-1l-24 -500q-1 -8 -15.5 -9.5t-31.5 -1.5t-33 -1t-28.5 -6t-21.5 -15.5t-10 -30.5v-2zM339 849q0 2 0.5 4.5t0.5 4.5v10q0 15 -8 42.5
t-23.5 54t-38.5 46.5t-53 20q-23 0 -36.5 -11t-13.5 -27v-3q0 -17 8 -31t18 -28q5 -8 10 -14.5t7 -14.5q2 -2 2 -5q0 -2 2 -5q3 -11 6.5 -23.5t11.5 -24t21 -19t34 -7.5q14 0 25 4.5t19 10.5z" />
    <glyph glyph-name="Iacute" unicode="&#xcd;" 
d="M40 86q0 -18 9 -31t23 -20.5t30.5 -11t31.5 -3.5q10 0 39 4t66 11t77.5 16t75 19t57 20.5t24.5 20.5v6q0 22 -10 35.5t-25.5 20.5t-34.5 9.5t-38 2.5h-30q-4 0 -7 -0.5t-5 -0.5h-1v1l2 26v46q0 12 0.5 22.5t1.5 21.5l2 29v-1q1 7 1 15v17q4 81 9.5 163t22.5 165h6
q8 0 17 -1t19 -3q19 -3 42 -3h12q4 0 8.5 0.5t6.5 0.5q23 7 27 18.5t5 23.5v8q0 32 -19 50.5t-51 29.5h-9q-4 0 -8 0.5t-9 0.5t-10 0.5t-9 0.5h-15q-4 0 -9.5 -0.5t-10.5 -0.5h-12q-2 0 -9 -1q-7 0 -23 -3t-33.5 -6.5t-33 -7t-20.5 -4.5l1 1q-8 -2 -18 -2.5t-22 -1.5
q-24 -1 -50.5 -4t-49 -11.5t-38.5 -25t-17 -45.5v-1q0 -16 8 -28t20 -20.5t27 -13t29 -4.5t25.5 2.5t24.5 6.5h-1q9 3 19 5.5t22 2.5h1v-1l-24 -500q-1 -8 -15.5 -9.5t-31.5 -1.5t-33 -1t-28.5 -6t-21.5 -15.5t-10 -30.5v-2zM370 1020q-8 5 -19.5 9.5t-25.5 4.5
q-21 0 -33.5 -7.5t-20.5 -18.5t-11.5 -24t-6.5 -23q-2 -4 -2 -7q0 -2 -2 -4q-2 -7 -7.5 -14t-10.5 -15q-10 -14 -18 -27.5t-8 -30.5v-4q0 -15 13.5 -26.5t36.5 -11.5q30 0 53.5 20t39 47t23.5 54t8 42v11q0 2 -0.5 4t-0.5 4z" />
    <glyph glyph-name="Icircumflex" unicode="&#xce;" 
d="M40 86q0 -18 9 -31t23 -20.5t30.5 -11t31.5 -3.5q10 0 39 4t66 11t77.5 16t75 19t57 20.5t24.5 20.5v6q0 22 -10 35.5t-25.5 20.5t-34.5 9.5t-38 2.5q-8 0 -15.5 -0.5t-14.5 -0.5q-4 0 -7 -0.5t-5 -0.5h-1v1l2 27v45q0 13 0.5 23.5t1.5 21.5l2 28v-1q1 8 1 16v16
q4 82 9.5 163.5t22.5 164.5h6q8 0 17 -1t19 -3q19 -3 42 -3h12q4 0 8.5 0.5t6.5 0.5q23 8 27 19t5 23v8q0 32 -19 50.5t-51 29.5h-9q-4 0 -8 0.5t-9 0.5t-10 0.5t-9 0.5h-15q-4 0 -9.5 -0.5t-10.5 -0.5h-12q-2 0 -9 -1h2q-5 0 -21 -3t-34.5 -6.5t-34.5 -7t-22 -4.5l1 1
q-8 -2 -18 -2.5t-22 -1.5q-24 -1 -50.5 -4t-49 -11.5t-38.5 -25t-17 -45.5v-1q0 -16 8 -28t20 -20.5t27 -13t29 -4.5t25.5 2.5t24.5 7.5h-1q9 2 19 4.5t22 2.5h1v-1l-24 -499q-1 -8 -15.5 -9.5t-31.5 -1.5t-33 -1t-28.5 -6t-21.5 -15.5t-10 -30.5v-2zM328 827l-2 2
q4 -8 11.5 -10.5t15.5 -2.5q3 0 5.5 0.5t5.5 0.5h14q14 20 18.5 32.5t4.5 17.5q0 2 -0.5 5.5t-0.5 4.5q-3 5 -8.5 12.5t-8.5 13.5q-8 11 -17 25.5t-17 28.5l2 -6q-2 2 -3 5.5t-3 5.5l2 -1q-3 4 -9.5 10.5t-13 13.5t-13.5 12t-11 5h-9q-1 0 -11 -8t-23.5 -19t-27.5 -22.5
t-22 -19.5q-3 -5 -6 -6q-15 -13 -22 -23.5t-8 -36.5v-18q13 -28 34 -28q17 0 28.5 12t24.5 27q8 9 15 17.5t15 10.5zM280 899l5 -7q-4 2 -5 7zM351 951v-2v2z" />
    <glyph glyph-name="Idieresis" unicode="&#xcf;" 
d="M40 86q0 -18 9 -31t23 -20.5t30.5 -11t31.5 -3.5q10 0 39 4t66 11t77.5 16t75 19t57 20.5t24.5 20.5v6q0 22 -10 35t-25.5 20.5t-34.5 10t-38 2.5q-8 0 -15.5 -0.5t-14.5 -0.5q-4 0 -7 -0.5t-5 -0.5h-1v1l2 27v45q0 12 0.5 23t1.5 21l2 29v-1q1 8 1 15v17q4 81 9.5 163
t22.5 164h6q8 0 17 -1t19 -3q19 -3 42 -3h12q4 0 8.5 0.5t6.5 0.5q23 8 27 19t5 24v7q0 32 -19 50.5t-51 29.5h-9q-4 0 -8 0.5t-9 0.5t-10 0.5t-9 0.5h-15q-4 0 -9.5 -0.5t-10.5 -0.5h-12q-2 0 -9 -1h2q-5 0 -21 -2.5t-34.5 -6.5t-34.5 -7.5t-22 -4.5l1 1q-8 -2 -18 -2.5
t-22 -1.5q-24 -1 -50.5 -4t-49 -11.5t-38.5 -25t-17 -45.5v-1q0 -16 8 -28t20 -20.5t27 -13t29 -4.5t25.5 2.5t24.5 7.5h-1q9 3 19 5.5t22 2.5h1v-1l-24 -500q-1 -8 -15.5 -9t-31.5 -1t-33 -1t-28.5 -6t-21.5 -15.5t-10 -30.5v-2zM133 897v-7q0 -28 17.5 -48t49.5 -20
q14 0 28 8.5t24.5 21t17 27.5t6.5 29v5q0 29 -22.5 45t-50.5 16q-35 0 -52.5 -24t-17.5 -53zM292 898v-7q0 -28 18 -48t50 -20q14 0 27.5 8.5t24.5 21t17.5 27.5t6.5 29v5q0 29 -23 45t-51 16q-17 0 -30 -6.5t-22 -17.5t-13.5 -25t-4.5 -28z" />
    <glyph glyph-name="Eth" unicode="&#xd0;" horiz-adv-x="578" 
d="M-20 392v-6q0 -13 5.5 -22.5t14.5 -16.5t20 -12.5t22 -9.5v-3q-2 -12 -2.5 -24t-1.5 -24l-1 -31q-1 -10 -1 -20v-19v-31l-1 -18q0 -8 -0.5 -15t-0.5 -14q0 -35 5 -55.5t20 -32t41 -15t68 -3.5q72 0 140.5 26.5t122.5 72.5t88.5 106.5t37.5 128.5v-1q1 6 1 12v14
q0 67 -20.5 134t-61 119.5t-101 85.5t-141.5 33h-62q-14 -5 -28.5 -10t-28 -13t-24 -19t-15.5 -26q-2 -60 -7.5 -116.5t-12.5 -113.5q-29 -1 -52 -16.5t-24 -44.5zM166 228q1 26 2.5 50t3.5 48q36 2 72.5 6.5t84.5 12.5q19 11 24 24t7 27q0 27 -21.5 42t-47.5 15h-103
q6 30 12 61t14 65q8 11 15 14t21 3q41 0 72 -21t52 -52.5t32 -69t11 -70.5v-7q-3 -40 -22.5 -77.5t-51 -67t-72.5 -47.5t-86 -18q-3 0 -8.5 0.5t-10.5 1.5l-3 3q0 4 0.5 9t0.5 11v10q0 6 1 11q0 4 0.5 8.5t0.5 7.5z" />
    <glyph glyph-name="Ntilde" unicode="&#xd1;" horiz-adv-x="609" 
d="M53 77q0 -19 15.5 -38t35.5 -19q34 0 47.5 21.5t17.5 45.5q1 11 2.5 34t3.5 52.5t4.5 62t4.5 62t3.5 53t2.5 34.5q0 5 2.5 21.5t4.5 29.5l46 -109h-1q4 -10 13.5 -30t20 -41t20 -39.5t13.5 -25.5v1q2 -3 3.5 -6.5t3.5 -8.5q8 -16 19 -35.5t25.5 -36.5t32 -28.5
t38.5 -11.5q29 0 49 16t33 38.5t20.5 47.5t12.5 43v-1q1 2 1.5 5.5t1.5 5.5l3 27q3 20 6.5 47t7 53.5t6 49t2.5 33.5l1 18v-1q3 31 3 80l2 33l2 27q0 4 0.5 8t0.5 8q1 16 1 32t3 30l2 30q-1 4 -1.5 8.5t-1.5 8.5q-3 15 -6.5 29t-10.5 25t-19.5 17.5t-33.5 6.5q-20 0 -32 -12
t-18.5 -29.5t-9.5 -36.5t-5 -33v2l-2 -10t0 -4q-2 -32 -2.5 -66t-0.5 -66v-64t-2 -65v-26q0 -8 -0.5 -17t-1.5 -19q0 -3 -0.5 -4.5t-1 -4t-1 -8t-0.5 -15.5l-2 -22v-3l-4.5 -18t-1.5 -10q-8 0 -18 13.5t-21 34t-21.5 46t-19 49.5t-15 43.5t-8.5 29.5l-24 80q-2 5 -8 22
t-14 37q-7 19 -13.5 37.5t-8.5 24.5q-20 26 -48.5 44t-63.5 18q-19 0 -31 -10t-19.5 -24t-11 -28.5t-5.5 -24.5q-1 -9 -3.5 -29t-4.5 -43t-4 -43.5t-2 -29.5l-1 -20q0 -8 -0.5 -17.5t-1.5 -19.5q-1 -11 -1.5 -23t-1.5 -24l-1 -34l-5 -76q-2 -35 -3 -68.5t-1 -69.5
q0 -18 0.5 -37.5t1.5 -39.5zM197 811v-5q0 -18 6.5 -25.5t20.5 -7.5q12 0 24 7.5t24 18.5l-1 -1q11 8 22 16.5t20 8.5q6 0 12.5 -5.5t13.5 -11.5q13 -11 26.5 -20t32.5 -9q15 0 30.5 6.5t28.5 19.5t22 33t9 47v9q0 18 -5 28.5t-25 10.5q-12 0 -19.5 -9t-14.5 -22v1
q-5 -8 -10.5 -17t-10.5 -9t-10.5 4.5t-12.5 11.5q-9 9 -20 18.5t-25 11.5h-10q-2 0 -4.5 0.5t-6.5 0.5q-14 0 -33.5 -6t-38 -19t-32 -34t-13.5 -52z" />
    <glyph glyph-name="Ograve" unicode="&#xd2;" horiz-adv-x="841" 
d="M36 286v-13q0 -61 21.5 -108t59.5 -79.5t90 -49t113 -16.5q93 0 180.5 31.5t156.5 88t113 134.5t50 170q0 4 0.5 8.5t0.5 9.5q0 63 -23.5 116.5t-64.5 92t-97 60.5t-121 22q-62 0 -120.5 -19t-111 -51.5t-97 -77.5t-77 -96.5t-51.5 -108.5t-22 -114zM483 633q43 0 79 -19
t62 -50t41 -69.5t15 -77.5v-6q-2 -51 -31.5 -98.5t-75 -84.5t-101 -59t-107.5 -22q-39 0 -72 11t-57 31t-37.5 49.5t-13.5 67.5v12q2 46 29.5 101t70 102.5t95 79.5t103.5 32zM545 808q0 2 0.5 4.5t0.5 4.5v11q0 15 -8 42t-24 53.5t-40 46.5t-55 20q-24 0 -38 -11t-14 -26
v-4q0 -17 8.5 -31t18.5 -28q5 -7 10.5 -14t7.5 -15q2 -2 2 -4t2 -6q3 -11 7 -23.5t12 -23.5t21.5 -18.5t34.5 -7.5q14 0 25.5 4t20.5 10z" />
    <glyph glyph-name="Oacute" unicode="&#xd3;" horiz-adv-x="841" 
d="M36 286v-13q0 -61 21.5 -108t59.5 -79.5t90 -49t113 -16.5q93 0 180.5 31.5t156.5 88t113 134t50 169.5q0 5 0.5 9.5t0.5 9.5q0 63 -23.5 116.5t-64.5 92t-97 60.5t-121 22q-62 0 -120.5 -19t-111 -51.5t-97 -77.5t-77 -96.5t-51.5 -108.5t-22 -114zM483 633q43 0 79 -19
t62 -50t41 -69.5t15 -77.5v-6q-2 -51 -31.5 -98.5t-75 -84.5t-101 -59t-107.5 -22q-39 0 -72 11t-57 31t-37.5 49.5t-13.5 67.5v12q2 46 29.5 101t70 102.5t95 79.5t103.5 32zM565 971q-8 5 -19.5 9.5t-25.5 4.5q-22 0 -35.5 -7.5t-21.5 -18.5t-12 -24t-7 -23q-2 -4 -2 -7
q0 -2 -1 -4q-2 -7 -7.5 -14t-10.5 -14q-11 -15 -19 -28.5t-8 -30.5v-4q0 -15 14 -26t37 -11q31 0 55 20t40.5 46.5t24.5 53.5t8 42v11q0 2 -0.5 4t-0.5 4z" />
    <glyph glyph-name="Ocircumflex" unicode="&#xd4;" horiz-adv-x="841" 
d="M36 286v-14q0 -61 21.5 -108t59.5 -79t90 -48.5t113 -16.5q62 0 122 14t114.5 40.5t101 64.5t81.5 85t56 102.5t25 116.5q0 5 0.5 9t0.5 9q0 63 -23.5 116.5t-64.5 92t-97 60.5t-121 22q-62 0 -120.5 -19t-111 -51.5t-97 -77.5t-77 -96.5t-51.5 -108t-22 -113.5zM483 632
q43 0 79 -19t62 -49.5t41 -69.5t15 -78v-6q-2 -51 -31.5 -98t-75 -84t-101 -59t-107.5 -22q-39 0 -72 11t-57 31t-37.5 49.5t-13.5 67.5v11q2 46 29.5 101t70 102.5t95 79.5t103.5 32zM547 786l-2 2q4 -7 12 -10t16 -3q3 0 5.5 0.5t5.5 0.5h15q14 20 18.5 32.5t4.5 18.5
q0 2 -0.5 5t-0.5 4q-3 5 -8.5 13t-9.5 13q-17 25 -34 54l2 -6q-2 2 -3.5 5.5t-3.5 5.5l2 -1q-3 4 -9 10.5t-13 13.5t-14 12t-11 5h-10q-2 0 -12.5 -8t-24 -19t-27.5 -22.5t-22 -19.5q-2 -2 -4 -3.5t-4 -3.5l1 1q-15 -13 -22.5 -23.5t-8.5 -35.5v-19q13 -27 35 -27
q17 0 29.5 11.5t25.5 26.5q8 10 15.5 18t14.5 10zM498 858l4 -7q-1 2 -2 3.5t-2 3.5zM571 910v-2v2z" />
    <glyph glyph-name="Otilde" unicode="&#xd5;" horiz-adv-x="841" 
d="M36 285v-13q0 -61 21.5 -108t59.5 -79t90 -48.5t113 -16.5q62 0 122 14t114.5 40.5t101 64.5t81.5 85t56 102t25 116q0 5 0.5 9.5t0.5 9.5q0 63 -23.5 116t-64.5 91.5t-97 60.5t-121 22q-62 0 -120.5 -19t-111 -51.5t-97 -77.5t-77 -96.5t-51.5 -108t-22 -113.5zM483 631
q43 0 79 -19t62 -49.5t41 -69t15 -77.5v-6q-2 -51 -31.5 -98.5t-75 -84t-101 -59t-107.5 -22.5q-39 0 -72 11t-57 31.5t-37.5 50t-13.5 66.5v12q1 31 14 66t35 70t50.5 67t61.5 57t68 39.5t69 14.5zM348 812v-5q0 -18 7 -25.5t21 -7.5q12 0 24.5 7.5t24.5 18.5l-1 -1
q11 8 22.5 16.5t20.5 8.5q6 0 12.5 -5.5t14.5 -11.5q13 -11 26.5 -20t33.5 -9q15 0 31 6.5t29.5 19.5t22.5 33t9 47v9q0 18 -5.5 28.5t-24.5 10.5q-13 0 -20.5 -9t-15.5 -22v1q-5 -8 -10.5 -17t-10.5 -9t-11 4.5t-12 11.5q-10 9 -21.5 18.5t-25.5 11.5h-9q-2 0 -5 0.5
t-7 0.5q-14 0 -34.5 -6t-39 -19t-32.5 -34t-14 -52z" />
    <glyph glyph-name="Odieresis" unicode="&#xd6;" horiz-adv-x="841" 
d="M36 285v-13q0 -61 21.5 -108t59.5 -79t90 -48.5t113 -16.5q62 0 122 14t114.5 40.5t101 64.5t81.5 85t56 102.5t25 116.5q0 4 0.5 8.5t0.5 9.5q0 63 -23.5 116t-64.5 91.5t-97 60.5t-121 22q-62 0 -120.5 -19t-111 -51.5t-97 -77.5t-77 -96.5t-51.5 -108t-22 -113.5z
M483 631q43 0 79 -19t62 -49.5t41 -69t15 -77.5v-6q-2 -51 -31.5 -98.5t-75 -84t-101 -59t-107.5 -22.5q-39 0 -72 11t-57 31.5t-37.5 50t-13.5 67.5v11q1 31 14 66t35 70t50.5 67t61.5 57t68 39.5t69 14.5zM358 858v-7q0 -28 18.5 -47.5t50.5 -19.5q15 0 29 8t25 21
t18 27.5t7 28.5v5q0 29 -23.5 45t-52.5 16q-35 0 -53 -24t-19 -53zM522 859v-7q0 -28 19 -47.5t51 -19.5q15 0 29 8t25 21t18 27.5t7 28.5v5q0 29 -23.5 45t-52.5 16q-36 0 -54 -24t-19 -53z" />
    <glyph glyph-name="multiply" unicode="&#xd7;" horiz-adv-x="454" 
d="M78 323l-13 -15q-5 -8 -8 -15.5t-3 -16.5q0 -20 17 -34q16 -16 36 -16q24 0 45.5 20t41.5 42q11 13 21 23.5t18 14.5q7 -2 21.5 -14t33.5 -27q26 -23 51.5 -41.5t44.5 -18.5q16 0 24 12l-1 -1q17 22 22 33.5t5 16.5q0 6 -0.5 7.5t-5.5 6.5q-1 1 -7 9t-6 10l-98 87
q9 11 18.5 19.5t20.5 16.5l-1 -1q15 11 28.5 23.5t23.5 28.5l11 17v12q0 24 -16 38q-18 15 -35 15q-22 0 -41 -13.5t-33 -24.5l-2 -2v1q-3 -3 -11.5 -10.5t-18 -16.5t-18.5 -17.5t-13 -12.5h-1q-10 0 -22.5 10.5t-26.5 24.5q-17 17 -35.5 31.5t-38.5 14.5q-22 0 -39 -21
q-4 -8 -6.5 -14.5t-2.5 -12.5q0 -23 17 -40l75 -67v-1h1l-7 -8q-7 -10 -16 -19.5t-18 -18.5t-17 -17.5t-16 -17.5h1z" />
    <glyph glyph-name="Oslash" unicode="&#xd8;" horiz-adv-x="840" 
d="M36 283v-14q0 -91 47 -149.5t124 -83.5q3 -14 14 -24t31 -10q17 0 29.5 5t23.5 13h15q93 0 180.5 31.5t156.5 87t113 132t50 167.5v18q0 71 -30.5 130t-84.5 98q0 1 0.5 1.5t0.5 2.5v7q0 26 -12 38.5t-44 12.5q-16 0 -37 -16q-48 14 -98 14q-62 0 -120.5 -18.5t-111 -51
t-97 -76.5t-77 -95.5t-51.5 -107.5t-22 -112zM483 625q16 0 33 -3q-35 -47 -72.5 -104.5t-73.5 -117.5t-68 -118t-54 -106q-30 19 -46.5 51t-16.5 75v12q2 46 29.5 100t70 101t95 78.5t103.5 31.5zM383 145l32.5 58.5t35.5 63t35.5 61t31 53t22.5 39t11 18.5l-2 -2l12 16
t20 28.5t24 34.5t24 35q24 -29 37.5 -65t13.5 -73v-6q-2 -48 -29.5 -93.5t-70 -81.5t-94.5 -59t-103 -27z" />
    <glyph glyph-name="Ugrave" unicode="&#xd9;" horiz-adv-x="520" 
d="M44 365q-1 -17 -2 -37.5t-1 -43.5q0 -44 5.5 -90.5t22.5 -85t48.5 -63.5t84.5 -25q55 0 100 20.5t79 54.5t57 79t36 94q2 23 3.5 43.5t3.5 40.5v-1q5 59 9 111t7 113l1 40v-1q1 9 1.5 19t0.5 18q0 9 -0.5 18t-0.5 20q0 8 -0.5 19t-0.5 22q-16 42 -60 42q-29 0 -47.5 -15
t-20.5 -41l-2 -17q0 -8 -1 -17.5t-3 -19.5v-20q-1 -11 -1 -21v-19v-28q0 -13 1 -26t1 -26v-27v-20q0 -9 -1 -19q-1 -17 -4.5 -45.5t-9.5 -61t-16 -66t-24.5 -60t-35 -43.5t-47.5 -17q-18 0 -29 13.5t-17 34t-8.5 45t-2.5 46.5v62q1 5 2 12.5t1 12.5l1 3q1 11 4 32.5
t7.5 47.5t9.5 54.5t10 54.5t9 46.5t7 29.5v-1l3 12q0 12 -2.5 23.5t-8.5 20.5t-16 15t-26 6q-21 0 -34.5 -12t-23.5 -24q-15 -44 -27 -84.5t-20.5 -80.5t-14 -81t-7.5 -86zM369 790q0 2 0.5 4t0.5 4v11q0 15 -8 42t-23.5 53.5t-39 46.5t-53.5 20q-23 0 -36 -11t-13 -26v-4
q0 -17 8 -31t17 -28q5 -7 10.5 -14t7.5 -15q2 -2 2 -4t2 -6q3 -11 6.5 -23.5t11.5 -23.5t20.5 -18.5t33.5 -7.5q14 0 25 4.5t19 9.5z" />
    <glyph glyph-name="Uacute" unicode="&#xda;" horiz-adv-x="520" 
d="M44 365q-1 -17 -2 -37.5t-1 -43.5q0 -44 5.5 -90.5t22.5 -85t48.5 -63.5t84.5 -25q55 0 100 20.5t79 54.5t57 78.5t36 93.5q2 23 3.5 44t3.5 41v-1q5 59 9 111t7 112l1 41v-1q1 9 1.5 19t0.5 18q0 9 -0.5 18t-0.5 20q0 8 -0.5 19t-0.5 22q-16 42 -60 42q-29 0 -47.5 -15
t-20.5 -42l-2 -16q0 -8 -1 -17.5t-3 -19.5v-20q-1 -11 -1 -21v-20v-27q0 -13 1 -26q1 -14 1 -27v-26v-20t-1 -19q-1 -18 -4.5 -46.5t-9.5 -61t-16 -65.5t-24.5 -59.5t-35 -43.5t-47.5 -17q-18 0 -29 13.5t-17 34t-8.5 45t-2.5 46.5v61q1 6 2 13.5t1 12.5l1 3q1 11 4 32.5
t7.5 47.5t9.5 54.5t10 54.5t9 46.5t7 29.5v-1l3 12q0 12 -2.5 23.5t-8.5 20.5t-16 15t-26 6q-21 0 -34.5 -12t-23.5 -25q-30 -87 -47.5 -165t-21.5 -166zM391 948q-8 5 -19 9.5t-25 4.5q-21 0 -34 -7.5t-21 -18.5t-11.5 -24t-6.5 -23q-2 -4 -2 -6t-2 -4q-2 -8 -7 -15
l-10 -14q-10 -14 -18 -28t-8 -31v-4q0 -15 13.5 -26t36.5 -11q30 0 53 20t38.5 46.5t23.5 53.5t8 42v11q0 2 -0.5 4t-0.5 4z" />
    <glyph glyph-name="Ucircumflex" unicode="&#xdb;" horiz-adv-x="520" 
d="M44 365q-1 -17 -2 -38t-1 -43q0 -44 5.5 -90.5t22.5 -85t48.5 -63.5t84.5 -25q55 0 100 20.5t79 54.5t57 78.5t36 93.5q2 23 3.5 44t3.5 41v-1q5 58 9 110t7 113l1 40v-1q1 10 1.5 19.5t0.5 18.5q0 8 -0.5 17t-0.5 20q0 8 -0.5 19t-0.5 22q-16 42 -60 42q-29 0 -47.5 -15
t-20.5 -41l-2 -16q0 -9 -1 -18t-3 -20v-20q-1 -10 -1 -20v-20v-27t1 -27t1 -26v-27v-19t-1 -20q-1 -17 -4.5 -45.5t-9.5 -61t-16 -65.5t-24.5 -59.5t-35 -43.5t-47.5 -17q-18 0 -29 13.5t-17 33.5t-8.5 44.5t-2.5 47.5v61q1 6 2 13t1 13l1 3q1 11 4 32t7.5 47.5t9.5 55
t10 54t9 46t7 29.5v-1l3 12q0 24 -11 44.5t-42 20.5q-21 0 -34.5 -12t-23.5 -24q-30 -87 -47.5 -165t-21.5 -166zM337 769l-1 1q3 -7 10.5 -10t15.5 -3q3 0 6 0.5t5 0.5h14q14 20 18.5 32.5t4.5 18.5q0 2 -0.5 5t-0.5 4q-3 5 -8.5 13t-8.5 13q-8 12 -16.5 26t-16.5 28l1 -6
q-1 2 -2.5 5.5t-3.5 5.5l2 -1q-3 4 -9 10.5t-13 13.5t-13.5 12t-10.5 5h-9q-2 0 -12 -8t-23.5 -19t-27 -22.5t-21.5 -19.5q-2 -2 -4 -3.5t-3 -3.5v1q-14 -13 -21 -23.5t-8 -35.5v-18q11 -28 33 -28q17 0 29 11.5t24 26.5q8 10 15.5 18t14.5 10zM290 840l4 -7q-4 4 -4 7z
M360 892v-2v2z" />
    <glyph glyph-name="Udieresis" unicode="&#xdc;" horiz-adv-x="520" 
d="M44 365q-1 -17 -2 -38t-1 -43q0 -44 5.5 -90.5t22.5 -85t48.5 -63.5t84.5 -25q55 0 100 20.5t79 54.5t57 78.5t36 93.5q2 23 3.5 44t3.5 41v-1q5 58 9 110t7 113l1 40v-1q1 10 1.5 19.5t0.5 18.5q0 8 -0.5 17t-0.5 20q0 8 -0.5 19t-0.5 22q-16 42 -60 42q-29 0 -47.5 -15
t-20.5 -41l-2 -16q0 -9 -1 -18t-3 -20v-20q-1 -10 -1 -20v-20v-27t1 -27t1 -26v-27v-19t-1 -20q-1 -17 -4.5 -45.5t-9.5 -61t-16 -65.5t-24.5 -59.5t-35 -43.5t-47.5 -17q-18 0 -29 13.5t-17 33.5t-8.5 44.5t-2.5 47.5v61q1 6 2 13t1 13l1 3q1 11 4 32t7.5 47.5t9.5 55
t10 54t9 46t7 29.5v-1l3 12q0 24 -11 44.5t-42 20.5q-21 0 -34.5 -12t-23.5 -24q-30 -87 -47.5 -165t-21.5 -166zM151 865v-7q0 -28 17.5 -47.5t49.5 -19.5q14 0 28 8t24.5 21t17 27.5t6.5 28.5v5q0 29 -23 45t-50 16q-17 0 -30 -6.5t-22 -17.5t-13.5 -25t-4.5 -28zM310 866
v-7q0 -28 18 -47.5t49 -19.5q14 0 28 8t24.5 21t17 27.5t6.5 28.5v5q0 29 -22.5 45t-50.5 16q-17 0 -30 -6.5t-22 -17.5t-13.5 -25t-4.5 -28z" />
    <glyph glyph-name="Yacute" unicode="&#xdd;" 
d="M104 89q0 -11 2 -23t8 -22.5t17.5 -17t29.5 -6.5q28 0 52 16t28 45q7 40 14.5 75.5t16.5 69t21.5 67.5t30.5 71l-1 -1q8 13 24.5 42.5t36.5 66.5q13 25 27.5 51.5t27.5 49.5t24 41.5t18 28.5q13 23 16.5 41.5t6.5 38.5v7q0 22 -10 37.5t-41 15.5q-23 0 -38.5 -9.5
t-26.5 -24.5t-18.5 -33t-13.5 -35q-8 -20 -10 -27q-4 -6 -11 -19t-16.5 -28.5t-19.5 -33.5t-20 -34v1q-16 -27 -29.5 -51.5t-19.5 -34.5q0 1 -4 1h-8h-3q-22 0 -32 7.5t-15 24.5v36l1 9q1 22 5.5 41t9.5 38q5 20 10 38.5t7 37.5v3q0 23 -15 43.5t-44 20.5q-34 0 -54.5 -20.5
t-31.5 -50.5t-15.5 -63.5t-5.5 -59.5v1l-3 -30v-10q0 -27 7.5 -50t19.5 -43t26 -37t27 -31q11 -12 19 -21.5t8 -11.5q-1 -26 -6.5 -56t-11.5 -59t-10.5 -59t-6.5 -63v-1zM374 975q-8 5 -19 9.5t-25 4.5q-21 0 -34 -7.5t-20.5 -18.5t-11.5 -24t-7 -23q-2 -4 -2 -7q0 -2 -2 -4
q-2 -7 -7 -14l-10 -14q-10 -15 -18 -28.5t-8 -30.5v-4q0 -15 13.5 -26t36.5 -11q30 0 53 20t38.5 46.5t23.5 53.5t8 42v11q0 2 -0.5 4t-0.5 4z" />
    <glyph glyph-name="Thorn" unicode="&#xde;" horiz-adv-x="604" 
d="M101 753q-3 -66 -13.5 -143t-22.5 -158q-12 -80 -22.5 -158t-14.5 -150l-2 -73q8 -34 22 -42.5t43 -8.5q26 0 44 15t22 39v-1q1 4 1 8t1 8v-1q0 3 2 13l12 23l9.5 4t24 9.5t32 12.5t34.5 13q22 8 38.5 14.5t28.5 12.5l-1 -1q40 21 82.5 51.5t77.5 68t58.5 81.5t26.5 91
v12q0 46 -20 79t-53 54t-76 31t-88 10q-17 0 -50.5 -4t-71.5 -12q1 13 1.5 23t0.5 18l2 20q0 14 -4 29.5t-12 28t-21.5 21t-32.5 8.5q-20 0 -30.5 -8t-24.5 -28zM220 467l-1 -1q1 2 1.5 4t-0.5 0q5 21 19 33t33 19t41.5 9t43.5 2q35 0 55 -8.5t20 -37.5v-8
q-1 -32 -25.5 -67.5t-60.5 -66t-77.5 -51.5t-77.5 -23q2 31 5.5 60.5t8 55t8.5 46.5t7 34z" />
    <glyph glyph-name="germandbls" unicode="&#xdf;" horiz-adv-x="1067" 
d="M33 224v-10q0 -54 22 -91t58.5 -60t85 -33t102.5 -10q66 0 118 20.5t90 57.5q35 -48 98.5 -68.5t137.5 -20.5q72 0 127.5 24t93.5 64.5t58.5 93.5t22.5 112v8q0 44 -24.5 75t-62 53.5t-83 37.5t-86.5 27q-44 13 -74 23.5t-30 17.5v1v4q37 35 79 61.5t94 26.5
q13 0 23.5 -3.5t20.5 -8.5q13 -6 25.5 -10.5t28.5 -4.5q26 0 41 16.5t17 38.5v5q0 24 -13.5 44.5t-34.5 35t-46.5 22.5t-49.5 8q-29 0 -65 -11t-73.5 -30t-73 -44t-63.5 -53.5t-46 -58.5t-20 -58v-5q0 -30 15.5 -50t42 -34t60 -23t69.5 -18q35 -8 68.5 -17t60 -22.5
t43 -33.5t16.5 -49v-6q-4 -68 -47.5 -103t-118.5 -35q-42 0 -68.5 11.5t-42 28t-23 36t-11.5 35.5l1 -1q-1 2 -2 4.5t-2 4.5q8 30 10 65v9q0 44 -24.5 75t-62 53t-82.5 37.5t-87 27.5q-44 13 -74 23t-30 18v1v3q18 17 38 33t41 28.5t44.5 20t49.5 7.5q14 0 24 -4t21 -9
q12 -5 24.5 -10t29.5 -5q26 0 40.5 16.5t16.5 38.5v5q0 25 -13.5 45.5t-34.5 35t-46.5 22.5t-48.5 8q-29 0 -65 -11t-73.5 -30t-73.5 -44t-64 -53.5t-46 -58.5t-20 -58v-5q0 -30 16 -50.5t42 -34.5t60 -23t70 -18q34 -8 68 -17t60.5 -22.5t43 -33.5t16.5 -49v-5
q-4 -69 -48 -103.5t-119 -34.5q-30 0 -49 7t-31 18.5t-19.5 25t-13.5 26.5t-12.5 25.5t-15.5 21.5t-21.5 14.5t-30.5 5.5q-69 0 -69 -62z" />
    <glyph glyph-name="agrave" unicode="&#xe0;" horiz-adv-x="525" 
d="M399 814q0 2 0.5 4.5t0.5 4.5v11q0 15 -8 42t-23.5 53.5t-38.5 46.5t-54 20q-23 0 -36 -11t-13 -26v-4q0 -17 8 -31t17 -28q5 -7 10.5 -14t7.5 -15q2 -2 2 -4t2 -6q2 -9 5.5 -20.5t9.5 -22t16 -18.5t26 -11q-17 -3 -34 -13.5t-32 -23.5t-27.5 -26t-20.5 -21l-6 -7
q-52 -51 -85 -116.5t-53 -137t-29 -143t-12 -134.5v-24q0 -14 2 -28t8 -26t18 -19.5t32 -7.5q33 0 55 30q4 8 4.5 15t0.5 17t0.5 23t1.5 25t2 21.5t1 14.5q1 7 2 14.5t6 9.5q42 7 84 11.5t85 4.5q1 0 4 -0.5t7 -0.5v-8q0 -5 0.5 -12t0.5 -15q1 -8 1 -17v-18v-46v-11
q0 -5 -2 -11v-18t-1 -16q0 -4 -0.5 -7t-0.5 -5l1 -4q6 -25 14.5 -30t26.5 -5h12q25 0 39 10t21.5 26t10.5 34.5t5 35.5q0 4 1 6v-1q1 5 1 11v12q0 11 -0.5 23t-1.5 23q-1 9 -1 18v19v20l4 26v2q15 12 21 21t8 29v5q0 18 -7 30t-17 23v-1q-5 5 -9 9.5t-6 11.5v-2
q-1 9 -3 27.5t-4.5 39.5t-4 39.5t-1.5 26.5q0 1 -0.5 2.5t-0.5 3.5q-1 11 -1.5 23.5t-0.5 28.5q0 28 -4 58t-14 56t-27.5 45t-44.5 24q9 2 16.5 5t14.5 8zM326 610q4 0 6.5 -15.5t4 -38t2 -49t0.5 -48.5v-58q-2 -5 -2 -10v-9v-16q-8 -8 -23.5 -12t-33 -5.5t-34.5 -2
t-27 -0.5h-21q-6 0 -10.5 1.5t-5.5 6.5q1 10 8.5 33t19 51.5t26 58.5t30 55.5t31 41.5t29.5 16z" />
    <glyph glyph-name="aacute" unicode="&#xe1;" horiz-adv-x="525" 
d="M344 55q6 -25 14.5 -30t26.5 -5h12q25 0 39 10t21.5 26t10.5 34.5t5 35.5q0 4 1 6v-1q1 5 1 11v13q0 11 -0.5 22.5t-1.5 22.5q-1 9 -1 18v19v20l4 26v2q15 12 21 21t8 29v5q0 18 -7 30t-17 23v-1q-5 5 -9 9.5t-6 11.5v-2q-1 9 -3 27.5t-4.5 39.5t-4 39.5t-1.5 26.5
q0 2 -0.5 3t-0.5 3q-1 11 -1.5 23.5t-0.5 28.5q0 30 -4.5 62.5t-16.5 60t-32.5 45t-52.5 17.5q-18 0 -37 -10t-36 -23.5t-31 -28.5t-23 -24l-6 -7q-52 -51 -85 -116.5t-53 -137t-29 -143t-12 -134.5v-24q0 -14 2 -28t8 -26t18 -19.5t32 -7.5q33 0 55 30q4 8 4.5 15t0.5 17
t0.5 23t1.5 25t2 21.5t1 14.5q1 7 2 14.5t6 9.5q42 7 84 11.5t85 4.5q1 0 4 -0.5t7 -0.5v-8q0 -5 0.5 -12t0.5 -15q1 -8 1 -17v-18v-46v-11q0 -5 -2 -11v-18t-1 -16q0 -4 -0.5 -7t-0.5 -5zM326 610q4 0 6.5 -15.5t4 -38t2 -49t0.5 -48.5v-58q-2 -5 -2 -10v-9v-16
q-8 -8 -23.5 -12t-33 -5.5t-34.5 -2t-27 -0.5h-21q-6 0 -10.5 1.5t-5.5 6.5q1 10 8.5 33t19 51.5t26 58.5t30 55.5t31 41.5t29.5 16zM428 986q-8 5 -19.5 9.5t-25.5 4.5q-21 0 -33.5 -7.5t-20.5 -18.5t-11.5 -24t-6.5 -23q-2 -4 -2 -7q0 -2 -2 -4q-2 -7 -7.5 -14t-10.5 -14
q-10 -15 -18 -28.5t-8 -30.5v-4q0 -15 13.5 -26t36.5 -11q30 0 53.5 20t39 46.5t23.5 53.5t8 42v11q0 2 -0.5 4t-0.5 4z" />
    <glyph glyph-name="acircumflex" unicode="&#xe2;" horiz-adv-x="525" 
d="M344 55q6 -25 14.5 -30t26.5 -5h12q25 0 39 10t21.5 25.5t10.5 34.5t5 36q0 4 1 6v-1q1 5 1 11v12q0 11 -0.5 22.5t-1.5 22.5q-1 10 -1 19v19v20l4 26v2q15 11 21 20.5t8 29.5v5q0 18 -7 29.5t-17 22.5v-1q-5 5 -9 10t-6 11v-1q-1 9 -3 27.5t-4.5 39.5t-4 39t-1.5 26
q0 2 -0.5 3.5t-0.5 3.5q-1 10 -1.5 22.5t-0.5 29.5q0 30 -4.5 62.5t-16.5 59.5t-32.5 44.5t-52.5 17.5q-18 0 -37 -10t-36 -23.5t-31 -28.5t-23 -24l-6 -6q-52 -51 -85 -117t-53 -137t-29 -142.5t-12 -134.5v-24q0 -14 2 -28t8 -26t18 -19.5t32 -7.5q33 0 55 30q4 8 4.5 15
t0.5 17t0.5 23t1.5 25t2 21.5t1 14.5l2 14t6 10q42 7 84 11.5t85 4.5q1 0 4 -0.5t7 -0.5v-8q0 -6 0.5 -12.5t0.5 -14.5q1 -8 1 -17v-18v-46v-11q0 -5 -2 -12v-18q0 -9 -1 -15q0 -4 -0.5 -7t-0.5 -5zM326 609q4 0 6.5 -15.5t4 -38t2 -48.5t0.5 -48v-58q-2 -5 -2 -10v-9v-17
q-8 -8 -23.5 -12t-33 -5.5t-34.5 -2t-27 -0.5h-21q-6 0 -10.5 2t-5.5 7q1 10 8.5 32.5t19 51t26 58.5t30 55.5t31 41.5t29.5 16zM387 795l-2 2q4 -7 11.5 -10t15.5 -3q3 0 5.5 0.5t5.5 0.5h14q14 20 18.5 32.5t4.5 18.5q0 2 -0.5 5t-0.5 4q-4 5 -9 13t-8 13q-9 12 -17.5 26
t-16.5 28l2 -6q-2 2 -3 5.5t-3 5.5l2 -1q-3 4 -9.5 10.5l-13.5 13.5t-13.5 12t-10.5 5h-9q-1 0 -11.5 -8t-24 -19t-27 -22.5t-21.5 -19.5q-2 -2 -3 -3.5t-3 -2.5q-15 -13 -22 -23.5t-8 -35.5v-19q13 -27 33 -27q18 0 29.5 11.5t24.5 26.5q8 9 15 17.5t15 10.5zM339 867l5 -7
q-4 4 -5 7zM410 919v-2v2z" />
    <glyph glyph-name="atilde" unicode="&#xe3;" horiz-adv-x="525" 
d="M344 55q6 -25 14.5 -30t26.5 -5h12q25 0 39 10t21.5 25.5t10.5 34t5 35.5q0 5 1 7v-1q1 5 1 11v12q0 11 -0.5 22.5t-1.5 22.5q-1 10 -1 19v19v20l4 26v2q15 11 21 20.5t8 28.5v5q0 18 -7 30t-17 23v-1q-5 5 -9 9.5t-6 11.5v-2q-1 9 -3 27.5t-4.5 39.5t-4 39t-1.5 26
q0 2 -0.5 3.5t-0.5 3.5q-1 11 -1.5 23.5t-0.5 28.5q0 30 -4.5 62.5t-16.5 59.5t-32.5 44.5t-52.5 17.5q-18 0 -37 -10t-36 -23.5t-31 -28t-23 -23.5l-6 -7q-52 -51 -85 -116.5t-53 -136.5t-29 -142.5t-12 -134.5v-24q0 -14 2 -28.5t8 -26t18 -19t32 -7.5q33 0 55 30
q4 8 4.5 15t0.5 17t0.5 23t1.5 25t2 21.5t1 14.5l2 14t6 10q42 7 84 11t85 4q1 0 4 -0.5t7 -0.5v-7q0 -6 0.5 -13t0.5 -14q1 -9 1 -18v-18v-46v-10t-2 -12v-18q0 -9 -1 -15q0 -4 -0.5 -7t-0.5 -5zM187 826v-5q0 -19 6.5 -26t20.5 -7q11 0 23.5 7.5t24.5 18.5l-1 -1
q11 8 21.5 16.5t19.5 8.5q6 0 12.5 -5.5t13.5 -11.5q13 -11 26 -20t32 -9q15 0 30.5 6.5t28.5 19.5t22 33t9 47v9q0 18 -5.5 28.5t-24.5 10.5q-12 0 -19.5 -9t-14.5 -22v1q-5 -8 -10.5 -17t-10.5 -9t-10.5 4.5t-11.5 11.5q-9 9 -20.5 18.5t-25.5 11.5h-9q-2 0 -4.5 0.5
t-6.5 0.5q-14 0 -33.5 -6t-37.5 -19t-31.5 -34t-13.5 -52zM326 609q4 0 6.5 -15.5t4 -38t2 -49t0.5 -48.5v-57q-2 -5 -2 -10v-10v-16q-8 -8 -23.5 -12t-33 -5.5t-34.5 -2t-27 -0.5h-21q-6 0 -10.5 2t-5.5 7q1 10 8.5 32.5t19 51t26 58.5t30 55.5t31 41.5t29.5 16z" />
    <glyph glyph-name="adieresis" unicode="&#xe4;" horiz-adv-x="526" 
d="M344 55q6 -25 14.5 -30t26.5 -5h12q25 0 39 10t21.5 25.5t10.5 34t5 35.5q0 5 1 7v-1q1 5 1 11v12q0 11 -0.5 22.5t-1.5 22.5q-1 10 -1 19v19v20l4 26v2q15 11 21 20t8 29v5q0 18 -7 30t-17 23v-1q-5 5 -9 9.5t-6 11.5v-2q-1 9 -3 27.5t-4.5 39.5t-4 39t-1.5 26
q0 2 -0.5 3.5t-0.5 3.5q-1 10 -1.5 23t-0.5 29q0 30 -4.5 62.5t-16 59.5t-32 44.5t-53.5 17.5q-18 0 -37 -10t-36 -23.5t-31 -28t-23 -23.5l-6 -7q-51 -51 -84.5 -116.5t-53 -136.5t-29 -142.5t-12.5 -134.5v-24q0 -14 2 -28.5t8 -26t18 -19t32 -7.5q33 0 55 30q4 8 4.5 15
t0.5 17t0.5 23t1.5 25t2 21.5t1 14.5l2 14t6 10q42 7 84 11t85 4q1 0 4 -0.5t7 -0.5v-7q0 -6 0.5 -13t0.5 -14q1 -9 1 -18v-18v-46v-10t-2 -12v-18q0 -9 -1 -15q0 -4 -0.5 -7t-0.5 -5zM326 608q4 0 6.5 -15.5t4 -38t2 -48.5t0.5 -48v-58q-2 -5 -2 -10v-9v-16
q-8 -8 -23.5 -12t-33 -5.5t-34.5 -2t-27 -0.5h-21q-6 0 -10.5 2t-5.5 7q1 10 8.5 32.5t19 50.5t26 58.5t30 55.5t31 41t29.5 16zM203 863v-7q0 -28 17.5 -47.5t49.5 -19.5q14 0 28 8t25 21t17.5 27.5t6.5 28.5v5q0 29 -23 45t-51 16q-17 0 -30 -6.5t-22 -17.5t-13.5 -25
t-4.5 -28zM362 864v-7q0 -28 18 -47.5t50 -19.5q14 0 27.5 8t24.5 21t17.5 27.5t6.5 28.5v5q0 29 -23 45t-51 16q-17 0 -30 -6.5t-22 -17.5t-13.5 -25t-4.5 -28z" />
    <glyph glyph-name="aring" unicode="&#xe5;" horiz-adv-x="525" 
d="M344 54q6 -24 14.5 -29t26.5 -5h12q25 0 39 10t21.5 25.5t10.5 33.5t5 35q0 5 1 7v-1q1 5 1 10v13q0 11 -0.5 22.5t-1.5 22.5q-1 9 -1 18v19v20l4 25v2q15 11 21 20.5t8 29.5v4q0 18 -7 30t-17 23v-1q-5 5 -9 9.5t-6 11.5v-2q-1 8 -3 27t-4.5 39.5t-4 38.5t-1.5 26
q0 2 -0.5 3t-0.5 3q-1 11 -1.5 23.5t-0.5 28.5q0 30 -4.5 62t-16.5 58.5t-32.5 44t-52.5 17.5q-18 0 -37 -10t-36 -23.5t-31 -27.5l-23 -23l-6 -7q-52 -51 -85 -116t-53 -135t-29 -141t-12 -133v-24q0 -14 2 -28t8 -25.5t18 -19t32 -7.5q34 0 55 29q4 8 4.5 15t0.5 17
t0.5 22.5t1.5 24.5t2 21.5t1 14.5l2 14t6 10q42 7 84 11t85 4q1 0 4 -0.5t7 -0.5v-7q0 -6 0.5 -12.5t0.5 -14.5q1 -8 1 -17v-18v-46v-10t-2 -11v-18t-1 -16q0 -3 -0.5 -6t-0.5 -5zM326 603q4 0 6.5 -15t4 -37.5t2 -48.5t0.5 -48v-57q-2 -5 -2 -10v-9v-16q-8 -8 -23.5 -12
t-33 -5.5t-34.5 -2t-27 -0.5h-21q-6 0 -10.5 2t-5.5 7q1 10 8.5 32.5t19 50.5t26 58t30 54.5t31 40.5t29.5 16zM498 862v2q0 19 -6 37t-17 32t-28.5 23t-39.5 9q-31 0 -54.5 -14t-39 -35.5t-24 -47t-9.5 -49.5v-7q0 -32 21 -54t54 -22q29 0 54.5 10t44.5 27t30.5 40t13.5 49
zM408 886q7 0 9 -8.5t2 -16.5q-1 -18 -14.5 -28.5t-33.5 -10.5q-4 0 -8 3v4q0 8 3.5 18t9.5 18.5t14 14.5t18 6z" />
    <glyph glyph-name="ae" unicode="&#xe6;" horiz-adv-x="974" 
d="M355 58q8 -27 16.5 -32.5t28.5 -5.5h9q11 -2 25.5 -3t28.5 -1h34q16 0 55 6t88 18t101.5 28.5t96.5 37t73 45t30 51.5v5q0 24 -11.5 38.5t-43.5 14.5q-21 0 -40.5 -8.5t-39.5 -20.5q-8 -6 -16.5 -10.5t-17.5 -8.5q-55 -30 -121 -52t-135 -22h-15q1 38 3 64.5t4 49
t4.5 44.5t5.5 49q12 7 54 10t98 6q48 1 97.5 4t90 11.5t67.5 23.5t29 41v4q0 53 -60 53q-36 0 -68 -3.5t-65 -7.5h-11q-5 0 -10 -1h1q-39 -5 -77 -8.5t-75 -3.5h-17q-13 0 -25.5 0.5t-20.5 5.5l1 7v5q0 1 -0.5 1.5t-0.5 2.5l1 4q2 38 11.5 60.5t27.5 35.5t46 18t69 7
q13 0 42 0.5t62 2.5q36 2 65.5 3.5t43.5 1.5q19 1 38 14t19 34v3q0 24 -13 38.5t-33 23t-44 11t-47 2.5h-27h-14t-11 -1q-4 0 -7 -0.5t-6 -0.5h-8q-77 0 -149.5 -9.5t-144.5 -31.5q-13 29 -34.5 47.5t-56.5 18.5q-18 0 -37.5 -10t-37.5 -23.5t-32.5 -27.5t-23.5 -23l-7 -7
q-53 -51 -87.5 -116t-55 -135t-30 -141t-13.5 -133v-24q0 -14 2 -28t8.5 -25.5t19 -19t33.5 -7.5q34 0 57 29q4 8 4.5 15t0.5 17t0.5 22.5t1.5 24.5t2 21.5t2 14.5l2 14t5 10q45 7 88 11t88 4q2 0 5 -0.5t6 -0.5v-7q0 -6 0.5 -12.5t0.5 -14.5q1 -8 1 -17v-18v1zM338 603
q4 0 7 -15t4.5 -37.5t2 -48.5t0.5 -48v-57q-2 -5 -2 -10v-9v-16q-9 -8 -25 -12t-34 -5.5t-35.5 -2t-28.5 -0.5h-22q-15 0 -16 9q1 10 8.5 32.5t19.5 50.5t27 58t31 54.5t32.5 40.5t30.5 16z" />
    <glyph glyph-name="ccedilla" unicode="&#xe7;" horiz-adv-x="614" 
d="M332 -54l18 62v18q35 6 77 19.5t78.5 33t61.5 45.5t27 56v3q0 23 -15.5 37t-42.5 14q-28 0 -55.5 -14.5t-58.5 -32.5q-33 -21 -70.5 -39.5t-81.5 -18.5q-27 0 -47 9.5t-33 26t-19 37.5t-6 44v6t1 8q2 54 21 104t50.5 95t72 86t85.5 77q7 5 10 6.5t10 1.5q15 0 19 -12.5
t6 -27.5q2 -14 4.5 -27t9 -24t19 -17.5t33.5 -6.5q19 0 29.5 5.5t16.5 15.5t8 22.5t4 26.5v15q0 24 -6 53.5t-19.5 55.5t-34.5 44t-52 18q-41 0 -81.5 -18t-78 -47t-72 -66.5t-64 -76.5t-52 -76t-37.5 -66q-20 -39 -25.5 -82.5t-8.5 -81.5v-17q0 -104 49 -153.5t141 -61.5
q-3 -9 -3 -19l-7 -48q-2 -7 -3.5 -11t-2 -8t-0.5 -9v-13q0 -20 8 -38t34 -23q2 0 4 -0.5t4 -0.5q26 0 48 27.5t28 66.5z" />
    <glyph glyph-name="egrave" unicode="&#xe8;" horiz-adv-x="641" 
d="M33 107v-19q0 -23 10 -36.5t26 -20.5t35.5 -9t37.5 -2h33q16 0 54 6.5t86 18t99.5 28t94 37.5t71 46t29.5 52v5q0 25 -11.5 39.5t-41.5 14.5q-21 0 -40.5 -9t-38.5 -21q-7 -6 -16 -10.5l-17 -8.5q-54 -31 -119 -53t-131 -22h-15l1 38v-1q1 25 3 44t3.5 38t4 40t5.5 50
q13 8 53.5 11t94.5 6q47 1 95.5 4t88 11t65.5 23.5t28 41.5v4q0 54 -58 54q-35 0 -66.5 -3.5t-63.5 -7.5q-5 -1 -11 -1q-5 0 -10 -1h1q-38 -4 -75 -7.5t-73 -3.5h-16q-13 0 -25 0.5t-20 5.5v6v6v4v4q2 39 11 62t27 35.5t45.5 17.5t67.5 8q12 0 40.5 0.5t60.5 2.5q35 2 64 3
t43 1q19 1 37 14.5t18 33.5v4q0 24 -12.5 39t-32 23.5t-43 11t-45.5 2.5h-27h-14q-5 0 -10 -1h3q-5 0 -8.5 -0.5t-6.5 -0.5h-9q-82 0 -159.5 -11.5t-155.5 -38.5q-30 -12 -36.5 -26.5t-7.5 -34.5q-1 -5 -1 -10v-8q0 -17 4 -31t15 -31l-16 -348q-3 -6 -5.5 -17.5t-4.5 -25
l-4 -27t-3 -25.5q-1 -5 -1.5 -8.5t-1.5 -7.5v-3zM454 806q0 2 0.5 4.5t0.5 4.5v11q0 15 -8 42t-24 53.5t-39.5 46.5t-54.5 20q-23 0 -37 -11t-14 -26v-4q0 -17 8.5 -31t18.5 -28l10 -14t7 -15q2 -2 2 -4t2 -6q3 -11 7 -23.5t12 -23.5t21 -18.5t34 -7.5q14 0 25.5 4t19.5 10z
" />
    <glyph glyph-name="eacute" unicode="&#xe9;" horiz-adv-x="641" 
d="M33 107v-19q0 -23 10 -36.5t26 -20.5t35.5 -9t37.5 -2h33q16 0 54 6.5t86 18t99.5 28t94 37.5t71 46t29.5 52v5q0 25 -11.5 39.5t-41.5 14.5q-21 0 -40.5 -9t-38.5 -21q-7 -6 -16 -10.5l-17 -8.5q-54 -31 -119 -53t-131 -22h-15l1 38v-1q1 25 3 44t3.5 38t4 40t5.5 50
q13 8 53.5 11t94.5 5q47 1 95.5 4.5t88 11.5t65.5 23.5t28 41.5v4q0 54 -58 54q-35 0 -66.5 -3.5t-63.5 -7.5q-5 -1 -11 -1q-5 0 -10 -1h1q-38 -5 -75 -8t-73 -3h-16q-13 0 -25 0.5t-20 4.5v7v6v4v4q2 38 11 61t27 36t45.5 18t67.5 8h40q29 0 61 2q35 2 64 3.5t43 1.5
q19 1 37 14t18 34v4q0 24 -12.5 39t-32 23t-43 11t-45.5 3h-27h-14q-5 0 -10 -1h3q-5 0 -8.5 -0.5t-6.5 -0.5h-9q-82 0 -159.5 -11.5t-155.5 -38.5q-30 -12 -36.5 -27t-7.5 -34q-1 -5 -1 -10v-9q0 -17 4 -30.5t15 -30.5l-16 -349q-3 -6 -5.5 -17t-4.5 -24.5l-4 -27t-3 -25.5
q-1 -5 -1.5 -8.5t-1.5 -7.5v-3zM461 966q-8 5 -19.5 9.5t-25.5 4.5q-21 0 -34 -7.5t-21 -18.5t-12 -24t-7 -23q-2 -4 -2 -7q0 -2 -2 -4q-2 -7 -7 -14l-10 -14q-10 -15 -18.5 -28.5t-8.5 -30.5v-4q0 -15 14 -26t37 -11q31 0 54 20t39 46.5t24 53.5t8 42v11v8z" />
    <glyph glyph-name="ecircumflex" unicode="&#xea;" horiz-adv-x="641" 
d="M33 107v-19q0 -23 10 -36.5t26 -20.5t35.5 -9t37.5 -2h33q16 0 54 6.5t86 18t99.5 28t94 37.5t71 46t29.5 52v5q0 24 -11.5 39t-41.5 15q-21 0 -40.5 -9t-38.5 -21q-7 -6 -16 -11t-17 -8q-54 -31 -119 -53t-131 -22h-15l1 38v-1q1 24 3 43.5t3.5 38.5t4 40t5.5 50
q13 8 53.5 10.5t94.5 5.5q47 1 95.5 4.5t88 11.5t65.5 23.5t28 41.5v4q0 53 -58 53q-35 0 -66.5 -3t-63.5 -7q-5 -1 -11 -1q-5 0 -10 -1h1q-38 -5 -75 -8.5t-73 -3.5h-16q-13 0 -25 0.5t-20 5.5v7v6v3v4q2 39 11 62t27 35.5t45.5 17.5t67.5 8q12 0 40.5 0.5t60.5 2.5
q35 2 64 3.5t43 1.5q19 1 37 14t18 34v3q0 24 -12.5 39t-32 23.5t-43 11t-45.5 2.5h-27h-14q-5 0 -10 -1h3q-5 0 -8.5 -0.5t-6.5 -0.5h-9q-82 0 -159.5 -11.5t-155.5 -38.5q-30 -12 -36.5 -26.5t-7.5 -34.5q-1 -5 -1 -9v-9q0 -17 4 -31t15 -31l-16 -348q-3 -6 -5.5 -17
t-4.5 -24.5l-4 -27t-3 -25.5q-1 -5 -1.5 -8.5t-1.5 -7.5v-3zM410 785l-2 2q3 -7 11 -10t16 -3q3 0 5.5 0.5t5.5 0.5h14q14 20 19 32.5t5 18.5q0 2 -0.5 5t-0.5 4q-4 5 -9 13t-9 13q-17 25 -34 54l2 -6q-2 2 -3.5 5.5t-3.5 5.5l2 -1q-3 4 -9 10.5t-13 13.5t-14 12t-11 5h-9
q-2 0 -12.5 -8t-24 -19t-27 -22.5t-21.5 -19.5q-2 -2 -4 -3.5t-4 -3.5l1 1q-14 -13 -21.5 -23.5t-8.5 -35.5v-19q13 -27 34 -27q18 0 30 11.5t24 26.5q8 10 15.5 18t14.5 10zM361 857l5 -7q-4 4 -5 7zM433 909v-2v2z" />
    <glyph glyph-name="edieresis" unicode="&#xeb;" horiz-adv-x="641" 
d="M33 107v-19q0 -23 10 -36.5t26 -20.5t35.5 -9t37.5 -2h33q16 0 54 6.5t86 18t99.5 28t94 37.5t71 46t29.5 52v5q0 24 -11.5 38.5t-41.5 14.5q-21 0 -40.5 -8.5t-38.5 -21.5q-7 -5 -16 -10t-17 -9q-54 -30 -119 -52t-131 -22h-15l1 38v-1q1 24 3 43.5t3.5 38.5t4 40
t5.5 49q13 8 53.5 11t94.5 6q47 1 95.5 4t88 11.5t65.5 23.5t28 41v4q0 54 -58 54q-35 0 -66.5 -3.5t-63.5 -7.5q-5 -1 -11 -1q-5 0 -10 -1h1q-38 -5 -75 -8t-73 -3h-16q-13 0 -25 0.5t-20 4.5v7v6v4v4q2 38 11 61t27 35.5t45.5 17.5t67.5 8q12 0 40.5 0.5t60.5 2.5
q35 2 64 3.5t43 1.5q19 1 37 14t18 34v4q0 24 -12.5 38.5t-32 23t-43 11t-45.5 2.5h-27h-14q-5 0 -10 -1h3q-5 0 -8.5 -0.5t-6.5 -0.5h-9q-82 0 -159.5 -11.5t-155.5 -38.5q-30 -12 -36.5 -26.5t-7.5 -34.5q-1 -5 -1 -9v-9q0 -17 4 -30.5t15 -30.5l-16 -348q-3 -6 -5.5 -17
t-4.5 -24.5l-4 -27t-3 -25.5q-1 -5 -1.5 -8.5t-1.5 -7.5v-3zM380 851v-7q0 -28 18 -47.5t50 -19.5q14 0 28 8t25 21t18 27.5t7 28.5v5q0 29 -23.5 45t-51.5 16q-35 0 -52.5 -24t-18.5 -53zM218 850v-7q0 -28 18 -47.5t50 -19.5q14 0 28 8.5t25 21t18 27.5t7 28v5
q0 29 -23.5 45t-51.5 16q-35 0 -52.5 -24t-18.5 -53z" />
    <glyph glyph-name="igrave" unicode="&#xec;" horiz-adv-x="227" 
d="M25 71q7 -34 19.5 -42.5t37.5 -8.5q23 0 39 15t20 40q17 123 28 242t17 244v-1l1 21q1 12 1.5 29t0.5 29l2 21q0 14 -3.5 29.5t-11 28t-19 21t-28.5 8.5q-18 0 -27.5 -8.5t-23.5 -31.5q-3 -75 -10 -143.5t-15 -137.5t-15.5 -138.5t-10.5 -143.5v-12v-25v-10t-2 -11v-15z
M206 790q0 2 0.5 4t0.5 4v11q0 15 -7 42t-21 53.5t-34.5 46.5t-47.5 20q-20 0 -32 -11t-12 -26v-4q0 -17 7 -31t16 -28q5 -7 9 -14t6 -15q2 -2 2 -4t2 -6q2 -11 5.5 -23.5t10.5 -23.5t18.5 -18.5t30.5 -7.5q12 0 21.5 4.5t17.5 9.5z" />
    <glyph glyph-name="iacute" unicode="&#xed;" horiz-adv-x="248" 
d="M25 71q7 -34 20 -42.5t39 -8.5q23 0 39 15t20 40q18 123 29 242t17 244v-1l2 22q0 11 0.5 28t0.5 29l2 21q0 15 -3.5 30.5t-11 28t-19.5 21t-29 8.5q-18 0 -28 -9t-24 -32q-3 -75 -10.5 -143.5t-15.5 -137.5t-15 -138.5t-10 -143.5v-12q-1 -5 -1 -12v-13v-10t-2 -11v-15z
M220 963q-8 5 -18 9.5t-22 4.5q-19 0 -30.5 -7.5t-19 -18.5t-11 -24t-5.5 -23q-2 -4 -2 -7q0 -2 -2 -4q-2 -7 -6.5 -14t-9.5 -14q-8 -15 -15.5 -28.5t-7.5 -30.5v-4q0 -15 12.5 -26t32.5 -11q28 0 49 20t35 46.5t21 53.5t7 42v11q0 2 -0.5 4t-0.5 4z" />
    <glyph glyph-name="icircumflex" unicode="&#xee;" horiz-adv-x="276" 
d="M25 71q7 -34 20.5 -42.5t39.5 -8.5q23 0 39.5 15t20.5 40q19 123 30.5 242t16.5 244v-1l2 21q1 11 1.5 28t0.5 29l1 21q0 15 -3.5 30t-11 28t-19.5 21t-30 8t-28 -8.5t-24 -31.5q-4 -74 -11.5 -143t-15.5 -138t-15.5 -138.5t-10.5 -142.5v-12q-1 -5 -1 -12v-13v-10
t-2 -11v-15zM189 768l-2 1q3 -7 10 -10t15 -3q2 0 5 0.5t5 0.5h13q13 20 17 32.5t4 18.5q0 2 -0.5 5t-0.5 4q-3 5 -8 13t-8 13q-8 12 -15.5 26t-15.5 28l2 -6q-2 2 -3 5.5t-3 5.5l2 -1q-3 4 -8.5 10.5t-12 13.5t-12.5 12t-10 5h-8q-2 0 -11.5 -8t-21.5 -19t-25 -22.5
t-20 -19.5q-3 -5 -6 -6q-14 -13 -20 -23.5t-7 -35.5v-18q11 -28 31 -28q16 0 27 11.5t22 26.5q7 10 14 18t13 10zM144 839l5 -7q-4 4 -5 7zM210 891v-2v2z" />
    <glyph glyph-name="idieresis" unicode="&#xef;" horiz-adv-x="325" 
d="M25 71q7 -34 21 -42.5t41 -8.5q23 0 40.5 15t21.5 40q20 122 31.5 241t17.5 244v-1l1 21q1 11 1.5 28t0.5 29l2 21q0 15 -3.5 30t-11.5 28t-20.5 21t-30.5 8q-20 0 -30 -8.5t-25 -31.5q-3 -74 -10.5 -142.5t-16.5 -137.5q-8 -69 -16 -138.5t-11 -143.5v-11q-1 -5 -1 -12
v-13v-10t-2 -11v-15zM16 833v-7q0 -28 17 -47.5t47 -19.5q13 0 26.5 8.5t23.5 21t16.5 27.5t6.5 28v5q0 29 -22 45t-49 16q-33 0 -49.5 -24t-16.5 -53zM168 834v-7q0 -28 17 -47.5t47 -19.5q13 0 26.5 8.5t23.5 21t16.5 27.5t6.5 28v5q0 29 -22 45t-48 16q-33 0 -49.5 -24
t-17.5 -53z" />
    <glyph glyph-name="eth" unicode="&#xf0;" horiz-adv-x="608" 
d="M272 562q5 -20 14.5 -27.5t23.5 -7.5q8 0 16 2.5t19 6.5l4 2l2 1l36 16l-1 -1q16 5 30 13q20 -37 31.5 -75t11.5 -76q0 -26 -8 -58q-18 26 -35 48.5t-36.5 42t-43.5 37t-55 32.5l-10 5h1q-5 2 -12 5l-14 6h-4l-13 9q-17 4 -35 4q-51 0 -86 -30t-53 -75
q-11 -23 -15.5 -48.5t-4.5 -51.5q0 -45 13.5 -91t39 -87.5t61.5 -76.5t81 -57q48 -22 93 -22q42 0 77 17.5t63.5 46t50.5 64t37 72.5q37 92 37 186q0 61 -15 121t-44 120q24 20 39 42t15 45q0 12 -3 21q-14 37 -44 37q-13 0 -32 -8l1 1l-20 -10t-27 -14q-12 15 -26.5 27
t-35.5 23q-4 2 -13.5 6.5t-20.5 7.5q-2 0 -4.5 0.5t-4.5 0.5q-21 0 -28.5 -9t-12.5 -25v1q0 -4 -1 -5q-8 -18 -8 -32q0 -18 12 -37q2 -3 6 -7.5t7 -6.5h-1q4 -6 8 -10.5t8 -8.5q-31 -26 -52.5 -51.5t-21.5 -46.5q0 -8 3 -14zM384 182q-7 -17 -19.5 -24t-29.5 -7q-14 0 -29 4
t-29 11h1q-21 10 -39.5 28t-31.5 40t-20.5 47t-7.5 49q0 26 8 43q7 16 21 16q8 0 17.5 -3.5t20.5 -8.5q21 -9 45.5 -29t46 -44.5t35.5 -51.5t14 -51q0 -6 -0.5 -10t-1.5 -9h-1z" />
    <glyph glyph-name="ntilde" unicode="&#xf1;" horiz-adv-x="547" 
d="M29 102q2 -13 5.5 -27.5t11 -26.5t20 -20t32.5 -8q7 0 17 2.5t19 8t16 13.5t7 20l12 261q10 -21 16.5 -34l11 -22t8.5 -16.5t9 -18.5v1l33 -74q4 -8 14.5 -31t19.5 -42q4 -7 6 -12t4 -8q25 -30 59 -30q18 0 30 8.5t19.5 21.5t12 26.5t6.5 24.5q6 26 12.5 52t12.5 52
q29 119 53.5 235.5t30.5 237.5v63q0 23 -16 41t-42 18q-20 0 -33 -11.5t-21 -28t-12 -34t-5 -28.5v1q-3 -14 -7 -41.5t-9.5 -62.5t-11 -73.5l-10.5 -73.5l-9 -63t-5 -42q-2 -4 -3 -9t-1 -7v1q-4 -17 -8 -38t-9 -27q0 4 -2 8l-4 8q-14 35 -29 76.5t-25 76.5v-1q-1 6 -3 17
t-4.5 25t-5.5 29t-5 29q-3 15 -5.5 26t-3.5 16q-1 7 -2 27.5t-1.5 43.5t-1 43t-0.5 28q-6 22 -24.5 36.5t-38.5 14.5q-21 0 -36.5 -13.5t-20.5 -27.5q-33 -135 -52.5 -269t-27.5 -271l-1 -20q-1 -10 -1 -22v-23v-19q0 -7 -1 -9zM176 832v-5q0 -19 7 -26t20 -7q12 0 24.5 7.5
t23.5 18.5l-1 -1q11 8 22 16.5t20 8.5q6 0 12.5 -5.5t13.5 -11.5q13 -11 26 -20t32 -9q15 0 30.5 6.5t28.5 19.5t22 33t9 47v9q0 18 -5 28.5t-24 10.5q-13 0 -20 -9t-15 -22v1q-5 -8 -10.5 -17t-10.5 -9t-10.5 4.5t-11.5 11.5q-9 9 -20.5 18.5t-25.5 11.5h-9q-2 0 -4.5 0.5
t-6.5 0.5q-14 0 -33.5 -6t-38 -19t-32 -34t-13.5 -52z" />
    <glyph glyph-name="ograve" unicode="&#xf2;" horiz-adv-x="725" 
d="M33 311q0 -5 -0.5 -10.5t-0.5 -10.5q0 -43 9.5 -85.5t30.5 -79t55 -64.5t84 -41h65q60 0 109.5 15.5t90.5 44t74 69t60 89.5q18 32 34.5 63.5t29.5 63t21 64.5t10 68v16q0 43 -14 87.5t-41.5 80t-69 58t-96.5 22.5q-25 0 -49 -7t-47 -16q-72 -31 -135 -72.5t-110.5 -95
t-76.5 -118t-33 -140.5v-1zM164 289q3 56 26 115t63.5 107.5t96.5 79.5t124 31q29 0 49.5 -11.5t33.5 -30t19 -41.5t6 -46v-10q-1 -27 -14 -63t-34.5 -75t-50.5 -76t-61.5 -67t-68 -48t-70.5 -18q-34 0 -57 11t-37 29.5t-20 42.5t-6 51q0 5 0.5 9.5t0.5 9.5zM543 812
q0 2 0.5 4.5t0.5 4.5v11q0 15 -8 42t-24 53.5t-40 46.5t-55 20q-23 0 -37 -11t-14 -26v-4q0 -17 8.5 -31t18.5 -28q5 -8 10.5 -14.5t7.5 -14.5q2 -2 2 -4t2 -6q3 -11 7 -23.5t12 -23.5t21 -18.5t34 -7.5q14 0 25.5 4t19.5 10z" />
    <glyph glyph-name="oacute" unicode="&#xf3;" horiz-adv-x="725" 
d="M33 311q0 -5 -0.5 -10.5t-0.5 -10.5q0 -43 9.5 -85.5t30.5 -79t55 -64.5t84 -41h65q60 0 109.5 15.5t90.5 44t74 69t60 89.5q18 32 34.5 63.5t29.5 63t21 64.5t10 68v16q0 43 -14 87.5t-41.5 79.5t-69 57.5t-96.5 22.5q-25 0 -49 -6.5t-47 -15.5q-72 -31 -135 -72.5
t-110.5 -95t-76.5 -118t-33 -140.5v-1zM164 289q3 56 26 115t63.5 107.5t96.5 79.5t124 31q29 0 49.5 -11.5t33.5 -30t19 -41.5t6 -47v-9q-1 -27 -14 -63t-34.5 -75t-50.5 -76t-61.5 -67t-68 -48t-70.5 -18q-34 0 -57 11t-37 29.5t-20 42.5t-6 51q0 4 0.5 9t0.5 10zM557 975
q-8 5 -19.5 9.5t-25.5 4.5q-21 0 -34.5 -7.5t-21.5 -18.5t-12 -24t-7 -23q-2 -4 -2 -7q0 -2 -2 -4q-2 -7 -7 -14l-10 -14q-11 -15 -19 -28.5t-8 -30.5v-4q0 -15 14 -26t37 -11q31 0 55 20t40 46.5t24 53.5t8 42v11q0 2 -0.5 4t-0.5 4z" />
    <glyph glyph-name="ocircumflex" unicode="&#xf4;" horiz-adv-x="725" 
d="M33 311q0 -5 -0.5 -11t-0.5 -11q0 -43 9.5 -85.5t30.5 -79t55 -64t84 -40.5h65q60 0 109.5 15.5t90.5 44t74 69t60 89.5q35 63 63.5 126t31.5 133v15q0 43 -14 87.5t-41.5 79.5t-69 57.5t-96.5 22.5q-25 0 -49 -6.5t-47 -15.5q-72 -31 -135 -72.5t-110.5 -95
t-76.5 -117.5t-33 -140v-1zM164 289q3 56 26 115t63.5 107t96.5 79t124 31q29 0 49.5 -11.5t33.5 -30t19 -41.5t6 -46v-10q-1 -27 -14 -63t-34.5 -74.5t-50.5 -76t-61.5 -67t-68 -47.5t-70.5 -18q-34 0 -57 11t-37 29t-20 42t-6 51q0 5 0.5 10t0.5 10zM531 779l-2 2
q4 -7 11.5 -10t15.5 -3q3 0 6 0.5t6 0.5h14q14 20 18.5 32.5t4.5 18.5q0 2 -0.5 5t-0.5 4q-3 5 -8.5 13t-9.5 13q-8 12 -16.5 26t-17.5 28l2 -6q-2 2 -3 5.5t-3 5.5l2 -1q-3 4 -9.5 10.5l-13.5 13.5t-14 12t-11 5h-9q-2 0 -12.5 -8t-24 -19t-27.5 -22.5t-22 -19.5
q-5 -5 -7 -6q-14 -13 -21.5 -23.5t-8.5 -35.5v-18q13 -28 34 -28q18 0 30 11.5t25 26.5q8 10 15.5 18t14.5 10zM482 851l4 -7q-3 2 -4 7zM554 903v-2v2z" />
    <glyph glyph-name="otilde" unicode="&#xf5;" horiz-adv-x="725" 
d="M33 310q0 -5 -0.5 -10.5t-0.5 -10.5q0 -43 9.5 -85.5t30.5 -79t55 -64t84 -40.5h65q60 0 109.5 15.5t90.5 44t74 68.5t60 89q18 32 34.5 63.5t29.5 63t21 64.5t10 68v15q0 43 -14 87.5t-41.5 80t-69 58t-96.5 22.5q-25 0 -49 -7t-47 -15q-72 -31 -135 -73t-110.5 -95.5
t-76.5 -117.5t-33 -140v-1zM164 288q3 56 26 115t63.5 107.5t96.5 79.5t124 31q29 0 49.5 -11.5t33.5 -30t19 -41.5t6 -47v-9q-1 -27 -14 -63t-34.5 -74.5t-50.5 -76t-61.5 -67t-68 -47.5t-70.5 -18q-34 0 -57 11t-37 29t-20 42t-6 51q0 5 0.5 9.5t0.5 9.5zM306 814v-5
q0 -18 6.5 -25.5t20.5 -7.5q12 0 24.5 7.5t24.5 18.5v-1q11 8 22 16.5t20 8.5q6 0 12.5 -5.5t13.5 -11.5q13 -11 26.5 -20t33.5 -9q15 0 31 6.5t29.5 19.5t22 33t8.5 47v9q0 18 -5 28.5t-25 10.5q-13 0 -20 -9t-15 -22v1q-5 -8 -10.5 -17t-10.5 -9t-11 4.5t-12 11.5
q-9 9 -20.5 18.5t-25.5 11.5h-10q-2 0 -4.5 0.5t-6.5 0.5q-14 0 -34 -6t-39 -19t-32.5 -34t-13.5 -52z" />
    <glyph glyph-name="odieresis" unicode="&#xf6;" horiz-adv-x="725" 
d="M33 310q0 -5 -0.5 -10.5t-0.5 -10.5q0 -43 9.5 -85.5t30.5 -79t55 -64t84 -40.5h65q60 0 109.5 15.5t90.5 44t74 69t60 89.5q35 63 63.5 125.5t31.5 132.5v16q0 43 -14 87.5t-41.5 79.5t-69 57.5t-96.5 22.5q-25 0 -49 -7t-47 -15q-72 -31 -135 -73t-110.5 -95.5
t-76.5 -117.5t-33 -140v-1zM164 288q3 56 26 115t63.5 107.5t96.5 79.5t124 31q29 0 49.5 -11.5t33.5 -30t19 -41.5t6 -47v-9q-1 -27 -14 -63t-34.5 -74.5t-50.5 -76t-61.5 -67t-68 -47.5t-70.5 -18q-34 0 -57 11t-37 29t-20 42t-6 51q0 5 0.5 9.5t0.5 9.5zM312 859v-7
q0 -28 18.5 -47.5t50.5 -19.5q14 0 28 8t25 21t18 27.5t7 28.5v5q0 29 -23.5 45t-52.5 16q-35 0 -52.5 -24t-18.5 -53zM475 860v-7q0 -28 18.5 -47.5t50.5 -19.5q15 0 29 8t25 21t17.5 27.5t6.5 28.5v5q0 29 -23.5 45t-51.5 16q-35 0 -53 -24t-19 -53z" />
    <glyph glyph-name="divide" unicode="&#xf7;" horiz-adv-x="421" 
d="M34 348v-6q0 -25 19.5 -38t41.5 -21h44q31 0 57.5 1t53 3t56 6t65.5 10q18 11 23 23t7 26q0 26 -20.5 41t-45.5 15h-226q-28 0 -51 -15.5t-24 -44.5zM122 183v-7q0 -26 17.5 -45.5t48.5 -19.5q14 0 27.5 8t24 20t17 26.5t6.5 27.5v5q0 28 -23 43.5t-50 15.5
q-34 0 -50.5 -23.5t-17.5 -50.5zM168 501v-7q0 -26 17.5 -45t48.5 -19q14 0 27.5 8t24 20t17 26.5t6.5 27.5v4q0 29 -23 44t-50 15q-34 0 -50.5 -23.5t-17.5 -50.5z" />
    <glyph glyph-name="oslash" unicode="&#xf8;" horiz-adv-x="725" 
d="M33 308q0 -5 -0.5 -10.5t-0.5 -10.5q0 -35 6 -69.5t19.5 -66.5t35 -59t53.5 -46q2 -17 11.5 -29t33.5 -12q27 0 47 15h38q60 0 109.5 15.5t90.5 43.5t74 68t60 88q35 63 63.5 125.5t31.5 131.5v15q0 48 -16.5 94.5t-49.5 81.5q0 2 2 8v7q0 26 -12 38.5t-44 12.5
q-11 0 -29 -10q-17 6 -35 9.5t-37 3.5q-25 0 -49 -7t-47 -15q-72 -31 -135 -72.5t-110.5 -94t-76.5 -116t-33 -138.5v-1zM164 286q2 52 23 107t58 101.5t87.5 79t112.5 39.5q-34 -47 -70.5 -103.5t-71 -115t-65 -115t-52.5 -102.5q-12 17 -17.5 40.5t-5.5 49.5q0 4 0.5 9
t0.5 10zM582 487v-9q-1 -25 -12.5 -57.5t-30 -68t-44 -70.5t-55 -64.5t-61.5 -50.5t-65 -28q15 27 33 58.5t36.5 64t36.5 63.5t32 55.5t23 40.5t11 19l-2 -2q3 3 12 15t21 29.5t25.5 37t25.5 36.5q14 -33 14 -69z" />
    <glyph glyph-name="ugrave" unicode="&#xf9;" horiz-adv-x="571" 
d="M31 208q3 -40 20.5 -74t46 -59.5t66.5 -40t81 -14.5q40 0 81.5 11t77.5 32t64.5 52t42.5 70q1 12 2.5 32.5t3.5 47t4.5 57.5t5.5 63q3 36 5.5 71.5t5.5 66t5 55t3 37.5l1 47l4 52q-4 30 -24 44t-48 14q-22 0 -41.5 -14.5t-22.5 -40.5l-38 -492v1q-2 -15 -12.5 -28.5
t-25 -24t-31 -17t-31.5 -6.5q-32 0 -51.5 13t-30 33.5t-14.5 46.5t-4 52q0 23 1.5 44t3.5 39q1 36 5 71.5t9 70.5q5 36 8.5 71.5t5.5 72.5q0 2 0.5 5t0.5 5q0 30 -18 47.5t-53 17.5q-29 0 -45 -16t-24.5 -39t-10.5 -48.5t-3 -45.5v-10q0 -4 -1 -9q-2 -11 -4.5 -38.5
t-5.5 -58t-5 -57.5t-2 -37v-9q-1 -11 -2 -25.5t-2 -28.5v1l-2 -23l-1 -19v-25v-12q0 -5 -1 -12v-19zM380 773q0 2 0.5 4t0.5 4v11q0 15 -8 42t-23.5 53.5t-39 46.5t-53.5 20q-23 0 -36.5 -11t-13.5 -26v-4q0 -17 8 -31t18 -28l10 -14t7 -14q2 -2 2 -5q0 -2 2 -6
q3 -11 7 -23.5t11.5 -23.5t20.5 -18.5t34 -7.5q14 0 25.5 4.5t19.5 9.5z" />
    <glyph glyph-name="uacute" unicode="&#xfa;" horiz-adv-x="571" 
d="M31 208q3 -40 20.5 -74t46 -59.5t66.5 -40t81 -14.5q40 0 81.5 11t77.5 32t64.5 52t42.5 70q1 12 2.5 32.5t3.5 47t4.5 57.5t5.5 63q3 36 5.5 71.5t5.5 66t5 55t3 37.5l1 48v-1l4 52q-4 30 -24 44t-48 14q-22 0 -41.5 -14.5t-22.5 -40.5l-38 -492v1q-2 -15 -12.5 -28.5
t-25 -24t-31 -17t-31.5 -6.5q-32 0 -51.5 13t-30 33.5t-14.5 46.5t-4 52q0 23 1.5 44t3.5 39q1 36 5 71.5t9 70.5q5 36 8.5 71.5t5.5 72.5q0 2 0.5 5t0.5 5q0 30 -18 47.5t-53 17.5q-29 0 -45 -16t-24.5 -39t-10.5 -48.5t-3 -45.5v-10q0 -4 -1 -9q-2 -11 -4.5 -38.5
t-5.5 -58t-5 -57.5t-2 -37v-9q-1 -11 -2 -25.5t-2 -28.5v1l-2 -23l-1 -19v-25v-12q0 -5 -1 -12v-19zM396 941q-8 5 -19.5 9.5t-25.5 4.5q-21 0 -33.5 -7.5t-20.5 -18.5t-12 -24t-7 -23q-2 -4 -2 -6t-2 -4q-2 -8 -7 -15l-10 -14q-10 -14 -18 -28t-8 -31v-4q0 -15 13.5 -26
t36.5 -11q31 0 54 20t38.5 46.5t23.5 53.5t8 42v11q0 2 -0.5 4t-0.5 4z" />
    <glyph glyph-name="ucircumflex" unicode="&#xfb;" horiz-adv-x="571" 
d="M31 208q3 -40 20.5 -74.5t46 -59.5t66.5 -39.5t81 -14.5q40 0 81.5 11t77.5 32t64.5 52t42.5 70q1 12 2.5 32.5t3.5 47t4.5 57.5t5.5 63q3 36 5.5 71.5t5.5 66t5 54.5t3 37l1 48v-1l4 53q-4 29 -24 43.5t-48 14.5q-22 0 -41.5 -15t-22.5 -40l-38 -492v1
q-2 -15 -12.5 -28.5t-25 -24t-31 -17t-31.5 -6.5q-32 0 -51.5 13t-30 33.5t-14.5 46.5t-4 52q0 23 1.5 44t3.5 39q1 35 5 70.5t9 70.5q5 36 8.5 71.5t5.5 73.5q0 2 0.5 5t0.5 5q0 30 -18 47.5t-53 17.5q-29 0 -45 -16t-24.5 -39t-10.5 -49t-3 -46v-9t-1 -9
q-2 -11 -4.5 -38.5t-5.5 -58t-5 -58t-2 -37.5v-8q-1 -11 -2 -25.5t-2 -28.5v1l-2 -23l-1 -19v-25v-12q0 -5 -1 -12v-19zM348 771l-2 1q4 -7 11.5 -10t15.5 -3q3 0 5.5 0.5t5.5 0.5h14q14 20 18.5 32.5t4.5 18.5q0 2 -0.5 5t-0.5 4q-3 5 -8.5 13t-8.5 13q-9 12 -17.5 26
t-16.5 28l2 -6q-2 2 -3.5 5.5t-3.5 5.5l2 -1q-3 4 -9 10.5t-13 13.5t-13.5 12t-10.5 5h-9q-2 0 -12.5 -8t-24 -19t-27 -22.5t-21.5 -19.5l-6 -6q-15 -13 -22 -23.5t-8 -35.5v-18q11 -28 33 -28q18 0 29.5 11.5t24.5 26.5q8 10 15.5 18t14.5 10zM299 842l5 -7q-4 4 -5 7z
M371 894v-2v2z" />
    <glyph glyph-name="udieresis" unicode="&#xfc;" horiz-adv-x="571" 
d="M31 208q3 -40 20.5 -74.5t46 -59.5t66.5 -39.5t81 -14.5q40 0 81.5 11t77.5 32t64.5 52t42.5 70q1 11 2.5 32t3.5 47.5t4.5 57.5t5.5 63q3 36 5.5 71t5.5 66t5 55t3 37l1 48v-1l4 52q-4 30 -24 44t-48 14q-22 0 -41.5 -14.5t-22.5 -40.5l-38 -491v1q-2 -15 -12.5 -28.5
t-25 -24t-31 -17t-31.5 -6.5q-32 0 -51.5 13t-30 33.5t-14.5 46.5t-4 52q0 23 1.5 43.5t3.5 38.5q1 36 5 71.5t9 70.5q5 36 8.5 71.5t5.5 73.5q0 2 0.5 4.5t0.5 4.5q0 30 -18 47.5t-53 17.5q-29 0 -45 -15.5t-24.5 -38.5t-10.5 -49t-3 -46q0 -13 -1 -18q-2 -11 -4.5 -38.5
t-5.5 -58t-5 -58t-2 -37.5v-8q-1 -11 -2 -25.5t-2 -28.5v1l-2 -23l-1 -19v-25v-12t-1 -12v-19zM166 848v-7q0 -28 18 -47.5t50 -19.5q14 0 28 8.5t25 21t17.5 27.5t6.5 28v5q0 29 -23.5 45t-51.5 16q-17 0 -30 -6.5t-22 -17.5t-13.5 -25t-4.5 -28zM326 849v-7
q0 -28 18 -47.5t50 -19.5q14 0 28 8t25 21t17.5 27.5t6.5 28.5v5q0 29 -23 45t-51 16q-35 0 -52.5 -24t-18.5 -53z" />
    <glyph glyph-name="yacute" unicode="&#xfd;" horiz-adv-x="559" 
d="M158 105v-3q0 -15 4 -30t12.5 -26.5t22 -18.5t32.5 -7q17 0 26.5 5t23.5 29q9 63 28.5 127t45 127t54.5 124.5t58 119.5q14 29 27.5 57t26.5 55q3 8 5.5 14.5t4.5 11.5q5 12 7.5 19.5t2.5 27.5v29q-10 14 -23 23.5t-31 9.5q-19 0 -36 -16.5t-30 -37.5t-21.5 -41
t-10.5 -27l1 5q-6 -11 -20 -42t-29 -66t-28.5 -66t-18.5 -42v2q-2 -3 -5.5 -9.5t-7.5 -13t-8 -11t-7 -4.5q-21 0 -38 8.5t-28 22.5t-17 31.5t-6 34.5v7q2 19 9.5 37t17.5 36q11 21 20.5 43t11.5 46v8q0 56 -59 56q-23 0 -42.5 -14t-35 -36t-27.5 -50t-20 -55t-12.5 -51.5
t-5.5 -39.5v-5q0 -36 12.5 -64.5t32 -51.5t42.5 -40.5t44 -32.5q16 -11 28 -20.5t13 -12.5q-1 -21 -8 -42.5t-14 -43.5q-9 -23 -15.5 -46.5t-8.5 -49.5zM420 950q-9 5 -20 9.5t-25 4.5q-21 0 -34 -7.5t-21 -18.5t-11.5 -24t-6.5 -23q-2 -4 -2 -6t-2 -4q-2 -8 -7.5 -15
t-10.5 -14q-9 -14 -17 -28t-8 -31v-4q0 -15 13.5 -26t36.5 -11q30 0 53.5 20t39 46.5t23.5 53.5t8 42v11q0 2 -0.5 4t-0.5 4z" />
    <glyph glyph-name="thorn" unicode="&#xfe;" horiz-adv-x="604" 
d="M101 753q-3 -66 -13.5 -143t-22.5 -158q-12 -80 -22.5 -158t-14.5 -150l-2 -73q8 -34 22 -42.5t43 -8.5q26 0 44 15t22 39v-1q1 4 1 8t1 8v-1q0 3 2 13l12 23l9.5 4t24 9.5t32 12.5t34.5 13q22 8 38.5 14.5t28.5 12.5l-1 -1q40 21 82.5 51.5t77.5 68t58.5 81.5t26.5 91
v12q0 46 -20 79t-53 54t-76 31t-88 10q-17 0 -50.5 -4t-71.5 -12q1 13 1.5 23t0.5 18l2 20q0 14 -4 29.5t-12 28t-21.5 21t-32.5 8.5q-20 0 -30.5 -8t-24.5 -28zM220 467l-1 -1q1 2 1.5 4t-0.5 0q5 21 19 33t33 19t41.5 9t43.5 2q35 0 55 -8.5t20 -37.5v-8
q-1 -32 -25.5 -67.5t-60.5 -66t-77.5 -51.5t-77.5 -23q2 31 5.5 60.5t8 55t8.5 46.5t7 34z" />
    <glyph glyph-name="ydieresis" unicode="&#xff;" horiz-adv-x="559" 
d="M158 105v-4q0 -15 4 -29.5t12.5 -26t22 -18.5t32.5 -7q17 0 26.5 5t23.5 29q9 63 28.5 127t45 127t54.5 124.5t58 119.5q28 57 54 111q3 8 5.5 14.5t4.5 11.5q5 12 7.5 19.5t2.5 27.5v29q-10 14 -23 23.5t-31 9.5q-19 0 -36 -16.5t-30 -37.5t-21.5 -41t-10.5 -27l1 5
q-6 -11 -20 -42t-29 -66t-28.5 -65.5t-18.5 -41.5v1q-2 -3 -5.5 -9.5t-7.5 -12.5t-8 -11t-7 -5q-21 0 -38 9t-28 23t-17 31t-6 34v7q2 19 9.5 37t17.5 36q11 21 20.5 43t11.5 46v8q0 56 -59 56q-23 0 -42.5 -14t-35 -36t-27.5 -49.5t-20 -55t-12.5 -52t-5.5 -39.5v-4
q0 -36 12.5 -64.5t32 -51.5t42.5 -41t44 -32q17 -12 29 -21.5t12 -13.5q-1 -20 -8 -41.5t-14 -42.5q-9 -23 -15.5 -46.5t-8.5 -49.5zM334 858v-7q0 -28 18 -47.5t50 -19.5q14 0 28 8t25 21t17.5 27.5t6.5 28.5v5q0 29 -23 45t-51 16q-35 0 -52.5 -24t-18.5 -53zM174 857v-7
q0 -28 18 -47.5t50 -19.5q14 0 28 8t24.5 21t17 27.5t6.5 28.5v5q0 29 -23 45t-51 16q-17 0 -30 -6.5t-22 -17.5t-13.5 -25t-4.5 -28z" />
  </font>
</defs>
</svg>
