<?xml version="1.0" standalone="no"?>
<!DOCTYPE svg PUBLIC "-//W3C//DTD SVG 1.1//EN" "http://www.w3.org/Graphics/SVG/1.1/DTD/svg11.dtd" >
<svg>
<metadata>
Created by FontForge 20120731 at Fri Jan  5 10:25:58 2018
 By Zoltan Hawryluk
(c) 1999-2001, WolfBainX &#38; Apostrophic Lab. All rights reserved. www.apostrophiclab.com or info@apostrophiclab.com for more information.
</metadata>
<defs>
<font id="KomikaSlim-Italic" horiz-adv-x="499" >
  <font-face 
    font-family="Komika Slim"
    font-weight="400"
    font-style="italic"
    font-stretch="normal"
    units-per-em="1000"
    panose-1="2 0 0 0 0 0 0 0 0 0"
    ascent="800"
    descent="-200"
    x-height="723"
    cap-height="786"
    bbox="-30.1429 -171.533 1303.13 1024"
    underline-thickness="50"
    underline-position="-75"
    slope="-12"
    unicode-range="U+0006-2122"
  />
<missing-glyph horiz-adv-x="500" 
 />
    <glyph glyph-name=".notdef" horiz-adv-x="500" 
 />
    <glyph glyph-name=".null" horiz-adv-x="0" 
 />
    <glyph glyph-name="nonmarkingreturn" horiz-adv-x="500" 
 />
    <glyph glyph-name="space" unicode=" " horiz-adv-x="324" 
 />
    <glyph glyph-name="space" unicode="&#xa0;" horiz-adv-x="324" 
 />
    <glyph glyph-name="dotaccent" horiz-adv-x="331" 
d="M308 856q-8 -23 3 -40t38 -17q12 0 24.5 6.5t23.5 17t19 22.5t10 23q8 23 -8.5 36t-40.5 13q-28 0 -46 -19t-23 -42z" />
    <glyph glyph-name="ring" horiz-adv-x="539" 
d="M597 924q4 18 3 36t-9 32.5t-23 23t-37 8.5q-32 0 -59 -14.5t-48 -36.5t-35 -49t-20 -51q-11 -33 4.5 -55.5t47.5 -22.5q30 0 58.5 10t52 27.5t40.5 41t25 50.5zM429 884q4 12 12 27.5t20 28.5t27 22t32 9q10 0 16 -5t8 -12.5t1.5 -16.5t-1.5 -16q-9 -30 -34 -47.5
t-57 -17.5q-4 0 -11 2t-15 11q0 1 0.5 6t1.5 9z" />
    <glyph glyph-name="caron" horiz-adv-x="545" 
d="M455 872q-5 0 -6 3l-34 70q-2 4 -13 3t-15 -1q-17 -19 -19.5 -27t-2.5 -10q8 -18 18 -38.5t18 -40.5q1 -2 4.5 -8t8 -12.5t9 -11.5t6.5 -5h10q1 0 11.5 7.5t25 18t30 21.5t24.5 19q9 7 16 12t12.5 10.5t9 13t6.5 18.5l3 15q-3 13 -13 13q-12 0 -25 -11t-27.5 -24t-29 -24
t-27.5 -11z" />
    <glyph glyph-name="dotlessi" unicode="&#xd;" horiz-adv-x="177" 
d="M13 34q1 -23 10.5 -28.5t32.5 -5.5q20 0 36 11t24 29q49 129 88 252.5t74 252.5l7 22q3 13 7.5 30t6.5 30l7 22q2 11 2 23q0 13 -4.5 23t-13.5 16.5t-24 6.5q-14 0 -24 -6t-25 -23q-19 -72 -43 -144.5t-49 -145t-49.5 -145.5t-43.5 -145l-3 -15q-2 -5 -3 -11t-3 -12
q-2 -13 -7 -23z" />
    <glyph glyph-name="Zcaron" horiz-adv-x="563" 
d="M21 52q-7 -19 0.5 -29t21.5 -23h17q3 0 4.5 -0.5t5.5 -0.5h22q36 0 75 8t79 19h7l4 3q20 5 41.5 9.5t41.5 8.5q32 7 65.5 9.5t68.5 5.5q3 0 8 1t9 1h17q5 0 6 1q8 1 16.5 2t16.5 1q9 0 15.5 8.5t9.5 19.5q5 15 -4 28t-23 18h-56q-36 0 -73 -6t-78 -14q-1 -1 -7 -1h-5
l-2 -0.5t-7 -2.5h-1q-32 -7 -64.5 -12t-66.5 -5l-3 8q5 17 19 36.5t33 40t40 40.5t41 38q2 3 3 4t11 10h3q5 7 9 10.5t6 5.5q17 17 42 36.5t54 42.5q38 33 78.5 68.5t75.5 73.5t62 78t38 82q12 56 -56 56q-9 0 -44.5 -4t-84 -11t-102.5 -17t-100.5 -22t-78 -25t-34.5 -27
q-5 -17 -1.5 -25.5t28.5 -17.5h10q2 0 1 -1h1q3 0 4 -0.5t3 -0.5h11q32 0 65 3.5t68 10.5h8q1 0 1.5 0.5t3.5 0.5q2 0 5 1.5t4 1.5q4 0 5 1q29 4 59.5 8t62.5 4l3 -7q-5 -20 -21 -35t-36 -33l-5 -4l-8 -6l-5 -7l-237 -221l-15 -15l-8 -9l-14 -14h-1l-2 -4
q-26 -23 -52.5 -48.5t-49.5 -51.5t-40 -52.5t-24 -51.5zM478 827q-6 0 -7 3l-34 70q-2 4 -12.5 3t-14.5 -1q-18 -19 -20.5 -27t-1.5 -10q8 -18 18 -38.5t17 -40.5q1 -2 5 -8t8.5 -12.5t8.5 -11.5t6 -5h10q1 0 11.5 7.5t25 18t30 21.5t24.5 19q9 7 16.5 12t12.5 10.5t9 13
t7 18.5l3 15q-3 13 -13 13q-12 0 -25 -11t-27.5 -24t-29 -24t-27.5 -11zM332 276l-1 2q-4 -2 1 -2z" />
    <glyph glyph-name="zcaron" horiz-adv-x="646" 
d="M28 74q-9 -26 -5.5 -41.5t24.5 -32.5h41q40 0 81 7.5t82 18.5t81.5 22.5t79.5 19.5q7 1 33 4.5t55.5 8t55 9t32.5 6.5q9 1 20 4.5t21.5 9t18.5 13t11 17.5q3 15 -1 25t-13.5 16t-22.5 8.5t-26 2.5q-46 0 -94 -7t-97 -18t-97 -24.5t-93 -26.5h-26q6 21 22 41.5t36.5 40
t43 38.5t41.5 37l140 130q30 28 67.5 57.5t73 61.5t63.5 66t39 70l3 15q2 8 3 16.5t-0.5 16t-6.5 12.5t-14 5h-105q-1 0 -16.5 -3t-41 -7.5t-57 -10.5l-63 -12t-61 -12t-50.5 -10q-17 -2 -38.5 -9t-41.5 -18t-36 -25.5t-21 -31.5q-10 -41 33 -41q3 0 9.5 1t9.5 1
q33 11 68.5 22.5t71.5 20.5t71.5 14.5t70.5 5.5h7q5 0 10.5 -0.5t12.5 -0.5h8q6 -3 5.5 -8t-2.5 -9q-2 -12 -12 -23.5t-22.5 -23t-25.5 -21t-22 -16.5q-15 -13 -44 -40t-65.5 -60.5t-77 -70.5t-77 -70.5t-65.5 -60.5t-43 -40q-18 -16 -28 -26.5t-16 -20t-10 -19.5t-8 -24z
M501 823q-6 0 -6 3l-35 70q-1 4 -12 3t-15 -1q-17 -19 -20 -27t-2 -10q8 -18 18 -38.5t17 -40.5q1 -2 5 -8t8.5 -12.5t8.5 -11.5t6 -5h10q1 0 11.5 7.5t25 18t30 21.5t24.5 19q9 7 16.5 12t12.5 10.5t9 13t7 18.5l3 15q-3 13 -13 13q-12 0 -25 -11t-27.5 -24t-29 -24
t-27.5 -11z" />
    <glyph glyph-name="exclam" unicode="!" horiz-adv-x="330" 
d="M119 329q-2 -8 -3 -18t0.5 -18.5t7.5 -14.5t17 -6q13 0 20.5 3.5t18.5 18.5q37 54 71 108.5t67 109t66.5 109.5t69.5 110q17 24 28 38.5t17 35.5q4 18 -5.5 26.5t-28.5 8.5q-23 0 -38.5 -12.5t-29.5 -29.5q-9 -11 -22.5 -30l-27 -38t-23.5 -33t-10 -15q-7 -11 -20.5 -34
t-30 -51t-34.5 -59t-34.5 -59.5t-29.5 -50.5t-19 -33q-12 -20 -16 -33.5t-11 -32.5zM19 64q-2 -8 -3 -19t1.5 -21t8.5 -17t18 -7q18 0 35 8.5t31 22t24 29.5t15 31q3 11 3 23t-3 21.5t-11 15.5t-21 6q-18 0 -34 -9.5t-29 -24t-22 -30.5t-13 -29z" />
    <glyph glyph-name="quotedbl" unicode="&#x22;" horiz-adv-x="404" 
d="M300 536q-8 -20 2 -29.5t30 -9.5q14 0 23 4t15 10.5t11 15.5t11 19q6 11 18 30.5t25 39t23 35t12 17.5q11 16 25 30t27.5 28t24.5 28.5t16 30.5q5 17 1 33.5t-27 16.5q-21 0 -45 -18t-49 -46.5t-49 -63.5t-43.5 -68t-33 -61t-17.5 -42zM120 524q-3 -13 1.5 -26t24.5 -13
q13 0 31 17t38.5 43t42.5 58.5t42 62.5t37 55t28 37q1 3 3.5 8.5t4.5 8.5q7 31 -24 31q-22 0 -46 -16t-47.5 -42t-46 -58t-41 -63t-31 -58.5t-17.5 -44.5z" />
    <glyph glyph-name="numbersign" unicode="#" horiz-adv-x="591" 
d="M172 192q13 0 18.5 -6.5t6.5 -16.5t0 -21.5t0.5 -21.5t6.5 -16.5t19 -6.5q13 0 27 7.5t17 20.5l19 73q4 10 15.5 16t25 9t25.5 3.5t16 0.5h4q1 -2 5.5 -4t5.5 -3q-2 -8 -5.5 -28.5t-3.5 -42.5q0 -21 6.5 -37.5t26.5 -16.5q23 0 37.5 18t23 41.5t12 45t5.5 27.5
q15 18 39.5 21.5t49.5 5t46 8.5t28 34q3 15 -4.5 24t-21 14t-30 6.5t-31.5 1.5h-31q-5 8 -4 20l7 22q5 20 16 30.5t25 15t29.5 6.5t29 6t24.5 12.5t16 26.5l3 8q2 9 2 18q0 10 -11 10h-76l-9 18q3 9 8.5 26t7 34t-4 29.5t-23.5 12.5q-21 0 -33.5 -10.5t-21 -27t-16 -35
t-19.5 -35t-31 -27t-51 -10.5h-5t-8 0.5t-7 2.5t-2 6l29 108q5 16 -5 25t-24 9q-26 0 -43 -18t-25 -37q-4 -6 -10.5 -22t-13 -33.5t-12.5 -33t-9 -20.5l-11 -13q-14 -5 -31.5 -11.5t-33.5 -15.5t-29 -20.5t-17 -26.5l-5 -22q0 -3 1.5 -7t2.5 -4h85q1 0 2 -6t0 -11l-5 -23
q-1 -3 -3.5 -12.5t-3.5 -12.5q-14 -17 -38.5 -22t-49 -9.5t-45.5 -14.5t-28 -36q-5 -20 4.5 -27.5t32.5 -7.5q20 0 40.5 4.5t40.5 4.5zM407 417h21q10 0 12 -14l-5 -23q-11 -37 -32.5 -52t-63.5 -15h-13q-10 0 -8 8l19 74q1 8 11 12.5t22 6.5t22.5 2.5t14.5 0.5z" />
    <glyph glyph-name="dollar" unicode="$" horiz-adv-x="387" 
d="M117 136l-30 -109q-2 -11 9 -19t22 -8q35 0 51.5 17.5t27 40.5t21.5 45.5t36 32.5q1 1 7 3t12.5 4t12.5 4t9 2q25 12 49 30.5t44.5 40.5t35 46t21.5 47q8 31 -2.5 56t-30 43.5t-44.5 32t-47.5 22.5t-37.5 13.5t-14 6.5q6 23 30.5 34.5t53 16t55 3.5t36.5 -2q17 8 23 13
t8 16q6 21 -4.5 32t-26.5 19t-31.5 15t-21.5 21q0 4 2.5 20.5t2.5 34.5t-5.5 32.5t-22.5 14.5q-5 0 -15 -2.5t-21 -7t-20 -10.5t-10 -14l-26 -96q-2 -10 -24 -26.5t-50 -39t-53 -49.5t-33 -57q-7 -25 8.5 -37t42 -18t58.5 -10t58 -12t40.5 -23.5t7.5 -45.5q-8 -34 -33.5 -59
t-66.5 -25q-26 0 -38 13t-21 28.5t-20 28.5t-36 13t-36 -16t-16 -32q-6 -21 -3 -38t11 -31.5t20.5 -28t24.5 -26.5z" />
    <glyph glyph-name="percent" unicode="%" horiz-adv-x="693" 
d="M129 34q7 -11 15 -20t23 -9q16 0 32.5 14t33 36t31.5 49t28.5 52t24.5 45.5t18 29.5q79 111 176.5 208t206.5 188q28 23 53.5 43t34.5 50q6 25 -11.5 34.5t-41.5 9.5q-25 0 -50 -7.5t-50.5 -17t-51.5 -17t-53 -7.5q-23 0 -39 9t-30 19.5t-30 19.5t-39 9
q-49 0 -94.5 -17.5t-83 -47t-64 -67.5t-36.5 -80q-6 -22 -3 -43t14 -37.5t29.5 -27t43.5 -10.5q32 0 64 13.5t61.5 33t55.5 43t47.5 43t36 33t21.5 13.5q19 0 31 -1.5t32 -5.5l-2 -7q-3 -12 -13.5 -22t-20.5 -18l-91 -82q-45 -44 -92.5 -94t-89 -103t-73.5 -109t-47 -111z
M353 75q4 -32 30.5 -53.5t62.5 -21.5q47 0 91.5 16t81 43t63.5 63.5t38 77.5q7 29 5 57t-14.5 50t-36 35.5t-57.5 13.5q-49 0 -91 -22t-74.5 -56.5t-55 -76t-32.5 -79.5l-2 -9q-2 -7 -3.5 -15t-3.5 -15zM458 138q6 19 19 43t32 44.5t42.5 34.5t49.5 14q16 0 24.5 -8
t12 -19.5t2.5 -25t-3 -25.5q-14 -47 -52.5 -74.5t-88.5 -27.5q-5 0 -14.5 1t-10.5 1l-16 20q0 1 1 9t2 13zM224 564q6 19 18.5 37.5t29.5 33.5t38 24t43 9q18 0 28.5 -7.5t5.5 -24.5q-5 -18 -20 -36.5t-35 -33.5t-42.5 -24.5t-42.5 -9.5t-24 7.5t1 24.5z" />
    <glyph glyph-name="ampersand" unicode="&#x26;" horiz-adv-x="450" 
d="M87 367q-8 -29 -1.5 -49.5t21 -36.5t34 -30t37.5 -29q8 -7 8 -17q0 -9 0.5 -18t5 -15t20.5 -6q24 0 43 17.5t33.5 41t24 46t15.5 32.5l20 14q15 1 42.5 3t55.5 8t51 18t29 34q4 14 -3.5 23t-21.5 13.5t-32.5 5.5t-35.5 0.5t-31.5 -1.5t-20.5 -1l-3 13l4 19q2 11 4.5 23.5
t4.5 24.5l3.5 21t2.5 13q1 8 2.5 19t-0.5 21t-8 17t-18 7q-6 0 -13.5 -1.5t-15 -5.5t-14 -9.5t-8.5 -12.5l-36 -143q-2 -7 -12.5 -14.5t-17.5 -7.5h-135q-16 0 -22.5 -7.5t-9.5 -18.5zM219 317l2 0.5t3 0.5l2 -1q2 0 3.5 -3t1.5 -5q-1 0 -3.5 -2.5t-6.5 -3.5l-2 -1
q-2 0 -3 0.5l-1 0.5q-6 2 -6 6q3 2 5 5t5 3z" />
    <glyph glyph-name="quotesingle" unicode="'" horiz-adv-x="159" 
d="M127 534q-8 -23 -3.5 -32t30.5 -9q35 0 57.5 23.5t37 56t22 67t13.5 55.5l10 40t9.5 56t-4.5 49.5t-32 21.5q-22 0 -41.5 -15.5t-26.5 -34.5q-4 -15 -5.5 -28l-3 -26t-4 -26.5t-7.5 -28.5q-12 -43 -27 -84.5t-25 -84.5z" />
    <glyph glyph-name="parenleft" unicode="(" horiz-adv-x="283" 
d="M88 367q-3 -9 -5.5 -22.5t-6.5 -31.5q-6 -28 -11 -61.5t-7.5 -68.5t-0.5 -68t10.5 -58.5t24.5 -41t42 -15.5t37.5 14.5t15.5 34.5q2 3 3 11l1 8q0 3 -2 19t-3.5 34.5t-2 35t0.5 20.5q-5 56 2.5 108t23.5 110q17 68 51.5 132.5t77.5 127.5q11 16 27 32.5t31.5 33t28.5 34
t18 35.5q6 19 -2.5 31t-29.5 12q-34 0 -69.5 -29.5t-70.5 -75.5t-66.5 -101.5t-56.5 -107t-41 -93t-20 -59.5z" />
    <glyph glyph-name="parenright" unicode=")" horiz-adv-x="281" 
d="M14 36q-2 -8 1 -14.5t9.5 -11t15 -7.5t16.5 -3q34 0 68.5 24.5t66 63t59 85.5t49.5 92t37 83t21 59q3 14 10 52.5t13.5 87.5t9 102t-3.5 97.5t-23 73t-50 28.5q-20 0 -32.5 -14t-17.5 -29l-3 -15q7 -50 12 -99.5t5.5 -99.5t-5 -101.5t-19.5 -106.5q-16 -61 -43.5 -113
t-77.5 -106q-14 -16 -32 -31t-35.5 -30t-31 -31.5t-19.5 -35.5z" />
    <glyph glyph-name="asterisk" unicode="*" horiz-adv-x="331" 
d="M490 794q-2 9 -15.5 17t-28.5 8q-18 0 -31 -9q-9 -8 -15.5 -13t-10.5 -8q5 15 6 25q2 11 5 14q5 15 -6 22.5t-31 7.5q-41 0 -64 -29q-21 -21 -24 -48q-9 7 -19 12.5t-21 5.5q-5 0 -9 -0.5t-8 -1.5q-30 -8 -39 -39q-2 -11 -0.5 -20t10.5 -17q11 -5 13 -8t4 -5
q11 -7 13 -11q-12 -7 -18.5 -11.5t-14.5 -8.5q-37 -22 -44 -45q-1 -9 2 -20q15 -21 37 -21q20 0 54 20q-2 -7 -3.5 -12t-3.5 -9q-12 -42 17 -51q34 3 59.5 18.5t34.5 43.5l2 11q30 -15 52 -15q29 0 46 23q9 12 10 22q6 20 -3.5 36t-32.5 19q-3 1 -8.5 2t-12.5 4
q17 9 26 15.5t13 9.5q26 10 39.5 22.5t18.5 26.5q1 3 0.5 7.5t0.5 9.5z" />
    <glyph glyph-name="plus" unicode="+" horiz-adv-x="532" 
d="M205 204l-6 -19q-3 -17 0.5 -28.5t22.5 -11.5q21 0 36.5 11.5t27 30t20.5 41t17 44.5t16.5 41t19.5 30q7 7 27 10t46 4.5t55 2t53.5 3.5t42 8.5t20.5 16.5l14 48q0 4 -6 6q-2 0 -6.5 1t-9.5 2t-9.5 1.5t-5.5 0.5h-168q-7 0 -5 5l2 9q5 19 14.5 38.5t20 38t19.5 37.5
t13 38l4 19q-9 19 -29 19q-19 0 -33.5 -10.5t-26 -25t-19.5 -30.5t-13 -27q-3 -5 -10 -19.5t-14.5 -30.5t-14 -30t-7.5 -19q-11 -16 -30.5 -21.5t-43 -6t-48 0.5t-46 -1.5t-37.5 -12.5t-22 -33q-4 -14 5 -22.5t25 -8.5h130q9 0 9.5 -6.5t-1.5 -13.5l-2 -8q-8 -32 -22.5 -62
t-24.5 -60z" />
    <glyph glyph-name="comma" unicode="," horiz-adv-x="199" 
d="M-22 -125q-4 -14 7 -18t24 -4q18 0 39 12t41.5 30.5t39.5 42.5t34.5 47.5t26.5 44.5t15 35l3 8l7 34q-2 11 -8 19.5t-22 8.5q-23 0 -37 -11.5t-23 -28t-15 -34.5t-12 -30q-9 -14 -24 -34.5t-32 -42t-33.5 -41.5t-28.5 -33l-0.5 -2t-1.5 -3z" />
    <glyph glyph-name="hyphen" unicode="-" horiz-adv-x="394" 
d="M87 335q-7 -20 7.5 -31t32.5 -18h46q33 0 61.5 1t57.5 3t62 6.5t74 10.5q13 7 18.5 15.5t8.5 19.5q4 19 -10.5 29t-34.5 10h-250q-23 0 -45 -11.5t-28 -34.5z" />
    <glyph glyph-name="period" unicode="." horiz-adv-x="140" 
d="M25 56q-8 -23 3 -40t38 -17q12 0 24.5 6.5t23.5 17t19 22.5t10 23q8 23 -8.5 36t-40.5 13q-28 0 -46 -19t-23 -42z" />
    <glyph glyph-name="slash" unicode="/" horiz-adv-x="491" 
d="M12 39q-4 -15 -1 -27t21 -12q21 0 36.5 9t28.5 22.5t23.5 29t19.5 27.5q18 23 45 58t57.5 74t61.5 78.5t56.5 71.5t43 54t21.5 26q3 3 20.5 22t39.5 43.5t44.5 50t36.5 41.5q23 25 43.5 47.5t29.5 51.5q5 20 -1.5 29t-29.5 9q-15 0 -48 -26t-76 -69.5t-93.5 -100.5
t-101 -118t-98.5 -122.5t-86 -115t-63 -94t-30 -59.5z" />
    <glyph glyph-name="zero" unicode="0" horiz-adv-x="655" 
d="M67 251q-13 -51 -8 -96.5t27.5 -80t63 -54.5t100.5 -20q55 0 108.5 19t102.5 51t93 74t79 89t60 95.5t37 92.5q11 42 10.5 94t-17 97t-52 75.5t-93.5 30.5q-64 0 -123 -20.5t-111 -56t-97 -82t-80.5 -98.5t-61 -106t-38.5 -104zM197 272q8 30 24 67.5t38.5 75.5t51.5 74
t63.5 64t73.5 45t82 17q40 0 65.5 -19t37.5 -48.5t13 -63.5t-7 -64q-11 -41 -44 -96t-78 -105t-98 -84.5t-104 -34.5q-41 0 -68 14.5t-41.5 38.5t-16 55t7.5 64z" />
    <glyph glyph-name="one" unicode="1" horiz-adv-x="252" 
d="M120 120l-10 -32q-3 -14 -5.5 -29.5t-1 -28.5t7.5 -21.5t20 -8.5q26 0 45 16t32 39q15 66 35 133t41 134t41.5 134.5t38.5 133.5l4 14l11 49l5 15q-1 19 -19.5 34.5t-38.5 15.5q-7 0 -25 -15t-42 -38.5t-50 -52t-48.5 -55.5t-37.5 -48t-17 -31q-5 -18 2.5 -24t28.5 -6
q10 0 18.5 3.5t16 8t15 8.5t17.5 4q3 0 7 -0.5t6 -7.5l-12 -44q-20 -75 -43.5 -150t-41.5 -150z" />
    <glyph glyph-name="two" unicode="2" horiz-adv-x="503" 
d="M44 122l-24 -88q-4 -11 1.5 -17.5t15.5 -10t21 -5t19 -1.5q23 0 47 4.5t48 10.5t49 11.5t50 7.5q11 1 36.5 1.5t55.5 0.5t54 -0.5t36 -1.5q32 8 40 37q6 19 -1 31.5t-20.5 20t-31.5 10.5t-34 3q-56 0 -110.5 -9t-109.5 -9l3 12q66 44 133 92.5t125.5 103.5t102 116.5
t62.5 132.5q13 54 -2.5 92t-74.5 49h-14q-9 0 -19 1t-21 1h-15q-12 0 -36.5 -2t-54 -7t-61.5 -12.5t-59.5 -17.5t-47 -23.5t-23.5 -30.5q-18 -67 49 -67q25 0 48.5 10t46.5 21.5t47 21.5t51 10q18 0 34 -3t26.5 -10.5t15 -19.5t0.5 -30q-8 -30 -25.5 -59t-41 -55.5
t-50.5 -51t-55 -45.5q-10 -8 -30.5 -23.5t-46.5 -34.5t-55 -40.5t-55.5 -41t-47 -35t-29.5 -23.5z" />
    <glyph glyph-name="three" unicode="3" horiz-adv-x="575" 
d="M29 74q-5 -16 0 -29t16 -22t26 -15t30 -8h76q57 0 121 13.5t121 41.5t101 71.5t61 103.5q9 34 3.5 61.5t-20 51.5t-35 44.5t-42.5 40.5q-3 3 -7 8l-4 5q0 5 14.5 16.5t37.5 28t50 36t51.5 39.5t42.5 39.5t23 35.5q9 33 -10 54t-51.5 32.5t-70.5 15.5t-67 4
q-17 0 -44.5 -2.5t-60.5 -7.5t-67 -13.5t-63.5 -20.5t-50 -28t-26.5 -36q-2 -8 2 -16t11.5 -14.5t17.5 -10.5t20 -4q3 0 4.5 0.5t2.5 0.5q57 25 107.5 39t109.5 14h9q8 0 15 -0.5t14 -0.5h9q12 -3 23 -12.5t7 -21.5q-6 -23 -32 -45.5t-62 -45t-77.5 -44t-77 -41.5t-61 -39.5
t-30.5 -36.5q-12 -43 35 -43q32 0 65 11t65 11q21 0 42.5 -7.5t37.5 -21t24 -31t2 -38.5q-10 -38 -39.5 -62.5t-68 -38.5t-79 -19t-73.5 -5q-32 0 -60 4t-60 4h-30q-17 -9 -21 -21.5t-7 -24.5z" />
    <glyph glyph-name="four" unicode="4" horiz-adv-x="581" 
d="M369 328h73q10 0 9 -7l-69 -266q-8 -28 -3.5 -42t34.5 -14q15 0 26.5 1.5t23.5 20.5q12 45 23 80t23 68t25.5 67.5t30.5 76.5q5 15 16 28.5t22.5 26t21.5 25.5t13 27q4 14 0 28.5t-1 28.5q13 47 36.5 93.5t37.5 96.5l6 19q3 16 3.5 32.5t-12.5 23.5q-3 2 -13 2.5t-13 0.5
h-16q-11 0 -21 -4t-18 -18q-4 -9 -12.5 -29t-19.5 -45t-23.5 -52.5t-24 -52.5t-20 -44.5t-12.5 -28.5q-13 -27 -31.5 -38t-50.5 -11h-190q-7 0 -5 7l2 9q8 32 30.5 62t47.5 58.5t47.5 57.5t30.5 60q10 43 -36 43q-24 0 -53.5 -23.5t-60 -60.5t-59.5 -82.5t-53 -89.5
q-23 -47 -39 -80t-21 -54t2.5 -31t31.5 -12q12 0 21 3.5t18 8.5t18 9t20 6q45 11 91.5 13t92.5 2z" />
    <glyph glyph-name="five" unicode="5" horiz-adv-x="627" 
d="M51 153q-14 -48 2.5 -78t51 -46.5t80 -22.5t87.5 -6q62 0 122.5 20t110.5 56t86.5 84.5t51.5 105.5q8 33 8 69t-12.5 66.5t-39 50t-70.5 19.5h-251q-1 0 -1 4q0 5 -2 10l1 5q1 6 6.5 20t11 29.5t10.5 28.5t6 18q11 16 31 27t43.5 17.5t46.5 9t39 2.5q55 0 107 -8.5
t108 -8.5q23 0 43 6.5t28 31.5q7 28 -12.5 43t-50.5 22t-64.5 8t-54.5 1q-79 0 -156 -16t-160 -39q-8 -7 -16 -12.5t-13 -14.5q-21 -69 -46 -137.5t-42 -137.5q-6 -19 -6.5 -30t16.5 -22q1 -2 13 -2h15q27 0 56 6.5t58.5 15t59.5 15t60 6.5h12q8 0 17 -0.5t18 -0.5h12
q40 -19 57 -45t4 -72q-10 -35 -33.5 -63t-55 -47.5t-68.5 -30t-74 -10.5q-38 0 -70 3.5t-58 26.5q-9 6 -16 18.5t-14.5 25t-16.5 22t-22 9.5q-24 0 -37 -16.5t-17 -35.5z" />
    <glyph glyph-name="six" unicode="6" horiz-adv-x="573" 
d="M76 294q-13 -50 -16 -102t11.5 -94.5t50.5 -70t102 -27.5q64 0 129 24t119.5 64t94.5 92t54 109q7 25 7.5 50t-8 45.5t-26 36t-45.5 22.5h-13q-9 0 -17 1t-17 1h-12q-38 0 -71 -6t-64.5 -17t-63 -26t-66.5 -33h-14q16 59 53 106.5t87 86t109.5 68t121.5 52.5
q18 11 24 21.5t11 26.5q4 15 4 23q0 9 -17 16q-5 0 -15.5 0.5t-15.5 0.5q-22 0 -40 -4t-35.5 -11t-35.5 -17t-41 -22q-134 -75 -222.5 -182.5t-122.5 -233.5zM164 194q8 31 40.5 57t74 44.5t84.5 29t73 10.5q16 0 29.5 -2.5t22.5 -8.5t12.5 -16t-1.5 -26q-9 -33 -33.5 -64
t-58 -55.5t-72 -39t-73.5 -14.5q-21 0 -41.5 5t-35 15t-21 26t-0.5 39z" />
    <glyph glyph-name="seven" unicode="7" horiz-adv-x="529" 
d="M54 47q-5 -21 6.5 -34t35.5 -13q27 0 51 25t44.5 58.5t36.5 66.5t27 48q38 52 83 101.5t93.5 96t100 90.5t103.5 87q5 7 9 14t7 15l7 28l3 8l2 11q1 3 1 5q0 3 2 6l2 8q0 10 -5 20t-13.5 18t-19.5 14.5t-21 10.5h-51q-42 0 -83.5 -5t-83.5 -10t-83.5 -7.5t-82.5 1.5
q-36 -9 -54 -35t-25 -52q-2 -9 -3.5 -16t-3.5 -14q-4 -18 5.5 -26.5t38.5 -8.5q19 0 30 7t20 16.5t18.5 19t23.5 13.5q67 22 133 23t130 1l-5 -24q-74 -59 -137 -120.5t-119 -127t-106 -134.5t-97 -144q-11 -14 -13.5 -21t-6.5 -20z" />
    <glyph glyph-name="eight" unicode="8" horiz-adv-x="624" 
d="M47 153q-11 -38 -2.5 -66.5t30.5 -47.5t55 -29t73 -10q35 0 80 9t93 25t95.5 38.5t87 50.5t68 60.5t38.5 67.5q7 28 2.5 53.5t-17 48.5t-31 42.5t-38.5 34.5l2 9q5 17 24.5 39t42 48t43.5 56t30 64q6 19 4 43t-11.5 45t-26.5 35.5t-42 14.5h-129q-26 0 -60 -13t-70 -35
t-72 -49.5t-65.5 -56t-50 -56.5t-26.5 -49t1.5 -38.5t18 -33.5t18.5 -33t2 -37q-3 -14 -25.5 -37.5t-51 -54t-55 -66t-35.5 -72.5zM146 122l5 24q10 41 39 80t69.5 69.5t87.5 49t94 18.5q27 0 46 -10t29.5 -26.5t13 -37.5t-3.5 -43q-8 -34 -36 -63t-64.5 -50t-77.5 -33
t-76 -12q-10 0 -29.5 1t-40 4.5t-36.5 10.5t-20 18zM294 520q7 28 33.5 58.5t61.5 56.5t73.5 43t68.5 17q48 0 63 -14t3 -56q-12 -47 -36.5 -80.5t-58.5 -54.5t-76.5 -30.5t-90.5 -9.5q-13 0 -22 7t-14 17.5t-6 23t1 22.5z" />
    <glyph glyph-name="nine" unicode="9" horiz-adv-x="564" 
d="M343 299h4q1 -1 3.5 -2.5t1.5 -2.5l-71 -273q-4 -15 7 -18t20 -3q17 0 29.5 7t21.5 17.5t15.5 24t11.5 26.5l44 108q53 123 121.5 242.5t140.5 234.5l3 12q8 30 -3.5 50.5t-34 33t-51 18t-55.5 5.5q-67 0 -137 -23t-131.5 -63t-107 -94.5t-63.5 -117.5q-10 -37 -11.5 -72
t9.5 -62.5t37.5 -44t73.5 -16.5q30 0 60.5 6.5t61.5 6.5zM212 481q10 41 44 79.5t79 68.5t95.5 48t94.5 18q17 0 29.5 -2.5t22.5 -10.5l-3 -16q-5 -15 -14.5 -30.5t-21 -30.5l-23 -30t-19.5 -30q-21 -32 -41.5 -63t-45.5 -55t-58 -39t-78 -15q-22 0 -36 10.5t-21.5 26.5
t-8 35t4.5 36z" />
    <glyph glyph-name="colon" unicode=":" horiz-adv-x="179" 
d="M117 412q-6 -20 -0.5 -38.5t31.5 -18.5q30 0 56.5 18t48.5 36q1 3 4 10.5t3 10.5q6 23 -4.5 41.5t-41.5 18.5q-17 0 -33 -7.5t-29.5 -18.5t-22.5 -25t-12 -27zM28 75q-8 -20 -6 -34t28 -14q16 0 36 6t38 16t31.5 24t18.5 31q2 10 -3 19.5t-14.5 17t-22 12t-24.5 4.5
q-18 0 -32 -8t-24.5 -20t-16.5 -26.5t-9 -27.5z" />
    <glyph glyph-name="semicolon" unicode=";" horiz-adv-x="235" 
d="M-12 -81q-5 -17 4 -21.5t24 -4.5q37 0 69.5 17t57.5 43.5t42 57.5t25 60l7 33l3 8q-2 14 -7 18t-21 4q-27 0 -44 -15t-29.5 -35.5t-23 -42.5t-25.5 -36q-10 -11 -23 -21t-25 -20.5t-21.5 -21.5t-12.5 -23zM189 399q-8 -23 -5 -39t32 -16q16 0 32 5t30 14t24 21.5t13 27.5
q7 26 -5.5 45t-44.5 19q-18 0 -31 -7.5t-22.5 -19t-15 -25t-7.5 -25.5z" />
    <glyph glyph-name="less" unicode="&#x3c;" horiz-adv-x="403" 
d="M248 5q4 -5 11 -5h14q23 0 36 11t18 29q12 44 2.5 88.5t-29 86.5t-43.5 79.5t-42 68.5l2 11q6 22 31 50t59 58.5t73 62t73 61.5t58.5 56.5t30.5 47.5q3 8 3.5 15t-12.5 12h-26q-16 0 -36 -3t-34 -18l-324 -307q-13 -11 -18.5 -18t-7.5 -18l-2 -13q-9 -31 2 -58t31 -52
t43 -48t37 -45q20 -34 31 -75t19 -77z" />
    <glyph glyph-name="equal" unicode="=" horiz-adv-x="376" 
d="M101 426q-5 -20 8 -30t33 -10q18 0 30.5 1.5t26 4.5t30.5 7t44 9q15 3 44.5 4t60 6.5t55.5 18t32 37.5q2 13 2 20q0 8 -17 16h-9q-7 0 -14.5 0.5t-14.5 0.5h-12q-25 0 -72 -3.5t-95.5 -13.5t-86.5 -26.5t-45 -41.5zM69 244q-9 -26 4 -29.5t40 -3.5h40q32 0 75 3
t82.5 12.5t70 26t37.5 43.5q5 23 -3 30.5t-32 7.5q-17 0 -46 -2.5t-63 -8t-69 -13t-64.5 -17.5t-49 -22.5t-22.5 -26.5z" />
    <glyph glyph-name="greater" unicode="&#x3e;" horiz-adv-x="426" 
d="M21 44q-6 -23 5.5 -33.5t34.5 -10.5q15 0 24 1t20 20q66 112 165 204t217 170q15 13 20 24.5t9 27.5q6 22 2 41.5t-14 36.5t-24 32t-26 29l-156 186l-27 12h-3q-18 0 -33.5 -9.5t-20.5 -28.5q-3 -13 -0.5 -26.5t12.5 -24.5q7 -8 24 -29.5t35.5 -45.5t35 -46t24.5 -29
q6 -8 16 -19t18.5 -24t13 -28t1.5 -31q-1 -3 -3 -8l-2 -5q-10 -8 -35 -28.5t-52.5 -43t-52 -43t-33.5 -29.5q-26 -21 -57 -50.5t-59 -62.5t-49.5 -66.5t-29.5 -62.5z" />
    <glyph glyph-name="question" unicode="?" horiz-adv-x="564" 
d="M574 658q-10 -34 -37 -63.5t-62.5 -55.5t-75 -48.5t-73.5 -42t-57.5 -36t-27.5 -30.5l-27 -109q-2 -8 0 -12.5t7 -6.5t11.5 -2.5t12.5 -0.5q22 0 34 5.5t19.5 15t12.5 22t13 27t22 30.5t39 31q48 31 98.5 62t94.5 66.5t76.5 77t46.5 94.5q9 35 2.5 61t-25 43t-47.5 25
t-64 8q-21 0 -59 -6t-83 -17t-92 -27t-87 -35.5t-68 -42.5t-35 -48q-5 -18 -4 -28.5t16 -21.5q4 0 14 -1t14 -1q36 0 71 18.5t73 41t81 41.5t94 19q3 0 9.5 -0.5t13.5 -0.5h22q20 -7 25.5 -20.5t1.5 -31.5zM138 53q-8 -26 5 -39.5t39 -13.5q32 0 61 17.5t36 46.5
q5 23 -12.5 40.5t-40.5 17.5q-31 0 -55.5 -21.5t-32.5 -47.5z" />
    <glyph glyph-name="at" unicode="@" horiz-adv-x="724" 
d="M81 299q-15 -57 -11 -111t29 -95.5t72 -67t119 -25.5q24 0 56 3t63 13t55.5 28t32.5 47q6 20 -5.5 30t-31.5 10q-17 0 -34 -5t-33.5 -10.5t-33 -10.5t-34.5 -5q-55 0 -87 18.5t-45.5 49t-12 71t13.5 85.5q14 56 52.5 116t92.5 109.5t119 81.5t134 32h8q8 0 18 -1.5
t13 -1.5q31 -13 49.5 -38t26 -55.5t6 -64t-9.5 -64.5q-2 -12 -10.5 -37t-22 -50.5t-31 -45t-37.5 -19.5q-21 0 -29 16.5t-9 39t3 44.5t8 34q5 18 14.5 34.5t19.5 32.5t19 32t14 33q6 23 -8 32.5t-39 9.5q-55 0 -108 -26.5t-96.5 -67.5t-74.5 -89.5t-41 -92.5
q-8 -25 -6.5 -48t12 -40.5t29.5 -28t47 -10.5q19 0 37 5.5t35.5 12t34 12t34.5 5.5q12 0 21 -3.5t18 -7.5t18 -7.5t21 -3.5q46 0 84 25.5t67 63t48.5 80t27.5 75.5q16 61 11.5 116.5t-30.5 97.5t-74 66.5t-118 24.5h-13q-8 0 -19.5 -1t-19.5 -1h-12q-81 -15 -155.5 -64
t-134 -114t-100.5 -137.5t-57 -136.5zM371 334q3 13 17 38.5t33 50.5t38.5 43.5t34.5 18.5h22q-2 -9 -5.5 -31.5t-8.5 -46.5l-11 -48q-2 -11 -4 -18.5t-4 -12.5l-2 -8q-8 -23 -29.5 -32.5t-41.5 -9.5q-35 0 -41.5 13.5t2.5 42.5z" />
    <glyph glyph-name="A" unicode="A" horiz-adv-x="526" 
d="M430 27q2 -11 8 -19t22 -8q19 0 32 16t17 31l69 261q-2 21 3.5 63.5t13 93.5t13.5 104.5t5 97t-11.5 71.5t-36.5 28q-29 0 -59.5 -16t-61 -41.5t-59.5 -57.5t-54 -64t-45 -61t-33 -48q-8 -12 -28 -44.5t-43 -68.5t-44 -68.5t-29 -45.5q-23 -13 -36 -23.5t-18 -33.5
q-3 -14 -10.5 -45.5t-10.5 -63.5t2 -56t26 -24q33 0 47.5 21.5t24 49.5t19 55t32.5 39q22 11 47 18t50 10.5t49.5 4.5t45.5 1h53q23 -8 24 -23t-2 -38q-2 -7 -4 -23t-6 -34zM479 586q19 -15 21.5 -46.5t-2.5 -67.5t-15 -71t-16 -57l-6 -23q-9 -10 -37 -17t-60.5 -11
t-62 -5.5t-40.5 -1.5q5 18 17 44t29.5 55.5t38.5 60t43.5 57.5t45.5 49t44 34z" />
    <glyph glyph-name="B" unicode="B" horiz-adv-x="545" 
d="M35 101q-6 -22 4 -40.5t28.5 -32t43 -21t48.5 -7.5q32 0 73.5 10t86 27.5t88.5 41t80.5 51.5t63 59t35.5 62q7 27 0 46.5t-21.5 34.5t-32.5 25.5t-33.5 19.5t-24.5 17.5t-6 18.5q6 21 26.5 45t45 51t47 56t30.5 60q8 34 -4 56.5t-36 36.5t-55.5 20t-61.5 6
q-24 0 -64.5 -3.5t-80.5 -14t-72 -30.5t-40 -53q-4 -14 -4 -22t8 -19q-2 -5 -4 -15t-5 -24q-4 -15 -6.5 -28t-6.5 -25l-6 -23q-25 -94 -60.5 -182.5t-75.5 -182.5l-3 -8t-5 -13zM148 116l5 27q13 51 24 80.5t30 47t52.5 26t92.5 16.5q1 0 10 1t14 1q14 0 34 -2.5t37.5 -8.5
t28.5 -17t7 -27q-9 -29 -42.5 -58.5t-76.5 -53t-87.5 -38.5t-73.5 -15q-23 0 -35 2.5t-20 18.5zM441 642h8q8 0 13 -0.5t12 -0.5h9q17 -7 17.5 -15.5t-3.5 -21.5q-8 -32 -30.5 -64.5t-53.5 -59.5t-68.5 -44t-74.5 -17q5 20 9 40t9 40q6 30 16.5 56t27.5 45.5t43.5 30.5
t65.5 11z" />
    <glyph glyph-name="C" unicode="C" horiz-adv-x="549" 
d="M57 204q-25 -98 20 -151t154 -53q20 0 51 5.5t67 15.5t72.5 24t68 31.5t53.5 38t28 42.5q5 15 -2 25t-22 10q-27 0 -59 -16.5t-68 -36t-76.5 -35.5t-85.5 -16q-38 0 -57.5 12t-27 32t-4.5 46.5t11 56.5q4 18 21 55t42.5 81.5t58 91.5t67.5 85.5t70 63t65 24.5
q9 0 14.5 -2t7.5 -14l-7 -26q-2 -12 -4 -25.5t-0.5 -25t7.5 -19t21 -7.5q21 0 37.5 10.5t28.5 26t19.5 33.5t10.5 33q1 6 4.5 23t4 35.5t-4.5 34t-21 18.5q-59 12 -114 1t-104 -39t-92 -69t-80 -88t-66.5 -96.5t-52 -94.5t-36.5 -82t-20 -59z" />
    <glyph glyph-name="D" unicode="D" horiz-adv-x="552" 
d="M72 247l-9 -33q-2 -11 -4.5 -20.5t-4.5 -19.5l-7 -34l-5 -18q-10 -41 -12.5 -65t7 -36.5t34 -16.5t67.5 -4q74 0 149 26.5t139.5 72t112.5 106t66 128.5q19 70 16 141t-31.5 128t-84 93t-141.5 36h-63q-13 -4 -27.5 -9t-28 -11t-24.5 -14.5t-17 -20.5q-13 -55 -29.5 -108
t-34 -106.5t-35.5 -106.5t-33 -108zM159 200q13 50 26.5 96t29.5 91t35 92.5t42 100.5q17 16 28.5 22t34.5 6q50 0 82.5 -25.5t49.5 -63.5t19.5 -82.5t-7.5 -82.5q-12 -45 -44 -88t-75.5 -77t-95.5 -54.5t-104 -20.5q-5 0 -15 1t-11 1l-13 14q0 1 2.5 10t4.5 20t5.5 22
t5.5 18z" />
    <glyph glyph-name="E" unicode="E" horiz-adv-x="533" 
d="M46 152q-8 -27 0 -54.5t27 -49t45 -35t54 -13.5q22 0 55.5 6.5t71.5 18t76.5 28t71.5 36.5t56 43t30 47q9 39 -35 39q-32 0 -62 -18.5t-60 -40.5t-61 -40.5t-65 -18.5q-24 0 -40.5 10.5t-26 27t-11.5 37.5t4 41q14 53 50.5 84.5t84 50.5t99.5 29t97 19t76.5 22t38.5 38
q5 22 -12.5 37t-40.5 15q-30 0 -59.5 -6.5t-59.5 -14.5t-59.5 -14.5t-57.5 -6.5h-7q-4 0 -8.5 0.5t-7.5 2.5t-3 6l1 7q3 7 3 11t2 11l4 9q13 54 44 81t72.5 37.5t90.5 9.5t99 -3q33 9 41 36q7 29 -9 42t-42 17t-56 2.5t-49 -1.5q-18 0 -44.5 1t-56.5 0t-61 -4.5t-57.5 -12
t-46 -23.5t-25.5 -38q-4 -17 -5.5 -32.5t-2 -31t-2.5 -31.5t-7 -33q-13 -50 -34.5 -99t-44 -96t-43.5 -93.5t-32 -91.5z" />
    <glyph glyph-name="F" unicode="F" horiz-adv-x="595" 
d="M44 139q-6 -18 -10 -42t-1.5 -45.5t13.5 -36.5t35 -15q25 0 33 21q1 6 7.5 25.5t14 41.5t14 42t9.5 27l1 5q1 3 1.5 3.5t1.5 3.5v1q6 16 14.5 39t18.5 46t22 43t25 31q17 11 36 13t45 2h246q7 0 15.5 6t16 14t13 16.5t6.5 13.5q3 12 -1.5 21t-13 14.5t-20.5 8.5t-24 3
q-19 0 -36.5 -1t-36.5 -2q-4 0 -7.5 -0.5t-8.5 -0.5q-15 -2 -29.5 -3t-30.5 -1h-32q-14 0 -28 1t-26 4t-20 8.5t-10 13.5v1v6l6 23q2 3 1.5 4.5t0.5 4.5l5 17q13 51 31.5 90t35.5 47q25 11 68 11h22h12t13 -1l10 -2t10 -1h19q19 0 34 -1t30 -4q2 -1 5 -1q6 0 7 -1
q18 -3 36.5 -5t36.5 -2q23 0 37 11.5t19 30.5q7 25 -9 38.5t-42.5 20.5t-56.5 8.5t-51 1.5h-14q-14 -2 -46.5 -3.5t-70.5 -3.5t-76 -3.5t-63 -2.5q-5 -2 -8 -2h-6h-9q-62 -16 -74 -66q-8 -20 -8.5 -34.5t4.5 -37.5l-14 -66l-4 -15q-13 -48 -31 -93.5t-38 -91.5v-1
q-1 -2 -2.5 -4.5t-3.5 -6.5q-20 -48 -38 -94.5t-31 -92.5z" />
    <glyph glyph-name="G" unicode="G" horiz-adv-x="597" 
d="M55 196q-13 -47 -2.5 -83.5t37 -61.5t66.5 -38t87 -13q52 0 114 14.5t118.5 43.5t100 71t57.5 98q6 19 9.5 49t0 58t-18.5 48.5t-47 20.5h-11q-2 0 -13.5 -3.5t-24.5 -7t-24 -7t-12 -3.5q-8 -1 -21.5 -1.5t-28.5 -0.5t-30 0.5t-19 1.5q-28 -7 -42.5 -25.5t-19.5 -38.5
q-8 -22 6 -37.5t37 -15.5q17 0 33.5 4.5t33 10t32.5 10t32 4.5q5 0 13.5 -0.5t7.5 -7.5l-2 -8q-2 -7 -3.5 -13.5t-3.5 -13.5l-2 -9q-20 -75 -81.5 -114.5t-148.5 -39.5q-51 0 -84 24.5t-35 70.5l9 44l5 12q6 22 25 60t46 82.5t61 89.5t70.5 82t73 60t69.5 23q16 0 21.5 -8.5
t6 -20.5t-1.5 -27t0 -27t9.5 -20.5t27.5 -8.5q34 0 50.5 22t24.5 48q7 24 8 53.5t-7.5 55.5t-27 43.5t-50.5 17.5q-31 0 -58.5 -15.5t-53.5 -32.5q-75 -49 -142 -108t-122 -125t-95 -138.5t-60 -148.5z" />
    <glyph glyph-name="H" unicode="H" horiz-adv-x="541" 
d="M32 95l-7 -25q-1 -12 -1 -24t4 -22.5t12.5 -17t24.5 -6.5q20 0 40.5 11.5t26.5 31.5q2 9 9 32.5t15.5 50t16.5 50t11 33.5q6 21 18 34.5t28 21.5t34.5 12.5t38.5 8.5l11 3h2q8 2 12.5 4t12.5 5h9q10 0 14.5 -9.5t5 -25.5t-2.5 -37t-7 -43q-5 -28 -9 -57t-3.5 -53t9 -39
t29.5 -15q6 0 15 1.5t17.5 4.5t15 7.5t8.5 10.5l110 415q9 38 29 72.5t40 68.5q20 35 38.5 68.5t26.5 65.5q6 23 -2.5 37.5t-32.5 14.5q-23 0 -40.5 -12t-32 -33t-26.5 -49t-25 -59q-17 -44 -37.5 -89t-51.5 -82t-75 -60.5t-108 -23.5q-12 0 -15.5 10t-1.5 21q11 38 26 74
t32 70q17 35 31 68t22 68q4 12 5 24.5t-2.5 22.5t-12 16.5t-23.5 6.5q-25 0 -41 -18t-29 -38q-61 -130 -107.5 -253.5t-81.5 -256.5l-21 -78q-2 -4 -2.5 -9.5t-1.5 -9.5z" />
    <glyph glyph-name="I" unicode="I" horiz-adv-x="494" 
d="M32 49q-3 -14 3 -23t17 -15t25 -8.5t27 -2.5q10 0 40.5 3.5t70 9t82.5 13.5t80 16.5t62.5 18t28.5 17.5q7 25 -8.5 36.5t-39.5 15t-50 2t-40 -1.5q-8 3 -8.5 7.5t-2.5 11.5l9 32l10 45q7 28 12 47l8 30q25 95 51.5 190t66.5 189q7 11 13 12t15 1q23 0 41.5 -3.5
t41.5 -3.5q3 0 13 0.5t13 0.5q16 5 19 13t6 17q6 26 -6.5 41.5t-38.5 23.5q-3 0 -10 0.5t-16 0.5q-8 0 -16 0.5t-11 0.5q-5 0 -12.5 -0.5t-18.5 -0.5q-8 0 -14.5 -0.5l-6.5 -0.5q-5 0 -22.5 -2.5t-37.5 -6.5l-37.5 -7.5t-23.5 -4.5q-18 -4 -50 -4.5t-65 -6t-60 -19
t-35 -43.5q-3 -12 1.5 -21.5t13.5 -15.5t21 -9.5t24 -3.5q26 0 50.5 9t50.5 9q3 0 8 -1t7 -2l2 -14l-137 -525q-5 -15 -17.5 -21t-29 -7.5t-35.5 -1t-36 -2t-30 -10t-18 -25.5z" />
    <glyph glyph-name="J" unicode="J" horiz-adv-x="536" 
d="M47 177q-13 -50 -7 -83.5t29.5 -54.5t62.5 -30t93 -9h57q81 29 147 83t98 129q4 14 13 43.5t20.5 66.5t23.5 78t23.5 77.5t20.5 65.5t13 43l3 13q3 11 7 23t8 27l6 19l5 17q2 6 3 12t3 13l9 41q0 15 -11 24.5t-30 9.5t-33 -7.5t-24.5 -18.5t-17.5 -25.5t-11 -27.5
q-9 -38 -17.5 -75t-16.5 -75q-8 -37 -17 -74t-20 -75q-6 -22 -14.5 -54t-22 -67.5t-32 -70.5t-43.5 -63.5t-57.5 -46t-73.5 -17.5q-43 0 -61 12t-22 30.5t0 39.5t5 39.5t-7 30.5t-36 12q-20 0 -33 -6.5t-30 -19.5l-2 -10q-3 -4 -5 -16q-2 -4 -2.5 -7.5t-1.5 -6.5z" />
    <glyph glyph-name="K" unicode="K" horiz-adv-x="547" 
d="M36 110l-3 -11q-2 -14 -1.5 -31.5t5.5 -32.5t15.5 -25.5t29.5 -10.5q11 0 20.5 1.5t21.5 16.5l6 25v2l3 8l5 21q1 5 1.5 10.5t1.5 10.5l4 18q1 7 2 14.5t3 15.5l7 30l5 20q4 19 14.5 34.5t39.5 15.5q15 0 22.5 -3t20.5 -12l4 -6q1 0 1 -2q1 -1 4.5 -5t8.5 -7
q18 -22 40.5 -45.5t49 -43t58 -32t68.5 -12.5q17 0 28.5 3.5t26.5 14.5l2 11q1 3 1.5 4t0.5 2l3 8q3 16 -0.5 26.5t-12.5 19t-22.5 15t-28.5 13.5q-2 0 -2 1h-1q-15 7 -28.5 14t-21.5 18l-86 91q-5 5 -8 7.5t-8 5.5q-9 8 -16 16.5t-3 27.5l2 6l1 2h1v3h2q17 15 36 30t39 32
l20 16q44 34 90 70.5t85.5 74t68.5 75.5t39 74q3 13 -1.5 28.5t-21.5 15.5q-21 0 -43.5 -12.5t-45.5 -32t-46.5 -44.5t-46.5 -50q-2 -3 -3.5 -4t-1.5 -2q-15 -19 -30.5 -34t-37.5 -34q-10 -8 -27 -19.5t-33 -23t-28 -19.5l-12 -8h-22l-7 4l52 195q6 24 -12.5 36.5
t-41.5 12.5t-34.5 -14t-22.5 -32q-7 -17 -19.5 -51.5t-27.5 -77t-32 -89t-32 -89t-26.5 -77t-16.5 -51.5l-2 -9q-5 -11 -9.5 -27t-8.5 -33l-10 -41q-4 -12 -7.5 -26.5t-5.5 -25.5q-1 -3 -1 -6q0 -2 -1 -5zM336 331v-2h3q2 2 -3 2zM264 218h-1l1 1v-1z" />
    <glyph glyph-name="L" unicode="L" horiz-adv-x="476" 
d="M50 162q-8 -28 -8 -57q0 -28 10.5 -51.5t33 -38.5t58.5 -15q18 0 38.5 4.5t41 11t40 15t36.5 16.5q10 5 35.5 17.5t54 27t53 27t33.5 17.5q17 8 25 23t12 29q5 19 -5.5 28.5t-33.5 9.5q-31 0 -68 -19.5t-76 -43t-79.5 -43t-77.5 -19.5q-8 0 -12 11t-6 18l4 10l3 16
q1 8 5 17l2 10q14 57 35.5 113.5t44 113t44 113t36.5 113.5l7 32q2 6 3 11l2 10l3 14q2 11 -7.5 22.5t-22.5 11.5q-24 0 -41 -16.5t-29 -38.5t-19.5 -43.5t-11.5 -31.5q-1 -5 -7 -24t-12.5 -41t-13 -41t-8.5 -23q-3 -7 -11.5 -28t-20 -49.5t-24.5 -60t-24.5 -59.5t-20 -49
t-11.5 -28l-1 -5q-1 -5 -2.5 -11.5t-3.5 -14.5z" />
    <glyph glyph-name="M" unicode="M" horiz-adv-x="684" 
d="M70 149q-2 -10 -11 -34.5t-13.5 -50t1 -45t31.5 -19.5q17 0 35.5 5t23.5 24q4 12 6 23t3 22t2.5 22t5.5 22q15 55 34.5 107t42.5 103q5 7 9 11.5t12 7.5l7 -5q7 -35 15 -64.5t18.5 -56t26.5 -51t40 -48.5h14q17 0 37 12.5t40.5 32.5t40 44t37 48t31.5 44t23 31q1 1 8 5.5
t10 7.5l1.5 0.5t2.5 0.5q2 0 2.5 -0.5l0.5 -0.5q2 -3 3.5 -7.5t2.5 -5.5v-18q0 -11 -0.5 -22t-0.5 -19v-9l-66 -252q-2 -8 6.5 -11t16.5 -3h9q35 0 55.5 22t32.5 52.5t17.5 63t11.5 52.5q11 43 17.5 86t12.5 86t13 86t18 85q11 39 25 77t25 76q3 16 -5 30.5t-29 14.5
q-15 0 -31.5 -11.5t-25.5 -24.5q-36 -56 -71 -109.5t-71 -105.5t-75 -103.5t-84 -103.5q-2 -3 -4.5 -4t-5.5 -3l-4 -1q-16 0 -24.5 27.5t-12 63.5t-3 71.5t2.5 50.5l27 217q0 6 -0.5 13.5t-2.5 13.5t-7 10.5t-14 4.5q-20 0 -42.5 -22.5t-46.5 -60t-47.5 -86t-46 -100.5
t-42 -103.5t-34.5 -95.5t-24.5 -75.5t-12.5 -44.5z" />
    <glyph glyph-name="N" unicode="N" horiz-adv-x="582" 
d="M44 40q-4 -13 4 -26.5t22 -13.5q26 0 40 17.5t22 37.5q3 11 9.5 35t15.5 54.5t18.5 64t18 64t15.5 54.5t11 36q1 3 4.5 14t8 23.5t9 23t6.5 13.5q1 1 4 6t6 7h8q1 -2 5 -9.5t5 -10.5l27 -122q2 -10 7.5 -30.5t12 -42.5t12 -40.5t8.5 -24.5q5 -14 11.5 -35t16.5 -40.5
t25 -33.5t36 -14q27 0 49 17t39 40t29 48t20 40q4 11 15 42t23 66t22 66t13 43l5 19q5 17 10.5 38t10.5 44l10 35l8 28q5 20 10 41t12 41l8 27q0 14 0.5 28.5t-2.5 26.5t-11.5 19.5t-27.5 7.5q-17 0 -29.5 -13.5t-21.5 -32t-14.5 -37t-9.5 -28.5q-18 -68 -31 -135t-32 -136
l-6 -26q-4 -16 -10 -35t-11 -38l-7 -23q-2 -3 -5.5 -11.5t-8.5 -17.5t-11 -15.5t-12 -6.5q-11 0 -21 15t-18.5 38t-15.5 51.5t-12 55t-7.5 48.5t-3.5 33l-9 82q-1 6 -3.5 24t-6 37.5t-6.5 37.5l-4 24q-14 23 -36.5 39t-54.5 16q-14 0 -25 -8.5t-19.5 -20.5t-14 -24.5
t-8.5 -20.5q-3 -9 -10.5 -31t-15 -46t-13.5 -45t-8 -29l-6 -21q-5 -19 -11.5 -41t-12.5 -45l-8 -36l-22 -79q-15 -55 -27.5 -106.5t-22.5 -116.5z" />
    <glyph glyph-name="O" unicode="O" horiz-adv-x="831" 
d="M71 256q-15 -62 -5 -109.5t40.5 -80t78.5 -49.5t110 -17q94 0 189.5 31.5t177.5 87.5t143 133.5t86 169.5q17 64 7 119.5t-42 95.5t-84 63t-118 23q-62 0 -125.5 -19t-123.5 -51.5t-114 -77.5t-98 -96.5t-75.5 -108.5t-46.5 -114zM195 291q9 34 32 72.5t55.5 77.5
t72 74.5t82 62.5t85.5 43.5t81 16.5q50 0 87.5 -22.5t60.5 -58.5t29.5 -81t-4.5 -90q-10 -38 -33 -74.5t-56 -69t-73 -60t-83 -47.5t-86 -31.5t-82 -11.5q-48 0 -85 13.5t-59.5 39t-29.5 62.5t6 84z" />
    <glyph glyph-name="P" unicode="P" horiz-adv-x="569" 
d="M20 21q4 -15 11.5 -18.5t20.5 -3.5q8 0 19 3.5t21 9.5t17.5 13.5t9.5 14.5l42 152q1 4 14.5 10.5t34 14t45.5 16t47.5 16.5t40 14.5t24.5 9.5q46 21 96 51.5t94 68t77.5 80.5t45.5 90t0.5 80t-40 54t-70 30.5t-87.5 9.5q-14 0 -42.5 -3t-64 -9.5t-73 -15.5t-70 -20.5
t-55 -26.5t-27.5 -32q-5 -18 0.5 -38.5t19.5 -32.5l-4 -12l-4 -19q-1 -5 -2 -9t-4 -9l-2 -12q-28 -97 -59.5 -190t-57.5 -190l-7 -34q-3 -15 -6 -35.5t-5 -27.5zM208 328l2 7l11 52l10 28l2 7q0 3 7.5 20t17 39l19 44t14.5 34q11 25 31 40.5t45 23.5t52 10.5t53 2.5
q25 0 43.5 -3t30 -11.5t14.5 -23.5t-3 -39q-6 -25 -26 -52t-48.5 -53.5t-63 -50.5t-70 -42t-69.5 -29t-61 -11h-8q-3 0 -3 7z" />
    <glyph glyph-name="Q" unicode="Q" horiz-adv-x="682" 
d="M421 39q3 -5 11.5 -18.5t18 -28.5t17.5 -28t11 -19q9 -11 28 -11t35.5 11.5t22.5 27.5q6 19 -2 35t-18.5 31.5t-18.5 32.5t-3 38q4 14 15.5 28.5t25.5 28.5t29.5 27.5t29.5 25.5q51 56 87.5 113.5t53.5 120.5q9 34 7 76.5t-18 80t-48.5 62.5t-84.5 25q-39 0 -79.5 -16
t-74.5 -35q-77 -39 -143.5 -87.5t-120 -104.5t-91 -119t-55.5 -131q-12 -43 -13 -81.5t14 -67.5t50 -46t95 -17q51 0 100 16t98 36h9q-1 -1 4.5 -2t7.5 -4zM153 191q14 55 44 110.5t74 106.5t99.5 95t120.5 75q18 8 42 20t47 12q37 0 56 -20t25.5 -49t3.5 -60.5t-9 -54.5
q-3 -9 -11.5 -28.5t-21.5 -43t-29.5 -48.5t-33.5 -46t-34.5 -34t-33.5 -13q-18 0 -25 11t-12 24t-13.5 24t-27.5 11q-14 0 -22 -2t-13.5 -6.5t-8.5 -11.5t-7 -17q-5 -16 -2.5 -29.5t7 -27t7 -26.5t-1.5 -28q-4 -14 -22 -24t-40.5 -16.5t-45 -10t-34.5 -3.5q-30 0 -48.5 9
t-27 24.5t-8.5 35.5t6 41z" />
    <glyph glyph-name="R" unicode="R" horiz-adv-x="608" 
d="M20 38q2 -12 8.5 -25t24.5 -13q24 0 41 12t29 31t19.5 42.5t13 46t9.5 42t8 31.5q8 7 17.5 9.5t20.5 2.5q7 0 16 -15t21.5 -38t30.5 -49.5t42.5 -49.5t57 -38t74.5 -15q12 0 25 1.5t25 5t21 10.5t12 19q5 16 -9.5 27.5t-38.5 22.5t-52.5 22.5t-50.5 27.5t-34 38t-2 53
q3 9 28.5 26t62 40t79.5 51.5t82.5 61t69.5 68.5t41 74q10 39 -4.5 66t-45.5 43.5t-72.5 24t-84.5 7.5q-66 0 -122.5 -9t-100.5 -31t-76 -58t-50 -91q-4 -13 -13.5 -42.5t-19.5 -62.5t-18.5 -61t-10.5 -38l-6 -21q-6 -16 -11.5 -36t-13.5 -43l-8 -35l-6 -29q-3 -8 -6 -18.5
t-5 -21.5t-5.5 -21.5t-6.5 -20.5zM214 369q13 48 26.5 91.5t33.5 93.5q8 21 35 36.5t60 25t66.5 14t54.5 4.5q19 0 37 -1.5t32 -6.5t23.5 -14.5t13.5 -26.5q0 -1 -1.5 -6t-2.5 -12l-4 -18q-12 -41 -48.5 -84.5t-87 -79t-108.5 -58t-113 -22.5q-5 0 -13.5 1t-9.5 2l-6 7l1 6
q2 4 4 14z" />
    <glyph glyph-name="S" unicode="S" horiz-adv-x="585" 
d="M55 194q-14 -53 -1.5 -90t43.5 -60t76.5 -33.5t98.5 -10.5q70 0 128.5 23.5t104 63.5t76.5 92.5t46 110.5q12 46 -8 78t-57 54.5t-83.5 38t-86.5 28.5t-65 26t-20 30q1 3 2.5 8t1.5 6q25 20 51 38.5t53.5 33t56.5 23t60 8.5q16 0 27.5 -4.5t22 -10t21.5 -10t25 -4.5
q18 0 30.5 11.5t17.5 27.5q6 22 -2 40.5t-24.5 31.5t-38.5 20.5t-43 7.5q-29 0 -66.5 -10.5t-78 -29t-81 -43t-74 -52t-57.5 -56.5t-31 -57q-8 -29 4.5 -48.5t37.5 -33t59 -22.5t69.5 -18t69 -20t57.5 -27.5t35 -41t1 -61.5q-21 -81 -80.5 -122.5t-147.5 -41.5
q-41 0 -63.5 11.5t-33.5 28t-15.5 36.5t-9.5 36.5t-15 28t-32 11.5q-51 0 -61 -46z" />
    <glyph glyph-name="T" unicode="T" horiz-adv-x="545" 
d="M198 35q-3 -16 4 -25.5t24 -9.5q36 0 51 17.5t28 46.5q28 67 54.5 130t52 126t48.5 126.5t44 131.5q12 19 34.5 28.5t49 14t54.5 7t52.5 8.5t42.5 17.5t24 35.5q1 3 1 9t-1.5 12t-5 10t-8.5 4h-68q-15 -4 -46 -10.5t-70 -14t-82 -15.5t-81.5 -15.5t-69 -13t-45.5 -8.5
q-8 -2 -25.5 -4t-36.5 -4t-35.5 -3.5t-22.5 -1.5q-20 -7 -25.5 -16t-10.5 -24q-2 -12 -2 -22q0 -9 17 -16h8q7 0 15 -0.5t15 -0.5h9q21 0 38.5 0.5t34.5 2t36.5 4.5t45.5 9q17 -6 20 -15l-5 -24q-14 -55 -33.5 -109.5t-40.5 -108.5t-40.5 -107.5t-33.5 -107.5l-7 -34
q-2 -5 -2.5 -9.5t-2.5 -8.5z" />
    <glyph glyph-name="U" unicode="U" horiz-adv-x="493" 
d="M98 339q-7 -27 -15.5 -62t-14 -73t-5 -74.5t11.5 -65t35.5 -46.5t67.5 -18q57 0 106.5 19.5t90.5 52.5t74 76.5t56 90.5q13 47 25 87t23 78t22 75.5t22 79.5l11 42q8 27 12 51.5t12 63.5q-5 28 -40 28q-23 0 -39.5 -10.5t-23.5 -30.5l-5 -17q-2 -11 -5.5 -21.5
t-7.5 -21.5l-4 -16q-13 -48 -20 -96t-21 -98q-5 -19 -15.5 -50.5t-26 -67.5t-35.5 -73t-44.5 -66.5t-54 -48t-62.5 -18.5q-25 0 -37.5 16t-16.5 40.5t-1.5 53.5t8.5 55l15 68q3 8 5 15t3 12l2 5q3 10 11.5 32t19 49t22.5 56.5t23.5 56.5t20.5 49t14 32l5 9q4 17 -1 31
t-28 14q-16 0 -28.5 -9t-21.5 -18q-25 -44 -46.5 -85.5t-39.5 -82t-32.5 -82.5t-26.5 -87z" />
    <glyph glyph-name="V" unicode="V" horiz-adv-x="476" 
d="M162 662l-2 -7q0 -2 -1 -13.5t-1.5 -24t-1.5 -24t-2 -13.5q-12 -78 -21.5 -140t-14 -120t-2 -118.5t14.5 -133.5q2 -11 6 -23t10.5 -22t17 -16.5t26.5 -6.5q15 0 26.5 8t17.5 19q48 81 93.5 162t91 162.5t93 162.5t99.5 162q0 1 1.5 5.5t1.5 7.5q8 20 -2 31t-33 11
q-33 0 -67.5 -39t-69.5 -97.5t-67.5 -127t-61.5 -127t-52 -97.5t-37 -39q-10 0 -14.5 15.5t-6 39.5t-0.5 52.5t3.5 54.5t5 45.5t3.5 25.5q0 5 2 14t5 23q4 20 9.5 44.5t11 47.5t10 42t6.5 28q2 23 -5.5 42t-37.5 19q-20 0 -35 -8.5t-20 -26.5z" />
    <glyph glyph-name="W" unicode="W" horiz-adv-x="762" 
d="M398 220q10 0 18.5 -16.5t17 -40.5t19.5 -53t25.5 -53t34 -40.5t46.5 -16.5q24 0 49 23t49 59t46 79.5t39.5 84t29.5 73t16 46.5l2 11l7 27q4 14 9.5 32.5t10.5 37.5l9 33l7 28l8 34q8 23 14 50t12 50l10 35q1 21 -4 38.5t-32 17.5q-33 0 -52 -28q-17 -73 -35 -146
t-41 -145t-53 -144t-71 -143q-1 -3 -12 -10.5t-15 -8.5q-12 -4 -20.5 8t-15 31.5t-10.5 44.5t-6.5 48t-3.5 40.5t-1 23.5q1 17 10 47t20 65.5t20 71.5t10.5 65.5t-8 48t-35.5 18.5q-15 0 -33 -5t-26 -21l-88 -247q-3 -7 -15 -25.5t-29 -42t-37 -48.5t-39 -45.5t-34.5 -32.5
t-23.5 -10q-10 2 -12.5 20.5t-0.5 45t7 58t10.5 59t10.5 49t6 27.5q9 30 20.5 59t23.5 58.5t23.5 58.5t19.5 59q5 20 1 31t-30 11q-28 0 -50 -14.5t-38.5 -38t-28.5 -52t-20.5 -56t-14.5 -52t-10 -38.5q-23 -85 -33.5 -167t-12.5 -167q-3 -16 -3 -36t5 -37.5t18 -29.5
t36 -12q11 0 18.5 1t21.5 8q30 17 62 43.5t62 55.5t56.5 57t44.5 48q1 0 4.5 1t4.5 1z" />
    <glyph glyph-name="X" unicode="X" horiz-adv-x="602" 
d="M21 42q-5 -19 2 -30.5t30 -11.5q21 0 38 14l134 163q3 4 14 17.5t24.5 28t27.5 26t24 11.5h8l28 -34q5 -10 20.5 -35.5t32.5 -54t32 -54t20 -35.5q5 -9 15 -12t21 -3q14 0 27.5 7.5t17.5 21.5l1 7q-5 34 -19.5 69.5t-32 70t-36 66.5t-31.5 60q-6 8 -6.5 11t2.5 14
q2 5 3.5 7.5t4 5t6.5 6t11 11.5q11 9 29 25.5t35.5 33t30.5 29t15 13.5q16 16 44.5 37.5t58 46t53.5 49.5t30 48q4 14 -3 26.5t-26 12.5q-23 0 -51.5 -18.5t-59.5 -45.5t-62.5 -59.5t-59.5 -59.5t-50.5 -45.5t-35.5 -18.5q-1 0 -2 0.5l-1 0.5q-3 3 -9.5 10.5t-8.5 10.5
q-2 6 -8.5 22.5t-13.5 35t-13.5 35.5t-8.5 24q-5 11 -10 27t-12.5 30.5t-20 25t-31.5 10.5q-26 0 -39 -11.5t-21 -34.5q-5 -24 8.5 -47t24.5 -43q3 -10 12 -35.5t19.5 -54t20 -53.5t14.5 -34q0 -3 0.5 -10.5t0.5 -8.5q-1 -5 -4.5 -11.5t-7.5 -9.5q-30 -28 -70 -64.5
t-78 -76.5t-68 -81t-40 -78z" />
    <glyph glyph-name="Y" unicode="Y" horiz-adv-x="489" 
d="M102 52q-2 -8 -2.5 -17.5t2.5 -17t10 -12.5t21 -5q23 0 46 12t31 35q17 42 32.5 79.5t33 73.5t39.5 72t51 75q9 11 27.5 34t41 52.5t47.5 62t48 61.5t41.5 52t28.5 33q15 19 22 36t15 37q4 16 0 27.5t-27 11.5q-26 0 -45.5 -15.5t-34.5 -36.5t-27 -43t-23 -35
q-6 -8 -19 -24t-29 -35.5t-33.5 -40.5t-33.5 -40.5t-28.5 -35t-18.5 -22.5q-8 -11 -18 -12t-21 -1q-32 0 -45 12.5t-14 39.5q1 5 3 17.5t6 23.5l2 9q5 21 14 41t19.5 39.5t20 39.5t15.5 41q4 17 -3.5 32.5t-30.5 15.5q-30 0 -52.5 -19.5t-38.5 -47.5t-27 -60t-17 -56
l-10 -31q-11 -41 0 -74.5t28.5 -59.5t32.5 -45.5t11 -31.5q-8 -31 -20.5 -61.5t-25 -61.5l-25 -62t-20.5 -62z" />
    <glyph glyph-name="Z" unicode="Z" horiz-adv-x="563" 
d="M21 52q-7 -19 0.5 -29t21.5 -23h17q3 0 4.5 -0.5t5.5 -0.5h22q36 0 75 8t79 19h7l4 3q20 5 41.5 9.5t41.5 8.5q32 7 65.5 9.5t68.5 5.5q3 0 8 1t9 1h17q5 0 6 1q8 1 16.5 2t16.5 1q9 0 15.5 8.5t9.5 19.5q5 15 -4 28t-23 18h-56q-36 0 -73 -6t-78 -14q-1 -1 -7 -1h-5
l-2 -0.5t-7 -2.5h-1q-32 -7 -64.5 -12t-66.5 -5l-3 8q5 17 19 36.5t33 40t40 40.5t41 38q2 3 3 4t11 10h3q5 7 9 10.5t6 5.5q17 17 42 36.5t54 42.5q38 33 78.5 68.5t75.5 73.5t62 78t38 82q12 56 -56 56q-9 0 -44.5 -4t-84 -11t-102.5 -17t-100.5 -22t-78 -25t-34.5 -27
q-5 -17 -1.5 -25.5t28.5 -17.5h10q2 0 1 -1h1q3 0 4 -0.5t3 -0.5h11q32 0 65 3.5t68 10.5h8q1 0 1.5 0.5t3.5 0.5q2 0 5 1.5t4 1.5q4 0 5 1q29 4 59.5 8t62.5 4l3 -7q-5 -20 -21 -35t-36 -33l-5 -4l-8 -6l-5 -7l-237 -221l-15 -15l-8 -9l-14 -14h-1l-2 -4
q-26 -23 -52.5 -48.5t-49.5 -51.5t-40 -52.5t-24 -51.5zM332 276l-1 2q-4 -2 1 -2z" />
    <glyph glyph-name="bracketleft" unicode="[" horiz-adv-x="350" 
d="M20 47q-4 -16 10 -31.5t32 -15.5h181q7 0 15.5 4.5t15.5 10.5t12.5 13t7.5 12q1 6 -1 13.5t-5.5 15t-9.5 12.5t-12 5h-114l-10 15l6 26q2 3 2 5t1 4l3 13q7 19 19.5 59t28 90.5t32 106t32 106t28 90.5t19.5 59q1 1 4 6t8 10.5t8 5.5h114q23 0 34.5 13t15.5 29
q4 13 2.5 19t-16.5 14q-27 4 -47 6.5t-37.5 4.5t-35 3t-40.5 1h-42q-17 -7 -26 -15t-20 -20q-44 -175 -93.5 -343.5t-117.5 -338.5z" />
    <glyph glyph-name="backslash" unicode="\" horiz-adv-x="391" 
d="M155 682q5 -18 15 -56t22.5 -86.5t25.5 -102t24.5 -102t20.5 -87t13 -56.5q0 -5 3.5 -25t8 -43.5t8.5 -43.5t6 -25q2 -23 13 -39t39 -16q22 0 29.5 13t11.5 27q9 29 5.5 53t-9.5 50q-16 78 -30.5 154.5t-32 151.5t-38.5 148t-50 145q-5 12 -16 17t-24 5
q-23 0 -30.5 -13.5t-11.5 -27.5q-4 -12 -6 -21t3 -20z" />
    <glyph glyph-name="bracketright" unicode="]" horiz-adv-x="321" 
d="M14 38q-3 -15 -1 -26.5t22 -11.5h8l172 14q10 5 21.5 13.5t16.5 19.5q22 86 49.5 171t56.5 169.5t56.5 169t50.5 170.5l2 7l8 38q-3 23 -14.5 35t-39.5 12q-21 0 -44.5 -4t-47.5 -10l-48 -12t-46 -9q-18 -11 -28.5 -21t-15.5 -29q-3 -11 -2.5 -17.5t17.5 -13.5h7
q4 0 10 -0.5t11 -0.5h5q27 0 53 8t52 8q5 0 10.5 -0.5t4.5 -7.5l-14 -55q-18 -67 -40.5 -133.5t-45.5 -132.5t-45.5 -133t-40.5 -134q-14 -21 -38 -26t-48.5 -8.5t-45.5 -12.5t-28 -37z" />
    <glyph glyph-name="asciicircum" unicode="^" horiz-adv-x="415" 
d="M363 633q11 0 14 -5l76 -107q4 -6 10 -6h16q13 0 27 9.5t17 22.5l1 3q0 2 0.5 9t-1.5 10q-18 28 -38.5 60.5t-37.5 64.5q-3 3 -7.5 12.5t-9.5 20t-11 18.5t-10 8h-21q-1 0 -22 -11.5t-49 -27.5t-57 -33.5t-47 -28.5q-19 -11 -33 -19t-24 -16.5t-17 -19.5t-12 -28l-5 -24
q7 -19 29 -19q23 0 49 16.5t53 37t55 37t55 16.5z" />
    <glyph glyph-name="underscore" unicode="_" horiz-adv-x="676" 
d="M-2 -75q-4 -15 7 -22t25 -10h470q5 0 19.5 1t30.5 2.5t30.5 2.5t19.5 1q14 9 31 21t20 28q2 8 1.5 11t-9.5 10q-17 0 -52.5 0.5t-81.5 0.5q-45 0 -94 1.5t-95 1.5q-44 0 -79 0.5t-52 0.5h-45q-17 0 -40 -1.5t-45 -7t-39 -15.5t-22 -26z" />
    <glyph glyph-name="grave" unicode="`" horiz-adv-x="356" 
d="M406 809q1 2 2.5 7.5t1.5 7.5q4 11 3 36.5t-10 51.5t-26.5 46t-47.5 20q-16 0 -26 -5.5t-12 -13.5q-4 -11 -1 -22t8.5 -22t11.5 -21.5t8 -20.5q2 -5 1.5 -17.5t2.5 -25.5t12.5 -23t31.5 -10q11 0 21.5 3.5t18.5 8.5z" />
    <glyph glyph-name="a" unicode="a" 
d="M354 21q1 -19 8.5 -20t26.5 -1q21 0 35.5 10t23.5 25t14.5 32t10.5 32q10 31 13 61.5t11 61.5l2 8l10 27l2 9q20 13 28 20.5t13 22.5q4 12 1 21t-8.5 17.5t-11.5 16.5t-7 18q0 8 2 28t4 43t4.5 43.5t4.5 28.5q2 11 3.5 26t6.5 35q6 28 8.5 58t-3 55.5t-20.5 42t-44 16.5
q-18 0 -40.5 -11.5t-44 -27t-39 -30.5t-25.5 -21q-65 -52 -114 -118.5t-85 -138.5t-61 -145t-43 -137q-2 -11 -5.5 -26.5t-3 -29.5t8 -23.5t27.5 -9.5q26 0 47 21q4 5 7 23l6.5 26t7 27.5t7 24t5.5 15.5q3 11 9.5 23t22.5 17q48 7 95.5 11.5t95.5 4.5q7 0 15 -1t10 -1l3 -14
l-3 -13q-2 -13 -4.5 -29.5t-6.5 -35.5l-11 -48q-2 -7 -3 -13.5t-4 -13.5q-3 -13 -6.5 -26t-5.5 -17zM206 331q4 11 18 36t34.5 56.5t45.5 65t50 61.5t48.5 46t40.5 18q10 0 13.5 -15.5t2.5 -39t-6 -52t-10 -54.5t-10 -45.5t-6 -25.5l-2 -9q-2 -4 -3 -7.5t-2 -8.5l-5 -23
q-12 -13 -32.5 -20t-43.5 -10.5t-44.5 -4t-34.5 -0.5h-23q-16 0 -25.5 7t-5.5 25z" />
    <glyph glyph-name="b" unicode="b" horiz-adv-x="602" 
d="M27 65q-4 -20 8.5 -32.5t32 -19.5t42 -10t38.5 -3q36 0 84 10.5t100 29t103.5 44t95 56.5t75 65.5t41.5 71.5q8 30 0 50t-25 33.5t-39.5 22t-43 17t-36 18t-18.5 25.5q0 3 4 7.5t7 5.5q22 14 49 31t52.5 37t45 42.5t26.5 47.5q6 22 0 39.5t-19.5 31t-33 22.5t-41.5 13
h-18q-11 0 -24.5 0.5t-24.5 0.5h-17q-22 0 -52.5 -0.5t-64.5 -4t-68.5 -10.5t-63.5 -19.5t-50.5 -32t-28.5 -47.5q-1 -5 -2 -11t-1 -7l35 -39l-2 -9q-2 -7 -3.5 -15.5t-4.5 -19.5l-6 -16q-28 -110 -66 -210.5t-83 -206.5zM143 125l2 5q3 15 4 17l1 5q4 9 13 31.5t19 48
t19.5 48t13.5 32.5q6 13 19.5 24t30.5 16h67q22 0 59.5 -3t72.5 -12t58 -25t16 -42q-11 -41 -52.5 -74.5t-94.5 -56.5t-108.5 -35.5t-94.5 -12.5h-10q-8 0 -18 1.5l-10 1.5l-12 11zM275 450q2 7 4.5 23t6.5 33l12 57l3 13q5 21 28.5 34t52.5 20t57.5 9t42.5 2q7 0 20.5 -2.5
t27 -7t23 -12t7.5 -17.5q-1 -3 -7.5 -10.5l-6.5 -7.5q-21 -16 -52.5 -40.5t-67.5 -47t-72.5 -38.5t-65.5 -16q-5 0 -8 0.5t-5 7.5z" />
    <glyph glyph-name="c" unicode="c" horiz-adv-x="585" 
d="M62 226q-16 -64 -8.5 -107t36 -69.5t76 -38t112.5 -11.5q20 0 50.5 5t65 14t70 22t65 29.5t50.5 36t27 41.5q5 16 -4.5 25.5t-29.5 9.5q-30 0 -64.5 -17t-73.5 -37.5t-82 -37.5t-88 -17q-37 0 -60.5 13.5t-34.5 36t-11.5 51.5t8.5 59q15 59 47 112.5t76 101.5t97 91
t110 81q15 12 21 14.5t21 2.5q20 0 27 -9t8 -22t-0.5 -29t-0.5 -29t9 -22t29 -9q14 0 22.5 4.5t14.5 12t10 18t8 21.5q6 21 7.5 50.5t-4.5 56t-22 45.5t-45 19q-42 0 -86.5 -18t-89.5 -47.5t-88.5 -67.5t-82 -77.5t-70 -77t-53.5 -67.5q-28 -38 -43 -81.5t-26 -81.5z" />
    <glyph glyph-name="d" unicode="d" horiz-adv-x="642" 
d="M57 36q-3 -11 2 -23.5t18 -12.5h45q67 0 133.5 16t128.5 45t117 69t100 89.5t77 106t48 117.5l4 13q1 4 1.5 8.5t2.5 9.5l8 32q-1 39 -17.5 72.5t-44.5 61t-65.5 48.5t-78.5 35.5t-84.5 22t-83.5 7.5q-24 0 -59 -8t-68.5 -23.5t-60 -37.5t-33.5 -50q-5 -14 1 -23t20 -9
q15 0 29 5q11 4 27 4q11 0 15.5 -7t5 -16.5t-1 -19t-2.5 -14.5l-14 -50l-4 -18q-1 -4 -2 -8.5t-4 -9.5l-37 -146q-7 -19 -11 -36l-18 -70q0 -2 -3.5 -11.5t-8 -21.5t-9 -23.5t-6.5 -17.5q-5 -13 -15.5 -27l-21 -28t-19.5 -27t-11 -24zM228 127v2q19 79 34.5 147t34.5 139
l34 128q8 23 11 41l13 45l11 14l2 2h4q3 0 9.5 0.5t8.5 0.5q58 0 107 -15t82 -44t46.5 -71t-0.5 -95q-7 -24 -27 -57t-49 -69t-65 -71t-74 -63t-76.5 -45t-72.5 -17q-29 0 -33 28z" />
    <glyph glyph-name="e" unicode="e" horiz-adv-x="611" 
d="M26 56q-6 -20 0.5 -31t19 -16.5t30 -7t34.5 -1.5h36q16 0 56 6t91.5 17t107.5 26.5t104 35.5t81.5 43t40.5 49q5 18 -0.5 29t-28.5 11q-18 0 -38.5 -8.5t-41.5 -20.5q-6 -5 -13.5 -8.5t-15.5 -6.5q-71 -35 -150 -60t-154 -25h-18q-7 0 -8.5 3t-7.5 8v1l11 48q7 26 13 47
t12.5 41.5t14 43.5t18.5 54v1q7 8 24 12.5t41 7.5t54 4.5t63 3.5q47 1 96 4t90.5 9.5t70 19t34.5 32.5q10 39 -34 39q-40 0 -79.5 -4t-80.5 -9q-42 -5 -82.5 -8.5t-80.5 -3.5h-18q-19 0 -37 2.5t-27 13.5v1l4 17q1 3 0.5 5t1.5 6l2 6q12 45 28.5 72.5t41 42.5t58.5 20.5
t82 8.5q13 0 43.5 0.5t65.5 2.5q38 2 70 3.5t46 1.5q13 1 28 9t17 21q6 20 -2.5 32.5t-25 19t-38.5 9t-43 2.5h-28h-13q-5 0 -10 -1q-8 0 -14.5 -0.5t-11.5 -0.5q-86 0 -169 -12t-171 -39q-25 -9 -32.5 -20t-12.5 -28q-8 -23 -6 -37t12 -37l-99 -375q-4 -5 -10 -20
l-13 -32.5t-13 -34.5t-9 -26q0 -1 -1 -2.5t-1 -2.5l-3 -4z" />
    <glyph glyph-name="f" unicode="f" horiz-adv-x="611" 
d="M26 68q-3 -14 -4 -26t2.5 -21.5t12 -15t24.5 -5.5q18 0 35 22.5t33.5 55.5t31.5 72t29 72q9 25 17 45.5t13 28.5v2q6 8 43.5 14.5t88.5 13.5q42 6 89 13t87 17.5t68.5 25t34.5 35.5q5 20 -7.5 27.5t-32.5 7.5q-27 0 -57 -5.5t-59 -13.5q-2 -1 -5 -2t-6 -1t-5 -0.5
t-4 -1.5q-35 -11 -70 -17.5t-73 -6.5h-36l-8 13q-1 3 -0.5 5t0.5 3q1 1 1 3q0 3 2 6q1 3 0.5 3.5t-0.5 1.5l5 19q6 20 14.5 46.5t22.5 51t36 42t55 19.5q77 11 155 16.5t155 8.5q9 3 20.5 8.5t13.5 16.5q5 18 -2 28.5t-21 16t-32.5 7t-36.5 1.5h-87q-8 0 -16 0.5t-17 0.5
q-40 0 -85.5 -2.5t-88.5 -11t-79.5 -24t-57.5 -40.5q-10 -14 -14.5 -24t-6.5 -21l-12 -56q-2 -8 -7.5 -27t-13 -40t-14 -39t-9.5 -25v-3q-5 -7 -9.5 -12t-12.5 -13h-1q-10 -11 -16.5 -21.5t-10.5 -24.5l-1 -3q-3 -11 -4.5 -19.5t9.5 -15.5v-1l1 -2l-8 -27l-2 -12
q-7 -23 -15.5 -46.5t-16.5 -46.5q-1 -1 -3 -7q0 -2 -4 -6q-8 -21 -14 -41t-14 -42z" />
    <glyph glyph-name="g" unicode="g" horiz-adv-x="662" 
d="M78 294q-17 -63 -7.5 -117t42 -93t87 -61.5t126.5 -22.5q66 0 129 25.5t115 67.5t89 95.5t51 109.5q6 20 9.5 48.5t0 55t-17.5 45t-43 18.5q-3 0 -13 -0.5t-13 -0.5q-9 -3 -33 -9.5t-50.5 -14t-50 -14.5t-31.5 -11q-20 -4 -40.5 -8.5t-38 -13t-31 -22t-19.5 -36.5
q-2 -9 1.5 -14.5t9.5 -8.5t14 -4t16 -1q46 0 95 17.5t92 38.5h12q11 0 20.5 -9t7.5 -20l-31 -108q-8 -29 -38 -51t-67.5 -36.5t-74.5 -22t-58 -7.5q-39 0 -72.5 12.5t-56 35t-31.5 53t2 66.5q12 48 41 87.5t67 74t83.5 66t90.5 63.5q12 9 29.5 19.5t37 20t38.5 16t34 6.5
q4 0 8 -0.5t5 -1.5l43 -41l4.5 -0.5t8.5 -0.5q20 0 40 7t40 22l4 23q13 49 -14 78t-80 29q-51 0 -110.5 -21t-120.5 -56.5t-120 -82t-106.5 -96.5t-81 -100.5t-43.5 -93.5z" />
    <glyph glyph-name="h" unicode="h" horiz-adv-x="629" 
d="M452 34q-6 -34 30 -34q35 0 49 16t25 45q5 13 11 40t16 61l19 72l18 74q11 35 19 62t10 39q1 4 6.5 22.5t13 40.5t14.5 42.5t10 30.5q6 22 17 44.5l22 45t21.5 45t16.5 43.5q5 23 -1.5 36t-33.5 13q-28 0 -47.5 -21t-35 -53t-28 -70t-25.5 -72.5t-28.5 -59.5t-36.5 -32
l-212 -55q-8 -2 -18.5 -4t-13.5 -2q-8 0 -9.5 8t0.5 17q2 8 4.5 17t2.5 10q14 54 35.5 105.5t36.5 106.5q2 7 2.5 16t-2 16.5t-9 13t-17.5 5.5q-16 0 -30 -8.5t-26 -21t-20.5 -26.5t-12.5 -26q-1 -6 -7.5 -26.5t-14.5 -44.5t-15 -47t-9 -33q-1 -4 -3.5 -12.5t-5.5 -19
t-6.5 -21.5t-4.5 -19l-4 -18q-12 -10 -26.5 -16t-28 -12t-24.5 -14.5t-16 -23.5q-5 -18 4 -27.5t22 -16t23.5 -14t7.5 -20.5l-51 -196q-5 -17 4.5 -26.5t26.5 -9.5q22 0 39.5 20t31 50t22.5 64.5t15 63.5q5 22 9.5 37t7.5 24q7 7 13.5 10t13.5 6q21 5 48 14t57 18t59.5 15.5
t55.5 6.5q1 0 6 0.5t10 0.5t9.5 -1.5t3.5 -5.5q-1 -3 -2.5 -12t-3 -19t-3 -19.5t-2.5 -13.5q-2 -9 -6.5 -28t-9.5 -43t-11.5 -51t-11.5 -51t-9.5 -43t-6.5 -28z" />
    <glyph glyph-name="i" unicode="i" horiz-adv-x="177" 
d="M13 34q1 -23 10.5 -28.5t32.5 -5.5q20 0 36 11t24 29q49 129 88 252.5t74 252.5l7 22q3 13 7.5 30t6.5 30l7 22q2 11 2 23q0 13 -4.5 23t-13.5 16.5t-24 6.5q-14 0 -24 -6t-25 -23q-19 -72 -43 -144.5t-49 -145t-49.5 -145.5t-43.5 -145l-3 -15q-2 -5 -3 -11t-3 -12
q-2 -13 -7 -23z" />
    <glyph glyph-name="j" unicode="j" horiz-adv-x="564" 
d="M49 204q-7 -28 5 -53.5t36 -48t57 -41.5t68 -32.5t69 -21t60 -7.5q32 0 62 17t57 43.5t50 60.5t41 68.5t30 65.5t18 53l64 237q3 10 6 29.5t4.5 42.5t0 47t-7 44t-16.5 32.5t-28 12.5q-27 0 -39.5 -18.5t-17.5 -39.5q-10 -38 -13.5 -74.5t-6 -73.5t-6 -73.5t-12.5 -74.5
q-5 -18 -13.5 -45t-21 -58t-28.5 -62t-35.5 -56t-43 -40.5t-49.5 -15.5q-44 0 -78 19.5t-62 43t-51.5 43t-46.5 19.5q-19 0 -33 -13.5t-19 -29.5z" />
    <glyph glyph-name="k" unicode="k" horiz-adv-x="547" 
d="M17 21q-2 -15 9 -18t26 -3q25 0 44.5 24t34.5 59t26 74t20 68l4 19q4 17 10 20.5t14 3.5q29 0 53 -17t45.5 -42t42.5 -55t43.5 -55t47.5 -42t56 -17q20 0 36 9.5t21 29.5q5 21 -11.5 44t-43.5 46q-28 23 -61.5 46.5t-61 46t-44.5 43.5t-12 39l1 3q24 17 58 42.5
t71.5 55.5t75.5 63.5t70.5 67t55.5 66.5t30 61q4 16 1 25t-22 9h-18q-4 0 -8 -2t-9 -4q-75 -75 -150 -144t-163 -129q-4 -3 -10.5 -6.5t-13.5 -6.5t-13.5 -5.5t-10.5 -2.5h-3q-8 2 -7 6q2 9 6 33.5t9 52t9.5 52t6.5 33.5q2 10 5 27t1.5 33.5t-9.5 29t-28 12.5
q-12 0 -23.5 -7t-22 -17.5t-18.5 -22t-11 -20.5l-29 -138q-5 -19 -14 -57t-23 -86l-27 -102l-26 -101q-14 -50 -24.5 -88t-15.5 -56z" />
    <glyph glyph-name="l" unicode="l" horiz-adv-x="520" 
d="M65 227l-7 -32q-2 -10 -4.5 -19.5t-4.5 -18.5q-3 -18 -9 -35l-5 -17q-4 -14 -5.5 -32t3 -34t16.5 -27.5t33 -11.5h5q10 1 32 4.5t45 7.5t43 7t25 4q19 3 48.5 8.5t63 14t68 19.5t63.5 26t50 33t27 40q6 20 -2.5 27t-34.5 7q-3 0 -12.5 -1t-13.5 -2q-34 -12 -68 -25
t-68 -24t-68 -18t-68 -7h-36q-14 4 -15.5 20.5t2 36t9.5 37.5t8 25q15 60 36 119t43.5 117.5t44 117t36.5 116.5q1 7 3.5 16t2 17.5t-5 14t-17.5 5.5q-20 0 -34.5 -8.5t-25 -21.5t-17 -28t-10.5 -28q-10 -23 -24.5 -57t-30.5 -72.5t-32.5 -77t-29.5 -70t-21.5 -52.5
t-8.5 -24l-5 -15q-2 -8 -6.5 -23.5t-10.5 -34.5z" />
    <glyph glyph-name="m" unicode="m" horiz-adv-x="612" 
d="M14 21q6 -7 12.5 -14t17.5 -7q17 0 33.5 9.5t24.5 24.5q25 66 51.5 132.5t57.5 132.5q2 5 7 13t6 9h3q11 0 16 -14t7 -34.5t3 -44.5t6 -44.5t15.5 -34.5t31.5 -14q26 0 52 18t50.5 44.5t47.5 58t42.5 58t35.5 44.5t27 18l1 -1t2 -1q0 -3 -1.5 -11.5t-2.5 -18.5t-2.5 -19
t-1.5 -12l-5 -13q-13 -51 -29.5 -101.5t-30.5 -102.5l-15 -56q8 -14 27 -14q15 0 27.5 9t26.5 20q27 61 47.5 122t38.5 123t34 124.5t33 125.5l8 30q4 11 7 22.5t5 22.5q2 13 5 24.5t6 22.5l9 31q-3 34 -42 34q-14 0 -28 -11t-27 -25.5t-23.5 -29.5t-15.5 -22
q-4 -6 -18.5 -28.5t-31 -48t-31.5 -47.5t-20 -27q-2 -3 -16.5 -23t-33.5 -45t-37.5 -50t-28.5 -38q-3 -4 -8 -11.5t-11 -14.5t-12.5 -12t-12.5 -5q-8 0 -12 9.5t-6 21.5t-2 22v11q-1 13 -2 36.5t-2.5 47.5t-2 42.5t0.5 21.5t2.5 16.5t3 30t3.5 32t4 24.5q0 5 2.5 19.5
t5.5 30.5l11 52q-2 11 -11.5 13t-20.5 2q-21 0 -35 -11.5t-24 -30.5q-4 -10 -13 -30.5t-19 -42t-18 -40t-9 -24.5q-3 -9 -13 -37t-23.5 -65t-29 -79t-29 -79t-24 -64t-13.5 -36q-1 -3 -7 -16.5t-13 -29t-13 -29t-7 -16.5v-4q-3 -7 -5 -12.5t-4 -13.5l-3 -10l-2 -9
q-2 -4 -3 -10t-4 -13z" />
    <glyph glyph-name="n" unicode="n" horiz-adv-x="517" 
d="M24 68q-1 -11 -0.5 -23t4 -22t12 -16.5t24.5 -6.5q11 0 28.5 6.5t21.5 20.5l80 307h23l4 -14t10 -33.5t12 -40.5t10 -34l18 -76q2 -5 6 -18.5t8 -28.5t8 -29t6 -20q13 -21 42 -21q13 0 24 7.5t19.5 18t15 22.5t10.5 21q34 75 68.5 149t66.5 148t60 149t49 152l14 65
q3 16 -6.5 28.5t-28.5 12.5q-15 0 -27.5 -10.5t-22 -24.5t-16 -29t-10.5 -25q-5 -14 -16 -43t-24 -65t-27.5 -76.5t-28 -76.5t-23.5 -65t-15 -43q-4 -9 -11 -26t-15.5 -34.5t-18.5 -30.5t-21 -13q-14 0 -13 9t-3 21q-8 38 -15 82.5t-10 79.5v31q0 23 0.5 47t1 45t0.5 28
q0 8 3.5 29.5t8 45.5t8.5 45.5t6 29.5q-1 14 -13.5 24t-27.5 10t-29 -11.5t-21 -22.5q-65 -137 -115 -274.5t-88 -278.5l-5 -21q-3 -11 -5.5 -22t-5.5 -24t-5 -21.5t-5 -13.5z" />
    <glyph glyph-name="o" unicode="o" horiz-adv-x="702" 
d="M74 283q-12 -44 -14 -88.5t9 -83.5t38.5 -68.5t75.5 -42.5h68q60 0 113.5 15.5t100.5 44t89 68.5t80 89q50 64 92.5 127.5t61.5 133.5q12 43 9 88t-22.5 81.5t-56 60t-91.5 23.5q-25 0 -49.5 -6.5t-48.5 -14.5q-81 -31 -155 -73.5t-134 -95.5t-103 -117.5t-63 -140.5z
M168 261q16 62 56 127t96.5 118t126.5 87t147 34q38 0 61 -15t34 -39t11.5 -53.5t-7.5 -58.5q-8 -30 -30.5 -69.5t-56 -81.5t-74.5 -83t-85 -73.5t-88 -52.5t-83 -20q-45 0 -71 15t-37.5 40t-10 57.5t10.5 67.5z" />
    <glyph glyph-name="p" unicode="p" horiz-adv-x="615" 
d="M16 26q5 -11 10 -18.5t19 -7.5q9 0 19 2.5t19 6.5t16 10t9 13l58 159q0 3 26 11.5t65.5 22t88.5 31t96.5 38t88 44.5t63.5 51q23 26 44.5 50t39.5 48t32 49.5t22 54.5q10 39 0 68.5t-34 50t-59 31t-75 10.5q-23 0 -58.5 -3t-75 -10t-80.5 -18t-75 -26.5t-58.5 -35.5
t-31.5 -46q-2 -10 -0.5 -18.5t4.5 -16.5t4.5 -16.5t-0.5 -17.5q-16 -57 -38 -115t-45 -116t-44 -117t-36 -117l-4 -10l-6 -32zM215 321l6 23l5 24q6 13 16.5 42t21 60t19.5 58t12 37q13 35 41 56t63.5 32t74 14.5t71.5 3.5h9q7 0 14.5 -1t14.5 -1h10q15 -1 23.5 -9t11.5 -19
t2 -24.5t-5 -25.5q-14 -53 -54.5 -102.5t-96 -87.5t-119 -61.5t-123.5 -23.5h-3q-2 0 -7.5 2.5t-6.5 2.5z" />
    <glyph glyph-name="q" unicode="q" horiz-adv-x="784" 
d="M505 53q18 0 26 -12t14.5 -26t15.5 -26t29 -12q28 0 35.5 12t13.5 37q3 10 3 19q0 10 -0.5 19t-1.5 18t1 19q2 9 4.5 11.5t12.5 10.5q27 30 56 60.5t55 62.5t46.5 65.5t31.5 71.5q16 64 9.5 124t-35 106.5t-79 74.5t-122.5 28h-14q-13 0 -29.5 -1t-21.5 -1
q-80 -16 -158 -60.5t-144 -105.5t-113.5 -132t-66.5 -140q-13 -48 -10.5 -99t22 -92.5t58 -68t98.5 -26.5q37 0 74.5 10t72 21.5t65 21.5t52.5 10zM193 268q16 58 48 105.5t75 87t96 72t112 62.5q15 8 32 12t32 4q46 0 78 -21t50.5 -53.5t23 -72.5t-4.5 -77q-4 -13 -18 -41
t-32.5 -56.5t-40.5 -50t-42 -21.5q-17 0 -28 12t-19 30t-15.5 39.5t-18.5 39.5t-27.5 30t-42.5 12q-23 0 -33.5 -8t-15.5 -31q-8 -29 4 -53t27.5 -46.5t28 -43.5t6.5 -42q-4 -15 -27.5 -27t-52.5 -20.5t-57.5 -13t-41.5 -4.5q-41 0 -64 15t-33 39.5t-8.5 56.5t9.5 65z" />
    <glyph glyph-name="r" unicode="r" horiz-adv-x="582" 
d="M20 38q4 -16 10.5 -27t29.5 -11q26 0 35.5 11.5t16.5 31.5l10.5 28t16 41.5t16 41.5l10.5 28q5 5 17 5q7 0 11.5 -0.5t10.5 -4.5q22 -27 46 -52t53 -44.5t65 -31t82 -11.5q7 0 18 0.5t22 2.5t20 7.5t12 14.5q4 17 -11.5 29.5t-41 23t-55 21t-53.5 23.5t-38 30t-8 40
q0 2 1.5 5t1.5 4q65 46 132.5 88t135.5 88q44 36 70.5 69.5t39.5 79.5l2 9q2 8 3 13.5t3 12.5l3 10q-1 21 -18 34.5t-41.5 20.5t-52 9.5t-48.5 2.5q-14 0 -42.5 -3t-63.5 -7.5t-73 -11t-71 -14t-56 -15.5t-28 -16q-15 -21 -19 -40.5t-11 -41.5q-3 -8 -12.5 -34t-21.5 -61
t-26.5 -74t-26.5 -74t-21.5 -60.5t-12.5 -33.5l-4 -12q-2 -11 -5.5 -23.5t-6.5 -23.5l-5 -20l-6 -15l-5 -26q-2 -5 -3 -11t-3 -11zM207 307l2 9q2 7 3.5 13.5t3.5 13.5l2 9q19 71 35.5 117t47.5 73t84 37.5t144 10.5h5q8 0 12.5 -0.5t8.5 -0.5h9q11 -3 11 -9q0 -5 -2 -13
q-3 -13 -26.5 -37.5t-58.5 -54.5t-76.5 -61t-80.5 -56.5t-70 -41.5t-45 -16q-1 0 -2.5 1l-1.5 1q-3 0 -5 5z" />
    <glyph glyph-name="s" unicode="s" horiz-adv-x="719" 
d="M52 181q-8 -30 1.5 -55t30 -45t49.5 -35t61 -25.5t64 -15.5t58 -5q64 0 136 21.5t136 59.5t112.5 91t65.5 115q10 45 -7 79t-50 57.5t-75.5 37t-83.5 17.5l-209 12q-11 3 -20 6.5t-7 14.5l3 4.5t1 3.5q33 25 69 47t74 39t77.5 27t78.5 10q15 0 28 -3.5t25 -7.5t24.5 -7.5
t26.5 -3.5q19 0 29 11t14 27q6 19 -0.5 37.5t-20.5 32t-33.5 22t-40.5 8.5q-32 0 -79 -9.5t-99.5 -27t-106.5 -41.5t-99 -53t-76.5 -62t-40.5 -67q-6 -23 0.5 -40t22 -29t37 -18.5t44.5 -7.5l266 -29q18 -2 41 -10.5t41.5 -22.5t29 -32.5t4.5 -40.5q-5 -19 -25 -38
t-48.5 -37t-62.5 -33t-67 -26.5t-62 -18t-48 -6.5q-37 0 -67.5 10t-55.5 27t-45.5 39t-36.5 46q-3 0 -9.5 1t-8.5 1q-28 0 -43.5 -14t-22.5 -38z" />
    <glyph glyph-name="t" unicode="t" horiz-adv-x="595" 
d="M264 183l-8 -31q-6 -24 -10.5 -51t-1.5 -49.5t16 -37t42 -14.5q24 0 37 10.5t18 31.5q6 25 8.5 48.5t4 47.5t4.5 47.5t10 48.5q4 17 14 50t24 73t31 82.5t35 80.5t36 66.5t33 40.5q17 13 42.5 18.5t54 7.5t57.5 3.5t54 7t43 17.5t24 35q5 16 0.5 26t-15 14.5t-25 6
t-28.5 1.5q-13 0 -46.5 -5t-80 -13.5t-101.5 -20t-110.5 -24t-107.5 -26.5t-92.5 -27t-66 -24.5t-27.5 -20.5q-5 -19 0.5 -31t26.5 -20h40q23 0 46.5 5.5t47.5 12.5t48 12.5t47 5.5q4 0 8.5 -0.5t2.5 -7.5l-7 -35q-14 -45 -31 -90t-34.5 -89.5t-34 -90t-28.5 -92.5z" />
    <glyph glyph-name="u" unicode="u" horiz-adv-x="543" 
d="M50 177q-6 -38 4 -70t33.5 -56t58 -37.5t76.5 -13.5q41 0 84.5 10.5t84 30.5t75 49t56.5 67q5 17 15.5 51.5t23.5 78.5t27 92t27 92t23.5 79t15.5 52l12 49l15 52q2 21 -12 31t-37 10q-17 0 -33.5 -11t-24.5 -30l-148 -511q-7 -19 -24 -36t-38.5 -30.5t-44.5 -21.5
t-42 -8q-38 0 -59 13t-30.5 34.5t-10 49t4.5 56t13 56.5t14 50q20 77 48 150.5t47 147.5q8 26 -2 41.5t-42 15.5q-28 0 -46 -19.5t-29.5 -45.5t-18 -52.5t-10.5 -40.5q-4 -12 -13 -40t-18.5 -59.5t-18 -59.5t-10.5 -38l-2 -12q-4 -11 -8.5 -25.5t-8.5 -28.5l-6 -23l-5 -19
l-6 -26q-2 -7 -3.5 -13.5t-3.5 -13.5z" />
    <glyph glyph-name="v" unicode="v" horiz-adv-x="555" 
d="M156 649q-17 -59 -24.5 -122.5t-9.5 -127.5t-0.5 -125.5t3.5 -116.5q-1 -42 6 -85t37 -72q3 0 13.5 -1.5t15.5 -1.5q29 0 55.5 17t49 41.5t39 52t26.5 49.5q3 6 15 31t26 54t26.5 54.5t16.5 31.5q5 10 18 32.5t29.5 51t35 60t35.5 61t30 52.5t20 35q6 10 19.5 27t28 36
t27 38t17.5 33q5 19 -5 32t-30 13q-26 0 -50.5 -18t-45.5 -43.5t-37 -52t-25 -44.5q-6 -10 -17 -28.5l-22 -37t-19.5 -33t-8.5 -17.5q-7 -12 -20 -36.5t-29 -55.5t-33 -65l-32.5 -65t-27.5 -55.5t-17 -35.5q0 -2 -4.5 -7.5t-10 -12.5t-12 -12t-10.5 -5q-15 0 -18.5 23.5
t-1 61.5t10 87t14.5 99.5t12 99.5t3 87t-13 61.5t-35 23.5q-17 0 -29.5 -6.5t-21 -16.5t-13.5 -22.5t-7 -23.5z" />
    <glyph glyph-name="w" unicode="w" horiz-adv-x="790" 
d="M64 237q-18 -74 3 -131.5t73 -105.5h19q18 0 36 4.5t33 16.5l170 122h22q3 -7 11.5 -22.5t18.5 -32.5t19.5 -32.5t13.5 -21.5q7 -11 10.5 -18t7.5 -10.5t10 -5t17 -1.5q32 0 63 17.5t60 46t55 64t46.5 71t35 68.5t20.5 55q4 12 11.5 37.5t16.5 58t19 68t19 68t16.5 58.5
t11.5 38q11 18 15.5 30t9.5 31q8 23 2.5 42.5t-36.5 19.5q-15 0 -28.5 -7t-24.5 -18t-18.5 -25t-10.5 -27l-121 -387q-4 -13 -15.5 -39.5t-26.5 -53.5t-32.5 -47t-33.5 -20q-14 0 -23 11t-14 26.5t-6.5 32.5t-0.5 28q3 11 10 37.5t13 57.5l21 96q0 7 2 14t4 16q6 21 11.5 48
t3.5 50.5t-14.5 39.5t-41.5 16q-20 0 -34 -5t-26 -23q-3 -11 -9.5 -37.5t-14.5 -57.5q-9 -30 -16 -57t-10 -38q-5 -15 -17 -40t-28.5 -54t-37 -58.5t-42 -54t-44 -39.5t-43.5 -15q-13 0 -22 10t-14.5 24t-8 28t-3.5 22l3 9l9 43q18 66 42 128.5t59 125.5q9 19 22 39t25.5 40
t24 41t17.5 43q6 21 -1.5 35t-32.5 14q-28 0 -59.5 -34.5t-62 -87.5t-58 -116t-49.5 -119t-36 -98t-16 -52z" />
    <glyph glyph-name="x" unicode="x" horiz-adv-x="677" 
d="M393 313q4 -6 12 -22.5t16 -34.5t15 -34.5t9 -23.5q5 -15 13 -48t20 -66.5t27.5 -58.5t36.5 -25q23 0 32.5 6t17.5 26q13 50 5 99.5t-26 97t-40.5 91.5t-38.5 83q-4 9 -4 12t2 11q6 21 31 45t59.5 49t74 51t74.5 52t60 51.5t32 49.5q4 17 -5.5 26t-27.5 9
q-30 0 -64.5 -17.5t-69.5 -43.5t-68.5 -56.5t-63 -56.5t-53 -43.5t-37.5 -17.5q-11 0 -12 3.5t-6 11.5q-2 1 -7 10.5t-11 20t-11.5 20t-6.5 12.5l-81 93q-5 8 -15 8h-17q-23 0 -34 -7.5t-19 -27.5q-4 -14 0 -24.5t12 -23.5q5 -10 19 -33t29.5 -49t30 -48.5t20.5 -31.5
q5 -8 4.5 -14.5t-2.5 -13.5l-2 -9q-1 -5 -4 -8t-8 -10q-33 -33 -78 -74t-88.5 -86t-77.5 -91.5t-46 -89.5q-6 -23 1 -33t33 -10q30 0 61 22.5t60.5 56t58 72.5t54.5 72.5t49 56t41 22.5q3 0 7 -2.5t7 -5.5z" />
    <glyph glyph-name="y" unicode="y" horiz-adv-x="524" 
d="M163 68q-6 -25 2.5 -46.5t39.5 -21.5q12 0 19 3t19 18q29 81 76 164.5t102 165.5t112.5 160t106.5 149q9 15 14.5 22.5t9.5 13.5t6 12.5t5 18.5l5 24q-5 9 -13 15t-21 6q-17 0 -35 -15t-34 -34.5t-27.5 -38t-14.5 -24.5q-6 -8 -18 -25.5t-27 -39.5t-31.5 -46.5
t-31.5 -46.5t-26.5 -39.5t-16.5 -25.5q-3 -4 -9.5 -12.5t-15 -16.5t-17.5 -14.5t-17 -6.5q-29 0 -48.5 12t-30.5 30.5t-13 41.5t4 45q6 23 20 44t30 41.5t30 41t20 43.5q13 45 -35 45q-22 0 -42.5 -13.5t-39.5 -34.5t-36 -47.5t-30 -53t-22.5 -49.5t-13.5 -38
q-9 -36 -1.5 -64.5t23.5 -51.5t36.5 -40.5t38.5 -32t29.5 -26.5t9.5 -23q-7 -24 -19.5 -47.5t-26 -47t-26 -47t-19.5 -47.5z" />
    <glyph glyph-name="z" unicode="z" horiz-adv-x="638" 
d="M28 74q-9 -26 -5.5 -41.5t24.5 -32.5h41q40 0 81 7.5t82 18.5t81.5 22.5t79.5 19.5q7 1 33 4.5t55.5 8t55 9t32.5 6.5q9 1 20 4.5t21.5 9t18.5 13t11 17.5q3 15 -1 25t-13.5 16t-22.5 8.5t-26 2.5q-46 0 -94 -7t-97 -18t-97 -24.5t-93 -26.5h-26q6 21 22 41.5t36.5 40
t43 38.5t41.5 37l140 130q30 28 67.5 57.5t73 61.5t63.5 66t39 70l3 15q2 8 3 16.5t-0.5 16t-6.5 12.5t-14 5h-105q-1 0 -16.5 -3t-41 -7.5t-57 -10.5l-63 -12t-61 -12t-50.5 -10q-17 -2 -38.5 -9t-41.5 -18t-36 -25.5t-21 -31.5q-10 -41 33 -41q3 0 9.5 1t9.5 1
q33 11 68.5 22.5t71.5 20.5t71.5 14.5t70.5 5.5h7q5 0 10.5 -0.5t12.5 -0.5h8q6 -3 5.5 -8t-2.5 -9q-2 -12 -12 -23.5t-22.5 -23t-25.5 -21t-22 -16.5q-15 -13 -44 -40t-65.5 -60.5t-77 -70.5t-77 -70.5t-65.5 -60.5t-43 -40q-18 -16 -28 -26.5t-16 -20t-10 -19.5t-8 -24z
" />
    <glyph glyph-name="braceleft" unicode="{" horiz-adv-x="330" 
d="M72 313q14 -18 24.5 -48.5t20 -65t20 -70t26.5 -64.5t38.5 -47t54.5 -18q23 0 44.5 10.5t26.5 33.5l2 8q2 8 1 9q-31 32 -49 62.5t-29.5 63.5t-19 70.5t-16.5 84.5l5 26q3 6 13 23t23 38.5t27.5 45t27 43.5t21 33.5t10.5 15.5q11 15 27 29t32 29t29.5 30.5t18.5 33.5
q8 29 -20 29q-26 0 -58 -13t-62 -33.5t-53.5 -45t-32.5 -46.5q-15 -38 -25.5 -76t-37.5 -74q-9 -14 -22 -25.5t-25.5 -23t-23.5 -23.5t-16 -27q0 -2 -1 -8.5t-1 -9.5z" />
    <glyph glyph-name="bar" unicode="|" horiz-adv-x="163" 
d="M-12 -51q1 -23 10.5 -28.5t32.5 -5.5q20 0 36 11t23 29q16 43 35.5 99t39.5 118.5t40 129t38.5 129t34.5 118.5t27 99l28 104q2 11 2 23q0 13 -4.5 23t-13.5 16.5t-24 6.5q-14 0 -24 -6t-25 -23q-13 -48 -30.5 -110t-38.5 -131.5t-43.5 -142.5t-44.5 -142.5t-43 -131.5
t-37 -110z" />
    <glyph glyph-name="braceright" unicode="}" horiz-adv-x="318" 
d="M255 389q-1 -3 -3 -8t-3 -7q-14 -27 -31.5 -59.5t-35.5 -65t-35.5 -62t-29.5 -51.5q-1 -2 -4.5 -7.5t-8 -12.5t-8.5 -12.5t-5 -7.5q-9 -15 -21 -26l-24 -22t-22 -22t-14 -26h102q18 0 37 21t38 53t37.5 70.5t35.5 73.5t31.5 61t25.5 34q4 5 16 12.5t24.5 16.5t23.5 19
t13 21q5 17 -1 29.5t-16 23.5t-19.5 22.5t-11.5 27.5q-4 23 -1.5 53t5 61t2 60.5t-11 53t-34.5 37.5t-67 14q-25 0 -46.5 -10.5t-27.5 -33.5q-4 -12 7 -20.5t27 -16.5l32 -16t21 -18q1 -4 2.5 -22.5t2.5 -45t1 -57.5v-58q0 -27 -0.5 -48t-2.5 -29z" />
    <glyph glyph-name="asciitilde" unicode="~" horiz-adv-x="559" 
d="M140 575q-7 -29 12 -29q17 0 40 11.5t48.5 25.5t53 25.5t53.5 11.5q21 0 38 -11t34 -23.5t36.5 -23.5t45.5 -11q24 0 51 8t51.5 24t43.5 40.5t27 57.5q5 20 3.5 31.5t-18.5 11.5q-11 0 -24 -13t-29 -28.5t-35.5 -28.5t-41.5 -13q-20 0 -34 9.5t-28 21.5t-29 23t-36 15
q-7 0 -15 0.5t-20 0.5q-23 0 -58 -7.5t-69.5 -23.5t-62.5 -42t-37 -63z" />
    <glyph glyph-name="quotesinglbase" unicode="&#x201a;" horiz-adv-x="185" 
d="M211 148q-3 7 -10.5 14t-18.5 7q-21 0 -39 -17t-31.5 -39t-22.5 -44t-13 -31q-9 -17 -22.5 -35l-27 -36t-25 -36t-17.5 -37q-4 -13 2 -23.5t22 -10.5q19 0 40.5 16t43 41.5t41 56.5t35 60t26 53t12.5 35z" />
    <glyph glyph-name="quotedblbase" unicode="&#x201e;" horiz-adv-x="404" 
d="M164 -105q-8 -20 1.5 -29.5t29.5 -9.5q14 0 23 4t15 10.5t11.5 15.5t11.5 19q6 11 18 30.5t24.5 39t23 35t12.5 17.5q11 16 25 30t27.5 28t24.5 28.5t16 30.5q5 17 1 33.5t-27 16.5q-21 0 -45 -18t-49 -46.5t-49 -63.5t-43.5 -68t-33 -61t-17.5 -42zM-16 -117
q-3 -13 1.5 -26t24.5 -13q13 0 31 17t38.5 43t42.5 58.5t42 62.5t37 55t28 37q1 3 3.5 8.5t3.5 8.5q9 31 -23 31q-22 0 -46 -16t-48 -42t-46 -58t-40.5 -63t-31.5 -58.5t-17 -44.5z" />
    <glyph glyph-name="ellipsis" unicode="&#x2026;" horiz-adv-x="485" 
d="M25 56q-8 -23 3 -40t38 -17q12 0 24.5 6.5t23.5 17t19 22.5t10 23q8 23 -8.5 36t-40.5 13q-28 0 -46 -19t-23 -42zM363 56q-8 -23 3 -40t38 -17q12 0 24.5 6.5t23.5 17t19 22.5t10 23q8 23 -8.5 36t-40.5 13q-28 0 -46 -19t-23 -42zM198 57q-8 -23 3 -40t38 -17
q12 0 24.5 6.5t24 17t19.5 22.5t10 23q7 23 -9.5 36t-40.5 13q-28 0 -46 -19t-23 -42z" />
    <glyph glyph-name="dagger" unicode="&#x2020;" horiz-adv-x="437" 
d="M451 703l6 19q4 17 0.5 28.5t-22.5 11.5q-21 0 -36.5 -11.5t-27 -30t-20.5 -41t-17 -44.5t-16.5 -41t-19.5 -30q-11 -10 -39.5 -12t-60 -4t-57 -7t-30.5 -21l-14 -48q0 -4 6 -6q1 0 6 -1l10 -2t9.5 -1.5t5.5 -0.5l111 -1q5 0 5 -5l-130 -321q-5 -20 -14.5 -39t-20 -37.5
t-19.5 -37.5t-13 -38l-4 -19q9 -19 29 -19q19 0 33.5 10.5t26 25t19.5 30.5t14 27q2 3 15.5 34t32.5 75.5t40 96t39.5 96t31.5 75.5t14 34q11 16 30.5 21.5t42.5 6t48 -0.5t46.5 1.5t37.5 12.5t22 33q4 14 -5 22.5t-25 8.5h-130q-9 0 -9.5 6.5t1.5 13.5q9 38 24 69t24 61z
" />
    <glyph glyph-name="daggerdbl" unicode="&#x2021;" horiz-adv-x="475" 
d="M454 198q1 2 -4 7q-2 0 -7 1t-10.5 1.5t-10 1t-5.5 0.5q-29 -2 -50 -3t-35.5 -1.5t-24 0t-16.5 0.5q17 42 34.5 84t32 76.5t23.5 57t10 25.5q11 16 30.5 21.5t42.5 6t48 -0.5t46.5 1.5t37.5 12.5t22 33q4 14 -5 22.5t-25 8.5h-130q-9 0 -9.5 6.5t1.5 13.5q9 38 24 69
t24 61l6 19q4 17 0.5 28.5t-22.5 11.5q-21 0 -36.5 -11.5t-27 -30t-20.5 -41t-17 -44.5t-16.5 -41t-19.5 -30q-11 -10 -39.5 -12t-60 -4t-57 -7t-30.5 -21l-14 -48q0 -4 6 -6q1 0 6 -1l10 -2t9.5 -1.5t5.5 -0.5l111 -1q5 0 5 -5l-104 -256q-26 1 -53 5t-50 2.5t-40.5 -12
t-24.5 -38.5q-4 -14 5.5 -23t24.5 -9h109q-6 -18 -15.5 -36t-19 -35.5t-17.5 -35t-12 -35.5l-4 -19q9 -19 29 -19q19 0 33.5 10.5t26 25t19.5 30.5t14 27q2 3 13 28t27 63q39 1 71 -1t55.5 -1.5t38 5.5t19.5 19z" />
    <glyph glyph-name="circumflex" unicode="&#x2c6;" horiz-adv-x="545" 
d="M467 870q6 0 6 -3l34 -70q2 -4 13 -3t15 1q17 19 19.5 27t2.5 10q-8 18 -18 38.5t-17 40.5q-2 2 -5.5 8t-8 12.5t-8.5 11.5t-6 5h-10q-1 0 -11.5 -7.5t-25.5 -18t-30 -22t-25 -18.5q-19 -14 -29 -23t-15 -31l-3 -15q3 -13 13 -13q12 0 25 11t27.5 24t28.5 24t28 11z" />
    <glyph glyph-name="perthousand" unicode="&#x2030;" horiz-adv-x="894" 
d="M129 34q7 -11 15 -20t23 -9q16 0 32.5 14t33 36t31.5 49t28.5 52t24.5 45.5t18 29.5q79 111 176.5 208t206.5 188q28 23 53.5 43t34.5 50q6 25 -11.5 34.5t-41.5 9.5q-25 0 -50 -7.5t-50.5 -17t-51.5 -17t-53 -7.5q-23 0 -39 9t-30 19.5t-30 19.5t-39 9
q-49 0 -94.5 -17.5t-83 -47t-64 -67.5t-36.5 -80q-6 -22 -3 -43t14 -37.5t29.5 -27t43.5 -10.5q32 0 64 13.5t61.5 33t55.5 43t47.5 43t36 33t21.5 13.5q19 0 31 -1.5t32 -5.5l-2 -7q-3 -12 -13.5 -22t-20.5 -18l-91 -82q-45 -44 -92.5 -94t-89 -103t-73.5 -109t-47 -111z
M353 75q4 -32 30.5 -53.5t62.5 -21.5q47 0 91.5 16t81 43t63.5 63.5t38 77.5q7 29 5 57t-14.5 50t-36 35.5t-57.5 13.5q-49 0 -91 -22t-74.5 -56.5t-55 -76t-32.5 -79.5l-2 -9q-2 -7 -3.5 -15t-3.5 -15zM689 416q4 -32 30.5 -53.5t62.5 -21.5q47 0 91.5 16t81.5 43
t63.5 63.5t37.5 77.5q7 29 5 57t-14.5 50t-36 35.5t-57.5 13.5q-49 0 -91 -22t-74.5 -56.5t-55 -76t-32.5 -79.5l-1 -9q-2 -7 -4 -15t-4 -15zM795 479q6 19 19 43t32 44.5t42.5 34.5t49.5 14q16 0 24.5 -8t11.5 -19.5t2.5 -25t-3.5 -25.5q-13 -47 -52 -74.5t-89 -27.5
q-5 0 -14 1t-10 1l-17 20q0 1 1 9t3 13zM458 138q6 19 19 43t32 44.5t42.5 34.5t49.5 14q16 0 24.5 -8t12 -19.5t2.5 -25t-3 -25.5q-14 -47 -52.5 -74.5t-88.5 -27.5q-5 0 -14.5 1t-10.5 1l-16 20q0 1 1 9t2 13zM224 564q6 19 18.5 37.5t29.5 33.5t38 24t43 9
q18 0 28.5 -7.5t5.5 -24.5q-5 -18 -20 -36.5t-35 -33.5t-42.5 -24.5t-42.5 -9.5t-24 7.5t1 24.5z" />
    <glyph glyph-name="Scaron" unicode="&#x160;" horiz-adv-x="585" 
d="M55 194q-14 -53 -1.5 -90t43.5 -60t76.5 -33.5t98.5 -10.5q70 0 128.5 23.5t104 63.5t76.5 92.5t46 110.5q12 46 -8 78t-57 54.5t-83.5 38t-86.5 28.5t-65 26t-20 30q1 3 2.5 8t1.5 6q25 20 51 38.5t53.5 33t56.5 23t60 8.5q16 0 27.5 -4.5t22 -10t21.5 -10t25 -4.5
q18 0 30.5 11.5t17.5 27.5q6 22 -2 40.5t-24.5 31.5t-38.5 20.5t-43 7.5q-29 0 -66.5 -10.5t-78 -29t-81 -43t-74 -52t-57.5 -56.5t-31 -57q-8 -29 4.5 -48.5t37.5 -33t59 -22.5t69.5 -18t69 -20t57.5 -27.5t35 -41t1 -61.5q-21 -81 -80.5 -122.5t-147.5 -41.5
q-41 0 -63.5 11.5t-33.5 28t-15.5 36.5t-9.5 36.5t-15 28t-32 11.5q-51 0 -61 -46zM536 872q-5 0 -6 3l-34 70q-2 4 -13 3t-15 -1q-17 -19 -19.5 -27t-2.5 -10q8 -18 18 -38.5t18 -40.5q1 -2 4.5 -8t8 -12.5t9 -11.5t6.5 -5h10q1 0 11.5 7.5t25 18t30 21.5t24.5 19
q9 7 16 12t12.5 10.5t9 13t6.5 18.5l3 15q-3 13 -13 13q-12 0 -25 -11t-27.5 -24t-29 -24t-27.5 -11z" />
    <glyph glyph-name="guilsinglleft" unicode="&#x2039;" horiz-adv-x="269" 
d="M219 380q3 12 8 14l122 82q8 5 9 10.5t3 12.5q1 11 -7 20t-20 11l-4 -1q-1 -1 -8.5 -1.5t-9.5 -2.5q-5 -3 -22 -12.5t-40 -22.5t-49 -28t-47.5 -28t-36 -23t-14.5 -14l-4 -18q1 -8 9 -24.5t20.5 -36.5t28 -41t31.5 -38t32 -28.5t28 -11.5l26 1q19 9 22 26q4 19 -9 37
t-29.5 37t-29.5 38.5t-9 41.5z" />
    <glyph glyph-name="OE" unicode="&#x152;" horiz-adv-x="1168" 
d="M71 256q-15 -62 -5 -109.5t40.5 -80t78.5 -49.5t110 -17q100 0 199.5 34.5t184.5 96.5q0 -24 10.5 -47t29 -41t42 -28.5t48.5 -10.5q22 0 55.5 6.5t71.5 18t76.5 28t71.5 36.5t56 43t30 47q7 39 -35 39q-32 0 -62 -18.5t-60 -40.5t-61 -40.5t-65 -18.5q-24 0 -40.5 10.5
t-26 27t-11.5 37.5t4 41q14 53 50.5 84.5t83.5 50.5t99 29t97 19t77 22t38 38q6 22 -12 37t-41 15q-30 0 -59.5 -6.5t-59 -14.5t-59 -14.5t-57.5 -6.5h-7q-4 0 -8.5 0.5t-8 2.5t-3.5 6l2 7q3 7 3 11t2 11l4 9q13 54 44 81t72.5 37.5t90.5 9.5t99 -3q34 9 41 36q7 29 -9 42
t-42 17t-56 2.5t-49 -1.5q-18 0 -44.5 1t-56.5 0t-61 -4.5t-57.5 -12t-46 -23.5t-25.5 -38q-2 -5 -3 -10t-1 -10q-32 38 -82.5 58.5t-113.5 20.5q-62 0 -125.5 -19t-123.5 -51.5t-114 -77.5t-98 -96.5t-75.5 -108.5t-46.5 -114zM195 291q9 34 32 72.5t55.5 77.5t72 74.5
t82 62.5t85.5 43.5t81 16.5q50 0 87.5 -22.5t60.5 -58.5t29.5 -81t-4.5 -90q-2 -6 -3.5 -11.5t-3.5 -10.5q-5 -11 -10.5 -22t-10.5 -22q-27 -47 -72 -88t-98 -72.5t-109 -49.5t-106 -18q-48 0 -85 13.5t-59.5 39t-29.5 62.5t6 84z" />
    <glyph glyph-name="quoteleft" unicode="&#x2018;" horiz-adv-x="185" 
d="M125 558q3 -7 10.5 -14t18.5 -7q21 0 39 17t31.5 39t22.5 44t13 31q9 17 22.5 34.5t27 35.5t25 36.5t17.5 37.5q4 13 -2 23.5t-22 10.5q-19 0 -40.5 -16t-43 -41.5t-41 -56.5t-35 -60t-25.5 -53t-13 -35z" />
    <glyph glyph-name="quoteright" unicode="&#x2019;" horiz-adv-x="185" 
d="M355 824q-3 7 -10.5 14t-18.5 7q-21 0 -39 -17t-31.5 -39t-22.5 -44t-13 -31q-9 -17 -22.5 -35l-27 -36t-25 -36t-17.5 -37q-4 -13 2 -23.5t22 -10.5q19 0 40.5 16t42.5 41.5t41 56.5t35.5 60t26 52.5t12.5 35.5z" />
    <glyph glyph-name="quotedblleft" unicode="&#x201c;" horiz-adv-x="382" 
d="M309 536q3 14 4 42t-1.5 61t-8 68t-15.5 63.5t-25 46.5t-35 18q-24 0 -35.5 -16.5t-16.5 -33.5q-5 -16 -2 -30.5t9 -29t13.5 -28.5t10.5 -29q1 -2 3 -17.5t4 -35.5t4 -39.5t2 -29.5t1 -19t4 -15.5t10.5 -10.5t21.5 -4q38 0 52 39zM480 524q5 17 7 44.5t0 58.5t-7.5 63
t-16 58t-26 42t-36.5 16q-19 0 -26.5 -8.5t-11.5 -22.5q-2 -3 -2 -9q0 -5 -1 -8q4 -12 8 -37t8 -55t9 -62.5t11.5 -58.5t15.5 -43t22 -17q19 0 31 13t15 26z" />
    <glyph glyph-name="quotedblright" unicode="&#x201d;" horiz-adv-x="404" 
d="M300 536q-8 -20 2 -29.5t30 -9.5q14 0 23 4t15 10.5t11 15.5t11 19q6 11 18 30.5t25 39t23 35t12 17.5q11 16 25 30t27.5 28t24.5 28.5t16 30.5q5 17 1 33.5t-27 16.5q-21 0 -45 -18t-49 -46.5t-49 -63.5t-43.5 -68t-33 -61t-17.5 -42zM120 524q-3 -13 1.5 -26t24.5 -13
q13 0 31 17t38.5 43t42.5 58.5t42 62.5t37 55t28 37q1 3 3.5 8.5t4.5 8.5q7 31 -24 31q-22 0 -46 -16t-47.5 -42t-46 -58t-41 -63t-31 -58.5t-17.5 -44.5z" />
    <glyph glyph-name="bullet" unicode="&#x2022;" horiz-adv-x="335" 
d="M121 375q-9 -25 -7 -48t14 -41t33.5 -28.5t51.5 -10.5q26 0 55 15t53.5 38t42.5 50.5t23 51.5q9 26 3 46.5t-22.5 34.5t-40.5 21.5t-51 7.5q-31 0 -57 -12t-45.5 -31.5t-33 -44t-19.5 -49.5z" />
    <glyph glyph-name="endash" unicode="&#x2013;" horiz-adv-x="545" 
d="M87 335q-7 -20 7.5 -31t32.5 -18h310h70t35.5 2t16.5 6t14 13q13 7 18.5 15t7.5 19q5 19 -9.5 29t-34.5 10l-395 1q-23 0 -45 -11.5t-28 -34.5z" />
    <glyph glyph-name="emdash" unicode="&#x2014;" horiz-adv-x="696" 
d="M87 335q-7 -20 7.5 -31t32.5 -18h9l456 1h70t36 2t17 6.5t14 13.5q13 7 18 15t8 19q4 19 -10.5 29t-34.5 10l-550 -1q-23 0 -45 -11.5t-28 -34.5z" />
    <glyph glyph-name="tilde" unicode="&#x2dc;" horiz-adv-x="401" 
d="M238 809q-6 -20 5 -20q9 0 22 8t27 18t29 18t29 8q12 0 20.5 -7.5t17.5 -16.5t19 -16.5t24 -7.5q26 0 55.5 22t40.5 69q4 14 3.5 22t-9.5 8q-6 0 -13.5 -9t-16.5 -20t-19.5 -20t-22.5 -9q-11 0 -18 6.5t-14 15t-15 16t-20 10.5q-3 0 -7.5 0.5t-10.5 0.5q-12 0 -31 -5
t-38 -16.5t-35 -30t-22 -44.5z" />
    <glyph glyph-name="trademark" unicode="&#x2122;" horiz-adv-x="664" 
d="M722 697l-3 -10.5t-6 -19.5t-4 -11l-61 -162q-2 -5 0.5 -8t7 -4.5t9.5 -1.5h10q15 0 23.5 3t19.5 18q19 76 41 140t42 135l4 19q3 15 0 28.5t-23 13.5q-9 0 -18 -4.5t-17 -11t-15 -13.5l-12 -12l-17.5 -21t-26.5 -31.5t-26 -31t-16 -19.5l-28 -21q-10 4 -12 15t-1 25.5
t2.5 30t0.5 29t-7.5 22t-22.5 8.5h-10q-3 0 -9 -6q-23 -28 -43 -64t-36 -73.5t-28.5 -73t-19.5 -63.5q-3 -15 1.5 -21.5t22.5 -6.5q8 0 16 11t16.5 27.5t17 36t16 36t15 27.5t13.5 11t7 -19t0.5 -41.5t0.5 -41.5t7 -19q10 0 24.5 11.5t30.5 29.5t33 39.5t32 41t28 34
t21 19.5zM257 691l-43 -162q0 -3 9 -13t15 -14h7q18 0 23.5 13t12.5 29q3 8 10 30.5t14.5 48t14.5 48t10 30.5q0 1 2.5 7.5t6.5 14.5t8.5 15.5t8.5 10.5q14 9 38 9.5t48 1.5t44 7t26 26q3 13 -1 20.5t-11.5 11t-18.5 4t-21 0.5q-5 0 -28.5 -2.5t-56 -7.5t-69.5 -12
t-68.5 -15.5t-53.5 -19t-24 -21.5q-1 -3 -1 -10t1 -13.5t4 -11.5t9 -5h75z" />
    <glyph glyph-name="scaron" unicode="&#x161;" horiz-adv-x="719" 
d="M52 181q-8 -30 1.5 -55t30 -45t49.5 -35t61 -25.5t64 -15.5t58 -5q64 0 136 21.5t136 59.5t112.5 91t65.5 115q10 45 -7 79t-50 57.5t-75.5 37t-83.5 17.5l-209 12q-11 3 -20 6.5t-7 14.5l3 4.5t1 3.5q33 25 69 47t74 39t77.5 27t78.5 10q15 0 28 -3.5t25 -7.5t24.5 -7.5
t26.5 -3.5q19 0 29 11t14 27q6 19 -0.5 37.5t-20.5 32t-33.5 22t-40.5 8.5q-32 0 -79 -9.5t-99.5 -27t-106.5 -41.5t-99 -53t-76.5 -62t-40.5 -67q-6 -23 0.5 -40t22 -29t37 -18.5t44.5 -7.5l266 -29q18 -2 41 -10.5t41.5 -22.5t29 -32.5t4.5 -40.5q-5 -19 -25 -38
t-48.5 -37t-62.5 -33t-67 -26.5t-62 -18t-48 -6.5q-37 0 -67.5 10t-55.5 27t-45.5 39t-36.5 46q-3 0 -9.5 1t-8.5 1q-28 0 -43.5 -14t-22.5 -38zM556 838q-6 0 -6 3l-34 70q-2 4 -13 3t-15 -1q-17 -19 -19.5 -27t-2.5 -10q8 -18 18 -38.5t17 -40.5q1 -2 5 -8t8.5 -12.5
t9 -11.5t6.5 -5h10q1 0 11.5 7.5t25 18t29.5 21.5t25 19q9 7 16 12t12.5 10.5t9 13t6.5 18.5l3 15q-3 13 -13 13q-12 0 -25 -11t-27.5 -24t-29 -24t-27.5 -11z" />
    <glyph glyph-name="guilsinglright" unicode="&#x203a;" horiz-adv-x="269" 
d="M215 380q-6 -22 -27.5 -41.5t-45.5 -38.5t-45 -37t-25 -37q-5 -16 12 -26l24 -1q13 0 33.5 11.5t44.5 28.5t48.5 38t45.5 41t35.5 36.5t19.5 24.5l2 18q1 4 -8.5 14t-25.5 23t-35.5 28t-37 28t-30.5 22.5t-16 12.5q-2 2 -9.5 2.5t-8.5 1.5l-2 1q-14 -2 -25.5 -11
t-15.5 -20q-1 -7 -2 -12.5t4 -10.5l88 -82q2 -2 2 -5v-9z" />
    <glyph glyph-name="oe" unicode="&#x153;" horiz-adv-x="1143" 
d="M565 57q-6 -20 0.5 -31t19 -16.5t30 -7t34.5 -1.5h36q16 0 56 6t91.5 17t107.5 26.5t104 35.5t81.5 43t40.5 49q5 18 -0.5 29t-28.5 11q-18 0 -38 -8.5t-42 -20.5q-6 -5 -13.5 -8.5t-15.5 -6.5q-71 -35 -150 -60t-154 -25h-18q-7 0 -8.5 3t-7.5 8v1l12 48q7 26 13 47
t12.5 41.5t14 43.5t17.5 54v1q7 8 24 12.5t41 7.5t54 4.5t63 3.5q47 1 96.5 4t90.5 9.5t69.5 19t34.5 32.5q10 39 -34 39q-40 0 -79.5 -4t-80.5 -9q-42 -5 -82.5 -8.5t-80.5 -3.5h-18q-19 0 -37 2.5t-26 13.5l-1 1l8 34q12 45 28.5 72.5t41 42.5t59 20.5t82.5 8.5
q13 0 43 0.5t65 2.5q38 2 70 3.5t46 1.5q14 1 28.5 9t17.5 21q6 20 -2.5 32.5t-25.5 19t-39 9t-43 2.5h-28h-13q-5 0 -10 -1q-8 0 -14 -0.5t-11 -0.5q-86 0 -169.5 -12t-171.5 -39q-2 -1 -4 -1q-1 0 -3 -1q-20 22 -50 34.5t-71 12.5q-25 0 -49.5 -6.5t-48.5 -14.5
q-81 -31 -155 -73.5t-134 -95.5t-103 -117.5t-63 -140.5q-12 -44 -14 -88.5t9 -83.5t38.5 -68.5t75.5 -42.5h68q115 0 205 54.5t163 144.5l-2 -10q-4 -5 -10 -20l-13 -32.5t-13 -34.5t-9 -26q0 -1 -1 -2.5t-1 -2.5l-3 -4zM168 261q16 62 56 127t96.5 118t126.5 87t147 34
q31 0 52 -10t33.5 -27.5t17 -39.5t3.5 -46l-21 -81q-15 -32 -41 -70t-59 -76t-71 -73.5t-78 -62.5t-79 -43.5t-75 -16.5q-45 0 -71 15t-37.5 40t-10 57.5t10.5 67.5z" />
    <glyph glyph-name="Ydieresis" unicode="&#x178;" horiz-adv-x="489" 
d="M102 52q-2 -8 -2.5 -17.5t2.5 -17t10 -12.5t21 -5q23 0 46 12t31 35q17 42 32.5 79.5t33 73.5t39.5 72t51 75q9 11 27.5 34t41 52.5t47.5 62t48 61.5t41.5 52t28.5 33q15 19 22 36t15 37q4 16 0 27.5t-27 11.5q-26 0 -45.5 -15.5t-34.5 -36.5t-27 -43t-23 -35
q-6 -8 -19 -24t-29 -35.5t-33.5 -40.5t-33.5 -40.5t-28.5 -35t-18.5 -22.5q-8 -11 -18 -12t-21 -1q-32 0 -45 12.5t-14 39.5q1 5 3 17.5t6 23.5l2 9q5 21 14 41t19.5 39.5t20 39.5t15.5 41q4 17 -3.5 32.5t-30.5 15.5q-30 0 -52.5 -19.5t-38.5 -47.5t-27 -60t-17 -56
l-10 -31q-11 -41 0 -74.5t28.5 -59.5t32.5 -45.5t11 -31.5q-8 -31 -20.5 -61.5t-25 -61.5l-25 -62t-20.5 -62zM491 854q-8 -23 2.5 -40t37.5 -17q12 0 24.5 6.5t24 17t19.5 22.5t10 23q8 23 -9 36t-41 13q-28 0 -45.5 -19t-22.5 -42zM317 853q-8 -23 3 -40t38 -17
q12 0 24.5 6.5t24 17t19.5 22.5t10 23q7 23 -9.5 36t-40.5 13q-28 0 -45.5 -19t-23.5 -42z" />
    <glyph glyph-name="exclamdown" unicode="&#xa1;" horiz-adv-x="311" 
d="M351 410q2 8 3 18t-0.5 18.5t-7.5 14.5t-17 6q-13 0 -20.5 -3.5t-18.5 -18.5q-37 -54 -71 -108.5t-67 -109t-66.5 -109.5t-69.5 -110q-17 -24 -28 -38.5t-17 -35.5q-4 -18 6 -26.5t29 -8.5q23 0 38 12.5t29 29.5q9 11 22.5 30l27 38t23.5 33t10 15q7 11 20.5 34t30 51
t34.5 59t34.5 59.5t29.5 50.5t19 33q12 20 16 33.5t11 32.5zM451 675q2 8 3 19t-1.5 21t-8.5 17t-18 7q-18 0 -35 -8.5t-31 -22t-24.5 -29.5t-14.5 -31q-3 -11 -3 -23t3 -21.5t10.5 -15.5t21.5 -6q18 0 34 9.5t29 24t22 30.5t13 29z" />
    <glyph glyph-name="cent" unicode="&#xa2;" horiz-adv-x="475" 
d="M588 558q4 17 0.5 27.5t-13 16.5t-23.5 8t-31 2q-41 0 -57.5 -1t-27.5 -3l13 45q1 7 6 19.5t6.5 25.5t-3.5 22.5t-23 9.5q-21 0 -32 -5t-17 -14.5t-9.5 -23.5t-10.5 -31l-20 -73q-95 -32 -161 -95t-95 -163q-14 -44 -10 -77t20.5 -55.5t43 -34t57.5 -11.5h13l-17 -68
q-8 -24 -10.5 -36.5t1 -18t12 -6.5t22.5 -1q17 0 26 4.5t14 13.5t8 21.5t8 28.5l26 83q24 6 50 18t51 26t46.5 29t37.5 26q16 13 27.5 29t16 30t1.5 23.5t-15 9.5q-2 0 -13.5 1t-34.5 -5.5t-47 -27.5q-5 -6 -14 -14t-21 -17t-26.5 -17.5t-29.5 -14.5l76 253l12 3.5t24 3.5
q7 0 17.5 -2.5l21 -5t19.5 -5t12 -2.5q36 -5 51 6.5t21 28.5zM241 236h-8q-29 0 -43.5 28t-1.5 70q17 57 47 91t81 58z" />
    <glyph glyph-name="sterling" unicode="&#xa3;" horiz-adv-x="550" 
d="M485 365q-14 0 -22.5 -4.5l-8.5 -4.5h-137q14 43 28 105h136q8 -5 14.5 -6t13.5 -1q27 0 42.5 14t23.5 38q7 22 0 40t-29 18q-14 0 -24.5 -5l-10.5 -5h-150q2 20 5 41t6 45q8 32 -0.5 50.5t-32.5 16.5q-27 -1 -39 -20.5t-24 -51.5v-1q1 -21 0.5 -40.5t-2.5 -39.5h-65
q-8 6 -16.5 7t-12.5 1q-25 0 -42 -17.5t-23 -38t0.5 -38t29.5 -17.5q10 0 19.5 2.5t15.5 7.5h80q-6 -27 -13.5 -53t-15.5 -52h-82q-5 5 -13 6t-15 1q-24 0 -41 -17.5t-23.5 -38t0 -38t30.5 -17.5q10 0 38 11h70l-34 -76t-34 -78q-6 -17 -10.5 -33t-4 -27.5t8.5 -18t28 -5.5
q26 2 40 17.5t22 35.5q13 -9 32 -18.5t40 -18t43 -14.5t42 -8q52 -5 90 9t64 38t41 53t21 54t4 42t-10 16q-13 -1 -22.5 -4t-17 -9.5t-13 -18.5t-11.5 -32q-4 -22 -17.5 -34.5t-32.5 -18.5t-41.5 -7.5t-44.5 -1.5q-21 0 -40.5 6t-37.5 14.5t-34 17.5t-31 15q12 29 23 54.5
t22 50.5h144q10 -5 15 -5.5t9 -0.5q27 0 46 17t26.5 37t-0.5 37t-35 17z" />
    <glyph glyph-name="currency" unicode="&#xa4;" horiz-adv-x="549" 
d="M547 192q-27 0 -59 -16.5t-68 -36t-76.5 -35.5t-85.5 -16q-29 0 -47.5 7.5t-28.5 20t-12.5 30.5t-0.5 39h29q32 0 75 3t82.5 12.5t70 26t37.5 43.5q5 23 -2.5 34.5t-32.5 3.5q-19 -6 -47 -12t-60 -11t-65.5 -9t-64.5 -7q8 19 20.5 43.5t27.5 51.5q14 3 31.5 7.5
t47.5 10.5q15 3 44.5 4t60 6.5t55.5 18t32 37.5q3 13 3 20q0 8 -17 16q-60 1 -108 -3t-90 -22q23 33 50 64.5t54 56.5t53.5 40.5t48.5 15.5q9 0 14.5 -2t7.5 -14l-7 -26q-2 -12 -4 -25.5t-0.5 -25t7.5 -19t21 -7.5q21 0 37.5 10.5t28.5 26t19.5 33.5t10.5 33q1 6 3.5 23
t2.5 35t-5 33.5t-18 19.5q-51 15 -98.5 8t-91.5 -28.5t-83 -55.5t-73 -73t-63 -80.5t-51 -78.5q-20 -32 -34.5 -59t-26.5 -53.5t-22.5 -52.5t-21.5 -54q-25 -98 20 -151t154 -53q20 0 51 5.5t67 15.5t72.5 24t68 31.5t53.5 38t28 42.5q5 15 -2 25t-22 10z" />
    <glyph glyph-name="yen" unicode="&#xa5;" horiz-adv-x="489" 
d="M33 269q-4 -15 16 -23t46 -8t43.5 1.5t36.5 3.5q-7 -18 -14 -35.5t-15 -35.5q-54 -8 -92 -20t-41 -26q-9 -20 8.5 -23t54.5 -3h40q-4 -12 -7.5 -24t-6.5 -24q-2 -8 -2.5 -17.5t2.5 -17t10 -12.5t21 -5q23 0 46 12t31 35q5 14 11 27.5t11 27.5q41 2 83 6.5t76.5 12.5
t58 19t28.5 27q5 18 -7 24t-44 6q-25 0 -67 -2t-90 -7q8 17 17 34.5t20 34.5q27 1 62 3t67 7t55.5 14t28.5 26q1 5 2 9t-0.5 7t-7.5 6t-18 6h-12q-9 0 -20 0.5t-20 0.5h-17q-13 0 -31.5 -0.5t-39.5 -1.5q2 3 4.5 6t5.5 7q9 11 27.5 34t41 52.5t47.5 62t48 61.5t41.5 52
t28.5 33q15 19 22 36t15 37q4 16 0 27.5t-27 11.5q-26 0 -45.5 -15.5t-34.5 -36.5t-27 -43t-23 -35q-6 -8 -19 -24t-29 -35.5t-33.5 -40.5t-33.5 -40.5t-28.5 -35t-18.5 -22.5q-8 -11 -18 -12t-21 -1q-32 0 -45 12.5t-14 39.5q1 5 3 17.5t6 23.5l2 9q5 21 14 41t19.5 39.5
t20 39.5t15.5 41q4 17 -3.5 32.5t-30.5 15.5q-30 0 -52.5 -19.5t-38.5 -47.5t-27 -60t-17 -56l-10 -31q-9 -33 -3 -61.5t19 -52t27.5 -42.5t22.5 -33q-29 -4 -55.5 -9t-47.5 -11.5t-34.5 -14.5t-16.5 -17z" />
    <glyph glyph-name="dieresis" unicode="&#xa8;" horiz-adv-x="485" 
d="M325 861q-8 -23 3 -40t38 -17q12 0 24.5 6.5t23.5 17t19 22.5t11 23q7 23 -9.5 36t-40.5 13q-28 0 -46 -19t-23 -42zM498 862q-8 -23 3 -40t38 -17q12 0 24.5 6.5t24 17t19.5 22.5t10 23q7 23 -9.5 36t-40.5 13q-28 0 -45.5 -19t-23.5 -42z" />
    <glyph glyph-name="copyright" unicode="&#xa9;" horiz-adv-x="632" 
d="M72 265q-14 -53 -13.5 -101t19.5 -84.5t59 -58t106 -21.5q90 0 165 32.5t133 86t97.5 122.5t58.5 142q15 56 14 111.5t-22 100t-63.5 72.5t-110.5 28q-59 0 -111.5 -20t-98 -53t-83 -77t-67 -91.5t-50.5 -96.5t-33 -92zM154 261q8 31 23.5 69.5t38 78t51 76.5t63 66
t74.5 46.5t86 17.5q51 0 81 -22t44.5 -56.5t14.5 -76.5q0 -41 -10 -80q-16 -56 -48.5 -109t-78 -93.5t-103.5 -65t-124 -24.5h-57q-11 0 -21.5 7.5t-19 17t-14.5 18.5t-7 12q-12 16 -10 42t10 49zM209 231q1 -38 25.5 -56.5t68.5 -18.5q24 0 54.5 6.5t59 19.5t51 32.5
t30.5 45.5q3 14 -2.5 27t-25.5 13q-2 0 -4.5 -0.5l-2.5 -0.5q-11 -8 -26.5 -18t-33.5 -19.5t-35.5 -16t-31.5 -6.5q-20 0 -32 12t-7 31q5 18 16 41.5t26.5 46.5t35 41.5t40.5 25.5q4 -3 13 -11t12 -11q3 0 7 -3t5 -3q8 0 20 8.5t17 12.5q3 5 5 16q1 4 2 7.5t2 6.5
q2 11 3 25.5t-2 28t-11 23t-24 9.5q-41 0 -81 -29t-73.5 -70.5t-57 -86.5t-31.5 -77l-2 -10q-2 -4 -2.5 -8t-2.5 -9z" />
    <glyph glyph-name="guillemotleft" unicode="&#xab;" horiz-adv-x="470" 
d="M429 380q3 12 8 14l122 82q8 5 9 10.5t3 12.5q1 11 -7 20t-20 11l-4 -1q-1 -1 -8.5 -1.5t-9.5 -2.5q-5 -3 -22 -12.5t-40 -22.5t-49 -28t-47.5 -28t-35.5 -23t-15 -14l-4 -18q1 -8 9 -24.5t20.5 -36.5t28 -41t31.5 -38t31.5 -28.5t28.5 -11.5l26 1q19 9 22 26q4 19 -9 37
t-29.5 37t-29.5 38.5t-9 41.5zM218 388q2 6 3.5 9t4.5 5l123 82q7 5 8.5 10.5t3.5 12.5q1 11 -7 20t-21 11l-3 -1q-1 -1 -8.5 -1.5t-10.5 -2.5q-5 -3 -22 -12.5t-40 -22.5t-48.5 -28t-47 -28t-36 -23t-14.5 -14l-5 -18q1 -8 9 -24.5t20.5 -36.5t28 -41t32 -38t32 -28.5
t28.5 -11.5l25 1q20 9 23 26q4 19 -9 37t-29.5 37t-30 38.5t-9.5 41.5z" />
    <glyph glyph-name="logicalnot" unicode="&#xac;" horiz-adv-x="949" 
d="M897 173q29 16 53 32q23 17 39.5 37.5t14.5 44.5q-1 22 -9 37.5t-21 29.5q-14 15 -44 19t-66.5 1t-74 -12.5t-65.5 -21.5q-8 -31 -20.5 -67.5t-26 -73t-26.5 -71.5t-22 -64q-8 -18 -5 -25.5t11 -19.5q11 -11 20 -18.5t23 -13.5q13 -9 23.5 -9.5t31.5 4.5q18 4 38.5 11
t41.5 15.5t40 18.5t34 22q20 14 31 29.5t11 36.5q2 17 -7.5 33t-24.5 25zM520 78q-2 -20 -3.5 -36.5t-3.5 -31.5q0 -14 3.5 -19.5t14.5 -8.5q11 -5 22 -5.5t24 -0.5q12 0 16 3.5t6 12.5q6 42 13.5 88.5t15 90.5t15.5 83.5t16 68.5q2 12 -0.5 18.5t-16.5 11.5
q-17 5 -37.5 9.5t-54.5 6.5q-20 2 -31.5 -4.5t-20.5 -17.5q-25 -30 -55.5 -70.5t-61.5 -83.5t-59 -84.5t-48 -74.5q-11 -21 -7 -27t13 -14q7 -4 14 -7t12 -6q11 -4 16 -2.5t11 10.5q11 16 22.5 32.5t26.5 35.5q29 8 65.5 12.5t72.5 9.5zM813 718q4 10 3.5 15.5t-11.5 12.5
q-22 15 -48 22q-13 3 -20 1.5t-13 -14.5q-17 -33 -35 -76t-38 -88q-18 -2 -36.5 -3t-39.5 -3q19 38 33.5 70t27.5 55q4 11 3 16.5t-12 12.5q-11 8 -24.5 13.5t-25.5 9.5q-14 4 -21 2t-12 -15q-14 -33 -30 -75.5t-33.5 -86t-34.5 -85t-33 -74.5q-6 -14 -3.5 -21t12.5 -12
q8 -6 20.5 -9.5t23.5 -6.5q12 -3 16.5 -0.5t8.5 10.5q11 24 22 53.5t27 62.5q20 3 40 5.5t40 5.5q-11 -27 -19 -49.5t-13 -40.5q-10 -18 0.5 -26.5t28.5 -14.5q18 -5 31.5 -7.5t16.5 11.5q16 40 35.5 85t39.5 89t39 84t34 71zM854 738l-116 -289q-8 -23 5 -39
q8 -9 14.5 -14.5t13.5 -11.5q5 -5 14.5 -7.5t32.5 2.5q29 5 63 11.5t66 12.5q14 3 17 6.5t1 13.5q-2 9 -3 17.5t-4 18.5q-4 8 -11 11.5t-22 1.5q-23 -2 -44 -3.5t-44 -6.5q8 14 13.5 27.5t13.5 27.5q29 6 58.5 10.5t58.5 9.5q14 3 17.5 6t1.5 14q-2 19 -7 35q-7 14 -30 13
q-33 0 -56 -4q11 23 21 43.5t21 38.5q32 5 60.5 7.5t55.5 5.5q12 2 16 5t4 14q1 9 -1 16.5t-5 17.5q-4 17 -28 17q-52 -2 -105 -10.5t-92 -17.5zM492 703q14 2 16 5t3 12q-5 23 -15 40q-5 5 -10 7.5t-19 2.5q-25 -1 -57.5 -3.5t-66 -5.5t-66.5 -7t-60 -8q-8 -2 -11.5 -5
t-1.5 -12q4 -8 7.5 -21t11.5 -22q6 -8 12.5 -10t19.5 1q8 2 20 3.5t25 3.5q-13 -29 -28 -63.5t-29.5 -69.5t-26.5 -67.5t-19 -55.5q-9 -20 2 -28.5t28 -14.5q20 -6 32 -8.5t17 11.5q15 36 32 75t35 79t36 79.5t35 74.5q21 2 41 3.5t37 3.5zM236 6q16 3 18 6t2 14
q-2 9 -3.5 18t-5.5 17q-6 9 -12 12t-19 2q-23 -2 -43.5 -4t-43.5 -5q15 31 31 65t32 67t31.5 63.5t29.5 55.5q5 10 3.5 15.5t-11.5 12.5q-11 7 -24.5 12.5t-27.5 8.5q-12 4 -19 1.5t-14 -13.5q-17 -30 -36.5 -71t-38 -84t-34.5 -82.5t-26 -67.5q-4 -12 -1.5 -20.5t8.5 -16.5
l14.5 -14.5t12.5 -11.5q6 -5 14.5 -8t31.5 3q31 6 65 12.5t66 12.5zM339 226q7 6 16.5 16t18.5 21.5t18 23.5t15 22q2 6 3.5 10t1.5 6q2 7 -4 16l-10.5 10.5t-13.5 10.5q-18 13 -30 -5q-9 -13 -21 -30t-25 -34t-24.5 -33t-19.5 -27q-11 -16 8 -20q8 -1 17 -2t16 1
q9 0 17 3.5t17 10.5zM783 205q10 23 19 42.5t20 37.5q41 16 67 17t28 -10q1 -7 -8.5 -18t-27 -23.5t-42.5 -24.5t-56 -21zM443 143q32 42 60 80t53 68q-7 -33 -13.5 -68t-11.5 -71q-23 -2 -44.5 -4t-43.5 -5zM747 130q41 13 63.5 9.5t24.5 -13.5q0 -16 -33.5 -36.5
t-88.5 -33.5q9 19 17 37t17 37z" />
    <glyph glyph-name="registered" unicode="&#xae;" horiz-adv-x="640" 
d="M79 294q-15 -58 -13.5 -111t22.5 -93.5t65 -65t115 -24.5q80 0 151 32.5t127.5 85t96 118.5t55.5 132q17 61 16 120t-24.5 105t-71 74t-123.5 28q-54 0 -103 -18.5t-92 -50t-79 -72t-64 -85t-48 -90t-30 -85.5zM158 277q8 30 24 67t38 74.5t51 73t63 63t72.5 44
t81.5 16.5q52 0 85.5 -22t50 -57t18 -77.5t-8.5 -84.5q-13 -49 -43.5 -102t-74.5 -97t-99 -72.5t-117 -28.5q-51 0 -84 15t-50 41.5t-18 64t11 82.5zM208 177q4 -7 11 -13.5t18 -6.5q21 0 31 14t17.5 31t16 31t28.5 14q14 0 20 -10t10 -22t10.5 -22t22.5 -10q8 0 12.5 2
t13.5 13q1 5 3.5 14t3.5 14q3 9 2 17.5l-2 17t-1.5 17.5t3.5 20q5 17 18.5 30.5t29 28.5t29.5 32.5t21 43.5q14 52 -8.5 80t-80.5 28q-50 0 -78.5 -20t-45.5 -63q-15 -35 -29 -67t-27 -62t-23.5 -60t-19.5 -61zM361 387q2 10 6 21t10.5 20.5t16 15.5t23.5 6q13 0 20.5 -6.5
t4.5 -17.5q-2 -8 -9 -18t-16.5 -19t-21.5 -15t-23 -6t-12 4t1 15z" />
    <glyph glyph-name="macron" unicode="&#xaf;" horiz-adv-x="409" 
d="M231 849q-7 -20 7.5 -30.5t32.5 -17.5q50 0 81.5 -0.5t56.5 0t49.5 3t59.5 7.5q13 7 18.5 15.5t8.5 19.5q4 19 -10.5 29t-34.5 10h-198q-23 0 -44 -6.5t-27 -29.5z" />
    <glyph glyph-name="degree" unicode="&#xb0;" horiz-adv-x="259" 
d="M378 646q4 18 3 36t-9 32.5t-23 23t-37 8.5q-39 0 -68.5 -16t-49.5 -41.5t-32.5 -56.5t-18.5 -61q-3 -13 1.5 -23t13.5 -17t20.5 -10.5t23.5 -3.5q30 0 58.5 10t52 27.5t40.5 41t25 50.5zM210 606q4 12 12 27.5t20 28.5t27 22t32 9q10 0 16 -5t8 -12.5t1.5 -16.5
t-1.5 -16q-9 -30 -34 -47.5t-57 -17.5q-4 0 -10 0.5l-6 0.5l-10 12q0 1 0.5 6t1.5 9z" />
    <glyph glyph-name="plusminus" unicode="&#xb1;" horiz-adv-x="534" 
d="M261 308l-5 -20q-4 -15 -0.5 -27t23.5 -12q33 0 52.5 25t33 58.5t25 67t28.5 50.5q7 7 27.5 10t47.5 4t56 2t54 4t43 9t21 17l13 48q0 4 -5 7q-2 0 -7 1t-10 1.5t-9.5 1t-5.5 0.5h-170q-6 0 -6 6l2 9q5 19 15 38.5t20.5 38.5t19.5 38.5t13 39.5l4 19q-10 19 -29 19
t-34 -10.5t-26.5 -25.5t-19.5 -31t-14 -27q-4 -6 -11 -20.5t-14.5 -30.5t-13.5 -30.5t-8 -20.5q-11 -16 -30.5 -21.5t-43 -6t-48.5 1t-47 -1.5t-38.5 -13t-22.5 -33q-4 -14 5.5 -23t24.5 -9h132q9 0 10.5 -6.5t-2.5 -14.5l-2 -8q-8 -32 -23 -62t-25 -62zM526 183q0 4 -5 7
q-2 0 -6.5 1t-10 1.5t-10 1t-5.5 0.5q-53 -4 -90 -4q-36 0 -62.5 1t-46 1.5t-37.5 -2.5q-20 -5 -42 -3.5t-44.5 4t-44 4t-39.5 -2t-31 -15t-19 -34.5q-4 -14 6 -23t25 -9h132q54 6 108.5 4t99.5 -3t75 2.5t35 20.5z" />
    <glyph glyph-name="acute" unicode="&#xb4;" horiz-adv-x="356" 
d="M477 965q-6 5 -14.5 8.5t-19.5 3.5q-22 0 -36 -10t-22.5 -23t-13.5 -25.5t-9 -17.5q-6 -10 -16.5 -20.5t-21 -21.5t-18 -22t-8.5 -22q-2 -8 6 -13.5t24 -5.5q30 0 56 20t46 46t32 51.5t13 36.5q0 2 0.5 7.5t1.5 7.5z" />
    <glyph glyph-name="paragraph" unicode="&#xb6;" horiz-adv-x="456" 
d="M494 700q-54 0 -116 -20t-118.5 -57.5t-101.5 -93t-65 -125.5q-23 -78 0 -123t89 -45q14 0 26.5 1t26.5 3l-71 -252q-9 -32 1.5 -46t29.5 -9q16 4 27.5 11.5t21 21t18 34.5t17.5 52l166 562q7 -1 15 0.5t14.5 1t12.5 -4.5t11 -17l-179 -598q-9 -32 1.5 -46t28.5 -9
q16 4 28 11.5t21.5 21t17.5 34.5t18 52l163 588q4 16 -6 26.5t-27.5 16t-37 7.5t-32.5 2z" />
    <glyph glyph-name="periodcentered" unicode="&#xb7;" horiz-adv-x="140" 
d="M97 387q-8 -23 3 -40t38 -17q12 0 24.5 6.5t24 17t19.5 22.5t10 23q7 23 -9.5 36t-40.5 13q-28 0 -45.5 -19t-23.5 -42z" />
    <glyph glyph-name="periodcentered" unicode="&#x2219;" horiz-adv-x="140" 
d="M97 387q-8 -23 3 -40t38 -17q12 0 24.5 6.5t24 17t19.5 22.5t10 23q7 23 -9.5 36t-40.5 13q-28 0 -45.5 -19t-23.5 -42z" />
    <glyph glyph-name="cedilla" unicode="&#xb8;" horiz-adv-x="500" 
d="M284 -69l31 61q2 10 6.5 23.5t5 25t-6 19.5t-25.5 8q-32 0 -51 -26t-29 -58l-18 -52l-6 -11.5t-10 -26.5q-3 -14 -0.5 -27t19.5 -16q10 -2 22 3.5t23.5 16.5t21.5 26.5t17 33.5z" />
    <glyph glyph-name="ordmasculine" unicode="&#xba;" horiz-adv-x="360" 
d="M473 542q7 27 4.5 54t-15 48.5t-35 35t-55.5 13.5q-60 0 -103.5 -24.5t-74.5 -63t-49 -85.5t-27 -92q-4 -20 2.5 -35t20 -25.5t31 -16t34.5 -5.5q46 0 89.5 15.5t79 42t61.5 62t37 76.5zM190 471q7 23 23 51t38.5 52.5t50 41t59.5 16.5q19 0 29.5 -9.5t15 -23.5t4 -30
t-3.5 -30q-17 -57 -63.5 -89t-107.5 -32q-7 0 -18 0.5l-11 0.5l-20 24q0 1 1 10.5t3 17.5zM57 258q-4 -10 -1.5 -17.5t8.5 -13t15 -10t18 -7.5q50 0 85.5 -0.5t65.5 0t58.5 3t63.5 7.5q13 7 18 15.5t8 19.5q5 19 -10 29t-35 10h-224q-23 0 -44 -6.5t-26 -29.5z" />
    <glyph glyph-name="guillemotright" unicode="&#xbb;" horiz-adv-x="470" 
d="M215 380q-6 -22 -27.5 -41.5t-45.5 -38.5t-45 -37t-25 -37q-5 -16 12 -26l24 -1q13 0 33.5 11.5t44.5 28.5t48.5 38t45.5 41t35.5 36.5t19.5 24.5l2 18q1 4 -8.5 14t-25.5 23t-35.5 28t-37 28t-30.5 22.5t-16 12.5q-2 2 -9.5 2.5t-8.5 1.5l-2 1q-14 -2 -25.5 -11
t-15.5 -20q-1 -7 -2 -12.5t4 -10.5l88 -82q2 -2 2 -5v-9zM428 388q-5 -22 -26.5 -41.5t-45.5 -38.5t-45 -37t-25 -37q-6 -17 11 -26l25 -1q13 0 33.5 11.5t44 28.5t48 38t45.5 41t35.5 36.5t19.5 24.5l3 18q1 4 -9 14t-26 23t-35 28t-36.5 28t-31 22.5t-16.5 12.5
q-2 2 -9 2.5t-8 1.5l-3 1q-13 -2 -24.5 -11t-15.5 -20q-1 -7 -2 -12.5t4 -10.5l87 -82q4 -2 2 -14z" />
    <glyph glyph-name="questiondown" unicode="&#xbf;" horiz-adv-x="564" 
d="M135 34q10 33 37 63t62.5 56t75 48.5t73.5 42t57.5 36t27.5 30.5l27 109q4 16 -7 19t-24 3q-22 0 -34 -5.5t-19.5 -15t-12.5 -22t-13 -27t-22 -30.5t-39 -31q-48 -31 -98.5 -62t-94.5 -66.5t-77 -77.5t-46 -94q-9 -35 -2.5 -61t25 -43t47.5 -25t64 -8q21 0 59 6t83 17
t92 27t87 35.5t68 42.5t35 48q5 18 4 28.5t-16 21.5q-4 0 -14 1t-14 1q-36 0 -71 -19t-73 -41.5t-81 -41t-94 -18.5q-3 0 -9.5 0.5t-13.5 0.5h-22q-20 7 -25.5 20.5t-1.5 31.5zM571 639q8 26 -5 39.5t-39 13.5q-32 0 -60.5 -17.5t-36.5 -46.5q-5 -23 12.5 -40.5t40.5 -17.5
q31 0 55.5 21.5t32.5 47.5z" />
    <glyph glyph-name="Agrave" unicode="&#xc0;" horiz-adv-x="526" 
d="M430 27q2 -11 8 -19t22 -8q19 0 32 16t17 31l69 261q-2 21 3.5 63.5t13 93.5t13.5 104.5t5 97t-11.5 71.5t-36.5 28q-29 0 -59.5 -16t-61 -41.5t-59.5 -57.5t-54 -64t-45 -61t-33 -48q-8 -12 -28 -44.5t-43 -68.5t-44 -68.5t-29 -45.5q-23 -13 -36 -23.5t-18 -33.5
q-3 -14 -10.5 -45.5t-10.5 -63.5t2 -56t26 -24q33 0 47.5 21.5t24 49.5t19 55t32.5 39q22 11 47 18t50 10.5t49.5 4.5t45.5 1h53q23 -8 24 -23t-2 -38q-2 -7 -4 -23t-6 -34zM479 586q19 -15 21.5 -46.5t-2.5 -67.5t-15 -71t-16 -57l-6 -23q-9 -10 -37 -17t-60.5 -11
t-62 -5.5t-40.5 -1.5q5 18 17 44t29.5 55.5t38.5 60t43.5 57.5t45.5 49t44 34zM604 809q1 2 2.5 7.5t1.5 7.5q4 11 3 36.5t-10 51.5t-26.5 46t-47.5 20q-16 0 -26 -5.5t-12 -13.5q-4 -11 -1 -22t8.5 -22t11.5 -21.5t8 -20.5q2 -5 1.5 -17.5t2.5 -25.5t12.5 -23t31.5 -10
q11 0 21.5 3.5t18.5 8.5z" />
    <glyph glyph-name="Aacute" unicode="&#xc1;" horiz-adv-x="526" 
d="M430 27q2 -11 8 -19t22 -8q19 0 32 16t17 31l69 261q-2 21 3.5 63.5t13 93.5t13.5 104.5t5 97t-11.5 71.5t-36.5 28q-29 0 -59.5 -16t-61 -41.5t-59.5 -57.5t-54 -64t-45 -61t-33 -48q-8 -12 -28 -44.5t-43 -68.5t-44 -68.5t-29 -45.5q-23 -13 -36 -23.5t-18 -33.5
q-3 -14 -10.5 -45.5t-10.5 -63.5t2 -56t26 -24q33 0 47.5 21.5t24 49.5t19 55t32.5 39q22 11 47 18t50 10.5t49.5 4.5t45.5 1h53q23 -8 24 -23t-2 -38q-2 -7 -4 -23t-6 -34zM479 586q19 -15 21.5 -46.5t-2.5 -67.5t-15 -71t-16 -57l-6 -23q-9 -10 -37 -17t-60.5 -11
t-62 -5.5t-40.5 -1.5q5 18 17 44t29.5 55.5t38.5 60t43.5 57.5t45.5 49t44 34zM662 965q-6 5 -14.5 8.5t-19.5 3.5q-22 0 -36 -10t-22.5 -23t-13.5 -25.5t-9 -17.5q-6 -10 -16.5 -20.5t-21 -21.5t-18 -22t-8.5 -22q-2 -8 6 -13.5t24 -5.5q30 0 56 20t46 46t32 51.5t13 36.5
q0 2 0.5 7.5t1.5 7.5z" />
    <glyph glyph-name="Acircumflex" unicode="&#xc2;" horiz-adv-x="526" 
d="M430 27q2 -11 8 -19t22 -8q19 0 32 16t17 31l69 261q-2 21 3.5 63.5t13 93.5t13.5 104.5t5 97t-11.5 71.5t-36.5 28q-29 0 -59.5 -16t-61 -41.5t-59.5 -57.5t-54 -64t-45 -61t-33 -48q-8 -12 -28 -44.5t-43 -68.5t-44 -68.5t-29 -45.5q-23 -13 -36 -23.5t-18 -33.5
q-3 -14 -10.5 -45.5t-10.5 -63.5t2 -56t26 -24q33 0 47.5 21.5t24 49.5t19 55t32.5 39q22 11 47 18t50 10.5t49.5 4.5t45.5 1h53q23 -8 24 -23t-2 -38q-2 -7 -4 -23t-6 -34zM479 586q19 -15 21.5 -46.5t-2.5 -67.5t-15 -71t-16 -57l-6 -23q-9 -10 -37 -17t-60.5 -11
t-62 -5.5t-40.5 -1.5q5 18 17 44t29.5 55.5t38.5 60t43.5 57.5t45.5 49t44 34zM575 879q6 0 6 -3l34 -70q2 -4 13 -3t15 1q17 19 19.5 27t2.5 10q-8 18 -18 38.5t-17 40.5q-2 2 -5.5 8t-8 12.5t-9 11.5t-6.5 5h-10q-1 0 -11.5 -7.5t-25 -18t-29.5 -22t-25 -18.5
q-19 -14 -29 -23t-15 -31l-3 -15q3 -13 13 -13q12 0 25 11t27.5 24t28.5 24t28 11z" />
    <glyph glyph-name="Atilde" unicode="&#xc3;" 
d="M354 21q1 -19 8.5 -20t26.5 -1q21 0 35.5 10t23.5 25t14.5 32t10.5 32q10 31 13 61.5t11 61.5l2 8l10 27l2 9q20 13 28 20.5t13 22.5q4 12 1 21t-8.5 17.5t-11.5 16.5t-7 18q0 8 2 28t4 43t4.5 43.5t4.5 28.5q2 11 3.5 26t6.5 35q6 28 8.5 58t-3 55.5t-20.5 42t-44 16.5
q-18 0 -40.5 -11.5t-44 -27t-39 -30.5t-25.5 -21q-65 -52 -114 -118.5t-85 -138.5t-61 -145t-43 -137q-2 -11 -5.5 -26.5t-3 -29.5t8 -23.5t27.5 -9.5q26 0 47 21q4 5 7 23l6.5 26t7 27.5t7 24t5.5 15.5q3 11 9.5 23t22.5 17q48 7 95.5 11.5t95.5 4.5q7 0 15 -1t10 -1l3 -14
l-3 -13q-2 -13 -4.5 -29.5t-6.5 -35.5l-11 -48q-2 -7 -3 -13.5t-4 -13.5q-3 -13 -6.5 -26t-5.5 -17zM206 331q4 11 18 36t34.5 56.5t45.5 65t50 61.5t48.5 46t40.5 18q10 0 13.5 -15.5t2.5 -39t-6 -52t-10 -54.5t-10 -45.5t-6 -25.5l-2 -9q-2 -4 -3 -7.5t-2 -8.5l-5 -23
q-12 -13 -32.5 -20t-43.5 -10.5t-44.5 -4t-34.5 -0.5h-23q-16 0 -25.5 7t-5.5 25zM354 820q-6 -20 5 -20q9 0 22 8t27 18t29 18t29 8q12 0 20.5 -7.5t17.5 -16.5t19 -16.5t24 -7.5q26 0 55.5 22t40.5 69q4 14 4 22t-9 8q-6 0 -13.5 -9t-17 -20t-20 -20t-22.5 -9
q-11 0 -18 6.5t-14 15t-15 16t-20 10.5q-3 0 -7 0.5t-10 0.5q-12 0 -31.5 -5t-38.5 -16.5t-35 -30t-22 -44.5z" />
    <glyph glyph-name="Adieresis" unicode="&#xc4;" horiz-adv-x="543" 
d="M430 27q2 -11 8 -19t22 -8q19 0 32 16t17 31l69 261q-2 21 3.5 63.5t13 93.5t13.5 104.5t5 97t-11.5 71.5t-36.5 28q-29 0 -59.5 -16t-61 -41.5t-59.5 -57.5t-54 -64t-45 -61t-33 -48q-8 -12 -28 -44.5t-43 -68.5t-44 -68.5t-29 -45.5q-23 -13 -36 -23.5t-18 -33.5
q-3 -14 -10.5 -45.5t-10.5 -63.5t2 -56t26 -24q33 0 47.5 21.5t24 49.5t19 55t32.5 39q22 11 47 18t50 10.5t49.5 4.5t45.5 1h53q23 -8 24 -23t-2 -38q-2 -7 -4 -23t-6 -34zM479 586q19 -15 21.5 -46.5t-2.5 -67.5t-15 -71t-16 -57l-6 -23q-9 -10 -37 -17t-60.5 -11
t-62 -5.5t-40.5 -1.5q5 18 17 44t29.5 55.5t38.5 60t43.5 57.5t45.5 49t44 34zM448 860q-8 -23 3 -40t38 -17q12 0 24.5 6.5t23.5 17t19 22.5t10 23q8 23 -8.5 36t-40.5 13q-28 0 -46 -19t-23 -42zM621 861q-8 -23 3 -40t38 -17q12 0 24.5 6.5t23.5 17t19 22.5t11 23
q7 23 -9.5 36t-40.5 13q-28 0 -46 -19t-23 -42z" />
    <glyph glyph-name="Aring" unicode="&#xc5;" horiz-adv-x="526" 
d="M430 27q2 -11 8 -19t22 -8q19 0 32 16t17 31l69 261q-2 21 3.5 63.5t13 93.5t13.5 104.5t5 97t-11.5 71.5t-36.5 28q-29 0 -59.5 -16t-61 -41.5t-59.5 -57.5t-54 -64t-45 -61t-33 -48q-8 -12 -28 -44.5t-43 -68.5t-44 -68.5t-29 -45.5q-23 -13 -36 -23.5t-18 -33.5
q-3 -14 -10.5 -45.5t-10.5 -63.5t2 -56t26 -24q33 0 47.5 21.5t24 49.5t19 55t32.5 39q22 11 47 18t50 10.5t49.5 4.5t45.5 1h53q23 -8 24 -23t-2 -38q-2 -7 -4 -23t-6 -34zM479 586q19 -15 21.5 -46.5t-2.5 -67.5t-15 -71t-16 -57l-6 -23q-9 -10 -37 -17t-60.5 -11
t-62 -5.5t-40.5 -1.5q5 18 17 44t29.5 55.5t38.5 60t43.5 57.5t45.5 49t44 34zM709 920q4 18 3 36t-9 32.5t-23 23t-37 8.5q-32 0 -59 -14.5t-48 -36.5t-35 -49t-20 -51q-11 -33 4.5 -55.5t47.5 -22.5q30 0 58.5 10t52 27.5t40.5 41t25 50.5zM541 880q4 12 12 27.5t20 28.5
t27 22t32 9q10 0 16 -5t8 -12.5t1.5 -16.5t-1.5 -16q-9 -30 -34 -47.5t-57 -17.5q-4 0 -11 2t-15 11q0 1 0.5 6t1.5 9z" />
    <glyph glyph-name="AE" unicode="&#xc6;" horiz-adv-x="875" 
d="M430 27q2 -11 8 -19t22 -8q10 0 17 0.5t13.5 1.5t14.5 1.5t19 0.5q22 0 55.5 6.5t71.5 18t76.5 28t71.5 36.5t56 43t30 47q7 39 -35 39q-32 0 -62 -18.5t-60 -40.5t-61 -40.5t-65 -18.5q-25 0 -41.5 11t-26.5 28l44 161q29 27 68 44t81 27.5t84 18t76 16t57.5 20.5
t28.5 33q6 22 -12 37t-41 15q-30 0 -59.5 -6.5t-59 -14.5t-59 -14.5t-57.5 -6.5h-7q-4 0 -8.5 0.5t-8 2.5t-3.5 6l2 7q3 7 3 11t2 11l4 9q13 54 44 81t72.5 37.5t90.5 9.5t99 -3q34 9 41 36q7 29 -9 42t-42 17t-56 2.5t-49 -1.5q-21 0 -53 1t-68 -1t-71 -8t-60 -21
q-5 25 -14.5 39.5t-28.5 14.5q-29 0 -59.5 -16t-61 -41.5t-59.5 -57.5t-54 -64t-45 -61t-33 -48q-8 -12 -28 -44.5t-43 -68.5t-44 -68.5t-29 -45.5q-23 -13 -36 -23.5t-18 -33.5q-3 -14 -10.5 -45.5t-10.5 -63.5t2 -56t26 -24q33 0 47.5 21.5t24 49.5t19 55t32.5 39
q22 11 47 18t50 10.5t49.5 4.5t45.5 1h53q23 -8 24 -23t-2 -38q-2 -7 -4 -23t-6 -34zM479 586q19 -15 21.5 -46.5t-2.5 -67.5t-15 -71t-16 -57l-6 -23q-9 -10 -37 -17t-60.5 -11t-62 -5.5t-40.5 -1.5q5 18 17 44t29.5 55.5t38.5 60t43.5 57.5t45.5 49t44 34z" />
    <glyph glyph-name="Ccedilla" unicode="&#xc7;" horiz-adv-x="549" 
d="M239 -71l31 61l3 14q37 6 85.5 19.5t93 33.5t78 45.5t41.5 54.5q5 15 -2 25t-22 10q-27 0 -59 -16.5t-68 -36t-76.5 -35.5t-85.5 -16q-38 0 -57.5 12t-27 32t-4.5 46.5t11 56.5q4 18 21 55t42.5 81.5t58 91.5t67.5 85.5t70 63t65 24.5q9 0 14.5 -2t7.5 -14l-7 -26
q-2 -12 -4 -25.5t-0.5 -25t7.5 -19t21 -7.5q21 0 37.5 10.5t28.5 26t19.5 33.5t10.5 33q1 6 4.5 23t4 35.5t-4.5 34t-21 18.5q-59 12 -114 1t-104 -39t-92 -69t-80 -88t-66.5 -96.5t-52 -94.5t-36.5 -82t-20 -59q-22 -85 9 -136t111 -64q-2 -5 -4 -10.5t-4 -11.5l-18 -52
l-6 -11.5t-9 -26.5q-3 -14 -0.5 -27t19.5 -16q10 -2 22 3.5t23.5 16.5t21.5 26.5t17 33.5z" />
    <glyph glyph-name="Egrave" unicode="&#xc8;" horiz-adv-x="533" 
d="M46 152q-8 -27 0 -54.5t27 -49t45 -35t54 -13.5q22 0 55.5 6.5t71.5 18t76.5 28t71.5 36.5t56 43t30 47q9 39 -35 39q-32 0 -62 -18.5t-60 -40.5t-61 -40.5t-65 -18.5q-24 0 -40.5 10.5t-26 27t-11.5 37.5t4 41q14 53 50.5 84.5t84 50.5t99.5 29t97 19t76.5 22t38.5 38
q5 22 -12.5 37t-40.5 15q-30 0 -59.5 -6.5t-59.5 -14.5t-59.5 -14.5t-57.5 -6.5h-7q-4 0 -8.5 0.5t-7.5 2.5t-3 6l1 7q3 7 3 11t2 11l4 9q13 54 44 81t72.5 37.5t90.5 9.5t99 -3q33 9 41 36q7 29 -9 42t-42 17t-56 2.5t-49 -1.5q-18 0 -44.5 1t-56.5 0t-61 -4.5t-57.5 -12
t-46 -23.5t-25.5 -38q-4 -17 -5.5 -32.5t-2 -31t-2.5 -31.5t-7 -33q-13 -50 -34.5 -99t-44 -96t-43.5 -93.5t-32 -91.5zM567 807q0 2 1.5 7.5t2.5 7.5q4 11 2.5 36.5t-10.5 51.5t-26.5 46t-47.5 20q-16 0 -26 -5.5t-12 -13.5q-4 -11 -0.5 -22t9 -22t11 -21.5t7.5 -20.5
q2 -5 1.5 -17.5t3 -25.5t13 -23t31.5 -10q11 0 21.5 3.5t18.5 8.5z" />
    <glyph glyph-name="Eacute" unicode="&#xc9;" horiz-adv-x="533" 
d="M46 152q-8 -27 0 -54.5t27 -49t45 -35t54 -13.5q22 0 55.5 6.5t71.5 18t76.5 28t71.5 36.5t56 43t30 47q9 39 -35 39q-32 0 -62 -18.5t-60 -40.5t-61 -40.5t-65 -18.5q-24 0 -40.5 10.5t-26 27t-11.5 37.5t4 41q14 53 50.5 84.5t84 50.5t99.5 29t97 19t76.5 22t38.5 38
q5 22 -12.5 37t-40.5 15q-30 0 -59.5 -6.5t-59.5 -14.5t-59.5 -14.5t-57.5 -6.5h-7q-4 0 -8.5 0.5t-7.5 2.5t-3 6l1 7q3 7 3 11t2 11l4 9q13 54 44 81t72.5 37.5t90.5 9.5t99 -3q33 9 41 36q7 29 -9 42t-42 17t-56 2.5t-49 -1.5q-18 0 -44.5 1t-56.5 0t-61 -4.5t-57.5 -12
t-46 -23.5t-25.5 -38q-4 -17 -5.5 -32.5t-2 -31t-2.5 -31.5t-7 -33q-13 -50 -34.5 -99t-44 -96t-43.5 -93.5t-32 -91.5zM619 956q-6 5 -14.5 8.5t-19.5 3.5q-22 0 -36 -10t-22.5 -23t-13.5 -25.5t-9 -17.5q-6 -10 -16.5 -20.5t-21 -21.5t-18 -22t-8.5 -22q-2 -8 6 -13.5
t24 -5.5q30 0 56 20t46 46t32 51.5t13 36.5q0 2 1 7.5t1 7.5z" />
    <glyph glyph-name="Ecircumflex" unicode="&#xca;" horiz-adv-x="533" 
d="M46 152q-8 -27 0 -54.5t27 -49t45 -35t54 -13.5q22 0 55.5 6.5t71.5 18t76.5 28t71.5 36.5t56 43t30 47q9 39 -35 39q-32 0 -62 -18.5t-60 -40.5t-61 -40.5t-65 -18.5q-24 0 -40.5 10.5t-26 27t-11.5 37.5t4 41q14 53 50.5 84.5t84 50.5t99.5 29t97 19t76.5 22t38.5 38
q5 22 -12.5 37t-40.5 15q-30 0 -59.5 -6.5t-59.5 -14.5t-59.5 -14.5t-57.5 -6.5h-7q-4 0 -8.5 0.5t-7.5 2.5t-3 6l1 7q3 7 3 11t2 11l4 9q13 54 44 81t72.5 37.5t90.5 9.5t99 -3q33 9 41 36q7 29 -9 42t-42 17t-56 2.5t-49 -1.5q-18 0 -44.5 1t-56.5 0t-61 -4.5t-57.5 -12
t-46 -23.5t-25.5 -38q-4 -17 -5.5 -32.5t-2 -31t-2.5 -31.5t-7 -33q-13 -50 -34.5 -99t-44 -96t-43.5 -93.5t-32 -91.5zM526 858q5 0 7 -3l34 -70q2 -4 12.5 -3t14.5 1q18 19 20.5 27t1.5 10q-8 18 -18 38.5t-17 40.5q-2 2 -5.5 8t-8 12.5t-8.5 11.5t-6 5h-10
q-1 0 -11.5 -7.5t-25 -18t-30 -22t-24.5 -18.5q-19 -14 -29 -23t-16 -31l-3 -15q3 -13 13 -13q12 0 25 11t27.5 24t28.5 24t28 11z" />
    <glyph glyph-name="Edieresis" unicode="&#xcb;" horiz-adv-x="533" 
d="M46 152q-8 -27 0 -54.5t27 -49t45 -35t54 -13.5q22 0 55.5 6.5t71.5 18t76.5 28t71.5 36.5t56 43t30 47q9 39 -35 39q-32 0 -62 -18.5t-60 -40.5t-61 -40.5t-65 -18.5q-24 0 -40.5 10.5t-26 27t-11.5 37.5t4 41q14 53 50.5 84.5t84 50.5t99.5 29t97 19t76.5 22t38.5 38
q5 22 -12.5 37t-40.5 15q-30 0 -59.5 -6.5t-59.5 -14.5t-59.5 -14.5t-57.5 -6.5h-7q-4 0 -8.5 0.5t-7.5 2.5t-3 6l1 7q3 7 3 11t2 11l4 9q13 54 44 81t72.5 37.5t90.5 9.5t99 -3q33 9 41 36q7 29 -9 42t-42 17t-56 2.5t-49 -1.5q-18 0 -44.5 1t-56.5 0t-61 -4.5t-57.5 -12
t-46 -23.5t-25.5 -38q-4 -17 -5.5 -32.5t-2 -31t-2.5 -31.5t-7 -33q-13 -50 -34.5 -99t-44 -96t-43.5 -93.5t-32 -91.5zM541 858q-8 -23 3 -40t38 -17q12 0 24.5 6.5t24 17t19.5 22.5t10 23q8 23 -9 36t-41 13q-28 0 -45.5 -19t-23.5 -42zM368 857q-8 -23 3 -40t38 -17
q12 0 24.5 6.5t24 17t19.5 22.5t10 23q7 23 -9.5 36t-40.5 13q-28 0 -45.5 -19t-23.5 -42z" />
    <glyph glyph-name="Igrave" unicode="&#xcc;" horiz-adv-x="494" 
d="M32 49q-3 -14 3 -23t17 -15t25 -8.5t27 -2.5q10 0 40.5 3.5t70 9t82.5 13.5t80 16.5t62.5 18t28.5 17.5q7 25 -8.5 36.5t-39.5 15t-50 2t-40 -1.5q-8 3 -8.5 7.5t-2.5 11.5l9 32l10 45q7 28 12 47l8 30q25 95 51.5 190t66.5 189q7 11 13 12t15 1q23 0 41.5 -3.5
t41.5 -3.5q3 0 13 0.5t13 0.5q16 5 19 13t6 17q6 26 -6.5 41.5t-38.5 23.5q-3 0 -10 0.5t-16 0.5q-8 0 -16 0.5t-11 0.5q-5 0 -12.5 -0.5t-18.5 -0.5q-8 0 -14.5 -0.5l-6.5 -0.5q-5 0 -22.5 -2.5t-37.5 -6.5l-37.5 -7.5t-23.5 -4.5q-18 -4 -50 -4.5t-65 -6t-60 -19
t-35 -43.5q-3 -12 1.5 -21.5t13.5 -15.5t21 -9.5t24 -3.5q26 0 50.5 9t50.5 9q3 0 8 -1t7 -2l2 -14l-137 -525q-5 -15 -17.5 -21t-29 -7.5t-35.5 -1t-36 -2t-30 -10t-18 -25.5zM485 842q1 2 2.5 7.5t1.5 7.5q4 11 3 36.5t-10 51.5t-26.5 46t-47.5 20q-16 0 -26 -5.5
t-12 -13.5q-4 -11 -1 -22t8.5 -22t11.5 -21.5t8 -20.5q2 -5 1.5 -17.5t2.5 -25.5t12.5 -23t31.5 -10q11 0 21.5 3.5t18.5 8.5z" />
    <glyph glyph-name="Iacute" unicode="&#xcd;" horiz-adv-x="494" 
d="M32 49q-3 -14 3 -23t17 -15t25 -8.5t27 -2.5q10 0 40.5 3.5t70 9t82.5 13.5t80 16.5t62.5 18t28.5 17.5q7 25 -8.5 36.5t-39.5 15t-50 2t-40 -1.5q-8 3 -8.5 7.5t-2.5 11.5l9 32l10 45q7 28 12 47l8 30q25 95 51.5 190t66.5 189q7 11 13 12t15 1q23 0 41.5 -3.5
t41.5 -3.5q3 0 13 0.5t13 0.5q16 5 19 13t6 17q6 26 -6.5 41.5t-38.5 23.5q-3 0 -10 0.5t-16 0.5q-8 0 -16 0.5t-11 0.5q-5 0 -12.5 -0.5t-18.5 -0.5q-8 0 -14.5 -0.5l-6.5 -0.5q-5 0 -22.5 -2.5t-37.5 -6.5l-37.5 -7.5t-23.5 -4.5q-18 -4 -50 -4.5t-65 -6t-60 -19
t-35 -43.5q-3 -12 1.5 -21.5t13.5 -15.5t21 -9.5t24 -3.5q26 0 50.5 9t50.5 9q3 0 8 -1t7 -2l2 -14l-137 -525q-5 -15 -17.5 -21t-29 -7.5t-35.5 -1t-36 -2t-30 -10t-18 -25.5zM561 1002q-6 5 -14.5 8.5t-19.5 3.5q-22 0 -36 -10t-23 -23t-14 -25.5t-9 -17.5
q-6 -10 -16 -20.5t-20.5 -21.5t-18 -22t-8.5 -22q-2 -8 6 -13.5t24 -5.5q30 0 56 20t46 46t32 51.5t13 36.5q0 2 0.5 7.5t1.5 7.5z" />
    <glyph glyph-name="Icircumflex" unicode="&#xce;" horiz-adv-x="494" 
d="M32 49q-3 -14 3 -23t17 -15t25 -8.5t27 -2.5q10 0 40.5 3.5t70 9t82.5 13.5t80 16.5t62.5 18t28.5 17.5q7 25 -8.5 36.5t-39.5 15t-50 2t-40 -1.5q-8 3 -8.5 7.5t-2.5 11.5l9 32l10 45q7 28 12 47l8 30q25 95 51.5 190t66.5 189q7 11 13 12t15 1q23 0 41.5 -3.5
t41.5 -3.5q3 0 13 0.5t13 0.5q16 5 19 13t6 17q6 26 -6.5 41.5t-38.5 23.5q-3 0 -10 0.5t-16 0.5q-8 0 -16 0.5t-11 0.5q-5 0 -12.5 -0.5t-18.5 -0.5q-8 0 -14.5 -0.5l-6.5 -0.5q-5 0 -22.5 -2.5t-37.5 -6.5l-37.5 -7.5t-23.5 -4.5q-18 -4 -50 -4.5t-65 -6t-60 -19
t-35 -43.5q-3 -12 1.5 -21.5t13.5 -15.5t21 -9.5t24 -3.5q26 0 50.5 9t50.5 9q3 0 8 -1t7 -2l2 -14l-137 -525q-5 -15 -17.5 -21t-29 -7.5t-35.5 -1t-36 -2t-30 -10t-18 -25.5zM466 904q5 0 7 -3l34 -70q2 -4 12.5 -3t14.5 1q18 19 20.5 27t1.5 10q-8 18 -18 38.5t-17 40.5
q-2 2 -5.5 8t-8 12.5t-8.5 11.5t-6 5h-10q-1 0 -11.5 -7.5t-25 -18t-30 -22t-24.5 -18.5q-19 -14 -29 -23t-16 -31l-3 -15q3 -13 13 -13q12 0 25 11t27.5 24t28.5 24t28 11z" />
    <glyph glyph-name="Idieresis" unicode="&#xcf;" horiz-adv-x="494" 
d="M32 49q-3 -14 3 -23t17 -15t25 -8.5t27 -2.5q10 0 40.5 3.5t70 9t82.5 13.5t80 16.5t62.5 18t28.5 17.5q7 25 -8.5 36.5t-39.5 15t-50 2t-40 -1.5q-8 3 -8.5 7.5t-2.5 11.5l9 32l10 45q7 28 12 47l8 30q25 95 51.5 190t66.5 189q7 11 13 12t15 1q23 0 41.5 -3.5
t41.5 -3.5q3 0 13 0.5t13 0.5q16 5 19 13t6 17q6 26 -6.5 41.5t-38.5 23.5q-3 0 -10 0.5t-16 0.5q-8 0 -16 0.5t-11 0.5q-5 0 -12.5 -0.5t-18.5 -0.5q-8 0 -14.5 -0.5l-6.5 -0.5q-5 0 -22.5 -2.5t-37.5 -6.5l-37.5 -7.5t-23.5 -4.5q-18 -4 -50 -4.5t-65 -6t-60 -19
t-35 -43.5q-3 -12 1.5 -21.5t13.5 -15.5t21 -9.5t24 -3.5q26 0 50.5 9t50.5 9q3 0 8 -1t7 -2l2 -14l-137 -525q-5 -15 -17.5 -21t-29 -7.5t-35.5 -1t-36 -2t-30 -10t-18 -25.5zM485 894q-8 -23 3 -40t38 -17q12 0 24.5 6.5t23.5 17t19 22.5t11 23q7 23 -9.5 36t-40.5 13
q-28 0 -46 -19t-23 -42zM312 893q-8 -23 3 -40t38 -17q12 0 24.5 6.5t23.5 17t19 22.5t10 23q8 23 -8.5 36t-40.5 13q-28 0 -46 -19t-23 -42z" />
    <glyph glyph-name="Eth" unicode="&#xd0;" horiz-adv-x="552" 
d="M36 371q-4 -10 -1.5 -17.5t8.5 -13.5t14.5 -10.5t17.5 -7.5h18q-5 -19 -10.5 -37.5t-10.5 -37.5l-9 -33q-2 -11 -4.5 -20.5t-4.5 -19.5l-7 -34l-5 -18q-10 -41 -12.5 -65t7 -36.5t34 -16.5t67.5 -4q74 0 149 26.5t139.5 72t112.5 106t66 128.5q19 70 16 141t-31.5 128
t-84 93t-141.5 36h-63q-13 -4 -27.5 -9t-28 -11t-24.5 -14.5t-17 -20.5q-17 -67 -37 -131t-42 -128h-16q-23 0 -45.5 -11.5t-27.5 -34.5zM159 200q8 32 16.5 62.5t18.5 60.5q40 2 82 6.5t101 13.5q13 7 18 15.5t8 19.5q5 19 -9.5 29t-34.5 10h-133q14 38 30.5 78t35.5 85
q17 16 28.5 22t34.5 6q50 0 82.5 -25.5t49.5 -63.5t19.5 -82.5t-7.5 -82.5q-12 -45 -44 -88t-75.5 -77t-95.5 -54.5t-104 -20.5q-5 0 -15 1t-11 1l-13 14q0 1 2.5 10t4.5 20t5.5 22t5.5 18z" />
    <glyph glyph-name="Ntilde" unicode="&#xd1;" horiz-adv-x="582" 
d="M44 40q-4 -13 4 -26.5t22 -13.5q26 0 40 17.5t22 37.5q3 11 9.5 35t15.5 54.5t18.5 64t18 64t15.5 54.5t11 36q1 3 4.5 14t8 23.5t9 23t6.5 13.5q1 1 4 6t6 7h8q1 -2 5 -9.5t5 -10.5l27 -122q2 -10 7.5 -30.5t12 -42.5t12 -40.5t8.5 -24.5q5 -14 11.5 -35t16.5 -40.5
t25 -33.5t36 -14q27 0 49 17t39 40t29 48t20 40q4 11 15 42t23 66t22 66t13 43l5 19q5 17 10.5 38t10.5 44l10 35l8 28q5 20 10 41t12 41l8 27q0 14 0.5 28.5t-2.5 26.5t-11.5 19.5t-27.5 7.5q-17 0 -29.5 -13.5t-21.5 -32t-14.5 -37t-9.5 -28.5q-18 -68 -31 -135t-32 -136
l-6 -26q-4 -16 -10 -35t-11 -38l-7 -23q-2 -3 -5.5 -11.5t-8.5 -17.5t-11 -15.5t-12 -6.5q-11 0 -21 15t-18.5 38t-15.5 51.5t-12 55t-7.5 48.5t-3.5 33l-9 82q-1 6 -3.5 24t-6 37.5t-6.5 37.5l-4 24q-14 23 -36.5 39t-54.5 16q-14 0 -25 -8.5t-19.5 -20.5t-14 -24.5
t-8.5 -20.5q-3 -9 -10.5 -31t-15 -46t-13.5 -45t-8 -29l-6 -21q-5 -19 -11.5 -41t-12.5 -45l-8 -36l-22 -79q-15 -55 -27.5 -106.5t-22.5 -116.5zM361 806q-6 -20 5 -20q9 0 22 8t27 18t29 18t29 8q12 0 20.5 -7.5t17.5 -16.5t19 -16.5t24 -7.5q26 0 55.5 22t40.5 69
q4 14 4 22t-9 8q-6 0 -13.5 -9t-17 -20t-20 -20t-22.5 -9q-11 0 -18 6.5t-14 15t-15 16t-19 10.5q-3 0 -7.5 0.5t-10.5 0.5q-12 0 -31.5 -5t-38.5 -16.5t-35 -30t-22 -44.5z" />
    <glyph glyph-name="Ograve" unicode="&#xd2;" horiz-adv-x="831" 
d="M71 256q-15 -62 -5 -109.5t40.5 -80t78.5 -49.5t110 -17q94 0 189.5 31.5t177.5 87.5t143 133.5t86 169.5q17 64 7 119.5t-42 95.5t-84 63t-118 23q-62 0 -125.5 -19t-123.5 -51.5t-114 -77.5t-98 -96.5t-75.5 -108.5t-46.5 -114zM195 291q9 34 32 72.5t55.5 77.5
t72 74.5t82 62.5t85.5 43.5t81 16.5q50 0 87.5 -22.5t60.5 -58.5t29.5 -81t-4.5 -90q-10 -38 -33 -74.5t-56 -69t-73 -60t-83 -47.5t-86 -31.5t-82 -11.5q-48 0 -85 13.5t-59.5 39t-29.5 62.5t6 84zM682 801q1 2 2.5 7.5t1.5 7.5q4 11 3 36.5t-10 51.5t-26.5 46t-47.5 20
q-16 0 -26 -5.5t-12 -13.5q-4 -11 -0.5 -22t9 -22t11 -21.5t7.5 -20.5q2 -5 1.5 -17.5t3 -25.5t13 -23t31.5 -10q11 0 21 3.5t18 8.5z" />
    <glyph glyph-name="Oacute" unicode="&#xd3;" horiz-adv-x="831" 
d="M71 256q-15 -62 -5 -109.5t40.5 -80t78.5 -49.5t110 -17q94 0 189.5 31.5t177.5 87.5t143 133.5t86 169.5q17 64 7 119.5t-42 95.5t-84 63t-118 23q-62 0 -125.5 -19t-123.5 -51.5t-114 -77.5t-98 -96.5t-75.5 -108.5t-46.5 -114zM195 291q9 34 32 72.5t55.5 77.5
t72 74.5t82 62.5t85.5 43.5t81 16.5q50 0 87.5 -22.5t60.5 -58.5t29.5 -81t-4.5 -90q-10 -38 -33 -74.5t-56 -69t-73 -60t-83 -47.5t-86 -31.5t-82 -11.5q-48 0 -85 13.5t-59.5 39t-29.5 62.5t6 84zM745 953q-6 5 -15 8.5t-20 3.5q-22 0 -35.5 -10t-22.5 -23t-14 -25.5
t-9 -17.5q-6 -10 -16.5 -20.5t-20.5 -21.5t-17.5 -22t-8.5 -22q-2 -8 6 -13.5t24 -5.5q30 0 56 20t46 46t31.5 51.5t12.5 36.5q1 2 1.5 7.5t1.5 7.5z" />
    <glyph glyph-name="Ocircumflex" unicode="&#xd4;" horiz-adv-x="831" 
d="M71 256q-15 -62 -5 -109.5t40.5 -80t78.5 -49.5t110 -17q94 0 189.5 31.5t177.5 87.5t143 133.5t86 169.5q17 64 7 119.5t-42 95.5t-84 63t-118 23q-62 0 -125.5 -19t-123.5 -51.5t-114 -77.5t-98 -96.5t-75.5 -108.5t-46.5 -114zM195 291q9 34 32 72.5t55.5 77.5
t72 74.5t82 62.5t85.5 43.5t81 16.5q50 0 87.5 -22.5t60.5 -58.5t29.5 -81t-4.5 -90q-10 -38 -33 -74.5t-56 -69t-73 -60t-83 -47.5t-86 -31.5t-82 -11.5q-48 0 -85 13.5t-59.5 39t-29.5 62.5t6 84zM677 863q5 0 7 -3l34 -70q2 -4 12.5 -3t14.5 1q18 19 20.5 27t1.5 10
q-8 18 -18 38.5t-17 40.5q-2 2 -5.5 8t-8 12.5t-8.5 11.5t-6 5h-10q-1 0 -11.5 -7.5t-25 -18t-30 -22t-24.5 -18.5q-19 -14 -29 -23t-15 -31l-4 -15q3 -13 14 -13q12 0 25 11t27 24t28 24t28 11z" />
    <glyph glyph-name="Otilde" unicode="&#xd5;" horiz-adv-x="831" 
d="M71 256q-15 -62 -5 -109.5t40.5 -80t78.5 -49.5t110 -17q94 0 189.5 31.5t177.5 87.5t143 133.5t86 169.5q17 64 7 119.5t-42 95.5t-84 63t-118 23q-62 0 -125.5 -19t-123.5 -51.5t-114 -77.5t-98 -96.5t-75.5 -108.5t-46.5 -114zM195 291q9 34 32 72.5t55.5 77.5
t72 74.5t82 62.5t85.5 43.5t81 16.5q50 0 87.5 -22.5t60.5 -58.5t29.5 -81t-4.5 -90q-10 -38 -33 -74.5t-56 -69t-73 -60t-83 -47.5t-86 -31.5t-82 -11.5q-48 0 -85 13.5t-59.5 39t-29.5 62.5t6 84zM517 807q-6 -20 4 -20q9 0 22 8t27 18t29 18t29 8q12 0 20.5 -7.5
t17.5 -16.5t19 -16.5t24 -7.5q26 0 55.5 22t40.5 69q4 14 4 22t-9 8q-6 0 -13.5 -9t-16.5 -20t-19.5 -20t-22.5 -9q-11 0 -18.5 6.5t-14.5 15t-15 16t-19 10.5q-3 0 -7.5 0.5t-10.5 0.5q-12 0 -31.5 -5t-38.5 -16.5t-34.5 -30t-21.5 -44.5z" />
    <glyph glyph-name="Odieresis" unicode="&#xd6;" horiz-adv-x="831" 
d="M71 256q-15 -62 -5 -109.5t40.5 -80t78.5 -49.5t110 -17q94 0 189.5 31.5t177.5 87.5t143 133.5t86 169.5q17 64 7 119.5t-42 95.5t-84 63t-118 23q-62 0 -125.5 -19t-123.5 -51.5t-114 -77.5t-98 -96.5t-75.5 -108.5t-46.5 -114zM195 291q9 34 32 72.5t55.5 77.5
t72 74.5t82 62.5t85.5 43.5t81 16.5q50 0 87.5 -22.5t60.5 -58.5t29.5 -81t-4.5 -90q-10 -38 -33 -74.5t-56 -69t-73 -60t-83 -47.5t-86 -31.5t-82 -11.5q-48 0 -85 13.5t-59.5 39t-29.5 62.5t6 84zM537 854q-8 -23 2.5 -40t37.5 -17q12 0 24.5 6.5t24 17t19.5 22.5t10 23
q8 23 -9 36t-41 13q-28 0 -45.5 -19t-22.5 -42zM710 855q-8 -23 3 -40t38 -17q12 0 24.5 6.5t23.5 17t19 22.5t10 23q8 23 -8.5 36t-40.5 13q-28 0 -46 -19t-23 -42z" />
    <glyph glyph-name="multiply" unicode="&#xd7;" horiz-adv-x="427" 
d="M124 305l-14 -13q-12 -14 -16 -26.5t6 -23.5q11 -13 26 -11.5t31.5 11t34 25t34 31t31.5 28t27 15.5q8 1 20.5 -8.5t27.5 -24t31 -31.5t31 -29.5t27.5 -17.5t20.5 3q26 28 31 35.5t3 9.5q-1 2 -6.5 11.5t-6.5 11.5l-90 102q-3 4 -1 8l7 8q14 15 30 26.5t32 22.5t31.5 23
t28.5 27l12 14q7 23 -3 36q-10 11 -24 10.5t-28.5 -7t-28 -16t-22.5 -16.5q-5 -3 -17 -12t-25 -19.5t-24 -20t-15 -12.5q-15 -8 -28.5 -1t-26 20.5t-25 30t-25.5 27t-27.5 11t-30.5 -17.5q-9 -10 -9.5 -23.5t7.5 -22.5l71 -80q4 -6 0.5 -12t-8.5 -11l-6 -6
q-22 -25 -46.5 -43.5t-47.5 -41.5z" />
    <glyph glyph-name="Oslash" unicode="&#xd8;" horiz-adv-x="831" 
d="M71 256q-12 -48 -8.5 -88t20.5 -71t47 -52t69 -33q-3 -12 1 -21.5t20 -9.5q15 0 27.5 5.5t23.5 13.5h24q94 0 189.5 31.5t177.5 87.5t143 133.5t86 169.5q21 80 1 144.5t-71 104.5q2 4 3 7.5t3 8.5q5 20 -1.5 29t-29.5 9q-12 0 -39 -19q-48 17 -103 17q-62 0 -125.5 -19
t-123.5 -51.5t-114 -77.5t-98 -96.5t-75.5 -108.5t-46.5 -114zM195 291q9 34 32 72.5t55.5 77.5t72 74.5t82 62.5t85.5 43.5t81 16.5q18 0 34.5 -3.5t30.5 -8.5q-33 -34 -70 -75t-75 -86t-76.5 -92t-73.5 -92.5t-65.5 -87.5t-53.5 -77q-43 24 -59.5 68t0.5 107zM776 386
q-10 -38 -33 -74.5t-56 -69t-73 -60t-83 -47.5t-86 -31.5t-82 -11.5h-17q20 27 47 61.5t55.5 71t56.5 71.5t50.5 64t38 48t19.5 23q3 3 17 18.5t33 36.5t40 44.5t37 41.5q29 -37 38.5 -86t-2.5 -100z" />
    <glyph glyph-name="Ugrave" unicode="&#xd9;" horiz-adv-x="493" 
d="M98 339q-7 -27 -15.5 -62t-14 -73t-5 -74.5t11.5 -65t35.5 -46.5t67.5 -18q57 0 106.5 19.5t90.5 52.5t74 76.5t56 90.5q13 47 25 87t23 78t22 75.5t22 79.5l11 42q8 27 12 51.5t12 63.5q-5 28 -40 28q-23 0 -39.5 -10.5t-23.5 -30.5l-5 -17q-2 -11 -5.5 -21.5
t-7.5 -21.5l-4 -16q-13 -48 -20 -96t-21 -98q-5 -19 -15.5 -50.5t-26 -67.5t-35.5 -73t-44.5 -66.5t-54 -48t-62.5 -18.5q-25 0 -37.5 16t-16.5 40.5t-1.5 53.5t8.5 55l15 68q3 8 5 15t3 12l2 5q3 10 11.5 32t19 49t22.5 56.5t23.5 56.5t20.5 49t14 32l5 9q4 17 -1 31
t-28 14q-16 0 -28.5 -9t-21.5 -18q-25 -44 -46.5 -85.5t-39.5 -82t-32.5 -82.5t-26.5 -87zM505 782q1 2 2.5 7.5t1.5 7.5q4 11 3 36.5t-10 51.5t-26.5 46t-47.5 20q-16 0 -26 -5.5t-12 -13.5q-4 -11 -0.5 -22t9 -22t11 -21.5t7.5 -20.5q2 -5 1.5 -17.5t3 -25.5t13 -23
t31.5 -10q11 0 21 3.5t18 8.5z" />
    <glyph glyph-name="Uacute" unicode="&#xda;" horiz-adv-x="493" 
d="M98 339q-7 -27 -15.5 -62t-14 -73t-5 -74.5t11.5 -65t35.5 -46.5t67.5 -18q57 0 106.5 19.5t90.5 52.5t74 76.5t56 90.5q13 47 25 87t23 78t22 75.5t22 79.5l11 42q8 27 12 51.5t12 63.5q-5 28 -40 28q-23 0 -39.5 -10.5t-23.5 -30.5l-5 -17q-2 -11 -5.5 -21.5
t-7.5 -21.5l-4 -16q-13 -48 -20 -96t-21 -98q-5 -19 -15.5 -50.5t-26 -67.5t-35.5 -73t-44.5 -66.5t-54 -48t-62.5 -18.5q-25 0 -37.5 16t-16.5 40.5t-1.5 53.5t8.5 55l15 68q3 8 5 15t3 12l2 5q3 10 11.5 32t19 49t22.5 56.5t23.5 56.5t20.5 49t14 32l5 9q4 17 -1 31
t-28 14q-16 0 -28.5 -9t-21.5 -18q-25 -44 -46.5 -85.5t-39.5 -82t-32.5 -82.5t-26.5 -87zM570 930q-6 5 -15 8.5t-20 3.5q-22 0 -35.5 -10t-22.5 -23t-14 -25.5t-9 -17.5q-6 -10 -16.5 -20.5t-20.5 -21.5t-17.5 -22t-8.5 -22q-2 -8 6 -13.5t24 -5.5q30 0 56 20t46 46
t31.5 51.5t12.5 36.5q1 2 1.5 7.5t1.5 7.5z" />
    <glyph glyph-name="Ucircumflex" unicode="&#xdb;" horiz-adv-x="493" 
d="M98 339q-7 -27 -15.5 -62t-14 -73t-5 -74.5t11.5 -65t35.5 -46.5t67.5 -18q57 0 106.5 19.5t90.5 52.5t74 76.5t56 90.5q13 47 25 87t23 78t22 75.5t22 79.5l11 42q8 27 12 51.5t12 63.5q-5 28 -40 28q-23 0 -39.5 -10.5t-23.5 -30.5l-5 -17q-2 -11 -5.5 -21.5
t-7.5 -21.5l-4 -16q-13 -48 -20 -96t-21 -98q-5 -19 -15.5 -50.5t-26 -67.5t-35.5 -73t-44.5 -66.5t-54 -48t-62.5 -18.5q-25 0 -37.5 16t-16.5 40.5t-1.5 53.5t8.5 55l15 68q3 8 5 15t3 12l2 5q3 10 11.5 32t19 49t22.5 56.5t23.5 56.5t20.5 49t14 32l5 9q4 17 -1 31
t-28 14q-16 0 -28.5 -9t-21.5 -18q-25 -44 -46.5 -85.5t-39.5 -82t-32.5 -82.5t-26.5 -87zM465 845q4 0 6 -3l34 -70q2 -4 13 -3t15 1q17 19 19.5 27t2.5 10q-8 18 -18 38.5t-18 40.5q-1 2 -4.5 8t-8 12.5t-9 11.5t-6.5 5h-10q-1 0 -11.5 -7.5t-25 -18t-30 -22t-24.5 -18.5
q-19 -14 -29 -23t-15 -31l-4 -15q4 -13 14 -13q12 0 25 11t27.5 24t28.5 24t28 11z" />
    <glyph glyph-name="Udieresis" unicode="&#xdc;" horiz-adv-x="493" 
d="M98 339q-7 -27 -15.5 -62t-14 -73t-5 -74.5t11.5 -65t35.5 -46.5t67.5 -18q57 0 106.5 19.5t90.5 52.5t74 76.5t56 90.5q13 47 25 87t23 78t22 75.5t22 79.5l11 42q8 27 12 51.5t12 63.5q-5 28 -40 28q-23 0 -39.5 -10.5t-23.5 -30.5l-5 -17q-2 -11 -5.5 -21.5
t-7.5 -21.5l-4 -16q-13 -48 -20 -96t-21 -98q-5 -19 -15.5 -50.5t-26 -67.5t-35.5 -73t-44.5 -66.5t-54 -48t-62.5 -18.5q-25 0 -37.5 16t-16.5 40.5t-1.5 53.5t8.5 55l15 68q3 8 5 15t3 12l2 5q3 10 11.5 32t19 49t22.5 56.5t23.5 56.5t20.5 49t14 32l5 9q4 17 -1 31
t-28 14q-16 0 -28.5 -9t-21.5 -18q-25 -44 -46.5 -85.5t-39.5 -82t-32.5 -82.5t-26.5 -87zM498 862q-8 -23 3 -40t38 -17q12 0 24.5 6.5t24 17t19.5 22.5t10 23q7 23 -9.5 36t-40.5 13q-28 0 -45.5 -19t-23.5 -42zM325 861q-8 -23 3 -40t38 -17q12 0 24.5 6.5t23.5 17
t19 22.5t11 23q7 23 -9.5 36t-40.5 13q-28 0 -46 -19t-23 -42z" />
    <glyph glyph-name="Yacute" unicode="&#xdd;" horiz-adv-x="489" 
d="M102 52q-2 -8 -2.5 -17.5t2.5 -17t10 -12.5t21 -5q23 0 46 12t31 35q17 42 32.5 79.5t33 73.5t39.5 72t51 75q9 11 27.5 34t41 52.5t47.5 62t48 61.5t41.5 52t28.5 33q15 19 22 36t15 37q4 16 0 27.5t-27 11.5q-26 0 -45.5 -15.5t-34.5 -36.5t-27 -43t-23 -35
q-6 -8 -19 -24t-29 -35.5t-33.5 -40.5t-33.5 -40.5t-28.5 -35t-18.5 -22.5q-8 -11 -18 -12t-21 -1q-32 0 -45 12.5t-14 39.5q1 5 3 17.5t6 23.5l2 9q5 21 14 41t19.5 39.5t20 39.5t15.5 41q4 17 -3.5 32.5t-30.5 15.5q-30 0 -52.5 -19.5t-38.5 -47.5t-27 -60t-17 -56
l-10 -31q-11 -41 0 -74.5t28.5 -59.5t32.5 -45.5t11 -31.5q-8 -31 -20.5 -61.5t-25 -61.5l-25 -62t-20.5 -62zM556 957q-5 5 -14 8.5t-20 3.5q-22 0 -35.5 -10t-22.5 -23t-14 -25.5t-9 -17.5q-6 -10 -16.5 -20.5t-20.5 -21.5t-17.5 -22t-8.5 -22q-2 -8 5.5 -13.5t23.5 -5.5
q30 0 56 20t46 46t32 51.5t13 36.5q1 2 1.5 7.5t0.5 7.5z" />
    <glyph glyph-name="Thorn" unicode="&#xde;" horiz-adv-x="537" 
d="M246 750q-19 -72 -47.5 -154t-59 -166t-59.5 -166.5t-48 -154.5l-19 -75q1 -23 10.5 -28.5t32.5 -5.5q20 0 36 11t24 29q3 8 5.5 16.5t6.5 16.5l16 22q1 4 14.5 10.5t34 14t45.5 16t47.5 16.5t40 14t24.5 10q46 21 96 51.5t94 68t77.5 80.5t45.5 90q13 47 1 80t-40.5 54
t-70 30.5t-87.5 9.5q-20 0 -63.5 -5.5t-92.5 -16.5q14 49 18 70l7 22q2 11 2 23q0 13 -4.5 23t-13.5 16.5t-24 6.5q-14 0 -24 -6t-25 -23zM191 231q10 38 22.5 74.5t24 67t21.5 54t15 35.5q12 25 32 40.5t44.5 23.5t52 10.5t53.5 2.5q25 0 43.5 -3t30 -11.5t14.5 -23.5
t-4 -39q-6 -25 -26 -52t-48.5 -53.5t-62.5 -50.5t-69.5 -42t-69.5 -29t-61 -11h-8q-4 0 -4 7z" />
    <glyph glyph-name="germandbls" unicode="&#xdf;" horiz-adv-x="1050" 
d="M55 194q-14 -53 -1.5 -90t43.5 -60t76.5 -33.5t98.5 -10.5q73 0 133.5 25.5t106.5 69.5q8 -29 28.5 -49.5t49.5 -33t65 -18.5t76 -6q70 0 128.5 23.5t104 63.5t76.5 92.5t46 110.5q12 46 -8 78t-57 54.5t-83.5 38t-86 28.5t-65 26t-20.5 30q1 3 2.5 8t1.5 6
q25 20 51.5 38.5t54 33t56 23t59.5 8.5q16 0 27.5 -4.5t22 -10t21.5 -10t25 -4.5q18 0 31 11.5t17 27.5q6 22 -1.5 40.5t-24 31.5t-38.5 20.5t-43 7.5q-29 0 -66.5 -10.5t-78.5 -29t-81 -43t-73.5 -52t-57.5 -57t-31 -56.5q-8 -29 4 -48.5t37 -33t59 -22.5t69.5 -18t69 -20
t57.5 -27.5t35 -41t1 -61.5q-21 -81 -80.5 -122.5t-147.5 -41.5q-54 0 -82 16t-41 38.5t-15 47.5t-4 43q15 31 25 69q12 46 -8 78t-57 54.5t-83.5 38t-86.5 28.5t-65 26t-20 30q1 3 2.5 8t1.5 6q25 20 51 38.5t53.5 33t56.5 23t60 8.5q16 0 27.5 -4.5t22 -10t21.5 -10
t25 -4.5q18 0 30.5 11.5t17.5 27.5q6 22 -2 40.5t-24.5 31.5t-38.5 20.5t-43 7.5q-29 0 -66.5 -10.5t-78 -29t-81 -43t-74 -52t-57.5 -56.5t-31 -57q-8 -29 4.5 -48.5t37.5 -33t59 -22.5t69.5 -18t69 -20t57.5 -27.5t35 -41t1 -61.5q-21 -81 -80.5 -122.5t-147.5 -41.5
q-41 0 -63.5 11.5t-33.5 28t-15.5 36.5t-9.5 36.5t-15 28t-32 11.5q-51 0 -61 -46z" />
    <glyph glyph-name="agrave" unicode="&#xe0;" 
d="M354 21q1 -19 8.5 -20t26.5 -1q21 0 35.5 10t23.5 25t14.5 32t10.5 32q10 31 13 61.5t11 61.5l2 8l10 27l2 9q20 13 28 20.5t13 22.5q4 12 1 21t-8.5 17.5t-11.5 16.5t-7 18q0 8 2 28t4 43t4.5 43.5t4.5 28.5q2 11 3.5 26t6.5 35q6 28 8.5 58t-3 55.5t-20.5 42t-44 16.5
q-18 0 -40.5 -11.5t-44 -27t-39 -30.5t-25.5 -21q-65 -52 -114 -118.5t-85 -138.5t-61 -145t-43 -137q-2 -11 -5.5 -26.5t-3 -29.5t8 -23.5t27.5 -9.5q26 0 47 21q4 5 7 23l6.5 26t7 27.5t7 24t5.5 15.5q3 11 9.5 23t22.5 17q48 7 95.5 11.5t95.5 4.5q7 0 15 -1t10 -1l3 -14
l-3 -13q-2 -13 -4.5 -29.5t-6.5 -35.5l-11 -48q-2 -7 -3 -13.5t-4 -13.5q-3 -13 -6.5 -26t-5.5 -17zM206 331q4 11 18 36t34.5 56.5t45.5 65t50 61.5t48.5 46t40.5 18q10 0 13.5 -15.5t2.5 -39t-6 -52t-10 -54.5t-10 -45.5t-6 -25.5l-2 -9q-2 -4 -3 -7.5t-2 -8.5l-5 -23
q-12 -13 -32.5 -20t-43.5 -10.5t-44.5 -4t-34.5 -0.5h-23q-16 0 -25.5 7t-5.5 25zM543 807q0 2 1.5 7.5t2.5 7.5q4 11 2.5 36.5t-10.5 51.5t-26.5 46t-47.5 20q-16 0 -26 -5.5t-12 -13.5q-4 -11 -0.5 -22t9 -22t11 -21.5t7.5 -20.5q2 -5 1.5 -17.5t3 -25.5t13 -23t31.5 -10
q11 0 21.5 3.5t18.5 8.5z" />
    <glyph glyph-name="aacute" unicode="&#xe1;" 
d="M354 21q1 -19 8.5 -20t26.5 -1q21 0 35.5 10t23.5 25t14.5 32t10.5 32q10 31 13 61.5t11 61.5l2 8l10 27l2 9q20 13 28 20.5t13 22.5q4 12 1 21t-8.5 17.5t-11.5 16.5t-7 18q0 8 2 28t4 43t4.5 43.5t4.5 28.5q2 11 3.5 26t6.5 35q6 28 8.5 58t-3 55.5t-20.5 42t-44 16.5
q-18 0 -40.5 -11.5t-44 -27t-39 -30.5t-25.5 -21q-65 -52 -114 -118.5t-85 -138.5t-61 -145t-43 -137q-2 -11 -5.5 -26.5t-3 -29.5t8 -23.5t27.5 -9.5q26 0 47 21q4 5 7 23l6.5 26t7 27.5t7 24t5.5 15.5q3 11 9.5 23t22.5 17q48 7 95.5 11.5t95.5 4.5q7 0 15 -1t10 -1l3 -14
l-3 -13q-2 -13 -4.5 -29.5t-6.5 -35.5l-11 -48q-2 -7 -3 -13.5t-4 -13.5q-3 -13 -6.5 -26t-5.5 -17zM206 331q4 11 18 36t34.5 56.5t45.5 65t50 61.5t48.5 46t40.5 18q10 0 13.5 -15.5t2.5 -39t-6 -52t-10 -54.5t-10 -45.5t-6 -25.5l-2 -9q-2 -4 -3 -7.5t-2 -8.5l-5 -23
q-12 -13 -32.5 -20t-43.5 -10.5t-44.5 -4t-34.5 -0.5h-23q-16 0 -25.5 7t-5.5 25zM617 968q-6 5 -15 8.5t-20 3.5q-22 0 -35.5 -10t-22.5 -23t-14 -25.5t-9 -17.5q-6 -10 -16.5 -20.5t-20.5 -21.5t-17.5 -22t-8.5 -22q-2 -8 6 -13.5t24 -5.5q30 0 56 20t46 46t32 51.5
t13 36.5q0 2 0.5 7.5t1.5 7.5z" />
    <glyph glyph-name="acircumflex" unicode="&#xe2;" 
d="M354 21q1 -19 8.5 -20t26.5 -1q21 0 35.5 10t23.5 25t14.5 32t10.5 32q10 31 13 61.5t11 61.5l2 8l10 27l2 9q20 13 28 20.5t13 22.5q4 12 1 21t-8.5 17.5t-11.5 16.5t-7 18q0 8 2 28t4 43t4.5 43.5t4.5 28.5q2 11 3.5 26t6.5 35q6 28 8.5 58t-3 55.5t-20.5 42t-44 16.5
q-18 0 -40.5 -11.5t-44 -27t-39 -30.5t-25.5 -21q-65 -52 -114 -118.5t-85 -138.5t-61 -145t-43 -137q-2 -11 -5.5 -26.5t-3 -29.5t8 -23.5t27.5 -9.5q26 0 47 21q4 5 7 23l6.5 26t7 27.5t7 24t5.5 15.5q3 11 9.5 23t22.5 17q48 7 95.5 11.5t95.5 4.5q7 0 15 -1t10 -1l3 -14
l-3 -13q-2 -13 -4.5 -29.5t-6.5 -35.5l-11 -48q-2 -7 -3 -13.5t-4 -13.5q-3 -13 -6.5 -26t-5.5 -17zM206 331q4 11 18 36t34.5 56.5t45.5 65t50 61.5t48.5 46t40.5 18q10 0 13.5 -15.5t2.5 -39t-6 -52t-10 -54.5t-10 -45.5t-6 -25.5l-2 -9q-2 -4 -3 -7.5t-2 -8.5l-5 -23
q-12 -13 -32.5 -20t-43.5 -10.5t-44.5 -4t-34.5 -0.5h-23q-16 0 -25.5 7t-5.5 25zM523 872q5 0 7 -3l34 -70q2 -4 12.5 -3t14.5 1q18 19 20.5 27t1.5 10q-8 18 -18 38.5t-17 40.5q-2 2 -5.5 8t-8 12.5t-8.5 11.5t-6 5h-10q-1 0 -11.5 -7.5t-25 -18t-30 -22t-24.5 -18.5
q-19 -14 -29 -23t-16 -31l-3 -15q3 -13 13 -13q12 0 25 11t27.5 24t28.5 24t28 11z" />
    <glyph glyph-name="atilde" unicode="&#xe3;" 
d="M354 21q1 -19 8.5 -20t26.5 -1q21 0 35.5 10t23.5 25t14.5 32t10.5 32q10 31 13 61.5t11 61.5l2 8l10 27l2 9q20 13 28 20.5t13 22.5q4 12 1 21t-8.5 17.5t-11.5 16.5t-7 18q0 8 2 28t4 43t4.5 43.5t4.5 28.5q2 11 3.5 26t6.5 35q6 28 8.5 58t-3 55.5t-20.5 42t-44 16.5
q-18 0 -40.5 -11.5t-44 -27t-39 -30.5t-25.5 -21q-65 -52 -114 -118.5t-85 -138.5t-61 -145t-43 -137q-2 -11 -5.5 -26.5t-3 -29.5t8 -23.5t27.5 -9.5q26 0 47 21q4 5 7 23l6.5 26t7 27.5t7 24t5.5 15.5q3 11 9.5 23t22.5 17q48 7 95.5 11.5t95.5 4.5q7 0 15 -1t10 -1l3 -14
l-3 -13q-2 -13 -4.5 -29.5t-6.5 -35.5l-11 -48q-2 -7 -3 -13.5t-4 -13.5q-3 -13 -6.5 -26t-5.5 -17zM206 331q4 11 18 36t34.5 56.5t45.5 65t50 61.5t48.5 46t40.5 18q10 0 13.5 -15.5t2.5 -39t-6 -52t-10 -54.5t-10 -45.5t-6 -25.5l-2 -9q-2 -4 -3 -7.5t-2 -8.5l-5 -23
q-12 -13 -32.5 -20t-43.5 -10.5t-44.5 -4t-34.5 -0.5h-23q-16 0 -25.5 7t-5.5 25zM356 821q-6 -20 4 -20q9 0 22 8t27 18t29 18t29 8q12 0 20.5 -7.5t17.5 -16.5t19 -16.5t24 -7.5q26 0 55.5 22t40.5 69q4 14 4 22t-9 8q-6 0 -13.5 -9t-17 -20t-20 -20t-22.5 -9
q-11 0 -18 6.5t-14 15t-15 16t-19 10.5q-3 0 -7.5 0.5t-10.5 0.5q-12 0 -31.5 -5t-38.5 -16.5t-34.5 -30t-21.5 -44.5z" />
    <glyph glyph-name="adieresis" unicode="&#xe4;" 
d="M354 21q1 -19 8.5 -20t26.5 -1q21 0 35.5 10t23.5 25t14.5 32t10.5 32q10 31 13 61.5t11 61.5l2 8l10 27l2 9q20 13 28 20.5t13 22.5q4 12 1 21t-8.5 17.5t-11.5 16.5t-7 18q0 8 2 28t4 43t4.5 43.5t4.5 28.5q2 11 3.5 26t6.5 35q6 28 8.5 58t-3 55.5t-20.5 42t-44 16.5
q-18 0 -40.5 -11.5t-44 -27t-39 -30.5t-25.5 -21q-65 -52 -114 -118.5t-85 -138.5t-61 -145t-43 -137q-2 -11 -5.5 -26.5t-3 -29.5t8 -23.5t27.5 -9.5q26 0 47 21q4 5 7 23l6.5 26t7 27.5t7 24t5.5 15.5q3 11 9.5 23t22.5 17q48 7 95.5 11.5t95.5 4.5q7 0 15 -1t10 -1l3 -14
l-3 -13q-2 -13 -4.5 -29.5t-6.5 -35.5l-11 -48q-2 -7 -3 -13.5t-4 -13.5q-3 -13 -6.5 -26t-5.5 -17zM206 331q4 11 18 36t34.5 56.5t45.5 65t50 61.5t48.5 46t40.5 18q10 0 13.5 -15.5t2.5 -39t-6 -52t-10 -54.5t-10 -45.5t-6 -25.5l-2 -9q-2 -4 -3 -7.5t-2 -8.5l-5 -23
q-12 -13 -32.5 -20t-43.5 -10.5t-44.5 -4t-34.5 -0.5h-23q-16 0 -25.5 7t-5.5 25zM381 859q-8 -23 2.5 -40t37.5 -17q12 0 24.5 6.5t24 17t19.5 22.5t10 23q8 23 -8.5 36t-40.5 13q-28 0 -46 -19t-23 -42zM554 860q-8 -23 3 -40t38 -17q12 0 24.5 6.5t23.5 17t19 22.5t10 23
q8 23 -8.5 36t-40.5 13q-28 0 -46 -19t-23 -42z" />
    <glyph glyph-name="aring" unicode="&#xe5;" 
d="M354 21q1 -19 8.5 -20t26.5 -1q21 0 35.5 10t23.5 25t14.5 32t10.5 32q10 31 13 61.5t11 61.5l2 8l10 27l2 9q20 13 28 20.5t13 22.5q4 12 1 21t-8.5 17.5t-11.5 16.5t-7 18q0 8 2 28t4 43t4.5 43.5t4.5 28.5q2 11 3.5 26t6.5 35q6 28 8.5 58t-3 55.5t-20.5 42t-44 16.5
q-18 0 -40.5 -11.5t-44 -27t-39 -30.5t-25.5 -21q-65 -52 -114 -118.5t-85 -138.5t-61 -145t-43 -137q-2 -11 -5.5 -26.5t-3 -29.5t8 -23.5t27.5 -9.5q26 0 47 21q4 5 7 23l6.5 26t7 27.5t7 24t5.5 15.5q3 11 9.5 23t22.5 17q48 7 95.5 11.5t95.5 4.5q7 0 15 -1t10 -1l3 -14
l-3 -13q-2 -13 -4.5 -29.5t-6.5 -35.5l-11 -48q-2 -7 -3 -13.5t-4 -13.5q-3 -13 -6.5 -26t-5.5 -17zM206 331q4 11 18 36t34.5 56.5t45.5 65t50 61.5t48.5 46t40.5 18q10 0 13.5 -15.5t2.5 -39t-6 -52t-10 -54.5t-10 -45.5t-6 -25.5l-2 -9q-2 -4 -3 -7.5t-2 -8.5l-5 -23
q-12 -13 -32.5 -20t-43.5 -10.5t-44.5 -4t-34.5 -0.5h-23q-16 0 -25.5 7t-5.5 25zM669 924q4 18 3 36t-9 32.5t-23 23t-37 8.5q-32 0 -59 -14.5t-48 -36.5t-35 -49t-20 -51q-11 -33 4.5 -55.5t47.5 -22.5q30 0 58.5 10t52 27.5t40.5 41t25 50.5zM501 884q4 12 12 27.5
t20 28.5t27 22t32 9q10 0 16 -5t8 -12.5t1.5 -16.5t-1.5 -16q-9 -30 -34 -47.5t-57 -17.5q-4 0 -11 2t-15 11q0 1 0.5 6t1.5 9z" />
    <glyph glyph-name="ae" unicode="&#xe6;" horiz-adv-x="935" 
d="M354 21q1 -19 8.5 -20t27.5 -1q11 -2 24.5 -3t26.5 -1h36q16 0 56 6t91.5 17t107.5 26.5t104 35.5t81.5 43t40.5 49q5 18 -0.5 29t-28.5 11q-18 0 -38 -8.5t-42 -20.5q-6 -5 -13.5 -8.5t-15.5 -6.5q-71 -35 -150 -60t-154 -25h-18q-7 0 -8.5 3t-7.5 8v1q11 44 19.5 74.5
t16 55.5t15.5 49t18 56q7 8 24 12.5t41 7.5t54 4.5t63 3.5q47 1 96.5 4t90.5 9.5t69.5 19t34.5 32.5q10 39 -34 39q-40 0 -79.5 -4t-80.5 -9q-42 -5 -82.5 -8.5t-80.5 -3.5h-18q-19 0 -37 2.5t-26 13.5l-1 1l4 17q1 3 1 5t1 6l2 6q12 45 28.5 72.5t41 42.5t59 20.5t82.5 8.5
q13 0 43 0.5t65 2.5q38 2 70 3.5t46 1.5q13 1 28 9t18 21q6 20 -2.5 32.5t-25.5 19t-39 9t-43 2.5h-28h-13q-5 0 -10 -1q-8 0 -14 -0.5t-11 -0.5q-83 0 -164 -11t-166 -37q-3 32 -18 53t-48 21q-18 0 -40.5 -11.5t-44 -27t-39 -30.5t-25.5 -21q-65 -52 -114 -118.5
t-85 -138.5t-61 -145t-43 -137q-2 -11 -5.5 -26.5t-3 -29.5t8 -23.5t27.5 -9.5q26 0 47 21q4 5 7 23l6.5 26t7 27.5t7 24t5.5 15.5q3 11 9.5 23t22.5 17q48 7 95.5 11.5t95.5 4.5q7 0 15 -1t10 -1l3 -14l-3 -13q-2 -13 -4.5 -29.5t-6.5 -35.5zM206 331q4 11 18 36t34.5 56.5
t45.5 65t50 61.5t48.5 46t40.5 18q10 0 13.5 -15.5t2.5 -39t-6 -52t-10 -54.5t-10 -45.5t-6 -25.5l-2 -9q-2 -4 -3 -7.5t-2 -8.5l-5 -23q-12 -13 -32.5 -20t-43.5 -10.5t-44.5 -4t-34.5 -0.5h-23q-16 0 -25.5 7t-5.5 25z" />
    <glyph glyph-name="ccedilla" unicode="&#xe7;" horiz-adv-x="585" 
d="M276 -91l31 61q2 8 4 16.5t5 16.5q36 5 83 17.5t90.5 31t76 43t40.5 53.5q5 16 -4.5 25.5t-29.5 9.5q-30 0 -64.5 -17t-73.5 -37.5t-82 -37.5t-88 -17q-37 0 -60.5 13.5t-34.5 36t-11.5 51.5t8.5 59q15 59 47 112.5t76 101.5t97 91t110 81q15 12 21 14.5t21 2.5
q20 0 27 -9t8 -22t-0.5 -29t-0.5 -29t9 -22t29 -9q14 0 22.5 4.5t14.5 12t10 18t8 21.5q6 21 7.5 50.5t-4.5 56t-22 45.5t-45 19q-42 0 -86.5 -18t-89.5 -47.5t-88.5 -67.5t-82 -77.5t-70 -77t-53.5 -67.5q-28 -38 -43 -81.5t-26 -81.5q-14 -57 -10 -97t25 -67t57.5 -41.5
t87.5 -18.5q-5 -9 -9 -19t-7 -21l-18 -52l-6 -11.5t-9 -26.5q-3 -14 -0.5 -27t19.5 -16q10 -2 21.5 3.5t23 16.5t22 26.5t17.5 33.5z" />
    <glyph glyph-name="egrave" unicode="&#xe8;" horiz-adv-x="611" 
d="M26 56q-6 -20 0.5 -31t19 -16.5t30 -7t34.5 -1.5h36q16 0 56 6t91.5 17t107.5 26.5t104 35.5t81.5 43t40.5 49q5 18 -0.5 29t-28.5 11q-18 0 -38.5 -8.5t-41.5 -20.5q-6 -5 -13.5 -8.5t-15.5 -6.5q-71 -35 -150 -60t-154 -25h-18q-7 0 -8.5 3t-7.5 8v1l11 48q7 26 13 47
t12.5 41.5t14 43.5t18.5 54v1q7 8 24 12.5t41 7.5t54 4.5t63 3.5q47 1 96 4t90.5 9.5t70 19t34.5 32.5q10 39 -34 39q-40 0 -79.5 -4t-80.5 -9q-42 -5 -82.5 -8.5t-80.5 -3.5h-18q-19 0 -37 2.5t-27 13.5v1l4 17q1 3 0.5 5t1.5 6l2 6q12 45 28.5 72.5t41 42.5t58.5 20.5
t82 8.5q13 0 43.5 0.5t65.5 2.5q38 2 70 3.5t46 1.5q13 1 28 9t17 21q6 20 -2.5 32.5t-25 19t-38.5 9t-43 2.5h-28h-13q-5 0 -10 -1q-8 0 -14.5 -0.5t-11.5 -0.5q-86 0 -169 -12t-171 -39q-25 -9 -32.5 -20t-12.5 -28q-8 -23 -6 -37t12 -37l-99 -375q-4 -5 -10 -20
l-13 -32.5t-13 -34.5t-9 -26q0 -1 -1 -2.5t-1 -2.5l-3 -4zM593 799q0 2 2 7.5t2 7.5q4 11 3 36.5t-10 51.5t-26.5 46t-47.5 20q-16 0 -26 -5.5t-12 -13.5q-4 -11 -1 -22t8.5 -22t11 -21.5t7.5 -20.5q2 -5 2 -18q0 -12 3 -25t12.5 -23t31.5 -10q11 0 21.5 3.5t18.5 8.5z" />
    <glyph glyph-name="eacute" unicode="&#xe9;" horiz-adv-x="611" 
d="M26 56q-6 -20 0.5 -31t19 -16.5t30 -7t34.5 -1.5h36q16 0 56 6t91.5 17t107.5 26.5t104 35.5t81.5 43t40.5 49q5 18 -0.5 29t-28.5 11q-18 0 -38.5 -8.5t-41.5 -20.5q-6 -5 -13.5 -8.5t-15.5 -6.5q-71 -35 -150 -60t-154 -25h-18q-7 0 -8.5 3t-7.5 8v1l11 48q7 26 13 47
t12.5 41.5t14 43.5t18.5 54v1q7 8 24 12.5t41 7.5t54 4.5t63 3.5q47 1 96 4t90.5 9.5t70 19t34.5 32.5q10 39 -34 39q-40 0 -79.5 -4t-80.5 -9q-42 -5 -82.5 -8.5t-80.5 -3.5h-18q-19 0 -37 2.5t-27 13.5v1l4 17q1 3 0.5 5t1.5 6l2 6q12 45 28.5 72.5t41 42.5t58.5 20.5
t82 8.5q13 0 43.5 0.5t65.5 2.5q38 2 70 3.5t46 1.5q13 1 28 9t17 21q6 20 -2.5 32.5t-25 19t-38.5 9t-43 2.5h-28h-13q-5 0 -10 -1q-8 0 -14.5 -0.5t-11.5 -0.5q-86 0 -169 -12t-171 -39q-25 -9 -32.5 -20t-12.5 -28q-8 -23 -6 -37t12 -37l-99 -375q-4 -5 -10 -20
l-13 -32.5t-13 -34.5t-9 -26q0 -1 -1 -2.5t-1 -2.5l-3 -4zM642 948q-6 5 -15 8.5t-20 3.5q-22 0 -35.5 -10t-22.5 -23t-14 -25.5t-9 -17.5q-6 -10 -16.5 -20.5t-20.5 -21.5t-17.5 -22t-8.5 -22q-2 -8 6 -13.5t24 -5.5q30 0 56 20t46 46t31.5 51.5t12.5 36.5q1 2 1.5 7.5
t1.5 7.5z" />
    <glyph glyph-name="ecircumflex" unicode="&#xea;" horiz-adv-x="611" 
d="M26 56q-6 -20 0.5 -31t19 -16.5t30 -7t34.5 -1.5h36q16 0 56 6t91.5 17t107.5 26.5t104 35.5t81.5 43t40.5 49q5 18 -0.5 29t-28.5 11q-18 0 -38.5 -8.5t-41.5 -20.5q-6 -5 -13.5 -8.5t-15.5 -6.5q-71 -35 -150 -60t-154 -25h-18q-7 0 -8.5 3t-7.5 8v1l11 48q7 26 13 47
t12.5 41.5t14 43.5t18.5 54v1q7 8 24 12.5t41 7.5t54 4.5t63 3.5q47 1 96 4t90.5 9.5t70 19t34.5 32.5q10 39 -34 39q-40 0 -79.5 -4t-80.5 -9q-42 -5 -82.5 -8.5t-80.5 -3.5h-18q-19 0 -37 2.5t-27 13.5v1l4 17q1 3 0.5 5t1.5 6l2 6q12 45 28.5 72.5t41 42.5t58.5 20.5
t82 8.5q13 0 43.5 0.5t65.5 2.5q38 2 70 3.5t46 1.5q13 1 28 9t17 21q6 20 -2.5 32.5t-25 19t-38.5 9t-43 2.5h-28h-13q-5 0 -10 -1q-8 0 -14.5 -0.5t-11.5 -0.5q-86 0 -169 -12t-171 -39q-25 -9 -32.5 -20t-12.5 -28q-8 -23 -6 -37t12 -37l-99 -375q-4 -5 -10 -20
l-13 -32.5t-13 -34.5t-9 -26q0 -1 -1 -2.5t-1 -2.5l-3 -4zM539 862q5 0 7 -3l34 -70q2 -4 12.5 -3t14.5 1q18 19 20.5 27t1.5 10q-8 18 -18 38.5t-17 40.5q-2 2 -5.5 8t-8 12.5t-8.5 11.5t-6 5h-10q-1 0 -11.5 -7.5t-25 -18t-30 -22t-24.5 -18.5q-19 -14 -29 -23t-16 -31
l-3 -15q3 -13 13 -13q12 0 25 11t27.5 24t28.5 24t28 11z" />
    <glyph glyph-name="edieresis" unicode="&#xeb;" horiz-adv-x="611" 
d="M26 56q-6 -20 0.5 -31t19 -16.5t30 -7t34.5 -1.5h36q16 0 56 6t91.5 17t107.5 26.5t104 35.5t81.5 43t40.5 49q5 18 -0.5 29t-28.5 11q-18 0 -38.5 -8.5t-41.5 -20.5q-6 -5 -13.5 -8.5t-15.5 -6.5q-71 -35 -150 -60t-154 -25h-18q-7 0 -8.5 3t-7.5 8v1l11 48q7 26 13 47
t12.5 41.5t14 43.5t18.5 54v1q7 8 24 12.5t41 7.5t54 4.5t63 3.5q47 1 96 4t90.5 9.5t70 19t34.5 32.5q10 39 -34 39q-40 0 -79.5 -4t-80.5 -9q-42 -5 -82.5 -8.5t-80.5 -3.5h-18q-19 0 -37 2.5t-27 13.5v1l4 17q1 3 0.5 5t1.5 6l2 6q12 45 28.5 72.5t41 42.5t58.5 20.5
t82 8.5q13 0 43.5 0.5t65.5 2.5q38 2 70 3.5t46 1.5q13 1 28 9t17 21q6 20 -2.5 32.5t-25 19t-38.5 9t-43 2.5h-28h-13q-5 0 -10 -1q-8 0 -14.5 -0.5t-11.5 -0.5q-86 0 -169 -12t-171 -39q-25 -9 -32.5 -20t-12.5 -28q-8 -23 -6 -37t12 -37l-99 -375q-4 -5 -10 -20
l-13 -32.5t-13 -34.5t-9 -26q0 -1 -1 -2.5t-1 -2.5l-3 -4zM564 847q-8 -23 3 -40t38 -17q12 0 24.5 6.5t23.5 17t19 22.5t11 23q7 23 -9.5 36t-40.5 13q-28 0 -46 -19t-23 -42zM391 846q-8 -23 3 -40t38 -17q12 0 24.5 6.5t23.5 17t19 22.5t10 23q8 23 -8.5 36t-40.5 13
q-28 0 -46 -19t-23 -42z" />
    <glyph glyph-name="igrave" unicode="&#xec;" horiz-adv-x="177" 
d="M13 34q1 -23 10.5 -28.5t32.5 -5.5q20 0 36 11t24 29q49 129 88 252.5t74 252.5l7 22q3 13 7.5 30t6.5 30l7 22q2 11 2 23q0 13 -4.5 23t-13.5 16.5t-24 6.5q-14 0 -24 -6t-25 -23q-19 -72 -43 -144.5t-49 -145t-49.5 -145.5t-43.5 -145l-3 -15q-2 -5 -3 -11t-3 -12
q-2 -13 -7 -23zM353 782q1 2 2.5 7.5t1.5 7.5q4 11 3 36.5t-10 51.5t-26.5 46t-47.5 20q-16 0 -26 -5.5t-12 -13.5q-4 -11 -0.5 -22t9 -22t11 -21.5t7.5 -20.5q2 -5 1.5 -17.5t3 -25.5t13 -23t31.5 -10q11 0 21 3.5t18 8.5z" />
    <glyph glyph-name="iacute" unicode="&#xed;" horiz-adv-x="177" 
d="M13 34q1 -23 10.5 -28.5t32.5 -5.5q20 0 36 11t24 29q49 129 88 252.5t74 252.5l7 22q3 13 7.5 30t6.5 30l7 22q2 11 2 23q0 13 -4.5 23t-13.5 16.5t-24 6.5q-14 0 -24 -6t-25 -23q-19 -72 -43 -144.5t-49 -145t-49.5 -145.5t-43.5 -145l-3 -15q-2 -5 -3 -11t-3 -12
q-2 -13 -7 -23zM409 945q-6 5 -15 8.5t-20 3.5q-22 0 -35.5 -10t-22.5 -23t-14 -25.5t-9 -17.5q-6 -10 -16 -20.5t-20.5 -21.5t-18 -22t-8.5 -22q-2 -8 6 -13.5t24 -5.5q30 0 56 20t46 46t32 51.5t13 36.5q0 2 0.5 7.5t1.5 7.5z" />
    <glyph glyph-name="icircumflex" unicode="&#xee;" horiz-adv-x="177" 
d="M13 34q1 -23 10.5 -28.5t32.5 -5.5q20 0 36 11t24 29q49 129 88 252.5t74 252.5l7 22q3 13 7.5 30t6.5 30l7 22q2 11 2 23q0 13 -4.5 23t-13.5 16.5t-24 6.5q-14 0 -24 -6t-25 -23q-19 -72 -43 -144.5t-49 -145t-49.5 -145.5t-43.5 -145l-3 -15q-2 -5 -3 -11t-3 -12
q-2 -13 -7 -23zM317 844q5 0 7 -3l34 -70q2 -4 12.5 -3t14.5 1q18 19 20.5 27t1.5 10q-8 18 -18 38.5t-17 40.5q-2 2 -5.5 8t-8 12.5t-8.5 11.5t-6 5h-10q-1 0 -11.5 -7.5t-25 -18t-30 -22t-24.5 -18.5q-19 -14 -29 -23t-16 -31l-3 -15q3 -13 14 -13q12 0 25 11t27 24t28 24
t28 11z" />
    <glyph glyph-name="idieresis" unicode="&#xef;" horiz-adv-x="177" 
d="M13 34q1 -23 10.5 -28.5t32.5 -5.5q20 0 36 11t24 29q49 129 88 252.5t74 252.5l7 22q3 13 7.5 30t6.5 30l7 22q2 11 2 23q0 13 -4.5 23t-13.5 16.5t-24 6.5q-14 0 -24 -6t-25 -23q-19 -72 -43 -144.5t-49 -145t-49.5 -145.5t-43.5 -145l-3 -15q-2 -5 -3 -11t-3 -12
q-2 -13 -7 -23zM344 830q-8 -23 3 -40t38 -17q12 0 24.5 6.5t24 17t19.5 22.5t10 23q8 23 -9 36t-41 13q-28 0 -45.5 -19t-23.5 -42zM171 829q-8 -23 3 -40t38 -17q12 0 24.5 6.5t24 17t19.5 22.5t10 23q7 23 -9.5 36t-40.5 13q-28 0 -45.5 -19t-23.5 -42z" />
    <glyph glyph-name="eth" unicode="&#xf0;" horiz-adv-x="565" 
d="M387 555q1 -13 5 -18t11 -5q8 0 18 3.5t24 8.5l40 16q24 8 51 20q13 -33 19.5 -67.5t5 -70t-12 -71.5t-32.5 -72l-12 6q-14 30 -27.5 55.5t-30 47.5t-38.5 41t-53 36l-10 5q-8 5 -15 7.5t-15 5.5l-10 7q-28 6 -54.5 1t-49.5 -18.5t-43 -33.5t-35 -44q-33 -52 -42 -111.5
t3.5 -115.5t46 -103.5t85.5 -75.5q54 -28 105 -21t96.5 35.5t84.5 72t68 89.5q67 106 83.5 221.5t-18.5 225.5q37 23 61 48.5t21 51.5q-4 22 -15.5 25.5t-34.5 -6.5q-13 -5 -30.5 -12.5t-38.5 -18.5q-10 19 -22.5 33.5t-35.5 26.5q-5 2 -13 6t-13 6q-20 2 -26 -5t-15 -21
q-8 -14 -11.5 -25.5t2.5 -28.5q8 -12 16.5 -24t15.5 -25q-23 -15 -44 -30t-36 -29t-23 -26.5t-6 -22.5zM419 142q-13 -21 -31 -31t-38 -12.5t-40.5 2.5t-37.5 14q-28 15 -47.5 43.5t-27.5 62.5t-3.5 70t23.5 67q18 29 42 29q25 0 51 -14q24 -12 51 -39t46 -60t24.5 -68.5
t-12.5 -63.5z" />
    <glyph glyph-name="ntilde" unicode="&#xf1;" horiz-adv-x="517" 
d="M24 68q-1 -11 -0.5 -23t4 -22t12 -16.5t24.5 -6.5q11 0 28.5 6.5t21.5 20.5l80 307h23l4 -14t10 -33.5t12 -40.5t10 -34l18 -76q2 -5 6 -18.5t8 -28.5t8 -29t6 -20q13 -21 42 -21q13 0 24 7.5t19.5 18t15 22.5t10.5 21q34 75 68.5 149t66.5 148t60 149t49 152l14 65
q3 16 -6.5 28.5t-28.5 12.5q-15 0 -27.5 -10.5t-22 -24.5t-16 -29t-10.5 -25q-5 -14 -16 -43t-24 -65t-27.5 -76.5t-28 -76.5t-23.5 -65t-15 -43q-4 -9 -11 -26t-15.5 -34.5t-18.5 -30.5t-21 -13q-14 0 -13 9t-3 21q-8 38 -15 82.5t-10 79.5v31q0 23 0.5 47t1 45t0.5 28
q0 8 3.5 29.5t8 45.5t8.5 45.5t6 29.5q-1 14 -13.5 24t-27.5 10t-29 -11.5t-21 -22.5q-65 -137 -115 -274.5t-88 -278.5l-5 -21q-3 -11 -5.5 -22t-5.5 -24t-5 -21.5t-5 -13.5zM345 827q-6 -20 5 -20q9 0 22 8t27 18t29 18t29 8q12 0 20.5 -7.5t17 -16.5t18.5 -16.5t24 -7.5
q26 0 56 22t41 69q4 14 3.5 22t-9.5 8q-6 0 -13.5 -9t-16.5 -20t-19.5 -20t-22.5 -9q-11 0 -18.5 6.5t-14.5 15t-15 16t-19 10.5q-3 0 -7.5 0.5t-10.5 0.5q-12 0 -31 -5t-38 -16.5t-35 -30t-22 -44.5z" />
    <glyph glyph-name="ograve" unicode="&#xf2;" horiz-adv-x="702" 
d="M74 283q-12 -44 -14 -88.5t9 -83.5t38.5 -68.5t75.5 -42.5h68q60 0 113.5 15.5t100.5 44t89 68.5t80 89q50 64 92.5 127.5t61.5 133.5q12 43 9 88t-22.5 81.5t-56 60t-91.5 23.5q-25 0 -49.5 -6.5t-48.5 -14.5q-81 -31 -155 -73.5t-134 -95.5t-103 -117.5t-63 -140.5z
M168 261q16 62 56 127t96.5 118t126.5 87t147 34q38 0 61 -15t34 -39t11.5 -53.5t-7.5 -58.5q-8 -30 -30.5 -69.5t-56 -81.5t-74.5 -83t-85 -73.5t-88 -52.5t-83 -20q-45 0 -71 15t-37.5 40t-10 57.5t10.5 67.5zM685 805q1 2 2.5 7.5t1.5 7.5q4 11 3 36.5t-10 51.5t-26.5 46
t-47.5 20q-16 0 -26 -5.5t-12 -13.5q-4 -11 -1 -22t8.5 -22t11.5 -21.5t8 -20.5q2 -5 1.5 -17.5t3 -25.5t13 -23t31.5 -10q11 0 21 3.5t18 8.5z" />
    <glyph glyph-name="oacute" unicode="&#xf3;" horiz-adv-x="702" 
d="M74 283q-12 -44 -14 -88.5t9 -83.5t38.5 -68.5t75.5 -42.5h68q60 0 113.5 15.5t100.5 44t89 68.5t80 89q50 64 92.5 127.5t61.5 133.5q12 43 9 88t-22.5 81.5t-56 60t-91.5 23.5q-25 0 -49.5 -6.5t-48.5 -14.5q-81 -31 -155 -73.5t-134 -95.5t-103 -117.5t-63 -140.5z
M168 261q16 62 56 127t96.5 118t126.5 87t147 34q38 0 61 -15t34 -39t11.5 -53.5t-7.5 -58.5q-8 -30 -30.5 -69.5t-56 -81.5t-74.5 -83t-85 -73.5t-88 -52.5t-83 -20q-45 0 -71 15t-37.5 40t-10 57.5t10.5 67.5zM741 957q-5 5 -14 8.5t-20 3.5q-22 0 -35.5 -10t-22.5 -23
t-14 -25.5t-9 -17.5q-6 -10 -16.5 -20.5t-20.5 -21.5t-17.5 -22t-8.5 -22q-2 -8 5.5 -13.5t23.5 -5.5q30 0 56 20t46 46t32 51.5t13 36.5q1 2 1.5 7.5t0.5 7.5z" />
    <glyph glyph-name="ocircumflex" unicode="&#xf4;" horiz-adv-x="702" 
d="M74 283q-12 -44 -14 -88.5t9 -83.5t38.5 -68.5t75.5 -42.5h68q60 0 113.5 15.5t100.5 44t89 68.5t80 89q50 64 92.5 127.5t61.5 133.5q12 43 9 88t-22.5 81.5t-56 60t-91.5 23.5q-25 0 -49.5 -6.5t-48.5 -14.5q-81 -31 -155 -73.5t-134 -95.5t-103 -117.5t-63 -140.5z
M168 261q16 62 56 127t96.5 118t126.5 87t147 34q38 0 61 -15t34 -39t11.5 -53.5t-7.5 -58.5q-8 -30 -30.5 -69.5t-56 -81.5t-74.5 -83t-85 -73.5t-88 -52.5t-83 -20q-45 0 -71 15t-37.5 40t-10 57.5t10.5 67.5zM663 856q6 0 6 -3l34 -70q2 -4 13 -3t15 1q17 19 19.5 27
t2.5 10q-8 18 -18 38.5t-17 40.5q-2 2 -5.5 8t-8 12.5t-8.5 11.5t-6 5h-10q-1 0 -11.5 -7.5t-25.5 -18t-30 -22t-25 -18.5q-19 -14 -29 -23t-15 -31l-3 -15q3 -13 13 -13q12 0 25 11t27.5 24t28.5 24t28 11z" />
    <glyph glyph-name="otilde" unicode="&#xf5;" horiz-adv-x="702" 
d="M74 283q-12 -44 -14 -88.5t9 -83.5t38.5 -68.5t75.5 -42.5h68q60 0 113.5 15.5t100.5 44t89 68.5t80 89q50 64 92.5 127.5t61.5 133.5q12 43 9 88t-22.5 81.5t-56 60t-91.5 23.5q-25 0 -49.5 -6.5t-48.5 -14.5q-81 -31 -155 -73.5t-134 -95.5t-103 -117.5t-63 -140.5z
M168 261q16 62 56 127t96.5 118t126.5 87t147 34q38 0 61 -15t34 -39t11.5 -53.5t-7.5 -58.5q-8 -30 -30.5 -69.5t-56 -81.5t-74.5 -83t-85 -73.5t-88 -52.5t-83 -20q-45 0 -71 15t-37.5 40t-10 57.5t10.5 67.5zM475 809q-6 -20 5 -20q9 0 22 8t27 18t29 18t29 8
q12 0 20.5 -7.5t17.5 -16.5t19 -16.5t24 -7.5q26 0 55.5 22t40.5 69q4 14 3.5 22t-9.5 8q-6 0 -13.5 -9t-16.5 -20t-19.5 -20t-22.5 -9q-11 0 -18 6.5t-14 15t-15 16t-20 10.5q-3 0 -7.5 0.5t-10.5 0.5q-12 0 -31 -5t-38 -16.5t-35 -30t-22 -44.5z" />
    <glyph glyph-name="odieresis" unicode="&#xf6;" horiz-adv-x="702" 
d="M74 283q-12 -44 -14 -88.5t9 -83.5t38.5 -68.5t75.5 -42.5h68q60 0 113.5 15.5t100.5 44t89 68.5t80 89q50 64 92.5 127.5t61.5 133.5q12 43 9 88t-22.5 81.5t-56 60t-91.5 23.5q-25 0 -49.5 -6.5t-48.5 -14.5q-81 -31 -155 -73.5t-134 -95.5t-103 -117.5t-63 -140.5z
M168 261q16 62 56 127t96.5 118t126.5 87t147 34q38 0 61 -15t34 -39t11.5 -53.5t-7.5 -58.5q-8 -30 -30.5 -69.5t-56 -81.5t-74.5 -83t-85 -73.5t-88 -52.5t-83 -20q-45 0 -71 15t-37.5 40t-10 57.5t10.5 67.5zM491 855q-8 -23 3 -40t38 -17q12 0 24.5 6.5t23.5 17t19 22.5
t10 23q8 23 -8.5 36t-40.5 13q-28 0 -46 -19t-23 -42zM664 856q-8 -23 3 -40t38 -17q12 0 24.5 6.5t23.5 17t19 22.5t10 23q8 23 -8.5 36t-40.5 13q-28 0 -46 -19t-23 -42z" />
    <glyph glyph-name="divide" unicode="&#xf7;" horiz-adv-x="394" 
d="M87 335q-7 -20 7.5 -31t32.5 -18h46q33 0 61.5 1t57.5 3t62 6.5t74 10.5q13 7 18.5 15.5t8.5 19.5q4 19 -10.5 29t-34.5 10h-250q-23 0 -45 -11.5t-28 -34.5zM271 502q-8 -23 3 -40t38 -17q12 0 24.5 6.5t23.5 17t19 22.5t10 23q8 23 -8.5 36t-40.5 13q-28 0 -46 -19
t-23 -42zM146 156q-8 -23 3 -40t38 -17q12 0 24.5 6.5t24 17t19.5 22.5t10 23q7 23 -9.5 36t-40.5 13q-28 0 -45.5 -19t-23.5 -42z" />
    <glyph glyph-name="oslash" unicode="&#xf8;" horiz-adv-x="702" 
d="M74 283q-10 -38 -13 -77t3.5 -74t23.5 -64.5t49 -48.5q-3 -14 0.5 -24.5t20.5 -10.5q14 0 25 4.5t21 11.5h47q60 0 113.5 15.5t100.5 44t89 68.5t80 89q50 64 92.5 127.5t61.5 133.5q14 51 7 104t-37 91q3 9 7 17q5 20 -1.5 29t-29.5 9q-11 0 -30 -13q-35 16 -77 16
q-25 0 -49.5 -6.5t-48.5 -14.5q-81 -31 -155 -73.5t-134 -95.5t-103 -117.5t-63 -140.5zM168 261q16 62 56 127t96.5 118t126.5 87t147 34h10q-51 -51 -110 -119t-116.5 -139.5t-108 -139.5t-84.5 -119q-25 26 -27 66t10 85zM693 461q-8 -30 -30.5 -69.5t-56 -81.5
t-74.5 -83t-85 -73.5t-88 -52.5t-83 -20h-4q19 25 46 60t56.5 72.5t59.5 75.5t54.5 68.5t41 51.5t20.5 25q3 3 19 20t36 39.5t42 47t37 41.5q15 -24 16 -56.5t-7 -64.5z" />
    <glyph glyph-name="ugrave" unicode="&#xf9;" horiz-adv-x="543" 
d="M50 177q-6 -38 4 -70t33.5 -56t58 -37.5t76.5 -13.5q41 0 84.5 10.5t84 30.5t75 49t56.5 67q5 17 15.5 51.5t23.5 78.5t27 92t27 92t23.5 79t15.5 52l12 49l15 52q2 21 -12 31t-37 10q-17 0 -33.5 -11t-24.5 -30l-148 -511q-7 -19 -24 -36t-38.5 -30.5t-44.5 -21.5
t-42 -8q-38 0 -59 13t-30.5 34.5t-10 49t4.5 56t13 56.5t14 50q20 77 48 150.5t47 147.5q8 26 -2 41.5t-42 15.5q-28 0 -46 -19.5t-29.5 -45.5t-18 -52.5t-10.5 -40.5q-4 -12 -13 -40t-18.5 -59.5t-18 -59.5t-10.5 -38l-2 -12q-4 -11 -8.5 -25.5t-8.5 -28.5l-6 -23l-5 -19
l-6 -26q-2 -7 -3.5 -13.5t-3.5 -13.5zM511 765q0 2 1.5 7.5t2.5 7.5q4 11 3 36.5t-10 51.5t-26.5 46t-47.5 20q-16 0 -26.5 -5.5t-12.5 -13.5q-4 -11 -0.5 -22t9 -22t11 -21.5t7.5 -20.5q2 -5 1.5 -17.5t3 -25.5t13 -23t31.5 -10q11 0 21.5 3.5t18.5 8.5z" />
    <glyph glyph-name="uacute" unicode="&#xfa;" horiz-adv-x="543" 
d="M50 177q-6 -38 4 -70t33.5 -56t58 -37.5t76.5 -13.5q41 0 84.5 10.5t84 30.5t75 49t56.5 67q5 17 15.5 51.5t23.5 78.5t27 92t27 92t23.5 79t15.5 52l12 49l15 52q2 21 -12 31t-37 10q-17 0 -33.5 -11t-24.5 -30l-148 -511q-7 -19 -24 -36t-38.5 -30.5t-44.5 -21.5
t-42 -8q-38 0 -59 13t-30.5 34.5t-10 49t4.5 56t13 56.5t14 50q20 77 48 150.5t47 147.5q8 26 -2 41.5t-42 15.5q-28 0 -46 -19.5t-29.5 -45.5t-18 -52.5t-10.5 -40.5q-4 -12 -13 -40t-18.5 -59.5t-18 -59.5t-10.5 -38l-2 -12q-4 -11 -8.5 -25.5t-8.5 -28.5l-6 -23l-5 -19
l-6 -26q-2 -7 -3.5 -13.5t-3.5 -13.5zM570 923q-6 5 -14.5 8.5t-19.5 3.5q-22 0 -36 -10t-22.5 -23t-13.5 -25.5t-9 -17.5q-6 -10 -16.5 -20.5t-21 -21.5t-18 -22t-8.5 -22q-2 -8 6 -13.5t24 -5.5q30 0 56 20t46 46t32 51.5t13 36.5q0 2 1 7.5t1 7.5z" />
    <glyph glyph-name="ucircumflex" unicode="&#xfb;" horiz-adv-x="543" 
d="M50 177q-6 -38 4 -70t33.5 -56t58 -37.5t76.5 -13.5q41 0 84.5 10.5t84 30.5t75 49t56.5 67q5 17 15.5 51.5t23.5 78.5t27 92t27 92t23.5 79t15.5 52l12 49l15 52q2 21 -12 31t-37 10q-17 0 -33.5 -11t-24.5 -30l-148 -511q-7 -19 -24 -36t-38.5 -30.5t-44.5 -21.5
t-42 -8q-38 0 -59 13t-30.5 34.5t-10 49t4.5 56t13 56.5t14 50q20 77 48 150.5t47 147.5q8 26 -2 41.5t-42 15.5q-28 0 -46 -19.5t-29.5 -45.5t-18 -52.5t-10.5 -40.5q-4 -12 -13 -40t-18.5 -59.5t-18 -59.5t-10.5 -38l-2 -12q-4 -11 -8.5 -25.5t-8.5 -28.5l-6 -23l-5 -19
l-6 -26q-2 -7 -3.5 -13.5t-3.5 -13.5zM473 847q6 0 6 -3l35 -70q1 -4 12 -3t15 1q17 19 20 27t2 10q-8 18 -18 38.5t-17 40.5q-2 2 -5.5 8t-8 12.5t-8.5 11.5t-6 5h-10q-1 0 -11.5 -7.5t-25 -18t-30 -22t-24.5 -18.5q-19 -14 -29.5 -23t-15.5 -31l-3 -15q3 -13 13 -13
q12 0 25 11t27.5 24t28.5 24t28 11z" />
    <glyph glyph-name="udieresis" unicode="&#xfc;" horiz-adv-x="543" 
d="M50 177q-6 -38 4 -70t33.5 -56t58 -37.5t76.5 -13.5q41 0 84.5 10.5t84 30.5t75 49t56.5 67q5 17 15.5 51.5t23.5 78.5t27 92t27 92t23.5 79t15.5 52l12 49l15 52q2 21 -12 31t-37 10q-17 0 -33.5 -11t-24.5 -30l-148 -511q-7 -19 -24 -36t-38.5 -30.5t-44.5 -21.5
t-42 -8q-38 0 -59 13t-30.5 34.5t-10 49t4.5 56t13 56.5t14 50q20 77 48 150.5t47 147.5q8 26 -2 41.5t-42 15.5q-28 0 -46 -19.5t-29.5 -45.5t-18 -52.5t-10.5 -40.5q-4 -12 -13 -40t-18.5 -59.5t-18 -59.5t-10.5 -38l-2 -12q-4 -11 -8.5 -25.5t-8.5 -28.5l-6 -23l-5 -19
l-6 -26q-2 -7 -3.5 -13.5t-3.5 -13.5zM510 845q-8 -23 2.5 -40t37.5 -17q12 0 24.5 6.5t24 17t19.5 22.5t10 23q8 23 -8.5 36t-40.5 13q-28 0 -46 -19t-23 -42zM336 844q-8 -23 3 -40t38 -17q12 0 24.5 6.5t24 17t19.5 22.5t10 23q8 23 -9 36t-41 13q-28 0 -45.5 -19
t-23.5 -42z" />
    <glyph glyph-name="yacute" unicode="&#xfd;" horiz-adv-x="522" 
d="M163 68q-6 -25 2.5 -46.5t39.5 -21.5q12 0 19 3t19 18q29 81 76 164.5t102 165.5t112.5 160t106.5 149q9 15 14.5 22.5t9.5 13.5t6 12.5t5 18.5l5 24q-5 9 -13 15t-21 6q-17 0 -35 -15t-34 -34.5t-27.5 -38t-14.5 -24.5q-6 -8 -18 -25.5t-27 -39.5t-31.5 -46.5
t-31.5 -46.5t-26.5 -39.5t-16.5 -25.5q-3 -4 -9.5 -12.5t-15 -16.5t-17.5 -14.5t-17 -6.5q-29 0 -48.5 12t-30.5 30.5t-13 41.5t4 45q6 23 20 44t30 41.5t30 41t20 43.5q13 45 -35 45q-22 0 -42.5 -13.5t-39.5 -34.5t-36 -47.5t-30 -53t-22.5 -49.5t-13.5 -38
q-9 -36 -1.5 -64.5t23.5 -51.5t36.5 -40.5t38.5 -32t29.5 -26.5t9.5 -23q-7 -24 -19.5 -47.5t-26 -47t-26 -47t-19.5 -47.5zM598 932q-6 5 -14.5 8.5t-19.5 3.5q-22 0 -36 -10t-23 -23t-14 -25.5t-9 -17.5q-6 -10 -16 -20.5t-20.5 -21.5t-18 -22t-8.5 -22q-2 -8 6 -13.5
t24 -5.5q30 0 56 20t46 46t32 51.5t13 36.5q0 2 0.5 7.5t1.5 7.5z" />
    <glyph glyph-name="thorn" unicode="&#xfe;" horiz-adv-x="537" 
d="M246 750q-19 -72 -47.5 -154t-59 -166t-59.5 -166.5t-48 -154.5l-19 -75q1 -23 10.5 -28.5t32.5 -5.5q20 0 36 11t24 29q3 8 5.5 16.5t6.5 16.5l16 22q1 4 14.5 10.5t34 14t45.5 16t47.5 16.5t40 14t24.5 10q46 21 96 51.5t94 68t77.5 80.5t45.5 90q13 47 1 80t-40.5 54
t-70 30.5t-87.5 9.5q-20 0 -63.5 -5.5t-92.5 -16.5q14 49 18 70l7 22q2 11 2 23q0 13 -4.5 23t-13.5 16.5t-24 6.5q-14 0 -24 -6t-25 -23zM191 231q10 38 22.5 74.5t24 67t21.5 54t15 35.5q12 25 32 40.5t44.5 23.5t52 10.5t53.5 2.5q25 0 43.5 -3t30 -11.5t14.5 -23.5
t-4 -39q-6 -25 -26 -52t-48.5 -53.5t-62.5 -50.5t-69.5 -42t-69.5 -29t-61 -11h-8q-4 0 -4 7z" />
    <glyph glyph-name="ydieresis" unicode="&#xff;" horiz-adv-x="531" 
d="M163 68q-6 -25 2.5 -46.5t39.5 -21.5q12 0 19 3t19 18q29 81 76 164.5t102 165.5t112.5 160t106.5 149q9 15 14.5 22.5t9.5 13.5t6 12.5t5 18.5l5 24q-5 9 -13 15t-21 6q-17 0 -35 -15t-34 -34.5t-27.5 -38t-14.5 -24.5q-6 -8 -18 -25.5t-27 -39.5t-31.5 -46.5
t-31.5 -46.5t-26.5 -39.5t-16.5 -25.5q-3 -4 -9.5 -12.5t-15 -16.5t-17.5 -14.5t-17 -6.5q-29 0 -48.5 12t-30.5 30.5t-13 41.5t4 45q6 23 20 44t30 41.5t30 41t20 43.5q13 45 -35 45q-22 0 -42.5 -13.5t-39.5 -34.5t-36 -47.5t-30 -53t-22.5 -49.5t-13.5 -38
q-9 -36 -1.5 -64.5t23.5 -51.5t36.5 -40.5t38.5 -32t29.5 -26.5t9.5 -23q-7 -24 -19.5 -47.5t-26 -47t-26 -47t-19.5 -47.5zM347 853q-8 -23 3 -40t38 -17q12 0 24.5 6.5t24 17t19.5 22.5t10 23q7 23 -9.5 36t-40.5 13q-28 0 -45.5 -19t-23.5 -42zM521 854q-8 -23 2.5 -40
t37.5 -17q12 0 24.5 6.5t24 17t19.5 22.5t10 23q8 23 -9 36t-41 13q-28 0 -45.5 -19t-22.5 -42z" />
  </font>
</defs>
</svg>
