<?xml version="1.0" standalone="no"?>
<!DOCTYPE svg PUBLIC "-//W3C//DTD SVG 1.1//EN" "http://www.w3.org/Graphics/SVG/1.1/DTD/svg11.dtd" >
<svg>
<metadata>
Created by FontForge 20120731 at Fri Jan  5 10:25:55 2018
 By Zoltan Hawryluk
(c) 1999-2001, WolfBainX &#38; Apostrophic Labs. All rights reserved. Visit www.apsotrophiclab.com or email info@apostrophiclab.com for more info.
</metadata>
<defs>
<font id="KomikaJam" horiz-adv-x="587" >
  <font-face 
    font-family="Komika Jam"
    font-weight="400"
    font-stretch="normal"
    units-per-em="1000"
    panose-1="2 0 5 4 3 0 0 2 0 4"
    ascent="800"
    descent="-200"
    x-height="769"
    cap-height="786"
    bbox="-82 -183 1260 1179"
    underline-thickness="20"
    underline-position="-123"
    unicode-range="U+0006-2122"
  />
<missing-glyph horiz-adv-x="500" 
 />
    <glyph glyph-name=".notdef" horiz-adv-x="500" 
 />
    <glyph glyph-name=".null" horiz-adv-x="0" 
 />
    <glyph glyph-name="nonmarkingreturn" horiz-adv-x="500" 
 />
    <glyph glyph-name="space" unicode=" " horiz-adv-x="297" 
 />
    <glyph glyph-name="space" unicode="&#xa0;" horiz-adv-x="297" 
 />
    <glyph glyph-name="dotaccent" horiz-adv-x="310" 
d="M239 940q0 26 -27 44q-23 17 -50 17q-49 0 -62 -28q-10 -21 -10 -40q0 -32 17.5 -53t49.5 -21q31 0 56 25q26 26 26 56z" />
    <glyph glyph-name="ring" horiz-adv-x="463" 
d="M333 1107q-25 13 -62 18h-8q-12 0 -25 -3t-23 -9q-38 -24 -57.5 -63t-19.5 -77q0 -31 13 -53q5 -9 14 -16t18 -11q12 -6 26.5 -8.5t28.5 -3.5q5 -1 9 -1h8q15 0 27 3.5t23 11.5q32 26 46.5 64.5t14.5 74.5q0 22 -4 37q-4 11 -10 19.5t-19 16.5zM282 1082q8 -2 11 -12.5
t3 -24.5q0 -13 -2 -27t-7 -26q-9 -31 -24.5 -52t-29.5 -21q-3 0 -5 1q-8 2 -12 12.5t-4 24.5q0 12 2 25.5t7 25.5q4 12 11.5 25.5t15.5 24t16.5 17.5t15.5 7h2z" />
    <glyph glyph-name="caron" horiz-adv-x="447" 
d="M98 1105q-18 -2 -18 -9q0 -4 3 -8q7 -15 16.5 -33.5t19 -39t18.5 -42t16 -40.5q4 -13 9.5 -18t13.5 -11q11 -5 22 -8.5t21 -8.5q7 -3 15 -3q13 0 22 13q19 18 38 39.5t35.5 43t30.5 40.5t24 33q4 5 4 11q0 10 -9 18q-8 8 -17 14t-17 11q-6 2 -9.5 3.5t-7.5 1.5
q-7 -1 -13 -9q-18 -23 -40 -50.5t-48 -56.5q-14 28 -25.5 52.5t-20.5 41.5q-13 15 -36 17q-5 1 -15 1q-8 0 -16 -1z" />
    <glyph glyph-name="dotlessi" unicode="&#xd;" horiz-adv-x="456" 
d="M468 721q0 20 -22 59l-57 6q-33 -3 -57 -6q-53 -5 -63 -7q-11 -2 -19 -3l-16 -2l-26 -3q-12 -1 -22.5 -2.5t-17.5 -4.5h1q-11 -2 -22.5 -5t-22.5 -6q-5 -2 -9 -2.5t-8 -1.5q-42 -9 -63.5 -23.5t-21.5 -41.5q0 -61 71 -61q2 0 8.5 1t16.5 3q17 3 29.5 6t21.5 5h-1
q2 0 3.5 0.5t2.5 0.5q2 1 4 1h9q8 0 22 2q-1 -6 -1 -13v-13v-27q0 -75 -9 -171l-15 -171q-1 -6 -1.5 -11.5t-0.5 -11.5q-1 -8 -1 -17q0 -8 -2 -17q-4 -41 -13 -50q-13 -13 -27 -17h1q-3 -1 -11.5 -3t-23.5 -5q-15 -4 -24.5 -6t-13.5 -4h2q-17 -5 -27 -7.5t-15 -5.5
q-25 -17 -25 -42v-10q0 -37 26 -45h1q2 0 4 -1q10 -2 17 -4t15 -2q13 0 27.5 3t43.5 10q19 5 35.5 8t32.5 7q66 15 105.5 23.5t47.5 9.5q29 5 50 10.5t30 8.5h-1q4 1 7.5 1.5t8.5 0.5q12 31 12 52q0 32 -32 59q-23 -4 -41.5 -7.5t-27.5 -5.5q-4 -1 -8 -1.5t-2 -0.5
q-5 -1 -11.5 -1.5t-14.5 -0.5q-29 0 -36 -6q-2 2 -2.5 7t-0.5 19v7l24 315h-1q2 5 2 6v2v7q0 110 15 137h-4q11 1 26 4.5t38 9.5q4 1 7 2t7 2q66 0 66 51z" />
    <glyph glyph-name="fraction" horiz-adv-x="405" 
d="M338 418q12 19 24 37.5t25 37.5q32 48 60 92t39 86v-1q3 9 3 16v3q0 8 -7 13.5t-18 9t-25 5t-28 3.5q-17 0 -31.5 -6t-21.5 -24q-7 -29 -26.5 -64t-41.5 -70q-9 -14 -17 -27.5t-15 -27.5v1q-25 -43 -43 -73.5t-34 -57t-33 -53t-40 -61.5t-54 -82t-75 -114q-4 -8 -4 -22
q0 -17 11 -25t25 -15v1l12 -6q20 -11 31 -11q18 0 39 28q22 45 41 79.5t39 70.5q6 11 12.5 23t14.5 26q17 35 39 66t45 63q14 19 27 38.5z" />
    <glyph glyph-name="Zcaron" horiz-adv-x="668" 
d="M488 136q0 81 -54 81h-5l-255 -42q-1 2 -1 6v10q0 17 16 52h-1q14 21 19 34l4 8l4 8q31 75 84 160q10 17 23 35q19 28 37 55t36 56l6 10l6 10q28 42 36 64q21 42 21 56q0 39 -40 57q-15 7 -51 7h-13l-142 -7q-5 -1 -8 -1.5t-6 -1.5q-5 -1 -11.5 -2t-8.5 -1q-13 -2 -24 -4
t-18 -4q-8 -2 -14 -3t-8 -1q-23 -5 -39.5 -10.5t-26.5 -12.5q-29 -24 -29 -67q0 -64 46 -64q9 0 42 16q42 19 69.5 29t41.5 10l13 2q23 5 36 5q21 0 21 -16q0 -10 -14 -32.5t-42 -63.5q-32 -49 -60 -99t-54 -103q-11 -23 -20.5 -43t-17.5 -38q-14 -31 -24.5 -55.5
t-19.5 -42.5q-40 -83 -40 -112q0 -22 23 -50q20 -23 49 -23q4 0 33 10q5 2 13 5l16 6q5 2 10 3.5t10 3.5q17 6 30.5 10t23.5 9h-1q26 7 52.5 11.5t55.5 7.5q14 1 27.5 2t27.5 3t27 2.5t27 2.5q2 0 4.5 0.5t4.5 0.5q9 1 18.5 2.5t17 6.5t12.5 15t5 27zM198 1067
q-18 -2 -18 -9q0 -4 3 -8q7 -15 16.5 -33.5t19 -39t18.5 -42t16 -40.5q4 -13 9.5 -18t13.5 -11q11 -5 22 -8.5t21 -8.5q7 -3 15 -3q13 0 22 13q19 18 38 39.5t35.5 43t30.5 40.5t24 33q4 5 4 11q0 10 -9 18q-8 8 -17 14t-17 11q-6 2 -9.5 3.5t-7.5 1.5q-7 -1 -13 -9
q-18 -23 -40 -50.5t-48 -56.5q-14 28 -25.5 52.5t-20.5 41.5q-13 15 -36 17q-5 1 -15 1q-8 0 -16 -1zM123 779h-2l-1 -1q1 0 1.5 0.5t1.5 0.5z" />
    <glyph glyph-name="zcaron" horiz-adv-x="481" 
d="M488 136q0 81 -54 81h-5l-255 -42q-1 2 -1 6v10q0 17 16 52h-1q14 21 19 34l4 8l4 8q31 75 84 160q10 17 23 35q19 28 37 55t36 56l6 10l6 10q28 42 36 64q21 42 21 56q0 39 -40 57q-15 7 -51 7h-13l-142 -7q-5 -1 -8 -1.5t-6 -1.5q-5 -1 -12.5 -2l-7.5 -1h1h1
q-14 -2 -25 -4t-19 -4t-14 -3t-8 -1q-23 -5 -39.5 -10.5t-26.5 -12.5q-29 -24 -29 -67q0 -64 46 -64q9 0 42 16q42 19 69.5 29t41.5 10l13 2q23 5 36 5q21 0 21 -16q0 -10 -14 -32.5t-42 -63.5q-32 -49 -60 -99t-54 -103q-11 -23 -20.5 -43t-17.5 -38q-14 -31 -24.5 -55.5
t-19.5 -42.5q-40 -83 -40 -112q0 -22 23 -50q20 -23 49 -23q4 0 33 10q5 2 13 5l16 6q5 2 10 3.5t10 3.5q17 6 30.5 10t23.5 9h-1q26 7 52.5 11.5t55.5 7.5q14 1 27.5 2t27.5 3t27 2.5t27 2.5q2 0 4.5 0.5t4.5 0.5q9 1 18.5 2.5t17 6.5t12.5 15t5 27zM151 1067
q-21 -1 -21 -9q0 1 0.5 -2t2.5 -6q10 -26 24 -68t25 -87q2 -9 6 -14.5t11 -11.5l1 -1q6 -4 22 -12q6 -2 8 -4q10 -6 20 -6q8 0 14.5 2.5t10.5 10.5h-1q15 20 28.5 41.5t25.5 42.5t22 39.5t17 32.5q4 7 4 12q0 7 -10 17h1q-7 9 -21 22q-1 1 -2 1.5t-2 1.5t-6 2q-5 3 -15 3
q-9 -2 -12 -4.5t-4 -4.5q-12 -20 -24.5 -43t-28.5 -48q-7 19 -11 34q-4 13 -6.5 21.5t-6.5 17.5q-13 20 -36 22h1q-4 1 -12 1l-23 -3h-2zM123 779h-2l-1 -1q1 0 1.5 0.5t1.5 0.5z" />
    <glyph glyph-name="exclam" unicode="!" horiz-adv-x="348" 
d="M330 730q0 19 -17 38q-19 19 -37 19q-23 0 -36 -18q-7 -7 -20 -36q-8 -18 -14.5 -39t-14.5 -44q-13 -43 -22 -73.5t-17 -52.5l-49 -181q-25 -82 -25 -88q0 -20 11.5 -32.5t31.5 -12.5q17 0 27 7q18 11 36 67q19 60 31 105t20 74q4 15 54 141q41 108 41 126zM176 71
q0 66 -69 66q-37 0 -68 -19q-34 -22 -34 -60q0 -25 20 -48q21 -23 47 -23q38 0 71 24q33 22 33 60z" />
    <glyph glyph-name="quotedbl" unicode="&#x22;" horiz-adv-x="306" 
d="M157 756q0 61 -48 61q-6 0 -24 -9q-14 -6 -18 -15q-8 -32 -12.5 -57t-6.5 -41q-5 -14 -10 -28.5t-13 -28.5q-5 -9 -9.5 -15t-6.5 -11q-5 -11 -7 -21t-2 -20q0 -25 9 -34q14 -14 32 -14q31 0 63 45q12 18 20 36.5t12 38.5q5 23 8 40.5t6 29.5q5 20 6 30.5t1 12.5zM304 751
q0 61 -48 61q-6 0 -24 -9q-14 -6 -18 -15q-8 -32 -12.5 -57t-6.5 -41q-5 -14 -10 -28.5t-13 -28.5q-5 -9 -9.5 -15t-6.5 -11q-5 -11 -7 -21t-2 -20q0 -25 9 -34q14 -14 32 -14q31 0 63 45q12 18 20 36.5t12 38.5q5 23 8 40.5t6 29.5q5 20 6 30.5t1 12.5z" />
    <glyph glyph-name="numbersign" unicode="#" horiz-adv-x="570" 
d="M560 423q0 12 -12 30q-12 17 -23 17h-78q-14 0 -14 20q0 5 1 14t2 19t2 19t1 14q0 43 -36 43q-15 0 -21 -9q-10 -16 -12 -58q-1 -23 -3.5 -37.5t-5.5 -22.5q-8 -15 -42 -15h-88q-9 9 -9 11v69q0 19 -0.5 30.5t-1.5 16.5q-6 31 -29 31q-24 0 -27 -30l-3 -45q-2 -25 -3 -43
t-1 -31q-1 -10 -8 -13q-11 -11 -37 -11q-6 0 -17 1t-22.5 2.5t-22 2.5t-15.5 1q-31 0 -31 -30q0 -8 4 -16.5t10 -17.5q3 -5 10.5 -10t16.5 -9t18 -6t16 -2q8 0 20.5 1.5t20.5 1.5q5 0 13 -2q10 -4 10 -50q0 -17 -4 -25q-6 -8 -23 -8h-14q-13 1 -21.5 2t-19.5 2q-15 0 -29 -8
q-14 -11 -14 -26t13 -31q12 -13 26 -15q20 -2 34.5 -3t25.5 -2t13 -5q6 -24 9.5 -43.5t5.5 -34.5q3 -12 15 -25q14 -14 22 -14q16 0 23 25q4 9 5 18.5t1 20.5q0 5 -1.5 15t-1.5 15q0 19 13 23q33 9 109 9q37 0 37 -34q0 -5 -0.5 -12.5t-0.5 -12.5q0 -6 1 -14.5t4 -19.5
q2 -11 5.5 -18t5.5 -12q4 -5 14 -12.5t15 -7.5q9 0 19 11.5t10 21.5v71q0 3 -1 9.5t-1 9.5q0 25 33 25h21q15 3 34 23q18 22 18 37q0 8 -5.5 17.5t-13.5 9.5h-71q-13 0 -21 10t-8 24q0 11 3 25q4 16 9 21q26 5 49 8t44 5q9 1 19 16q11 14 11 23zM357 333q0 -24 -7 -37
q-6 -16 -89 -16q-3 0 -10 -1t-12 -1q-19 0 -19 22v38q0 17 9 22q22 12 71 12q28 0 41 -5q16 -6 16 -34z" />
    <glyph glyph-name="dollar" unicode="$" horiz-adv-x="428" 
d="M421 414h1q-8 14 -14.5 21.5t-10.5 10.5h2q-38 34 -125 53q-20 0 -38 1t-38 3q-48 3 -48 24q0 19 18 35q12 11 20 16t16 6q43 8 69.5 11t38.5 3h6q32 0 41 4h-1q11 5 17 22q6 11 7.5 16.5t1.5 8.5q0 17 -18 25.5t-38 8.5h-9q-4 0 -9 -1q-3 0 -6.5 -0.5t-4.5 -0.5
q-3 -1 -8 -1h-39q-7 7 -7 17v7q0 3 0.5 7t0.5 8q0 5 0.5 9.5t0.5 7.5v15q0 5 -4 9h3q-2 14 -18.5 24t-33.5 10q-12 0 -27 -8t-17 -17q-2 -8 -2 -14v-34q0 -6 0.5 -11.5t0.5 -10.5q0 -41 -12 -53q-15 -11 -27.5 -20t-23.5 -17q-62 -59 -62 -96q0 -34 30 -64q21 -26 106 -36
h-1q17 -3 33 -5l32 -4q15 -2 30.5 -4.5t32.5 -4.5q54 -14 54 -49q0 -17 -11 -28q-10 -13 -19 -22t-18 -13q-38 -16 -54 -16q-24 0 -40.5 1t-27.5 4q-37 7 -65 26q-5 2 -8.5 5.5l-7.5 7.5q-17 12 -28 12q-23 0 -40 -20h1q-20 -23 -20 -35q0 -32 35 -57q8 -5 23 -12.5
t41 -18.5q28 -12 38 -27h-1q1 -2 1 -3l1 -2q1 -5 2 -9t1 -9v-77q0 -10 17 -30q15 -19 33 -19q19 0 33 20q14 19 14 31v88q0 13 36 27q29 11 43 15.5t15 4.5q101 62 101 135q0 1 2 9q1 2 1.5 6.5t1.5 4.5q0 37 -20 69z" />
    <glyph glyph-name="percent" unicode="%" horiz-adv-x="652" 
d="M444 418q11 19 25 40.5t26 40.5q2 3 2 2l2 3h-1q31 47 56.5 89.5t34.5 77.5h-2l5 15v3q0 8 -7.5 13t-19.5 8.5t-27 5.5l-30 4q-20 0 -38 -7t-26 -30q-6 -27 -24.5 -60t-38.5 -67h1q-4 -6 -7.5 -12t-6.5 -11v2q-31 -55 -54 -96t-47 -81t-52.5 -85.5t-69.5 -109.5
q-14 -22 -31.5 -50.5t-36.5 -57.5q-2 -3 -2 -16q0 -15 16 -25.5t38 -21.5v1q9 -5 16.5 -7.5t15.5 -2.5q26 0 48 32q21 44 38.5 77t37.5 69q6 11 12 23t14 26q16 34 33.5 60t35.5 52l6 8t6 9q19 28 35 53q5 6 8.5 12.5t8.5 13.5zM342 144q-8 -12 -10 -23.5t-2 -20.5
q0 -17 5.5 -34t14.5 -34q12 -25 38 -35.5t57 -10.5q22 0 38 4q45 10 82.5 38.5t58.5 63.5q25 40 25 78q0 37 -29 69q-14 14 -33 20.5t-42 6.5q-35 0 -62 -10q-22 -6 -41.5 -14.5t-37.5 -21t-33.5 -31t-28.5 -45.5zM322 560q8 14 10 25t2 22q0 17 -5.5 33t-14.5 33
q-12 25 -37 35t-55 10q-24 0 -41 -4q-45 -9 -82 -37.5t-59 -63.5q-13 -20 -18.5 -39.5t-5.5 -38.5q0 -17 6 -34.5t22 -33.5q14 -16 33.5 -22t42.5 -6q35 0 62 10q22 8 41.5 16.5t37 20.5t32.5 30t29 44zM448 94q-1 2 -1 9q0 11 4.5 20.5t9.5 16.5q11 14 24 19t22 5h5
q6 -2 10.5 -9t4.5 -20q0 -2 -1 -2v-1v-3q-5 -23 -22.5 -33.5t-31.5 -12.5h-8q-5 0 -9.5 2t-6.5 10v-1zM219 606q0 -13 -4.5 -23t-11.5 -18q-11 -14 -24 -19t-22 -5q-2 0 -3 0.5t-3 0.5h-1q-11 4 -11 28q0 6 2 10q5 19 20 29t26 12h13q5 0 10.5 -2t8.5 -9h-1q0 -1 0.5 -1.5
t0.5 -1.5v-1z" />
    <glyph glyph-name="ampersand" unicode="&#x26;" horiz-adv-x="520" 
d="M530 420q0 71 -40 71q-1 0 -1 -1h-2h-5t-11 -2q-8 -3 -18.5 -5t-18.5 -4q-11 -4 -17.5 -4.5l-6.5 -0.5q-2 0 -5.5 1t-6.5 2q-14 3 -23 3q-36 0 -47 -35q-3 -13 -3.5 -19t-2.5 -15q-1 -5 -1.5 -9.5t-1.5 -9.5q-3 -11 -6 -21t-5 -19q-8 -32 -12.5 -51.5t-5.5 -21.5
q-14 -29 -24.5 -49.5t-18.5 -34.5q-41 -80 -113 -80q-19 0 -30.5 18t-11.5 48q0 38 16 82q17 47 36 71q14 20 23 33t11 17h-1q13 15 23 26t20 19q4 4 11 9t13 9q2 2 4 2.5t4 2.5q6 4 11 7.5t7 5.5h-1q15 16 15 23q0 68 -50 68q-4 0 -15 -4.5t-26 -15.5h1
q-17 -10 -24.5 -14.5l-7.5 -4.5q-9 0 -9 35q0 48 46 103q45 54 76 54q14 0 30 -31q34 -48 52 -48q10 0 19.5 5.5t9.5 16.5q0 35 -28 81q-32 41 -56 48q-2 1 -6.5 2t-9.5 3q-11 3 -21.5 6.5t-18.5 3.5q-14 0 -54 -17q-31 -12 -47 -33l-1 -1q-14 -14 -32 -38q-46 -59 -46 -145
q0 -22 1 -40.5t4 -33.5q2 -4 3.5 -8.5t4.5 -12.5h-1q3 -11 3 -15q0 -14 -17 -48l-3 -6q-6 -11 -11.5 -21.5t-13.5 -21.5q-35 -79 -35 -157q0 -81 37 -134q35 -56 100 -56q111 0 167 75q8 10 19.5 29t23 40.5t22 41.5t15.5 33q9 30 15 52.5t10 39.5q0 3 1 6.5t2 7.5
q2 10 3.5 17t3.5 9q6 5 16 6.5t24 2.5q36 0 53 14t17 38z" />
    <glyph glyph-name="quotesingle" unicode="'" horiz-adv-x="166" 
d="M157 756q0 61 -48 61q-6 0 -24 -9q-14 -6 -18 -15q-8 -32 -12.5 -57t-6.5 -41q-5 -14 -10 -28.5t-13 -28.5q-5 -9 -9.5 -15t-6.5 -11q-5 -11 -7 -21t-2 -20q0 -25 9 -34q14 -14 32 -14q31 0 63 45q12 18 20 36.5t12 38.5q5 23 8 40.5t6 29.5q5 20 6 30.5t1 12.5z" />
    <glyph glyph-name="parenleft" unicode="(" horiz-adv-x="339" 
d="M336 764q0 44 -50 44q-23 0 -48 -19l-20 -16t-20 -19q-8 -9 -13 -15.5t-10 -11.5q-38 -32 -69 -88q-16 -29 -27 -54.5t-16 -48.5q-8 -29 -16.5 -58t-15.5 -59q-22 -75 -22 -114q0 3 2 -12t6 -50q12 -101 93 -185q20 -20 32 -29q21 -17 51 -17q38 0 38 35q0 23 -29 58
q-21 26 -34.5 43.5t-19.5 27.5q-28 53 -28 113q0 88 40 212q11 24 18.5 41t15.5 28q12 20 32 44.5t48 53.5q13 13 22.5 22t15.5 15q24 28 24 59z" />
    <glyph glyph-name="parenright" unicode=")" horiz-adv-x="336" 
d="M326 580q-4 15 -6 25.5t-4 16.5q-8 23 -20.5 47t-30.5 49q-14 18 -28 34.5t-29 29.5t-30 21t-29 8q-37 0 -37 -35q0 -25 15.5 -43t30.5 -35q11 -13 20 -27.5t19 -30.5q-1 0 -1 -1v0q0 -1 1 -2l9 -26q6 -20 10 -32.5t4 -18.5q3 -17 3 -38q0 -40 -23 -137q-8 -29 -11.5 -45
t-5.5 -20l-27 -70q-15 -32 -47 -62q-101 -86 -101 -129q0 -45 49 -45q19 0 32 10q6 4 25 25q9 8 17 15t16 13q3 5 9 11.5t14 14.5q20 17 23 27q15 12 38 54q5 11 12.5 26t16.5 35q11 20 14.5 29.5t4.5 10.5l1.5 3l0.5 1v-4q8 35 15.5 60.5l12.5 42.5q9 46 12 74
q5 34 7.5 57.5t2.5 34.5q-2 -2 -5 26z" />
    <glyph glyph-name="asterisk" unicode="*" horiz-adv-x="450" 
d="M443 745q0 55 -59 55q-5 0 -15 -1t-21.5 -2t-21.5 -2t-16 -1q-31 0 -39 14q-7 15 -10 60q-1 24 -3.5 39.5t-5.5 23.5q-11 29 -46 29q-22 -2 -35.5 -19t-13.5 -39v-6q0 -17 6 -45q-3 -8 -9 -8q-11 11 -19.5 20.5t-19.5 20.5q-23 21 -49 21q-16 0 -26.5 -11t-10.5 -26
q0 -20 27 -54q10 -14 20 -27t20 -25q-11 -11 -34 -11h-21q-14 -4 -25.5 -14.5t-11.5 -23.5q0 -33 27 -55q28 -24 58 -24q5 0 16 2t17 2q23 0 27 -10q6 -6 6 -30q0 -8 -1 -20t-1 -20q0 -48 42 -73q7 -4 23 -4q27 0 34 43q3 27 8 43.5t10 24.5q4 -2 15.5 -6.5t29.5 -13.5
q36 -17 39 -17q15 0 26 13t11 29q0 19 -28 40q-32 23 -37 35q19 5 38 8.5t38 8.5q41 12 41 56z" />
    <glyph glyph-name="plus" unicode="+" horiz-adv-x="481" 
d="M475 460q0 42 -40 51q-27 4 -47.5 5.5t-34.5 2.5q-41 3 -44 7q-15 12 -15 36q0 6 1 17t2.5 22.5t3 22t1.5 16.5q0 66 -55 66q-38 0 -50 -44q-2 -8 -3.5 -26.5t-3.5 -46.5q-2 -20 -3 -34t-3 -25q-4 -25 -69 -25q-50 0 -72 -5q-41 -11 -41 -48q0 -21 11 -40q15 -28 67 -28
q5 0 17 1t20 1q33 0 33 -25q0 -8 -0.5 -18t-1.5 -24q-3 -29 -3 -43q0 -80 55 -80q23 0 32 11q10 12 20 50q5 17 8 30.5t5 23.5q6 32 23 54q19 27 49 27h81q24 0 43 22q14 17 14 46z" />
    <glyph glyph-name="comma" unicode="," horiz-adv-x="166" 
d="M157 69q0 27 -26 44q-23 17 -51 17q-17 0 -32.5 -13.5t-20.5 -30.5q-5 -28 -7 -48.5t-3 -36.5q-1 -4 -3 -15t-2 -18q0 -27 27 -27q10 0 45 23q14 10 23 18t17 16q33 34 33 71z" />
    <glyph glyph-name="hyphen" unicode="-" horiz-adv-x="453" 
d="M439 261q0 54 -59 54q-10 0 -15 -1l-136 -10l-52.5 -4.5l-17.5 -1.5h-116q-9 0 -21 -12q-10 -10 -10 -21q0 -42 22.5 -65t65.5 -23h47l11.5 1l34.5 3l94 6h81q35 0 53 19.5t18 54.5z" />
    <glyph glyph-name="period" unicode="." horiz-adv-x="172" 
d="M158 79q0 26 -27 44q-23 17 -50 17q-49 0 -62 -28q-10 -21 -10 -40q0 -32 17.5 -53t49.5 -21q31 0 56 25q26 26 26 56z" />
    <glyph glyph-name="slash" unicode="/" horiz-adv-x="536" 
d="M536 731q0 29 -15 47.5t-43 18.5q-21 0 -34 -10q-10 -11 -17 -21t-11 -18l-45 -68q-12 -18 -19 -28t-10 -15q-32 -43 -66.5 -92.5t-72.5 -109.5q-2 -6 -34 -58t-92 -154q-11 -18 -21.5 -35t-21.5 -34q-16 -26 -23 -43.5t-7 -25.5q0 -22 26 -48q24 -29 46 -29q14 0 25 15
l5.5 11t4.5 8q32 57 56.5 98.5t41.5 68.5q11 22 19 38.5t13 27.5q19 33 44 70t54 82q26 38 52 72.5t52 72.5q18 26 31.5 46.5t24.5 35.5l21 31.5l7 10.5q9 13 9 35z" />
    <glyph glyph-name="zero" unicode="0" horiz-adv-x="641" 
d="M651 422q0 107 -37 203q-18 41 -34 64h1q-23 44 -73 74q-37 22 -91 22h-28q-91 0 -173 -74q-36 -34 -66.5 -78.5t-56.5 -98.5q-19 -42 -32 -75t-21 -59q-11 -33 -15.5 -72t-4.5 -85q0 -24 7 -50.5t23 -55.5q12 -26 26 -46t31 -38q10 -10 24.5 -18t26.5 -14q5 -2 9 -4
t7 -4q13 -5 33 -6t46 -1q66 0 108 16h-1q3 1 6.5 1.5t5.5 1.5h-1q16 4 21 6q61 27 124 91q8 8 14.5 14t11.5 10q3 3 5.5 4.5t4.5 3.5q59 74 82 172q8 35 12.5 58.5t4.5 37.5zM541 452q0 -11 -2.5 -24.5t-7.5 -28.5h1q-4 -13 -8 -25.5t-8 -23.5q-9 -25 -20.5 -46.5
t-28.5 -43.5q-18 -20 -34 -36t-31 -28h1q-18 -12 -30 -17.5t-20 -9.5q-31 -16 -57.5 -22t-52.5 -6q-38 0 -72 23h1q-36 28 -36 84q0 36 10 78t29 91q19 48 39 81.5t38 54.5q43 45 74 60q5 5 10 6t7 3l6 3h-1q51 17 79 17q29 0 73 -42q8 -6 15.5 -22.5t14.5 -43.5
q5 -23 8 -43.5t3 -38.5z" />
    <glyph glyph-name="one" unicode="1" horiz-adv-x="203" 
d="M220 711q0 29 -10 59q-11 33 -39 33q-18 0 -29 -11q-5 -7 -9 -11t-8 -9h1q-10 -11 -16.5 -19.5t-9.5 -12.5l-9 -12q-19 -25 -32.5 -43t-21.5 -29q-10 -14 -14 -28q-3 -10 -5 -17.5t-2 -12.5q0 -10 4.5 -19t12.5 -17h-1q13 -18 34 -18q8 0 16 3l6 3q-1 -2 -1 -12v-9
l-43 -452h2q-3 -4 -3 -6q0 -27 12 -46q9 -21 36 -21q34 0 46 73q2 18 4 35.5t4 35.5q1 8 1.5 16t1.5 16q8 57 13.5 98t9.5 68q5 29 8.5 52.5t7.5 42.5q3 22 6 35q5 31 8 56.5t5 47.5q2 15 3 28t3 24q2 24 4 40.5t3 25.5q1 5 1 8v5z" />
    <glyph glyph-name="two" unicode="2" horiz-adv-x="471" 
d="M479 79q0 21 -13 47q-9 22 -30 30q-12 3 -33 5t-53 2h-116q-5 7 -5 21q0 20 18 42q8 10 14.5 19t14.5 20q9 14 16.5 25t14.5 22q8 11 15 21.5t12 18.5q54 72 86.5 126.5t44.5 92.5q4 16 6 34.5t2 41.5q0 60 -26.5 99t-74.5 39t-114 -24q-20 -8 -42.5 -18.5t-47.5 -24.5
q-63 -37 -98 -102q-25 -47 -25 -90q0 -31 7 -46q9 -20 40 -20q27 0 35 21l14 44h-1q31 74 129 121q26 13 41 16q23 6 36 8t16 2q6 0 14 -2h-3q2 -2 2 -21q0 -43 -55 -129q-21 -29 -41.5 -58t-41.5 -59q-17 -24 -34.5 -50t-37.5 -55q-10 -15 -20.5 -30.5t-22.5 -32.5l-63 -88
q-47 -68 -47 -94q0 -19 19 -44q20 -23 41 -23q7 0 60 27q37 17 66 26t52 9h118q9 0 32 -3h-1q12 -2 20 -3.5t16 -1.5q44 0 44 39z" />
    <glyph glyph-name="three" unicode="3" horiz-adv-x="525" 
d="M538 306q0 20 -3 39t-9 39q-12 43 -36 64q1 -2 -3.5 1.5t-7.5 5.5q2 -2 -5 4.5t-10 9.5q-14 14 -14 27q0 8 5 17.5t14 23.5q4 5 7 9.5t6 8.5q12 17 18.5 26.5t8.5 12.5q21 42 21 67q0 71 -56 115q-45 33 -106 34h-26q-37 0 -69 -4t-61 -11q-37 -12 -68.5 -29t-57.5 -42h1
q-18 -13 -29 -37h1q-19 -33 -19 -45q0 -23 17 -40t37 -17q18 0 30 8q9 8 15.5 15.5t12.5 15.5h-1q25 23 41.5 35t26.5 17q9 5 14 6.5t9 2.5q38 17 66 17h27q52 0 52 -50q0 -19 -32 -49q-5 -5 -9.5 -8.5t-9.5 -7.5q-7 -6 -14.5 -12t-14.5 -13h1q-5 -4 -9 -7.5t-9 -6.5
q-18 -14 -32 -25.5t-25 -20.5q-8 -8 -13.5 -13t-10.5 -9q-5 -5 -9 -9.5t-5 -4.5v1q-19 -22 -19 -47q0 -29 17 -48t42 -19q7 0 24 5q5 2 8.5 3t6.5 2l4.5 1.5t3.5 0.5q3 1 6.5 1.5t6.5 1.5q13 2 15 4h-2l27 7h8t9 1t8.5 1.5t6.5 0.5q59 0 59 -64q0 -45 -44 -91
q-17 -17 -34.5 -32.5t-37.5 -28.5q-18 -11 -28 -15.5t-15 -5.5h-14q-21 0 -37.5 2t-30.5 6q-5 2 -9.5 4.5t-9.5 5.5q-35 20 -57.5 31t-33.5 11q-21 0 -45 -24q-11 -14 -11 -34q0 -37 32 -57q2 -2 5 -3t10 -6t10 -7q8 -6 13 -10t8 -8q21 -15 55 -26q11 -4 20.5 -7t17.5 -5
q4 -2 8 -2.5t9 -2.5q6 -2 11 -3t9 -2q3 -1 8 -1q80 0 163 60q47 34 76.5 70t43.5 79q4 9 7 20.5t6 24.5q7 28 7 45zM170 161q0 2 -4 2q2 -2 4 -2zM197 470h-1q-1 -2 -1 -3q0 1 2 3z" />
    <glyph glyph-name="four" unicode="4" horiz-adv-x="455" 
d="M465 396q0 6 -2 14.5t-5 22.5l-6.5 13t-3.5 9q0 1 -4 5h3q-3 34 -3 52q-2 14 -2 27q0 14 -1 28q0 9 -0.5 18t-1.5 18q-3 53 -19 85q-1 1 -4 4.5t-8 8.5q-16 11 -24 11q-26 0 -40 -32q-2 -8 -3.5 -16t-1.5 -19v-6l3 -161q0 -32 -34 -42q-20 -7 -36.5 -11t-28.5 -8h1
q-4 -1 -7.5 -2t-6.5 -2q-2 -1 -4 -1q-1 0 -3 -1q-15 -5 -28.5 -9t-27.5 -9h1q-32 -8 -35 -8t-3 19q0 5 44 125l52 141q14 39 14 59q0 22 -11 48q-10 25 -35 25q-11 0 -21 -7q-14 -9 -26 -44q-2 -4 -2.5 -7.5t-2.5 -7.5q-3 -9 -5.5 -18.5t-7.5 -18.5q-20 -51 -34.5 -90
t-25.5 -68l-5 -15q-7 -14 -12.5 -27t-10.5 -27q-2 -5 -4.5 -10t-4.5 -10q-11 -27 -16 -46.5t-5 -33.5q0 -47 28 -81q23 -35 66 -35q45 0 128 30q5 2 10 2.5t9 2.5h-1l24.5 7t18.5 5q2 0 3 0.5t2 0.5l16.5 3t8.5 3h-1q4 2 5 2q2 1 3 1t3 1q7 -6 7 -37v-5l-9 -150v-2
q0 -7 3 -26q0 -2 0.5 -5t0.5 -6q1 -15 2 -25t3 -15q6 -14 19 -26t29 -12q14 0 26.5 11t14.5 24q3 60 3 91q0 8 0.5 15.5t0.5 14.5q1 18 1 32v25q1 4 1 11v27l6 52q1 3 1.5 8.5t1.5 7.5q1 5 1 6t1 5h-1q1 2 1.5 3.5t1.5 3.5q5 13 10.5 26t5.5 28z" />
    <glyph glyph-name="five" unicode="5" horiz-adv-x="540" 
d="M552 725q0 18 -12 50q-11 30 -34 30h-1q-4 0 -10 -2h1l-54 -12q-15 -3 -23 -4t-11 -1h-64q2 0 -6 -1t-13 -2t-9 -1.5t-6 -0.5q-7 -1 -17.5 -1.5t-25.5 -0.5h-20h-14q-6 0 -14 1q-7 0 -14.5 0.5t-13.5 0.5h-19q-17 0 -36 -19q-7 -9 -11 -15.5t-6 -11.5l-1.5 -7.5
t-1.5 -6.5q-2 -7 -2.5 -13t-1.5 -11q-4 -16 -6.5 -28t-4.5 -20q-17 -58 -24.5 -94t-7.5 -50q0 -38 14 -53.5t47 -15.5h3h11t5 1h-9l105 8l52 3q46 0 81 -23q39 -26 39 -98q0 -85 -61 -134q-54 -45 -112 -45q-34 0 -77 26h1q-8 6 -16 11.5t-16 11.5q-3 2 -5 4t-5 4
q-29 22 -48 22h-10q-12 0 -13 -1h5q-17 -4 -29 -24h1q-8 -11 -11.5 -19t-3.5 -13q0 -53 95 -113q79 -49 134 -49q105 0 188 72q98 83 98 212q0 75 -25 143q-24 67 -76 104h1q-8 8 -24 14.5t-37 12.5l-1 0.5t-3 0.5q-3 0 -19 8q-13 7 -27 7h-102q-7 7 -7 17q0 46 32 46
q4 0 10 -0.5t12 -1.5t12 -1h9q54 0 59 4l-4 2q2 0 5 0.5t5 0.5q14 1 25 1q12 0 19 2q2 0 3 0.5t3 0.5q55 4 66 8q5 2 9 3t9 3q13 4 21.5 7.5t16.5 8.5q5 7 13 17v1h1v-1v0q1 0 1 1h-1q14 18 14 24z" />
    <glyph glyph-name="six" unicode="6" horiz-adv-x="522" 
d="M537 323q0 36 -19 78q-17 41 -44 62q-53 43 -130 43q-10 0 -16.5 -2t-17.5 -4h2q-7 0 -9 -1q-2 0 -7.5 -1t-7.5 -2q-8 -1 -18.5 -3.5t-30.5 -12.5q-8 -4 -9 -4q2 0 2 7t5 19q16 42 34.5 72.5t41.5 57.5q15 16 25.5 26t18.5 12q18 8 54 8q2 0 6.5 -0.5t9.5 -1.5
q6 -1 11.5 -1.5t10.5 -0.5q38 0 38 45t-25 69t-62 24q-26 0 -51.5 -8t-51.5 -25q-14 -9 -24.5 -18t-18.5 -19q-3 -4 -7.5 -8.5t-9.5 -10.5t-9.5 -12.5t-11.5 -14.5q-50 -66 -57 -78q-17 -23 -27.5 -45.5t-20.5 -45.5q-2 -6 -5 -12.5t-5 -13.5q-8 -20 -18 -43t-15 -40h1
q-6 -17 -10 -29l-5 -15q-1 -4 -3 -10q-33 -116 -33 -189q0 -64 52 -116q23 -21 46.5 -31.5t52.5 -11.5q-1 -1 5.5 -1.5t9.5 -1.5h-2q6 -3 18 -3q37 0 91 25q14 6 27.5 13t26.5 15h-1q13 6 13.5 7t3.5 4q7 5 15 10.5t18 12.5q46 31 90 96q26 40 39.5 72t13.5 58zM407 330
q0 -41 -55 -91q-40 -38 -82 -63q-17 -10 -28 -15.5t-15 -5.5q-20 -5 -29.5 -6.5t-10.5 -1.5q-50 0 -50 45q-2 8 -2 11q0 6 2 9.5t4 7.5q5 30 19 53t25 33q14 14 24 23t24 18q21 14 63 28h-2q11 1 20 1h18h28q47 0 47 -46z" />
    <glyph glyph-name="seven" unicode="7" horiz-adv-x="510" 
d="M516 700q0 19 -12 51q-9 24 -30 35q-30 15 -50 15q-11 0 -21 -3h1q-2 -1 -4 -1h-1q-5 -1 -10 -1q-4 0 -17 -0.5t-34 -4.5h1q-31 -3 -54 -6.5t-38 -7.5q-7 -2 -12 -3t-10 -3q-8 -2 -15.5 -4t-9.5 -4h4l-6.5 -1t-16.5 -3q-5 -1 -9.5 -1.5t-11.5 -2.5q-29 -5 -46 -11
q-23 -9 -38.5 -17.5t-26.5 -16.5q-23 -22 -27 -29q-8 -18 -8 -44q0 -23 15 -53q15 -28 39 -28q17 0 28 12q10 15 17 23t15 15h-1q16 9 41.5 17t63.5 16q37 8 64.5 12t44.5 4q16 0 16 -24q0 -37 -114 -262l-19 -38q-2 -7 -4 -10.5t-4 -6.5h2q-1 -1 -2.5 -3t-2.5 -3
q-19 -52 -35.5 -91.5t-29.5 -67.5q-20 -45 -20 -64q0 -37 16 -62h-1q13 -25 48 -25q30 0 60 68q8 20 14.5 38t13.5 37q2 6 5 12.5t5 12.5q15 37 26.5 64t22.5 48q3 7 6 13t5 12q5 14 10 25t8 20q8 17 15.5 34t15.5 34q17 36 32.5 70.5t31.5 67.5q28 54 41 90t13 56z" />
    <glyph glyph-name="eight" unicode="8" horiz-adv-x="445" 
d="M456 633q0 98 -60 140q-38 29 -124 29q-104 0 -179 -83q-24 -28 -37 -55t-13 -54q0 -12 4 -27.5t13 -34.5q11 -28 62 -74q9 -6 9 -18q0 -13 -35 -56l-5 -8l-8 -9h1q-6 -8 -8.5 -13t-4.5 -7q-2 -4 -3 -6.5t-3 -4.5q-5 -8 -7.5 -12.5t-4.5 -6.5h1l-4 -4
q-17 -29 -24.5 -58.5t-7.5 -57.5q0 -103 74 -180q14 -14 43.5 -21t71.5 -7q32 0 77 17q70 24 110 66q58 60 58 131v8q0 12 3 27q1 4 1.5 8t0.5 9q0 8 -1.5 18.5t-3.5 22.5q-6 36 -22 67q-8 15 -17.5 26t-15.5 17q-2 2 -2.5 1.5t-0.5 5.5l-4.5 4.5t-14.5 13.5q-13 15 -13 21
q0 11 21 34q20 20 31.5 34t16.5 22h-1q26 41 26 75zM350 256q0 -19 -9.5 -38t-20.5 -30q-13 -12 -28.5 -22t-35.5 -18q-47 -18 -72 -18q-16 0 -41 16h1q-22 16 -22 47q0 42 41 108q46 74 64 82q13 6 21 8.5t11 2.5l23 -16q21 -16 44 -51q24 -36 24 -71zM355 656
q0 -25 -36 -62q-45 -47 -64 -56q-5 -4 -14 -5h1h-1h-1q-1 -1 -3 -1h-1q-3 -1 -6 -1q-6 0 -14.5 3.5t-20.5 9.5h3l-15 16q-10 11 -17.5 20.5t-7.5 23.5v5q1 22 13 30q7 27 34 41q31 18 41 18q2 0 5 0.5t6 0.5q6 1 14 1t16 2q4 1 11 1q14 0 36 -8q21 -8 21 -39zM51 331h-1v-2
q0 1 1 2z" />
    <glyph glyph-name="nine" unicode="9" horiz-adv-x="439" 
d="M452 724v9q0 22 -10.5 39.5t-29.5 27.5q-13 7 -28.5 8.5t-32.5 2.5h-11q-58 0 -114 -22q-2 -1 -7 -4t-7 -4q-1 -1 -2 -1v0v1h-1l-1 -1h2q-5 -2 -9.5 -3.5t-4.5 -2.5h1q-2 -1 -7 -2t-8 -2l-7.5 -4.5t-12.5 -8.5q-6 -4 -12.5 -7.5t-11.5 -7.5h1q-20 -13 -36.5 -24.5
t-28.5 -25.5q-1 -1 -3.5 -4t-3.5 -4q-5 -8 -9 -12.5t-6 -8.5h1q-20 -25 -29 -57t-11 -64q-1 -9 -1 -19v-19q0 -45 9.5 -88.5t39.5 -72.5q23 -26 52.5 -41.5t64.5 -15.5h3q20 1 36 4t32 8l28 10q1 -9 1.5 -18t0.5 -18q0 -12 -0.5 -24t-1.5 -25q-1 -12 -1.5 -24.5t-0.5 -24.5
q-1 -8 -1.5 -16t-1.5 -16q-3 -27 -3 -53q0 -17 2.5 -33t10.5 -30q10 -11 23.5 -15t26.5 -5q19 1 36.5 15t18.5 35v7q0 11 -1 16t-1 14q0 7 1 11q1 11 1 22q0 12 1 23q0 11 0.5 22t1.5 23q1 13 1.5 26.5t0.5 26.5q1 5 1.5 10t0.5 10v9q0 2 0.5 4.5t0.5 5.5q2 17 2 32t1 30
q1 8 1 14q0 7 1 15l6 39q2 17 4.5 32.5t6.5 32.5q1 5 1.5 9.5t0.5 9.5q2 10 2.5 19.5t3.5 17.5q6 23 9 47t5 48q1 11 1.5 20.5t2.5 20.5q1 3 1 5q0 3 1 6q0 4 2 12h-1q5 10 5.5 15t0.5 13zM336 629q-5 -46 -14.5 -89.5t-31.5 -76.5q-17 -25 -37.5 -39.5t-41.5 -14.5h-7
q-4 0 -5 1h1q-17 5 -36 6q-8 2 -14.5 9.5t-13.5 16.5q-12 14 -19 34.5t-7 42.5q0 17 4 33.5t13 29.5q20 29 42 46t45 30t44.5 21.5t41.5 8.5h9q10 0 24 -8h-3q7 -11 7 -28v-12t-1 -11z" />
    <glyph glyph-name="colon" unicode=":" horiz-adv-x="203" 
d="M193 449q0 33 -32 53q-29 20 -59 20q-18 0 -42 -8q-25 -9 -31 -25q-13 -27 -13 -48q0 -42 21 -63q20 -26 58 -26q36 0 68 30q30 30 30 67zM189 143q0 32 -31 51q-29 21 -61 21q-10 0 -20.5 -1.5t-20.5 -6.5q-24 -8 -32 -25q-11 -23 -11 -48q0 -38 21 -62.5t59 -24.5
q36 0 65 29q31 30 31 67z" />
    <glyph glyph-name="semicolon" unicode=";" horiz-adv-x="204" 
d="M182 190q0 32 -21 49t-53 17q-67 0 -73 -90q-1 -3 -1 -9v-22q-5 -32 -8.5 -54t-5.5 -38v-2q0 -10 13 -22q16 -13 27 -13q44 0 86 71q36 64 36 113zM203 490q0 31 -31 52q-29 20 -60 20q-11 0 -21 -2t-21 -7q-25 -7 -31 -24q-6 -13 -9 -24t-3 -24q0 -38 21 -63.5t58 -25.5
t67 31q30 30 30 67z" />
    <glyph glyph-name="less" unicode="&#x3c;" horiz-adv-x="372" 
d="M368 650q0 23 -17.5 40.5t-37.5 17.5q-22 0 -86 -62q-13 -14 -26 -26.5t-27 -25.5l-26 -26h1q-23 -18 -41 -31t-32 -22h1q-8 -6 -11 -7q-68 -50 -68 -86q0 -14 2.5 -26.5t9.5 -24.5q8 -14 20.5 -33.5t31.5 -42.5q17 -22 28 -38t19 -27q7 -8 8 -11v1q17 -31 37.5 -58.5
t43.5 -53.5l11 -11l5.5 -5.5t7.5 -5.5l38 -45q28 -30 50 -30q39 0 39 55q0 19 -21 48q-3 4 -8 9.5t-13 13.5q-10 11 -23 25t-30 33q-25 26 -42 48t-25 39l-3 4.5t-3 3.5q-6 6 -6 8q-56 77 -56 87q0 19 88 94l57 48q14 12 28 23.5t29 24.5q47 45 47 75z" />
    <glyph glyph-name="equal" unicode="=" horiz-adv-x="395" 
d="M381 419v10q-1 2 -1 11q0 27 -35 44q-30 11 -60 11q-42 0 -91.5 -4.5t-110.5 -14.5q-14 -3 -22.5 -4t-10.5 -2q-14 -5 -25 -13q-15 -9 -15 -21q2 -21 13 -40.5t22 -27.5q15 -5 38 -5h10q6 0 12 1l180 10q4 1 12 2.5t19 3.5q19 3 31 3q20 0 27 7.5t7 28.5zM368 236
q0 44 -28 60q-24 11 -70 11q-2 0 -12.5 -0.5t-28.5 -2.5q-25 -2 -48.5 -3.5t-47.5 -3.5q-36 -5 -56.5 -7t-26.5 -4q-11 -2 -19 -14t-8 -25q0 -33 29 -54q25 -22 60 -22q3 0 50 3q45 2 82 5t69 6l21 1.5t8 0.5q11 3 20 21q6 13 6 28z" />
    <glyph glyph-name="greater" unicode="&#x3e;" horiz-adv-x="372" 
d="M366 399q0 40 -63 78q-19 11 -39.5 26t-43.5 35q-13 14 -25 26.5t-25 25.5l-26 25q-63 60 -82 60q-20 0 -36.5 -18t-16.5 -38q0 -21 14 -41q17 -18 29.5 -32t21.5 -23q33 -33 58.5 -56.5t46.5 -39.5q10 -8 20 -15.5t21 -15.5q28 -25 28 -33q0 -13 -50 -81
q-7 -8 -11.5 -13.5t-6.5 -9.5h1q-18 -33 -63 -81q-32 -33 -48.5 -52.5t-21.5 -25.5q-25 -28 -25 -46q0 -23 12 -35v2q11 -20 29 -20q23 0 51 31l18 21q5 6 9.5 11.5t9.5 11.5q13 17 24 31t21 26q8 9 13.5 17t10.5 14q10 13 19 24.5t17 22.5q17 21 30 38t24 30q9 13 14 21
t8.5 13t6 9.5t6.5 11.5q20 28 20 65z" />
    <glyph glyph-name="question" unicode="?" horiz-adv-x="492" 
d="M485 629q1 6 1.5 12t0.5 12q0 43 -27 85q-32 47 -74 58q-16 4 -36.5 6t-49.5 2q-46 0 -70 -7q-73 -13 -97 -24q-115 -44 -126 -108v-7q0 -14 7 -23.5t18 -9.5q17 0 46 16l48 24q15 5 34.5 10t44.5 10q49 10 80 10h1q113 0 113 -59q0 -8 -1 -12q-11 -65 -112 -111
q-14 -6 -22.5 -9.5t-14.5 -5.5q-16 -3 -38 -9.5t-52 -15.5q-14 -5 -24.5 -8t-16.5 -5q-16 -5 -26.5 -23t-14.5 -38v-21v-18q0 -118 29 -118q25 0 45 77l5 17q5 6 9.5 11t10.5 7q2 1 7 2t16 3q25 5 54 17t63 32q69 39 107 84q19 24 38 64q8 22 15 39.5t9 33.5zM175 98
q1 4 1 10q0 20 -15 38q-17 17 -37 17q-40 0 -55 -30l-12 -24q-4 -20 -4 -40q0 -58 42 -58q24 0 50 27t30 60z" />
    <glyph glyph-name="at" unicode="@" horiz-adv-x="602" 
d="M617 485v55q0 19 -3.5 37t-11.5 35q-7 16 -11 26t-7 15q-26 63 -98 107q-62 35 -127 35q-53 0 -108 -24q-68 -27 -99 -64q-16 -20 -30.5 -40t-26.5 -43q-85 -161 -85 -340q0 -35 4 -64.5t14 -54.5q8 -20 29 -54h-1q16 -32 36 -47q70 -60 182 -60q28 0 44.5 24.5
t16.5 56.5q0 17 -13 27q-16 11 -35 11h-11q-6 0 -12 -1t-11.5 -1.5t-9.5 -0.5q-26 0 -69 18q-34 13 -57 86q-8 23 -11 45.5t-3 44.5q0 18 3 36q49 328 237 331h27q13 0 24 -2t19 -4h-1q39 -10 58 -27q28 -22 41 -46q20 -37 20 -108q0 -5 -0.5 -16t-2.5 -28q0 -2 -0.5 -2.5
t-0.5 -2.5q-2 -26 -9.5 -51t-19.5 -48q-32 -54 -57 -54q-20 0 -20 70q0 25 0.5 48t5.5 44q0 5 2 14t5 23q0 2 0.5 3t0.5 3q7 28 7 36q0 24 -32 43q-20 12 -48 12q-29 0 -66 -18l-2 -1h-1l-1 -1h1q-14 -8 -25.5 -14.5t-19.5 -14.5q-16 -16 -30 -37t-24 -49q-17 -36 -23.5 -69
t-6.5 -63q0 -60 33 -100q31 -34 86 -34q17 0 48 11q34 13 41 13q3 0 17 -9q8 -5 16 -8.5t19 -3.5h7q2 -1 9 -1h6q44 0 67 22h-1q52 44 79 119q26 75 26 155zM345 476v-9q0 -8 -1 -27.5t-5 -48.5q-3 -34 -5 -51t-4 -21h1q-3 -5 -8.5 -8.5t-14.5 -8.5h1q-24 -10 -25 -10
q-13 0 -21.5 19.5t-8.5 42.5q0 43 32 84q36 45 55 45l1.5 -1.5t4.5 -5.5h-2z" />
    <glyph glyph-name="A" unicode="A" 
d="M580 45q0 32 -10 68q-5 17 -10 33l-10 32q-4 15 -8.5 33.5t-8 35t-6 28t-2.5 13.5q0 6 4 10q6 8 11.5 13.5l13.5 13.5q8 14 8 38q0 8 -1 9q-8 21 -35 29q-29 12 -36 25q-8 22 -18 66l-49 187q-9 35 -14 54t-7 24q-20 41 -59 41q-9 0 -24 -6q-14 -4 -19 -12
q-9 -15 -15 -26.5t-11 -19.5q-46 -78 -73 -151q-19 -51 -36.5 -94t-33.5 -79q-22 -52 -39.5 -97.5t-29.5 -85.5q-8 -22 -15.5 -43t-15.5 -43q-23 -57 -23 -82t19 -38q16 -13 40 -13q26 0 36 16q8 14 12 24.5t6 18.5l32 89q5 17 9.5 27.5t6.5 14.5q8 18 33 29q6 2 17 4t28 7
q19 7 37.5 13t37.5 12q22 7 41.5 11t36.5 5q4 -9 9 -14q6 -17 9 -29t5 -21q10 -38 16 -67t11 -49q14 -59 16 -65q12 -32 69 -32q45 0 45 43zM368 398q-8 -11 -41 -20l-48 -11h-34q-4 9 -4 16q0 5 35 104q26 69 42 88q9 -2 12 -6q4 -4 20 -81q8 -36 12 -59t6 -31z" />
    <glyph glyph-name="B" unicode="B" horiz-adv-x="643" 
d="M646 265q0 40 -30 93q-13 24 -28 44t-33 35q-37 34 -37 44q0 5 16 25q11 11 17 19t11 16q14 56 14 94q0 54 -25 80q-43 47 -102 62q-12 5 -82 15q-35 5 -56 7t-32 2q-79 0 -129 -7.5t-73 -33.5q-6 -6 -11.5 -15t-10.5 -23q-1 -5 -1 -15q0 -15 5 -23q8 -8 8 -22
q-2 -24 -3 -49t-1 -51v-115q0 -8 1 -20.5t1 -23.5v-131q0 -45 1 -48l1.5 -37.5t0.5 -13.5q0 -36 -25 -51q-24 -15 -24 -37q0 -42 76 -63q58 -18 112 -18q30 0 62 5t74 13q60 14 108.5 34t88.5 44q106 69 106 165zM480 210q-22 -17 -45 -30.5t-50 -22.5q-16 -6 -36.5 -10.5
t-48.5 -9.5q-48 -9 -79 -9h-8h-8l-10 11q-5 33 -8 68.5t-3 77.5q0 5 -0.5 16.5t-0.5 17.5q0 26 5 35h2q11 0 24 7l24 8q25 5 39.5 8.5t19.5 4.5q6 1 21.5 6.5t40.5 14.5q48 20 52 20q12 0 81 -73q32 -35 32 -66q0 -38 -44 -74zM460 630q0 -35 -78 -95q-26 -22 -81 -37
q-51 -16 -89 -16q-13 0 -23 10q0 7 -3 27q-1 8 -1.5 15t-0.5 12q0 118 21 138q9 5 17.5 6.5t13.5 2.5q32 3 49.5 4.5l17.5 1.5q157 0 157 -69z" />
    <glyph glyph-name="C" unicode="C" horiz-adv-x="634" 
d="M629 241q0 25 -15 39.5t-40 14.5t-53 -20q-23 -18 -45.5 -36.5t-48.5 -35.5q-35 -22 -59 -36t-37 -19q-56 -29 -105 -29q-53 0 -81 33q-25 31 -25 85q0 49 25 100q1 1 13.5 24t38.5 68q24 43 48.5 80.5t52.5 69.5q77 92 138 92q24 0 33 -28q2 -14 5.5 -27t6.5 -27
q10 -28 34 -28q44 0 44 82q0 71 -17 108q-26 50 -90 50q-58 0 -107 -33q-11 -7 -24.5 -18.5t-30.5 -28.5q-19 -17 -31 -29.5t-20 -21.5q-51 -61 -84 -106t-50 -74q-38 -71 -57 -108q-8 -14 -14 -32.5t-12 -41.5q-10 -44 -10 -79q0 -69 16 -101q18 -41 68 -80q52 -42 154 -42
q27 0 108 22q20 8 35 15t26 15q210 109 210 183z" />
    <glyph glyph-name="D" unicode="D" horiz-adv-x="604" 
d="M603 447q0 120 -27 167q-18 29 -35.5 49.5t-33.5 34.5q-20 17 -43 29.5t-48 22.5q-26 8 -50 14.5t-48 14.5q-12 4 -35 6q-27 3 -36 7q-18 6 -42.5 9.5t-56.5 3.5q-71 0 -71 -46v-17q0 -14 1.5 -31.5t1.5 -25.5q0 -14 -1 -31.5t-3 -40.5q-2 -30 -3 -47t-2 -25
q-2 -31 -3.5 -55t-5.5 -42q-3 -23 -6.5 -39t-5.5 -27q-6 -66 -11.5 -112.5t-8.5 -78.5l-8 -66q-3 -27 -3 -30q0 -49 22 -69t71 -20q12 0 26 4t29 13q13 8 26 14t27 14q42 17 70 30t47 24q266 146 266 346zM477 445q-4 -18 -6.5 -29.5t-4.5 -16.5q-26 -71 -107 -139
q-68 -56 -153 -90q-30 -12 -41 -12q-19 0 -19 26q0 5 1.5 21.5t3.5 44.5q2 24 3.5 41t2.5 28q2 7 3 12t2 9q3 31 4.5 53.5t2.5 39.5l6 58t8 58q3 19 4.5 30t2.5 15q2 5 2.5 9.5t0.5 6.5q2 8 2.5 16.5t1.5 16.5q2 11 3.5 18t3.5 12h8h9q117 0 179 -35q82 -48 82 -164
q0 2 -1 -5t-4 -24z" />
    <glyph glyph-name="E" unicode="E" horiz-adv-x="666" 
d="M658 113v8q0 22 -11 41t-31 27q-21 -3 -41 -5t-41 -2h-10q-26 -3 -51 -3.5t-51 -2.5q-48 -8 -92.5 -18.5t-92.5 -15.5q-9 -1 -17 -1.5t-17 -0.5q-6 0 -12 0.5t-12 1.5q-34 9 -34 32q0 5 3 11q1 2 1 8v7v9q0 27 3 54.5t5 55.5q0 16 8 32.5t28 19.5q17 2 33 5.5t33 5.5
q32 5 62.5 12t63.5 7q5 0 9 -0.5t9 -0.5q18 0 37.5 -0.5t38.5 -2.5h3q16 0 30.5 8t15.5 25q1 3 1 6v7q0 19 -11.5 33t-29.5 21q-8 2 -15.5 3.5t-15.5 1.5q-20 5 -39.5 6.5t-39.5 1.5q-47 0 -92.5 -7t-92.5 -13l-7 3q-9 6 -9 18v4v2q0 4 1 7t1 7q0 3 -1 5q0 11 0.5 22t1.5 22
l2 9l1 9l1 8l3 8l5 7h8q6 0 11.5 2.5t10.5 5.5q19 8 37 11.5t36 5.5q18 4 35.5 5.5t35.5 2.5q23 5 43.5 6t40.5 1h20q25 0 50 2.5t53 13.5q9 13 9 30q0 26 -17 52t-42 38q-13 7 -32 7q-5 0 -10 -0.5t-10 -1.5q-13 -4 -26 -3.5t-27 -2.5q-34 -2 -67 -7t-68 -14
q-39 -9 -78 -15q-21 -7 -40 -10.5t-39 -11.5h-7q-13 0 -26.5 -3.5t-24 -10.5t-17 -17.5t-6.5 -23.5v-6q1 -14 1.5 -27t0.5 -27v-124q1 -7 1 -14v-13v-27q0 -27 -3 -52q-3 -29 -6.5 -58.5t-8.5 -59.5q-5 -29 -8.5 -58t-6.5 -58q-3 -14 -3 -28q0 -23 7 -44.5t20.5 -39t33 -29
t45.5 -12.5q10 -1 19.5 -1.5t18.5 -0.5q28 0 55 6q73 17 144.5 29t146.5 12h22q20 0 39.5 2.5t39.5 3.5q21 5 37 19.5t18 36.5z" />
    <glyph glyph-name="F" unicode="F" horiz-adv-x="553" 
d="M551 752q0 53 -57 53q-45 0 -108 -8t-148 -27q-189 -40 -228 -82q-10 -13 -10 -42l10 -29q6 -3 22 -5q27 -12 27 -35q0 -43 -0.5 -74t-1.5 -52q-3 -9 -8.5 -18t-14.5 -18q-12 -29 -12 -46q0 -11 11 -31q2 -17 3.5 -28.5t3.5 -18.5q2 -8 2 -15q0 -3 -0.5 -7t-0.5 -8
q-3 -35 -3 -50v-118q-1 -3 -1 -10v-8q0 -9 0.5 -15t1.5 -11q-3 -9 -3 -17q0 -18 18 -24q25 -9 49 -9q9 0 9 1q19 6 26 51q3 26 5.5 56t4.5 68q6 120 6 124q0 26 27 35q39 12 122 24q46 6 77 11t49 10l56 12q26 12 26 45q0 52 -70 52q-4 0 -21 -1.5t-47 -6.5
q-50 -6 -78 -10.5t-50 -7.5q-22 -5 -20 -8l-43 1v45q0 10 -0.5 19t-0.5 17q0 42 5.5 63.5t20.5 31.5q19 12 63 21q17 3 34 6.5t33 6.5q57 13 99.5 21.5t71.5 13.5q24 5 33.5 16t9.5 36z" />
    <glyph glyph-name="G" unicode="G" horiz-adv-x="760" 
d="M729 415q0 55 -15 76q-18 27 -71 27q-11 0 -32 -3.5t-50 -11.5q-42 -10 -78 -21.5t-67 -24.5q-101 -42 -101 -90q0 -24 16 -43q18 -21 38 -21q10 0 29 5.5t49 18.5q21 8 41 15t41 15q16 6 26 9.5t15 3.5q8 0 14 -5.5t6 -11.5q0 -8 -14 -28t-43 -51q-129 -136 -306 -136
q-43 0 -73 43q-26 38 -26 84q0 45 37 123q32 69 140 171q116 110 178 110q26 0 51 -22q22 -22 28 -22q28 0 28 58q0 52 -19 77q-23 36 -65 36q-34 0 -64.5 -10t-58 -25t-53 -33t-49.5 -34q-144 -106 -223 -275q-21 -45 -33 -83t-12 -68v-3q0 -42 8.5 -78t27.5 -67
q42 -69 113 -97q17 -8 35 -11t36 -3q5 0 15.5 0.5t28.5 2.5q30 3 46 4.5t21 2.5q11 3 20 6.5t15 5.5q16 5 27.5 7.5t19.5 4.5q20 8 44 21.5t54 31.5q55 36 95.5 75.5t68.5 82.5q19 31 31 77q10 44 10 84z" />
    <glyph glyph-name="H" unicode="H" horiz-adv-x="544" 
d="M561 697v11q0 92 -71 92q-15 0 -26 -4q-9 -5 -25 -23q-19 -19 -19 -23l-5 -101q-1 -3 -1 -10v-11q-1 -4 -1 -13v-15q0 -8 0.5 -14.5t0.5 -12.5t-0.5 -11t-0.5 -9q-1 -32 -11 -45q-8 -11 -65 -15q-42 -4 -70 -7t-46 -3q-21 0 -30 5q-7 4 -7 16v4l9 177q0 16 -3.5 31.5
t-12.5 29.5q-16 34 -50 34q-67 0 -73 -150q-2 -36 -6 -177v-30v-42v-21q0 -35 -2 -70t-5 -72q-1 -14 -1.5 -26.5t-0.5 -24.5q0 -23 1.5 -42.5t5.5 -36.5q-3 -9 -3 -19q0 -20 14 -39q28 -24 59 -24q54 0 60 111q1 8 1 18v21t-0.5 24.5t-1.5 29.5t-1 29v26v21q0 10 1 18
q1 49 26 52q19 3 29 3q16 2 26.5 3t18.5 2l116 11q18 -12 18 -55v-7l-1 -23v-6q0 -5 -1 -8v-20q-1 -5 -1 -10v-10v-14l-3 -43q0 -4 0.5 -7.5t0.5 -6.5t-0.5 -6t-0.5 -5q-1 -3 -1 -10v-7q-1 -16 -1.5 -29t-0.5 -24q0 -17 1 -30.5t3 -22.5q4 -19 23 -30q21 -10 40 -10
q35 0 49 32l5 15l3 9z" />
    <glyph glyph-name="I" unicode="I" horiz-adv-x="635" 
d="M624 721q0 23 -31 60l-65 5q-70 -5 -111 -8t-54 -5t-25 -3t-25 -2q-24 -3 -48 -4t-41 -6q-20 -3 -42 -7t-43 -8q-54 -8 -81 -22.5t-27 -42.5q0 -61 85 -61q2 0 10 1t22 3q23 3 41 6l30 5q5 1 8.5 1.5t7.5 0.5q3 0 17 1t40 3q-3 -26 -3 -55q-1 -37 -3 -80t-8 -91l-22 -171
q-2 -14 -3 -28t-3 -29q-6 -36 -23 -50q-16 -11 -43 -17q-4 -1 -16 -3t-33 -5q-17 -3 -29.5 -5.5t-20.5 -4.5q-20 -4 -33 -6.5t-21 -6.5q-28 -13 -28 -42q0 -3 -0.5 -6t-0.5 -5q0 -38 28 -44q16 -3 27.5 -5t19.5 -2q16 0 36 3t60 10q137 22 215.5 34.5t92.5 13.5
q52 6 85.5 13.5t36.5 7.5q16 28 16 51q0 36 -39 59q-45 -6 -69.5 -9.5t-30.5 -4.5t-16 -1.5t-23 -0.5q-14 0 -24.5 -1t-17.5 -5q-19 0 -22 3.5t-3 22.5v7l33 315q1 3 1 8v7q0 108 23 137q12 0 39.5 5t72.5 13q81 0 81 51z" />
    <glyph glyph-name="J" unicode="J" horiz-adv-x="784" 
d="M772 739q0 62 -118 62q-90 0 -148.5 -2t-101.5 -5t-79 -8t-81 -11q-63 -12 -85 -24q-42 -23 -42 -71q0 -23 22 -35q17 -11 41 -11q5 0 29.5 3.5t67.5 10.5q34 5 67.5 8t67.5 3q38 0 53 -24q11 -17 29 -119q8 -48 11.5 -79t3.5 -49q0 -38 -1 -66.5t-4 -47.5
q-8 -67 -39 -95t-94 -28q-46 0 -103 24q-26 11 -49 25t-44 30q-28 27 -59 56q-36 33 -70 33q-20 0 -33 -24q-11 -18 -11 -42q0 -66 128 -146q109 -70 186 -89q29 -8 49.5 -11t32.5 -3q53 0 110 23q56 26 83 75q5 8 9 18.5t9 21.5q1 8 3.5 18.5t7.5 25.5q18 76 18 205
q0 6 -2 20.5t-4 40.5q-5 22 -7.5 43.5t-7.5 43.5q-4 26 -6 48t-2 40v20q0 32 59 32h22q5 0 11 -0.5t11 -1.5q14 -2 21.5 -3.5t8.5 -1.5q4 0 6 5q24 19 24 62z" />
    <glyph glyph-name="K" unicode="K" horiz-adv-x="619" 
d="M608 51q0 62 -50 142q-43 63 -81.5 113.5t-80.5 93.5q-18 20 -28 31t-10 27q0 13 19 31q21 17 36 28.5t25 19.5q42 33 75 64.5t61 60.5q9 11 15 17.5t8 9.5q9 16 9 35q0 10 -5 21.5t-13 24.5q-20 29 -38 29q-23 0 -42 -19q-27 -23 -46.5 -41.5t-32.5 -31.5
q-68 -62 -174 -144q-11 -8 -21 -16t-21 -16q-31 -22 -44 -22q-25 0 -25 30q0 19 3 52.5t11 84.5q6 37 6 40q0 33 -27 62q-24 27 -57 27q-16 0 -22.5 -7t-14.5 -18q-3 -21 -8 -51.5t-10 -73.5q-2 -27 -4 -42t-2 -20v-322q0 -24 2 -52t5 -62q4 -42 9.5 -69t11.5 -41
q3 -11 23 -25q18 -12 32 -12q11 0 28 12q18 12 23 21q11 27 11 56q0 4 -3 52l-8 100q-1 20 -1.5 30.5t-0.5 12.5q0 25 17.5 43t42.5 18t121 -113q29 -36 58 -71t58 -71q75 -90 116 -90q44 0 44 41z" />
    <glyph glyph-name="L" unicode="L" horiz-adv-x="615" 
d="M612 201q0 25 -14 48q-16 25 -42 25q-14 0 -89 -34q-35 -15 -61 -25.5t-45 -18.5q-23 -8 -45 -16t-45 -16q-51 -16 -93 -16q-15 0 -22 31l-3 14l87 522l1 2v4q0 32 -21 56q-24 26 -56 26q-30 0 -43 -25q-12 -15 -19 -50q-3 -14 -6 -27.5t-5 -27.5q-13 -57 -22 -100
t-17 -72q-21 -117 -31 -199t-10 -139q0 -77 32 -115q36 -41 113 -41q15 0 40.5 4.5t63.5 12.5q17 5 35 11t39 14q18 8 36 15t37 15q42 17 70.5 30t48.5 21q25 13 56 24q30 18 30 47z" />
    <glyph glyph-name="M" unicode="M" horiz-adv-x="672" 
d="M657 63q0 3 -3 32q-3 35 -4.5 69.5t-3.5 69.5q-1 51 -2 98.5t-1 96.5q-1 60 -3 107t-7 89q-1 7 -4.5 20t-7.5 26.5t-8.5 25.5t-7.5 17q-5 8 -14.5 16.5t-20.5 17.5q-26 19 -43 19q-23 0 -39 -28q-12 -29 -20 -50.5t-13 -36.5q-81 -225 -107 -225q-10 0 -20 34
q-3 11 -6.5 22t-5.5 23l-24.5 73.5t-18.5 52.5q-17 49 -28.5 78.5t-19.5 40.5q-33 46 -86 46q-21 0 -33 -28q-9 -32 -12 -48q-9 -42 -15 -72.5t-10 -52.5q-2 -26 -4 -45.5t-4 -33.5q-13 -78 -22 -162t-17 -181q0 -13 -6 -44q-2 -14 -3.5 -25.5t-1.5 -19.5q0 -34 11 -56
q13 -31 43 -31q2 0 8 1t17 6q22 11 23 13q5 32 7.5 60.5t3.5 55.5q5 31 9 67.5t7 81.5l6 90q6 72 25 72q10 0 39 -69q20 -51 33.5 -83t21.5 -46q34 -69 68 -69q20 0 34 23q26 40 33 55q20 35 38 67t34 59q15 29 23.5 43.5t10.5 18.5q7 10 14 10q16 0 16 -43v-20
q0 -18 1.5 -40.5t1.5 -31.5v-158q0 -5 -1 -7v-9q0 -132 72 -132q22 0 34.5 14t12.5 36z" />
    <glyph glyph-name="N" unicode="N" horiz-adv-x="641" 
d="M620 256l-1 44.5t-3 137.5q0 14 -0.5 24.5t-1.5 16.5q-1 29 -1.5 49.5t-0.5 34.5q-2 60 -6.5 101.5t-10.5 68.5q-8 27 -33 45q-24 24 -50 24q-25 0 -38 -14.5t-13 -38.5v-8l23 -276v-13q0 -26 -3 -90q-3 -81 -8 -98q-2 -9 -13 -9q-16 0 -92 109q-23 33 -45.5 66t-45.5 65
q-18 26 -39 67.5t-44 98.5q-17 42 -26.5 64.5t-18.5 33.5q-23 32 -68 32q-50 0 -57 -66q0 -2 -0.5 -7t-1.5 -12q-3 -14 -3 -21v-85q0 -4 -3 -53l-4 -90q-3 -41 -3 -43q0 -13 3 -68q2 -42 4.5 -75t5.5 -59q0 -21 0.5 -42t1.5 -42q-3 -27 -3 -46t3 -31q7 -23 39 -42
q42 -3 56 -3q21 0 33 24q9 15 9 32q0 8 -1 12l-8 105l-3 40.5l-1 13.5v108q1 3 1 9v30q0 38 5 38q17 0 43 -33q4 -6 6.5 -10t4.5 -7v-1h1h-1l-4 4q22 -32 37 -55t25 -40q11 -14 18.5 -23t12.5 -14q14 -21 23.5 -37t17.5 -27q33 -45 104 -105q82 -68 122 -68q25 0 37 23
q8 11 14 113q2 38 3.5 68t1.5 50z" />
    <glyph glyph-name="O" unicode="O" horiz-adv-x="803" 
d="M776 464q0 27 -9 62q-5 15 -8 29.5t-8 30.5q-5 23 -13 42.5t-18 36.5q-18 31 -41.5 56t-55.5 45q-67 43 -131 43q-8 0 -23.5 -3t-23.5 -3q-80 0 -207 -88q-42 -29 -83.5 -82.5t-87.5 -138.5q-14 -25 -22.5 -51t-13.5 -54q-5 -26 -7 -43.5t-2 -25.5q-5 -18 -5 -36
q0 -17 3.5 -36.5t10.5 -43.5q27 -75 48 -86q8 -11 17 -19.5t20 -17.5q6 -4 20 -11.5t36 -18.5q22 -8 36.5 -14.5t25.5 -8.5q70 -17 94 -17q93 0 153 23q22 11 38 18.5t27 13.5q26 11 46.5 24t37.5 27q35 30 61 69t46 88q20 47 29.5 91.5t9.5 91.5v7zM651 441q0 -87 -55 -169
q-55 -84 -133 -115q-42 -20 -108 -20q-7 0 -17.5 1.5t-25.5 3.5q-87 20 -122 56q-43 43 -43 130q0 33 14 69t41 78t59 74t69 61q76 58 142 58q82 0 132 -74q47 -68 47 -153z" />
    <glyph glyph-name="P" unicode="P" horiz-adv-x="564" 
d="M558 611q0 32 -5 57q-6 25 -27 49q-31 46 -134 67q-35 8 -74.5 11.5t-82.5 3.5q-65 0 -132 -18q-94 -25 -94 -71q0 -17 14 -33q11 -15 16.5 -25t8 -21t2.5 -25q0 -13 1 -35q0 -8 -0.5 -20t-1.5 -28q-2 -17 -3 -28.5t-1 -19.5l-10 -390v-3v-4q0 -74 63 -74q36 0 43 46
q2 20 3 38l2 36q0 5 1 14.5t3 25.5q4 20 4 39q0 39 8 53q6 10 50 27q16 5 30 9.5t30 9.5q22 8 47.5 20t53.5 30q14 8 24 13.5t16 10.5q13 9 20.5 15.5t12.5 11.5q43 39 76 95q36 61 36 113zM438 604q0 -59 -83 -124q-31 -24 -67 -43t-74 -36q-27 -11 -34 -11q-23 0 -23 36
q0 192 14 218q18 26 135 26q132 0 132 -66z" />
    <glyph glyph-name="Q" unicode="Q" horiz-adv-x="808" 
d="M627 156q0 9 27 44q9 11 16.5 22t17.5 23q28 38 47 75t29 77q10 35 16 60t6 39v3v22q0 25 -6 45q-16 65 -19 71q-17 34 -30 52q-40 59 -104 94q-65 35 -128 35q-52 0 -108 -19q-66 -18 -99 -43q-56 -38 -102.5 -87t-87.5 -112q-46 -70 -68 -136t-22 -129q0 -100 37 -155
q38 -56 125 -91q20 -8 33.5 -12t21.5 -7q34 -5 50.5 -7l16.5 -2q95 0 212 49q9 0 55 -52q46 -51 78 -51q21 0 35 15.5t14 36.5q0 34 -30 82q-33 46 -33 58zM664 522q0 -59 -18 -110q-2 -9 -10 -22.5t-19 -31.5q-26 -39 -38 -39q-13 0 -16 30q-3 23 -5.5 36t-7.5 21
q-14 30 -55 30h-15q-44 0 -44 -81q0 -8 1.5 -21.5t3.5 -33.5q3 -20 3.5 -33.5t0.5 -21.5v-16q0 -9 -1 -12q-7 -27 -68 -46q-47 -16 -84 -16q-65 0 -108 30q-51 34 -51 99q0 76 79 191q38 54 72 93t66 60q85 54 176 54q67 0 102.5 -44t35.5 -116z" />
    <glyph glyph-name="R" unicode="R" horiz-adv-x="618" 
d="M608 642v2q0 51 -59 96q-53 44 -106 51q-21 5 -47 6.5t-58 1.5q-75 0 -140 -10t-122 -31q-13 -5 -22 -8t-14 -7q-27 -15 -27 -56q0 -23 15 -45q10 -17 15.5 -26.5t7.5 -14.5q17 -45 17 -201q0 -165 -6 -225q-1 -7 -4 -29t-9 -59q-4 -20 -4 -38q0 -39 21 -48
q11 -5 20 -7.5t18 -2.5q6 0 14 2q24 5 38 18.5t18 21.5q2 10 4.5 17.5t4.5 14.5q5 23 8 46t6 47q3 30 5 45t5 23q1 2 1.5 12t2.5 31q2 17 3 26.5t3 13.5q9 15 30 15q12 0 22 -2t19 -5q28 -13 60 -70q5 -7 15.5 -29t27.5 -58q8 -16 15 -29t12 -21q7 -14 11 -24.5t7 -16.5
q33 -69 84 -69q43 5 56 22l7 30q4 1 4 12q0 32 -44 135q-27 43 -46 71.5t-31.5 46.5t-20 28.5t-10.5 18.5q-4 7 -5.5 10l-1.5 3q0 6 47 50l26.5 26.5t23.5 25.5t26.5 33.5t36.5 52.5zM468 631q-12 -98 -156 -145q-71 -30 -89 -30q-38 0 -38 124q0 51 8 65q9 13 77 25
q14 2 39 6.5t63 11.5h4q77 0 92 -57z" />
    <glyph glyph-name="S" unicode="S" horiz-adv-x="631" 
d="M236 7q97 0 217 84q120 85 151 174q5 12 6.5 30.5t1.5 43.5q0 119 -65 161q-50 33 -176 33q-28 0 -83 -6q-27 -2 -47.5 -3.5t-34.5 -1.5q-41 0 -41 22q0 25 64 67q46 29 90 46q17 8 32.5 13t31.5 13q20 8 35.5 11t29.5 3q17 0 35 -28q9 -25 26 -25q4 0 7 1q20 7 25 7
q13 0 21.5 11.5t8.5 26.5q0 29 -42 70q-40 39 -73 45q-5 0 -9.5 0.5t-10.5 0.5h-18q-54 -1 -102 -17q-28 -10 -94 -42q-19 -11 -33.5 -17.5t-22.5 -11.5q-22 -16 -37.5 -28t-26.5 -20q-20 -14 -36 -28.5t-30 -31.5q-35 -47 -35 -79t21 -66q25 -42 86 -59q36 -9 106 -9
q10 0 32 0.5t46 1t45.5 1t31.5 0.5q39 0 74 -11q45 -17 45 -51q0 -64 -131 -153q-16 -10 -25.5 -16t-12.5 -8q-34 -17 -83 -17q-11 0 -44 10q-34 11 -42 16q-8 8 -17.5 14t-18.5 14q-20 15 -41 15t-38 -16t-17 -37q0 -62 80 -110q71 -43 138 -43z" />
    <glyph glyph-name="T" unicode="T" horiz-adv-x="686" 
d="M688 726q2 10 2 16q0 15 -5 29t-14.5 25.5t-22.5 18.5t-28 7h-7q-3 0 -6 -1q-20 -2 -39 -4t-39 -4q-33 -4 -64 -15t-65 -11q-63 -10 -125 -14t-125 -15q-26 -8 -52.5 -14.5t-51.5 -18.5q-20 -11 -32 -30.5t-12 -42.5v-3q-2 -4 -2 -11q0 -13 12.5 -20.5l22.5 -13.5
q5 -1 9 -1h9q11 0 20.5 1t19.5 3q38 12 75.5 17.5t76.5 10.5h1q9 0 14 -7.5t5 -16.5q1 -6 1 -12v-10q0 -19 -4 -34q-5 -139 -14 -274t-9 -275q11 -11 25.5 -19t31.5 -8h7q12 2 23.5 6t16.5 15q14 8 17 21t3 27v20v9t1 9q-2 23 -3 46.5t-1 46.5q0 79 7.5 157.5t13.5 158.5
q1 2 1 7v24v9v21q1 12 1.5 26t2.5 27.5t7 25.5t16 21q1 1 5 1t4 1l10 2l2 1q45 10 89.5 15t89.5 11q5 1 9 1.5t8 0.5q9 0 21 -3h5h6q8 0 12 2q8 6 13 15t5 20v3z" />
    <glyph glyph-name="U" unicode="U" horiz-adv-x="705" 
d="M696 705q0 82 -57 82q-82 0 -82 -86v-13q1 -2 1 -8v-5q0 -4 -2 -18.5t-5 -40.5q-1 -13 -5 -56.5t-9 -121.5q-8 -110 -24 -176q-7 -31 -32 -45q-16 -8 -27 -12t-18 -8q-169 -62 -238 -62q-52 0 -52 66q0 37 4 81.5t12 96.5q8 45 15 87.5t15 87.5q2 9 6 26.5t12 44.5
q6 24 9 41.5t3 32.5q0 31 -25 52q-24 25 -56 25q-22 0 -32 -22q-8 -23 -12.5 -41l-8.5 -34q-16 -78 -29.5 -153.5t-25.5 -153.5q-10 -66 -15 -113t-5 -77q0 -52 9 -86q5 -18 14 -32t23 -24q52 -40 151 -40q47 0 178 39l15 4.5t45 14.5q51 17 54 17q30 -27 52 -56
q31 -15 49 -15q13 0 18 8q22 9 22 43q0 4 -1.5 12.5t-3 18t-2.5 18.5t-1 14q0 3 3.5 29t9.5 77q9 72 17.5 155.5t16.5 185.5q3 29 4.5 51.5t3.5 39.5q6 43 6 49z" />
    <glyph glyph-name="V" unicode="V" horiz-adv-x="615" 
d="M608 727q0 77 -46 77q-57 0 -73 -100q-8 -34 -15 -59t-12 -41q-8 -32 -18.5 -65.5t-24.5 -75.5q-3 -10 -15.5 -43.5t-33.5 -93.5q-22 -62 -30 -76q-26 -57 -42 -57q-22 0 -49 94q-13 42 -22 74.5t-17 60.5q-13 45 -22.5 75.5t-17.5 52.5q-30 120 -61 185q-4 6 -5 9.5
t-2 4.5q-13 13 -35 13q-21 0 -39 -20t-18 -44q0 -8 19 -65q22 -72 38.5 -123t27.5 -86q26 -92 37 -136q31 -103 72 -190q45 -94 91 -94q5 0 29 8q11 4 17.5 7.5t10.5 5.5q17 17 25 28q35 46 67 112q6 15 17.5 45t29.5 76l44 115q16 40 25 65.5t12 37.5q19 72 27.5 127.5
t8.5 95.5z" />
    <glyph glyph-name="W" unicode="W" horiz-adv-x="868" 
d="M645 24q45 0 88 88q8 16 20.5 48t31.5 81q11 32 20 55.5t15 39.5q10 38 17.5 72.5t12.5 66.5q5 27 7 58.5t2 69.5q0 193 -82 193q-49 0 -49 -57q0 -10 1 -29t2.5 -40.5t3 -40.5t1.5 -29q0 -36 -6 -64q-5 -21 -7.5 -37.5t-4.5 -27.5q-8 -39 -16 -73.5t-17 -66.5
q-33 -108 -63 -108q-17 0 -41 38q-18 28 -27 56q-14 48 -23.5 83t-15.5 59q-5 19 -9 38t-9 38q-7 25 -13 42.5t-13 27.5q-18 25 -53 25q-26 0 -43 -29q-6 -13 -10.5 -23.5t-9.5 -21.5l-5 -10h1l1 1.5t3 5.5q-21 -45 -36.5 -76.5t-27 -55t-20.5 -40t-18 -31.5
q-8 -17 -16.5 -33.5t-16.5 -34.5q-27 -53 -44 -53q-20 0 -24 40l-3 54q-2 12 -3 20.5t-2 13.5l-4 318q-3 16 -3 23q-16 64 -65 64q-54 0 -54 -105q0 -85 4 -167.5t13 -167.5q13 -121 30.5 -193t38.5 -98q12 -11 31 -20.5t35 -9.5q27 0 86 87q20 29 36.5 57.5t32.5 57.5
q65 125 81 125q9 0 49 -79q26 -51 46.5 -87.5t35.5 -58.5q55 -79 108 -79z" />
    <glyph glyph-name="X" unicode="X" horiz-adv-x="676" 
d="M670 720q0 22 -13 47q-15 23 -39 23q-54 0 -245 -230q-16 -19 -27 -33t-19 -23q-15 -15 -21 -15q-33 0 -76 90q-14 30 -26.5 61t-26.5 62q-42 89 -48 95q-25 28 -44 28q-45 0 -45 -63q0 -16 10 -45.5t31 -72.5q15 -29 30 -58.5t30 -59.5q2 -1 12.5 -19t31.5 -53
q33 -59 33 -68q0 -17 -61 -105q-23 -33 -42.5 -59.5t-36.5 -46.5q-20 -26 -30 -38.5t-12 -15.5q-24 -36 -24 -60q0 -21 19 -40q18 -21 38 -21q28 0 70 54l54 80q101 131 123 131h1q39 -6 85 -59q26 -32 55.5 -56.5t56.5 -51.5q57 -71 101 -71q11 0 20 4q13 30 13 64
q0 17 -14 43q-8 11 -14.5 20.5t-14.5 15.5h-1q-3 10 -38 42q-14 10 -25.5 19.5t-24.5 20.5l-95 93q-16 18 -22 22q2 23 112 142q19 24 32 40t24 27q15 17 25 23q78 75 78 117zM507 508l10 11l-6 -6q-3 -3 -4 -5z" />
    <glyph glyph-name="Y" unicode="Y" horiz-adv-x="673" 
d="M670 741q0 60 -55 60q-32 0 -108 -75q-26 -25 -50 -51.5t-47 -54.5q-13 -17 -24.5 -32.5t-22.5 -32.5q-39 -51 -50 -51q-16 0 -60 44q-17 18 -29.5 32t-22.5 27q-12 20 -19.5 34t-12.5 24q-8 13 -12.5 22.5t-8.5 15.5l-27 65q-19 37 -54 37q-27 0 -41.5 -20t-14.5 -48
q0 -26 27 -86q19 -47 42 -84q24 -40 54 -74t68 -63q8 -8 16.5 -13.5t16.5 -11.5q21 -20 21 -34v-4l-64 -282v-3q0 -29 17 -51q23 -26 47 -26q14 0 25 8q12 9 32 65q8 25 13 43.5t7 31.5q10 46 18.5 76.5t13.5 46.5q2 5 6 19t12 39q5 18 10 32t10 25q57 120 229 286
q29 29 29 31q9 10 9 33z" />
    <glyph glyph-name="Z" unicode="Z" horiz-adv-x="668" 
d="M651 136q0 81 -62 81h-4l-355 -42q-5 0 -11 5.5t-6 10.5q0 18 25 52q11 13 18.5 25t17.5 25q40 71 117 160q33 38 67 72.5t66 73.5q22 26 39 46.5t27 37.5q27 40 27 56q0 42 -47 57q-21 7 -66 7h-17l-193 -7q-14 -2 -25 -3t-20 -3q-42 -5 -63.5 -7.5t-25.5 -3.5
q-59 -9 -84 -21q-41 -23 -41 -70q0 -64 50 -64q7 0 54 16q57 19 96 29t61 10l19 2q14 2 27 3.5t24 1.5q42 0 42 -16q0 -8 -20.5 -31t-59.5 -65q-42 -45 -80.5 -96t-76.5 -106q-38 -60 -66 -105t-47 -74q-55 -82 -55 -112q0 -28 28 -50q28 -23 59 -23q1 0 82 21
q33 8 58.5 14.5t43.5 11.5q34 7 71.5 11.5t80.5 7.5q38 2 75.5 5t76.5 5q12 1 25 1.5t23.5 5t17.5 15t7 30.5z" />
    <glyph glyph-name="bracketleft" unicode="[" horiz-adv-x="336" 
d="M323 73q0 13 -5 21q-11 18 -29 22q-5 2 -18.5 4t-34.5 4q-40 3 -52 8q-5 3 -10.5 11.5t-5.5 13.5q0 6 1 16t2.5 20.5t2.5 20t1 13.5q6 87 6 182q0 23 -0.5 39t-1.5 24q-5 40 -8.5 68.5t-5.5 48.5q-1 5 -4 14t-8 25q-9 28 -9 34q0 11 13 17l24.5 3.5t18.5 1.5q21 4 45 6
t41 12q38 18 38 46q0 21 -17 35q-8 5 -37 5h-126q-5 -1 -15 -1h-28q-91 0 -91 -74q0 -11 2 -24.5t10 -32.5q6 -16 11 -29.5t10 -29.5q6 -17 11 -29.5t8 -20.5q5 -36 8 -63l5 -45q3 -42 3 -50q0 -7 -0.5 -26t-1.5 -51q-1 -5 -1 -9v-6v-22q0 -10 -4 -33.5t-9 -63.5
q-5 -29 -7.5 -53t-3.5 -43v-4v-3q0 -31 28 -44q13 -5 30 -9t38 -8q18 -2 34.5 -3.5t34.5 -3.5q16 -2 24.5 -3t11.5 -1q24 0 48 24q23 21 23 46z" />
    <glyph glyph-name="backslash" unicode="\" horiz-adv-x="536" 
d="M541 73q0 28 -212 378q-14 21 -24 34.5t-18 23.5q-28 38 -49.5 67t-35.5 48q-6 8 -17 26t-28 46q-27 45 -48 69q-18 20 -26 20q-74 0 -74 -67q0 -24 11 -41q19 -28 33.5 -49.5t25.5 -37.5q46 -66 81 -114.5t58 -80.5q35 -49 55 -82.5t29 -49.5q24 -46 45 -84.5t42 -71.5
q16 -25 25 -39.5t11 -19.5q27 -52 45 -52t45 29q26 29 26 48z" />
    <glyph glyph-name="bracketright" unicode="]" horiz-adv-x="336" 
d="M346 710q0 41 -17.5 54t-60.5 13q-15 0 -41.5 2t-65.5 5l-66 8q-11 0 -17.5 0.5t-8.5 0.5q-10 0 -34 -18q0 -35 12.5 -56t41.5 -29q12 -4 56 -7q38 0 52 -7q14 -6 14 -17q0 -6 -9 -34q-5 -14 -7.5 -24t-3.5 -15l-10 -77q-6 -53 -6 -73q0 -99 2 -162.5t8 -96.5l1.5 -16.5
t0.5 -6.5q0 -22 -26 -27q-32 -5 -55.5 -8.5t-39.5 -5.5q-11 -3 -22.5 -13.5t-11.5 -19.5q0 -29 20 -55q21 -25 52 -25q-2 0 15.5 3t54.5 8l59 8q43 7 52 16q19 18 19 29q0 14 -1 15q-8 66 -13 113.5t-10 79.5q-1 3 -1 9v24q-3 58 -3 81q0 43 4.5 81.5t12.5 76.5q3 17 30 86
q12 30 17.5 50t5.5 30z" />
    <glyph glyph-name="asciicircum" unicode="^" horiz-adv-x="610" 
d="M559 810q-9 14 -22 19t-27 14q-18 12 -27 16t-17.5 6t-21 5.5t-36.5 14.5q-24 12 -56 25t-59 15q-4 1 -8 1h-6q-20 0 -34.5 -9.5t-21.5 -35.5q-2 -5 -4 -7.5t-5.5 -4.5t-9 -5t-14.5 -9q-20 -12 -30 -17t-17.5 -8t-16.5 -7.5t-26 -15.5t-29 -29t-12 -39q0 -14 9 -27
q20 -32 55 -32q24 0 46 16q21 14 34.5 23.5t25.5 18t25 18t33 23.5q30 -2 51 -6.5t40 -12t39 -17.5l46 -23q12 -6 22.5 -9.5t21.5 -3.5q19 0 41 11q13 7 18.5 19.5t5.5 26.5q0 23 -13 46z" />
    <glyph glyph-name="underscore" unicode="_" horiz-adv-x="476" 
d="M463 -43q0 46 -62 55q-2 1 -7 1h-12l-141 -12q-35 -3 -52.5 -4l-17.5 -1h-126q-9 0 -21 -12q-12 -15 -12 -23q0 -45 24.5 -69t69.5 -24h69q8 0 18 0.5t23 0.5q57 4 102.5 7t80.5 7q24 1 27 3q16 3 28 28q9 24 9 43z" />
    <glyph glyph-name="grave" unicode="`" horiz-adv-x="210" 
d="M202 511q0 42 -58 145l-38 73q-32 51 -62 51q-21 0 -36.5 -15.5t-15.5 -36.5q0 -7 2 -15t7 -17q15 -26 27 -45t22 -32l-1 1q3 -7 7 -13.5t7 -12.5l7.5 -16.5l7.5 -16.5q14 -27 25 -45t19 -28q15 -17 40 -17q40 0 40 40z" />
    <glyph glyph-name="a" unicode="a" horiz-adv-x="430" 
d="M445 45q0 16 -1.5 32.5t-6.5 35.5l-3 15q-3 13 -5 25.5t-6 24.5q-5 20 -9 46t-6 44q-1 8 -1 11t-1 9q0 10 3 14q7 13 12 19h-1l5 5v-1q6 16 6 38v6q-6 22 -31 32h1q-14 8 -22 25h1q-2 8 -3 13q-2 11 -4.5 24t-5.5 29l-35 187q-2 8 -3 15t-3 14q-4 19 -6 30.5t-4 18.5
q-14 41 -51 41q-9 0 -21 -6q-17 -7 -18 -12q-3 -7 -5.5 -12.5t-4.5 -10.5q-5 -15 -9 -23q-18 -43 -31 -80.5t-22 -70.5q-14 -51 -26.5 -94t-23.5 -79q-16 -52 -29 -97.5t-21 -85.5q-3 -11 -6 -21.5t-6 -21.5q-2 -11 -4.5 -21.5t-5.5 -21.5q-16 -54 -16 -82q0 -22 16 -38
q12 -13 35 -13q28 0 35 16q8 20 9.5 26.5t3.5 11.5q0 2 0.5 3t0.5 2l23 89q7 36 12 45q3 11 7.5 16.5t10.5 9.5h-2q2 1 4 1.5t5 1.5q5 2 11 3.5t13 4.5l37 18h-1q5 2 9.5 3.5t8.5 3.5q26 11 43 14q2 -6 9 -12h-3q4 -15 5.5 -25.5t3.5 -18.5q0 -2 0.5 -3t0.5 -3
q5 -24 7.5 -44t5.5 -37q3 -22 6 -35q5 -29 7.5 -45t3.5 -20q9 -32 60 -32q42 0 42 43zM275 398q-8 -14 -24 -20l-35 -11h-12q-2 4 -2 8v8q0 6 21 90q1 3 2 6.5t2 7.5q6 25 11.5 43.5t10.5 29.5q2 -10 4.5 -28t6.5 -44q9 -48 12 -74q1 -4 1.5 -7.5t1.5 -8.5z" />
    <glyph glyph-name="b" unicode="b" horiz-adv-x="472" 
d="M493 265q0 19 -5 42t-17 51q-8 22 -19.5 42t-26.5 37h1q-25 31 -25 44q0 5 11 25h-1q11 14 15 22t8 17q5 26 7.5 48t2.5 43q0 49 -21 79q-28 43 -77 62h1q-8 5 -62 15q-25 5 -40.5 7t-24.5 2q-61 0 -98 -7.5t-54 -33.5q-6 -8 -11 -17t-8 -21q-1 -5 -1 -9v-7q0 -13 2 -17
q8 -10 8 -27q-3 -48 -3 -100v-115q0 -4 0.5 -9t0.5 -10q1 -6 1 -13v-12v-179q0 -13 0.5 -20t0.5 -12t0.5 -9t0.5 -10q0 -39 -14 -51q-22 -18 -22 -37q0 -39 62 -63h-1q43 -18 84 -18q24 0 48 5t53 13q88 30 145 78q41 36 60 77t19 88zM358 210q-34 -39 -65 -53
q-13 -7 -27 -11t-33 -9q-35 -9 -54 -9h-4l-8 11h2q-4 33 -5.5 68.5t-1.5 77.5v16q0 5 -0.5 10t-0.5 8q0 24 3 35q10 2 15 7h-2l17 8h-2q9 2 18 4.5t14 4.5q6 2 8 2.5t4 1.5h-1q10 3 15.5 5.5t14.5 7.5q8 3 16 8l25.5 15l8.5 5l51 -73q20 -30 20 -66q0 -42 -28 -74zM341 630
q0 -39 -55 -95q-19 -23 -53 -37q-38 -16 -61 -16q-2 0 -9 10h2q0 4 -0.5 10.5t-1.5 16.5q0 5 -0.5 8.5t-0.5 7.5v11q0 122 13 138h-2q12 9 16 9h1q12 1 18.5 2t11 1.5t8.5 1t10 1.5q103 0 103 -69z" />
    <glyph glyph-name="c" unicode="c" horiz-adv-x="465" 
d="M482 241q0 25 -14 39.5t-36 14.5q-26 0 -44 -20l-13 -13t-11 -13q-11 -11 -21.5 -23t-22.5 -23h1q-27 -23 -45 -38t-28 -20q-37 -26 -66 -26q-31 0 -50 33h1q-18 30 -18 85q0 52 19 103q0 1 8.5 23t27.5 66q34 89 71 150q56 92 92 92q8 0 14 -28q1 -9 2 -17t3 -16
q1 -5 2 -10.5t2 -10.5q7 -28 34 -28q41 0 41 82q0 73 -14 108q-17 50 -72 50q-50 0 -84 -33h1q-11 -9 -21 -20.5t-21 -26.5q-13 -17 -22 -29.5t-14 -21.5q-38 -64 -62 -108.5t-35 -71.5q-18 -47 -30 -78q-3 -8 -6.5 -15.5t-5.5 -14.5q-6 -17 -10.5 -34.5t-9.5 -39.5
q-6 -47 -6 -79t2.5 -57.5t9.5 -43.5q7 -19 19 -39t32 -41q37 -42 117 -42q13 0 34 6t53 18q14 8 24 14t17 14h-1q156 112 156 183z" />
    <glyph glyph-name="d" unicode="d" horiz-adv-x="443" 
d="M461 447q0 121 -20 167q-12 28 -25 48.5t-25 35.5q-14 16 -30 28t-34 22q-9 4 -20 8t-19 7t-17 7t-20 9q-8 4 -27 6q-8 2 -13 2.5t-7 2.5q-15 7 -34.5 11t-43.5 4q-61 0 -61 -46v-17v-18q0 -9 1 -18q0 -7 0.5 -12t0.5 -9q0 -14 -0.5 -31.5t-1.5 -40.5q0 -3 -0.5 -6
t-0.5 -5q-2 -25 -2 -39t-1 -22q0 -5 -0.5 -8.5t-0.5 -8.5q-2 -25 -3 -45t-3 -35q-2 -23 -4.5 -39t-4.5 -27q-2 -39 -4.5 -71t-4.5 -58q-2 -18 -3 -33.5t-2 -28.5l-6 -66q-1 -8 -1.5 -14t-0.5 -10v-6q0 -49 18 -69t59 -20q24 0 45 17l20 15q5 3 9 6t9 7h-1q31 18 52 31t33 23
q194 149 194 346zM352 445q-1 -4 -1 -7t-1 -6q-3 -23 -6 -33q-21 -77 -74 -139q-25 -29 -52 -51t-56 -39q-21 -12 -24 -12q-5 0 -5 26v7q0 6 1 14q1 16 3 45q1 15 2 27t2 22q1 6 1 10v10q3 13 3 21q2 31 3.5 53.5t2.5 39.5q1 7 1 14v14q2 22 3.5 43.5t4.5 44.5q1 4 1 7
q0 4 1 8q3 24 3 30h-1q3 7 3.5 10.5t0.5 5.5q1 5 1.5 11t0.5 11q0 3 0.5 5.5t0.5 5.5v2q2 10 2 16q0 7 2 12h3q77 0 123 -35q54 -44 54 -164q0 -4 -3 -29z" />
    <glyph glyph-name="e" unicode="e" horiz-adv-x="489" 
d="M503 113v10q0 20 -9.5 38t-27.5 29q-37 -8 -62 -8h-8q-11 -2 -21 -2.5t-20 -1.5q-8 -1 -17 -1t-18 -1q-12 -3 -24 -6.5t-25 -7.5q-21 -6 -41.5 -11.5t-39.5 -8.5q-2 0 -3.5 -0.5t-3.5 -0.5q-4 0 -7.5 -0.5t-7.5 -0.5t-8 0.5t-10 1.5h1q-8 3 -12.5 12t-4.5 20q0 3 0.5 5.5
t1.5 5.5h-1q2 4 2 8v24q0 20 1 41t3 41q1 5 1 10t1 10q0 16 3.5 33t14.5 19q6 1 11.5 2t11.5 3t11.5 3t12.5 3t13 3.5t13 3.5q16 5 31.5 8.5t30.5 3.5q4 0 7 -0.5t7 -0.5q12 0 25 -0.5t27 -2.5h4q16 0 29.5 8t14.5 25q1 4 1 12q0 17 -10.5 32t-25.5 23q-6 2 -11 3t-12 2
q-14 5 -28.5 6.5t-31.5 1.5q-26 0 -50.5 -4t-49.5 -9q-8 -2 -15.5 -3.5t-15.5 -3.5l-4 3h3q-3 3 -3 17v14h-1q2 4 2 7q0 1 -2 5h1q0 11 0.5 20.5t1.5 20.5v3l2 18l1 8l2 8h-1l4 7q7 0 10.5 2.5t7.5 5.5h-1q14 8 26 11.5t26 5.5q13 4 25 5.5t25 2.5q18 5 34 6t31 1h7
q20 0 40.5 2.5t43.5 16.5q6 15 6 26q0 24 -13.5 50.5t-32.5 40.5q-10 7 -29 7q-2 0 -7.5 -1t-11.5 -2q-4 -2 -8 -2h-8q-11 0 -21 -3h2q-25 -2 -49.5 -7t-49.5 -14q-16 -5 -30.5 -9t-27.5 -7q-7 -3 -12.5 -4.5t-10.5 -3.5h1q-19 -5 -34 -13h-1q-23 0 -42.5 -14t-19.5 -41v-33
q0 -7 0.5 -13.5t0.5 -13.5v-124q1 -7 1 -14v-13v-27q0 -14 -0.5 -26.5t-1.5 -25.5q-2 -29 -4.5 -58.5t-7.5 -59.5q-4 -29 -6 -58l-4 -58q-1 -7 -1.5 -14t-0.5 -14q0 -22 5 -43.5t15.5 -39t26.5 -29t37 -13.5q7 -1 13.5 -1.5t14.5 -0.5q25 0 43 6q53 17 104.5 29t103.5 12h15
q17 0 34 3q5 1 12 2t14 1q18 6 31 20.5t15 35.5z" />
    <glyph glyph-name="f" unicode="f" horiz-adv-x="406" 
d="M423 752q0 53 -51 53q-32 0 -78 -8t-108 -27q-141 -42 -172 -89q-4 -7 -4 -35l6 -25q8 -8 22 -9q14 -9 14 -35t-0.5 -47t-0.5 -38v-41q-6 -25 -18 -41q-8 -26 -8 -41q0 -11 10 -31h-1q0 -3 0.5 -5.5t0.5 -5.5q2 -28 4 -36q1 -5 1 -13v-17q-3 -35 -3 -50v-136v-15t1 -11
q-1 -5 -1.5 -8.5t-0.5 -7.5q0 -17 18 -25q19 -9 39 -9q16 0 16 1h-6q19 7 24 51q2 26 4 56t4 68q2 60 3 91t1 33q0 29 14 35q27 12 85 24q35 7 58 11.5t34 9.5l44 14q20 14 20 43q0 52 -59 52q-3 0 -16 -1.5t-34 -6.5q-27 -5 -44.5 -8t-30.5 -6h1l-10 -2l-10 -2
q-20 -6 -20 -7v-1l-22 1h10v75q0 48 3 70t12 31h-1q16 13 42 21l16 4l16 4q7 4 18 5q41 13 70 21.5t50 13.5q21 7 29.5 18t8.5 34z" />
    <glyph glyph-name="g" unicode="g" horiz-adv-x="560" 
d="M557 415q0 54 -13 76q-14 27 -60 27q-9 0 -25 -3.5t-37 -11.5h1q-33 -11 -59 -22.5t-48 -23.5q-78 -46 -78 -90q0 -24 12 -43q13 -21 37 -21q8 0 23.5 5.5t36.5 18.5h-1q8 4 15.5 7.5t14.5 7.5q8 4 15.5 7t15.5 8l24 13q2 0 3.5 -5.5t1.5 -11.5q0 -21 -38 -79
q-94 -136 -214 -136q-23 0 -45 43q-8 17 -12.5 38t-4.5 46q0 45 26 123q21 69 100 171q83 110 121 110q11 0 29 -22q8 -11 14 -16.5t14 -5.5q29 0 29 58q0 25 -3 44t-11 33q-17 36 -56 36q-24 0 -45 -8t-39.5 -20t-35.5 -27.5t-32 -30.5h1q-9 -8 -12.5 -11t-5.5 -5
q-107 -109 -164 -275q-17 -47 -24.5 -85.5t-7.5 -68.5q0 -42 6 -77.5t21 -67.5q28 -66 84 -97q14 -8 28 -11t29 -3q5 0 13 0.5t21 2.5h-1q22 3 34.5 4.5t16.5 2.5q6 2 13 5.5t12 6.5q8 5 13.5 6t9.5 3q3 1 8.5 2.5t7.5 2.5q14 8 30.5 21t37.5 30q85 77 122 158q8 17 13 36
t10 41q4 23 6 43.5t2 40.5zM299 32q-1 -1 -2 -1h2l0.5 1t-0.5 0z" />
    <glyph glyph-name="h" unicode="h" horiz-adv-x="397" 
d="M413 697q0 5 0.5 9.5t0.5 9.5q0 84 -59 84q-14 0 -21 -4q-9 -5 -13.5 -10t-10.5 -13q-8 -11 -11 -17.5t-4 -9.5l-6 -97v-21q-1 -4 -1 -13v-62q-1 -32 -8 -45q-4 -10 -41 -15q-9 -2 -17.5 -2.5t-16.5 -2.5q-15 -2 -26.5 -4t-18.5 -2q-10 0 -14 4q-5 2 -5 22l9 177v10
q0 13 -2 25t-8 26q-12 34 -44 34q-57 0 -64 -150q0 -4 -0.5 -9t-0.5 -11q-1 -23 -2.5 -61.5t-3.5 -95.5v-72q-2 -81 -6 -163q-2 -20 -3 -37t-1 -33q0 -32 5 -60q-3 -12 -3 -22q0 -8 2 -15.5t5 -15.5q25 -29 54 -29q48 0 54 111q1 10 1 21v25v21q0 12 -1 26q0 14 -0.5 25
t-0.5 22q0 14 0.5 26t1.5 21q3 50 12 52q13 3 20 3q9 2 15 2.5t11 1.5q2 0 3 0.5t3 0.5l77 10q7 -11 7 -50v-11l-1 -23h1q-2 -4 -2 -6v-48q0 -10 -1 -14l-1 -43v-14q0 -11 -1 -14q0 -2 -0.5 -3.5t-0.5 -3.5v-19q-1 -16 -1.5 -29t-0.5 -24q0 -8 0.5 -14t0.5 -12v-15
q5 -18 21 -30q11 -10 34 -10q32 0 43 32q2 5 3 9t2 7l1.5 7.5l0.5 2.5z" />
    <glyph glyph-name="i" unicode="i" horiz-adv-x="466" 
d="M478 721q0 20 -22 59l-57 6q-33 -3 -57 -6q-53 -5 -63 -7q-11 -2 -19 -3l-16 -2l-26 -3q-12 -1 -22.5 -2.5t-17.5 -4.5h1q-11 -2 -22.5 -5t-22.5 -6q-5 -2 -9 -2.5t-8 -1.5q-42 -9 -63.5 -23.5t-21.5 -41.5q0 -61 71 -61q2 0 8.5 1t16.5 3q17 3 29.5 6t21.5 5q2 0 3 0.5
t2 0.5q2 1 4 1h9q8 0 22 2q-1 -6 -1 -13v-13v-27q0 -75 -9 -171l-15 -171q-1 -6 -1.5 -11.5t-0.5 -11.5q-1 -8 -1 -17q0 -8 -2 -17q-4 -41 -13 -50q-13 -13 -27 -17q-3 -1 -11.5 -3t-22.5 -5q-15 -4 -24.5 -6t-13.5 -4h2q-17 -5 -27 -7.5t-15 -5.5q-25 -17 -25 -42v-10
q0 -37 26 -45h1q2 0 4 -1q10 -2 17 -4t15 -2q13 0 27.5 3t43.5 10q19 5 35.5 8t32.5 7q66 15 105.5 23.5t47.5 9.5q29 5 50 10.5t30 8.5h-1q4 1 7.5 1.5t8.5 0.5q12 31 12 52q0 32 -32 59q-23 -4 -41.5 -7.5t-27.5 -5.5q-4 -1 -8 -1.5t-2 -0.5q-5 -1 -11.5 -1.5t-14.5 -0.5
q-29 0 -36 -6q-2 2 -2.5 7t-0.5 19v7l24 315h-1q2 5 2 6v2v7q0 110 15 137h-2q11 1 25.5 4.5t36.5 9.5q4 1 7 2t7 2q66 0 66 51z" />
    <glyph glyph-name="j" unicode="j" horiz-adv-x="578" 
d="M589 739q0 62 -96 62h-11h-5t-7 -2h-12l-134 -3q-10 -2 -18 -2.5t-15 -1.5q-3 0 -5 -0.5t-4 -0.5q-12 -2 -21 -2t-17 -1q-4 0 -7.5 -0.5t-6.5 -0.5q-14 -4 -23.5 -7t-13.5 -5h2q-51 -14 -66 -24q-34 -25 -34 -71q0 -20 19 -35h-1q13 -11 37 -11q8 0 73 14q24 5 47.5 8
t47.5 3q19 0 30 -24q7 -15 20 -119q6 -48 8.5 -79t2.5 -49q0 -38 -1 -66.5t-3 -47.5q-5 -67 -25.5 -95t-61.5 -28q-29 0 -69 24q-17 10 -33.5 24t-32.5 31h1q-11 14 -21 28t-22 28q-26 33 -58 33q-11 0 -19.5 -6t-12.5 -18q-10 -21 -10 -42q0 -63 97 -146q77 -68 138 -89h-1
q21 -8 36.5 -11t26.5 -3q44 0 85 23q46 29 64 75q6 15 7 19h-1q2 5 5 14l3 9q0 7 2 17t6 25q12 76 12 205v7q0 5 -1 13q-2 16 -3 41q-2 11 -3 21.5t-2 21.5q-2 11 -2.5 22t-2.5 22q-6 52 -6 88v20q0 32 33 32h15q5 0 15 -2l12.5 -2.5t8.5 -2.5q11 0 13 1.5t3 3.5h-2
q20 25 20 62z" />
    <glyph glyph-name="k" unicode="k" horiz-adv-x="519" 
d="M486 40q6 19 6 32q0 20 -8 41.5t-18 42.5q-3 7 -5 12.5t-5 12.5q-34 43 -61 91t-57 105l-4 10l-4 10q-5 12 -9.5 22.5t-4.5 27.5q1 11 3.5 15t5.5 9h-1q2 2 2.5 4t2.5 4h-1l51 53q32 35 63 69.5t60 72.5v1h1v-1v0q1 0 1 1h-1q11 14 20.5 29.5t9.5 32.5q0 2 0.5 4.5
t0.5 4.5q0 19 -9 33q-1 1 -3.5 4t-3.5 4h1q-5 9 -12 17.5t-22 8.5h-3q-14 -3 -24 -9t-18 -14q-19 -20 -37 -40.5t-35 -41.5h1q-35 -42 -70.5 -79t-73.5 -75l-13 -13l-10 -10l-10 -10h1q-11 -9 -18 -14t-15 -7q-3 0 -5.5 8t-2.5 19v4q2 35 6 70t10 69h-1q2 5 2 6v3v6q0 4 2 9
l2 18v4q0 16 -6.5 31.5t-16.5 28t-23.5 20t-26.5 7.5h-3q-29 0 -39 -25q-9 -26 -12 -55t-4 -58l-2 -40t-4 -38q0 -163 -12 -331q-1 -10 -1 -21v-21q0 -15 -1 -31t-5 -35v-56q0 -30 6 -55q1 -5 6 -10t12 -11l3 -3h-1q3 -4 10 -6.5t15 -4.5h-1l2 -1q1 0 3 -1q1 0 4 0.5t4 0.5
q10 2 16.5 4.5t11.5 7.5h-1l1 1q1 0 2 1l11 11l11 11q3 8 4 14.5t3 14.5q1 5 1.5 10.5t2.5 11.5q1 6 1.5 12.5t0.5 13.5v13q0 9 1 13q0 26 0.5 51t1.5 50h-1q2 5 2 7v4v32q2 24 13 40.5t24 18.5q17 -11 34 -35.5t34 -51.5q3 -7 7.5 -13.5t8.5 -12.5h-1q10 -20 20.5 -38
t21.5 -37l38 -66q3 -5 6.5 -11t6.5 -13q14 -25 30 -48t37 -23q6 0 9.5 1t5.5 3h1q16 0 29 12t13 30h-1z" />
    <glyph glyph-name="l" unicode="l" horiz-adv-x="451" 
d="M469 201q0 24 -12 48q-10 25 -38 25q-16 0 -69 -34q-24 -14 -42 -24q-11 -6 -19.5 -10.5t-15.5 -9.5h2q-17 -8 -32.5 -16t-32.5 -16q-36 -16 -63 -16l-1.5 7.5t-4.5 23.5l-2 14l63 522h-1l1 4q0 31 -17 58q-17 26 -48 26q-30 0 -39 -25h1q-11 -17 -16 -50q-1 -3 -1 -6
q0 -2 -1 -5q-2 -11 -3 -22t-3 -22q-4 -23 -7 -44t-6 -39q-5 -27 -8 -49.5t-7 -39.5q-15 -117 -22 -199t-7 -139q0 -74 25 -115q26 -41 89 -41q23 0 80 18q14 6 27 12t25 12q12 8 28 16q5 3 11.5 6.5t12.5 7.5q16 9 29 17t24 15q10 6 20.5 12t16.5 10q8 6 18 11.5t22 11.5
q23 18 23 45z" />
    <glyph glyph-name="m" unicode="m" horiz-adv-x="494" 
d="M503 63q0 3 -3 32q-2 17 -2 34q0 18 -1 35t-1.5 34.5t-1.5 35.5v50q0 25 -1 49q0 24 -0.5 48t-0.5 48q-1 60 -2 107t-5 89q-1 7 -3.5 19.5t-5.5 26t-6 25.5t-6 18q-6 12 -28 34q-18 19 -37 19q-25 0 -40 -37q-9 -29 -13.5 -46t-8.5 -32q-57 -225 -67 -225v2q0 3 -1 10.5
t-4 21.5l-8 45q-3 11 -5.5 21.5t-4.5 20.5q-12 54 -21 84q-2 8 -4 15l-4 14q-9 35 -15.5 56.5t-11.5 33.5q-25 46 -72 46q-24 0 -33 -28l-9 -48q-6 -42 -10.5 -72.5t-6.5 -52.5q-1 -13 -1.5 -23.5t-1.5 -20.5q-2 -22 -3 -35q-9 -78 -15.5 -162t-13.5 -181q0 -13 -3 -44
q0 -3 -0.5 -6t-0.5 -6q-1 -10 -2 -18t-1 -15q0 -30 8 -56q10 -31 41 -31q2 0 8 1t14 6q21 15 22 16q4 33 5.5 60t2.5 53q3 29 5 62t5 74q0 3 0.5 6t0.5 7l4 90q4 72 9 72q-3 0 18 -69q6 -21 12 -39h-1q10 -31 16 -52t14 -38q24 -69 58 -69q23 0 32 23q20 40 24 55
q4 8 7 16.5t7 16.5q10 26 20 49.5t18 43.5q9 23 14 36.5t8 20.5q1 2 1.5 3.5l0.5 1.5l3 6q0 -5 0.5 -14.5t0.5 -24.5v-20v-24q0 -12 1 -23q0 -8 0.5 -14.5t0.5 -10.5v-158q0 -7 -1 -9v-7q0 -132 62 -132q20 0 32 14t12 36z" />
    <glyph glyph-name="n" unicode="n" horiz-adv-x="471" 
d="M475 256q0 22 -0.5 36t-0.5 31t-0.5 43t-1.5 72q0 14 -0.5 24.5t-1.5 16.5q0 17 -0.5 31.5t-0.5 25.5v27q-2 60 -5 101.5t-7 68.5q-5 22 -27 45h1q-18 24 -43 24q-23 0 -34.5 -14.5t-11.5 -37.5v-9l16 -276v-14q0 -13 -0.5 -35t-1.5 -54q-3 -83 -6 -98q-1 -4 -1 -8v-1
q-6 6 -56 109q-7 14 -13.5 26.5t-12.5 25.5q-11 20 -20 39.5t-19 39.5q-25 47 -60 166q-11 39 -17.5 62t-14.5 36q-18 32 -58 32q-45 0 -51 -66v-5q0 -2 -1 -6q0 -2 -0.5 -4t-0.5 -4t-0.5 -3t-0.5 -3q-1 -5 -1 -9v-6v-93q0 -6 -0.5 -17.5t-1.5 -27.5l-2 -90q-2 -20 -2 -31
v-12v-24q0 -16 2 -44q2 -42 3 -75t3 -59q0 -21 0.5 -42t1.5 -42q-2 -14 -2 -25v-21v-18q0 -7 2 -13q4 -17 31 -41q20 -2 32 -3t15 -1q24 0 32 24q3 8 5.5 16t2.5 16q0 3 -0.5 6t-0.5 6l-6 105l-2 54v108h-1q1 5 1 6v3v30q0 14 -0.5 23t-2.5 13q3 -4 7.5 -11.5t12.5 -19.5
q2 -5 2.5 -6.5t1.5 -3.5q0 -2 1 -2.5t1 -1.5h-2q1 -2 1.5 -3.5t1.5 -3.5l24 -48t16 -36l17 -27q3 -5 5 -8.5t4 -5.5h-1q5 -11 9 -20.5t8 -17.5t6.5 -14.5t4.5 -11.5q13 -22 31.5 -47.5t44.5 -57.5q59 -68 96 -68q27 0 35 23q7 15 11 113q0 9 0.5 17.5t0.5 16.5q1 26 2 47
t1 37z" />
    <glyph glyph-name="o" unicode="o" horiz-adv-x="592" 
d="M592 464q0 14 -1.5 29.5t-5.5 32.5q1 -1 1 -2v0v1q0 3 -2.5 14.5t-4.5 17.5q-2 8 -3 14.5t-3 14.5q-4 22 -9.5 41t-13.5 38q-24 58 -73 101q-49 42 -100 43q1 -1 -8 -2t-15 -2q-10 -2 -12 -2q-65 0 -157 -88q-32 -31 -62.5 -84.5t-63.5 -136.5q-11 -27 -17 -53t-10 -52
t-5.5 -43.5t-1.5 -25.5q-1 -8 -1.5 -16.5t-0.5 -18.5q0 -17 2 -37t7 -44q21 -74 39 -86h-3q4 -6 10.5 -14t15.5 -19q9 -8 18.5 -15t20.5 -15q5 -3 14 -8t14 -7h-1q11 -7 26 -12q51 -17 71 -17q72 0 123 27l24 16h-1q8 5 11.5 7.5t6.5 4.5h-1q22 12 36.5 24.5t25.5 26.5
q53 62 82 157q15 48 21.5 95t6.5 95zM481 441q0 -90 -38 -169q-42 -87 -93 -115q-29 -20 -73 -20q-6 0 -29 5h1q-58 18 -84 56q-29 39 -29 130q0 34 9.5 69.5t28.5 77.5q21 45 43.5 76.5t47.5 58.5q57 58 97 58q49 0 87 -74q32 -67 32 -153z" />
    <glyph glyph-name="p" unicode="p" horiz-adv-x="413" 
d="M428 611q0 34 -3 57q-2 11 -7.5 23t-14.5 26h1q-21 45 -101 67q-26 8 -55 11.5t-61 3.5q-48 0 -97 -18q-73 -28 -73 -71q0 -17 11 -33h-1q7 -12 10.5 -21t5.5 -18t2.5 -20.5t0.5 -27.5v-36q0 -7 -0.5 -14.5t-0.5 -16.5q-2 -17 -2.5 -28.5t-0.5 -19.5l-7 -390v-8
q0 -73 54 -73q35 0 41 46q3 40 3 74q0 8 3 40q2 11 2.5 21t0.5 18q0 22 1.5 34.5t3.5 18.5q2 7 10.5 13.5t20.5 13.5q6 2 11 4.5t10 4.5t10.5 4.5t11.5 5.5q19 10 38.5 22t36.5 28h-1q4 3 7 5.5t6 4.5q6 5 11.5 9t6.5 5h-1q10 11 15.5 17t8.5 10q36 44 55 95q27 64 27 113z
M323 604q0 -62 -56 -124q-24 -25 -49 -45t-51 -34q-17 -11 -19 -11q-6 0 -6 36q0 98 1.5 152t6.5 66q14 26 88 26q85 0 85 -66z" />
    <glyph glyph-name="q" unicode="q" horiz-adv-x="596" 
d="M489 139q0 12 19 44q2 5 4.5 8.5t4.5 8.5q4 8 9 17t9 15q20 38 33.5 74t20.5 76q16 70 16 102v23q0 27 -4 46q-3 14 -4.5 25t-3.5 19q-2 11 -2.5 14t-1.5 6q-8 22 -14.5 36.5t-11.5 23.5q-14 29 -32.5 52t-45.5 41q-45 36 -100 36q-42 0 -83 -19q-49 -19 -75 -44
q-42 -38 -77.5 -88.5t-64.5 -111.5q-65 -140 -65 -267q0 -50 6.5 -89t20.5 -68q29 -54 95 -91q12 -7 22 -11t18 -7h-2l35 -7t21 -3q74 0 157 46q2 -5 10 -17t22 -32q33 -52 64 -52q20 0 33 16t13 38q0 33 -24 81q-11 23 -16.5 37t-5.5 22zM496 508q0 -30 -2.5 -57.5
t-10.5 -53.5q-2 -11 -7 -24t-13 -30q-18 -40 -19 -40l-0.5 7.5l-1.5 22.5q-1 7 -1.5 12.5t-1.5 10.5q-3 22 -8 35q-12 31 -49 31h-10q-42 0 -42 -82q0 -10 0.5 -23.5t2.5 -33.5q2 -19 2.5 -32t0.5 -23v-16t-1 -12q-5 -31 -43 -46q-36 -16 -58 -16q-41 0 -72 30
q-35 32 -35 100q0 75 57 192q56 115 99 155q60 54 122 54q45 0 68 -44t23 -117z" />
    <glyph glyph-name="r" unicode="r" horiz-adv-x="453" 
d="M466 642v3q0 45 -45 95q-38 42 -82 51h1q-15 5 -34 6.5t-44 1.5q-111 0 -192 -41l-11 -6q-15 -7 -17 -9h1q-13 -9 -18 -23t-5 -33q0 -11 2 -22t9 -23q2 -4 4 -10q5 -12 7.5 -19t4.5 -12h-1q6 -22 9.5 -72t3.5 -129q0 -83 -1.5 -139t-3.5 -86q0 -15 -9 -88
q-1 -11 -1.5 -21.5t-0.5 -18.5q0 -34 19 -46q8 -5 15.5 -7.5t16.5 -2.5q5 0 8 0.5t5 1.5q20 6 32.5 19t14.5 21q1 6 2 11l2 10q1 3 1.5 9t1.5 8q4 23 6 43t4 44q0 3 0.5 6t0.5 6q2 23 3 35.5t3 20.5h-1q1 4 1 15q0 5 0.5 12t1.5 16q1 5 1 8v7q2 22 3 25q6 15 13 15
q11 0 25 -7q15 -12 39 -70q3 -5 8 -20t13 -38q2 -7 4.5 -14t4.5 -15q6 -16 11 -29t9 -21l1 -2q1 0 1.5 -1t1 -5t2.5 -13q2 -4 4 -11t3 -9q22 -69 70 -69q38 6 49 24l4 28h-5q8 5 8 11q0 14 -7 46.5t-22 82.5q-23 51 -38.5 84.5t-25.5 51.5q-6 13 -10 21t-7 15q-2 3 -2 4
q0 2 -2 9q0 7 32 50q3 4 8 10.5t3 4.5q9 13 16.5 23.5t15.5 24t17.5 31.5t23.5 47zM346 631q-9 -101 -110 -147q-46 -28 -57 -28q-17 0 -17 124q0 53 5 65q6 14 48 25q8 2 19 4.5t26 6.5q6 2 13.5 3.5t15.5 3.5q45 0 57 -57z" />
    <glyph glyph-name="s" unicode="s" horiz-adv-x="463" 
d="M189 7q77 0 163 84q90 89 111 174q4 12 5 30.5t1 43.5q0 116 -50 161q-36 33 -133 33q-21 0 -60 -6q-20 -2 -34 -3.5t-25 -1.5q-19 0 -19 22q0 31 42 67q34 30 63 46q8 5 13.5 8t7.5 5q6 3 15.5 9t11.5 6v-1q14 8 23.5 10.5t17.5 2.5q3 0 16 -28h-1q6 -25 29 -25q6 0 8 1
q14 7 15 7q12 0 21 11.5t9 26.5q0 29 -31 70q-29 36 -59 45h-8q-2 0 -4 0.5t-4 0.5h-14q-44 -2 -76 -17q-11 -5 -29 -16.5t-44 -28.5q-14 -11 -24 -18q-5 -3 -9.5 -5.5l-4.5 -2.5l-20 -21q-8 -8 -14.5 -15t-11.5 -12q-17 -17 -29 -31t-20 -29q-26 -49 -26 -79q0 -29 15 -66
q17 -39 68 -59q27 -9 79 -9h22q16 0 33 1t33 1.5t24 0.5q25 0 49 -11q27 -14 27 -51q0 -67 -91 -153h1q-5 -3 -6 -4l-2 -2h1q-19 -15 -22 -18h1q-23 -17 -54 -17q-4 0 -28 10q-8 5 -15 8.5t-13 7.5h2l-27 28q-14 15 -36 15q-19 0 -34.5 -16t-15.5 -37q0 -56 62 -110
q50 -43 105 -43zM301 684q-1 0 -1 -1h-1h1z" />
    <glyph glyph-name="t" unicode="t" horiz-adv-x="529" 
d="M516 693q1 5 1 15q0 16 -6 31t-15.5 26t-22 18t-25.5 7h-13t-12 1h1q-5 1 -11 1h-11h-8q-13 0 -21 -1.5t-17 -3.5q-8 -2 -16.5 -3t-16.5 -1h-10q-4 0 -9 1q-17 -2 -32 -3t-30 -1q-13 0 -26 0.5t-27 1.5q-15 1 -30.5 1.5t-32.5 0.5q-5 -1 -10.5 -2t-10.5 -2
q-14 -2 -28.5 -4.5t-31.5 -11.5q-15 -10 -23 -27.5t-8 -39.5v-4q0 -1 -0.5 -2t-0.5 -2q-1 -4 -1 -7v-5q0 -5 4.5 -9.5t12.5 -13.5l1.5 -1.5t7.5 -9.5q11 -2 21.5 -3t18.5 -1h11q16 4 33.5 5t34.5 1h38q4 0 5 -15t1 -33q0 -10 -0.5 -19t-1.5 -17q-2 -44 -3 -84.5t-3 -81.5
q-4 -87 -7 -171.5t-3 -181.5q8 -16 23 -27t31 -12q12 0 23 3t16 14h-3q14 12 16.5 28t2.5 33v22q-3 46 -3 92q0 49 2.5 97.5t5.5 97.5q2 26 3 52l2 52q1 6 1 11v12v38q1 5 1 11v13q0 21 3 42.5t12 30.5h-5l14 3h-1q40 6 67 6h28h17t15 1q3 1 4 1q4 0 13 -3q1 0 3.5 -0.5
t3.5 -0.5q3 0 4.5 -0.5t3.5 -0.5q1 0 1.5 -0.5t1.5 -0.5q7 0 14 5q13 10 13 31z" />
    <glyph glyph-name="u" unicode="u" horiz-adv-x="517" 
d="M518 688q0 81 -49 81q-67 0 -67 -85v-24q0 -8 -3 -36q-1 -5 -1 -11q0 -5 -1 -12v-5q-1 -15 -3 -56.5t-6 -112.5q-3 -54 -8 -96.5t-10 -75.5q-5 -32 -18 -44h1q-11 -7 -18 -11t-13 -7q-117 -61 -163 -61q-27 0 -27 64q0 36 3 79.5t8 94.5q3 23 5.5 45.5t5.5 45.5
q2 20 4.5 40t5.5 40q0 2 0.5 3t0.5 3q2 10 4.5 26t7.5 39q9 43 9 70q0 29 -20 52h1q-18 23 -47 23q-23 0 -35 -25q-4 -15 -6 -26l-4 -22l-2 -10t-1 -10q-11 -78 -20 -151.5t-18 -148.5q-8 -66 -11 -111.5t-3 -76.5q0 -23 1.5 -43.5t3.5 -38.5q7 -33 29 -56q40 -38 114 -38
q20 0 51 9.5t77 27.5q5 2 8.5 3.5t7.5 3.5l10 5t17 9h-1q5 2 9 3t8 3q5 2 13 4q7 -9 15 -21t16 -26q29 -17 46 -17q7 0 12.5 1.5t7.5 4.5h-4q20 12 20 43v11q0 7 -2 21q0 2 -0.5 3t-0.5 3q-3 13 -3 23l2 20q2 13 3.5 34t4.5 51q6 69 11.5 151.5t12.5 182.5q1 9 1 17t1 16
q1 16 1.5 29.5t1.5 24.5q2 21 3 33t1 15z" />
    <glyph glyph-name="v" unicode="v" horiz-adv-x="451" 
d="M466 727q0 77 -43 77q-50 0 -62 -100q-2 -8 -2.5 -16t-2.5 -16q-10 -46 -15 -68q-5 -32 -12.5 -65.5t-17.5 -75.5q-2 -8 -9 -33q-5 -17 -11.5 -43t-15.5 -61q-16 -67 -20 -76q-18 -57 -22 -57q-6 0 -25 94q-5 21 -8.5 40t-7.5 36q-4 16 -7 30.5t-6 28.5q-8 45 -15 75.5
t-13 52.5q-11 57 -22 102.5t-22 82.5q-2 2 -2.5 5t-1.5 5q-1 0 -4 4h1q-9 13 -33 13q-18 0 -34 -20t-16 -44q0 -4 3 -20t11 -45q11 -51 20 -90t16 -71q3 -14 6 -25.5t5 -22.5q9 -46 15.5 -79.5t11.5 -56.5q10 -47 22.5 -94.5t29.5 -95.5q31 -94 74 -94q6 0 11.5 2t13.5 6
q11 5 16 8.5t9 6.5l2 2q6 9 10 15.5t6 8.5q25 46 51 121l3.5 10.5t4.5 15.5q4 17 9.5 38t13.5 48l32 115q23 80 27 103q14 72 20 127.5t6 95.5z" />
    <glyph glyph-name="w" unicode="w" horiz-adv-x="641" 
d="M489 24q40 0 73 88q4 13 11 35.5t17 56.5q2 8 4.5 17.5t5.5 19.5q8 29 13.5 51t10.5 38h-1q1 2 1.5 4.5t1.5 4.5q8 38 12.5 71t8.5 65q5 27 6 58.5t1 69.5q0 193 -69 193q-46 0 -46 -57q0 -10 0.5 -29.5t2.5 -40.5q1 -21 2 -40t1 -29q0 -18 -1.5 -34t-3.5 -30
q-4 -22 -6 -40q-1 -13 -3 -25q-5 -39 -10.5 -73.5t-12.5 -66.5q-24 -108 -37 -108q-2 0 -20 38q-5 12 -10 26t-9 30q-11 48 -17.5 83t-10.5 59q-2 9 -3.5 18.5t-3.5 19.5t-3 19t-3 19q-5 23 -10 41t-10 29q-13 25 -48 25q-12 0 -23 -7.5t-17 -21.5q-6 -16 -10 -30h1
q-2 -4 -2.5 -7.5t-2.5 -7.5q-2 -5 -2.5 -6t-1.5 -4v-5q-15 -42 -25.5 -71.5t-18.5 -51.5t-14 -38t-12 -30q-7 -17 -12.5 -33.5l-11.5 -34.5q-21 -53 -23 -53q-5 0 -8 40l-2 54q-2 8 -2 14q0 7 -1 12q0 2 -0.5 4t-0.5 4l-3 318q-2 8 -2 13v10q-13 64 -57 64q-49 0 -49 -105
q0 -85 2.5 -167.5t9.5 -167.5q10 -121 22 -191t27 -95q10 -14 27 -24.5t32 -10.5q28 0 72 87q14 29 26 57.5t24 57.5q47 125 49 125q-1 0 27 -79q19 -51 34.5 -87.5t26.5 -58.5q39 -79 87 -79z" />
    <glyph glyph-name="x" unicode="x" horiz-adv-x="497" 
d="M512 720q0 21 -10 47q-12 23 -37 23q-48 0 -185 -230q-6 -10 -10 -18t-9 -15t-8 -12.5t-6 -10.5q-8 -13 -8 -14l1 -1q-15 0 -46 90q-5 16 -9.5 31.5t-9.5 32.5q-4 15 -9 29.5t-10 29.5q-15 44 -24 67t-11 28q-19 28 -40 28q-42 0 -42 -63q0 -14 7 -43.5t24 -74.5
q11 -29 21 -57t21 -58q2 -2 18 -41q3 -8 6.5 -16t8.5 -18q22 -58 22 -68q0 -16 -43 -105q-3 -7 -6 -13.5t-7 -12.5q-12 -24 -23 -44t-21 -36q-8 -13 -13 -22t-8 -16l-6 -10.5t-3 -5.5q-10 -19 -14 -34t-4 -26q0 -8 3 -18.5t12 -21.5q13 -21 36 -21q28 0 58 54l40 80
q69 125 78 131q22 -4 55 -59q13 -20 25.5 -36.5t25.5 -32.5q8 -10 15 -19t15 -20h-1q42 -71 82 -71q11 0 24 7q9 31 9 61q0 15 -11 43l-6 12q-3 6 -6 11t-10 13h2q-3 9 -26 38q-11 9 -19 18t-16 20h-1v1l-2 2l-3 3h1l-68 93l-1 1q1 0 -5 6h1l-12 15h3q1 24 75 137h1l2 4l2 4
l3 3h-1q13 21 21 35.5t16 25.5q6 9 11.5 16t10.5 12q54 73 54 112zM403 250h1v1h-1v-1z" />
    <glyph glyph-name="y" unicode="y" horiz-adv-x="495" 
d="M512 741q0 60 -49 60q-31 0 -86 -75q-17 -23 -33 -48t-32 -51h1q-2 -2 -5 -6t-5 -6l-11 -22l-10 -18t-10 -20l-27 -51q-5 0 -35 44q-11 16 -20 30t-17 29q-8 20 -13.5 34t-9.5 24q1 -1 1 -2v0h1q0 2 -5 13t-7 16q-1 2 -2.5 5.5t-3.5 5.5h2l-16 54q-20 48 -52 48
q-24 0 -37 -20t-13 -48t19 -86q12 -39 32 -84q17 -38 38.5 -72t50.5 -65h-1l8.5 -8.5t6.5 -7.5q3 -2 10 -9h-1q14 -17 14 -34v-4l-47 -282v-3q0 -27 15 -51q15 -26 41 -26q9 0 16 3.5t15 10.5q4 4 8.5 19t11.5 40q5 22 8.5 38.5t5.5 29.5v7q7 46 13 76.5t11 46.5h-1q2 6 2 9
q0 4 1 6q2 8 4 18.5t6 24.5q9 44 14 57q40 121 164 286q7 8 9 13q8 10 11 14l3 4h-1q7 11 7 33z" />
    <glyph glyph-name="z" unicode="z" horiz-adv-x="491" 
d="M498 136q0 81 -54 81h-5l-255 -42q-1 2 -1 6v10q0 17 16 52h-1q14 21 19 34l4 8l4 8q31 75 84 160q10 17 23 35q19 28 37 55t36 56l6 10l6 10q28 42 36 64q21 42 21 56q0 39 -40 57q-15 7 -51 7h-13l-142 -7q-5 -1 -8 -1.5t-6 -1.5q-5 -1 -12.5 -2l-7.5 -1h1
q-14 -2 -24.5 -4t-18.5 -4t-14 -3t-8 -1q-23 -5 -39.5 -10.5t-26.5 -12.5q-29 -24 -29 -67q0 -64 46 -64q9 0 42 16q42 19 69.5 29t41.5 10l13 2q23 5 36 5q21 0 21 -16q0 -10 -14 -32.5t-42 -63.5q-32 -49 -60 -99t-54 -103q-11 -23 -20.5 -43t-17.5 -38
q-14 -31 -24.5 -55.5t-19.5 -42.5q-40 -83 -40 -112q0 -22 23 -50q20 -23 49 -23q4 0 33 10q5 2 13 5l16 6q5 2 10 3.5t10 3.5q17 6 30.5 10t23.5 9h-1q26 7 52.5 11.5t55.5 7.5q14 1 27.5 2t27.5 3t27 2.5t27 2.5q2 0 4.5 0.5t4.5 0.5q9 1 18.5 2.5t17 6.5t12.5 15t5 27z
M133 779h-2l-1 -1q1 0 1.5 0.5t1.5 0.5z" />
    <glyph glyph-name="braceleft" unicode="{" horiz-adv-x="420" 
d="M360 -28v7q0 19 -11.5 35t-31.5 16q-7 0 -12 -2t-12 -5q-23 -12 -38 -12q-12 0 -18 8t-6 22q0 2 0.5 4t0.5 4q2 13 3.5 26t3.5 30q4 26 8 59.5t8 76.5q1 8 1 15v16q0 30 -7.5 55.5t-28.5 50.5q21 18 34.5 41t22 51.5t13 63t8.5 75.5q2 19 5.5 40t10 39t17 29.5t27.5 11.5
h20q9 0 17 1.5t14 6.5t10.5 15t5.5 27v9q0 31 -13 39.5t-35 8.5q-44 0 -78.5 -19.5t-59 -51t-39 -72t-18.5 -82.5l-2 -29q-3 -32 -6 -56t-11.5 -40.5t-24.5 -25t-44 -8.5q-17 0 -31 -6.5t-23.5 -17t-14.5 -23.5t-5 -26q0 -21 13 -37.5t41 -16.5q40 0 53.5 -11.5t13.5 -38.5
q0 -8 -0.5 -15t-1.5 -17q-3 -32 -7.5 -62t-8.5 -58v1q-4 -21 -6.5 -40t-3.5 -33q-1 -8 -1.5 -16.5t-0.5 -16.5q0 -58 23.5 -88.5t79.5 -30.5q30 0 72 11q-2 -1 2.5 0.5l7.5 2.5l-1 -1q9 2 20 5.5t20.5 10t16 17t8.5 27.5z" />
    <glyph glyph-name="bar" unicode="|" horiz-adv-x="191" 
d="M152 6l1 15q1 5 1.5 11.5t0.5 14.5l57 655q0 6 1 14.5t1 17.5q2 13 3 27t1 29q0 27 -8 46.5t-31 19.5q-2 0 -4.5 -0.5t-4.5 -0.5q-21 -6 -32 -13.5t-17 -20.5t-8.5 -33t-4.5 -49v1q-1 -5 -1 -11t-1 -13l-62 -709v2q-2 -7 -2 -12v-9q0 -18 6 -29.5t15 -18.5t19 -9.5
t19 -2.5q16 0 29.5 20t20.5 59z" />
    <glyph glyph-name="braceright" unicode="}" horiz-adv-x="360" 
d="M291 460l1 -1q-5 1 -9.5 3.5t-8 8t-5.5 16t-2 29.5q0 43 6.5 93.5t17.5 103.5l-1 -1q3 10 4 19t1 18q0 25 -7 48t-22 41t-37.5 28.5t-53.5 10.5q-28 0 -47 -1.5t-42 -7.5h1q-23 -5 -34 -22.5t-11 -37.5t12 -36t41 -16q-1 0 2 0.5t7.5 1t9.5 1t8 0.5l28 3q5 0 15 -2h-1
q8 -2 10.5 -6.5t2.5 -9.5v-6q0 -3 -1 -6q-12 -59 -19 -116.5t-7 -105.5q0 -75 32 -110q-36 -27 -52 -69.5t-20 -95.5l-8 -96q-1 -10 -2.5 -22t-6 -22.5t-12.5 -18.5t-21 -9q-38 -5 -58.5 -24.5t-23.5 -43.5v-8q0 -33 18.5 -45t38.5 -12q34 0 66 17.5t57 46t41 65.5t19 75
l8 95q1 12 4.5 30t12.5 35t24.5 29.5t41.5 12.5q35 0 53 20.5t18 42.5q0 19 -13.5 34t-41.5 16l-22 2q-3 1 -5.5 2t-6.5 3z" />
    <glyph glyph-name="asciitilde" unicode="~" horiz-adv-x="495" 
d="M343 617q39 0 94 53q55 52 55 91q0 19 -19 32q-16 10 -33 10q-20 0 -40 -20q-3 -4 -9.5 -12.5t-14 -17.5t-14.5 -16t-11 -7h-1q-13 1 -26 7.5t-26 14t-25.5 15t-24.5 12.5q-42 20 -77 20q-16 0 -40 -10.5t-47 -26.5t-42 -33.5t-26 -32.5q-9 -20 -9 -36q0 -40 44 -40
q24 0 42 15q1 0 8 7l16 16t18.5 16t17.5 7q9 0 23 -3t28.5 -8t27 -11t19.5 -13q29 -29 92 -29z" />
    <glyph glyph-name="quotesinglbase" unicode="&#x201a;" horiz-adv-x="173" 
d="M157 112q-2 14 -17.5 23.5t-29.5 9.5q-30 0 -41 -26q-7 -18 -7 -54q-1 -19 -2 -31.5t-3 -18.5q-8 -27 -12.5 -41.5t-5.5 -16.5q-4 -4 -17 -35q-10 -19 -10 -36t11.5 -32t27.5 -15q80 0 108 193q3 25 5 27q0 11 -2 24t-5 29z" />
    <glyph glyph-name="quotedblbase" unicode="&#x201e;" horiz-adv-x="340" 
d="M157 138q-2 14 -17.5 23.5t-29.5 9.5q-30 0 -41 -26q-7 -18 -7 -54q-1 -19 -2 -31.5t-3 -18.5q-8 -27 -12.5 -41.5t-5.5 -16.5q-4 -4 -17 -35q-10 -19 -10 -36t11.5 -32t27.5 -15q80 0 108 193q3 25 5 27q0 11 -2 24t-5 29zM331 68q0 61 -48 61q-6 0 -24 -9
q-14 -6 -18 -15q-8 -32 -12.5 -57t-6.5 -41q-5 -14 -10 -28.5t-13 -28.5q-5 -9 -9.5 -15t-6.5 -11q-5 -11 -7 -21t-2 -20q0 -25 9 -34q14 -14 32 -14q31 0 63 45q12 18 20 36.5t12 38.5q5 23 8 40.5t6 29.5q5 20 6 30.5t1 12.5z" />
    <glyph glyph-name="ellipsis" unicode="&#x2026;" horiz-adv-x="594" 
d="M158 79q0 26 -27 44q-23 17 -50 17q-49 0 -62 -28q-10 -21 -10 -40q0 -32 17.5 -53t49.5 -21q31 0 56 25q26 26 26 56zM570 79q0 26 -27 44q-23 17 -50 17q-49 0 -62 -28q-10 -21 -10 -40q0 -32 17.5 -53t49.5 -21q31 0 56 25q26 26 26 56zM367 78q0 26 -27 44
q-23 17 -50 17q-49 0 -62 -28q-10 -21 -10 -40q0 -32 17.5 -53t49.5 -21q31 0 56 25q26 26 26 56z" />
    <glyph glyph-name="dagger" unicode="&#x2020;" horiz-adv-x="321" 
d="M385 604q0 54 -59 54q-10 0 -15 -1l-81 -6l5 51q0 6 1 14.5t1 17.5q2 13 3 27t1 29q0 27 -8 46.5t-31 19.5q-2 0 -4.5 -0.5t-4.5 -0.5q-21 -6 -32 -13.5t-17 -20.5t-8.5 -33t-4.5 -49v1q-1 -5 -1 -11t-1 -13l-7 -74q-8 -1 -13 -1h-4h-116q-9 0 -21 -12q-10 -10 -10 -21
q0 -42 22.5 -65t65.5 -23h47h4q5 0 15 1l-45 -514v2q-2 -7 -2 -12v-9q0 -18 6 -29.5t15 -18.5t19 -9.5t19 -2.5q16 0 29.5 20t20.5 59l1 -1l1 15q1 5 1.5 11.5t0.5 14.5l42 482l13 1h81q35 0 53 19.5t18 54.5z" />
    <glyph glyph-name="daggerdbl" unicode="&#x2021;" horiz-adv-x="321" 
d="M345 272q0 54 -59 54q-10 0 -15 -1l-70 -5l19 209l13 1h81q35 0 53 19.5t18 54.5q0 54 -59 54q-10 0 -15 -1l-81 -6l5 51q0 6 1 14.5t1 17.5q2 13 3 27t1 29q0 27 -8 46.5t-31 19.5q-2 0 -4.5 -0.5t-4.5 -0.5q-21 -6 -32 -13.5t-17 -20.5t-8.5 -33t-4.5 -49v1
q-1 -5 -1 -11t-1 -13l-7 -74q-8 -1 -13 -1h-4h-116q-9 0 -21 -12q-10 -10 -10 -21q0 -42 22.5 -65t65.5 -23h47h4q5 0 15 1l-19 -210l-21 -1.5l-7 -0.5h-116q-9 0 -21 -12q-10 -10 -10 -21q0 -42 22.5 -65t65.5 -23h47h7t23 2l-16 -183v2q-2 -7 -2 -12v-9q0 -18 6 -29.5
t15 -18.5t19 -9.5t19 -2.5q16 0 29.5 20t20.5 59l1 -1l1 15q1 5 1.5 11.5t0.5 14.5l13 151h83q35 0 53 19.5t18 54.5z" />
    <glyph glyph-name="circumflex" unicode="&#x2c6;" horiz-adv-x="447" 
d="M370 891q18 1 18 9q0 3 -3 8q-8 15 -17 33.5t-18.5 39t-18.5 41.5t-16 41q-4 13 -9.5 18t-13.5 11q-11 5 -22 8.5t-21 8.5q-8 3 -15 3q-13 0 -22 -13q-19 -18 -38 -39.5t-35.5 -43t-30.5 -40.5t-24 -33q-4 -5 -4 -11q0 -11 9 -18q8 -8 17 -14t17 -11q6 -2 9.5 -3.5
t7.5 -1.5q7 1 13 9q18 23 40 50.5t48 56.5q14 -28 25.5 -52.5t20.5 -41.5q13 -15 36 -17q5 -1 15 -1q8 0 16 1z" />
    <glyph glyph-name="perthousand" unicode="&#x2030;" horiz-adv-x="790" 
d="M440 418q12 19 24 37.5t25 37.5q32 48 60 92t39 86v-1q3 9 3 16v3q0 8 -7 13.5t-18 9t-25 5t-28 3.5q-17 0 -31.5 -6t-21.5 -24q-7 -29 -26.5 -64t-41.5 -70q-9 -14 -17 -27.5t-15 -27.5v1q-25 -43 -43 -73.5t-34 -57t-33 -53t-40 -61.5t-54 -82t-75 -114q-4 -8 -4 -22
q0 -17 11 -25t25 -15v1l12 -6q20 -11 31 -11q18 0 39 28q22 45 41 79.5t39 70.5q6 11 12.5 23t14.5 26q17 35 39 66t45 63q14 19 27 38.5zM352 144q-7 -11 -9.5 -22.5t-2.5 -21.5q0 -19 6 -35.5t14 -32.5q13 -25 37 -35.5t52 -10.5q21 0 37 4q43 9 80 38t59 64q24 39 24 78
q0 40 -26 69q-14 14 -32.5 20.5t-38.5 6.5q-32 0 -61 -10q-21 -6 -40 -14t-36.5 -20.5t-33 -31t-29.5 -46.5zM557 476q-7 -11 -9.5 -22.5t-2.5 -21.5q0 -19 6 -35.5t14 -32.5q13 -25 37 -35.5t52 -10.5q21 0 37 4q43 9 80 38t59 64q24 39 24 78q0 40 -26 69
q-14 14 -32.5 20.5t-38.5 6.5q-32 0 -61 -10q-21 -6 -40 -14t-36.5 -20.5t-33 -31t-29.5 -46.5zM313 560q7 13 9.5 24.5t2.5 22.5q0 18 -6 34t-14 32q-13 25 -36 35t-50 10q-23 0 -40 -4q-43 -8 -79.5 -36.5t-59.5 -64.5q-24 -39 -24 -78q0 -19 6 -36.5t20 -31.5
q14 -16 32.5 -22t39.5 -6q32 0 61 10q21 7 40 15t36 20t32.5 30.5t29.5 45.5zM442 96q-1 2 -1 7q0 10 5 19.5t12 17.5q11 14 27 19t28 5q8 0 10 -1q8 -2 14.5 -9.5t6.5 -18.5q0 -2 -0.5 -3t-0.5 -3q-6 -22 -26 -32.5t-36 -12.5q-3 -1 -12 -1t-17 2t-10 10v1zM647 428
q-1 2 -1 7q0 10 5 19.5t12 17.5q11 14 27 19t28 5q8 0 10 -1q8 -2 14.5 -9.5t6.5 -18.5q0 -2 -0.5 -3t-0.5 -3q-6 -22 -26 -32.5t-36 -12.5q-3 -1 -12 -1t-17 2t-10 10v1zM226 606q0 -11 -5.5 -21.5t-13.5 -19.5q-11 -14 -27.5 -19t-27.5 -5q-3 0 -5.5 0.5t-4.5 0.5
q-7 2 -13 9.5t-6 18.5q0 4 1 6q5 21 25 32.5t34 12.5h13q9 0 17.5 -2t11.5 -9q0 -2 0.5 -2.5t0.5 -1.5z" />
    <glyph glyph-name="Scaron" unicode="&#x160;" horiz-adv-x="631" 
d="M236 7q97 0 217 84q120 85 151 174q5 12 6.5 30.5t1.5 43.5q0 119 -65 161q-50 33 -176 33q-28 0 -83 -6q-27 -2 -47.5 -3.5t-34.5 -1.5q-41 0 -41 22q0 25 64 67q46 29 90 46q17 8 32.5 13t31.5 13q20 8 35.5 11t29.5 3q17 0 35 -28q9 -25 26 -25q4 0 7 1q20 7 25 7
q13 0 21.5 11.5t8.5 26.5q0 29 -42 70q-40 39 -73 45q-5 0 -9.5 0.5t-10.5 0.5h-18q-54 -1 -102 -17q-28 -10 -94 -42q-19 -11 -33.5 -17.5t-22.5 -11.5q-22 -16 -37.5 -28t-26.5 -20q-20 -14 -36 -28.5t-30 -31.5q-35 -47 -35 -79t21 -66q25 -42 86 -59q36 -9 106 -9
q10 0 32 0.5t46 1t45.5 1t31.5 0.5q39 0 74 -11q45 -17 45 -51q0 -64 -131 -153q-16 -10 -25.5 -16t-12.5 -8q-34 -17 -83 -17q-11 0 -44 10q-34 11 -42 16q-8 8 -17.5 14t-18.5 14q-20 15 -41 15t-38 -16t-17 -37q0 -62 80 -110q71 -43 138 -43zM204 1048q-18 -2 -18 -9
q0 -4 3 -8q7 -15 16.5 -33.5t19 -39t18.5 -42t16 -40.5q4 -13 9.5 -18t13.5 -11q11 -5 22 -8.5t21 -8.5q7 -3 15 -3q13 0 22 13q19 18 38 39.5t35.5 43t30.5 40.5t24 33q4 5 4 11q0 10 -9 18q-8 8 -17 14t-17 11q-6 2 -9.5 3.5t-7.5 1.5q-7 -1 -13 -9q-18 -23 -40 -50.5
t-48 -56.5q-14 28 -25.5 52.5t-20.5 41.5q-13 15 -36 17q-5 1 -15 1q-8 0 -16 -1z" />
    <glyph glyph-name="guilsinglleft" unicode="&#x2039;" horiz-adv-x="217" 
d="M208 546h-3q-17 0 -33 -11l-119 -78q-16 -7 -29 -20t-16 -30q0 -3 -0.5 -5.5t-0.5 -4.5q0 -14 5 -20t13 -11l96 -115l3 -3v1q7 -11 13.5 -17t19.5 -9h9q11 0 20 8t19 32v-1q2 4 2.5 6.5t1.5 5.5v6q0 9 -5 19t-19 23l-63 76l77 50q23 11 32.5 27t10.5 25q0 1 0.5 2t0.5 3
q0 5 -3 8q-5 19 -11.5 25t-20.5 8z" />
    <glyph glyph-name="OE" unicode="&#x152;" horiz-adv-x="1271" 
d="M1260 112v8q0 22 -11 41t-31 27q-21 -3 -41 -5t-41 -2h-10q-26 -3 -51 -3.5t-51 -2.5q-48 -8 -92.5 -18.5t-92.5 -15.5q-9 -1 -17 -1.5t-17 -0.5q-6 0 -12 0.5t-12 1.5q-34 9 -34 32q0 5 3 11q1 2 1 8v7v9q0 27 3 54.5t5 55.5q0 16 8 32.5t28 19.5q17 2 33 5.5t33 5.5
q32 5 62.5 12t63.5 7q5 0 9 -0.5t9 -0.5q18 0 37.5 -0.5t38.5 -2.5h3q16 0 30.5 8t15.5 25q1 3 1 6v7q0 19 -11.5 33t-29.5 21q-8 2 -15.5 3.5t-15.5 1.5q-20 5 -39.5 6.5t-39.5 1.5q-47 0 -92.5 -7t-92.5 -13l-7 3q-9 6 -9 18v4v2q0 4 1 7t1 7q0 3 -1 5q0 11 0.5 22t1.5 22
l2 9l1 9l1 8l3 8l5 7h8q6 0 11.5 2.5t10.5 5.5q19 8 37 11.5t36 5.5q18 4 35.5 5.5t35.5 2.5q23 5 43.5 6t40.5 1h20q25 0 50 2.5t53 13.5q9 13 9 30q0 26 -17 52t-42 38q-13 7 -32 7q-5 0 -10 -0.5t-10 -1.5q-13 -4 -26 -3.5t-27 -2.5q-34 -2 -67 -7t-68 -14
q-39 -9 -78 -15q-21 -7 -40 -10.5t-39 -11.5h-5q-28 0 -49 -12q-24 24 -51 41q-67 43 -131 43q-8 0 -23.5 -3t-23.5 -3q-80 0 -207 -88q-42 -29 -83.5 -82.5t-87.5 -138.5q-14 -25 -22.5 -51t-13.5 -54q-5 -26 -7 -43.5t-2 -25.5q-5 -18 -5 -36q0 -17 3.5 -36.5t10.5 -43.5
q27 -75 48 -86q8 -11 17 -19.5t20 -17.5q6 -4 20 -11.5t36 -18.5q22 -8 36.5 -14.5t25.5 -8.5q70 -17 94 -17q93 0 153 23q22 11 38 18.5t27 13.5q42 18 70 40q7 -39 33 -69t71 -32q10 -1 19.5 -1.5t18.5 -0.5q28 0 55 6q73 17 144.5 29t146.5 12h22q20 0 39.5 2.5t39.5 3.5
q21 5 37 19.5t18 36.5zM596 272q-55 -84 -133 -115q-42 -20 -108 -20q-7 0 -17.5 1.5t-25.5 3.5q-87 20 -122 56q-43 43 -43 130q0 33 14 69t41 78t59 74t69 61q76 58 142 58q82 0 132 -74q40 -60 46 -128v-22q0 -12 -0.5 -23.5t-1.5 -22.5q-11 -65 -52 -126z" />
    <glyph glyph-name="quoteleft" unicode="&#x2018;" horiz-adv-x="181" 
d="M166 557q0 16 -6 31t-13.5 30t-15.5 30.5t-12 32.5q-8 32 -12.5 57t-7.5 41q-4 8 -17.5 16.5t-23.5 8.5q-23 0 -37 -20q-11 -14 -11 -42q0 -5 1.5 -14.5l4.5 -28.5q9 -49 18 -80.5t17 -48.5q6 -11 13.5 -21t18.5 -18q23 -22 42 -22q18 0 32 15q9 7 9 33z" />
    <glyph glyph-name="quoteright" unicode="&#x2019;" horiz-adv-x="173" 
d="M157 826q-2 14 -17.5 23.5t-29.5 9.5q-30 0 -41 -26q-7 -18 -7 -54q-1 -19 -2 -31.5t-3 -18.5q-8 -27 -12.5 -41.5t-5.5 -16.5q-4 -4 -17 -35q-10 -19 -10 -36t11.5 -32t27.5 -15q80 0 108 193q3 25 5 27q0 11 -2 24t-5 29z" />
    <glyph glyph-name="quotedblleft" unicode="&#x201c;" horiz-adv-x="340" 
d="M329 587q0 16 -17 52q-10 23 -15.5 37t-7.5 18q-12 75 -12 113q-6 38 -46 38q-15 0 -30 -9t-18 -23q-6 -32 -6 -53q0 -53 29 -131q35 -89 84 -89q16 0 27.5 15t11.5 32zM166 557q0 16 -6 31t-13.5 30t-15.5 30.5t-12 32.5q-8 32 -12.5 57t-7.5 41q-4 8 -17.5 16.5
t-23.5 8.5q-23 0 -37 -20q-11 -14 -11 -42q0 -5 1.5 -14.5l4.5 -28.5q9 -49 18 -80.5t17 -48.5q6 -11 13.5 -21t18.5 -18q23 -22 42 -22q18 0 32 15q9 7 9 33z" />
    <glyph glyph-name="quotedblright" unicode="&#x201d;" horiz-adv-x="340" 
d="M157 826q-2 14 -17.5 23.5t-29.5 9.5q-30 0 -41 -26q-7 -18 -7 -54q-1 -19 -2 -31.5t-3 -18.5q-8 -27 -12.5 -41.5t-5.5 -16.5q-4 -4 -17 -35q-10 -19 -10 -36t11.5 -32t27.5 -15q80 0 108 193q3 25 5 27q0 11 -2 24t-5 29zM331 756q0 61 -48 61q-6 0 -24 -9
q-14 -6 -18 -15q-8 -32 -12.5 -57t-6.5 -41q-5 -14 -10 -28.5t-13 -28.5q-5 -9 -9.5 -15t-6.5 -11q-5 -11 -7 -21t-2 -20q0 -25 9 -34q14 -14 32 -14q31 0 63 45q12 18 20 36.5t12 38.5q5 23 8 40.5t6 29.5q5 20 6 30.5t1 12.5z" />
    <glyph glyph-name="bullet" unicode="&#x2022;" horiz-adv-x="306" 
d="M293 434q0 48 -50 81q-44 32 -93 32q-91 0 -116 -52q-18 -42 -18 -75q0 -60 32.5 -98.5t92.5 -38.5q57 0 103 46q49 49 49 105z" />
    <glyph glyph-name="endash" unicode="&#x2013;" horiz-adv-x="542" 
d="M529 413q0 46 -62 55q-2 1 -7 1h-12l-141 -12q-35 -3 -52.5 -4l-17.5 -1h-192q-9 0 -21 -12q-12 -15 -12 -23q0 -45 24.5 -69t69.5 -24h135q8 0 18 0.5t23 0.5q57 4 102.5 7t80.5 7q24 1 27 3q16 3 28 28q9 24 9 43z" />
    <glyph glyph-name="emdash" unicode="&#x2014;" horiz-adv-x="693" 
d="M682 413q0 46 -62 55q-2 1 -7 1h-12l-141 -12q-35 -3 -52.5 -4l-17.5 -1h-345q-9 0 -21 -12q-12 -15 -12 -23q0 -45 24.5 -69t69.5 -24h288q8 0 18 0.5t23 0.5q57 4 102.5 7t80.5 7q24 1 27 3q16 3 28 28q9 24 9 43z" />
    <glyph glyph-name="tilde" unicode="&#x2dc;" horiz-adv-x="495" 
d="M336 852q30 0 67 37q39 36 39 65q0 13 -13 23q-11 7 -24 7q-14 0 -28 -14q-2 -3 -7 -9t-10.5 -13t-10.5 -11.5t-8 -4.5q-19 2 -37 15t-35 20q-15 7 -28 10.5t-27 3.5q-12 0 -29 -7.5t-33.5 -18.5t-30 -24t-18.5 -23q-6 -14 -6 -26q0 -28 31 -28q19 0 30 10q1 0 6 5
t11 11.5t13 11.5t13 5q7 0 17 -2t20 -5.5t19 -8t14 -9.5q20 -20 65 -20z" />
    <glyph glyph-name="trademark" unicode="&#x2122;" horiz-adv-x="649" 
d="M590 464q33 13 36 44q0 2 0.5 3.5t0.5 3.5q0 4 -2 12v8q-5 30 -8 65t-3 72q0 28 1.5 55.5t6.5 54.5v4q0 17 -19.5 25t-37.5 8q-21 0 -36 -9q-8 -5 -18.5 -24t-20.5 -40t-17.5 -39t-8.5 -21q0 6 -0.5 12.5t-0.5 11.5q0 12 1.5 24.5t1.5 24.5q0 7 -1 10v-1q-3 16 -19 27
t-35 11q-20 0 -38.5 -12t-23.5 -41l2 3q-7 -15 -13 -28.5t-12 -27.5q-20 -47 -37.5 -88.5t-32.5 -88.5v1q-2 -5 -2 -8t-1 -8q0 -2 -0.5 -4t-0.5 -4q0 -14 7.5 -27.5t29.5 -15.5q2 0 4 -0.5t4 -0.5h7q17 0 29 7.5t22 19.5q10 25 13 35t6 18q2 9 4.5 17t3.5 10v1
q2 -14 3 -29.5t3 -34.5q10 -17 21.5 -23t25.5 -6q13 0 25 4.5t19 9.5q10 8 15.5 17.5t11.5 24.5v-1q4 7 6 14t7 14q1 -13 3 -27.5t4 -29.5q3 -20 15 -28.5t27 -8.5q13 0 22 4zM256 709q17 6 25.5 22t11.5 28q2 4 2 7q0 4 1 9q0 11 -3.5 19.5t-14.5 17.5q-11 2 -20 2h-16
q-24 0 -52 -3.5t-56 -9t-55 -12.5t-49 -13q-2 -1 -3 -2t-3 -2q-15 -9 -21.5 -16t-8.5 -28q0 -4 2 -13t7 -18.5t13.5 -16.5t21.5 -7q2 0 4 0.5t4 0.5q10 2 18 4t18 5l0.5 0.5t1.5 0.5l-3 -36q-5 -34 -7 -72.5t-5 -80.5q9 -40 46 -40h4q24 3 34.5 18t15.5 33v19q0 12 1 25
t3 27q3 32 8 67t10 59q3 1 10 1h10q12 0 22 0.5t22 4.5h1z" />
    <glyph glyph-name="scaron" unicode="&#x161;" horiz-adv-x="453" 
d="M179 7q77 0 163 84q90 89 111 174q4 12 5 30.5t1 43.5q0 116 -50 161q-36 33 -133 33q-21 0 -60 -6q-20 -2 -34 -3.5t-25 -1.5q-19 0 -19 22q0 31 42 67q34 30 63 46q8 5 13.5 8t7.5 5q6 3 15.5 9t11.5 6v-1q14 8 23.5 10.5t17.5 2.5q3 0 16 -28h-1q6 -25 29 -25q6 0 8 1
q14 7 15 7q12 0 21 11.5t9 26.5q0 29 -31 70q-29 36 -59 45h-8q-2 0 -4 0.5t-4 0.5h-14q-44 -2 -76 -17q-11 -5 -29 -16.5t-44 -28.5q-14 -11 -24 -18q-5 -3 -9.5 -5.5l-4.5 -2.5l-20 -21q-8 -8 -14.5 -15t-11.5 -12q-17 -17 -29 -31t-20 -29q-26 -49 -26 -79q0 -29 15 -66
q17 -39 68 -59q27 -9 79 -9h22q16 0 33 1t33 1.5t24 0.5q25 0 49 -11q27 -14 27 -51q0 -67 -91 -153h1q-5 -3 -6 -4l-2 -2h1q-19 -15 -22 -18h1q-23 -17 -54 -17q-4 0 -28 10q-8 5 -15 8.5t-13 7.5h2l-27 28q-14 15 -36 15q-19 0 -34.5 -16t-15.5 -37q0 -56 62 -110
q50 -43 105 -43zM155 1048q-22 -3 -22 -9q0 -2 5 -8h-1q10 -27 24 -69t25 -86q2 -9 6 -14t11 -13q2 -2 8.5 -5t13.5 -7q2 -2 5.5 -3t8.5 -4q4 -3 15 -3q17 0 24 13h-1q15 19 29 41t26 43t22 39.5t16 32.5l3.5 7t1.5 5q0 6 -9 17q-3 5 -9.5 10.5t-12.5 10.5l-4 4q-1 1 -6 2
q-5 3 -15 3q-13 -3 -15 -9q-12 -20 -24.5 -43t-27.5 -48q-5 11 -9 21.5t-6 20.5q-4 11 -6 17.5t-5 14.5q-11 19 -35 21h1q-4 1 -13 1zM291 684q-1 0 -1 -1h-1h1z" />
    <glyph glyph-name="guilsinglright" unicode="&#x203a;" horiz-adv-x="176" 
d="M39 220h2q13 0 25 11l89 78q12 7 22 20t12 30v9q0 14 -3.5 20.5t-9.5 11.5l-72 115l-2 3v-1q-5 11 -10 17t-15 9h-7q-8 0 -14.5 -8t-14.5 -32v1q-2 -4 -2 -7q0 -2 -1 -5v-5q0 -10 3.5 -19.5t14.5 -23.5l47 -76l-57 -50q-17 -11 -24.5 -27t-8.5 -25v-5q0 -6 2 -8
q3 -19 8 -25t16 -8z" />
    <glyph glyph-name="oe" unicode="&#x153;" horiz-adv-x="943" 
d="M955 112v7q0 22 -10.5 41t-27.5 29q-18 -4 -33.5 -6t-29.5 -2h-9q-11 -2 -20.5 -2.5t-20.5 -1.5q-8 -1 -17 -1t-18 -1q-13 -3 -25.5 -6t-24.5 -7q-23 -6 -44.5 -12t-39.5 -9q-2 0 -4.5 -0.5t-3.5 -0.5q-5 -1 -9 -1h-7h-7t-8 2q-18 8 -18 32q0 9 1 11q2 4 2 8v21
q0 33 3 65q1 10 1.5 20t1.5 20q0 16 4 33t14 19q8 1 12.5 2t10.5 3t12.5 3t13.5 3t13.5 3.5t13.5 3.5q16 5 31.5 8.5t31.5 3.5q4 0 7 -0.5t7 -0.5q13 0 26.5 -0.5t27.5 -2.5h4q14 0 28.5 8t14.5 25q1 4 1 7v7q0 17 -10.5 31t-25.5 22q-6 2 -11.5 3t-12.5 2q-14 5 -29 6.5
t-32 1.5q-26 0 -51 -4t-50 -9q-8 -2 -16 -3t-16 -3l-3 2h2q-4 4 -4 18v13q2 4 2 7q0 1 -2 5h1v22q0 5 0.5 10.5t0.5 11.5l2 9l1 9v8h-1l3 8l3 7q7 0 11.5 2.5t8.5 5.5h-1q14 8 26.5 11.5t26.5 5.5q13 4 25.5 5.5t25.5 2.5q18 5 34 6t32 1h7q20 0 41 2.5t45 16.5q6 12 6 27
q0 24 -14 50t-33 40q-10 7 -29 7q-5 0 -10.5 -1t-10.5 -2q-5 -2 -15 -2q-11 0 -21 -3q-25 -2 -49.5 -7t-49.5 -14q-17 -5 -32 -9t-29 -7q-6 -3 -11 -5t-10 -3q-9 -2 -18 -5t-17 -8q-19 0 -32 -6q-7 8 -15.5 16.5t-19.5 18.5q-49 42 -101 43q1 -1 -8.5 -2t-14.5 -2
q-10 -2 -12 -2q-35 0 -73.5 -21.5t-86.5 -66.5q-32 -31 -63 -84.5t-64 -136.5q-11 -27 -17.5 -53t-9.5 -52q-4 -26 -5.5 -43.5t-1.5 -25.5q-3 -15 -3 -35q0 -35 10 -81q19 -72 39 -86h-3q4 -6 10.5 -14t15.5 -19q18 -15 39 -30q6 -3 15 -8t14 -7h-1q15 -8 26 -12
q51 -17 73 -17q73 0 124 27q9 6 13.5 8.5t10.5 7.5h-1q8 5 11.5 7.5t6.5 4.5h-1q24 13 39 27q8 -35 28 -60.5t55 -27.5q7 -1 14 -1.5t15 -0.5q24 0 44 6q54 17 105.5 29t104.5 12h16q19 0 34 3h-1q7 1 18 2l11 1q18 6 31.5 20.5t15.5 35.5zM449 272q-22 -44 -45 -72.5
t-49 -42.5q-31 -20 -75 -20q-4 0 -11 1.5t-18 3.5h1q-59 19 -85 56q-30 40 -30 130q0 34 10 69.5t29 77.5q21 45 44.5 76.5t47.5 58.5q58 58 98 58q52 0 88 -74q29 -57 33 -128v-22v-24q0 -11 -1 -22q-4 -33 -13.5 -64.5t-23.5 -61.5z" />
    <glyph glyph-name="Ydieresis" unicode="&#x178;" horiz-adv-x="673" 
d="M670 741q0 60 -55 60q-32 0 -108 -75q-26 -25 -50 -51.5t-47 -54.5q-13 -17 -24.5 -32.5t-22.5 -32.5q-39 -51 -50 -51q-16 0 -60 44q-17 18 -29.5 32t-22.5 27q-12 20 -19.5 34t-12.5 24q-8 13 -12.5 22.5t-8.5 15.5l-27 65q-19 37 -54 37q-27 0 -41.5 -20t-14.5 -48
q0 -26 27 -86q19 -47 42 -84q24 -40 54 -74t68 -63q8 -8 16.5 -13.5t16.5 -11.5q21 -20 21 -34v-4l-64 -282v-3q0 -29 17 -51q23 -26 47 -26q14 0 25 8q12 9 32 65q8 25 13 43.5t7 31.5q10 46 18.5 76.5t13.5 46.5q2 5 6 19t12 39q5 18 10 32t10 25q57 120 229 286
q29 29 29 31q9 10 9 33zM204 942v-5q0 -31 15 -49.5t36 -18.5h3q11 0 20 5.5t15.5 13.5t10.5 17t5 16q3 9 3 21q0 18 -9.5 35t-29.5 26q-8 4 -18 4q-22 0 -35.5 -19.5t-15.5 -45.5zM379 942v-7q0 -31 15 -49t36 -18h3q11 0 20 5.5t15.5 13.5t10 17t5.5 16q1 5 1.5 10t0.5 12
q0 17 -9 34t-29 26q-9 4 -19 4q-22 0 -35 -19.5t-15 -44.5z" />
    <glyph glyph-name="exclamdown" unicode="&#xa1;" horiz-adv-x="241" 
d="M3 44q0 -8 3 -17.5t11 -20.5q12 -19 32 -19q25 0 33 18h-1q3 5 7.5 14.5t8.5 21.5h-1q6 20 9 31t6 23q2 7 3 14t3 15q3 14 6 27t5 25q5 23 9 41.5t7 32.5l34 181q18 84 18 88q0 20 -10.5 32.5t-28.5 12.5q-17 0 -25 -7q-18 -15 -28 -67q-11 -53 -19 -93.5t-14 -69.5
q-1 -5 -1.5 -8.5t-1.5 -7.5q0 -5 -4.5 -22.5t-12.5 -46.5q-5 -15 -9.5 -33t-10.5 -39q-28 -105 -28 -126zM109 703q0 -66 57 -66q31 0 53 19q28 25 28 60q0 22 -10 40q-22 31 -47 31q-31 0 -55 -24q-26 -26 -26 -60z" />
    <glyph glyph-name="cent" unicode="&#xa2;" horiz-adv-x="453" 
d="M240 41v32q1 5 1.5 11.5t0.5 14.5l4 37h-7q5 1 9 2t8 3q3 1 7 2t7 2q14 7 23 12t14 8h-1q135 81 135 130v5q0 17 -17 28t-34 11q-15 0 -19 -4q-8 -8 -10 -9.5t-4 -3.5q-12 -11 -26.5 -23.5t-29 -24t-27.5 -20.5t-22 -11q-35 -19 -58 -19q-24 0 -42 23q-14 18 -14 61
q0 17 3 26t9 23q1 2 1.5 3.5t1.5 3.5q2 4 2.5 5.5t4.5 9.5q7 16 25 50q16 32 31 59t31 47q23 33 38 48t30 17q8 0 10 -10.5t2 -23.5q0 -6 0.5 -12t3.5 -12q7 -19 30 -19q36 0 36 58q0 94 -52 114h6q1 4 1 14q0 4 0.5 7.5t0.5 7.5q1 10 1.5 20t0.5 21q0 27 -8 46.5t-31 19.5
h-1q-1 0 -3.5 -0.5t-3.5 -0.5q-18 -7 -28 -15t-14.5 -21t-6 -32t-3.5 -47q-1 -5 -1 -11v-13l-1 -15h3l-8 -6q-6 -5 -16 -15t-20 -20.5t-19 -20t-13 -14.5q-33 -46 -53 -77t-31 -51q-5 -12 -9 -21.5t-8 -17.5q-11 -26 -19 -46t-16 -44q-9 -32 -9 -59q0 -38 13 -69
q5 -12 16 -26t30 -31h-1q11 -9 27 -16t37 -11h-7l-7 -70q-2 -7 -2 -12v-9q0 -18 5 -29.5t13 -18.5t16.5 -9.5t16.5 -2.5q32 0 43 64z" />
    <glyph glyph-name="sterling" unicode="&#xa3;" horiz-adv-x="467" 
d="M335 332q0 18 -6 29t-20 19q-13 5 -31.5 8t-41.5 3q-2 0 -12 -0.5t-27 -2.5q-6 -1 -11 -1.5t-10 -0.5l7 56h-10l77 4q6 0 10 1q3 1 8.5 1.5t12.5 2.5q8 2 14 2h12q23 0 31.5 6.5t8.5 23.5v6q-1 2 -1 12q0 20 -38 36q-27 9 -58 9q-13 0 -27 -0.5t-28 -1.5l21 171v8
q0 28 -16 54q-18 26 -48 26q-31 0 -40 -25q-5 -8 -9 -20.5t-6 -29.5q-1 -3 -1 -6q0 -2 -1 -5q-2 -11 -3 -22t-3 -22q-4 -27 -8 -51t-7 -45q-2 -13 -3.5 -24t-3.5 -21h9q-1 -1 -2 -1h-1q-4 -1 -10 -1q-16 -2 -21 -3t-8.5 -1.5l-3.5 -0.5h2q-17 -4 -26 -10q-18 -11 -18 -18
q2 -16 12.5 -31.5t22.5 -23.5q10 -5 30 -5q-2 -17 -3.5 -31.5t-3.5 -29.5h6q-18 -2 -21 -3q-14 -3 -22.5 -13t-8.5 -19q0 -24 29 -45h1q2 -1 7.5 -4.5l5.5 -3.5h-6q-3 -37 -4 -68t-1 -57q0 -74 25 -115q26 -41 89 -41q12 0 31 4.5t50 13.5q14 6 27 12t25 12q12 8 28 16
q5 3 11.5 6.5t13.5 7.5q16 9 29 17t24 15q9 6 19.5 12l17.5 10q8 6 18 11.5t21 11.5q24 18 24 45q0 24 -12 48q-12 25 -38 25q-10 0 -26 -8.5t-44 -25.5q-14 -8 -25.5 -15t-22.5 -13h1q-8 -5 -15.5 -8.5t-14.5 -7.5h1q-8 -5 -16 -8.5t-16 -7.5l-16 -8l-16 -8q-19 -8 -35 -12
t-28 -4q-2 0 -6 31l-3 14l11 88h-6q66 3 119 9q13 1 20 1h8q8 2 14.5 6.5t9.5 11.5q6 10 6 23zM30 296h-1h1z" />
    <glyph glyph-name="currency" unicode="&#xa4;" horiz-adv-x="455" 
d="M293 325q0 21 -5.5 35t-19.5 25q-16 11 -54 11q-2 0 -10.5 -0.5t-21.5 -2.5h1q-7 -1 -13 -1q-5 0 -11 -1l-16 -2q2 5 4.5 10.5t4.5 12.5q3 8 5.5 12.5t4.5 9.5q2 6 4.5 11.5t5.5 12.5h-8l62 5q3 1 9 2.5l14 3.5h-1q15 3 21 3q20 0 27 7.5t7 28.5v8q-1 2 -1 13
q0 23 -28 42q-11 5 -22.5 8t-22.5 5h5q53 87 89 87q8 0 14 -28q1 -9 2 -17t3 -16q1 -5 2 -10.5t2 -10.5q7 -28 34 -28q41 0 41 82q0 73 -14 108q-17 50 -72 50q-50 0 -84 -33h1q-11 -9 -21 -20.5t-21 -26.5q-13 -17 -22 -29.5t-14 -21.5q-35 -54 -57 -96h5q-8 -1 -13.5 -2
t-10.5 -3q-5 -1 -10.5 -2t-10.5 -2q-6 -2 -10.5 -2.5t-7.5 -1.5q-4 -2 -7 -2q-13 -5 -21 -13q-14 -12 -14 -21q2 -20 10 -39t16 -27q7 -4 24 -7h-6q-6 -19 -12 -34t-11 -28q-2 -6 -3 -8q-6 -17 -10.5 -34.5t-9.5 -39.5q-6 -47 -6 -79t2.5 -57.5t9.5 -43.5q7 -19 19 -39
t32 -41q37 -42 117 -42q13 0 34 6t53 18q14 8 24 14t17 14h-1q156 112 156 183q0 25 -14 39.5t-36 14.5q-26 0 -44 -20l-13 -13t-11 -13q-11 -11 -21.5 -23t-22.5 -23h1q-27 -23 -45 -38t-28 -20q-37 -26 -66 -26q-31 0 -50 33h1q-18 30 -18 85v11t1 12h-2q9 0 33 3
q32 2 58.5 5t49.5 6q6 1 12 1t7 1h5q13 5 20 21q4 15 4 28z" />
    <glyph glyph-name="yen" unicode="&#xa5;" horiz-adv-x="485" 
d="M398 195q0 20 -7 32t-21 20q-12 5 -30 8.5t-41 3.5h-8t-14 -1q1 2 1 3q0 2 1 4q2 8 4 14q0 1 0.5 0.5l0.5 -0.5v1q0 12 7 37h-8l30 2q4 0 6 0.5l6 1.5q5 1 10.5 2t7.5 2h-1q19 3 27 3q25 0 32.5 6.5t7.5 25.5v19q0 21 -35 38q-14 5 -28.5 8t-28.5 4h6q24 55 61 117
t89 131q7 8 9 13q8 10 11 14l3 4h-1q7 11 7 33q0 60 -49 60q-31 0 -86 -75q-17 -23 -33 -48t-32 -51h1q-2 -2 -5 -6t-5 -6l-11 -22l-10 -18t-10 -20l-27 -51q-5 0 -35 44q-11 16 -20 30t-17 29q-8 20 -13.5 34t-9.5 24q1 -1 1 -2v0h1q0 2 -5 13t-7 16q-1 2 -2.5 5.5
t-3.5 5.5h2l-16 54q-20 48 -52 48q-24 0 -37 -20t-13 -48t19 -86q12 -39 32 -84q17 -38 38.5 -72t50.5 -65h-2q2 -3 14 -12h3q-9 -2 -18.5 -3t-19.5 -3q-8 -2 -13.5 -3t-9.5 -2t-7 -1q-17 -4 -27 -11h1q-19 -13 -19 -19q2 -18 12 -35t22 -25q19 -7 44 -7h9q5 0 11 1l27 1
l-10 -61h5q-17 -3 -30 -4.5t-22 -2.5q-20 -2 -24 -3h1q-14 -3 -23.5 -14t-9.5 -22q0 -27 30 -48q21 -19 54 -20l-8 -51v-3q0 -27 15 -51q15 -26 41 -26q9 0 16 3.5t15 10.5q4 4 8.5 19t11.5 40q5 20 8 35.5t5 27.5h-5q14 1 27.5 1.5t27.5 2.5q8 1 15.5 1.5t14.5 1.5
q11 1 16 1.5t8 0.5h5q17 4 24 19q7 13 7 26z" />
    <glyph glyph-name="dieresis" unicode="&#xa8;" horiz-adv-x="434" 
d="M66 934v-5q0 -31 15 -49.5t36 -18.5h3q11 0 20 5.5t15.5 13.5t10.5 17t5 16q3 9 3 21q0 18 -9.5 35t-29.5 26q-8 4 -18 4q-22 0 -35.5 -19.5t-15.5 -45.5zM241 934v-7q0 -31 15 -49t36 -18h3q11 0 20 5.5t15.5 13.5t10 17t5.5 16q1 5 1.5 10t0.5 12q0 17 -9 34t-29 26
q-9 4 -19 4q-22 0 -35 -19.5t-15 -44.5z" />
    <glyph glyph-name="copyright" unicode="&#xa9;" horiz-adv-x="570" 
d="M562 494q0 7 -1.5 19.5t-3.5 30.5q-4 18 -6.5 30t-4.5 17q-8 17 -20.5 35t-29.5 36q-35 38 -67 51q-6 2 -11 4t-7 3q-24 8 -46 16.5t-50 8.5q-51 0 -82 -11q-32 -11 -49.5 -17t-19.5 -8q-16 -11 -26.5 -19t-18.5 -14q-27 -15 -55 -58q-27 -41 -35 -73q-13 -46 -13 -67
q0 -16 1 -32.5t3 -33.5q2 -13 7.5 -27.5t15.5 -31.5q9 -16 13 -26q32 -41 113 -74q23 -8 46.5 -13t47.5 -5q26 0 47 3.5t38 8.5q70 25 122 68q61 49 78 111q5 17 9.5 33t4.5 35zM494 510q0 -35 -32 -79q-13 -20 -28 -35t-31 -26q-49 -35 -74 -43q-46 -11 -78 -11
q-18 0 -47 7q-16 3 -26.5 6.5t-16.5 6.5q-48 26 -59 44q-10 19 -15.5 37t-5.5 36q0 13 3.5 27t9.5 34q20 64 85 107q58 39 132 39q69 0 115 -32.5t63 -96.5q5 -20 5 -21zM379 433q0 14 -8.5 25t-21.5 11q-11 0 -50 -19q-42 -20 -75 -20q-22 0 -22 20q0 22 20 45q60 69 92 69
q6 0 11 -2t13 -7l15 -9q5 0 9 6.5t4 11.5q0 3 -10 22q-18 37 -60 37q-21 0 -50 -20l-12 -7.5t-8 -4.5q-14 -13 -25.5 -25.5t-22.5 -28.5q-27 -38 -27 -65q0 -107 91 -107q17 0 37 5t44 14q56 21 56 49z" />
    <glyph glyph-name="ordfeminine" unicode="&#xaa;" horiz-adv-x="368" 
d="M195 592q17 6 33 10.5t34 4.5q2 0 6.5 -9l5.5 -11l-2 -23q-99 -7 -164 -39.5t-76 -99.5q0 -2 -0.5 -5.5t-0.5 -5.5q0 -15 6.5 -32t18 -31.5t26.5 -24t32 -9.5q41 0 79 14t64 25h1q0 -14 4.5 -21.5t22.5 -7.5q27 0 38 14.5t11 43.5l14 204q0 25 -5 40.5t-14 24.5t-21 12
t-26 3q-41 0 -86.5 -9.5t-82.5 -35.5q-14 -7 -24 -14t-12 -28q0 -13 7.5 -15.5t21.5 -2.5t30 6.5t23 9.5q10 3 18.5 6t17.5 6zM310 181q28 0 42.5 11.5t14.5 27.5t-17.5 29t-55.5 13h-190q-5 0 -12.5 -0.5t-13.5 -1.5q-4 -1 -7 -1h-4q-29 0 -43.5 -12t-14.5 -26
q0 -16 16 -27.5t48 -11.5l10 -2zM135 387h-12q-19 4 -22 8.5t-3 24.5v3q3 33 47.5 51t122.5 32l3 -55q-2 -3 -13.5 -13t-30 -21.5t-42.5 -20.5t-50 -9zM160 581l-1 -1v0q0 1 1 1z" />
    <glyph glyph-name="guillemotleft" unicode="&#xab;" horiz-adv-x="426" 
d="M208 546h-3q-17 0 -33 -11l-119 -78q-16 -7 -29 -20t-16 -30q0 -3 -0.5 -5.5t-0.5 -4.5q0 -14 5 -20t13 -11l96 -115l3 -3v1q7 -11 13.5 -17t19.5 -9h9q11 0 20 8t19 32v-1q2 4 2.5 6.5t1.5 5.5v6q0 9 -5 19t-19 23l-63 76l77 50q23 11 32.5 27t10.5 25q0 1 0.5 2t0.5 3
q0 5 -3 8q-5 19 -11.5 25t-20.5 8zM426 540h-3q-17 0 -33 -11l-119 -78q-16 -7 -29 -20t-16 -30q0 -3 -0.5 -5.5t-0.5 -4.5q0 -14 5 -20t13 -11l96 -115l3 -3v1q7 -11 13.5 -17t19.5 -9h9q11 0 20 8t19 32v-1q2 4 2.5 6.5t1.5 5.5v6q0 9 -5 19t-19 23l-63 76l77 50
q23 11 32.5 27t10.5 25q0 1 0.5 2t0.5 3q0 5 -3 8q-5 19 -11.5 25t-20.5 8z" />
    <glyph glyph-name="logicalnot" unicode="&#xac;" horiz-adv-x="949" 
d="M860 173q28 17 46 32q17 14 28.5 30t11.5 35q0 8 -3 17q-5 22 -16.5 37.5t-27.5 29.5q-14 11 -35.5 16.5t-47.5 5.5q-42 0 -87 -10.5t-77 -25.5q-2 -31 -7 -67.5t-10.5 -73t-11 -71.5t-8.5 -64q-1 -4 -1.5 -7t-0.5 -6q0 -10 5 -16t13 -16q13 -11 23.5 -18.5t26.5 -13.5
q8 -5 14 -7.5t14 -2.5t28 5q16 4 35.5 11t38.5 15.5t36.5 18.5t29.5 22q14 12 22 24t8 28q0 4 -2 14q-2 17 -15 33t-30 25zM503 78q2 -20 4 -36.5t4 -31.5q3 -14 8 -19.5t16 -8.5q12 -5 23 -5.5t24 -0.5q12 0 15.5 3.5t3.5 12.5q-5 68 -8.5 143t-3.5 135v28q0 14 1 25
q0 12 -4.5 18.5t-18.5 11.5q-18 5 -39.5 9.5t-55.5 6.5h-7q-17 0 -26 -6t-15 -16q-19 -30 -41 -70.5t-43.5 -83.5t-40.5 -84.5t-32 -74.5q-4 -11 -4 -18q0 -9 5 -13t13 -10q8 -4 15.5 -7t13.5 -6q9 -3 13 -3q7 0 13 11q8 16 15.5 32.5t18.5 35.5q27 8 62.5 12.5t70.5 9.5z
M660 718q1 4 1 9t-3 9.5t-12 9.5q-25 16 -52 22q-5 1 -8.5 1.5t-6.5 0.5q-11 0 -15 -15q-10 -33 -19 -76t-20 -88q-17 -2 -35.5 -3t-38.5 -3q11 38 18.5 70t15.5 55q0 2 0.5 4t0.5 4q0 12 -16 21q-13 8 -27.5 13.5t-27.5 9.5q-9 3 -15 3q-12 0 -15 -16q-7 -33 -14 -75.5
t-15 -86t-16.5 -85t-17.5 -74.5q-1 -4 -1 -10q0 -14 17 -23q10 -6 23 -9.5t24 -6.5q4 -1 6.5 -1.5t4.5 -0.5q10 0 12 12q6 24 11 53.5t14 62.5q19 3 38.5 5.5t38.5 5.5q-5 -27 -8 -49.5t-5 -40.5q-1 -3 -1 -9q0 -13 11 -20t28 -12q11 -3 19.5 -5.5t15.5 -2.5q12 0 12 12
q7 40 17.5 85t21 89t21 84t18.5 71zM697 738l-54 -289q-1 -3 -1 -8q0 -10 4 -17.5t10 -13.5q9 -9 17 -14.5t16 -11.5q5 -3 10.5 -5.5t15.5 -2.5q8 0 22 3q29 5 61 11.5t63 12.5q17 4 17 11q0 3 -3 9q-3 9 -6.5 17.5t-8.5 18.5q-9 13 -26 13h-9q-23 -2 -43.5 -3.5t-42.5 -6.5
q5 14 7.5 27.5t7.5 27.5q27 6 56 10.5t57 9.5q18 4 18 11q0 3 -3 9q-3 9 -6.5 17.5t-8.5 17.5q-8 13 -27 13h-6q-32 0 -55 -4q7 23 12.5 43.5t12.5 38.5q31 5 59 7.5t54 5.5q17 3 17 11q0 5 -1 8q-2 9 -5 16.5t-8 17.5q-9 17 -32 17q-51 -2 -102 -10.5t-89 -17.5zM343 703
q10 1 13 2.5t3 6.5t-1 8q-10 23 -24 40q-5 5 -11 7.5t-20 2.5q-25 -1 -56.5 -3.5t-65 -5.5t-65.5 -7t-58 -8q-11 -2 -11 -9q0 -2 0.5 -3.5l1.5 -4.5q5 -8 11.5 -21t16.5 -22q11 -11 21 -11q3 0 6 0.5t7 1.5q8 2 19.5 3.5t24.5 3.5q-7 -29 -15 -63.5t-14.5 -69.5t-12 -67.5
t-7.5 -55.5q-1 -3 -1 -9q0 -14 11.5 -21.5t28.5 -12.5q11 -3 20 -6t16 -3q12 0 13 12q7 36 15.5 75t18 79t19.5 79.5t19 74.5q20 2 40 3.5t37 3.5zM235 6q17 4 17 9q0 2 -0.5 4.5t-1.5 6.5q-4 9 -7.5 18t-8.5 17q-8 8 -13 11t-15 3h-6q-23 -2 -42.5 -4t-42.5 -5q8 31 17 65
t18 67t18 63.5t18 55.5q2 6 2 9q0 9 -16 19q-26 14 -57 21q-5 2 -13 2q-11 0 -17 -14q-10 -30 -21 -71t-20.5 -84t-17 -82.5t-11.5 -67.5v-6q0 -17 14 -31q11 -9 18 -14.5t15 -11.5q5 -3 10.5 -6t14.5 -3q10 0 22 4q29 6 61.5 12.5t64.5 12.5zM291 226q6 6 13 16t14 21.5
t13 23.5t10 22q1 6 1.5 10t0.5 6q0 8 -7 16q-6 5 -13.5 10.5t-15.5 10.5q-9 6 -15 6q-9 0 -14 -11q-6 -13 -14.5 -30t-17.5 -34t-17.5 -33t-14.5 -27q-2 -6 -2 -8q0 -9 15 -12q6 -1 12 -1.5t12 -0.5t9 1q9 0 16 3.5t15 10.5zM739 205q5 23 10 42.5t12 37.5q40 17 68 17
q21 0 26 -10q0 -1 0.5 -1.5t0.5 -1.5q0 -8 -8 -18.5t-23.5 -22.5t-37 -23t-48.5 -20zM413 143q23 42 43 80t38 68q0 -33 1 -68t4 -71q-23 -2 -44 -4t-42 -5zM719 130q30 10 53 10q31 0 36 -14v-3q0 -16 -29 -35.5t-78 -31.5q5 19 9 37t9 37z" />
    <glyph glyph-name="registered" unicode="&#xae;" horiz-adv-x="607" 
d="M598 561q0 94 -23 138q-29 59 -104 96q-66 30 -117 30q-1 0 -18 -1t-50 -3q-14 -1 -34 -5t-46 -12q-52 -17 -72 -31q-35 -24 -52.5 -36.5t-19.5 -13.5q-44 -39 -44 -70q0 -5 2 -14t2 -14v-6q0 -1 -0.5 -4t-1.5 -8q-4 -21 -5 -47.5t-1 -58.5q0 -29 10 -62q2 -8 3.5 -13.5
t2.5 -10.5q4 -8 7.5 -13t5.5 -9q8 -11 11.5 -18t5.5 -9q53 -81 126 -88q16 -2 27 -3t19 -2q17 -4 24 -4h26q38 0 74 17q45 23 74 39.5t42 27.5q21 18 39 35.5t35 37.5q27 33 44 94q5 17 6.5 27t1.5 14zM516 581q0 -86 -85 -147h-7v10q0 11 -1 17.5t-3 11.5q-2 2 -7 7.5
l-15 16.5q-11 11 -15.5 16l-4.5 5q0 2 19 24q12 16 16 29q11 28 11 62q0 33 -39 51q-28 14 -68 14q-16 0 -35 -3t-42 -11q-56 -15 -66 -34q-6 -9 -6 -21q0 -5 1.5 -16t1.5 -16v-125q0 -8 -2 -22.5t-2 -22.5q0 -14 12 -28.5t25 -14.5q23 0 28 41q8 47 9 47q12 9 37 9
q24 0 62 -24q14 -10 28.5 -19t28.5 -20l-1 -5q-100 -70 -156 -70q-46 0 -90 26q-42 25 -56 70q-4 9 -6 14.5t-4 10.5q-6 24 -6 35t2 23t6 29q2 17 6 29.5t7 20.5q54 134 242 134q108 0 156 -86q13 -23 13 -31q4 -11 5 -20t1 -17zM319 579q-5 -4 -12.5 -6.5l-19.5 -6.5
q-10 -3 -18 -5t-14 -2q-15 0 -15 16q0 21 6 26q16 18 75 18q8 0 14.5 -0.5t12.5 -1.5q1 -9 2 -9q-2 -11 -31 -29z" />
    <glyph glyph-name="macron" unicode="&#xaf;" horiz-adv-x="368" 
d="M314 854q28 0 42.5 11.5t14.5 27.5t-17.5 29t-55.5 13h-190q-5 0 -12.5 -0.5t-13.5 -1.5q-4 -1 -7 -1h-4q-29 0 -43.5 -12t-14.5 -26q0 -16 16 -27.5t48 -11.5l10 -2z" />
    <glyph glyph-name="degree" unicode="&#xb0;" horiz-adv-x="253" 
d="M226 782q-25 13 -62 18h-8q-12 0 -25 -3t-23 -9q-38 -24 -57.5 -63t-19.5 -77q0 -31 13 -53q5 -9 14 -16t18 -11q12 -6 26.5 -8.5t28.5 -3.5q5 -1 9 -1h8q15 0 27 3.5t23 11.5q32 26 46.5 64.5t14.5 74.5q0 22 -4 37q-4 11 -10 19.5t-19 16.5zM175 757q8 -2 11 -12.5
t3 -24.5q0 -13 -2 -27t-7 -26q-9 -31 -24.5 -52t-29.5 -21q-3 0 -5 1q-8 2 -12 12.5t-4 24.5q0 12 2 25.5t7 25.5q4 12 11.5 25.5t15.5 24t16.5 17.5t15.5 7h2z" />
    <glyph glyph-name="plusminus" unicode="&#xb1;" horiz-adv-x="346" 
d="M373 520q0 42 -30 51q-20 4 -35 5.5t-26 2.5q-32 3 -33 7q-11 11 -11 36q0 6 1 17t2 22.5t2 22t1 16.5q0 66 -42 66q-28 0 -37 -44q-2 -8 -3 -26.5t-2 -46.5q-2 -20 -2.5 -34t-2.5 -25q-3 -25 -52 -25q-37 0 -54 -5q-30 -11 -30 -48q0 -21 8 -40q10 -28 50 -28q4 0 13 1
t15 1q25 0 25 -25q0 -8 -0.5 -18t-1.5 -24t-1.5 -25t-0.5 -18q0 -80 41 -80q18 0 24 11q8 11 15 50q4 17 6 30.5t4 23.5q4 32 17 54q15 27 37 27h61q17 0 32 22q10 16 10 46zM334 167q0 54 -45 54q-7 0 -11 -1l-102 -10l-39 -4.5l-13 -1.5h-87q-7 0 -16 -12q-8 -11 -8 -21
q0 -42 17 -65t49 -23h36l8.5 1l25.5 3l71 6h60q27 0 40.5 19.5t13.5 54.5z" />
    <glyph glyph-name="acute" unicode="&#xb4;" horiz-adv-x="451" 
d="M154 905q0 -40 40 -40q25 0 40 17q8 10 19 28t25 45l7.5 16.5l7.5 16.5q3 6 7 12.5t7 13.5l-1 -1q10 13 22 32t27 45q5 9 7 17t2 15q0 21 -15.5 36.5t-36.5 15.5q-31 0 -62 -51l-38 -73q-58 -103 -58 -145z" />
    <glyph glyph-name="paragraph" unicode="&#xb6;" horiz-adv-x="468" 
d="M378 611q-53 0 -109.5 -20t-104.5 -58t-80.5 -93.5t-36.5 -126.5v1q-1 -6 -1 -13v-11q0 -72 34 -113t98 -41h16q9 0 17 1l-14 -226v-7q0 -31 13.5 -46t31.5 -15q8 0 13 2l-1 -1q17 4 28.5 12.5t18.5 23.5t11.5 37t7.5 55l42 528h6q1 0 2.5 0.5t3.5 0.5q3 0 6.5 -1.5
t7.5 -8.5l-48 -571v-9q0 -30 13.5 -45t32.5 -15h5t8 2l-1 -1q17 4 28.5 12t18.5 23t11 37.5t7 55.5l36 566v3q0 20 -13.5 32t-32.5 19t-40 9t-35 2z" />
    <glyph glyph-name="periodcentered" unicode="&#xb7;" horiz-adv-x="172" 
d="M177 435q0 26 -27 44q-23 17 -50 17q-49 0 -62 -28q-10 -21 -10 -40q0 -32 17.5 -53t49.5 -21q31 0 56 25q26 26 26 56z" />
    <glyph glyph-name="periodcentered" unicode="&#x2219;" horiz-adv-x="172" 
d="M177 435q0 26 -27 44q-23 17 -50 17q-49 0 -62 -28q-10 -21 -10 -40q0 -32 17.5 -53t49.5 -21q31 0 56 25q26 26 26 56z" />
    <glyph glyph-name="cedilla" unicode="&#xb8;" horiz-adv-x="362" 
d="M149 38l-99 -74q-11 -7 -15 -10t-4 -14q0 -1 25 -1h59q5 0 18.5 1t30.5 1q12 0 24.5 -1t22.5 -3.5t16.5 -7.5t6.5 -13v-1q-25 -24 -57.5 -30.5t-63 -7.5t-55 -3.5t-34.5 -20.5q-2 -4 -2 -6q0 -6 7.5 -11t20.5 -8.5t28.5 -5.5t32.5 -2q32 0 68.5 5.5t67 15.5t50.5 24
t20 31v11q0 20 -13 35t-31 27q-17 8 -33 14t-36 8l58 47h-113z" />
    <glyph glyph-name="ordmasculine" unicode="&#xba;" horiz-adv-x="337" 
d="M352 549q-5 27 -17 45t-27.5 30t-33.5 20t-34 15q-14 5 -25 6.5t-22 1.5q-32 0 -58 -15.5t-47 -39.5t-37.5 -54.5t-28.5 -60.5q-5 -15 -7.5 -29t-2.5 -27q0 -32 11 -61t28 -48q18 -20 42 -29t50 -9q19 0 39 3q34 9 57.5 23t46.5 28q5 3 8 5.5t8 4.5h-1q32 19 44 56t12 79
q0 27 -5 55v1zM31 159q6 -12 20.5 -16t36.5 -4q9 0 19 0.5t21 0.5h2q12 0 30.5 0.5t37.5 1.5t35 2.5t21 3.5h15q20 0 28.5 1.5t16.5 8.5q7 4 9 8.5t2 12.5q-5 11 -8 21t-7 14q-20 24 -50 30.5t-64 6.5h-33q-7 0 -15 -1t-15 -1q-38 0 -57 -0.5t-27 -2.5q-15 -4 -23 -8.5
t-8 -19.5v-4q0 -4 1 -6v-7q2 -8 4.5 -21t7.5 -21zM283 478q-9 -22 -27 -37t-39.5 -24.5t-43 -13.5t-37.5 -4q-14 0 -22.5 4.5t-11.5 19.5q0 3 -0.5 7t-0.5 9q0 30 8.5 51t21.5 36.5t28 26.5t27 21q3 3 6 3.5t8 0.5q12 0 27 -6.5t28.5 -17.5t22.5 -26t9 -32q0 -10 -3 -16z
" />
    <glyph glyph-name="guillemotright" unicode="&#xbb;" horiz-adv-x="399" 
d="M233 216h3q16 0 33 11l119 78q16 7 29 20t16 30q0 3 0.5 5.5t0.5 4.5q0 14 -5 20t-13 11l-99 118v-1q-7 11 -13.5 17t-19.5 9h-9q-11 0 -20 -8t-19 -32v1q-2 -4 -2.5 -6.5t-1.5 -5.5v-6q0 -9 5 -19t19 -23l63 -76l-77 -50q-23 -11 -32.5 -27t-10.5 -25q0 -1 -0.5 -2
t-0.5 -3q0 -5 3 -8q5 -19 11.5 -25t20.5 -8zM15 222h3q16 0 33 11l119 78q16 7 29 20t16 30q0 3 0.5 5.5t0.5 4.5q0 14 -5 20t-13 11l-99 117q-7 11 -13.5 17t-19.5 9h-9q-11 0 -20 -8t-19 -32v1q-2 -4 -2.5 -6.5t-1.5 -5.5v-6q0 -9 5 -19t19 -23l63 -76l-77 -50
q-23 -11 -32.5 -27t-10.5 -25q0 -1 -0.5 -2t-0.5 -3q0 -5 3 -8q5 -19 11.5 -25t20.5 -8z" />
    <glyph glyph-name="questiondown" unicode="&#xbf;" horiz-adv-x="656" 
d="M11 185q-3 -12 -3 -24q0 -43 36 -85q44 -47 99 -58q21 -4 49 -6t66 -2q61 0 93 7q97 13 130 24q153 45 167 108q1 3 1 9q0 14 -9.5 22.5t-24.5 8.5q-22 0 -61 -16q-30 -11 -46 -17t-18 -7q-20 -5 -46.5 -10t-59.5 -10q-34 -5 -60 -7.5t-46 -2.5h-2q-150 0 -150 60
q0 7 1 11q13 64 150 111q17 6 29 9.5t20 5.5q21 3 50.5 9.5t69.5 15.5q19 5 33 8t22 5q20 5 34.5 23t19.5 38v21v18q0 118 -39 118q-33 0 -60 -77l-6 -17q-6 -6 -12.5 -11t-14.5 -7q-2 -1 -9.5 -2t-21.5 -3q-33 -5 -71.5 -17t-83.5 -32q-93 -40 -143 -84
q-13 -12 -25.5 -27.5t-25.5 -36.5q-11 -22 -20 -39.5t-12 -33.5zM424 716q-1 -3 -1 -10q0 -21 20 -38q23 -17 50 -17q53 0 73 30l12 18l4 6q5 25 5 39q0 59 -56 59q-33 0 -66 -27q-34 -26 -41 -60z" />
    <glyph glyph-name="Agrave" unicode="&#xc0;" 
d="M435 45q0 16 -1.5 32.5t-6.5 35.5l-3 15q-3 13 -5 25.5t-6 24.5q-5 20 -9 46t-6 44q-1 8 -1 11t-1 9q0 10 3 14q7 13 12 19h-1l5 5v-1q6 16 6 38v6q-6 22 -31 32h1q-14 8 -22 25h1q-2 8 -3 13q-2 11 -4.5 24t-5.5 29l-35 187q-2 8 -3 15t-3 14q-4 19 -6 30.5t-4 18.5
q-14 41 -51 41q-9 0 -21 -6q-17 -7 -18 -12q-3 -7 -5.5 -12.5t-4.5 -10.5q-5 -15 -9 -23q-18 -43 -31 -80.5t-22 -70.5q-14 -51 -26.5 -94t-23.5 -79q-16 -52 -29 -97.5t-21 -85.5q-3 -11 -6 -21.5t-6 -21.5q-2 -11 -4.5 -21.5t-5.5 -21.5q-16 -54 -16 -82q0 -22 16 -38
q12 -13 35 -13q28 0 35 16q8 20 9.5 26.5t3.5 11.5q0 2 0.5 3t0.5 2l23 89q7 36 12 45q3 11 7.5 16.5t10.5 9.5h-2q2 1 4 1.5t5 1.5q5 2 11 3.5t13 4.5l37 18h-1q5 2 9.5 3.5t8.5 3.5q26 11 43 14q2 -6 9 -12h-3q4 -15 5.5 -25.5t3.5 -18.5q0 -2 0.5 -3t0.5 -3
q5 -24 7.5 -44t5.5 -37q3 -22 6 -35q5 -29 7.5 -45t3.5 -20q9 -32 60 -32q42 0 42 43zM417 895q0 42 -58 145l-38 73q-32 51 -62 51q-21 0 -36.5 -15.5t-15.5 -36.5q0 -7 2 -15t7 -17q15 -26 27 -45t22 -32l-1 1q3 -7 7 -13.5t7 -12.5l7.5 -16.5l7.5 -16.5q14 -27 25 -45
t19 -28q15 -17 40 -17q40 0 40 40zM265 398q-8 -14 -24 -20l-35 -11h-12q-2 4 -2 8v8q0 6 21 90q1 3 2 6.5t2 7.5q6 25 11.5 43.5t10.5 29.5q2 -10 4.5 -28t6.5 -44q9 -48 12 -74q1 -4 1.5 -7.5t1.5 -8.5z" />
    <glyph glyph-name="Aacute" unicode="&#xc1;" 
d="M435 45q0 16 -1.5 32.5t-6.5 35.5l-3 15q-3 13 -5 25.5t-6 24.5q-5 20 -9 46t-6 44q-1 8 -1 11t-1 9q0 10 3 14q7 13 12 19h-1q4 4 5 4q6 16 6 38v6q-6 22 -31 32h1q-14 8 -22 25h1q-2 8 -3 13q-2 11 -4.5 24t-5.5 29l-35 187q-2 8 -3 15t-3 14q-4 19 -6 30.5t-4 18.5
q-14 41 -51 41q-9 0 -21 -6q-17 -7 -18 -12q-3 -7 -5.5 -12.5t-4.5 -10.5q-5 -15 -9 -23q-18 -43 -31 -80.5t-22 -70.5q-14 -51 -26.5 -94t-23.5 -79q-16 -52 -29 -97.5t-21 -85.5q-3 -11 -6 -21.5t-6 -21.5q-2 -11 -4.5 -21.5t-5.5 -21.5q-16 -54 -16 -82q0 -22 16 -38
q12 -13 35 -13q28 0 35 16q8 20 9.5 26.5t3.5 11.5q0 2 0.5 3t0.5 2l23 89q7 36 12 45q3 11 7.5 16.5t10.5 9.5h-2q2 1 4 1.5t5 1.5q5 2 11 3.5t13 4.5l37 18h-1q5 2 9.5 3.5t8.5 3.5q26 11 43 14q2 -6 9 -12h-3q4 -15 5.5 -25.5t3.5 -18.5q0 -2 0.5 -3t0.5 -3
q5 -24 7.5 -44t5.5 -37q3 -22 6 -35q5 -29 7.5 -45t3.5 -20q9 -32 60 -32q42 0 42 43zM265 901q0 -40 40 -40q25 0 40 17q8 10 19 28t25 45l7.5 16.5l7.5 16.5q3 6 7 12.5t7 13.5l-1 -1q10 13 22 32t27 45q5 9 7 17t2 15q0 21 -15.5 36.5t-36.5 15.5q-31 0 -62 -51l-38 -73
q-58 -103 -58 -145zM265 398q-8 -14 -24 -20l-35 -11h-12q-2 4 -2 8v8q0 6 21 90q1 3 2 6.5t2 7.5q6 25 11.5 43.5t10.5 29.5q2 -10 4.5 -28t6.5 -44q9 -48 12 -74q1 -4 1.5 -7.5t1.5 -8.5z" />
    <glyph glyph-name="Acircumflex" unicode="&#xc2;" 
d="M435 45q0 16 -1.5 32.5t-6.5 35.5l-3 15q-3 13 -5 25.5t-6 24.5q-5 20 -9 46t-6 44q-1 8 -1 11t-1 9q0 10 3 14q7 13 12 19h-1l5 5v-1q6 16 6 38v6q-6 22 -31 32h1q-14 8 -22 25h1q-2 8 -3 13q-2 11 -4.5 24t-5.5 29l-35 187q-2 8 -3 15t-3 14q-4 19 -6 30.5t-4 18.5
q-14 41 -51 41q-9 0 -21 -6q-17 -7 -18 -12q-3 -7 -5.5 -12.5t-4.5 -10.5q-5 -15 -9 -23q-18 -43 -31 -80.5t-22 -70.5q-14 -51 -26.5 -94t-23.5 -79q-16 -52 -29 -97.5t-21 -85.5q-3 -11 -6 -21.5t-6 -21.5q-2 -11 -4.5 -21.5t-5.5 -21.5q-16 -54 -16 -82q0 -22 16 -38
q12 -13 35 -13q28 0 35 16q8 20 9.5 26.5t3.5 11.5q0 2 0.5 3t0.5 2l23 89q7 36 12 45q3 11 7.5 16.5t10.5 9.5h-2q2 1 4 1.5t5 1.5q5 2 11 3.5t13 4.5l37 18h-1q5 2 9.5 3.5t8.5 3.5q26 11 43 14q2 -6 9 -12h-3q4 -15 5.5 -25.5t3.5 -18.5q0 -2 0.5 -3t0.5 -3
q5 -24 7.5 -44t5.5 -37q3 -22 6 -35q5 -29 7.5 -45t3.5 -20q9 -32 60 -32q42 0 42 43zM469 866q18 1 18 9q0 3 -3 8q-8 15 -17 33.5t-18.5 39t-18.5 41.5t-16 41q-4 13 -9.5 18t-13.5 11q-11 5 -22 8.5t-21 8.5q-8 3 -15 3q-13 0 -22 -13q-19 -18 -38 -39.5t-35.5 -43
t-30.5 -40.5t-24 -33q-4 -5 -4 -11q0 -11 9 -18q8 -8 17 -14t17 -11q6 -2 9.5 -3.5t7.5 -1.5q7 1 13 9q18 23 40 50.5t48 56.5q14 -28 25.5 -52.5t20.5 -41.5q13 -15 36 -17q5 -1 15 -1q8 0 16 1zM265 398q-8 -14 -24 -20l-35 -11h-12q-2 4 -2 8v8q0 6 21 90q1 3 2 6.5
t2 7.5q6 25 11.5 43.5t10.5 29.5q2 -10 4.5 -28t6.5 -44q9 -48 12 -74q1 -4 1.5 -7.5t1.5 -8.5z" />
    <glyph glyph-name="Atilde" unicode="&#xc3;" 
d="M435 45q0 16 -1.5 32.5t-6.5 35.5l-3 15q-3 13 -5 25.5t-6 24.5q-5 20 -9 46t-6 44q-1 8 -1 11t-1 9q0 10 3 14q7 13 12 19h-1l5 5v-1q6 16 6 38v6q-6 22 -31 32h1q-14 8 -22 25h1q-2 8 -3 13q-2 11 -4.5 24t-5.5 29l-35 187q-2 8 -3 15t-3 14q-4 19 -6 30.5t-4 18.5
q-14 41 -51 41q-9 0 -21 -6q-17 -7 -18 -12q-3 -7 -5.5 -12.5t-4.5 -10.5q-5 -15 -9 -23q-18 -43 -31 -80.5t-22 -70.5q-14 -51 -26.5 -94t-23.5 -79q-16 -52 -29 -97.5t-21 -85.5q-3 -11 -6 -21.5t-6 -21.5q-2 -11 -4.5 -21.5t-5.5 -21.5q-16 -54 -16 -82q0 -22 16 -38
q12 -13 35 -13q28 0 35 16q8 20 9.5 26.5t3.5 11.5q0 2 0.5 3t0.5 2l23 89q7 36 12 45q3 11 7.5 16.5t10.5 9.5h-2q2 1 4 1.5t5 1.5q5 2 11 3.5t13 4.5l37 18h-1q5 2 9.5 3.5t8.5 3.5q26 11 43 14q2 -6 9 -12h-3q4 -15 5.5 -25.5t3.5 -18.5q0 -2 0.5 -3t0.5 -3
q5 -24 7.5 -44t5.5 -37q3 -22 6 -35q5 -29 7.5 -45t3.5 -20q9 -32 60 -32q42 0 42 43zM399 865q30 0 67 37q39 36 39 65q0 13 -13 23q-11 7 -24 7q-14 0 -28 -14q-2 -3 -7 -9t-10.5 -13t-10.5 -11.5t-8 -4.5q-19 2 -37 15t-35 20q-15 7 -28 10.5t-27 3.5q-12 0 -29 -7.5
t-33.5 -18.5t-30 -24t-18.5 -23q-6 -14 -6 -26q0 -28 31 -28q19 0 30 10q1 0 6 5t11 11.5t13 11.5t13 5q7 0 17 -2t20 -5.5t19 -8t14 -9.5q20 -20 65 -20zM265 398q-8 -14 -24 -20l-35 -11h-12q-2 4 -2 8v8q0 6 21 90q1 3 2 6.5t2 7.5q6 25 11.5 43.5t10.5 29.5
q2 -10 4.5 -28t6.5 -44q9 -48 12 -74q1 -4 1.5 -7.5t1.5 -8.5z" />
    <glyph glyph-name="Adieresis" unicode="&#xc4;" 
d="M435 45q0 16 -1.5 32.5t-6.5 35.5l-3 15q-3 13 -5 25.5t-6 24.5q-5 20 -9 46t-6 44q-1 8 -1 11t-1 9q0 10 3 14q7 13 12 19h-1l5 5v-1q6 16 6 38v6q-6 22 -31 32h1q-14 8 -22 25h1q-2 8 -3 13q-2 11 -4.5 24t-5.5 29l-35 187q-2 8 -3 15t-3 14q-4 19 -6 30.5t-4 18.5
q-14 41 -51 41q-9 0 -21 -6q-17 -7 -18 -12q-3 -7 -5.5 -12.5t-4.5 -10.5q-5 -15 -9 -23q-18 -43 -31 -80.5t-22 -70.5q-14 -51 -26.5 -94t-23.5 -79q-16 -52 -29 -97.5t-21 -85.5q-3 -11 -6 -21.5t-6 -21.5q-2 -11 -4.5 -21.5t-5.5 -21.5q-16 -54 -16 -82q0 -22 16 -38
q12 -13 35 -13q28 0 35 16q8 20 9.5 26.5t3.5 11.5q0 2 0.5 3t0.5 2l23 89q7 36 12 45q3 11 7.5 16.5t10.5 9.5h-2q2 1 4 1.5t5 1.5q5 2 11 3.5t13 4.5l37 18h-1q5 2 9.5 3.5t8.5 3.5q26 11 43 14q2 -6 9 -12h-3q4 -15 5.5 -25.5t3.5 -18.5q0 -2 0.5 -3t0.5 -3
q5 -24 7.5 -44t5.5 -37q3 -22 6 -35q5 -29 7.5 -45t3.5 -20q9 -32 60 -32q42 0 42 43zM195 927v-5q0 -31 15 -49.5t36 -18.5h3q11 0 20 5.5t15.5 13.5t10.5 17t5 16q3 9 3 21q0 18 -9.5 35t-29.5 26q-8 4 -18 4q-22 0 -35.5 -19.5t-15.5 -45.5zM370 927v-7q0 -31 15 -49
t36 -18h3q11 0 20 5.5t15.5 13.5t10 17t5.5 16q1 5 1.5 10t0.5 12q0 17 -9 34t-29 26q-9 4 -19 4q-22 0 -35 -19.5t-15 -44.5zM265 398q-8 -14 -24 -20l-35 -11h-12q-2 4 -2 8v8q0 6 21 90q1 3 2 6.5t2 7.5q6 25 11.5 43.5t10.5 29.5q2 -10 4.5 -28t6.5 -44q9 -48 12 -74
q1 -4 1.5 -7.5t1.5 -8.5z" />
    <glyph glyph-name="Aring" unicode="&#xc5;" 
d="M580 45q0 32 -10 68q-5 17 -10 33l-10 32q-4 15 -8.5 33.5t-8 35t-6 28t-2.5 13.5q0 6 4 10q6 8 11.5 13.5l13.5 13.5q8 14 8 38q0 8 -1 9q-8 21 -35 29q-29 12 -36 25q-8 22 -18 66l-49 187q-9 35 -14 54t-7 24q-20 41 -59 41q-9 0 -24 -6q-14 -4 -19 -12
q-9 -15 -15 -26.5t-11 -19.5q-46 -78 -73 -151q-19 -51 -36.5 -94t-33.5 -79q-22 -52 -39.5 -97.5t-29.5 -85.5q-8 -22 -15.5 -43t-15.5 -43q-23 -57 -23 -82t19 -38q16 -13 40 -13q26 0 36 16q8 14 12 24.5t6 18.5l32 89q5 17 9.5 27.5t6.5 14.5q8 18 33 29q6 2 17 4t28 7
q19 7 37.5 13t37.5 12q22 7 41.5 11t36.5 5q4 -9 9 -14q6 -17 9 -29t5 -21q10 -38 16 -67t11 -49q14 -59 16 -65q12 -32 69 -32q45 0 45 43zM428 1062q-25 13 -62 18h-8q-12 0 -25 -3t-23 -9q-38 -24 -57.5 -63t-19.5 -77q0 -31 13 -53q5 -9 14 -16t18 -11q12 -6 26.5 -8.5
t28.5 -3.5q5 -1 9 -1h8q15 0 27 3.5t23 11.5q32 26 46.5 64.5t14.5 74.5q0 22 -4 37q-4 11 -10 19.5t-19 16.5zM368 398q-8 -11 -41 -20l-48 -11h-34q-4 9 -4 16q0 5 35 104q26 69 42 88q9 -2 12 -6q4 -4 20 -81q8 -36 12 -59t6 -31zM377 1037q8 -2 11 -12.5t3 -24.5
q0 -13 -2 -27t-7 -26q-9 -31 -24.5 -52t-29.5 -21q-3 0 -5 1q-8 2 -12 12.5t-4 24.5q0 12 2 25.5t7 25.5q4 12 11.5 25.5t15.5 24t16.5 17.5t15.5 7h2z" />
    <glyph glyph-name="AE" unicode="&#xc6;" horiz-adv-x="1119" 
d="M1116 102v8q0 22 -11 41t-31 27q-21 -3 -41 -5t-41 -2h-10q-26 -3 -51 -3.5t-51 -2.5q-48 -8 -92.5 -18.5t-92.5 -15.5q-9 -1 -17 -1.5t-17 -0.5q-6 0 -12 0.5t-12 1.5q-34 9 -34 32q0 5 3 11q0 38 3 67t5 56q1 13 2.5 25t7 21t16 14t28.5 5q12 2 23.5 4.5t25.5 4.5
q32 5 62.5 12t63.5 7q5 0 9 -0.5t9 -0.5q18 0 37.5 -0.5t38.5 -2.5h3q16 0 30.5 8t15.5 25q1 3 1 6v7q0 19 -11.5 33t-29.5 21q-8 2 -15.5 3.5t-15.5 1.5q-20 5 -39.5 6.5t-39.5 1.5q-47 0 -93 -7t-93 -13l-7 3q-9 6 -9 18v4q2 16 2 32t2 33l12 41q12 0 18.5 2.5t11.5 5.5
q19 8 37 11.5t36 5.5q18 4 35.5 5.5t35.5 2.5q23 5 43.5 6t40.5 1h20q25 0 50 2.5t53 13.5q9 13 9 30q0 26 -17 52t-42 38q-13 7 -32 7q-5 0 -10 -0.5t-10 -1.5q-13 -4 -26 -3.5t-27 -2.5q-34 -2 -67 -7t-68 -14q-39 -9 -78 -15q-8 -2 -14.5 -4t-13.5 -4v15q-6 41 -44 41
q-27 -7 -46 -20.5t-45 -43.5q-35 -41 -65.5 -78t-56.5 -73q-35 -51 -66.5 -94t-59.5 -79q-39 -51 -70.5 -97.5t-57.5 -85.5q-15 -22 -29.5 -43t-29.5 -43q-41 -56 -50 -82q-3 -9 -3 -16q0 -13 10 -22q12 -13 36 -13q25 0 41 16q14 14 20.5 24.5t11.5 18.5l61 89
q11 17 18.5 27.5t11.5 14.5q14 18 42 29q7 2 18 4t30 7q41 13 84 25q24 7 44.5 11t38.5 5q1 -10 4 -14v-29q3 -14 3 -29q0 -25 -4.5 -53.5t-4.5 -56.5q0 -29 9 -53.5t37 -41.5q2 -1 9 -2t15.5 -2t16.5 -1.5t12 -0.5q10 -1 19.5 -1.5t18.5 -0.5q28 0 55 6q73 17 144.5 29
t146.5 12h22q20 0 39.5 2.5t39.5 3.5q21 5 37 19.5t18 36.5zM486 397q-12 -11 -48 -20l-51 -11h-34q-1 3 -1 8q0 6 1 8q2 4 18.5 29.5t50.5 74.5q23 34 41 56t29 32q10 -2 11 -6l0.5 -2t0.5 -4q0 -8 -2 -27t-6 -48q-4 -36 -7 -59t-3 -31z" />
    <glyph glyph-name="Ccedilla" unicode="&#xc7;" horiz-adv-x="634" 
d="M92 -39q-11 -7 -15 -10t-4 -14q0 -1 25 -1h59q5 0 18.5 1t30.5 1q12 0 24.5 -1t22.5 -3.5t16.5 -7.5t6.5 -13v-1q-25 -24 -57.5 -30.5t-63 -7.5t-55 -3.5t-34.5 -20.5q-2 -4 -2 -6q0 -6 7.5 -11t20.5 -8.5t28.5 -5.5t32.5 -2q32 0 68.5 5.5t67 17t50.5 27.5t20 37
q-2 19 -7.5 34.5t-18.5 26.5t-34 17t-53 6l24 20q15 2 37 7t51 13q20 8 35 15t26 15q210 109 210 183q0 25 -15 39.5t-40 14.5t-53 -20q-23 -18 -45.5 -36.5t-48.5 -35.5q-35 -22 -59 -36t-37 -19q-56 -29 -105 -29q-53 0 -81 33q-25 31 -25 85q0 49 25 100q1 1 13.5 24
t38.5 68q24 43 48.5 80.5t52.5 69.5q77 92 138 92q24 0 33 -28q2 -14 5.5 -27t6.5 -27q10 -28 34 -28q44 0 44 82q0 71 -17 108q-26 50 -90 50q-58 0 -107 -33q-11 -7 -24.5 -18.5t-30.5 -28.5q-19 -17 -31 -29.5t-20 -21.5q-51 -61 -84 -106t-50 -74q-38 -71 -57 -108
q-8 -14 -14 -32.5t-12 -41.5q-10 -44 -10 -79q0 -69 16 -101q18 -41 68 -80q27 -23 69 -33z" />
    <glyph glyph-name="Egrave" unicode="&#xc8;" horiz-adv-x="666" 
d="M658 113v8q0 22 -11 41t-31 27q-21 -3 -41 -5t-41 -2h-10q-26 -3 -51 -3.5t-51 -2.5q-48 -8 -92.5 -18.5t-92.5 -15.5q-9 -1 -17 -1.5t-17 -0.5q-6 0 -12 0.5t-12 1.5q-34 9 -34 32q0 5 3 11q1 2 1 8v7v9q0 27 3 54.5t5 55.5q0 16 8 32.5t28 19.5q17 2 33 5.5t33 5.5
q32 5 62.5 12t63.5 7q5 0 9 -0.5t9 -0.5q18 0 37.5 -0.5t38.5 -2.5h3q16 0 30.5 8t15.5 25q1 3 1 6v7q0 19 -11.5 33t-29.5 21q-8 2 -15.5 3.5t-15.5 1.5q-20 5 -39.5 6.5t-39.5 1.5q-47 0 -92.5 -7t-92.5 -13l-7 3q-9 6 -9 18v4v2q0 4 1 7t1 7q0 3 -1 5q0 11 0.5 22t1.5 22
l2 9l1 9l1 8l3 8l5 7h8q6 0 11.5 2.5t10.5 5.5q19 8 37 11.5t36 5.5q18 4 35.5 5.5t35.5 2.5q23 5 43.5 6t40.5 1h20q25 0 50 2.5t53 13.5q9 13 9 30q0 26 -17 52t-42 38q-13 7 -32 7q-5 0 -10 -0.5t-10 -1.5q-13 -4 -26 -3.5t-27 -2.5q-34 -2 -67 -7t-68 -14
q-39 -9 -78 -15q-21 -7 -40 -10.5t-39 -11.5h-7q-13 0 -26.5 -3.5t-24 -10.5t-17 -17.5t-6.5 -23.5v-6q1 -14 1.5 -27t0.5 -27v-124q1 -7 1 -14v-13v-27q0 -27 -3 -52q-3 -29 -6.5 -58.5t-8.5 -59.5q-5 -29 -8.5 -58t-6.5 -58q-3 -14 -3 -28q0 -23 7 -44.5t20.5 -39t33 -29
t45.5 -12.5q10 -1 19.5 -1.5t18.5 -0.5q28 0 55 6q73 17 144.5 29t146.5 12h22q20 0 39.5 2.5t39.5 3.5q21 5 37 19.5t18 36.5zM402 895q0 42 -58 145l-38 73q-32 51 -62 51q-21 0 -36.5 -15.5t-15.5 -36.5q0 -7 2 -15t7 -17q15 -26 27 -45t22 -32l-1 1q3 -7 7 -13.5
t7 -12.5l7.5 -16.5l7.5 -16.5q14 -27 25 -45t19 -28q15 -17 40 -17q40 0 40 40z" />
    <glyph glyph-name="Eacute" unicode="&#xc9;" horiz-adv-x="666" 
d="M658 113v8q0 22 -11 41t-31 27q-21 -3 -41 -5t-41 -2h-10q-26 -3 -51 -3.5t-51 -2.5q-48 -8 -92.5 -18.5t-92.5 -15.5q-9 -1 -17 -1.5t-17 -0.5q-6 0 -12 0.5t-12 1.5q-34 9 -34 32q0 5 3 11q1 2 1 8v7v9q0 27 3 54.5t5 55.5q0 16 8 32.5t28 19.5q17 2 33 5.5t33 5.5
q32 5 62.5 12t63.5 7q5 0 9 -0.5t9 -0.5q18 0 37.5 -0.5t38.5 -2.5h3q16 0 30.5 8t15.5 25q1 3 1 6v7q0 19 -11.5 33t-29.5 21q-8 2 -15.5 3.5t-15.5 1.5q-20 5 -39.5 6.5t-39.5 1.5q-47 0 -92.5 -7t-92.5 -13l-7 3q-9 6 -9 18v4v2q0 4 1 7t1 7q0 3 -1 5q0 11 0.5 22t1.5 22
l2 9l1 9l1 8l3 8l5 7h8q6 0 11.5 2.5t10.5 5.5q19 8 37 11.5t36 5.5q18 4 35.5 5.5t35.5 2.5q23 5 43.5 6t40.5 1h20q25 0 50 2.5t53 13.5q9 13 9 30q0 26 -17 52t-42 38q-13 7 -32 7q-5 0 -10 -0.5t-10 -1.5q-13 -4 -26 -3.5t-27 -2.5q-34 -2 -67 -7t-68 -14
q-39 -9 -78 -15q-21 -7 -40 -10.5t-39 -11.5h-7q-13 0 -26.5 -3.5t-24 -10.5t-17 -17.5t-6.5 -23.5v-6q1 -14 1.5 -27t0.5 -27v-124q1 -7 1 -14v-13v-27q0 -27 -3 -52q-3 -29 -6.5 -58.5t-8.5 -59.5q-5 -29 -8.5 -58t-6.5 -58q-3 -14 -3 -28q0 -23 7 -44.5t20.5 -39t33 -29
t45.5 -12.5q10 -1 19.5 -1.5t18.5 -0.5q28 0 55 6q73 17 144.5 29t146.5 12h22q20 0 39.5 2.5t39.5 3.5q21 5 37 19.5t18 36.5zM260 897q0 -40 40 -40q25 0 40 17q8 10 19 28t25 45l7.5 16.5l7.5 16.5q3 6 7 12.5t7 13.5l-1 -1q10 13 22 32t27 45q5 9 7 17t2 15
q0 21 -15.5 36.5t-36.5 15.5q-31 0 -62 -51l-38 -73q-58 -103 -58 -145z" />
    <glyph glyph-name="Ecircumflex" unicode="&#xca;" horiz-adv-x="666" 
d="M658 113v8q0 22 -11 41t-31 27q-21 -3 -41 -5t-41 -2h-10q-26 -3 -51 -3.5t-51 -2.5q-48 -8 -92.5 -18.5t-92.5 -15.5q-9 -1 -17 -1.5t-17 -0.5q-6 0 -12 0.5t-12 1.5q-34 9 -34 32q0 5 3 11q1 2 1 8v7v9q0 27 3 54.5t5 55.5q0 16 8 32.5t28 19.5q17 2 33 5.5t33 5.5
q32 5 62.5 12t63.5 7q5 0 9 -0.5t9 -0.5q18 0 37.5 -0.5t38.5 -2.5h3q16 0 30.5 8t15.5 25q1 3 1 6v7q0 19 -11.5 33t-29.5 21q-8 2 -15.5 3.5t-15.5 1.5q-20 5 -39.5 6.5t-39.5 1.5q-47 0 -92.5 -7t-92.5 -13l-7 3q-9 6 -9 18v4v2q0 4 1 7t1 7q0 3 -1 5q0 11 0.5 22t1.5 22
l2 9l1 9l1 8l3 8l5 7h8q6 0 11.5 2.5t10.5 5.5q19 8 37 11.5t36 5.5q18 4 35.5 5.5t35.5 2.5q23 5 43.5 6t40.5 1h20q25 0 50 2.5t53 13.5q9 13 9 30q0 26 -17 52t-42 38q-13 7 -32 7q-5 0 -10 -0.5t-10 -1.5q-13 -4 -26 -3.5t-27 -2.5q-34 -2 -67 -7t-68 -14
q-39 -9 -78 -15q-21 -7 -40 -10.5t-39 -11.5h-7q-13 0 -26.5 -3.5t-24 -10.5t-17 -17.5t-6.5 -23.5v-6q1 -14 1.5 -27t0.5 -27v-124q1 -7 1 -14v-13v-27q0 -27 -3 -52q-3 -29 -6.5 -58.5t-8.5 -59.5q-5 -29 -8.5 -58t-6.5 -58q-3 -14 -3 -28q0 -23 7 -44.5t20.5 -39t33 -29
t45.5 -12.5q10 -1 19.5 -1.5t18.5 -0.5q28 0 55 6q73 17 144.5 29t146.5 12h22q20 0 39.5 2.5t39.5 3.5q21 5 37 19.5t18 36.5zM472 886q18 1 18 9q0 3 -3 8q-8 15 -17 33.5t-18.5 39t-18.5 41.5t-16 41q-4 13 -9.5 18t-13.5 11q-11 5 -22 8.5t-21 8.5q-8 3 -15 3
q-13 0 -22 -13q-19 -18 -38 -39.5t-35.5 -43t-30.5 -40.5t-24 -33q-4 -5 -4 -11q0 -11 9 -18q8 -8 17 -14t17 -11q6 -2 9.5 -3.5t7.5 -1.5q7 1 13 9q18 23 40 50.5t48 56.5q14 -28 25.5 -52.5t20.5 -41.5q13 -15 36 -17q5 -1 15 -1q8 0 16 1z" />
    <glyph glyph-name="Edieresis" unicode="&#xcb;" horiz-adv-x="666" 
d="M658 113v8q0 22 -11 41t-31 27q-21 -3 -41 -5t-41 -2h-10q-26 -3 -51 -3.5t-51 -2.5q-48 -8 -92.5 -18.5t-92.5 -15.5q-9 -1 -17 -1.5t-17 -0.5q-6 0 -12 0.5t-12 1.5q-34 9 -34 32q0 5 3 11q1 2 1 8v7v9q0 27 3 54.5t5 55.5q0 16 8 32.5t28 19.5q17 2 33 5.5t33 5.5
q32 5 62.5 12t63.5 7q5 0 9 -0.5t9 -0.5q18 0 37.5 -0.5t38.5 -2.5h3q16 0 30.5 8t15.5 25q1 3 1 6v7q0 19 -11.5 33t-29.5 21q-8 2 -15.5 3.5t-15.5 1.5q-20 5 -39.5 6.5t-39.5 1.5q-47 0 -92.5 -7t-92.5 -13l-7 3q-9 6 -9 18v4v2q0 4 1 7t1 7q0 3 -1 5q0 11 0.5 22t1.5 22
l2 9l1 9l1 8l3 8l5 7h8q6 0 11.5 2.5t10.5 5.5q19 8 37 11.5t36 5.5q18 4 35.5 5.5t35.5 2.5q23 5 43.5 6t40.5 1h20q25 0 50 2.5t53 13.5q9 13 9 30q0 26 -17 52t-42 38q-13 7 -32 7q-5 0 -10 -0.5t-10 -1.5q-13 -4 -26 -3.5t-27 -2.5q-34 -2 -67 -7t-68 -14
q-39 -9 -78 -15q-21 -7 -40 -10.5t-39 -11.5h-7q-13 0 -26.5 -3.5t-24 -10.5t-17 -17.5t-6.5 -23.5v-6q1 -14 1.5 -27t0.5 -27v-124q1 -7 1 -14v-13v-27q0 -27 -3 -52q-3 -29 -6.5 -58.5t-8.5 -59.5q-5 -29 -8.5 -58t-6.5 -58q-3 -14 -3 -28q0 -23 7 -44.5t20.5 -39t33 -29
t45.5 -12.5q10 -1 19.5 -1.5t18.5 -0.5q28 0 55 6q73 17 144.5 29t146.5 12h22q20 0 39.5 2.5t39.5 3.5q21 5 37 19.5t18 36.5zM181 931v-5q0 -31 15 -49.5t36 -18.5h3q11 0 20 5.5t15.5 13.5t10.5 17t5 16q3 9 3 21q0 18 -9.5 35t-29.5 26q-8 4 -18 4q-22 0 -35.5 -19.5
t-15.5 -45.5zM356 931v-7q0 -31 15 -49t36 -18h3q11 0 20 5.5t15.5 13.5t10 17t5.5 16q1 5 1.5 10t0.5 12q0 17 -9 34t-29 26q-9 4 -19 4q-22 0 -35 -19.5t-15 -44.5z" />
    <glyph glyph-name="Igrave" unicode="&#xcc;" horiz-adv-x="635" 
d="M624 721q0 23 -31 60l-65 5q-70 -5 -111 -8t-54 -5t-25 -3t-25 -2q-24 -3 -48 -4t-41 -6q-20 -3 -42 -7t-43 -8q-54 -8 -81 -22.5t-27 -42.5q0 -61 85 -61q2 0 10 1t22 3q23 3 41 6l30 5q5 1 8.5 1.5t7.5 0.5q3 0 17 1t40 3q-3 -26 -3 -55q-1 -37 -3 -80t-8 -91l-22 -171
q-2 -14 -3 -28t-3 -29q-6 -36 -23 -50q-16 -11 -43 -17q-4 -1 -16 -3t-33 -5q-17 -3 -29.5 -5.5t-20.5 -4.5q-20 -4 -33 -6.5t-21 -6.5q-28 -13 -28 -42q0 -3 -0.5 -6t-0.5 -5q0 -38 28 -44q16 -3 27.5 -5t19.5 -2q16 0 36 3t60 10q137 22 215.5 34.5t92.5 13.5
q52 6 85.5 13.5t36.5 7.5q16 28 16 51q0 36 -39 59q-45 -6 -69.5 -9.5t-30.5 -4.5t-16 -1.5t-23 -0.5q-14 0 -24.5 -1t-17.5 -5q-19 0 -22 3.5t-3 22.5v7l33 315q1 3 1 8v7q0 108 23 137q12 0 39.5 5t72.5 13q81 0 81 51zM430 881q0 42 -58 145l-38 73q-32 51 -62 51
q-21 0 -36.5 -15.5t-15.5 -36.5q0 -7 2 -15t7 -17q15 -26 27 -45t22 -32l-1 1q3 -7 7 -13.5t7 -12.5l7.5 -16.5l7.5 -16.5q14 -27 25 -45t19 -28q15 -17 40 -17q40 0 40 40z" />
    <glyph glyph-name="Iacute" unicode="&#xcd;" horiz-adv-x="635" 
d="M624 721q0 23 -31 60l-65 5q-70 -5 -111 -8t-54 -5t-25 -3t-25 -2q-24 -3 -48 -4t-41 -6q-20 -3 -42 -7t-43 -8q-54 -8 -81 -22.5t-27 -42.5q0 -61 85 -61q2 0 10 1t22 3q23 3 41 6l30 5q5 1 8.5 1.5t7.5 0.5q3 0 17 1t40 3q-3 -26 -3 -55q-1 -37 -3 -80t-8 -91l-22 -171
q-2 -14 -3 -28t-3 -29q-6 -36 -23 -50q-16 -11 -43 -17q-4 -1 -16 -3t-33 -5q-17 -3 -29.5 -5.5t-20.5 -4.5q-20 -4 -33 -6.5t-21 -6.5q-28 -13 -28 -42q0 -3 -0.5 -6t-0.5 -5q0 -38 28 -44q16 -3 27.5 -5t19.5 -2q16 0 36 3t60 10q137 22 215.5 34.5t92.5 13.5
q52 6 85.5 13.5t36.5 7.5q16 28 16 51q0 36 -39 59q-45 -6 -69.5 -9.5t-30.5 -4.5t-16 -1.5t-23 -0.5q-14 0 -24.5 -1t-17.5 -5q-19 0 -22 3.5t-3 22.5v7l33 315q1 3 1 8v7q0 108 23 137q12 0 39.5 5t72.5 13q81 0 81 51zM278 905q0 -40 40 -40q25 0 40 17q8 10 19 28t25 45
l7.5 16.5l7.5 16.5q3 6 7 12.5t7 13.5l-1 -1q10 13 22 32t27 45q5 9 7 17t2 15q0 21 -15.5 36.5t-36.5 15.5q-31 0 -62 -51l-38 -73q-58 -103 -58 -145z" />
    <glyph glyph-name="Icircumflex" unicode="&#xce;" horiz-adv-x="635" 
d="M624 721q0 23 -31 60l-65 5q-70 -5 -111 -8t-54 -5t-25 -3t-25 -2q-24 -3 -48 -4t-41 -6q-20 -3 -42 -7t-43 -8q-54 -8 -81 -22.5t-27 -42.5q0 -61 85 -61q2 0 10 1t22 3q23 3 41 6l30 5q5 1 8.5 1.5t7.5 0.5q3 0 17 1t40 3q-3 -26 -3 -55q-1 -37 -3 -80t-8 -91l-22 -171
q-2 -14 -3 -28t-3 -29q-6 -36 -23 -50q-16 -11 -43 -17q-4 -1 -16 -3t-33 -5q-17 -3 -29.5 -5.5t-20.5 -4.5q-20 -4 -33 -6.5t-21 -6.5q-28 -13 -28 -42q0 -3 -0.5 -6t-0.5 -5q0 -38 28 -44q16 -3 27.5 -5t19.5 -2q16 0 36 3t60 10q137 22 215.5 34.5t92.5 13.5
q52 6 85.5 13.5t36.5 7.5q16 28 16 51q0 36 -39 59q-45 -6 -69.5 -9.5t-30.5 -4.5t-16 -1.5t-23 -0.5q-14 0 -24.5 -1t-17.5 -5q-19 0 -22 3.5t-3 22.5v7l33 315q1 3 1 8v7q0 108 23 137q12 0 39.5 5t72.5 13q81 0 81 51zM492 874q18 1 18 9q0 3 -3 8q-8 15 -17 33.5
t-18.5 39t-18.5 41.5t-16 41q-4 13 -9.5 18t-13.5 11q-11 5 -22 8.5t-21 8.5q-8 3 -15 3q-13 0 -22 -13q-19 -18 -38 -39.5t-35.5 -43t-30.5 -40.5t-24 -33q-4 -5 -4 -11q0 -11 9 -18q8 -8 17 -14t17 -11q6 -2 9.5 -3.5t7.5 -1.5q7 1 13 9q18 23 40 50.5t48 56.5
q14 -28 25.5 -52.5t20.5 -41.5q13 -15 36 -17q5 -1 15 -1q8 0 16 1z" />
    <glyph glyph-name="Idieresis" unicode="&#xcf;" horiz-adv-x="635" 
d="M624 721q0 23 -31 60l-65 5q-70 -5 -111 -8t-54 -5t-25 -3t-25 -2q-24 -3 -48 -4t-41 -6q-20 -3 -42 -7t-43 -8q-54 -8 -81 -22.5t-27 -42.5q0 -61 85 -61q2 0 10 1t22 3q23 3 41 6l30 5q5 1 8.5 1.5t7.5 0.5q3 0 17 1t40 3q-3 -26 -3 -55q-1 -37 -3 -80t-8 -91l-22 -171
q-2 -14 -3 -28t-3 -29q-6 -36 -23 -50q-16 -11 -43 -17q-4 -1 -16 -3t-33 -5q-17 -3 -29.5 -5.5t-20.5 -4.5q-20 -4 -33 -6.5t-21 -6.5q-28 -13 -28 -42q0 -3 -0.5 -6t-0.5 -5q0 -38 28 -44q16 -3 27.5 -5t19.5 -2q16 0 36 3t60 10q137 22 215.5 34.5t92.5 13.5
q52 6 85.5 13.5t36.5 7.5q16 28 16 51q0 36 -39 59q-45 -6 -69.5 -9.5t-30.5 -4.5t-16 -1.5t-23 -0.5q-14 0 -24.5 -1t-17.5 -5q-19 0 -22 3.5t-3 22.5v7l33 315q1 3 1 8v7q0 108 23 137q12 0 39.5 5t72.5 13q81 0 81 51zM211 941v-5q0 -31 15 -49.5t36 -18.5h3q11 0 20 5.5
t15.5 13.5t10.5 17t5 16q3 9 3 21q0 18 -9.5 35t-29.5 26q-8 4 -18 4q-22 0 -35.5 -19.5t-15.5 -45.5zM386 941v-7q0 -31 15 -49t36 -18h3q11 0 20 5.5t15.5 13.5t10 17t5.5 16q1 5 1.5 10t0.5 12q0 17 -9 34t-29 26q-9 4 -19 4q-22 0 -35 -19.5t-15 -44.5z" />
    <glyph glyph-name="Eth" unicode="&#xd0;" horiz-adv-x="661" 
d="M660 447q0 120 -27 167q-18 29 -35.5 49.5t-33.5 34.5q-20 17 -43 29.5t-48 22.5q-26 8 -50 14.5t-48 14.5q-12 4 -35 6q-27 3 -36 7q-18 6 -42.5 9.5t-56.5 3.5q-71 0 -71 -46v-17q0 -14 1.5 -31.5t1.5 -25.5q0 -14 -1 -31.5t-3 -40.5q-2 -30 -3 -47t-2 -25
q-2 -26 -3 -45h-91q-8 0 -21 -13q-13 -16 -13 -22q0 -45 25 -69.5t70 -24.5h11q-6 -61 -11 -105t-8 -75l-8 -66q-3 -27 -3 -30q0 -49 22 -69t71 -20q12 0 26 4t29 13q13 8 26 14t27 14q42 17 70 30t47 24q266 146 266 346zM451 456q0 49 -61 56q-2 1 -7 1h-13l-137 -12
q2 12 3.5 24t3.5 24q3 19 4.5 30t2.5 15q2 5 2.5 9.5t0.5 6.5q2 8 2.5 16.5t1.5 16.5q2 11 3.5 18t3.5 12h8h9q117 0 179 -35q82 -48 82 -164v1l-1 -7.5t-4 -22.5q-4 -18 -6.5 -29.5t-4.5 -16.5q-26 -71 -107 -139q-68 -56 -153 -90q-30 -12 -41 -12q-19 0 -19 26
q0 5 1.5 21.5t3.5 44.5q2 24 3.5 41t2.5 28q2 7 3 12t2 9q1 8 1.5 15t1.5 14q51 3 91.5 6.5t73.5 6.5q25 1 27 3q18 4 28 29q7 21 9 42z" />
    <glyph glyph-name="Ntilde" unicode="&#xd1;" horiz-adv-x="641" 
d="M620 256l-1 44.5t-3 137.5q0 14 -0.5 24.5t-1.5 16.5q-1 29 -1.5 49.5t-0.5 34.5q-2 60 -6.5 101.5t-10.5 68.5q-8 27 -33 45q-24 24 -50 24q-25 0 -38 -14.5t-13 -38.5v-8l23 -276v-13q0 -26 -3 -90q-3 -81 -8 -98q-2 -9 -13 -9q-16 0 -92 109q-23 33 -45.5 66t-45.5 65
q-18 26 -39 67.5t-44 98.5q-17 42 -26.5 64.5t-18.5 33.5q-23 32 -68 32q-50 0 -57 -66q0 -2 -0.5 -7t-1.5 -12q-3 -14 -3 -21v-85q0 -4 -3 -53l-4 -90q-3 -41 -3 -43q0 -13 3 -68q2 -42 4.5 -75t5.5 -59q0 -21 0.5 -42t1.5 -42q-3 -27 -3 -46t3 -31q7 -23 39 -42
q42 -3 56 -3q21 0 33 24q9 15 9 32q0 8 -1 12l-8 105l-3 40.5l-1 13.5v108q1 3 1 9v30q0 38 5 38q17 0 43 -33q4 -6 6.5 -10t4.5 -7v-1h1h-1l-4 4q22 -32 37 -55t25 -40q11 -14 18.5 -23t12.5 -14q14 -21 23.5 -37t17.5 -27q33 -45 104 -105q82 -68 122 -68q25 0 37 23
q8 11 14 113q2 38 3.5 68t1.5 50zM369 850q30 0 67 37q39 36 39 65q0 13 -13 23q-11 7 -24 7q-14 0 -28 -14q-2 -3 -7 -9t-10.5 -13t-10.5 -11.5t-8 -4.5q-19 2 -37 15t-35 20q-15 7 -28 10.5t-27 3.5q-12 0 -29 -7.5t-33.5 -18.5t-30 -24t-18.5 -23q-6 -14 -6 -26
q0 -28 31 -28q19 0 30 10q1 0 6 5t11 11.5t13 11.5t13 5q7 0 17 -2t20 -5.5t19 -8t14 -9.5q20 -20 65 -20z" />
    <glyph glyph-name="Ograve" unicode="&#xd2;" horiz-adv-x="803" 
d="M776 464q0 27 -9 62q-5 15 -8 29.5t-8 30.5q-5 23 -13 42.5t-18 36.5q-18 31 -41.5 56t-55.5 45q-67 43 -131 43q-8 0 -23.5 -3t-23.5 -3q-80 0 -207 -88q-42 -29 -83.5 -82.5t-87.5 -138.5q-14 -25 -22.5 -51t-13.5 -54q-5 -26 -7 -43.5t-2 -25.5q-5 -18 -5 -36
q0 -17 3.5 -36.5t10.5 -43.5q27 -75 48 -86q8 -11 17 -19.5t20 -17.5q6 -4 20 -11.5t36 -18.5q22 -8 36.5 -14.5t25.5 -8.5q70 -17 94 -17q93 0 153 23q22 11 38 18.5t27 13.5q26 11 46.5 24t37.5 27q35 30 61 69t46 88q20 47 29.5 91.5t9.5 91.5v7zM651 441q0 -87 -55 -169
q-55 -84 -133 -115q-42 -20 -108 -20q-7 0 -17.5 1.5t-25.5 3.5q-87 20 -122 56q-43 43 -43 130q0 33 14 69t41 78t59 74t69 61q76 58 142 58q82 0 132 -74q47 -68 47 -153zM523 910q0 42 -58 145l-38 73q-32 51 -62 51q-21 0 -36.5 -15.5t-15.5 -36.5q0 -7 2 -15t7 -17
q15 -26 27 -45t22 -32l-1 1q3 -7 7 -13.5t7 -12.5l7.5 -16.5l7.5 -16.5q14 -27 25 -45t19 -28q15 -17 40 -17q40 0 40 40z" />
    <glyph glyph-name="Oacute" unicode="&#xd3;" horiz-adv-x="803" 
d="M776 464q0 27 -9 62q-5 15 -8 29.5t-8 30.5q-5 23 -13 42.5t-18 36.5q-18 31 -41.5 56t-55.5 45q-67 43 -131 43q-8 0 -23.5 -3t-23.5 -3q-80 0 -207 -88q-42 -29 -83.5 -82.5t-87.5 -138.5q-14 -25 -22.5 -51t-13.5 -54q-5 -26 -7 -43.5t-2 -25.5q-5 -18 -5 -36
q0 -17 3.5 -36.5t10.5 -43.5q27 -75 48 -86q8 -11 17 -19.5t20 -17.5q6 -4 20 -11.5t36 -18.5q22 -8 36.5 -14.5t25.5 -8.5q70 -17 94 -17q93 0 153 23q22 11 38 18.5t27 13.5q26 11 46.5 24t37.5 27q35 30 61 69t46 88q20 47 29.5 91.5t9.5 91.5v7zM651 441q0 -87 -55 -169
q-55 -84 -133 -115q-42 -20 -108 -20q-7 0 -17.5 1.5t-25.5 3.5q-87 20 -122 56q-43 43 -43 130q0 33 14 69t41 78t59 74t69 61q76 58 142 58q82 0 132 -74q47 -68 47 -153zM353 907q0 -40 40 -40q25 0 40 17q8 10 19 28t25 45l7.5 16.5l7.5 16.5q3 6 7 12.5t7 13.5l-1 -1
q10 13 22 32t27 45q5 9 7 17t2 15q0 21 -15.5 36.5t-36.5 15.5q-31 0 -62 -51l-38 -73q-58 -103 -58 -145z" />
    <glyph glyph-name="Ocircumflex" unicode="&#xd4;" horiz-adv-x="803" 
d="M776 464q0 27 -9 62q-5 15 -8 29.5t-8 30.5q-5 23 -13 42.5t-18 36.5q-18 31 -41.5 56t-55.5 45q-67 43 -131 43q-8 0 -23.5 -3t-23.5 -3q-80 0 -207 -88q-42 -29 -83.5 -82.5t-87.5 -138.5q-14 -25 -22.5 -51t-13.5 -54q-5 -26 -7 -43.5t-2 -25.5q-5 -18 -5 -36
q0 -17 3.5 -36.5t10.5 -43.5q27 -75 48 -86q8 -11 17 -19.5t20 -17.5q6 -4 20 -11.5t36 -18.5q22 -8 36.5 -14.5t25.5 -8.5q70 -17 94 -17q93 0 153 23q22 11 38 18.5t27 13.5q26 11 46.5 24t37.5 27q35 30 61 69t46 88q20 47 29.5 91.5t9.5 91.5v7zM651 441q0 -87 -55 -169
q-55 -84 -133 -115q-42 -20 -108 -20q-7 0 -17.5 1.5t-25.5 3.5q-87 20 -122 56q-43 43 -43 130q0 33 14 69t41 78t59 74t69 61q76 58 142 58q82 0 132 -74q47 -68 47 -153zM597 883q18 1 18 9q0 3 -3 8q-8 15 -17 33.5t-18.5 39t-18.5 41.5t-16 41q-4 13 -9.5 18t-13.5 11
q-11 5 -22 8.5t-21 8.5q-8 3 -15 3q-13 0 -22 -13q-19 -18 -38 -39.5t-35.5 -43t-30.5 -40.5t-24 -33q-4 -5 -4 -11q0 -11 9 -18q8 -8 17 -14t17 -11q6 -2 9.5 -3.5t7.5 -1.5q7 1 13 9q18 23 40 50.5t48 56.5q14 -28 25.5 -52.5t20.5 -41.5q13 -15 36 -17q5 -1 15 -1
q8 0 16 1z" />
    <glyph glyph-name="Otilde" unicode="&#xd5;" horiz-adv-x="803" 
d="M776 464q0 27 -9 62q-5 15 -8 29.5t-8 30.5q-5 23 -13 42.5t-18 36.5q-18 31 -41.5 56t-55.5 45q-67 43 -131 43q-8 0 -23.5 -3t-23.5 -3q-80 0 -207 -88q-42 -29 -83.5 -82.5t-87.5 -138.5q-14 -25 -22.5 -51t-13.5 -54q-5 -26 -7 -43.5t-2 -25.5q-5 -18 -5 -36
q0 -17 3.5 -36.5t10.5 -43.5q27 -75 48 -86q8 -11 17 -19.5t20 -17.5q6 -4 20 -11.5t36 -18.5q22 -8 36.5 -14.5t25.5 -8.5q70 -17 94 -17q93 0 153 23q22 11 38 18.5t27 13.5q26 11 46.5 24t37.5 27q35 30 61 69t46 88q20 47 29.5 91.5t9.5 91.5v7zM651 441q0 -87 -55 -169
q-55 -84 -133 -115q-42 -20 -108 -20q-7 0 -17.5 1.5t-25.5 3.5q-87 20 -122 56q-43 43 -43 130q0 33 14 69t41 78t59 74t69 61q76 58 142 58q82 0 132 -74q47 -68 47 -153zM524 862q30 0 67 37q39 36 39 65q0 13 -13 23q-11 7 -24 7q-14 0 -28 -14q-2 -3 -7 -9t-10.5 -13
t-10.5 -11.5t-8 -4.5q-19 2 -37 15t-35 20q-15 7 -28 10.5t-27 3.5q-12 0 -29 -7.5t-33.5 -18.5t-30 -24t-18.5 -23q-6 -14 -6 -26q0 -28 31 -28q19 0 30 10q1 0 6 5t11 11.5t13 11.5t13 5q7 0 17 -2t20 -5.5t19 -8t14 -9.5q20 -20 65 -20z" />
    <glyph glyph-name="Odieresis" unicode="&#xd6;" horiz-adv-x="803" 
d="M776 464q0 27 -9 62q-5 15 -8 29.5t-8 30.5q-5 23 -13 42.5t-18 36.5q-18 31 -41.5 56t-55.5 45q-67 43 -131 43q-8 0 -23.5 -3t-23.5 -3q-80 0 -207 -88q-42 -29 -83.5 -82.5t-87.5 -138.5q-14 -25 -22.5 -51t-13.5 -54q-5 -26 -7 -43.5t-2 -25.5q-5 -18 -5 -36
q0 -17 3.5 -36.5t10.5 -43.5q27 -75 48 -86q8 -11 17 -19.5t20 -17.5q6 -4 20 -11.5t36 -18.5q22 -8 36.5 -14.5t25.5 -8.5q70 -17 94 -17q93 0 153 23q22 11 38 18.5t27 13.5q26 11 46.5 24t37.5 27q35 30 61 69t46 88q20 47 29.5 91.5t9.5 91.5v7zM651 441q0 -87 -55 -169
q-55 -84 -133 -115q-42 -20 -108 -20q-7 0 -17.5 1.5t-25.5 3.5q-87 20 -122 56q-43 43 -43 130q0 33 14 69t41 78t59 74t69 61q76 58 142 58q82 0 132 -74q47 -68 47 -153zM325 944v-5q0 -31 15 -49.5t36 -18.5h3q11 0 20 5.5t15.5 13.5t10.5 17t5 16q3 9 3 21
q0 18 -9.5 35t-29.5 26q-8 4 -18 4q-22 0 -35.5 -19.5t-15.5 -45.5zM500 944v-7q0 -31 15 -49t36 -18h3q11 0 20 5.5t15.5 13.5t10 17t5.5 16q1 5 1.5 10t0.5 12q0 17 -9 34t-29 26q-9 4 -19 4q-22 0 -35 -19.5t-15 -44.5z" />
    <glyph glyph-name="multiply" unicode="&#xd7;" horiz-adv-x="444" 
d="M408 232q17 17 17 36q0 14 -9 29q-16 22 -28.5 37.5t-21.5 26.5q-12 15 -19.5 24t-7.5 13v1v3q0 14 15 32q9 8 23 17.5t22 17.5q26 26 26 48q0 19 -17 38q-14 15 -33 15q-14 0 -33 -11q-5 -2 -8 -4t-6.5 -5t-10 -9t-16.5 -15q-17 -12 -26.5 -20.5t-19.5 -16.5
q-5 -3 -11 -3q-20 0 -56 36q-18 18 -31.5 30t-21.5 17q-16 10 -31 10q-18 0 -33 -15q-8 -6 -13 -15.5t-7 -18.5q-2 -8 -2 -13q0 -26 29 -54q3 -5 12 -12.5t16 -13.5q12 -12 12 -24q0 -9 -8 -17q-3 -3 -10.5 -11.5t-15 -18t-14.5 -17.5t-10 -11q-33 -32 -33 -60q0 -20 15 -36
q18 -15 32 -15q11 0 49 21q29 16 47 29q14 9 20.5 15t19.5 8q4 1 11 1q25 0 42 -17l56 -58q9 -9 20.5 -12.5t26.5 -3.5q21 3 42 22z" />
    <glyph glyph-name="Oslash" unicode="&#xd8;" horiz-adv-x="803" 
d="M639 796q0 35 -13 56.5t-36 21.5q-20 0 -29 -12q-18 -27 -24 -46l-5 -11q-11 2 -20.5 3t-19.5 1q-8 0 -23.5 -3t-23.5 -3q-80 0 -207 -88q-42 -29 -83.5 -82.5t-87.5 -138.5q-14 -25 -22.5 -51t-13.5 -54q-5 -26 -7 -43.5t-2 -25.5q-5 -18 -5 -36q0 -17 3.5 -36.5
t10.5 -43.5q27 -75 48 -86q8 -11 17 -19.5t20 -17.5q6 -4 20 -11.5t36 -18.5q5 -2 8.5 -3.5t7.5 -3.5q-3 -14 -3 -20q0 -26 22 -57q21 -35 39 -35q13 0 22 18q4 15 8 22q5 11 9 21.5t8 21.5q11 -2 20 -3t15 -1q93 0 153 23q22 11 38 18.5t27 13.5q26 11 46.5 24t37.5 27
q35 30 61 69t46 88q20 47 29.5 91.5t9.5 91.5v7q0 27 -9 62q-5 15 -8 29.5t-8 30.5q-5 23 -13 42.5t-18 36.5q-17 28 -37.5 51.5t-49.5 42.5q6 15 6 37zM651 441q0 -87 -55 -169q-55 -84 -133 -115q-42 -20 -108 -20h-11q5 10 8.5 18.5t7.5 16.5q10 26 16 45.5t11 33.5
q17 39 38 83.5t46 98.5q23 44 44.5 86t44.5 87q3 6 6 12.5t6 12.5q8 -8 16 -17t16 -20q47 -68 47 -153zM190 198q-43 43 -43 130q0 33 14 69t41 78t59 74t69 61q71 55 135 58q-26 -49 -53 -104t-57 -122q-2 -7 -29 -69.5t-79 -183.5q-2 -6 -5 -12t-5 -11q-30 13 -47 32z" />
    <glyph glyph-name="Ugrave" unicode="&#xd9;" horiz-adv-x="703" 
d="M678 688q0 81 -55 81q-79 0 -79 -85v-24q0 -5 -1.5 -19.5t-5.5 -39.5q-1 -11 -4.5 -53.5t-8.5 -120.5q-4 -54 -11 -96.5t-14 -75.5q-6 -29 -30 -44q-16 -7 -26 -11t-18 -7q-81 -30 -139 -45.5t-93 -15.5q-50 0 -50 64q0 36 3.5 79.5t10.5 94.5q8 43 15 84.5t15 86.5
q2 9 6 26.5t12 44.5q6 22 9.5 39t3.5 31q0 33 -25 52q-25 23 -54 23q-22 0 -33 -20q-8 -22 -12 -40.5t-8 -32.5q-16 -78 -28.5 -151.5t-24.5 -148.5q-10 -66 -15 -111.5t-5 -76.5q0 -46 9 -82q11 -38 36 -56q53 -38 147 -38q24 0 67 9.5t107 27.5l14.5 5t43.5 16
q24 7 37 10.5t16 3.5q27 -24 51 -54q33 -14 49 -14q11 0 16 6q21 9 21 43q0 5 -0.5 11.5t-2.5 20.5q-5 20 -5 30q0 3 3.5 28t9.5 76q8 69 16.5 151.5t16.5 182.5q2 27 3.5 49t3.5 38q6 42 6 48zM476 852q0 42 -58 145l-38 73q-32 51 -62 51q-21 0 -36.5 -15.5t-15.5 -36.5
q0 -7 2 -15t7 -17q15 -26 27 -45t22 -32l-1 1q3 -7 7 -13.5t7 -12.5l7.5 -16.5l7.5 -16.5q14 -27 25 -45t19 -28q15 -17 40 -17q40 0 40 40z" />
    <glyph glyph-name="Uacute" unicode="&#xda;" horiz-adv-x="703" 
d="M678 688q0 81 -55 81q-79 0 -79 -85v-24q0 -5 -1.5 -19.5t-5.5 -39.5q-1 -11 -4.5 -53.5t-8.5 -120.5q-4 -54 -11 -96.5t-14 -75.5q-6 -29 -30 -44q-16 -7 -26 -11t-18 -7q-81 -30 -139 -45.5t-93 -15.5q-50 0 -50 64q0 36 3.5 79.5t10.5 94.5q8 43 15 84.5t15 86.5
q2 9 6 26.5t12 44.5q6 22 9.5 39t3.5 31q0 33 -25 52q-25 23 -54 23q-22 0 -33 -20q-8 -22 -12 -40.5t-8 -32.5q-16 -78 -28.5 -151.5t-24.5 -148.5q-10 -66 -15 -111.5t-5 -76.5q0 -46 9 -82q11 -38 36 -56q53 -38 147 -38q24 0 67 9.5t107 27.5l14.5 5t43.5 16
q24 7 37 10.5t16 3.5q27 -24 51 -54q33 -14 49 -14q11 0 16 6q21 9 21 43q0 5 -0.5 11.5t-2.5 20.5q-5 20 -5 30q0 3 3.5 28t9.5 76q8 69 16.5 151.5t16.5 182.5q2 27 3.5 49t3.5 38q6 42 6 48zM323 852q0 -40 40 -40q25 0 40 17q8 10 19 28t25 45l7.5 16.5l7.5 16.5
q3 6 7 12.5t7 13.5l-1 -1q10 13 22 32t27 45q5 9 7 17t2 15q0 21 -15.5 36.5t-36.5 15.5q-31 0 -62 -51l-38 -73q-58 -103 -58 -145z" />
    <glyph glyph-name="Ucircumflex" unicode="&#xdb;" horiz-adv-x="703" 
d="M678 688q0 81 -55 81q-79 0 -79 -85v-24q0 -5 -1.5 -19.5t-5.5 -39.5q-1 -11 -4.5 -53.5t-8.5 -120.5q-4 -54 -11 -96.5t-14 -75.5q-6 -29 -30 -44q-16 -7 -26 -11t-18 -7q-81 -30 -139 -45.5t-93 -15.5q-50 0 -50 64q0 36 3.5 79.5t10.5 94.5q8 43 15 84.5t15 86.5
q2 9 6 26.5t12 44.5q6 22 9.5 39t3.5 31q0 33 -25 52q-25 23 -54 23q-22 0 -33 -20q-8 -22 -12 -40.5t-8 -32.5q-16 -78 -28.5 -151.5t-24.5 -148.5q-10 -66 -15 -111.5t-5 -76.5q0 -46 9 -82q11 -38 36 -56q53 -38 147 -38q24 0 67 9.5t107 27.5l14.5 5t43.5 16
q24 7 37 10.5t16 3.5q27 -24 51 -54q33 -14 49 -14q11 0 16 6q21 9 21 43q0 5 -0.5 11.5t-2.5 20.5q-5 20 -5 30q0 3 3.5 28t9.5 76q8 69 16.5 151.5t16.5 182.5q2 27 3.5 49t3.5 38q6 42 6 48zM535 831q18 1 18 9q0 3 -3 8q-8 15 -17 33.5t-18.5 39t-18.5 41.5t-16 41
q-4 13 -9.5 18t-13.5 11q-11 5 -22 8.5t-21 8.5q-8 3 -15 3q-13 0 -22 -13q-19 -18 -38 -39.5t-35.5 -43t-30.5 -40.5t-24 -33q-4 -5 -4 -11q0 -11 9 -18q8 -8 17 -14t17 -11q6 -2 9.5 -3.5t7.5 -1.5q7 1 13 9q18 23 40 50.5t48 56.5q14 -28 25.5 -52.5t20.5 -41.5
q13 -15 36 -17q5 -1 15 -1q8 0 16 1z" />
    <glyph glyph-name="Udieresis" unicode="&#xdc;" horiz-adv-x="703" 
d="M678 688q0 81 -55 81q-79 0 -79 -85v-24q0 -5 -1.5 -19.5t-5.5 -39.5q-1 -11 -4.5 -53.5t-8.5 -120.5q-4 -54 -11 -96.5t-14 -75.5q-6 -29 -30 -44q-16 -7 -26 -11t-18 -7q-81 -30 -139 -45.5t-93 -15.5q-50 0 -50 64q0 36 3.5 79.5t10.5 94.5q8 43 15 84.5t15 86.5
q2 9 6 26.5t12 44.5q6 22 9.5 39t3.5 31q0 33 -25 52q-25 23 -54 23q-22 0 -33 -20q-8 -22 -12 -40.5t-8 -32.5q-16 -78 -28.5 -151.5t-24.5 -148.5q-10 -66 -15 -111.5t-5 -76.5q0 -46 9 -82q11 -38 36 -56q53 -38 147 -38q24 0 67 9.5t107 27.5l14.5 5t43.5 16
q24 7 37 10.5t16 3.5q27 -24 51 -54q33 -14 49 -14q11 0 16 6q21 9 21 43q0 5 -0.5 11.5t-2.5 20.5q-5 20 -5 30q0 3 3.5 28t9.5 76q8 69 16.5 151.5t16.5 182.5q2 27 3.5 49t3.5 38q6 42 6 48zM244 916v-5q0 -31 15 -49.5t36 -18.5h3q11 0 20 5.5t15.5 13.5t10.5 17t5 16
q3 9 3 21q0 18 -9.5 35t-29.5 26q-8 4 -18 4q-22 0 -35.5 -19.5t-15.5 -45.5zM419 916v-7q0 -31 15 -49t36 -18h3q11 0 20 5.5t15.5 13.5t10 17t5.5 16q1 5 1.5 10t0.5 12q0 17 -9 34t-29 26q-9 4 -19 4q-22 0 -35 -19.5t-15 -44.5z" />
    <glyph glyph-name="Yacute" unicode="&#xdd;" horiz-adv-x="673" 
d="M502 741q0 60 -49 60q-31 0 -86 -75q-17 -23 -33 -48t-32 -51h1q-2 -2 -5 -6t-5 -6l-11 -22l-10 -18t-10 -20l-27 -51q-5 0 -35 44q-11 16 -20 30t-17 29q-8 20 -13.5 34t-9.5 24q1 -1 1 -2v0h1q0 2 -5 13t-7 16q-1 2 -2.5 5.5t-3.5 5.5h2l-16 54q-20 48 -52 48
q-24 0 -37 -20t-13 -48t19 -86q12 -39 32 -84q17 -38 38.5 -72t50.5 -65h-1l8.5 -8.5t6.5 -7.5q3 -2 10 -9h-1q14 -17 14 -34v-4l-47 -282v-3q0 -27 15 -51q15 -26 41 -26q9 0 16 3.5t15 10.5q4 4 8.5 19t11.5 40q5 22 8.5 38.5t5.5 29.5v7q7 46 13 76.5t11 46.5h-1q2 6 2 9
q0 4 1 6q2 8 4 18.5t6 24.5q9 44 14 57q40 121 164 286q7 8 9 13q8 10 11 14l3 4h-1q7 11 7 33zM266 907q0 -40 40 -40q25 0 40 17q8 10 19 28t25 45l7.5 16.5l7.5 16.5q3 6 7 12.5t7 13.5l-1 -1q10 13 22 32t27 45q5 9 7 17t2 15q0 21 -15.5 36.5t-36.5 15.5q-31 0 -62 -51
l-38 -73q-58 -103 -58 -145z" />
    <glyph glyph-name="Thorn" unicode="&#xde;" horiz-adv-x="562" 
d="M367 163q48 25 86 52t65 57.5t41 65t14 75.5q-5 62 -31.5 103t-83.5 73q-18 9 -42 18t-52.5 16.5t-59 13.5t-60.5 10q5 21 10 47.5t10 51.5q0 16 -6 30.5t-16.5 25.5t-24 17.5t-28.5 6.5h-14q-1 1 -1 3t1.5 3.5t1.5 2.5h-1q-19 0 -37.5 -53t-38.5 -154t-43 -248t-50 -335
q3 -21 15 -34l1 -2h-1q3 -3 6 -4l57 -28h12q7 12 11 18.5t6.5 12.5t4 13.5t3.5 20.5q0 4 9 54h24q36 6 65.5 12.5t55 14.5t47.5 18t44 22zM176 209l-3 2l-11 13l-1 3q3 22 10 62.5t14.5 84t14 81t10.5 53.5q10 27 24 27q19 0 44 -2.5t50.5 -8t50 -14t42.5 -21.5q0 -4 3 -4
q1 -1 4 -1q31 -35 31 -67q0 -29 -20.5 -55t-55 -50.5t-80 -48t-95.5 -45.5z" />
    <glyph glyph-name="germandbls" unicode="&#xdf;" horiz-adv-x="913" 
d="M627 6q77 0 166 84q91 88 114 174q4 12 5 30.5t1 43.5q0 115 -51 161q-36 33 -136 33q-22 0 -62 -6l-35 -3.5t-24 -1.5q-21 0 -21 22q0 28 44 67h-1q38 32 66 46q8 5 13 8t8 5q6 3 16 9t12 6v-1q14 8 23 10.5t18 2.5q4 0 16 -28h-1q6 -25 29 -25q8 0 10 1l13 7
q14 0 23.5 11.5t9.5 26.5q0 25 -34 70q-14 19 -28.5 30t-28.5 15h-11q-2 0 -3.5 0.5t-3.5 0.5h-14q-44 -1 -78 -17q-14 -7 -32 -17.5t-39 -24.5q-8 -6 -14.5 -10.5t-12.5 -8.5q-5 -3 -10.5 -7.5t-8.5 -6.5q-12 -11 -18.5 -18t-14.5 -15l-10 -11q-17 -17 -29.5 -31t-20.5 -29
q-28 -47 -28 -79q0 -29 17 -66q17 -39 69 -59q27 -9 81 -9q8 0 24 0.5t33 1.5q18 1 33 1h23q14 0 26 -3t25 -8q27 -14 27 -51q0 -68 -94 -153l-8.5 -8.5t-7.5 -6.5q-8 -6 -9.5 -7.5l-1.5 -1.5h2q-26 -17 -56 -17q-4 0 -28 10q-22 10 -29 16h1l-22 23q-20 20 -42 20
q-20 0 -35 -16t-15 -37q0 -59 63 -110q52 -43 107 -43zM183 7q79 0 166 84q92 89 114 174q4 12 5 30.5t1 43.5q0 115 -51 161q-38 33 -136 33q-20 0 -62 -6q-20 -2 -34.5 -3.5t-25.5 -1.5q-19 0 -19 22q0 30 43 67q34 30 65 46q8 5 13 8t8 5q6 3 15.5 9t11.5 6v-1
q14 8 24 10.5t18 2.5q3 0 16 -28h-1q6 -25 30 -25q6 0 8 1q14 7 15 7q13 0 22 11.5t9 26.5q0 29 -32 70q-27 36 -60 45h-8q-2 0 -4 0.5t-4 0.5h-14q-46 -2 -78 -17q-12 -5 -30 -16.5t-45 -28.5q-6 -5 -12.5 -9.5t-11.5 -8.5q-5 -3 -10 -5.5l-5 -2.5l-20 -21q-8 -8 -14.5 -15
t-12.5 -12q-17 -17 -29 -31t-21 -29q-26 -49 -26 -79t16 -66q16 -39 69 -59q27 -9 80 -9h24t33 1q18 1 34 1.5t24 0.5q25 0 50 -11q27 -14 27 -51q0 -68 -93 -153h1q-5 -3 -6 -4l-2 -2h1q-19 -15 -22 -18h1q-25 -17 -55 -17q-5 0 -28 10q-9 5 -16 8.5t-14 7.5h2l-27 28
q-14 15 -36 15q-20 0 -35.5 -16t-15.5 -37q0 -57 62 -110q53 -43 108 -43zM742 683q-1 0 -1 -1h-1h1zM297 684q-1 0 -1 -1v0z" />
    <glyph glyph-name="agrave" unicode="&#xe0;" horiz-adv-x="430" 
d="M445 45q0 16 -1.5 32.5t-6.5 35.5l-3 15q-3 13 -5 25.5t-6 24.5q-5 22 -9.5 50t-6.5 45q0 6 -0.5 11t-0.5 4q0 10 3 14q7 13 12 19h-1l5 5v-1q6 16 6 38v6q-6 22 -31 32h1q-14 8 -22 25h1q-2 8 -3 13q-2 11 -4.5 24t-5.5 29l-35 187q-2 8 -3 15t-3 14q-4 19 -6 30.5
t-4 18.5q-14 41 -51 41q-9 0 -21 -6q-17 -7 -18 -12q-3 -7 -5.5 -12.5t-4.5 -10.5q-5 -15 -9 -23q-18 -43 -31 -80.5t-22 -70.5q-14 -51 -26.5 -94t-23.5 -79q-16 -52 -29 -97.5t-21 -85.5q-3 -11 -6 -21.5t-6 -21.5q-2 -11 -4.5 -21.5t-5.5 -21.5q-16 -54 -16 -82
q0 -22 16 -38q12 -13 35 -13q28 0 35 16q8 20 9.5 26.5t3.5 11.5q0 2 0.5 3t0.5 2l23 89q7 36 12 45q3 11 7.5 16.5t10.5 9.5h-2q2 1 4 1.5t5 1.5q5 2 11 3.5t13 4.5l37 18h-1q5 2 9.5 3.5t8.5 3.5q26 11 43 14q2 -6 9 -12h-3q4 -15 5.5 -25.5t3.5 -18.5q0 -2 0.5 -3t0.5 -3
q5 -24 7.5 -44t5.5 -37q3 -22 6 -35q5 -29 7.5 -45t3.5 -20q9 -32 60 -32q42 0 42 43zM328 895q0 41 -43 145l-27 73q-23 51 -53 51q-19 0 -33 -15.5t-14 -36.5q0 -6 1.5 -14t6.5 -18q11 -26 19 -44.5t15 -31.5h-1q2 -5 3.5 -9t3.5 -8q1 -2 2 -4.5t2 -4.5q2 -5 4 -11t2 -7
h-1v1h-1q0 1 7 -16q11 -27 18.5 -45t13.5 -28q9 -17 37 -17q38 0 38 40zM275 398q-8 -14 -24 -20l-35 -11h-12q-2 4 -2 8v8q0 6 21 90q1 3 2 6.5t2 7.5q6 25 11.5 43.5t10.5 29.5q2 -10 4.5 -28t6.5 -44q9 -48 12 -74q1 -4 1.5 -7.5t1.5 -8.5z" />
    <glyph glyph-name="aacute" unicode="&#xe1;" horiz-adv-x="430" 
d="M445 45q0 16 -1.5 32.5t-6.5 35.5l-3 15q-3 13 -5 25.5t-6 24.5q-5 22 -9.5 50t-6.5 45q0 6 -0.5 11t-0.5 4q0 10 3 14q7 13 12 19h-1l5 5v-1q6 16 6 38v6q-6 22 -31 32h1q-14 8 -22 25h1q-2 8 -3 13q-2 11 -4.5 24t-5.5 29l-35 187q-2 8 -3 15t-3 14q-4 19 -6 30.5
t-4 18.5q-14 41 -51 41q-9 0 -21 -6q-17 -7 -18 -12q-3 -7 -5.5 -12.5t-4.5 -10.5q-5 -15 -9 -23q-18 -43 -31 -80.5t-22 -70.5q-14 -51 -26.5 -94t-23.5 -79q-16 -52 -29 -97.5t-21 -85.5q-3 -11 -6 -21.5t-6 -21.5q-2 -11 -4.5 -21.5t-5.5 -21.5q-16 -54 -16 -82
q0 -22 16 -38q12 -13 35 -13q28 0 35 16q8 20 9.5 26.5t3.5 11.5q0 2 0.5 3t0.5 2l23 89q7 36 12 45q3 11 7.5 16.5t10.5 9.5h-2q2 1 4 1.5t5 1.5q5 2 11 3.5t13 4.5l37 18h-1q5 2 9.5 3.5t8.5 3.5q26 11 43 14q2 -6 9 -12h-3q4 -15 5.5 -25.5t3.5 -18.5q0 -2 0.5 -3t0.5 -3
q5 -24 7.5 -44t5.5 -37q3 -22 6 -35q5 -29 7.5 -45t3.5 -20q9 -32 60 -32q42 0 42 43zM200 901q0 -40 38 -40q26 0 40 22q3 7 10.5 23.5t18.5 44.5l11 33q1 2 2 4.5t1 4.5q2 4 3 8t3 9h-2q7 13 16.5 31.5t20.5 44.5q5 11 6 18.5t1 13.5q0 21 -14 36.5t-33 15.5
q-31 0 -52 -51l-28 -73q-42 -107 -42 -145zM275 398q-8 -14 -24 -20l-35 -11h-12q-2 4 -2 8v8q0 6 21 90q1 3 2 6.5t2 7.5q6 25 11.5 43.5t10.5 29.5q2 -10 4.5 -28t6.5 -44q9 -48 12 -74q1 -4 1.5 -7.5t1.5 -8.5z" />
    <glyph glyph-name="acircumflex" unicode="&#xe2;" horiz-adv-x="430" 
d="M445 45q0 16 -1.5 32.5t-6.5 35.5l-3 15q-3 13 -5 25.5t-6 24.5q-5 22 -9.5 50t-6.5 45q0 6 -0.5 11t-0.5 4q0 10 3 14q7 13 12 19h-1l5 5v-1q6 16 6 38v6q-6 22 -31 32h1q-14 8 -22 25h1q-2 8 -3 13q-2 11 -4.5 24t-5.5 29l-35 187q-2 8 -3 15t-3 14q-4 19 -6 30.5
t-4 18.5q-14 41 -51 41q-9 0 -21 -6q-17 -7 -18 -12q-3 -7 -5.5 -12.5t-4.5 -10.5q-5 -15 -9 -23q-18 -43 -31 -80.5t-22 -70.5q-14 -51 -26.5 -94t-23.5 -79q-16 -52 -29 -97.5t-21 -85.5q-3 -11 -6 -21.5t-6 -21.5q-2 -11 -4.5 -21.5t-5.5 -21.5q-16 -54 -16 -82
q0 -22 16 -38q12 -13 35 -13q28 0 35 16q8 20 9.5 26.5t3.5 11.5q0 2 0.5 3t0.5 2l23 89q7 36 12 45q3 11 7.5 16.5t10.5 9.5h-2q2 1 4 1.5t5 1.5q5 2 11 3.5t13 4.5l37 18h-1q5 2 9.5 3.5t8.5 3.5q26 11 43 14q2 -6 9 -12h-3q4 -15 5.5 -25.5t3.5 -18.5q0 -2 0.5 -3t0.5 -3
q5 -24 7.5 -44t5.5 -37q3 -22 6 -35q5 -29 7.5 -45t3.5 -20q9 -32 60 -32q42 0 42 43zM357 866q21 1 21 9q0 -1 -1 1.5t-2 6.5q-10 26 -24 68t-26 87q-2 9 -5.5 14.5t-10.5 11.5l-1 1q-6 4 -22 12q-6 2 -8 4q-11 6 -20 6q-8 0 -14.5 -2.5t-9.5 -10.5h1q-15 -20 -29 -41.5
t-26 -42.5t-21.5 -40t-16.5 -32q-4 -7 -4 -12q0 -7 10 -17h-1q3 -5 8.5 -10.5t12.5 -11.5l3 -3l1.5 -1.5t4.5 -0.5q6 -3 15 -3q9 2 12 4.5t5 4.5q11 20 23.5 42.5t27.5 47.5q3 -8 5.5 -16.5t5.5 -16.5q5 -13 7.5 -21.5t6.5 -17.5q13 -21 35 -22q2 -1 5 -1h7l23 3h2zM275 398
q-8 -14 -24 -20l-35 -11h-12q-2 4 -2 8v8q0 6 21 90q1 3 2 6.5t2 7.5q6 25 11.5 43.5t10.5 29.5q2 -10 4.5 -28t6.5 -44q9 -48 12 -74q1 -4 1.5 -7.5t1.5 -8.5z" />
    <glyph glyph-name="atilde" unicode="&#xe3;" horiz-adv-x="430" 
d="M445 45q0 16 -1.5 32.5t-6.5 35.5l-3 15q-3 13 -5 25.5t-6 24.5q-5 22 -9.5 50t-6.5 45q0 6 -0.5 11t-0.5 4q0 10 3 14q7 13 12 19h-1l5 5v-1q6 16 6 38v6q-6 22 -31 32h1q-14 8 -22 25h1q-2 8 -3 13q-2 11 -4.5 24t-5.5 29l-35 187q-2 8 -3 15t-3 14q-4 19 -6 30.5
t-4 18.5q-14 41 -51 41q-9 0 -21 -6q-17 -7 -18 -12q-3 -7 -5.5 -12.5t-4.5 -10.5q-5 -15 -9 -23q-18 -43 -31 -80.5t-22 -70.5q-14 -51 -26.5 -94t-23.5 -79q-16 -52 -29 -97.5t-21 -85.5q-3 -11 -6 -21.5t-6 -21.5q-2 -11 -4.5 -21.5t-5.5 -21.5q-16 -54 -16 -82
q0 -22 16 -38q12 -13 35 -13q28 0 35 16q8 20 9.5 26.5t3.5 11.5q0 2 0.5 3t0.5 2l23 89q7 36 12 45q3 11 7.5 16.5t10.5 9.5h-2q2 1 4 1.5t5 1.5q5 2 11 3.5t13 4.5l37 18h-1q5 2 9.5 3.5t8.5 3.5q26 11 43 14q2 -6 9 -12h-3q4 -15 5.5 -25.5t3.5 -18.5q0 -2 0.5 -3t0.5 -3
q5 -24 7.5 -44t5.5 -37q3 -22 6 -35q5 -29 7.5 -45t3.5 -20q9 -32 60 -32q42 0 42 43zM305 865q29 0 56 37q30 37 30 65q0 9 -7 18q-13 12 -29 12q-18 0 -31 -18l-1 -2l-2 -4q-5 -7 -8.5 -14t-3.5 -11q0 -3 1 -3q-5 1 -13 7t-16 14l-6 6t-14 8h1q-11 7 -21 10.5t-23 3.5
q-10 0 -23.5 -7.5t-27 -18.5t-24 -24t-14.5 -23q-4 -15 -4 -26q0 -28 31 -28q21 0 30 10h-5q5 0 7 2t4 5q5 8 11 17l6 9q7 0 21 -7.5t21 -17.5q14 -20 54 -20zM275 398q-8 -14 -24 -20l-35 -11h-12q-2 4 -2 8v8q0 6 21 90q1 3 2 6.5t2 7.5q6 25 11.5 43.5t10.5 29.5
q2 -10 4.5 -28t6.5 -44q9 -48 12 -74q1 -4 1.5 -7.5t1.5 -8.5z" />
    <glyph glyph-name="adieresis" unicode="&#xe4;" horiz-adv-x="430" 
d="M445 45q0 16 -1.5 32.5t-6.5 35.5l-3 15q-3 13 -5 25.5t-6 24.5q-5 22 -9.5 50t-6.5 45q0 6 -0.5 11t-0.5 4q0 10 3 14q7 13 12 19h-1q4 4 5 4q6 16 6 38v6q-6 22 -31 32h1q-14 8 -22 25h1q-2 8 -3 13q-2 11 -4.5 24t-5.5 29l-35 187q-2 8 -3 15t-3 14q-4 19 -6 30.5
t-4 18.5q-14 41 -51 41q-9 0 -21 -6q-17 -7 -18 -12q-3 -7 -5.5 -12.5t-4.5 -10.5q-5 -15 -9 -23q-18 -43 -31 -80.5t-22 -70.5q-14 -51 -26.5 -94t-23.5 -79q-16 -52 -29 -97.5t-21 -85.5q-3 -11 -6 -21.5t-6 -21.5q-2 -11 -4.5 -21.5t-5.5 -21.5q-16 -54 -16 -82
q0 -22 16 -38q12 -13 35 -13q28 0 35 16q8 20 9.5 26.5t3.5 11.5q0 2 0.5 3t0.5 2l23 89q7 36 12 45q3 11 7.5 16.5t10.5 9.5h-2q2 1 4 1.5t5 1.5q5 2 11 3.5t13 4.5l37 18h-1q5 2 9.5 3.5t8.5 3.5q26 11 43 14q2 -6 9 -12h-3q4 -15 5.5 -25.5t3.5 -18.5q0 -2 0.5 -3t0.5 -3
q5 -24 7.5 -44t5.5 -37q3 -22 6 -35q5 -29 7.5 -45t3.5 -20q9 -32 60 -32q42 0 42 43zM275 927v-6q0 -31 14 -49.5t32 -18.5h2q11 0 19 5.5t13.5 13.5t9 17t4.5 16v2q1 5 1.5 9.5t0.5 10.5q0 16 -7.5 32.5t-24.5 27.5q-7 4 -18 4q-20 0 -32 -19.5t-14 -44.5zM149 927v-3
q0 -32 14 -51t33 -19h2q10 0 18.5 5.5t14.5 13.5t9 17t4 16q1 5 1.5 10t0.5 11q0 17 -7.5 33.5t-24.5 27.5q-7 4 -19 4q-20 0 -32 -19.5t-14 -45.5zM275 398q-8 -14 -24 -20l-35 -11h-12q-2 4 -2 8v8q0 6 21 90q1 3 2 6.5t2 7.5q6 25 11.5 43.5t10.5 29.5q2 -10 4.5 -28
t6.5 -44q9 -48 12 -74q1 -4 1.5 -7.5t1.5 -8.5z" />
    <glyph glyph-name="aring" unicode="&#xe5;" horiz-adv-x="435" 
d="M590 45q0 32 -10 68q-2 5 -3.5 9.5t-3.5 9.5h1q-4 12 -7 23.5t-7 22.5h1q-3 12 -6.5 26.5t-6.5 28.5t-5.5 26t-3.5 20q-2 10 -2 9q0 8 3 13q5 7 8 10l8 8l10 10q2 6 4 14.5t2 19.5q0 2 -0.5 4t-3.5 5h2q-7 19 -39 29h1q-21 9 -30 25q-2 6 -6 22.5t-11 43.5l-47 187l-3 12
q-7 27 -10 41t-8 25q-20 41 -66 41q-12 0 -27 -6h1q-21 -7 -24 -12q-9 -15 -15 -27q-3 -5 -5.5 -10l-4.5 -9q-23 -40 -40 -77.5t-31 -73.5q-18 -51 -35 -94t-32 -79q-23 -56 -40.5 -102t-27.5 -81h1q-5 -11 -8.5 -21.5t-7.5 -21.5q-3 -11 -6.5 -21.5t-7.5 -21.5
q-12 -29 -17.5 -49.5t-5.5 -32.5q0 -23 22 -38q16 -13 44 -13q33 0 43 16q11 19 14 28l5 15h-1l31 89q5 17 9.5 27.5t6.5 14.5q9 21 27 29h-1q3 2 5 2q3 0 7 1q6 2 14 3.5t17 4.5q18 7 36.5 13t36.5 12q19 5 34.5 9t28.5 6q2 -4 11 -13h-3q5 -14 7.5 -24.5t4.5 -18.5
q0 -1 3 -7h-1q5 -22 8.5 -40t7.5 -34q3 -12 5.5 -22.5t4.5 -19.5q6 -26 9.5 -41.5t6.5 -23.5q12 -32 76 -32q53 0 53 43zM415 1062q-23 13 -64 18h-9q-14 0 -27.5 -3t-23.5 -9q-38 -26 -58.5 -65t-20.5 -75q0 -30 13 -53q4 -8 14.5 -15t21.5 -12q11 -6 26 -8.5t29 -3.5
q5 -1 9 -1h10q17 0 30 3.5t24 11.5q32 28 47.5 66t15.5 73q0 8 -1 17.5t-4 19.5t-10 18.5t-22 17.5zM367 398q-8 -12 -34 -20h1l-47 -11h-22q-2 4 -2.5 8.5t-0.5 7.5q0 6 8.5 31t24.5 73q11 29 19.5 49.5t15.5 31.5q5 -15 18 -80q5 -22 8.5 -39t5.5 -29q2 -8 2.5 -13.5
t1.5 -8.5h1zM365 1000q0 -13 -2 -27t-7 -26q-9 -31 -21 -52t-22 -21q-5 2 -7.5 12.5t-2.5 25.5q0 14 2 27t5 24q4 12 10.5 25.5t13.5 24t13.5 17.5t11.5 7q3 -1 4.5 -11.5t1.5 -25.5z" />
    <glyph glyph-name="ae" unicode="&#xe6;" horiz-adv-x="829" 
d="M847 102v7q0 22 -10.5 41t-27.5 29q-18 -4 -33.5 -6t-29.5 -2h-9q-10 -2 -20 -2.5t-21 -1.5q-8 -1 -17 -1t-18 -1q-12 -3 -24.5 -6t-24.5 -7q-23 -6 -44.5 -12t-39.5 -9h1q-2 0 -4.5 -0.5t-4.5 -0.5q-5 -1 -9 -1h-7h-7t-8 2q-18 8 -18 32q0 8 2 14q0 27 1 48t3 41
q1 8 1 15q0 8 1 16q2 27 6.5 46t26.5 19q2 1 4 1q3 0 5 1q6 2 12 3.5l14 3.5q7 2 13.5 3.5t12.5 3.5q17 5 32 8.5t32 3.5q4 0 7 -0.5t7 -0.5q12 0 25.5 -0.5t27.5 -2.5h4q14 0 28.5 8t14.5 25q1 4 1 7v7q0 17 -10.5 31t-25.5 22q-6 2 -11.5 3t-11.5 2q-15 5 -30 6.5t-32 1.5
q-26 0 -51 -4t-51 -9q-7 -2 -15 -3t-16 -3l-3 2h2q-4 4 -4 22q2 9 2 18v18v14q0 7 1 15l9 41h-4q10 1 14.5 3t8.5 5h-1q14 8 26.5 11.5t25.5 5.5q14 4 26.5 5.5t24.5 2.5q19 5 34.5 6t32.5 1h6q21 0 41.5 2.5t44.5 16.5q6 12 6 27q0 24 -13.5 50t-33.5 40q-10 7 -29 7
q-5 0 -10 -1l-10 -2q-5 -2 -15 -2q-12 0 -22 -3q-25 -2 -49 -7t-49 -14q-17 -5 -32 -9t-29 -7q-4 -2 -5 -2v10q-2 20 -12.5 30.5t-32.5 10.5q-23 -8 -37.5 -21.5t-33.5 -42.5q-26 -41 -49 -78t-42 -73q-26 -51 -48 -94t-43 -79q-29 -52 -52.5 -97.5t-41.5 -85.5
q-6 -11 -11.5 -21.5t-10.5 -21.5t-10.5 -21.5t-10.5 -21.5q-17 -29 -26 -50t-12 -32q-1 -5 -1.5 -8.5t-0.5 -7.5q0 -12 9 -22q7 -13 34 -13q26 0 38 16q12 18 15.5 25.5t6.5 13.5h-2q1 1 3 4t3 4l43 85q8 19 13.5 28.5t8.5 14.5q14 21 26 28q2 0 4 0.5t7 2.5t10 3.5t13 4.5
q17 7 32 13t31 12q26 10 47 15q1 -3 3 -13h-1v-29q1 -6 1.5 -12.5t0.5 -13.5q0 -13 -1 -27t-1 -28q-3 -29 -3 -58q0 -27 6.5 -51.5t26.5 -40.5q6 -3 18 -5t22 -3q2 0 4 -0.5t4 -0.5q6 -1 13 -1.5t15 -0.5q24 0 44 6q54 17 105.5 29t104.5 12h15q18 0 35 3h-1q6 1 17 2l11 1
q18 6 31.5 20.5t15.5 35.5zM367 397q-9 -14 -30 -20l-37 -11h-13v16q2 4 14 29.5t36 74.5q26 50 42 76v-1q0 -16 -6 -74q-2 -17 -3 -30.5t-2 -24.5q-3 -26 -3 -35h2zM191 197v1v-1z" />
    <glyph glyph-name="ccedilla" unicode="&#xe7;" horiz-adv-x="465" 
d="M79 -39q-1 -1 -2 -1.5t-2 -1.5h1q-8 -7 -10.5 -10t-2.5 -11q0 -1 27 -1h43q2 0 4 0.5t5 0.5q5 1 11 1h14q14 0 27.5 -4.5t13.5 -20.5v-1h2q-20 -26 -42.5 -31.5t-42.5 -6.5q-24 -1 -42 -4t-25 -20q-2 -4 -2 -5q0 -13 22.5 -20.5t51.5 -7.5q24 0 52 5.5t51 17t38.5 27.5
t15.5 37q-2 37 -19.5 59.5t-64.5 24.5l17 20h-5q14 3 31.5 8t37.5 13q15 8 25.5 14.5t17.5 14.5h-1q156 112 156 183q0 25 -14 39.5t-36 14.5q-26 0 -44 -20l-13 -13t-11 -13q-11 -11 -21.5 -23t-22.5 -23h1q-27 -23 -45 -38t-28 -20q-37 -26 -66 -26q-31 0 -50 33h1
q-18 30 -18 85q0 52 19 103q0 1 8.5 23t27.5 66q34 89 71 150q56 92 92 92q8 0 14 -28q1 -9 2 -17t3 -16q1 -5 2 -10.5t2 -10.5q7 -28 34 -28q41 0 41 82q0 73 -14 108q-17 50 -72 50q-50 0 -84 -33h1q-11 -9 -21 -20.5t-21 -26.5q-13 -17 -22 -29.5t-14 -21.5
q-38 -64 -62 -108.5t-35 -71.5q-18 -47 -30 -78q-3 -8 -6.5 -15.5t-5.5 -14.5q-6 -17 -10.5 -34.5t-9.5 -39.5q-6 -47 -6 -79t2.5 -57.5t9.5 -43.5q7 -19 19 -39t32 -41h-1q8 -11 22.5 -19t32.5 -14h-4z" />
    <glyph glyph-name="egrave" unicode="&#xe8;" horiz-adv-x="489" 
d="M503 113v10q0 20 -9.5 38t-27.5 29q-37 -8 -62 -8h-8q-11 -2 -21 -2.5t-20 -1.5q-8 -1 -17 -1t-18 -1q-12 -3 -24 -6.5t-25 -7.5q-21 -6 -41.5 -11.5t-39.5 -8.5q-2 0 -3.5 -0.5t-3.5 -0.5q-4 0 -7.5 -0.5t-7.5 -0.5t-8 0.5t-10 1.5h1q-8 3 -12.5 12t-4.5 20q0 3 0.5 5.5
t1.5 5.5h-1q2 4 2 8v24q0 20 1 41t3 41q1 5 1 10t1 10q0 16 3.5 33t14.5 19q6 1 11.5 2t11.5 3t11.5 3t12.5 3t13 3.5t13 3.5q16 5 31.5 8.5t30.5 3.5q4 0 7 -0.5t7 -0.5q12 0 25 -0.5t27 -2.5h4q16 0 29.5 8t14.5 25q1 4 1 12q0 17 -10.5 32t-25.5 23q-6 2 -11 3t-12 2
q-14 5 -28.5 6.5t-31.5 1.5q-26 0 -50.5 -4t-49.5 -9q-8 -2 -15.5 -3.5t-15.5 -3.5l-4 3h3q-3 3 -3 17v14h-1q2 4 2 7q0 1 -2 5h1q0 11 0.5 20.5t1.5 20.5v3l2 18l1 8l2 8h-1l4 7q7 0 10.5 2.5t7.5 5.5h-1q14 8 26 11.5t26 5.5q13 4 25 5.5t25 2.5q18 5 34 6t31 1h7
q20 0 40.5 2.5t43.5 16.5q6 15 6 26q0 24 -13.5 50.5t-32.5 40.5q-10 7 -29 7q-2 0 -7.5 -1t-11.5 -2q-4 -2 -8 -2h-8q-11 0 -21 -3h2q-25 -2 -49.5 -7t-49.5 -14q-16 -5 -30.5 -9t-27.5 -7q-7 -3 -12.5 -4.5t-10.5 -3.5h1q-19 -5 -34 -13h-1q-23 0 -42.5 -14t-19.5 -41v-33
q0 -7 0.5 -13.5t0.5 -13.5v-124q1 -7 1 -14v-13v-27q0 -14 -0.5 -26.5t-1.5 -25.5q-2 -29 -4.5 -58.5t-7.5 -59.5q-4 -29 -6 -58l-4 -58q-1 -7 -1.5 -14t-0.5 -14q0 -22 5 -43.5t15.5 -39t26.5 -29t37 -13.5q7 -1 13.5 -1.5t14.5 -0.5q25 0 43 6q53 17 104.5 29t103.5 12h15
q17 0 34 3q5 1 12 2t14 1q18 6 31 20.5t15 35.5zM318 895q0 20 -10 55.5t-32 89.5l-28 73q-21 51 -53 51q-19 0 -33 -15.5t-14 -36.5q0 -6 1.5 -13.5t6.5 -18.5q10 -26 19.5 -44.5t16.5 -31.5h-1q1 -8 5 -17q1 -2 2 -4.5t2 -4.5l11 -33q11 -28 18.5 -44.5t10.5 -23.5
q14 -22 40 -22q38 0 38 40z" />
    <glyph glyph-name="eacute" unicode="&#xe9;" horiz-adv-x="489" 
d="M503 113v10q0 20 -9.5 38t-27.5 29q-37 -8 -62 -8h-8q-11 -2 -21 -2.5t-20 -1.5q-8 -1 -17 -1t-18 -1q-12 -3 -24 -6.5t-25 -7.5q-21 -6 -41.5 -11.5t-39.5 -8.5q-2 0 -3.5 -0.5t-3.5 -0.5q-4 0 -7.5 -0.5t-7.5 -0.5t-8 0.5t-10 1.5h1q-8 3 -12.5 12t-4.5 20q0 3 0.5 5.5
t1.5 5.5h-1q2 4 2 8v24q0 20 1 41t3 41q1 5 1 10t1 10q0 16 3.5 33t14.5 19q6 1 11.5 2t11.5 3t11.5 3t12.5 3t13 3.5t13 3.5q16 5 31.5 8.5t30.5 3.5q4 0 7 -0.5t7 -0.5q12 0 25 -0.5t27 -2.5h4q16 0 29.5 8t14.5 25q1 4 1 12q0 17 -10.5 32t-25.5 23q-6 2 -12 3.5t-14 1.5
h3q-14 5 -28.5 6.5t-31.5 1.5q-26 0 -50.5 -4t-49.5 -9q-8 -2 -15.5 -3.5t-15.5 -3.5l-4 3h3q-3 3 -3 17v14h-1q2 4 2 7q0 1 -2 5h1q0 11 0.5 20.5t1.5 20.5v3l2 18l1 8l2 8h-1l4 7q7 0 10.5 2.5t7.5 5.5h-1q14 8 26 11.5t26 5.5q13 4 25 5.5t25 2.5q18 5 34 6t31 1h7
q20 0 40.5 2.5t43.5 16.5q6 15 6 26q0 24 -13.5 50.5t-32.5 40.5q-10 7 -29 7q-2 0 -7.5 -1t-11.5 -2q-4 -2 -8 -2h-8q-11 0 -21 -3q-25 -2 -49 -7t-48 -14q-16 -5 -30.5 -9t-27.5 -7q-7 -3 -12.5 -4.5t-10.5 -3.5h1q-19 -5 -34 -13h-1q-23 0 -42.5 -14t-19.5 -41v-33
q0 -7 0.5 -13.5t0.5 -13.5v-124q1 -7 1 -14v-13v-27q0 -14 -0.5 -26.5t-1.5 -25.5q-2 -29 -4.5 -58.5t-7.5 -59.5q-4 -29 -6 -58l-4 -58q-1 -7 -1.5 -14t-0.5 -14q0 -22 5 -43.5t15.5 -39t26.5 -29t37 -13.5q7 -1 13.5 -1.5t14.5 -0.5q25 0 43 6q53 17 104.5 29t103.5 12h15
q17 0 34 3q5 1 12 2t14 1q18 6 31 20.5t15 35.5zM197 897q0 -40 39 -40q14 0 23 5.5t17 16.5q4 8 11 23.5t18 44.5l10 33q1 3 5 11l7 15h-2q8 13 16.5 31.5t19.5 44.5q4 11 5 18.5t1 13.5q0 21 -14 36.5t-33 15.5q-29 0 -53 -51l-27 -73q-43 -105 -43 -145z" />
    <glyph glyph-name="ecircumflex" unicode="&#xea;" horiz-adv-x="489" 
d="M503 113v10q0 20 -9.5 38t-27.5 29q-37 -8 -62 -8h-8q-11 -2 -21 -2.5t-20 -1.5q-8 -1 -17 -1t-18 -1q-12 -3 -24 -6.5t-25 -7.5q-21 -6 -41.5 -11.5t-39.5 -8.5h1q-2 0 -4 -0.5t-4 -0.5q-4 0 -7.5 -0.5t-7.5 -0.5t-8 0.5t-10 1.5h1q-8 3 -12.5 12t-4.5 20q0 3 0.5 5.5
t1.5 5.5h-1q2 4 2 8v24q0 20 1 41t3 41q1 5 1 10t1 10q0 16 3.5 33t14.5 19q6 1 11.5 2t11.5 3t11.5 3t12.5 3t13 3.5t13 3.5q16 5 31.5 8.5t30.5 3.5q4 0 7 -0.5t7 -0.5q12 0 25 -0.5t27 -2.5h4q16 0 29.5 8t14.5 25q1 4 1 12q0 17 -10.5 32t-25.5 23q-6 2 -11 3t-12 2
q-14 5 -28.5 6.5t-31.5 1.5q-26 0 -50.5 -4t-49.5 -9q-8 -2 -15.5 -3.5t-15.5 -3.5l-4 3h3q-3 3 -3 17v14h-1q2 4 2 7q0 1 -2 5h1q0 11 0.5 20.5t1.5 20.5v3l2 18l1 8l2 8h-1l4 7q7 0 10.5 2.5t7.5 5.5h-1q14 8 26 11.5t26 5.5q13 4 25 5.5t25 2.5q18 5 34 6t31 1h7
q20 0 40.5 2.5t43.5 16.5q6 15 6 26q0 24 -13.5 50.5t-32.5 40.5q-10 7 -29 7q-2 0 -7.5 -1t-11.5 -2q-4 -2 -8 -2h-8q-11 0 -21 -3h2q-25 -2 -49.5 -7t-49.5 -14q-16 -5 -30.5 -9t-27.5 -7q-7 -3 -12.5 -4.5t-10.5 -3.5h1q-19 -5 -34 -13h-1q-23 0 -42.5 -14t-19.5 -41v-33
q0 -7 0.5 -13.5t0.5 -13.5v-124q1 -7 1 -14v-13v-27q0 -14 -0.5 -26.5t-1.5 -25.5q-2 -29 -4.5 -58.5t-7.5 -59.5q-4 -29 -6 -58l-4 -58q-1 -7 -1.5 -14t-0.5 -14q0 -22 5 -43.5t15.5 -39t26.5 -29t37 -13.5q7 -1 13.5 -1.5t14.5 -0.5q25 0 43 6q53 17 104.5 29t103.5 12h15
q17 0 34 3q5 1 12 2t14 1q18 6 31 20.5t15 35.5zM361 886q21 1 21 9q0 1 -0.5 2t-3.5 6h1q-11 27 -24.5 69t-24.5 86q-2 11 -6.5 15.5l-10.5 10.5q-5 3 -11 6t-13 7q-2 1 -3.5 1.5t-3.5 2.5q-12 6 -20 6q-19 0 -25 -13h1q-15 -20 -29 -41.5t-26 -42.5t-22 -40t-17 -32h1
q-4 -10 -4 -11q0 -5 8 -18q4 -5 11 -11.5t15 -13.5q0 1 1 1q6 -3 10 -4.5t9 -1.5q9 2 12 4.5t5 4.5q11 20 23.5 42.5t28.5 47.5q5 -17 10 -28q5 -14 9.5 -26.5t7.5 -22.5q8 -15 33 -17q4 -1 13 -1zM175 884h1h-1z" />
    <glyph glyph-name="edieresis" unicode="&#xeb;" horiz-adv-x="489" 
d="M503 113v10q0 20 -9.5 38t-27.5 29q-37 -8 -62 -8h-8q-11 -2 -21 -2.5t-20 -1.5q-8 -1 -17 -1t-18 -1q-12 -3 -24 -6.5t-25 -7.5q-21 -6 -41.5 -11.5t-39.5 -8.5q-2 0 -3.5 -0.5t-3.5 -0.5q-4 0 -7.5 -0.5t-7.5 -0.5t-8 0.5t-10 1.5h1q-8 3 -12.5 12t-4.5 20q0 3 0.5 5.5
t1.5 5.5h-1q2 4 2 8v24q0 20 1 41t3 41q1 5 1 10t1 10q0 16 3.5 33t14.5 19q6 1 11.5 2t11.5 3t11.5 3t12.5 3t13 3.5t13 3.5q16 5 31.5 8.5t30.5 3.5q4 0 7 -0.5t7 -0.5q12 0 25 -0.5t27 -2.5h4q16 0 29.5 8t14.5 25q1 4 1 12q0 17 -10.5 32t-25.5 23q-6 2 -11 3t-12 2
q-14 5 -28.5 6.5t-31.5 1.5q-26 0 -50.5 -4t-49.5 -9q-8 -2 -15.5 -3.5t-15.5 -3.5l-4 3h3q-3 3 -3 17v14h-1q2 4 2 7q0 1 -2 5h1q0 11 0.5 20.5t1.5 20.5v3l2 18l1 8l2 8h-1l4 7q7 0 10.5 2.5t7.5 5.5h-1q14 8 26 11.5t26 5.5q13 4 25 5.5t25 2.5q18 5 34 6t31 1h7
q20 0 40.5 2.5t43.5 16.5q6 15 6 26q0 24 -13.5 50.5t-32.5 40.5q-10 7 -29 7q-2 0 -7.5 -1t-11.5 -2q-4 -2 -8 -2h-8q-11 0 -21 -3q-25 -2 -49 -7t-48 -14q-16 -5 -30.5 -9t-27.5 -7q-7 -3 -12.5 -4.5t-10.5 -3.5h1q-19 -5 -34 -13h-1q-23 0 -42.5 -14t-19.5 -41v-33
q0 -7 0.5 -13.5t0.5 -13.5v-124q1 -7 1 -14v-13v-27q0 -14 -0.5 -26.5t-1.5 -25.5q-2 -29 -4.5 -58.5t-7.5 -59.5q-4 -29 -6 -58l-4 -58q-1 -7 -1.5 -14t-0.5 -14q0 -22 5 -43.5t15.5 -39t26.5 -29t37 -13.5q7 -1 13.5 -1.5t14.5 -0.5q25 0 43 6q53 17 104.5 29t103.5 12h15
q17 0 34 3q5 1 12 2t14 1q18 6 31 20.5t15 35.5zM266 931v-7q0 -31 13.5 -49t33.5 -18h1q11 0 19.5 5.5t14.5 13.5t9.5 17t4.5 16v10v12q0 16 -7.5 32.5t-23.5 27.5q-7 4 -18 4q-20 0 -33 -19.5t-14 -44.5zM141 931v-6q0 -30 14 -48.5t32 -18.5h2q10 0 18.5 5.5t14.5 13.5
t9 17t4 16h-1q4 11 4 21q0 17 -8 33.5t-26 27.5q-7 4 -18 4q-20 0 -31.5 -19.5t-13.5 -45.5z" />
    <glyph glyph-name="igrave" unicode="&#xec;" horiz-adv-x="471" 
d="M634 721q0 19 -32 59l-71 6q-23 -2 -42.5 -3t-35.5 -3q-35 -2 -55.5 -3.5t-28.5 -3.5q-13 -2 -24.5 -3t-22.5 -2l-35 -3h1q-16 -1 -30 -2.5t-24 -4.5h1q-14 -2 -28.5 -4.5t-28.5 -5.5q-7 -2 -13.5 -2.5t-12.5 -2.5q-56 -9 -84 -24t-28 -41q0 -61 92 -61q3 0 11 1t22 3h-1
q23 3 40.5 6t29.5 5q2 0 3 0.5t3 0.5q3 1 7 1q2 0 14 0.5t32 2.5q-3 -26 -3 -54q-1 -37 -3 -80t-8 -91l-21 -171q0 -8 -1 -14.5t-2 -14.5q-1 -7 -1.5 -13.5t-1.5 -14.5q-6 -41 -18 -50q-18 -13 -38 -17q-4 -1 -15.5 -3t-31.5 -5q-38 -6 -50 -10h1q-21 -5 -33.5 -7.5
t-20.5 -5.5q-33 -17 -33 -42q0 -3 -0.5 -6t-0.5 -5q0 -36 35 -44h1q2 0 3 -1q27 -6 43 -6q17 0 35.5 2.5t51.5 8.5q2 1 3 1q2 0 5 1h-1q29 5 56 9.5l51 8.5q84 14 132.5 21.5t59.5 8.5q38 5 65.5 10.5t41.5 8.5h-1q5 1 11.5 1.5t8.5 0.5q16 29 16 51q0 35 -44 60
q-29 -4 -52 -7.5t-35 -5.5q-5 -1 -10 -1.5l-5 -0.5h1q-6 -1 -16 -1.5t-21 -0.5q-16 0 -27.5 -1t-18.5 -5h5q-11 0 -12.5 3.5t-1.5 22.5v7l32 315h-1q2 5 2 6v2v7q0 111 20 137q12 1 33 4.5t51 9.5l8 2t9 2q88 0 88 51zM391 881q0 40 -57 145l-37 73q-32 51 -69 51
q-24 0 -42 -15.5t-18 -36.5q0 -6 2 -13.5t8 -18.5q12 -23 24 -41.5t23 -34.5h-2l3 -6t6 -10q-1 2 1.5 -1.5t5.5 -8.5h-1q2 -6 3.5 -10t2.5 -7q3 -7 8 -16q28 -52 38 -66q21 -24 52 -24q49 0 49 40z" />
    <glyph glyph-name="iacute" unicode="&#xed;" horiz-adv-x="466" 
d="M478 721q0 20 -22 59l-57 6q-33 -3 -57 -6q-53 -5 -63 -7q-11 -2 -19 -3l-16 -2l-26 -3q-12 -1 -22.5 -2.5t-17.5 -4.5h1q-11 -2 -22.5 -5t-22.5 -6q-5 -2 -9 -2.5t-8 -1.5q-42 -9 -63.5 -23.5t-21.5 -41.5q0 -61 71 -61q2 0 8.5 1t16.5 3q17 3 29.5 6t21.5 5h-1
q2 0 3.5 0.5t2.5 0.5q2 1 4 1h9q8 0 22 2q-1 -6 -1 -13v-13v-27q0 -75 -9 -171l-15 -171q-1 -6 -1.5 -11.5t-0.5 -11.5q-1 -8 -1 -17q0 -8 -2 -17q-4 -41 -13 -50q-13 -13 -27 -17h1q-3 -1 -11.5 -3t-23.5 -5q-15 -4 -24.5 -6t-13.5 -4h2q-17 -5 -27 -7.5t-15 -5.5
q-25 -17 -25 -42v-10q0 -37 26 -45h1q2 0 4 -1q10 -2 17 -4t15 -2q13 0 27.5 3t43.5 10q19 5 35.5 8t32.5 7q66 15 105.5 23.5t47.5 9.5q29 5 50 10.5t30 8.5h-1q4 1 7.5 1.5t8.5 0.5q12 31 12 52q0 32 -32 59q-23 -4 -41.5 -7.5t-27.5 -5.5q-4 -1 -8 -1.5t-2 -0.5
q-5 -1 -11.5 -1.5t-14.5 -0.5q-29 0 -36 -6q-2 2 -2.5 7t-0.5 19v7l24 315h-1q2 5 2 6v2v7q0 110 15 137h-4q11 1 26 4.5t38 9.5l6 2t7 2q67 0 67 51zM247 905q0 -40 48 -40q31 0 52 24q5 8 14 24t23 42q2 5 3.5 8.5t3.5 7.5q2 5 7 17h-1q3 5 5.5 8.5t1.5 1.5q4 6 6 10l3 6
h-3q11 17 23 35t25 41q5 11 7 18.5t2 13.5q0 21 -17.5 36.5t-41.5 15.5q-38 0 -68 -51l-37 -73q-56 -103 -56 -145z" />
    <glyph glyph-name="icircumflex" unicode="&#xee;" horiz-adv-x="467" 
d="M478 721q0 22 -22 59l-56 6q-17 -2 -31.5 -3t-26.5 -3q-26 -2 -41.5 -3.5t-21.5 -3.5q-11 -2 -19 -3l-16 -2l-26 -3q-12 -1 -22 -2.5t-18 -4.5h1q-10 -2 -22 -5t-23 -6q-5 -2 -9 -2.5t-7 -1.5q-43 -9 -64.5 -23.5t-21.5 -41.5q0 -61 71 -61q2 0 8.5 1t16.5 3q17 3 29.5 6
t21.5 5h-1q2 0 3.5 0.5t2.5 0.5q3 1 5 1h8q8 0 22 2q-1 -6 -1 -13v-13v-27q-1 -37 -2 -80t-6 -91l-16 -171q-1 -6 -1.5 -11.5t-0.5 -11.5q-1 -8 -1 -17q0 -8 -1 -17q-4 -40 -14 -50q-13 -13 -27 -17h1q-3 -1 -11.5 -3t-23.5 -5q-15 -4 -24.5 -6t-13.5 -4h2q-17 -5 -27 -7.5
t-15 -5.5q-25 -17 -25 -42v-10q0 -37 26 -45h1q2 0 4 -1q10 -2 17 -4t15 -2q13 0 27.5 3t43.5 10q19 5 35.5 8t32.5 7q67 15 106 23.5t47 9.5q29 5 50 10.5t31 8.5h-1q4 1 7 1.5t8 0.5q13 30 13 52q0 31 -33 59q-23 -4 -41.5 -7.5t-26.5 -5.5q-5 -1 -9 -1.5t-2 -0.5
q-5 -1 -11.5 -1.5t-14.5 -0.5q-14 0 -22.5 -1t-13.5 -5q-2 2 -2.5 7t-0.5 19v7l24 315h-1q2 5 2 6v2v7q0 56 4 89.5t11 47.5h-4q11 1 26.5 4.5t38.5 9.5q3 1 5.5 2t6.5 2q67 0 67 51zM463 874q26 2 26 9l-1.5 2t-3.5 6h1q-7 15 -16 33.5t-18 39t-18 41.5t-15 41h1
q-3 9 -9 14.5t-15 12.5q-11 5 -15.5 7t-8.5 4q-6 2 -11 4l-10 4q-9 3 -18 3q-21 0 -29 -13h1q-20 -19 -38 -41t-34.5 -43t-29.5 -40t-22 -32q-6 -7 -6 -11q0 -6 13 -18h-1q5 -5 13 -11t17 -11h-1q3 -2 7 -3.5t6 -1.5h-3q6 -3 18 -3q9 2 12.5 4t5.5 5q16 21 34 45.5t40 50.5
q5 -11 9.5 -21.5t9.5 -19.5q5 -12 9 -21t9 -17q14 -19 43 -21q4 -1 8 -1h8zM397 1072l-1 1h-1q0 -1 2 -1zM215 875h-1h1z" />
    <glyph glyph-name="idieresis" unicode="&#xef;" horiz-adv-x="466" 
d="M478 721q0 20 -22 59l-57 6q-33 -3 -57 -6q-53 -5 -63 -7q-11 -2 -19 -3l-16 -2l-26 -3q-12 -1 -22.5 -2.5t-17.5 -4.5h1q-11 -2 -22.5 -5t-22.5 -6q-5 -2 -9 -2.5t-8 -1.5q-42 -9 -63.5 -23.5t-21.5 -41.5q0 -61 71 -61q2 0 8.5 1t16.5 3q17 3 29.5 6t21.5 5h-1
q2 0 3.5 0.5t2.5 0.5q2 1 4 1h9q8 0 22 2q-1 -6 -1 -13v-13v-27q0 -75 -9 -171l-15 -171q-1 -6 -1.5 -11.5t-0.5 -11.5q-1 -8 -1 -17q0 -8 -2 -17q-4 -41 -13 -50q-13 -13 -27 -17h1q-3 -1 -11.5 -3t-23.5 -5q-15 -4 -24.5 -6t-13.5 -4h2q-17 -5 -27 -7.5t-15 -5.5
q-25 -17 -25 -42v-10q0 -37 26 -45h1q2 0 4 -1q10 -2 17 -4t15 -2q13 0 27.5 3t43.5 10q19 5 35.5 8t32.5 7q66 15 105.5 23.5t47.5 9.5q29 5 50 10.5t30 8.5h-1q4 1 7.5 1.5t8.5 0.5q12 31 12 52q0 32 -32 59q-23 -4 -41.5 -7.5t-27.5 -5.5q-4 -1 -8 -1.5t-2 -0.5
q-5 -1 -11.5 -1.5t-14.5 -0.5q-29 0 -36 -6q-2 2 -2.5 7t-0.5 19v7l24 315h-1q2 5 2 6v2v7q0 110 15 137h-4q11 1 26 4.5t38 9.5q4 1 7 2t7 2q66 0 66 51zM346 941v-7q0 -31 17 -49t41 -18h3q13 0 23.5 5.5t18 13.5t11.5 17t5 16v2q1 5 1.5 9.5t0.5 10.5q0 17 -10 33t-32 27
q-8 4 -22 4q-25 0 -40 -19.5t-17 -44.5zM178 941v-5q0 -31 17.5 -49.5t40.5 -18.5h3q13 0 23.5 5.5t18 13.5t12 17t5.5 16h-1q4 11 4 21q0 17 -10.5 33.5t-33.5 27.5q-7 4 -21 4q-25 0 -40.5 -19.5t-17.5 -45.5z" />
    <glyph glyph-name="eth" unicode="&#xf0;" horiz-adv-x="487" 
d="M505 447q0 118 -20 167q-13 28 -26 48.5t-25 35.5t-30 28t-39 24q-8 4 -16 6.5t-16 5.5q-11 4 -20 8t-19 9q-7 4 -27 6q-19 3 -21 5q-15 7 -34.5 11t-43.5 4q-62 0 -62 -46v-17q0 -8 0.5 -17.5t1.5 -18.5q1 -7 1 -12v-9q0 -26 -3 -72q-2 -18 -2 -32q0 -13 -1 -22
q0 -6 -0.5 -10.5t-0.5 -7.5v-6q-1 -11 -1.5 -21t-0.5 -18h-56q-5 0 -11.5 -3t-10.5 -10q-12 -20 -12 -22q0 -45 20 -69t56 -25q-5 -69 -9 -117q-2 -19 -3 -34t-2 -29l-5 -66q-1 -8 -1.5 -14t-0.5 -10v-6q0 -49 18 -69t59 -20q24 0 45 17q7 6 13.5 10.5t12.5 8.5q4 3 6 4t6 5
h-1q32 18 53 31t32 23q196 148 196 346zM354 456q0 47 -52 56h5q-1 1 -5 1h-7h-10l-88 -11q1 12 2 23.5t3 23.5q1 18 3 30q1 5 2 12t1 9v1l-0.5 -0.5t-0.5 -1.5q2 5 2 7v4q2 8 2.5 16.5t0.5 16.5q1 5 1 8t1 6q1 13 3 16h3q77 0 124 -35q52 -43 54 -156q-1 -5 -1.5 -10
t-0.5 -11q-1 -3 -1 -7t-1 -9q-2 -18 -3.5 -29.5t-3.5 -16.5q-21 -77 -74 -139q-25 -29 -52.5 -51t-56.5 -39q-21 -12 -25 -12t-4 26v7q0 6 1 14q1 16 3 45q1 8 1 14q0 7 1 13q1 14 1.5 24t0.5 18h-1q2 5 2.5 9t1.5 7q0 2 0.5 2.5t0.5 2.5q1 8 1.5 15t0.5 14h-9q35 3 63 6
t51 6q1 0 1.5 0.5t2.5 0.5q29 2 29 3h-7q23 7 27 29q5 19 7 42z" />
    <glyph glyph-name="ntilde" unicode="&#xf1;" horiz-adv-x="471" 
d="M475 256q0 22 -0.5 36t-0.5 31t-0.5 43t-1.5 72q0 14 -0.5 24.5t-1.5 16.5q0 17 -0.5 31.5t-0.5 25.5v27q-2 60 -5 101.5t-7 68.5q-5 22 -27 45h1q-18 24 -43 24q-23 0 -34.5 -14.5t-11.5 -37.5v-9l16 -276v-14q0 -13 -0.5 -35t-1.5 -54q-3 -83 -6 -98q-1 -4 -1 -8v-1
q-6 6 -56 109q-7 14 -13.5 26.5t-12.5 25.5q-11 20 -20 39.5t-19 39.5q-25 47 -60 166q-11 39 -17.5 62t-14.5 36q-18 32 -58 32q-45 0 -51 -66v-5q0 -2 -1 -6q0 -2 -0.5 -4t-0.5 -4t-0.5 -3t-0.5 -3q-1 -5 -1 -9v-6v-93q0 -6 -0.5 -17.5t-1.5 -27.5l-2 -90q-2 -20 -2 -31
v-12v-24q0 -16 2 -44q2 -42 3 -75t3 -59q0 -21 0.5 -42t1.5 -42q-2 -14 -2 -25v-21v-18q0 -7 2 -13q4 -17 31 -41q20 -2 32 -3t15 -1q24 0 32 24q3 8 5.5 16t2.5 16q0 3 -0.5 6t-0.5 6l-6 105l-2 54v108h-1q1 5 1 6v3v30q0 15 -0.5 24.5t-3.5 12.5q4 -4 21 -32
q2 -5 2.5 -6.5t1.5 -3.5q0 -2 1 -2.5t1 -1.5h-2q1 -2 1.5 -3.5t1.5 -3.5l24 -48t16 -36l17 -27q3 -5 5 -8.5t4 -5.5h-1q5 -11 9 -20.5t8 -17.5t6.5 -14.5t4.5 -11.5q13 -22 31.5 -47.5t44.5 -57.5q59 -68 96 -68q27 0 35 23q7 15 11 113q0 9 0.5 17.5t0.5 16.5q1 26 2 47
t1 37zM285 850q28 0 56 37q29 39 29 65q0 9 -7 18q-13 12 -29 12q-18 0 -30 -17q0 -1 -3 -4q-3 -6 -8 -15.5t-5 -13.5q0 -1 0.5 -1.5l0.5 -0.5q-5 1 -12 6.5t-15 13.5h1q-9 7 -22 15q-11 7 -21 10.5t-23 3.5q-10 0 -23.5 -7.5t-27 -18.5t-24 -24t-13.5 -23q-6 -17 -6 -26
q0 -28 33 -28q21 0 28 10h-5q5 0 7 2t4 5q5 8 11 17l6 9q8 0 22 -7.5t21 -17.5q14 -20 55 -20z" />
    <glyph glyph-name="ograve" unicode="&#xf2;" horiz-adv-x="592" 
d="M592 464q0 14 -1.5 29.5t-5.5 32.5q1 -1 1 -2v0v1q0 3 -2.5 14.5t-4.5 17.5q-2 8 -3 14.5t-3 14.5q-4 22 -9.5 41t-13.5 38q-24 58 -73 101q-49 42 -100 43q1 -1 -8 -2t-15 -2q-10 -2 -12 -2q-65 0 -157 -88q-32 -31 -62.5 -84.5t-63.5 -136.5q-11 -27 -17 -53t-10 -52
t-5.5 -43.5t-1.5 -25.5q-1 -8 -1.5 -16.5t-0.5 -18.5q0 -17 2 -37t7 -44q21 -74 39 -86h-3q4 -6 10.5 -14t15.5 -19q9 -8 18.5 -15t20.5 -15q5 -3 14 -8t14 -7h-1q11 -7 26 -12q51 -17 71 -17q72 0 123 27l24 16h-1q8 5 11.5 7.5t6.5 4.5h-1q22 12 36.5 24.5t25.5 26.5
q53 62 82 157q15 48 21.5 95t6.5 95zM481 441q0 -90 -38 -169q-42 -87 -93 -115q-29 -20 -73 -20q-6 0 -29 5h1q-58 18 -84 56q-29 39 -29 130q0 34 9.5 69.5t28.5 77.5q21 45 43.5 76.5t47.5 58.5q57 58 97 58q49 0 87 -74q32 -67 32 -153zM408 910q0 20 -10 55.5t-32 89.5
l-28 73q-24 51 -54 51q-19 0 -33 -15.5t-14 -36.5q0 -6 1 -13.5t6 -18.5q11 -26 19 -44.5t16 -31.5h-1l6 -15q4 -8 5 -11l11 -33q11 -29 18 -44.5t11 -23.5q14 -22 40 -22q39 0 39 40z" />
    <glyph glyph-name="oacute" unicode="&#xf3;" horiz-adv-x="592" 
d="M592 464q0 14 -1.5 29.5t-5.5 32.5q1 -1 1 -2v0v1q0 3 -2.5 14.5t-4.5 17.5q-2 8 -3 14.5t-3 14.5q-4 22 -9.5 41t-13.5 38q-24 58 -73 101q-49 42 -100 43q1 -1 -8 -2t-15 -2q-10 -2 -12 -2q-65 0 -157 -88q-32 -31 -62.5 -84.5t-63.5 -136.5q-11 -27 -17 -53t-10 -52
t-5.5 -43.5t-1.5 -25.5q-1 -8 -1.5 -16.5t-0.5 -18.5q0 -17 2 -37t7 -44q21 -74 39 -86h-3q4 -6 10.5 -14t15.5 -19q9 -8 18.5 -15t20.5 -15q5 -3 14 -8t14 -7h-1q11 -7 26 -12q51 -17 71 -17q72 0 123 27l24 16h-1q8 5 11.5 7.5t6.5 4.5h-1q22 12 36.5 24.5t25.5 26.5
q53 62 82 157q15 48 21.5 95t6.5 95zM481 441q0 -90 -38 -169q-42 -87 -93 -115q-29 -20 -73 -20q-6 0 -29 5h1q-58 18 -84 56q-29 39 -29 130q0 34 9.5 69.5t28.5 77.5q21 45 43.5 76.5t47.5 58.5q57 58 97 58q49 0 87 -74q32 -67 32 -153zM266 907q0 -40 39 -40
q26 0 40 22q3 7 10.5 23.5t18.5 44.5l11 33q1 2 2 4.5t2 4.5q2 4 3 8t3 9h-2q6 13 15.5 31.5t20.5 44.5q5 11 6.5 18.5t1.5 13.5q0 21 -14 36.5t-33 15.5q-32 0 -53 -51l-28 -73q-43 -105 -43 -145z" />
    <glyph glyph-name="ocircumflex" unicode="&#xf4;" horiz-adv-x="592" 
d="M592 464q0 14 -1.5 29.5t-5.5 32.5q1 -1 1 -2v0v1q0 3 -2.5 14.5t-4.5 17.5q-2 8 -3 14.5t-3 14.5q-4 22 -9.5 41t-13.5 38q-24 58 -73 101q-49 42 -100 43q1 -1 -8 -2t-15 -2q-10 -2 -12 -2q-65 0 -157 -88q-32 -31 -62.5 -84.5t-63.5 -136.5q-11 -27 -17 -53t-10 -52
t-5.5 -43.5t-1.5 -25.5q-1 -8 -1.5 -16.5t-0.5 -18.5q0 -17 2 -37t7 -44q21 -74 39 -86h-3q4 -6 10.5 -14t15.5 -19q9 -8 18.5 -15t20.5 -15q5 -3 14 -8t14 -7h-1q11 -7 26 -12q51 -17 71 -17q72 0 123 27l24 16h-1q8 5 11.5 7.5t6.5 4.5h-1q22 12 36.5 24.5t25.5 26.5
q53 62 82 157q15 48 21.5 95t6.5 95zM481 441q0 -90 -38 -169q-42 -87 -93 -115q-29 -20 -73 -20q-6 0 -29 5h1q-58 18 -84 56q-29 39 -29 130q0 34 9.5 69.5t28.5 77.5q21 45 43.5 76.5t47.5 58.5q57 58 97 58q49 0 87 -74q32 -67 32 -153zM453 883q22 1 22 9q0 -1 -1 1.5
t-2 6.5q-11 26 -25 68t-25 87q-2 9 -6 14.5t-11 11.5l-1 1q-6 4 -22 12q-6 2 -8 4q-12 6 -20 6q-19 0 -25 -13h1q-15 -20 -29 -41.5t-26 -42.5t-22 -40t-17 -32q-4 -7 -4 -12q0 -7 10 -17h-1q7 -9 21 -22q1 -1 2 -1.5t2 -1.5l1.5 -1.5t4.5 -0.5q6 -3 15 -3q9 2 12 4.5t5 4.5
q11 20 24 42.5t28 47.5q3 -8 5.5 -16.5t4.5 -16.5q5 -13 8 -21.5t7 -17.5q13 -21 35 -22q4 -1 12 -1l24 3h1z" />
    <glyph glyph-name="otilde" unicode="&#xf5;" horiz-adv-x="592" 
d="M592 464q0 14 -1.5 29.5t-5.5 32.5q1 -1 1 -2v0v1q0 3 -2.5 14.5t-4.5 17.5q-2 8 -3 14.5t-3 14.5q-4 22 -9.5 41t-13.5 38q-24 58 -73 101q-49 42 -100 43q1 -1 -8 -2t-15 -2q-10 -2 -12 -2q-65 0 -157 -88q-32 -31 -62.5 -84.5t-63.5 -136.5q-11 -27 -17 -53t-10 -52
t-5.5 -43.5t-1.5 -25.5q-1 -8 -1.5 -16.5t-0.5 -18.5q0 -17 2 -37t7 -44q21 -74 39 -86h-3q4 -6 10.5 -14t15.5 -19q9 -8 18.5 -15t20.5 -15q5 -3 14 -8t14 -7h-1q11 -7 26 -12q51 -17 71 -17q72 0 123 27l24 16h-1q8 5 11.5 7.5t6.5 4.5h-1q22 12 36.5 24.5t25.5 26.5
q53 62 82 157q15 48 21.5 95t6.5 95zM481 441q0 -90 -38 -169q-42 -87 -93 -115q-29 -20 -73 -20q-6 0 -29 5h1q-58 18 -84 56q-29 39 -29 130q0 34 9.5 69.5t28.5 77.5q21 45 43.5 76.5t47.5 58.5q57 58 97 58q49 0 87 -74q32 -67 32 -153zM399 862q29 0 56 37q30 39 30 65
q0 10 -6 18q-13 12 -29 12q-21 0 -32 -20q-1 -2 -1 -1t-2 -3q-5 -7 -8.5 -14t-3.5 -11q0 -3 1 -3q-5 1 -13 7t-16 14q-4 3 -6.5 6t-13.5 8h1q-11 7 -21.5 10.5t-24.5 3.5q-10 0 -23.5 -7.5t-27 -18.5t-24 -24t-13.5 -23q-3 -8 -4 -14.5t-1 -11.5q0 -28 32 -28q20 0 29 10h-8
q2 0 7 2.5t7 6.5q5 8 11 16t7 8q7 0 21 -7.5t21 -17.5q16 -20 55 -20z" />
    <glyph glyph-name="odieresis" unicode="&#xf6;" horiz-adv-x="592" 
d="M592 464q0 14 -1.5 29.5t-5.5 32.5q1 -1 1 -2v0v1q0 3 -2.5 14.5t-4.5 17.5q-2 8 -3 14.5t-3 14.5q-4 22 -9.5 41t-13.5 38q-24 58 -73 101q-49 42 -100 43q1 -1 -8 -2t-15 -2q-10 -2 -12 -2q-65 0 -157 -88q-32 -31 -62.5 -84.5t-63.5 -136.5q-11 -27 -17 -53t-10 -52
t-5.5 -43.5t-1.5 -25.5q-1 -8 -1.5 -16.5t-0.5 -18.5q0 -17 2 -37t7 -44q21 -74 39 -86h-3q4 -6 10.5 -14t15.5 -19q9 -8 18.5 -15t20.5 -15q5 -3 14 -8t14 -7h-1q11 -7 26 -12q51 -17 71 -17q72 0 123 27l24 16h-1q8 5 11.5 7.5t6.5 4.5h-1q22 12 36.5 24.5t25.5 26.5
q53 62 82 157q15 48 21.5 95t6.5 95zM481 441q0 -90 -38 -169q-42 -87 -93 -115q-29 -20 -73 -20q-6 0 -29 5h1q-58 18 -84 56q-29 39 -29 130q0 34 9.5 69.5t28.5 77.5q21 45 43.5 76.5t47.5 58.5q57 58 97 58q49 0 87 -74q32 -67 32 -153zM372 944v-7q0 -31 13.5 -49
t33.5 -18h2q11 0 19.5 5.5t14 13.5t9 17t4.5 16v10q0 3 0.5 5.5t0.5 6.5q0 16 -8 32.5t-24 27.5q-7 4 -18 4q-20 0 -33 -19.5t-14 -44.5zM246 944v-6q0 -30 14 -48.5t32 -18.5h2q11 0 19 5.5t14 13.5t9 17t4 16h-1q4 11 4 21q0 17 -7.5 33.5t-26.5 27.5q-5 4 -18 4
q-20 0 -31.5 -19.5t-13.5 -45.5z" />
    <glyph glyph-name="divide" unicode="&#xf7;" horiz-adv-x="465" 
d="M448 426q0 54 -59 54q-10 0 -15 -1l-136 -10l-52.5 -4.5l-17.5 -1.5h-116q-9 0 -21 -12q-10 -10 -10 -21q0 -42 22.5 -65t65.5 -23h47l11.5 1l34.5 3l94 6h81q35 0 53 19.5t18 54.5zM324 599q0 26 -27 44q-23 17 -50 17q-49 0 -62 -28q-10 -21 -10 -40q0 -32 17.5 -53
t49.5 -21q31 0 56 25q26 26 26 56zM292 224q0 26 -27 44q-23 17 -50 17q-49 0 -62 -28q-10 -21 -10 -40q0 -32 17.5 -53t49.5 -21q31 0 56 25q26 26 26 56z" />
    <glyph glyph-name="oslash" unicode="&#xf8;" horiz-adv-x="592" 
d="M492 796q0 35 -11.5 56.5t-33.5 21.5t-29 -12q-16 -30 -19 -46h1l-3 -9q-5 1 -9.5 1.5t-10.5 0.5q1 -1 -8 -2t-15 -2q-10 -2 -12 -2q-65 0 -157 -88q-32 -31 -62.5 -84.5t-63.5 -136.5q-11 -27 -17 -53t-10 -52t-5.5 -43.5t-1.5 -25.5q-1 -8 -1.5 -16.5t-0.5 -18.5
q0 -17 2 -37t7 -44q21 -74 39 -86h-3q4 -6 10.5 -14t15.5 -19q9 -8 18.5 -15t20.5 -15q2 -1 6.5 -4t6.5 -4l6 -3h-6q-2 -7 -2 -12v-8q0 -25 17 -57q15 -35 36 -35q18 0 27 23q3 13 6 21q3 17 5 21l5 15q5 -1 9 -1h8q72 0 123 27l24 16h-1q8 5 11.5 7.5t6.5 4.5h-1
q22 12 36.5 24.5t25.5 26.5q53 62 82 157q15 48 21.5 95t6.5 95q0 14 -1.5 29.5t-5.5 32.5q1 -1 1 -2v0v1q0 3 -2.5 14.5t-4.5 17.5q-2 8 -3 14.5t-3 14.5q-4 22 -9.5 41t-13.5 38q-11 26 -27 50t-38 44h3q4 13 4 37zM481 441q0 -90 -38 -169q-42 -87 -93 -115
q-29 -20 -71 -20q5 17 8 29t5 15q8 26 11.5 41t5.5 29q11 34 23 72t28 83l9 27q11 26 20 51t19 51q7 17 14.5 39t14.5 40v1q4 -9 12 -21q32 -67 32 -153zM165 198q-29 39 -29 130q0 34 9.5 69.5t28.5 77.5q21 45 43.5 76.5t47.5 58.5q45 48 82 56q-19 -49 -40 -109t-43 -126
q-2 -6 -14 -45t-39 -125q-5 -17 -11 -34.5t-11 -37.5q-1 -4 -2 -7t-2 -7h1l-1 -2q-5 5 -10.5 11t-9.5 14z" />
    <glyph glyph-name="ugrave" unicode="&#xf9;" horiz-adv-x="517" 
d="M518 688q0 81 -49 81q-67 0 -67 -85v-24q0 -8 -3 -36q-1 -5 -1 -11q0 -5 -1 -12v-5q-1 -15 -3 -56.5t-6 -112.5q-3 -54 -8 -96.5t-10 -75.5q-5 -32 -18 -44h1q-11 -7 -18 -11t-13 -7q-117 -61 -163 -61q-27 0 -27 64q0 36 3 79.5t8 94.5q3 23 5.5 45.5t5.5 45.5
q2 20 4.5 40t5.5 40q0 2 0.5 3t0.5 3q2 10 4.5 26t7.5 39q9 43 9 70q0 29 -20 52h1q-18 23 -47 23q-23 0 -35 -25q-4 -15 -6 -26l-4 -22l-2 -10t-1 -10q-11 -78 -20 -151.5t-18 -148.5q-8 -66 -11 -111.5t-3 -76.5q0 -23 1.5 -43.5t3.5 -38.5q7 -33 29 -56q40 -38 114 -38
q20 0 51 9.5t77 27.5q5 2 8.5 3.5t7.5 3.5l10 5t17 9h-1q5 2 9 3t8 3q5 2 13 4q7 -9 15 -21t16 -26q29 -17 46 -17q7 0 12.5 1.5t7.5 4.5h-4q20 12 20 43v11q0 7 -2 21q0 2 -0.5 3t-0.5 3q-3 13 -3 23l2 20q2 13 3.5 34t4.5 51q6 69 11.5 151.5t12.5 182.5q1 9 1 17t1 16
q1 16 1.5 29.5t1.5 24.5q2 21 3 33t1 15zM421 852q0 40 -57 145l-37 73q-30 51 -68 51q-24 0 -42 -15.5t-18 -36.5q0 -6 2 -13.5t8 -18.5q12 -23 24 -41.5t23 -34.5h-2l3 -6t6 -10q-1 2 1.5 -1.5t5.5 -8.5h-1q2 -10 6 -17q3 -7 8 -16q14 -26 23.5 -42t14.5 -24
q19 -24 51 -24q49 0 49 40z" />
    <glyph glyph-name="uacute" unicode="&#xfa;" horiz-adv-x="517" 
d="M518 688q0 81 -57 81q-74 0 -74 -85v-24q0 -8 -3 -36q-1 -4 -1 -12q0 -3 -0.5 -5.5t-0.5 -5.5v-5q-1 -9 -1.5 -26.5t-2.5 -44.5q-1 -20 -2 -44t-3 -54q-3 -54 -7.5 -96.5t-9.5 -75.5q-5 -35 -14 -44h2l-6 -4q-8 -5 -13 -8.5t-10 -5.5q-113 -61 -152 -61q-16 0 -16 64
q0 36 2.5 79.5t7.5 94.5q2 11 2.5 21.5t2.5 21.5l6 48q0 2 0.5 4t0.5 4q2 17 3.5 35.5t4.5 36.5v3q0 1 0.5 1.5t0.5 1.5t0.5 2t0.5 3q2 10 4 25t7 35q5 22 6.5 39t1.5 31q0 28 -21 52h1q-17 23 -53 23q-17 0 -27 -7.5t-17 -21.5q-3 -9 -4 -16.5t-3 -15.5q-1 -3 -1 -6t-1 -6
v-7q-2 -8 -2 -13q-10 -65 -17 -126.5t-14 -124.5q-2 -12 -3 -24.5t-3 -24.5q-8 -66 -10.5 -111.5t-2.5 -76.5q0 -23 1 -43.5t3 -38.5q8 -30 31 -56q38 -38 117 -38q20 0 51 9.5t75 27.5q10 4 18 7t29 14h-7q5 2 9 3t8 3q2 0 3 1q5 -7 10.5 -17t14.5 -24q17 -10 30 -15t25 -5
q10 0 18 1.5t10 4.5h-8q11 8 17.5 18t6.5 25v11q0 7 -2 21q0 1 -0.5 1.5t-0.5 1.5v3q-3 13 -3 23l2 20q1 13 3 35q1 11 2 23t3 27q5 59 9.5 126.5t9.5 148.5q1 14 2 29l2 30q0 5 0.5 8.5t0.5 7.5v9t1 8q1 16 1.5 29.5t1.5 24.5q2 21 3 33t1 15zM280 852q0 -40 48 -40
q32 0 52 24q10 14 38 66q2 5 3 8.5t3 7.5q2 3 3.5 7t4.5 10h-1q3 5 5.5 8.5t1.5 1.5q8 13 8 16h-2q11 17 22.5 35t25.5 41q5 11 7 18.5t2 13.5q0 21 -18 36.5t-41 15.5q-38 0 -69 -51l-36 -73q-29 -53 -43 -89t-14 -56z" />
    <glyph glyph-name="ucircumflex" unicode="&#xfb;" horiz-adv-x="517" 
d="M518 688q0 81 -57 81q-74 0 -74 -85v-24q0 -8 -3 -36q-1 -4 -1 -12q0 -3 -0.5 -5.5t-0.5 -5.5v-5q-1 -9 -1.5 -26.5t-2.5 -44.5q-1 -20 -2 -44t-2 -54q-4 -54 -8.5 -96.5t-9.5 -75.5q-5 -36 -14 -44h2l-6 -4q-8 -5 -13 -8.5t-10 -5.5q-113 -61 -152 -61q-16 0 -16 64
q0 36 2.5 79.5t7.5 94.5q2 11 2.5 21.5t2.5 21.5l6 48q0 2 0.5 4t0.5 4q2 17 3.5 35.5t4.5 36.5v3q0 1 0.5 1.5t0.5 1.5t0.5 2t0.5 3q2 10 4 25t7 35q9 43 9 70t-22 52h1q-17 23 -53 23q-17 0 -27 -7.5t-17 -21.5q-3 -9 -4 -16.5t-3 -15.5q-1 -4 -1 -12q0 -2 -0.5 -3.5
t-0.5 -3.5q-2 -8 -2 -13q-10 -65 -17 -126.5t-14 -124.5q-2 -12 -3 -24.5t-3 -24.5q-8 -66 -10.5 -111.5t-2.5 -76.5q0 -23 1 -43.5t3 -38.5q8 -30 31 -56q38 -38 117 -38q20 0 51 9.5t76 27.5l17.5 7t28.5 14h-7q5 2 9 3t8 3q2 0 3 1q10 -14 25 -41q34 -20 55 -20
q10 0 18 1.5t10 4.5h-8q24 15 24 43v11q0 7 -2 21q0 1 -0.5 1.5t-0.5 1.5v3q-3 13 -3 23l2 20q1 13 3 35q1 11 2 23t3 27q5 59 9.5 126.5t9.5 148.5q1 14 2 29l2 30q0 5 0.5 8.5t0.5 7.5v9t1 8q1 16 1.5 29.5t1.5 24.5q2 21 3 33t1 15zM496 831q26 2 26 9l-1.5 2t-3.5 6h1
q-7 15 -16 33.5t-18.5 39t-18 41.5t-15.5 41h1q-2 9 -8 14.5t-16 12.5q-10 5 -15 7t-9 4q-5 2 -10.5 4t-10.5 4q-9 3 -18 3q-20 0 -29 -13h1q-20 -19 -38 -41t-34.5 -43t-29.5 -40t-22 -32q-6 -7 -6 -11q0 -6 13 -18h-1q5 -5 13 -11t18 -11h-1q2 -2 6 -3.5t6 -1.5h-3
q6 -3 18 -3q9 2 13 4t6 5q15 21 33 45.5t41 50.5q5 -11 9 -21.5t9 -19.5q6 -12 10 -21t8 -17q15 -19 44 -21q3 -1 7 -1h9zM429 1029l-1 1h-1q0 -1 2 -1zM248 832h-1h1z" />
    <glyph glyph-name="udieresis" unicode="&#xfc;" horiz-adv-x="517" 
d="M518 688q0 81 -57 81q-74 0 -74 -85v-24q0 -8 -3 -36q-1 -4 -1 -12q0 -3 -0.5 -5.5t-0.5 -5.5v-5q-1 -9 -1.5 -26.5t-2.5 -44.5q-1 -20 -2 -44t-3 -54q-3 -54 -7.5 -96.5t-9.5 -75.5q-5 -35 -14 -44h2l-6 -4q-8 -5 -13 -8.5t-10 -5.5q-113 -61 -152 -61q-16 0 -16 64
q0 36 2.5 79.5t7.5 94.5q2 11 2.5 21.5t2.5 21.5l6 48q0 2 0.5 4t0.5 4q2 17 3.5 35.5t4.5 36.5v3q0 1 0.5 1.5t0.5 1.5t0.5 2t0.5 3q2 10 4 25t7 35q5 22 6.5 39t1.5 31q0 28 -21 52h1q-17 23 -53 23q-17 0 -27 -7.5t-17 -21.5q-3 -9 -4 -16.5t-3 -15.5q-1 -3 -1 -6t-1 -6
v-7q-2 -8 -2 -13q-10 -65 -17 -126.5t-14 -124.5q-2 -12 -3 -24.5t-3 -24.5q-8 -66 -10.5 -111.5t-2.5 -76.5q0 -23 1 -43.5t3 -38.5q8 -30 31 -56q38 -38 117 -38q20 0 51 9.5t75 27.5q10 4 18 7t29 14h-7q5 2 9 3t8 3q2 0 3 1q5 -7 10.5 -17t14.5 -24q17 -10 30 -15t25 -5
q10 0 18 1.5t10 4.5h-8q11 8 17.5 18t6.5 25v11q0 7 -2 21q0 1 -0.5 1.5t-0.5 1.5v3q-3 13 -3 23l2 20q1 13 3 35q1 11 2 23t3 27q5 59 9.5 126.5t9.5 148.5q1 14 2 29l2 30q0 5 0.5 8.5t0.5 7.5v9t1 8q1 16 1.5 29.5t1.5 24.5q2 21 3 33t1 15zM370 916v-7q0 -31 17 -49
t41 -18h3q14 0 24.5 5.5t17.5 13.5t11 17t6 16v2q1 5 1.5 9.5t0.5 10.5q0 17 -10.5 33t-32.5 27q-8 4 -22 4q-25 0 -40.5 -19.5t-16.5 -44.5zM201 916v-5q0 -31 17.5 -49.5t41.5 -18.5h3q13 0 23.5 5.5t18 13.5t11.5 17t5 16q3 12 3 21q0 17 -10 33.5t-33 27.5q-8 4 -21 4
q-26 0 -41.5 -19.5t-17.5 -45.5z" />
    <glyph glyph-name="yacute" unicode="&#xfd;" horiz-adv-x="495" 
d="M512 741q0 60 -49 60q-31 0 -86 -75q-17 -23 -33 -48t-32 -51h1q-2 -2 -5 -6t-5 -6l-11 -22l-10 -18t-10 -20l-27 -51q-5 0 -35 44q-11 16 -20 30t-17 29q-8 20 -13.5 34t-9.5 24q1 -1 1 -2v0h1q0 2 -5 13t-7 16q-1 2 -2.5 5.5t-3.5 5.5h2l-16 54q-20 48 -52 48
q-24 0 -37 -20t-13 -48t19 -86q12 -39 32 -84q17 -38 38.5 -72t50.5 -65h-1l8.5 -8.5t6.5 -7.5q3 -2 10 -9h-1q14 -17 14 -34v-4l-47 -282v-3q0 -27 15 -51q15 -26 41 -26q9 0 16 3.5t15 10.5q4 4 8.5 19t11.5 40q5 22 8.5 38.5t5.5 29.5v7q7 46 13 76.5t11 46.5h-1q2 6 2 9
q0 4 1 6q2 8 4 18.5t6 24.5q9 44 14 57q40 121 164 286q7 8 9 13q8 10 11 14l3 4h-1q7 11 7 33zM201 907q0 -40 39 -40q25 0 36 17q8 12 15.5 30t17.5 43q2 5 4.5 12t4.5 11q1 6 1 7t1 3t2 4.5t2 4.5q2 4 3.5 8t3.5 9h-2q8 13 16.5 31.5t19.5 44.5q7 18 7 32q0 21 -14 36.5
t-33 15.5q-30 0 -54 -51l-26 -73q-44 -106 -44 -145z" />
    <glyph glyph-name="thorn" unicode="&#xfe;" horiz-adv-x="412" 
d="M288 163q70 52 111 111t41 139q-5 60 -24.5 101.5t-62.5 74.5q-25 19 -68.5 34.5t-88.5 23.5h8q2 14 4.5 31t4.5 34q2 9 2.5 17.5t2.5 16.5q0 16 -5 30.5t-13.5 25.5t-20 17.5t-24.5 6.5h-2v3q0 3 -0.5 4l-0.5 1l1 1h-7q-17 0 -32.5 -53t-31 -154t-32 -248t-35.5 -335
q2 -8 4.5 -16.5t7.5 -17.5h-1l1 -2h1l8 -4h-1l41 -28h22q4 8 5 11l5 15t3.5 11t2.5 11.5t2 16.5q0 2 1 7q2 16 6 47h9q56 12 91 27.5t65 39.5zM145 224v3q2 22 6.5 62.5t9.5 84t10 81t8 53.5h-1l9 27q13 0 29.5 -2.5t34 -8t34.5 -14t30 -21.5h-3q0 -4 5 -4v-1h1
q21 -33 21 -67q0 -30 -14.5 -56.5t-38.5 -51t-56 -47t-66 -44.5h1l-15 -6l-7 12h2z" />
    <glyph glyph-name="ydieresis" unicode="&#xff;" horiz-adv-x="500" 
d="M680 741q0 60 -63 60q-20 0 -47 -18.5t-65 -56.5q-29 -28 -51.5 -54t-43.5 -52q-3 -5 -6 -9l-6 -8q-8 -12 -17 -23.5t-17 -24.5q-38 -51 -41 -51q-9 0 -51 44q-14 15 -26 29t-23 30h1q-9 16 -14 25l-10 18q-2 2 -4 5.5t-4 6.5q7 -10 9 -10q1 0 -2 5.5t-7 12t-8.5 13
t-5.5 9.5q-1 1 -3 4t-4 7h1l-26 65q-19 37 -61 37q-31 0 -47.5 -20t-16.5 -48q0 -12 6.5 -33.5t20.5 -52.5q9 -23 19.5 -44t21.5 -40q22 -38 51.5 -71.5t69.5 -65.5h-1q4 -4 10.5 -8.5t14.5 -9.5h-1q2 -2 4.5 -3.5t4.5 -3.5h-1q9 -8 13 -17t4 -17v-4l-62 -282v-3
q0 -27 19 -51q21 -26 53 -26q19 0 30 8q17 13 34 65q9 29 14 46.5t7 28.5q11 51 18 80.5t12 42.5q1 2 2.5 6t3.5 10q2 8 4 18t7 24q5 18 10 32t10 25q28 63 83 134t137 152l30 31h-1q11 12 11 33zM344 942v-7q0 -31 17.5 -49t41.5 -18h3q14 0 24.5 5.5t17.5 13.5t11 17t6 16
v2q1 5 1.5 9.5t0.5 10.5q0 17 -10 33t-33 27q-8 4 -22 4q-26 0 -41 -19.5t-17 -44.5zM174 942v-5q0 -31 17.5 -49.5t41.5 -18.5h3q13 0 23.5 5.5t18 13.5t12 17t5.5 16h-1q4 11 4 21q0 17 -10 33.5t-33 27.5q-8 4 -22 4q-26 0 -41.5 -19.5t-17.5 -45.5z" />
    <glyph glyph-name="minus" horiz-adv-x="476" 
d="M455 411q0 49 -61 56q-2 1 -7 1h-13l-140 -12q-35 -3 -52.5 -4l-17.5 -1h-126q-8 0 -21 -13q-13 -16 -13 -22q0 -45 25 -69.5t70 -24.5h69q8 0 18 0.5t23 1.5q57 3 102 6.5t80 6.5q25 1 27 3q18 4 28 29q7 21 9 42z" />
    </font>
</defs>
</svg>
